G75*
%MOIN*%
%OFA0B0*%
%FSLAX24Y24*%
%IPPOS*%
%LPD*%
%AMOC8*
5,1,8,0,0,1.08239X$1,22.5*
%
%ADD10C,0.0200*%
%ADD11C,0.0160*%
%ADD12C,0.0140*%
%ADD13R,0.0075X0.0025*%
%ADD14R,0.0124X0.0025*%
%ADD15R,0.0051X0.0025*%
%ADD16R,0.0050X0.0025*%
%ADD17R,0.0100X0.0025*%
%ADD18R,0.0026X0.0025*%
%ADD19R,0.0025X0.0025*%
%ADD20R,0.0049X0.0025*%
%ADD21R,0.0076X0.0025*%
%ADD22R,0.0174X0.0025*%
%ADD23R,0.0149X0.0025*%
%ADD24R,0.0101X0.0025*%
%ADD25R,0.0024X0.0025*%
%ADD26R,0.0151X0.0025*%
%ADD27R,0.0199X0.0025*%
%ADD28R,0.0125X0.0025*%
%ADD29R,0.0200X0.0025*%
%ADD30R,0.0250X0.0025*%
%ADD31R,0.0099X0.0025*%
%ADD32R,0.0176X0.0025*%
%ADD33R,0.0225X0.0025*%
%ADD34R,0.0126X0.0025*%
%ADD35R,0.0074X0.0025*%
%ADD36R,0.0300X0.0025*%
%ADD37R,0.0374X0.0025*%
%ADD38R,0.0525X0.0025*%
%ADD39R,0.0326X0.0025*%
%ADD40R,0.0275X0.0025*%
%ADD41R,0.0201X0.0025*%
%ADD42R,0.0150X0.0025*%
%ADD43R,0.0175X0.0025*%
%ADD44R,0.0224X0.0025*%
%ADD45R,0.0249X0.0025*%
%ADD46R,0.0625X0.0025*%
%ADD47R,0.0226X0.0025*%
%ADD48R,0.0950X0.0025*%
%ADD49R,0.1250X0.0025*%
%ADD50R,0.1276X0.0025*%
%ADD51R,0.1500X0.0025*%
%ADD52R,0.1524X0.0025*%
%ADD53R,0.1699X0.0025*%
%ADD54R,0.1724X0.0025*%
%ADD55R,0.1926X0.0025*%
%ADD56R,0.2101X0.0025*%
%ADD57R,0.2125X0.0025*%
%ADD58R,0.2275X0.0025*%
%ADD59R,0.2425X0.0025*%
%ADD60R,0.2400X0.0025*%
%ADD61R,0.2600X0.0025*%
%ADD62R,0.2551X0.0025*%
%ADD63R,0.2650X0.0025*%
%ADD64R,0.2625X0.0025*%
%ADD65R,0.2500X0.0025*%
%ADD66R,0.2599X0.0025*%
%ADD67R,0.2450X0.0025*%
%ADD68R,0.2300X0.0025*%
%ADD69R,0.2150X0.0025*%
%ADD70R,0.2175X0.0025*%
%ADD71R,0.2001X0.0025*%
%ADD72R,0.1976X0.0025*%
%ADD73R,0.1951X0.0025*%
%ADD74R,0.1824X0.0025*%
%ADD75R,0.1799X0.0025*%
%ADD76R,0.1774X0.0025*%
%ADD77R,0.1351X0.0025*%
%ADD78R,0.1150X0.0025*%
%ADD79R,0.1175X0.0025*%
%ADD80R,0.0701X0.0025*%
%ADD81R,0.0726X0.0025*%
%ADD82R,0.0251X0.0025*%
%ADD83R,0.0274X0.0025*%
%ADD84R,0.0449X0.0025*%
%ADD85R,0.0524X0.0025*%
%ADD86R,0.0399X0.0025*%
%ADD87R,0.0376X0.0025*%
%ADD88R,0.0575X0.0025*%
%ADD89R,0.0800X0.0025*%
%ADD90R,0.0401X0.0025*%
%ADD91R,0.0351X0.0025*%
%ADD92R,0.0276X0.0025*%
%ADD93R,0.0476X0.0025*%
%ADD94R,0.0325X0.0025*%
%ADD95R,0.0350X0.0025*%
%ADD96R,0.0301X0.0025*%
%ADD97R,0.0425X0.0025*%
%ADD98R,0.0375X0.0025*%
%ADD99R,0.0324X0.0025*%
%ADD100R,0.0400X0.0025*%
%ADD101R,0.1074X0.0025*%
%ADD102R,0.0951X0.0025*%
%ADD103R,0.0451X0.0025*%
%ADD104R,0.0676X0.0025*%
%ADD105R,0.0599X0.0025*%
%ADD106R,0.0725X0.0025*%
%ADD107R,0.0600X0.0025*%
%ADD108R,0.0475X0.0025*%
%ADD109R,0.0551X0.0025*%
%ADD110R,0.0499X0.0025*%
%ADD111R,0.0574X0.0025*%
%ADD112C,0.0080*%
D10*
X006730Y004531D02*
X006730Y007031D01*
X007730Y007031D01*
X008530Y006231D01*
X009730Y007331D01*
X010930Y006231D01*
X011730Y007031D01*
X012730Y007031D01*
X012730Y004531D01*
X009730Y001931D01*
X006730Y004531D01*
X006230Y006931D02*
X003730Y006931D01*
X001130Y009931D01*
X003730Y012931D01*
X006230Y012931D01*
X006130Y011831D01*
X005430Y011131D01*
X006530Y009931D01*
X005430Y008731D01*
X006230Y007931D01*
X006230Y006931D01*
X012930Y009931D02*
X014030Y011131D01*
X014030Y011231D01*
X013330Y011931D01*
X013330Y012931D01*
X015730Y012931D01*
X018330Y009931D01*
X014030Y008731D02*
X012930Y009931D01*
X014030Y008731D02*
X013230Y007931D01*
X013230Y007031D01*
X013330Y006931D01*
X015730Y006931D01*
X009730Y012731D02*
X008530Y013831D01*
X007630Y012931D01*
X006730Y012931D01*
X006730Y015531D01*
X009730Y018131D01*
X012730Y015531D01*
X012730Y013131D01*
X012630Y013031D01*
X011730Y013031D01*
X010930Y013831D01*
X009730Y012731D01*
D11*
X015830Y007031D02*
X018330Y009931D01*
D12*
X029760Y002968D02*
X030140Y002968D01*
X030267Y002841D01*
X030267Y002334D01*
X030140Y002207D01*
X029760Y002207D01*
X029760Y002968D01*
X030589Y002714D02*
X030842Y002968D01*
X031096Y002714D01*
X031096Y002207D01*
X031417Y002207D02*
X031417Y002968D01*
X031925Y002207D01*
X031925Y002968D01*
X032246Y002841D02*
X032246Y002334D01*
X032373Y002207D01*
X032626Y002207D01*
X032753Y002334D01*
X033075Y002207D02*
X033582Y002207D01*
X033075Y002207D02*
X033075Y002968D01*
X033582Y002968D01*
X033328Y002587D02*
X033075Y002587D01*
X032753Y002841D02*
X032626Y002968D01*
X032373Y002968D01*
X032246Y002841D01*
X031096Y002587D02*
X030589Y002587D01*
X030589Y002714D02*
X030589Y002207D01*
X030842Y001821D02*
X031096Y001568D01*
X031096Y001061D01*
X031417Y001061D02*
X031417Y001821D01*
X031798Y001821D01*
X031925Y001695D01*
X031925Y001441D01*
X031798Y001314D01*
X031417Y001314D01*
X031671Y001314D02*
X031925Y001061D01*
X032500Y001061D02*
X032500Y001821D01*
X032753Y001821D02*
X032246Y001821D01*
X033075Y001821D02*
X033075Y001695D01*
X033328Y001441D01*
X033328Y001061D01*
X033328Y001441D02*
X033582Y001695D01*
X033582Y001821D01*
X031096Y001441D02*
X030589Y001441D01*
X030589Y001568D02*
X030842Y001821D01*
X030589Y001568D02*
X030589Y001061D01*
X030267Y001441D02*
X030140Y001314D01*
X029760Y001314D01*
X029760Y001061D02*
X029760Y001821D01*
X030140Y001821D01*
X030267Y001695D01*
X030267Y001441D01*
X024537Y002007D02*
X024030Y002007D01*
X024030Y002768D01*
X024537Y002768D01*
X024283Y002387D02*
X024030Y002387D01*
X023708Y002768D02*
X023201Y002768D01*
X023455Y002768D02*
X023455Y002007D01*
X022902Y002007D02*
X022649Y002007D01*
X022775Y002007D02*
X022775Y002768D01*
X022649Y002768D02*
X022902Y002768D01*
X022327Y002641D02*
X022327Y002514D01*
X022200Y002387D01*
X021820Y002387D01*
X022200Y002387D02*
X022327Y002261D01*
X022327Y002134D01*
X022200Y002007D01*
X021820Y002007D01*
X021820Y002768D01*
X022200Y002768D01*
X022327Y002641D01*
D13*
X023435Y004606D03*
X023460Y004831D03*
X023585Y004881D03*
X023660Y004781D03*
X023685Y004706D03*
X024110Y005056D03*
X023885Y005256D03*
X023835Y005431D03*
X023935Y005481D03*
X024060Y005431D03*
X024035Y005581D03*
X024110Y005656D03*
X024185Y005756D03*
X024235Y005781D03*
X024235Y005831D03*
X024185Y005956D03*
X024085Y005856D03*
X023885Y005681D03*
X023635Y005481D03*
X023485Y005406D03*
X023485Y005381D03*
X023510Y005256D03*
X023660Y005306D03*
X024310Y005306D03*
X024510Y005506D03*
X024510Y005531D03*
X024510Y005556D03*
X024360Y005781D03*
X024710Y005831D03*
X024710Y005856D03*
X024710Y005881D03*
X024710Y005906D03*
X024860Y005806D03*
X024935Y005906D03*
X024710Y006131D03*
X024460Y006131D03*
X024460Y006106D03*
X024885Y006381D03*
X024985Y006656D03*
X024535Y006656D03*
X024535Y006681D03*
X024510Y006706D03*
X024510Y006731D03*
X024510Y006756D03*
X024460Y007006D03*
X024135Y006781D03*
X024060Y006906D03*
X023910Y006956D03*
X023910Y006981D03*
X023910Y007006D03*
X024035Y007181D03*
X024035Y007206D03*
X023835Y007406D03*
X023810Y007431D03*
X023685Y007531D03*
X023610Y007581D03*
X023585Y007406D03*
X023610Y007381D03*
X023610Y007356D03*
X023710Y007306D03*
X023435Y007456D03*
X023335Y007381D03*
X023335Y007356D03*
X023285Y007256D03*
X023010Y007306D03*
X022560Y007281D03*
X022560Y007256D03*
X022560Y007406D03*
X022360Y007481D03*
X022385Y007106D03*
X022385Y007081D03*
X022210Y007131D03*
X022185Y007081D03*
X021860Y006506D03*
X021560Y006581D03*
X021560Y006606D03*
X021535Y006531D03*
X021010Y006481D03*
X020785Y006381D03*
X020935Y006081D03*
X021060Y006106D03*
X021110Y006031D03*
X021060Y005981D03*
X021035Y005781D03*
X021235Y005506D03*
X021310Y005356D03*
X021535Y005156D03*
X021860Y004881D03*
X022185Y004756D03*
X022360Y005106D03*
X022085Y005356D03*
X022060Y005381D03*
X021960Y005506D03*
X021885Y005581D03*
X021960Y005756D03*
X022185Y005531D03*
X022360Y005556D03*
X022360Y005581D03*
X022360Y005606D03*
X022485Y005481D03*
X023285Y005356D03*
X023285Y005331D03*
X023285Y005306D03*
X023260Y004906D03*
X023210Y004856D03*
X024910Y005556D03*
X024935Y005531D03*
X025185Y005456D03*
X025185Y005431D03*
X025285Y005456D03*
X025310Y005631D03*
X025510Y005681D03*
X025285Y005956D03*
X025310Y005981D03*
X025335Y006006D03*
X025360Y006031D03*
X025385Y006056D03*
X025385Y006331D03*
X025460Y006431D03*
X027120Y006146D03*
X028245Y005671D03*
X028695Y005471D03*
X028720Y005446D03*
X028745Y005421D03*
X029070Y005121D03*
X029095Y005096D03*
X029795Y005371D03*
X029820Y005396D03*
X029845Y005421D03*
X029870Y005446D03*
X029895Y005471D03*
X029795Y005471D03*
X030045Y005446D03*
X030070Y005471D03*
X030220Y005921D03*
X030295Y006021D03*
X030320Y006046D03*
X030345Y006096D03*
X030445Y006246D03*
X030495Y006321D03*
X030520Y006371D03*
X030545Y006396D03*
X030645Y006571D03*
X030670Y006596D03*
X030670Y006621D03*
X030695Y006646D03*
X030695Y006671D03*
X030720Y006696D03*
X030745Y006721D03*
X030770Y006771D03*
X030870Y006921D03*
X030920Y006996D03*
X030945Y007021D03*
X030970Y007046D03*
X030995Y007096D03*
X031020Y007121D03*
X031045Y007146D03*
X031070Y007171D03*
X031095Y007196D03*
X031145Y007271D03*
X029620Y007921D03*
X029620Y007946D03*
X029620Y007971D03*
X028995Y008446D03*
X028970Y008471D03*
X028445Y009046D03*
X028420Y009096D03*
X028395Y009121D03*
X028395Y009146D03*
X028370Y009196D03*
X028370Y009221D03*
X028370Y009671D03*
X028370Y009696D03*
X028395Y009746D03*
X028395Y009771D03*
X028420Y009796D03*
X028445Y009846D03*
X029445Y009771D03*
X029470Y009721D03*
X029470Y009696D03*
X029495Y009671D03*
X029495Y009646D03*
X029520Y009596D03*
X029520Y009571D03*
X029520Y009546D03*
X029520Y009521D03*
X029520Y009421D03*
X029520Y009396D03*
X029520Y009371D03*
X029520Y009346D03*
X029495Y009321D03*
X029495Y009296D03*
X029495Y009271D03*
X029470Y009221D03*
X029445Y009171D03*
X029420Y009146D03*
X029620Y009046D03*
X029620Y009021D03*
X029645Y009071D03*
X029670Y009096D03*
X029670Y009121D03*
X029695Y009146D03*
X029695Y009171D03*
X029695Y009196D03*
X029720Y009221D03*
X029720Y009246D03*
X029720Y009271D03*
X029745Y009346D03*
X029745Y009371D03*
X029745Y009571D03*
X029745Y009596D03*
X029745Y009621D03*
X029745Y009646D03*
X029720Y009671D03*
X029720Y009696D03*
X029720Y009721D03*
X029695Y009746D03*
X029695Y009771D03*
X029670Y009796D03*
X029645Y009821D03*
X029645Y009846D03*
X029620Y009871D03*
X030645Y009471D03*
X030695Y009371D03*
X030745Y009221D03*
X030745Y009196D03*
X030745Y009171D03*
X030770Y009096D03*
X030870Y008921D03*
X030870Y008896D03*
X030945Y008746D03*
X030970Y008721D03*
X030970Y008696D03*
X030995Y008646D03*
X031020Y008596D03*
X031045Y008571D03*
X031070Y008521D03*
X031095Y008496D03*
X031095Y008471D03*
X031120Y008421D03*
X031145Y008346D03*
X031170Y008321D03*
X031170Y008296D03*
X031745Y008646D03*
X031695Y008721D03*
X031495Y008921D03*
X033970Y009271D03*
X033945Y009671D03*
X033945Y009696D03*
X034095Y008871D03*
X034570Y008846D03*
X034620Y008596D03*
X034620Y008571D03*
X034695Y008421D03*
X034645Y008346D03*
X034620Y008321D03*
X033970Y008421D03*
X033470Y007546D03*
X033320Y007321D03*
X033370Y007021D03*
X033995Y006446D03*
X034095Y006246D03*
X032070Y005871D03*
X031670Y005471D03*
X030670Y004996D03*
X030645Y004946D03*
X030545Y004846D03*
X030545Y004821D03*
X030520Y004796D03*
X030495Y004771D03*
X030470Y004746D03*
X030445Y004721D03*
X030470Y004871D03*
X029270Y004471D03*
X029095Y004071D03*
X029070Y004046D03*
X028695Y004046D03*
X028695Y004071D03*
X028695Y004096D03*
X028695Y004021D03*
X028695Y003971D03*
X028695Y004321D03*
X028670Y004446D03*
X028270Y004871D03*
X028145Y005021D03*
X028120Y005046D03*
X028045Y005146D03*
X030470Y005921D03*
X030520Y005996D03*
X028995Y006696D03*
X029345Y007046D03*
X029095Y007346D03*
X029070Y007371D03*
X029045Y007421D03*
X029045Y007446D03*
X025335Y005106D03*
X028720Y003571D03*
X028745Y003596D03*
X021460Y005681D03*
X021385Y005906D03*
X020935Y006756D03*
X022210Y008031D03*
X022210Y008056D03*
X022235Y008131D03*
X022235Y008181D03*
X022560Y008256D03*
X022560Y008281D03*
X022510Y008581D03*
X022510Y008606D03*
X022535Y008631D03*
X022785Y008956D03*
X022810Y008981D03*
X023185Y009106D03*
X023235Y009081D03*
X023260Y009056D03*
X023285Y009031D03*
X023560Y008256D03*
X023910Y008281D03*
X023910Y008056D03*
X023910Y008031D03*
X024085Y007781D03*
X024110Y007756D03*
X024110Y007731D03*
X024135Y007706D03*
X020685Y005156D03*
X020610Y005106D03*
D14*
X021410Y005756D03*
X021410Y005856D03*
X022285Y005456D03*
X022260Y005231D03*
X022310Y005206D03*
X022335Y005181D03*
X022660Y005481D03*
X022660Y005506D03*
X023135Y004906D03*
X022935Y004631D03*
X021960Y004831D03*
X024410Y005656D03*
X024410Y006206D03*
X024410Y006231D03*
X024360Y006356D03*
X022635Y007131D03*
X022910Y007556D03*
X022060Y007831D03*
X021985Y006881D03*
X028145Y005821D03*
X028195Y005796D03*
X028245Y005771D03*
X028445Y005646D03*
X028545Y005571D03*
X030545Y004971D03*
X031745Y005621D03*
X033770Y006271D03*
X033520Y006896D03*
X033420Y006971D03*
X033145Y007371D03*
X032845Y008746D03*
X033045Y008871D03*
X033420Y008996D03*
X033670Y009221D03*
X033520Y009521D03*
X033570Y009871D03*
X029170Y004296D03*
X029145Y004196D03*
X028545Y003471D03*
D15*
X025248Y005181D03*
X025223Y005206D03*
X024648Y005406D03*
X024623Y005706D03*
X024648Y005781D03*
X025248Y005756D03*
X023998Y005756D03*
X023998Y005731D03*
X023048Y005281D03*
X023073Y005231D03*
X023048Y004856D03*
X023398Y004856D03*
X023398Y004631D03*
X023973Y004981D03*
X022448Y005056D03*
X022148Y005031D03*
X022148Y005006D03*
X022123Y004931D03*
X021823Y004931D03*
X021798Y004956D03*
X021798Y004981D03*
X021798Y005006D03*
X021348Y005231D03*
X021323Y005281D03*
X021323Y005306D03*
X021323Y005331D03*
X021348Y005431D03*
X021348Y005456D03*
X021348Y005481D03*
X021323Y005531D03*
X021323Y005556D03*
X021498Y005656D03*
X021648Y005456D03*
X021498Y005331D03*
X021498Y005306D03*
X021798Y005706D03*
X021823Y005906D03*
X021798Y005981D03*
X021798Y006081D03*
X021798Y006106D03*
X021673Y006106D03*
X021673Y006081D03*
X021673Y006056D03*
X021673Y006006D03*
X021673Y005981D03*
X021673Y005956D03*
X022123Y005731D03*
X022123Y005706D03*
X021123Y005831D03*
X021123Y005931D03*
X020973Y005881D03*
X020973Y005856D03*
X020773Y005831D03*
X020773Y005956D03*
X020698Y006031D03*
X020773Y006131D03*
X020973Y006356D03*
X020948Y006381D03*
X021123Y006131D03*
X021473Y006331D03*
X021473Y006356D03*
X021498Y006406D03*
X021498Y006431D03*
X021673Y006831D03*
X021798Y007056D03*
X021823Y007106D03*
X022123Y007006D03*
X022148Y007031D03*
X022123Y007231D03*
X022148Y007256D03*
X022423Y007306D03*
X022448Y007531D03*
X021823Y007631D03*
X022748Y007281D03*
X022748Y007256D03*
X022748Y007231D03*
X022423Y007056D03*
X023073Y007506D03*
X023073Y007531D03*
X023073Y007556D03*
X023373Y007506D03*
X023398Y007256D03*
X023998Y007231D03*
X023973Y007056D03*
X023998Y007031D03*
X023998Y008156D03*
X023973Y008181D03*
X023973Y008206D03*
X023373Y008956D03*
X022748Y008931D03*
X022448Y008381D03*
X022423Y008356D03*
X022423Y008306D03*
X022423Y008281D03*
X022148Y008206D03*
X022123Y008181D03*
X020698Y005181D03*
X028308Y005646D03*
X030183Y005596D03*
X033333Y007046D03*
X033333Y007346D03*
X033333Y007596D03*
X033333Y007621D03*
X033333Y007971D03*
X034583Y008496D03*
X034583Y008821D03*
X030833Y008971D03*
X030833Y009246D03*
X030833Y009271D03*
X028333Y009346D03*
X028333Y009371D03*
X028333Y009421D03*
X028333Y009446D03*
X028333Y009496D03*
X028333Y009521D03*
X028333Y009546D03*
X033908Y006571D03*
D16*
X033883Y006596D03*
X033833Y006646D03*
X033783Y006696D03*
X033633Y006821D03*
X033933Y006546D03*
X033933Y006521D03*
X033958Y006496D03*
X033983Y006471D03*
X034008Y006421D03*
X034033Y006396D03*
X034033Y006371D03*
X034058Y006346D03*
X034058Y006321D03*
X034108Y006221D03*
X034108Y006196D03*
X034108Y006171D03*
X032607Y006821D03*
X032557Y006721D03*
X032533Y006671D03*
X032533Y006646D03*
X032507Y006571D03*
X032507Y006546D03*
X032507Y006421D03*
X031183Y006996D03*
X031108Y006871D03*
X031083Y006846D03*
X030632Y006546D03*
X030558Y006421D03*
X030508Y006346D03*
X030483Y006296D03*
X030458Y006271D03*
X030433Y006221D03*
X030408Y006196D03*
X030408Y006171D03*
X030383Y006146D03*
X030358Y006121D03*
X030333Y006071D03*
X030283Y005996D03*
X030258Y005971D03*
X030233Y005946D03*
X030107Y005821D03*
X029982Y005821D03*
X029982Y005771D03*
X030107Y005521D03*
X030107Y005496D03*
X030333Y005796D03*
X030483Y005946D03*
X030508Y005971D03*
X031782Y005371D03*
X031808Y005421D03*
X031832Y005471D03*
X031858Y005521D03*
X031858Y005546D03*
X031882Y005571D03*
X031882Y005596D03*
X031882Y005621D03*
X031908Y005646D03*
X031908Y005671D03*
X030657Y004971D03*
X030383Y004646D03*
X029083Y004571D03*
X029008Y004571D03*
X028683Y004421D03*
X028683Y004396D03*
X028683Y004371D03*
X028683Y004346D03*
X028708Y004296D03*
X028708Y004271D03*
X028708Y004246D03*
X028708Y004221D03*
X028708Y004196D03*
X028708Y004171D03*
X028708Y004146D03*
X028708Y004121D03*
X028683Y003996D03*
X028882Y003996D03*
X028958Y004071D03*
X028708Y003721D03*
X028658Y004471D03*
X028133Y005696D03*
X029332Y006971D03*
X029332Y006996D03*
X029332Y007021D03*
X029332Y007071D03*
X029608Y007896D03*
X031008Y008621D03*
X030983Y008671D03*
X031058Y008546D03*
X031108Y008446D03*
X031133Y008396D03*
X031133Y008371D03*
X031183Y008271D03*
X031257Y008096D03*
X031257Y008071D03*
X031257Y007821D03*
X031257Y007796D03*
X031257Y007771D03*
X031257Y007746D03*
X031257Y007721D03*
X031257Y007696D03*
X031257Y007671D03*
X031257Y007646D03*
X031257Y007621D03*
X031257Y007596D03*
X031257Y007571D03*
X031257Y007546D03*
X031257Y007521D03*
X031257Y007496D03*
X031257Y007471D03*
X031257Y007446D03*
X031257Y007421D03*
X032257Y007946D03*
X032032Y008196D03*
X032008Y008221D03*
X031982Y008246D03*
X031982Y008271D03*
X031958Y008296D03*
X031932Y008346D03*
X031908Y008371D03*
X031882Y008421D03*
X031858Y008471D03*
X030908Y008821D03*
X030908Y008846D03*
X030883Y008871D03*
X030782Y009046D03*
X030782Y009071D03*
X030757Y009121D03*
X030757Y009146D03*
X030732Y009246D03*
X031108Y009146D03*
X029758Y009396D03*
X029758Y009421D03*
X029758Y009446D03*
X029758Y009471D03*
X029758Y009496D03*
X029758Y009521D03*
X029758Y009546D03*
X029733Y009321D03*
X029733Y009296D03*
X029532Y009446D03*
X029532Y009496D03*
X029507Y009621D03*
X029457Y009746D03*
X029432Y009796D03*
X029482Y009246D03*
X029457Y009196D03*
X028958Y008821D03*
X028958Y008796D03*
X028383Y009171D03*
X028358Y009646D03*
X028383Y009721D03*
X024273Y007681D03*
X024173Y007631D03*
X024148Y007681D03*
X024198Y007831D03*
X024173Y007881D03*
X024148Y007931D03*
X024123Y007981D03*
X024098Y008006D03*
X024073Y008056D03*
X024048Y008081D03*
X024023Y008131D03*
X023947Y008231D03*
X023922Y008256D03*
X023897Y008306D03*
X023872Y008331D03*
X023847Y008356D03*
X023822Y008381D03*
X023797Y008406D03*
X023847Y008206D03*
X023872Y008181D03*
X023872Y008131D03*
X023922Y008006D03*
X023797Y007956D03*
X023723Y008181D03*
X023573Y008231D03*
X023548Y008281D03*
X023548Y008306D03*
X023523Y008356D03*
X023498Y008406D03*
X023623Y008581D03*
X023598Y008631D03*
X023197Y008756D03*
X023347Y008981D03*
X023322Y009006D03*
X022923Y009106D03*
X022898Y009081D03*
X022873Y009056D03*
X022848Y009031D03*
X022823Y009006D03*
X022573Y008681D03*
X022548Y008656D03*
X022498Y008556D03*
X022498Y008531D03*
X022473Y008506D03*
X022473Y008481D03*
X022347Y008456D03*
X022248Y008331D03*
X022223Y008306D03*
X022198Y008281D03*
X022173Y008256D03*
X022173Y008231D03*
X022248Y008206D03*
X022248Y008156D03*
X022372Y008131D03*
X022372Y008106D03*
X022347Y008056D03*
X022347Y008031D03*
X022198Y008006D03*
X022047Y008056D03*
X022072Y008106D03*
X022097Y008131D03*
X021973Y007931D03*
X021948Y007881D03*
X021923Y007831D03*
X021898Y007781D03*
X021873Y007731D03*
X021848Y007681D03*
X021948Y007631D03*
X021973Y007681D03*
X022097Y007606D03*
X022072Y007556D03*
X021973Y007381D03*
X021948Y007331D03*
X021923Y007281D03*
X021898Y007231D03*
X021848Y007156D03*
X022047Y007106D03*
X022047Y007081D03*
X022072Y007131D03*
X022097Y007181D03*
X022198Y007106D03*
X022223Y007031D03*
X022223Y007006D03*
X022223Y006981D03*
X022347Y007006D03*
X022347Y007056D03*
X022372Y007131D03*
X022372Y007156D03*
X022372Y007181D03*
X022347Y007231D03*
X022372Y007281D03*
X022273Y007156D03*
X022523Y007156D03*
X022523Y007181D03*
X022523Y007131D03*
X022598Y007206D03*
X022548Y007306D03*
X022548Y007331D03*
X022523Y007381D03*
X022523Y007581D03*
X022573Y007606D03*
X022773Y007506D03*
X022798Y007431D03*
X022798Y007406D03*
X022798Y007381D03*
X022823Y007356D03*
X022848Y007281D03*
X022848Y007256D03*
X023022Y007331D03*
X023022Y007356D03*
X023022Y007381D03*
X023297Y007306D03*
X023297Y007281D03*
X023347Y007406D03*
X023347Y007431D03*
X023347Y007456D03*
X023573Y007306D03*
X023573Y007281D03*
X023573Y007256D03*
X023523Y007181D03*
X023523Y007156D03*
X023623Y007156D03*
X023623Y007131D03*
X023723Y007056D03*
X023797Y007006D03*
X023897Y007131D03*
X023872Y007156D03*
X023847Y007181D03*
X023947Y007081D03*
X024023Y007006D03*
X024048Y006981D03*
X024073Y006931D03*
X024148Y006931D03*
X024148Y006956D03*
X024123Y007006D03*
X024098Y007056D03*
X024098Y007081D03*
X024073Y007106D03*
X024073Y007131D03*
X024048Y007156D03*
X023947Y007306D03*
X023922Y007331D03*
X023897Y007356D03*
X023872Y007381D03*
X023673Y007331D03*
X023648Y007556D03*
X023222Y007781D03*
X022823Y008006D03*
X022548Y008206D03*
X022548Y008231D03*
X022573Y008306D03*
X022573Y008331D03*
X022598Y008381D03*
X022397Y008206D03*
X022072Y006931D03*
X022047Y006906D03*
X021923Y006706D03*
X021923Y006656D03*
X021923Y006631D03*
X021948Y006606D03*
X021873Y006531D03*
X021548Y006556D03*
X021523Y006506D03*
X021523Y006481D03*
X021248Y006506D03*
X021248Y006556D03*
X021098Y006331D03*
X020897Y006231D03*
X020897Y006206D03*
X020897Y006181D03*
X020897Y006156D03*
X020873Y006281D03*
X020847Y006331D03*
X020897Y006456D03*
X020873Y006506D03*
X020673Y006081D03*
X020748Y005981D03*
X020823Y005906D03*
X020873Y005831D03*
X020897Y005806D03*
X021023Y005956D03*
X021098Y005956D03*
X021173Y006006D03*
X021098Y006056D03*
X021373Y006006D03*
X021373Y005981D03*
X021373Y005956D03*
X021548Y006006D03*
X021573Y005956D03*
X021573Y005931D03*
X021573Y005906D03*
X021573Y005881D03*
X021698Y005881D03*
X021698Y005906D03*
X021698Y005931D03*
X021723Y005856D03*
X021723Y005831D03*
X021848Y005881D03*
X021898Y005831D03*
X021923Y005781D03*
X021948Y005906D03*
X021948Y005931D03*
X021948Y005956D03*
X021873Y006006D03*
X021873Y006031D03*
X021698Y006131D03*
X021698Y006156D03*
X022047Y005856D03*
X022047Y005831D03*
X022072Y005606D03*
X021973Y005481D03*
X021923Y005531D03*
X021898Y005556D03*
X021848Y005631D03*
X021573Y005556D03*
X021548Y005581D03*
X021548Y005606D03*
X021523Y005631D03*
X021248Y005556D03*
X021248Y005531D03*
X021248Y005481D03*
X021248Y005456D03*
X021523Y005281D03*
X021698Y005281D03*
X022047Y005406D03*
X022198Y005506D03*
X022223Y005481D03*
X022347Y005506D03*
X022347Y005531D03*
X022248Y005631D03*
X022248Y005656D03*
X022248Y005681D03*
X022498Y005456D03*
X022498Y005431D03*
X022823Y005381D03*
X022898Y005406D03*
X022898Y005431D03*
X022898Y005456D03*
X023022Y005456D03*
X023022Y005431D03*
X022848Y005306D03*
X022848Y005281D03*
X023247Y005381D03*
X023247Y005406D03*
X023247Y005431D03*
X023247Y005456D03*
X023322Y005456D03*
X023322Y005431D03*
X023322Y005406D03*
X023322Y005381D03*
X023297Y005256D03*
X023473Y005331D03*
X023473Y005356D03*
X023648Y005381D03*
X023648Y005406D03*
X023648Y005431D03*
X023648Y005456D03*
X023822Y005406D03*
X023822Y005381D03*
X023947Y005306D03*
X023847Y005231D03*
X023822Y005206D03*
X023698Y005106D03*
X023673Y005081D03*
X023623Y004981D03*
X023523Y005131D03*
X023947Y004906D03*
X023947Y004881D03*
X023947Y004856D03*
X024048Y004856D03*
X024048Y004881D03*
X024048Y004906D03*
X024048Y004981D03*
X024048Y005006D03*
X024198Y005106D03*
X024198Y005156D03*
X024198Y005181D03*
X024198Y005206D03*
X024198Y005231D03*
X024198Y005256D03*
X024198Y005281D03*
X024198Y005306D03*
X024198Y005331D03*
X024223Y005356D03*
X024348Y005356D03*
X024348Y005331D03*
X024497Y005331D03*
X024497Y005356D03*
X024497Y005381D03*
X024497Y005406D03*
X024497Y005431D03*
X024497Y005456D03*
X024497Y005481D03*
X024472Y005631D03*
X024572Y005631D03*
X024723Y005631D03*
X024723Y005656D03*
X024748Y005681D03*
X024723Y005781D03*
X024723Y005956D03*
X024723Y005981D03*
X024723Y006006D03*
X024597Y006006D03*
X024572Y006031D03*
X024472Y006056D03*
X024472Y006081D03*
X024447Y005981D03*
X024447Y005956D03*
X024373Y006006D03*
X024348Y005981D03*
X024298Y005931D03*
X024198Y005931D03*
X024248Y005806D03*
X024348Y005756D03*
X024348Y005731D03*
X024323Y005706D03*
X024298Y005681D03*
X024348Y005631D03*
X024323Y005606D03*
X024298Y005581D03*
X024273Y005556D03*
X024273Y005531D03*
X024223Y005581D03*
X024248Y005606D03*
X024198Y005556D03*
X024173Y005531D03*
X024148Y005506D03*
X024048Y005606D03*
X023947Y005531D03*
X023947Y005506D03*
X023897Y005606D03*
X023897Y005631D03*
X023897Y005656D03*
X024098Y005806D03*
X024098Y005831D03*
X024148Y005706D03*
X024373Y005806D03*
X024348Y006056D03*
X024348Y006081D03*
X024323Y006106D03*
X024373Y006381D03*
X024273Y006506D03*
X024273Y006531D03*
X024198Y006656D03*
X024223Y006731D03*
X024123Y006731D03*
X024148Y006806D03*
X024173Y006881D03*
X024173Y006906D03*
X024023Y006831D03*
X024348Y007006D03*
X024323Y007056D03*
X024373Y006956D03*
X024472Y006981D03*
X024447Y007056D03*
X024447Y007081D03*
X024447Y007106D03*
X024497Y006881D03*
X024447Y006831D03*
X024547Y006631D03*
X024547Y006606D03*
X024572Y006581D03*
X024572Y006556D03*
X024898Y006656D03*
X024973Y006481D03*
X025072Y006556D03*
X025072Y006406D03*
X024948Y006331D03*
X024973Y006281D03*
X024973Y006256D03*
X024973Y006231D03*
X024973Y006206D03*
X024948Y006081D03*
X024923Y006006D03*
X024923Y005981D03*
X024923Y005956D03*
X024923Y005881D03*
X024998Y005981D03*
X025097Y005956D03*
X025147Y006006D03*
X025147Y006031D03*
X025172Y006106D03*
X025197Y006181D03*
X025298Y006256D03*
X025323Y006281D03*
X025448Y006281D03*
X025448Y006156D03*
X025423Y006106D03*
X025398Y006081D03*
X025298Y005906D03*
X025298Y005881D03*
X025298Y005856D03*
X025273Y005781D03*
X025197Y005706D03*
X025348Y005656D03*
X025373Y005681D03*
X025398Y005731D03*
X025523Y005706D03*
X025423Y005556D03*
X025197Y005531D03*
X025197Y005481D03*
X025172Y005406D03*
X025172Y005381D03*
X025172Y005356D03*
X025273Y005156D03*
X025298Y005131D03*
X025398Y005081D03*
X024998Y005556D03*
X024923Y005581D03*
X024923Y005606D03*
X024923Y005631D03*
X024948Y005656D03*
X024948Y005681D03*
X024948Y005706D03*
X024673Y005456D03*
X024673Y005431D03*
X024597Y005331D03*
X024522Y005306D03*
X024447Y004981D03*
X024373Y004981D03*
X023723Y004731D03*
X023498Y004706D03*
X023473Y004756D03*
X023448Y004781D03*
X023448Y004806D03*
X023347Y004781D03*
X023347Y004731D03*
X023222Y004831D03*
X023022Y004831D03*
X023022Y004806D03*
X023022Y004781D03*
X023022Y004756D03*
X023022Y004656D03*
X022873Y004656D03*
X022397Y004731D03*
X022397Y004756D03*
X022372Y004781D03*
X022347Y004806D03*
X022223Y004731D03*
X022198Y004781D03*
X022198Y004806D03*
X022198Y004931D03*
X022173Y004956D03*
X022097Y004956D03*
X022072Y004981D03*
X022072Y005131D03*
X022173Y005106D03*
X022523Y004956D03*
X022548Y004931D03*
X022598Y004881D03*
X023498Y004631D03*
X020873Y005431D03*
X020847Y005456D03*
X020823Y005481D03*
X020748Y005381D03*
X020748Y005331D03*
X020748Y005306D03*
X021698Y006856D03*
X021698Y006881D03*
X021723Y006906D03*
X021723Y006931D03*
X024698Y006206D03*
X024698Y006181D03*
X024698Y006156D03*
X024798Y006131D03*
X024823Y006231D03*
X024823Y006256D03*
X024823Y006281D03*
X025498Y006456D03*
X033008Y007196D03*
X033082Y007246D03*
X033082Y007271D03*
X033108Y007221D03*
X033132Y007196D03*
X033232Y007221D03*
X033258Y007246D03*
X033282Y007296D03*
X033358Y007396D03*
X033383Y007421D03*
X033408Y007446D03*
X033408Y007471D03*
X033433Y007496D03*
X033483Y007571D03*
X033507Y007596D03*
X033533Y007621D03*
X033533Y007646D03*
X033557Y007671D03*
X033583Y007721D03*
X033607Y007746D03*
X033633Y007771D03*
X033633Y007796D03*
X033657Y007821D03*
X033683Y007846D03*
X033683Y007871D03*
X033707Y007896D03*
X033733Y007946D03*
X033757Y007971D03*
X033757Y007996D03*
X033783Y008021D03*
X033807Y008071D03*
X033833Y008121D03*
X033883Y008221D03*
X033883Y008246D03*
X033783Y008296D03*
X033857Y008446D03*
X033983Y008446D03*
X034008Y008296D03*
X034008Y008271D03*
X034033Y008246D03*
X034033Y008221D03*
X034058Y008196D03*
X034132Y008196D03*
X034358Y008296D03*
X034382Y008346D03*
X034382Y008371D03*
X034408Y008396D03*
X034408Y008421D03*
X034408Y008446D03*
X034408Y008471D03*
X034432Y008496D03*
X034432Y008521D03*
X034432Y008546D03*
X034458Y008571D03*
X034458Y008596D03*
X034482Y008621D03*
X034633Y008621D03*
X034733Y008696D03*
X034608Y008771D03*
X034558Y008871D03*
X034532Y008921D03*
X034532Y008946D03*
X034508Y008971D03*
X034482Y008996D03*
X034358Y009146D03*
X034332Y009171D03*
X034282Y009071D03*
X034208Y008971D03*
X034182Y008946D03*
X034058Y008821D03*
X034033Y008796D03*
X034033Y008771D03*
X034008Y008746D03*
X034008Y008721D03*
X033933Y008621D03*
X034608Y008296D03*
X034658Y008371D03*
X034683Y008396D03*
X034708Y008446D03*
X034708Y008471D03*
X034733Y008496D03*
X034733Y008521D03*
X033507Y009146D03*
X033433Y009321D03*
X033433Y009346D03*
X033132Y009271D03*
X033108Y009246D03*
X033058Y009171D03*
X033032Y009146D03*
X033032Y009121D03*
X033008Y009096D03*
X032982Y009046D03*
X032982Y009021D03*
X032958Y008996D03*
X032958Y008971D03*
X032958Y008946D03*
X033507Y009721D03*
X033507Y009746D03*
X033533Y009796D03*
X033583Y010096D03*
X033583Y010121D03*
X033583Y010146D03*
X033583Y010171D03*
X033657Y010196D03*
X033683Y010146D03*
X033707Y010121D03*
X033607Y010271D03*
X033807Y009946D03*
X033933Y009721D03*
X034058Y009496D03*
X033433Y007996D03*
X033383Y007871D03*
X033282Y007846D03*
X033308Y007771D03*
X033308Y007746D03*
X033208Y007721D03*
X033208Y007696D03*
X033232Y007671D03*
X033232Y007646D03*
X033232Y007621D03*
X033258Y007596D03*
X033158Y007546D03*
X033158Y007521D03*
X033158Y007496D03*
X033132Y007621D03*
X033158Y007346D03*
X033082Y007346D03*
X033408Y007696D03*
X033208Y007921D03*
D17*
X033858Y008421D03*
X033958Y008371D03*
X034257Y008146D03*
X034307Y008221D03*
X034407Y008121D03*
X034433Y008146D03*
X034483Y008171D03*
X034507Y008196D03*
X034583Y008271D03*
X034457Y009046D03*
X034433Y009071D03*
X034233Y009021D03*
X034207Y008996D03*
X033383Y009146D03*
X033007Y008846D03*
X032957Y008821D03*
X032907Y008796D03*
X032883Y008771D03*
X032733Y008671D03*
X032708Y008646D03*
X032608Y008571D03*
X032558Y008546D03*
X032532Y008521D03*
X032508Y008496D03*
X032408Y008421D03*
X032358Y008371D03*
X032258Y008296D03*
X032208Y008246D03*
X032158Y008196D03*
X032083Y008146D03*
X032083Y008121D03*
X032258Y007996D03*
X031833Y008521D03*
X031807Y008571D03*
X031733Y008671D03*
X031658Y008746D03*
X031633Y008771D03*
X030732Y009271D03*
X030682Y009446D03*
X029407Y009121D03*
X029382Y009096D03*
X029357Y009071D03*
X029282Y008996D03*
X028557Y008921D03*
X028433Y009071D03*
X028433Y009821D03*
X028557Y009971D03*
X029482Y008171D03*
X029507Y008146D03*
X029507Y007696D03*
X029083Y007471D03*
X029058Y007396D03*
X029257Y007196D03*
X029282Y007171D03*
X030757Y006746D03*
X030883Y006946D03*
X030908Y006971D03*
X030983Y007071D03*
X031108Y007221D03*
X031133Y007246D03*
X032532Y006296D03*
X032582Y006346D03*
X032482Y006246D03*
X032308Y006096D03*
X032282Y006071D03*
X032258Y006046D03*
X032208Y005996D03*
X032158Y005946D03*
X032133Y005921D03*
X032033Y005846D03*
X032007Y005821D03*
X031957Y005771D03*
X031907Y005746D03*
X031883Y005721D03*
X031608Y005446D03*
X031608Y005396D03*
X031158Y005271D03*
X031058Y005221D03*
X030408Y004846D03*
X029758Y005346D03*
X029733Y005321D03*
X029683Y005296D03*
X029658Y005271D03*
X029457Y005146D03*
X029033Y005171D03*
X029008Y005196D03*
X028433Y004696D03*
X028408Y004721D03*
X028257Y004896D03*
X028108Y005071D03*
X028083Y005096D03*
X028058Y005121D03*
X027983Y005221D03*
X027958Y005246D03*
X027833Y005371D03*
X027808Y005396D03*
X027733Y005471D03*
X027658Y005546D03*
X027633Y005571D03*
X028108Y005746D03*
X028408Y005671D03*
X029257Y004496D03*
X029257Y004446D03*
X029058Y004021D03*
X028708Y003946D03*
X028683Y003921D03*
X028683Y003871D03*
X025498Y005656D03*
X025373Y005531D03*
X025298Y005831D03*
X025097Y005831D03*
X025097Y005981D03*
X024948Y005931D03*
X024748Y006081D03*
X024698Y005931D03*
X024698Y005806D03*
X024748Y005706D03*
X024522Y005581D03*
X024323Y005381D03*
X024298Y005406D03*
X024123Y005456D03*
X024123Y005481D03*
X024048Y005406D03*
X024048Y005381D03*
X023897Y005281D03*
X023698Y005331D03*
X023648Y005506D03*
X023473Y005481D03*
X023473Y005456D03*
X023473Y005431D03*
X023072Y005306D03*
X022848Y005331D03*
X022848Y005356D03*
X022873Y005106D03*
X022873Y005006D03*
X022223Y004881D03*
X022372Y004656D03*
X021473Y005356D03*
X021873Y005606D03*
X022072Y005631D03*
X021898Y005856D03*
X022498Y005531D03*
X022498Y005506D03*
X023673Y004906D03*
X024472Y005156D03*
X024522Y005231D03*
X024522Y005256D03*
X024547Y005281D03*
X024048Y005631D03*
X024148Y005731D03*
X024248Y005856D03*
X024298Y005956D03*
X025473Y006506D03*
X024497Y006781D03*
X023523Y007431D03*
X023322Y007531D03*
X023072Y007431D03*
X022848Y007231D03*
X022523Y007356D03*
X022198Y007056D03*
X021623Y006781D03*
X021623Y006756D03*
X021298Y006581D03*
X021298Y006481D03*
X021023Y006131D03*
X020948Y006106D03*
X020748Y005731D03*
X020872Y005381D03*
X024048Y007831D03*
X024073Y007806D03*
X023897Y008106D03*
X022223Y008106D03*
X022198Y008081D03*
X023072Y009181D03*
X030433Y005896D03*
X033183Y007171D03*
X033257Y007096D03*
X033408Y006996D03*
X033658Y006796D03*
X033808Y006246D03*
X033558Y009846D03*
X033808Y009871D03*
X033682Y010096D03*
D18*
X033595Y010196D03*
X033495Y009696D03*
X034120Y008946D03*
X033645Y008171D03*
X033595Y008096D03*
X033595Y008071D03*
X033545Y007971D03*
X033320Y008071D03*
X033270Y008021D03*
X033270Y007871D03*
X033170Y007771D03*
X033120Y007821D03*
X033070Y007721D03*
X033120Y007671D03*
X033120Y007646D03*
X033320Y007696D03*
X033320Y007721D03*
X033170Y007321D03*
X033070Y007321D03*
X033070Y007296D03*
X033020Y007246D03*
X032970Y007246D03*
X032645Y006896D03*
X032645Y006871D03*
X032595Y006796D03*
X032545Y006696D03*
X032495Y006521D03*
X032495Y006496D03*
X032495Y006471D03*
X032495Y006446D03*
X033545Y006821D03*
X030820Y006471D03*
X027370Y005871D03*
X024635Y005956D03*
X024635Y005731D03*
X024635Y005381D03*
X023985Y005031D03*
X023985Y005006D03*
X023385Y004831D03*
X023385Y004656D03*
X023060Y005256D03*
X022135Y005056D03*
X021810Y005281D03*
X021810Y005306D03*
X021810Y005331D03*
X021810Y005356D03*
X021810Y005381D03*
X021810Y005406D03*
X021660Y005431D03*
X021660Y005306D03*
X021335Y005256D03*
X020885Y005406D03*
X020960Y005606D03*
X020960Y005656D03*
X020960Y005681D03*
X020960Y005706D03*
X020835Y005881D03*
X020685Y005756D03*
X020685Y006056D03*
X020760Y006156D03*
X020760Y006181D03*
X020885Y006256D03*
X020885Y006481D03*
X020960Y006556D03*
X020960Y006581D03*
X021035Y006531D03*
X021035Y006506D03*
X021185Y006331D03*
X021110Y006156D03*
X021185Y006031D03*
X021185Y005981D03*
X021335Y005506D03*
X022135Y005656D03*
X022135Y005681D03*
X021810Y006431D03*
X021485Y006381D03*
X021335Y006506D03*
X021335Y006531D03*
X021335Y006556D03*
X020885Y006731D03*
X021660Y007031D03*
X021660Y007056D03*
X021660Y007081D03*
X021660Y007106D03*
X021810Y007081D03*
X021810Y007581D03*
X021810Y007606D03*
X022135Y007656D03*
X022135Y007681D03*
X022135Y008056D03*
X022435Y008331D03*
X022735Y008906D03*
X023385Y008931D03*
X023985Y008056D03*
X023985Y007631D03*
X023385Y007331D03*
X023385Y007306D03*
X023385Y007281D03*
X024635Y006406D03*
X024635Y006381D03*
X024635Y006356D03*
X028920Y004046D03*
X030820Y009221D03*
D19*
X030895Y009221D03*
X030945Y009246D03*
X031070Y009096D03*
X032095Y008046D03*
X031320Y007171D03*
X031170Y006971D03*
X031120Y006896D03*
X030970Y006696D03*
X030945Y006671D03*
X030920Y006621D03*
X030895Y006596D03*
X030870Y006521D03*
X030845Y006496D03*
X030795Y006446D03*
X030795Y006421D03*
X030745Y006371D03*
X030695Y006271D03*
X030695Y006246D03*
X030570Y006071D03*
X030570Y006046D03*
X030395Y005796D03*
X030120Y005721D03*
X030020Y005421D03*
X029995Y005396D03*
X029845Y005296D03*
X029820Y005271D03*
X029745Y005221D03*
X029770Y005446D03*
X029170Y004996D03*
X028870Y004596D03*
X028970Y004496D03*
X029070Y004221D03*
X029020Y004196D03*
X029020Y004171D03*
X028995Y004096D03*
X028945Y004021D03*
X028895Y004021D03*
X028845Y004021D03*
X028845Y003971D03*
X028795Y003946D03*
X028770Y003971D03*
X028795Y003771D03*
X025510Y005531D03*
X025510Y005556D03*
X025535Y005581D03*
X025535Y005606D03*
X025535Y005631D03*
X025460Y005631D03*
X025460Y005606D03*
X025435Y005581D03*
X025385Y005706D03*
X025410Y005756D03*
X025410Y005781D03*
X025285Y005931D03*
X025160Y006056D03*
X025160Y006081D03*
X025185Y006131D03*
X025185Y006156D03*
X025210Y006206D03*
X025285Y006206D03*
X025435Y006131D03*
X025460Y006181D03*
X025460Y006206D03*
X025460Y006231D03*
X025460Y006256D03*
X025435Y006456D03*
X025435Y006481D03*
X025510Y006481D03*
X025085Y006581D03*
X025060Y006606D03*
X025060Y006531D03*
X025060Y006506D03*
X024935Y006506D03*
X024910Y006531D03*
X024885Y006556D03*
X024885Y006581D03*
X024885Y006606D03*
X024885Y006631D03*
X024835Y006331D03*
X024835Y006306D03*
X024810Y006206D03*
X024810Y006181D03*
X024810Y006156D03*
X024785Y006056D03*
X024710Y006056D03*
X024710Y006031D03*
X024610Y005981D03*
X024535Y005981D03*
X024535Y006006D03*
X024535Y005956D03*
X024535Y005931D03*
X024535Y005906D03*
X024535Y005881D03*
X024535Y005856D03*
X024560Y005831D03*
X024560Y005806D03*
X024585Y005781D03*
X024610Y005681D03*
X024585Y005656D03*
X024560Y005606D03*
X024485Y005606D03*
X024285Y005656D03*
X024260Y005631D03*
X024260Y005756D03*
X024285Y005881D03*
X024310Y005906D03*
X024260Y005981D03*
X024260Y006006D03*
X024260Y006031D03*
X024360Y006031D03*
X024385Y006106D03*
X024385Y006131D03*
X024460Y006031D03*
X024460Y006006D03*
X024435Y005931D03*
X024435Y005906D03*
X024435Y005881D03*
X024185Y005881D03*
X024185Y005906D03*
X024110Y005781D03*
X024110Y005756D03*
X024135Y005681D03*
X024010Y005681D03*
X024010Y005706D03*
X024010Y005656D03*
X023910Y005581D03*
X023785Y005506D03*
X023785Y005481D03*
X023485Y005306D03*
X023285Y005281D03*
X023035Y005331D03*
X023035Y005356D03*
X023010Y005381D03*
X023010Y005406D03*
X022885Y005381D03*
X022810Y005406D03*
X022810Y005431D03*
X022810Y005456D03*
X022835Y005256D03*
X022935Y005081D03*
X022910Y004881D03*
X022935Y004856D03*
X022935Y004831D03*
X022935Y004806D03*
X022935Y004781D03*
X022910Y004756D03*
X022910Y004731D03*
X022885Y004681D03*
X023035Y004681D03*
X023035Y004731D03*
X023335Y004756D03*
X023360Y004806D03*
X023410Y004881D03*
X023410Y004906D03*
X023485Y004731D03*
X023510Y004681D03*
X023510Y004656D03*
X023360Y004681D03*
X023360Y004706D03*
X023660Y004731D03*
X023660Y004756D03*
X023660Y004681D03*
X023735Y004756D03*
X023635Y004831D03*
X023635Y004931D03*
X023610Y004956D03*
X023635Y005006D03*
X023635Y005031D03*
X023660Y005056D03*
X024060Y005031D03*
X024210Y005131D03*
X024385Y005056D03*
X024385Y005031D03*
X024385Y005006D03*
X024460Y005006D03*
X024460Y005031D03*
X024485Y005056D03*
X024485Y005081D03*
X024485Y005106D03*
X024585Y005306D03*
X024610Y005356D03*
X024685Y005481D03*
X024685Y005506D03*
X024685Y005531D03*
X024710Y005556D03*
X024710Y005581D03*
X024710Y005606D03*
X024935Y005731D03*
X024935Y005756D03*
X025010Y005731D03*
X025160Y005781D03*
X025185Y005756D03*
X025185Y005506D03*
X025160Y005331D03*
X025160Y005306D03*
X025185Y005281D03*
X025185Y005256D03*
X025210Y005231D03*
X024260Y005331D03*
X024260Y005431D03*
X024260Y005456D03*
X024260Y005481D03*
X024260Y005506D03*
X024985Y005956D03*
X025010Y006006D03*
X025060Y006006D03*
X025060Y006056D03*
X024960Y006106D03*
X024960Y006131D03*
X024960Y006156D03*
X024960Y006181D03*
X024960Y006306D03*
X024685Y006256D03*
X024685Y006231D03*
X024660Y006281D03*
X024660Y006306D03*
X024660Y006331D03*
X024610Y006431D03*
X024610Y006456D03*
X024610Y006481D03*
X024585Y006506D03*
X024585Y006531D03*
X024385Y006406D03*
X024360Y006456D03*
X024310Y006456D03*
X024310Y006481D03*
X024310Y006431D03*
X024310Y006406D03*
X024310Y006381D03*
X024260Y006556D03*
X024260Y006581D03*
X024235Y006606D03*
X024235Y006631D03*
X024185Y006631D03*
X024185Y006606D03*
X024210Y006681D03*
X024210Y006706D03*
X024260Y006706D03*
X024235Y006756D03*
X024235Y006781D03*
X024210Y006806D03*
X024210Y006831D03*
X024185Y006856D03*
X024135Y006856D03*
X024135Y006831D03*
X024110Y006881D03*
X024035Y006881D03*
X024035Y006856D03*
X024060Y006956D03*
X024135Y006981D03*
X024110Y007031D03*
X023935Y007106D03*
X023910Y007056D03*
X023910Y007031D03*
X023785Y007031D03*
X023785Y007056D03*
X023785Y007231D03*
X023785Y007256D03*
X023610Y007231D03*
X023610Y007206D03*
X023610Y007181D03*
X023535Y007206D03*
X023535Y007231D03*
X023585Y007331D03*
X023310Y007331D03*
X023035Y007406D03*
X022835Y007331D03*
X022835Y007306D03*
X022760Y007306D03*
X022760Y007331D03*
X022760Y007356D03*
X022785Y007456D03*
X022585Y007231D03*
X022535Y007231D03*
X022535Y007206D03*
X022335Y007256D03*
X022235Y007356D03*
X022210Y007331D03*
X022185Y007306D03*
X022160Y007281D03*
X022110Y007206D03*
X022085Y007156D03*
X021985Y007006D03*
X021985Y006981D03*
X021960Y006956D03*
X021960Y006931D03*
X021935Y006906D03*
X021910Y006856D03*
X021910Y006831D03*
X021960Y006756D03*
X021935Y006731D03*
X021935Y006681D03*
X021885Y006606D03*
X021860Y006581D03*
X021860Y006556D03*
X021835Y006606D03*
X021835Y006631D03*
X021835Y006656D03*
X021835Y006481D03*
X021835Y006456D03*
X021835Y006406D03*
X021835Y006381D03*
X021735Y006106D03*
X021785Y006056D03*
X021785Y006031D03*
X021785Y006006D03*
X021935Y005881D03*
X021910Y005806D03*
X022035Y005806D03*
X022035Y005781D03*
X022035Y005756D03*
X022110Y005581D03*
X022235Y005581D03*
X022235Y005606D03*
X022360Y005481D03*
X022285Y005356D03*
X022485Y005381D03*
X022485Y005406D03*
X022060Y005156D03*
X022085Y005106D03*
X022085Y005081D03*
X022160Y004981D03*
X022085Y004881D03*
X022260Y004706D03*
X022335Y004981D03*
X022460Y005031D03*
X022485Y005006D03*
X022510Y004981D03*
X021935Y005081D03*
X021835Y005081D03*
X021835Y005256D03*
X021710Y005306D03*
X021710Y005331D03*
X021710Y005356D03*
X021685Y005381D03*
X021685Y005406D03*
X021635Y005331D03*
X021535Y005256D03*
X021535Y005231D03*
X021535Y005206D03*
X021560Y005181D03*
X021385Y005181D03*
X021360Y005206D03*
X021460Y005406D03*
X021585Y005456D03*
X021785Y005456D03*
X021785Y005481D03*
X021785Y005431D03*
X021960Y005431D03*
X021260Y005431D03*
X020785Y005531D03*
X020785Y005556D03*
X020785Y005581D03*
X020785Y005756D03*
X020785Y005806D03*
X020935Y005756D03*
X020935Y005731D03*
X020985Y005906D03*
X021135Y005906D03*
X021135Y005881D03*
X021135Y005856D03*
X020935Y006056D03*
X020785Y006081D03*
X021060Y006231D03*
X021060Y006256D03*
X021060Y006281D03*
X021210Y006281D03*
X021210Y006306D03*
X021210Y006256D03*
X021210Y006231D03*
X021235Y006181D03*
X021235Y006156D03*
X021310Y006156D03*
X021310Y006181D03*
X021310Y006131D03*
X021135Y006106D03*
X021460Y006006D03*
X021560Y005981D03*
X021235Y006531D03*
X020985Y006531D03*
X020985Y006606D03*
X020985Y006631D03*
X020985Y006656D03*
X020985Y006681D03*
X021635Y006931D03*
X021635Y006956D03*
X021635Y006981D03*
X021635Y007006D03*
X021785Y007031D03*
X021835Y007131D03*
X021860Y007181D03*
X021885Y007206D03*
X021910Y007256D03*
X021935Y007306D03*
X021960Y007356D03*
X021985Y007406D03*
X022035Y007481D03*
X022035Y007506D03*
X022060Y007531D03*
X022085Y007581D03*
X022110Y007631D03*
X022160Y007706D03*
X022160Y007731D03*
X022185Y007756D03*
X022210Y007781D03*
X022210Y007806D03*
X022235Y007831D03*
X022235Y007856D03*
X022260Y007881D03*
X022260Y007906D03*
X022285Y007931D03*
X022285Y007956D03*
X022360Y007981D03*
X022360Y008081D03*
X022385Y008156D03*
X022385Y008181D03*
X022410Y008231D03*
X022410Y008256D03*
X022460Y008406D03*
X022460Y008431D03*
X022385Y008506D03*
X022360Y008481D03*
X022285Y008381D03*
X022260Y008356D03*
X022110Y008156D03*
X022060Y008081D03*
X022110Y008031D03*
X022110Y008006D03*
X021985Y007956D03*
X021960Y007906D03*
X021935Y007856D03*
X021910Y007806D03*
X021885Y007756D03*
X021860Y007706D03*
X021835Y007656D03*
X021785Y007556D03*
X021785Y007531D03*
X021785Y007506D03*
X021735Y007406D03*
X021735Y007381D03*
X021735Y007356D03*
X021710Y007306D03*
X021710Y007281D03*
X021710Y007256D03*
X021685Y007206D03*
X021685Y007181D03*
X021685Y007156D03*
X022085Y006956D03*
X022110Y006881D03*
X022110Y006856D03*
X022110Y006831D03*
X022185Y006931D03*
X022260Y006956D03*
X022335Y007031D03*
X022260Y007381D03*
X022285Y007406D03*
X022335Y007456D03*
X022410Y007506D03*
X022485Y007556D03*
X021960Y007656D03*
X021935Y007606D03*
X021935Y007581D03*
X023085Y007706D03*
X023210Y007806D03*
X023610Y007656D03*
X023610Y007631D03*
X023910Y007756D03*
X023910Y007781D03*
X023885Y007806D03*
X023885Y007831D03*
X023860Y007856D03*
X023860Y007881D03*
X023835Y007906D03*
X023835Y007931D03*
X024010Y008006D03*
X024010Y008031D03*
X024085Y008031D03*
X024035Y008106D03*
X024135Y007956D03*
X024160Y007906D03*
X024185Y007856D03*
X024210Y007806D03*
X024235Y007781D03*
X024235Y007756D03*
X024260Y007731D03*
X024260Y007706D03*
X024285Y007656D03*
X024285Y007631D03*
X024310Y007606D03*
X024310Y007581D03*
X024335Y007556D03*
X024335Y007531D03*
X024335Y007506D03*
X024360Y007481D03*
X024360Y007456D03*
X024360Y007431D03*
X024385Y007406D03*
X024385Y007381D03*
X024385Y007356D03*
X024385Y007331D03*
X024435Y007181D03*
X024435Y007156D03*
X024435Y007131D03*
X024310Y007081D03*
X024285Y007106D03*
X024285Y007131D03*
X024260Y007156D03*
X024260Y007181D03*
X024235Y007206D03*
X024210Y007256D03*
X024185Y007281D03*
X024185Y007306D03*
X024160Y007331D03*
X024135Y007381D03*
X024110Y007431D03*
X024085Y007456D03*
X024060Y007506D03*
X024035Y007556D03*
X024010Y007581D03*
X024010Y007606D03*
X023960Y007681D03*
X023935Y007731D03*
X024160Y007656D03*
X024185Y007606D03*
X024185Y007581D03*
X024335Y007031D03*
X024360Y006981D03*
X024385Y006931D03*
X024435Y006856D03*
X024460Y006806D03*
X024510Y006806D03*
X024510Y006831D03*
X024510Y006856D03*
X024485Y006906D03*
X024485Y006931D03*
X024485Y006956D03*
X024185Y006756D03*
X024110Y006756D03*
X024285Y006656D03*
X024935Y006056D03*
X024935Y006031D03*
X027745Y005771D03*
X027970Y005721D03*
X028145Y005771D03*
X032670Y006921D03*
X032695Y006971D03*
X033395Y007621D03*
X033395Y007721D03*
X033395Y007746D03*
X033395Y007771D03*
X033395Y007796D03*
X033395Y007821D03*
X033395Y007846D03*
X033370Y007896D03*
X033370Y007921D03*
X033345Y007946D03*
X033395Y008021D03*
X033370Y008046D03*
X033445Y007971D03*
X033445Y007721D03*
X033995Y008471D03*
X033995Y008496D03*
X033920Y008596D03*
X033945Y008646D03*
X033970Y008671D03*
X033995Y008696D03*
X034620Y008546D03*
X034620Y008521D03*
X034045Y009521D03*
X033920Y009746D03*
X033445Y009396D03*
X033445Y009371D03*
X029270Y008971D03*
X023860Y008156D03*
X023735Y008156D03*
X023735Y008131D03*
X023710Y008206D03*
X023710Y008231D03*
X023710Y008256D03*
X023685Y008281D03*
X023685Y008306D03*
X023685Y008331D03*
X023660Y008381D03*
X023660Y008406D03*
X023635Y008481D03*
X023635Y008506D03*
X023610Y008556D03*
X023610Y008606D03*
X023585Y008656D03*
X023560Y008681D03*
X023560Y008706D03*
X023535Y008731D03*
X023510Y008756D03*
X023510Y008781D03*
X023485Y008806D03*
X023460Y008831D03*
X023460Y008856D03*
X023435Y008881D03*
X023410Y008906D03*
X023210Y008731D03*
X023210Y008706D03*
X023185Y008681D03*
X023185Y008656D03*
X023160Y008781D03*
X022810Y008931D03*
X022710Y008881D03*
X022685Y008856D03*
X022660Y008831D03*
X022660Y008806D03*
X022610Y008756D03*
X022610Y008731D03*
X022585Y008706D03*
X022585Y008356D03*
X023510Y008381D03*
X023535Y008331D03*
X023560Y008206D03*
X023735Y008481D03*
X023710Y008506D03*
X023685Y008531D03*
X023660Y008556D03*
D20*
X023748Y008456D03*
X023773Y008431D03*
X023748Y008106D03*
X023748Y008081D03*
X023773Y008056D03*
X023773Y008031D03*
X023773Y008006D03*
X023123Y007356D03*
X023123Y007331D03*
X023123Y007306D03*
X022298Y007181D03*
X022023Y007056D03*
X022023Y007031D03*
X021998Y006856D03*
X021998Y006831D03*
X021998Y006806D03*
X021998Y006781D03*
X022023Y006756D03*
X022023Y006731D03*
X021748Y006956D03*
X021748Y006981D03*
X021773Y007006D03*
X021623Y006906D03*
X021623Y006881D03*
X021748Y006356D03*
X021748Y006331D03*
X021448Y006306D03*
X021448Y006281D03*
X021448Y006256D03*
X021423Y006231D03*
X021423Y006206D03*
X021423Y006181D03*
X021273Y006206D03*
X021148Y006081D03*
X021073Y006081D03*
X021073Y006006D03*
X020998Y005931D03*
X020998Y005831D03*
X021073Y005756D03*
X020798Y005606D03*
X021273Y005406D03*
X021423Y005156D03*
X021598Y005431D03*
X021748Y005531D03*
X021773Y005506D03*
X021773Y005731D03*
X021773Y005756D03*
X021748Y005781D03*
X021748Y005806D03*
X021998Y005706D03*
X022023Y005656D03*
X022023Y005431D03*
X022023Y005181D03*
X022298Y005031D03*
X022323Y005006D03*
X022298Y004681D03*
X022648Y005306D03*
X022648Y005331D03*
X022323Y005406D03*
X023123Y005431D03*
X023123Y005456D03*
X023773Y005531D03*
X024423Y005681D03*
X025023Y005706D03*
X025023Y005756D03*
X025023Y005606D03*
X025023Y005581D03*
X024423Y005106D03*
X024398Y005081D03*
X024398Y004931D03*
X023748Y004931D03*
X023748Y004781D03*
X021448Y005981D03*
X021073Y006306D03*
X021148Y006381D03*
X020998Y006456D03*
X020923Y006406D03*
X020723Y006331D03*
X020723Y006306D03*
X020723Y006281D03*
X020723Y006256D03*
X020723Y006006D03*
X020798Y005931D03*
X020723Y005231D03*
X020723Y005206D03*
X020998Y006706D03*
X020998Y006731D03*
X021998Y007731D03*
X021998Y007981D03*
X022023Y008006D03*
X022023Y008031D03*
X022298Y008406D03*
X022323Y008431D03*
X022623Y008406D03*
X022973Y009131D03*
X024423Y007206D03*
X024398Y006906D03*
X024423Y006881D03*
X027633Y005871D03*
X028808Y004596D03*
X028833Y003896D03*
X029933Y005346D03*
X029958Y005846D03*
X030583Y006471D03*
X031233Y007146D03*
X031233Y007171D03*
X031233Y007846D03*
X031233Y007871D03*
X031233Y008021D03*
X031233Y008121D03*
X031233Y008146D03*
X031208Y008196D03*
X031208Y008221D03*
X033458Y007946D03*
X033458Y007746D03*
X033458Y007521D03*
X034758Y008546D03*
X034758Y008571D03*
X034758Y008596D03*
X034758Y008621D03*
X034758Y008646D03*
X034758Y008671D03*
X034083Y008846D03*
X034083Y006296D03*
X034083Y006271D03*
X031733Y005271D03*
D21*
X031795Y005396D03*
X031845Y005496D03*
X031795Y005671D03*
X032095Y005896D03*
X032370Y006146D03*
X032420Y006196D03*
X033295Y007071D03*
X033195Y007146D03*
X032995Y007221D03*
X033195Y007421D03*
X033245Y007496D03*
X033295Y007546D03*
X033345Y007371D03*
X033570Y007696D03*
X033720Y007921D03*
X033820Y008096D03*
X033870Y008171D03*
X033870Y008196D03*
X034295Y008196D03*
X034345Y008271D03*
X034545Y008221D03*
X034495Y008646D03*
X034545Y008696D03*
X034595Y008796D03*
X034245Y009046D03*
X034145Y008921D03*
X033345Y009196D03*
X033195Y009321D03*
X033145Y009296D03*
X033095Y009221D03*
X032995Y009071D03*
X032470Y008471D03*
X032370Y008396D03*
X032320Y008346D03*
X031945Y008321D03*
X031895Y008396D03*
X031845Y008496D03*
X031795Y008596D03*
X032370Y008071D03*
X032270Y007971D03*
X030845Y008946D03*
X030820Y008996D03*
X030820Y009021D03*
X029595Y008996D03*
X029570Y008971D03*
X029545Y009471D03*
X029595Y009896D03*
X029220Y009921D03*
X029220Y009946D03*
X029220Y009971D03*
X028345Y009621D03*
X028345Y009596D03*
X028345Y009571D03*
X028320Y009471D03*
X028320Y009396D03*
X028345Y009321D03*
X028345Y009296D03*
X028345Y009271D03*
X028345Y009246D03*
X028945Y008671D03*
X028945Y008646D03*
X028945Y008621D03*
X028945Y008596D03*
X028945Y008571D03*
X028945Y008546D03*
X028945Y008521D03*
X029545Y008096D03*
X029570Y008071D03*
X029595Y008021D03*
X029595Y007996D03*
X029595Y007871D03*
X029595Y007846D03*
X029595Y007821D03*
X029570Y007771D03*
X029545Y007746D03*
X030795Y006821D03*
X030820Y006846D03*
X030845Y006871D03*
X028895Y005296D03*
X028345Y004796D03*
X028295Y004846D03*
X028020Y005171D03*
X027870Y005346D03*
X027995Y005746D03*
X029245Y004396D03*
X029245Y004371D03*
X029220Y004346D03*
X028645Y003846D03*
X028620Y003721D03*
X028595Y003696D03*
X025210Y005731D03*
X024635Y005756D03*
X023985Y005331D03*
X022760Y005206D03*
X022410Y004706D03*
X022410Y004681D03*
X021835Y004906D03*
X021835Y005056D03*
X022110Y005331D03*
X022135Y005306D03*
X021835Y005656D03*
X021810Y005681D03*
X021685Y005581D03*
X021360Y005406D03*
X022135Y005756D03*
X021835Y005931D03*
X021835Y005956D03*
X021660Y006031D03*
X021360Y006031D03*
X021360Y006056D03*
X021510Y006456D03*
X022460Y007331D03*
X023060Y007456D03*
X023060Y007481D03*
X023385Y007481D03*
X023960Y007281D03*
X023985Y007256D03*
X022460Y008456D03*
X033620Y010221D03*
X033620Y010246D03*
X033820Y009896D03*
X033720Y006746D03*
D22*
X033445Y006946D03*
X033695Y006296D03*
X031670Y005546D03*
X030645Y005021D03*
X028795Y003671D03*
X027420Y005771D03*
X029145Y007521D03*
X029345Y008796D03*
X029345Y010096D03*
X028795Y010121D03*
X033120Y008946D03*
X033545Y009571D03*
X034220Y009271D03*
X034220Y009246D03*
X034220Y008046D03*
X023735Y005356D03*
X022960Y004706D03*
X022560Y005106D03*
X022260Y004831D03*
X022010Y005056D03*
D23*
X021948Y005206D03*
X022573Y005281D03*
X023698Y004806D03*
X028133Y005721D03*
X029358Y005096D03*
X028483Y004671D03*
X029158Y004271D03*
X029133Y004246D03*
X028833Y003721D03*
X031733Y005596D03*
X034033Y006121D03*
X031208Y007296D03*
X031208Y007321D03*
X029333Y008271D03*
X029108Y008371D03*
X029108Y007496D03*
X029158Y006796D03*
X029108Y006771D03*
X031233Y009096D03*
D24*
X031383Y009021D03*
X031433Y008971D03*
X032633Y008596D03*
X032683Y008621D03*
X032108Y008096D03*
X033358Y007671D03*
X033358Y007646D03*
X033883Y008271D03*
X034558Y008246D03*
X033358Y009171D03*
X033358Y009221D03*
X029583Y009921D03*
X029558Y009946D03*
X029533Y009971D03*
X028583Y009996D03*
X029558Y008946D03*
X028608Y008871D03*
X028583Y008896D03*
X028958Y008496D03*
X029533Y008121D03*
X029583Y008046D03*
X029583Y007796D03*
X029533Y007721D03*
X029208Y007246D03*
X029233Y007221D03*
X030783Y006796D03*
X030858Y006896D03*
X030133Y005546D03*
X029583Y005221D03*
X028958Y005221D03*
X028958Y005246D03*
X028658Y005496D03*
X028583Y005546D03*
X028008Y005196D03*
X027883Y005321D03*
X027708Y005496D03*
X028308Y004821D03*
X029233Y004421D03*
X028608Y003671D03*
X028583Y003646D03*
X031383Y005396D03*
X031408Y005421D03*
X025273Y005606D03*
X025248Y005581D03*
X025223Y005556D03*
X023998Y004806D03*
X023348Y004956D03*
X022448Y005131D03*
X022398Y005156D03*
X022473Y005306D03*
X022423Y005331D03*
X022173Y005556D03*
X021523Y006031D03*
X021148Y005706D03*
X020648Y005131D03*
X022748Y007481D03*
X022098Y007856D03*
X022098Y007881D03*
X023998Y007906D03*
X024023Y007881D03*
D25*
X024410Y007306D03*
X024410Y007281D03*
X024410Y007256D03*
X024410Y007231D03*
X023760Y007181D03*
X023760Y007156D03*
X023110Y007381D03*
X023110Y007406D03*
X022310Y007431D03*
X022010Y007431D03*
X022010Y007456D03*
X021760Y007456D03*
X021760Y007481D03*
X021760Y007431D03*
X021610Y006856D03*
X021610Y006831D03*
X021760Y006381D03*
X021760Y006156D03*
X021435Y005956D03*
X021160Y006056D03*
X021085Y006181D03*
X021085Y006206D03*
X021010Y006381D03*
X021010Y006406D03*
X021010Y006431D03*
X020910Y006431D03*
X020860Y006531D03*
X020860Y006556D03*
X020860Y006681D03*
X020860Y006706D03*
X020860Y006306D03*
X020735Y006231D03*
X020735Y006206D03*
X020910Y006131D03*
X020860Y005856D03*
X020910Y005781D03*
X020660Y005781D03*
X020810Y005506D03*
X020735Y005356D03*
X020735Y005281D03*
X020735Y005256D03*
X021285Y005381D03*
X021610Y005381D03*
X021610Y005406D03*
X022010Y005681D03*
X023110Y005406D03*
X023110Y005381D03*
X023110Y005356D03*
X023110Y005331D03*
X023110Y005006D03*
X023110Y004981D03*
X023760Y004906D03*
X023760Y004881D03*
X023760Y004856D03*
X023760Y004831D03*
X024410Y005856D03*
X025035Y006481D03*
X025035Y006631D03*
X027270Y005971D03*
X029945Y005371D03*
X032520Y006596D03*
X032520Y006621D03*
X032570Y006746D03*
X032570Y006771D03*
X032620Y006846D03*
X032995Y007271D03*
X033145Y007571D03*
X033145Y007596D03*
X033095Y007696D03*
X033145Y007796D03*
X033195Y007746D03*
X033295Y007796D03*
X033295Y007821D03*
X033245Y007896D03*
X033295Y007996D03*
X033470Y007921D03*
X033470Y007896D03*
X033470Y007871D03*
X033470Y007846D03*
X033470Y007821D03*
X033470Y007771D03*
X033570Y008021D03*
X033620Y008121D03*
X033620Y008146D03*
X033870Y008371D03*
X034145Y008171D03*
X034545Y008896D03*
X034145Y008971D03*
X033820Y009921D03*
X033570Y010071D03*
X033670Y010171D03*
X033620Y010296D03*
X033520Y009771D03*
X032420Y008096D03*
X032220Y007921D03*
X033520Y006846D03*
X033620Y006771D03*
X028820Y003796D03*
X022310Y007981D03*
X022635Y008781D03*
D26*
X022148Y007981D03*
X022123Y007931D03*
X022773Y007681D03*
X022798Y007531D03*
X023448Y007656D03*
X023973Y007981D03*
X027083Y005996D03*
X027183Y005946D03*
X028033Y005771D03*
X028283Y005746D03*
X030783Y005096D03*
X031358Y005371D03*
X033908Y006196D03*
X033958Y006171D03*
X032133Y008071D03*
X032083Y008171D03*
X031433Y008946D03*
X031383Y008996D03*
X030833Y009371D03*
X028683Y010071D03*
X023348Y004931D03*
X023998Y004831D03*
X022173Y004906D03*
X028583Y003571D03*
X028608Y003596D03*
X028958Y003896D03*
D27*
X028758Y003646D03*
X029883Y004746D03*
X029908Y005521D03*
X029933Y005546D03*
X031708Y005571D03*
X029208Y007546D03*
X029233Y008321D03*
X031258Y009071D03*
X033433Y009071D03*
X027558Y006046D03*
X027408Y005796D03*
X025123Y005806D03*
X021948Y004856D03*
D28*
X022235Y004856D03*
X022235Y005256D03*
X021885Y005231D03*
X021485Y005131D03*
X022510Y005556D03*
X021610Y005831D03*
X021385Y006081D03*
X021135Y006356D03*
X020785Y006356D03*
X021635Y006806D03*
X022685Y007656D03*
X023310Y007706D03*
X023560Y007606D03*
X023510Y007131D03*
X023910Y008081D03*
X024885Y006356D03*
X024760Y006106D03*
X024760Y005731D03*
X024510Y005206D03*
X024160Y005081D03*
X023860Y005106D03*
X023635Y005531D03*
X023635Y005556D03*
X025385Y006306D03*
X027495Y005696D03*
X027520Y005671D03*
X027570Y005621D03*
X027670Y005521D03*
X027945Y005921D03*
X027995Y005896D03*
X028095Y005846D03*
X029045Y005146D03*
X029295Y005071D03*
X029420Y005121D03*
X029495Y005171D03*
X029270Y004521D03*
X029195Y004321D03*
X028395Y004746D03*
X030020Y005721D03*
X030745Y005071D03*
X030895Y005146D03*
X030945Y005171D03*
X030995Y005196D03*
X031095Y005246D03*
X031620Y005421D03*
X030370Y004671D03*
X029245Y006846D03*
X029270Y006871D03*
X029195Y006821D03*
X029020Y006721D03*
X029420Y007646D03*
X029470Y007671D03*
X029445Y008196D03*
X029420Y008221D03*
X029370Y008246D03*
X029070Y008396D03*
X029020Y008421D03*
X029420Y008846D03*
X029470Y008871D03*
X029495Y008896D03*
X030945Y008796D03*
X030945Y008771D03*
X031320Y009046D03*
X031495Y008896D03*
X031520Y008871D03*
X031595Y008821D03*
X031045Y009246D03*
X029495Y009996D03*
X029470Y010021D03*
X029445Y010046D03*
X029395Y010071D03*
X032770Y008696D03*
X033970Y009246D03*
X033495Y009496D03*
X034120Y008146D03*
X033295Y007571D03*
D29*
X034233Y009221D03*
X034033Y009396D03*
X033808Y009821D03*
X033608Y009921D03*
X033658Y010046D03*
X033558Y009596D03*
X031058Y009221D03*
X030983Y009271D03*
X029282Y008771D03*
X029282Y010121D03*
X023072Y007256D03*
X023072Y007231D03*
X023072Y007206D03*
X023072Y007181D03*
X023573Y005281D03*
X022723Y005056D03*
X023548Y004856D03*
X027058Y006021D03*
X027732Y005896D03*
X027808Y005871D03*
X029733Y004696D03*
X030333Y004821D03*
X030433Y004921D03*
X031633Y005521D03*
X030057Y005746D03*
X028533Y004646D03*
X028833Y003746D03*
D30*
X028908Y003871D03*
X023147Y004881D03*
X021373Y005706D03*
X031058Y009196D03*
X033607Y009321D03*
X033633Y009346D03*
X033683Y009396D03*
X033783Y009471D03*
X033833Y009521D03*
X033683Y009696D03*
X033707Y009721D03*
X033733Y009746D03*
X033783Y009796D03*
X033607Y009646D03*
X033583Y009621D03*
X033657Y010021D03*
X033657Y009171D03*
X033883Y008346D03*
X034232Y008071D03*
D31*
X032808Y008721D03*
X032233Y008271D03*
X032183Y008221D03*
X031233Y007346D03*
X031258Y007121D03*
X031258Y007096D03*
X031233Y007071D03*
X032183Y005971D03*
X031758Y005646D03*
X031258Y005321D03*
X031208Y005296D03*
X030558Y004996D03*
X029158Y004221D03*
X029133Y004171D03*
X029133Y004146D03*
X029108Y004121D03*
X029108Y004096D03*
X028233Y004921D03*
X028208Y004946D03*
X028783Y005396D03*
X028808Y005371D03*
X028833Y005346D03*
X028858Y005321D03*
X028508Y005596D03*
X028483Y005621D03*
X027608Y005596D03*
X027458Y005721D03*
X029308Y006921D03*
X029308Y007121D03*
X029183Y007271D03*
X029158Y007296D03*
X029108Y007321D03*
X029308Y009021D03*
X029333Y009046D03*
X028533Y008946D03*
X028508Y008971D03*
X028483Y008996D03*
X028483Y009896D03*
X028508Y009921D03*
X028533Y009946D03*
X031208Y009146D03*
X033483Y009471D03*
X034058Y009446D03*
X025023Y006456D03*
X024398Y006281D03*
X024398Y006256D03*
X024423Y006181D03*
X024423Y006156D03*
X025048Y005656D03*
X024448Y005131D03*
X024398Y004956D03*
X023773Y005606D03*
X022673Y005456D03*
X022623Y005256D03*
X022598Y004906D03*
X021598Y005506D03*
X021598Y005531D03*
X021398Y005781D03*
X021398Y005806D03*
X021398Y005881D03*
X021398Y005931D03*
X021423Y006131D03*
X021423Y006156D03*
X021723Y006181D03*
X021748Y006281D03*
X021598Y006681D03*
X021598Y006706D03*
X022623Y007431D03*
X022673Y007456D03*
X022048Y007806D03*
X023773Y007281D03*
X023798Y007206D03*
X021598Y005856D03*
X020698Y005806D03*
X023148Y009131D03*
D32*
X023335Y007231D03*
X021410Y006106D03*
X021410Y005381D03*
X022410Y005356D03*
X022810Y004906D03*
X023460Y005531D03*
X027920Y005821D03*
X030245Y005721D03*
X030120Y004821D03*
X028995Y003971D03*
X028695Y003796D03*
X033045Y008896D03*
X033670Y009196D03*
X034245Y009196D03*
X033920Y009621D03*
X033620Y009946D03*
X030770Y009296D03*
D33*
X031095Y009171D03*
X032245Y008021D03*
X033995Y009171D03*
X033920Y009596D03*
X034645Y008721D03*
X034020Y006146D03*
X031620Y005496D03*
X030345Y004696D03*
X029820Y004721D03*
X028570Y004621D03*
X028595Y003521D03*
X025385Y005506D03*
X027245Y005921D03*
X027395Y005821D03*
X027445Y006071D03*
X023260Y007556D03*
X022735Y005231D03*
X022735Y004931D03*
D34*
X022710Y004956D03*
X022785Y005031D03*
X022185Y005281D03*
X021685Y005556D03*
X023960Y005556D03*
X024035Y005356D03*
X023935Y005056D03*
X024010Y004956D03*
X024010Y004931D03*
X025260Y006231D03*
X027270Y005871D03*
X027545Y005646D03*
X027695Y005821D03*
X027870Y005946D03*
X028045Y005871D03*
X028320Y005721D03*
X028370Y005696D03*
X028620Y005521D03*
X028920Y005271D03*
X029545Y005196D03*
X029620Y005246D03*
X030845Y005121D03*
X031470Y005446D03*
X033845Y006221D03*
X033545Y006871D03*
X033895Y008296D03*
X034270Y008171D03*
X034620Y008746D03*
X034220Y009171D03*
X033945Y009646D03*
X033320Y009396D03*
X033270Y009021D03*
X033695Y010071D03*
X029520Y008921D03*
X028670Y008821D03*
X028645Y008846D03*
X028620Y010021D03*
X028645Y010046D03*
X024035Y007856D03*
X023985Y007931D03*
X023985Y007956D03*
X023385Y007681D03*
X022135Y007956D03*
X022110Y007906D03*
X028370Y004771D03*
X028670Y003771D03*
X028645Y003746D03*
X028895Y003771D03*
X028920Y003796D03*
D35*
X028195Y004971D03*
X028170Y004996D03*
X027945Y005271D03*
X027920Y005296D03*
X027795Y005421D03*
X027770Y005446D03*
X028220Y005696D03*
X029120Y005071D03*
X030570Y004871D03*
X030595Y004896D03*
X030620Y004921D03*
X031770Y005321D03*
X031770Y005346D03*
X031820Y005446D03*
X031970Y005796D03*
X032245Y006021D03*
X032345Y006121D03*
X032395Y006171D03*
X032445Y006221D03*
X032495Y006271D03*
X032545Y006321D03*
X033595Y006846D03*
X033695Y006771D03*
X033745Y006721D03*
X033795Y006671D03*
X033845Y006621D03*
X033220Y007121D03*
X033220Y007196D03*
X033270Y007271D03*
X033170Y007396D03*
X033270Y007521D03*
X033795Y008046D03*
X033845Y008146D03*
X034070Y008171D03*
X034220Y008021D03*
X034320Y008246D03*
X034370Y008321D03*
X034520Y008671D03*
X034120Y008896D03*
X034470Y009021D03*
X034370Y009121D03*
X034270Y009296D03*
X034120Y009296D03*
X034070Y009471D03*
X033545Y009821D03*
X033270Y009371D03*
X033220Y009346D03*
X033070Y009196D03*
X031820Y008546D03*
X031770Y008621D03*
X031720Y008696D03*
X031870Y008446D03*
X032295Y008321D03*
X032445Y008446D03*
X031220Y008171D03*
X031195Y008246D03*
X031245Y008046D03*
X031245Y007996D03*
X031245Y007971D03*
X031245Y007946D03*
X031245Y007921D03*
X031245Y007896D03*
X031245Y007396D03*
X031245Y007371D03*
X031245Y007271D03*
X031245Y007246D03*
X031245Y007221D03*
X031245Y007196D03*
X031220Y007046D03*
X031220Y007021D03*
X030620Y006521D03*
X030595Y006496D03*
X030570Y006446D03*
X029320Y006946D03*
X029295Y006896D03*
X029320Y007096D03*
X029295Y007146D03*
X028470Y009021D03*
X028470Y009871D03*
X023785Y007981D03*
X023735Y007506D03*
X023760Y007481D03*
X023785Y007456D03*
X023760Y007131D03*
X023760Y007106D03*
X023760Y007081D03*
X024435Y007031D03*
X024385Y006306D03*
X025035Y006431D03*
X025035Y006031D03*
X025035Y005781D03*
X025035Y005681D03*
X025035Y005631D03*
X024385Y005831D03*
X023785Y005581D03*
X023785Y005556D03*
X023785Y005181D03*
X023735Y005156D03*
X022660Y005356D03*
X022660Y005381D03*
X022660Y005406D03*
X022660Y005431D03*
X022310Y005431D03*
X022310Y005381D03*
X021985Y005456D03*
X021610Y005481D03*
X021285Y005581D03*
X021285Y005606D03*
X021285Y005631D03*
X021285Y005656D03*
X020885Y005356D03*
X021985Y005731D03*
X021760Y006306D03*
X021585Y006631D03*
X021585Y006656D03*
X021610Y006731D03*
X022335Y007206D03*
X022610Y007181D03*
X022610Y007156D03*
X022635Y007631D03*
X022335Y008006D03*
X022035Y007781D03*
X022010Y007756D03*
X021985Y007706D03*
X022285Y005056D03*
X022035Y005006D03*
X033795Y008371D03*
D36*
X033508Y006346D03*
X029032Y008696D03*
X028858Y008771D03*
X029032Y010196D03*
X027408Y005846D03*
X028757Y004496D03*
X028908Y003921D03*
X028858Y003846D03*
X028682Y003621D03*
X021922Y005031D03*
D37*
X023110Y005031D03*
X027770Y005846D03*
X033545Y009021D03*
D38*
X034045Y009346D03*
X023185Y005056D03*
D39*
X022285Y005081D03*
X030170Y004746D03*
X033895Y009546D03*
D40*
X028895Y008746D03*
X027395Y005996D03*
X027320Y006021D03*
X029370Y004596D03*
X030395Y004896D03*
X023135Y007756D03*
X022685Y005081D03*
D41*
X023448Y005081D03*
X023323Y007206D03*
X022823Y007206D03*
X028608Y004596D03*
X030208Y004846D03*
X033983Y009196D03*
D42*
X033983Y009221D03*
X034058Y009421D03*
X034208Y009146D03*
X034382Y009096D03*
X033533Y009546D03*
X033583Y009896D03*
X033807Y009846D03*
X033208Y008996D03*
X033182Y008971D03*
X031608Y008796D03*
X031533Y008846D03*
X030958Y009296D03*
X029382Y008821D03*
X029282Y008296D03*
X029382Y007621D03*
X027808Y005971D03*
X027732Y005996D03*
X027858Y005771D03*
X027483Y005871D03*
X027458Y005746D03*
X027132Y005971D03*
X025348Y005806D03*
X024873Y005781D03*
X024773Y005756D03*
X024497Y005181D03*
X023897Y005081D03*
X023847Y005456D03*
X023473Y005506D03*
X023272Y005506D03*
X023272Y005481D03*
X022848Y005481D03*
X022673Y005531D03*
X021397Y005731D03*
X021323Y005681D03*
X021048Y005806D03*
X020723Y006106D03*
X028708Y003896D03*
X029033Y003996D03*
X029183Y005021D03*
X030408Y005871D03*
X031533Y005471D03*
X031583Y005371D03*
X031858Y005696D03*
X030707Y005046D03*
X033483Y006921D03*
X033208Y007446D03*
X033208Y007471D03*
X028733Y010096D03*
D43*
X028720Y008796D03*
X029170Y008346D03*
X029320Y007596D03*
X029270Y007571D03*
X029045Y006746D03*
X027645Y006021D03*
X025335Y005481D03*
X023535Y005106D03*
X023260Y005531D03*
X023060Y005531D03*
X023060Y005506D03*
X023060Y005481D03*
X022860Y005506D03*
X022860Y005531D03*
X021585Y005806D03*
X021435Y005831D03*
X020885Y005631D03*
X023060Y007281D03*
X023485Y007631D03*
X023060Y009156D03*
X030270Y005746D03*
X030470Y004946D03*
X030270Y004871D03*
X030045Y004796D03*
X031695Y005296D03*
X028570Y003496D03*
X033420Y009096D03*
X033420Y009121D03*
X030720Y009421D03*
D44*
X034195Y008121D03*
X033620Y006321D03*
X029995Y004771D03*
X029870Y005496D03*
X023710Y005131D03*
X021185Y005731D03*
X022860Y007706D03*
X023035Y008081D03*
D45*
X023048Y005181D03*
X028783Y003696D03*
X029208Y005046D03*
X030008Y005596D03*
X032258Y008046D03*
X031158Y009121D03*
X033983Y009146D03*
D46*
X033845Y009371D03*
X027145Y006096D03*
X023135Y005206D03*
D47*
X023410Y005231D03*
X023310Y007181D03*
X028970Y003946D03*
X028620Y003546D03*
X029570Y004646D03*
X033895Y008321D03*
X033070Y008921D03*
X033695Y009121D03*
X033695Y009146D03*
X030745Y009396D03*
D48*
X023073Y005556D03*
D49*
X023073Y005581D03*
D50*
X023060Y005606D03*
D51*
X023072Y005631D03*
X023072Y005656D03*
X023072Y006981D03*
D52*
X023060Y006956D03*
X023060Y005681D03*
D53*
X023073Y005706D03*
X023098Y006931D03*
D54*
X023060Y005756D03*
X023060Y005731D03*
D55*
X023060Y005781D03*
X023060Y005806D03*
X023060Y005831D03*
X023060Y005856D03*
D56*
X023073Y005881D03*
X023073Y005906D03*
X023073Y005931D03*
D57*
X023060Y005956D03*
D58*
X023060Y005981D03*
X023060Y006006D03*
X023060Y006031D03*
X023060Y006556D03*
X023060Y006581D03*
D59*
X023060Y006081D03*
X023060Y006056D03*
D60*
X023073Y006106D03*
X023073Y006406D03*
X023073Y006431D03*
X023073Y006456D03*
X023073Y006481D03*
D61*
X023048Y006131D03*
D62*
X023073Y006156D03*
X023073Y006181D03*
D63*
X022998Y006206D03*
D64*
X023010Y006231D03*
X023010Y006256D03*
D65*
X023073Y006281D03*
X023073Y006306D03*
D66*
X023123Y006331D03*
D67*
X023048Y006356D03*
D68*
X023073Y006506D03*
X023073Y006531D03*
D69*
X023073Y006606D03*
X023073Y006656D03*
X023073Y006681D03*
X023073Y006706D03*
D70*
X023060Y006631D03*
D71*
X023073Y006731D03*
D72*
X023060Y006756D03*
X023060Y006781D03*
D73*
X023073Y006806D03*
D74*
X023060Y006831D03*
D75*
X023073Y006856D03*
X023073Y006881D03*
D76*
X023060Y006906D03*
D77*
X023073Y007006D03*
X023073Y007031D03*
D78*
X023073Y007056D03*
D79*
X023060Y007081D03*
X023060Y007106D03*
D80*
X023073Y007131D03*
D81*
X023060Y007156D03*
D82*
X022823Y007181D03*
X029483Y004621D03*
X029658Y004671D03*
X030258Y004771D03*
X033908Y008396D03*
X033808Y009496D03*
X033908Y009571D03*
D83*
X029195Y008746D03*
X023085Y007581D03*
X029270Y004571D03*
D84*
X027133Y006046D03*
X023073Y007731D03*
D85*
X023110Y008031D03*
D86*
X023098Y008056D03*
D87*
X028795Y003821D03*
X031520Y005321D03*
D88*
X028895Y004521D03*
D89*
X028957Y004546D03*
D90*
X028733Y004571D03*
X027833Y005796D03*
D91*
X027533Y005946D03*
X030133Y005696D03*
X030208Y005771D03*
X030283Y005846D03*
X030183Y004721D03*
D92*
X030295Y004796D03*
X030295Y005821D03*
X030095Y005896D03*
X030795Y009346D03*
X033620Y009671D03*
X033770Y009771D03*
X033670Y009971D03*
X033670Y009996D03*
D93*
X031470Y005346D03*
D94*
X030070Y005621D03*
X030020Y005571D03*
X030095Y005871D03*
D95*
X030108Y005671D03*
X030083Y005646D03*
D96*
X030108Y005796D03*
X030833Y009321D03*
D97*
X033520Y009246D03*
X034070Y009121D03*
X027395Y005896D03*
X027095Y006121D03*
D98*
X027570Y005921D03*
D99*
X027470Y005971D03*
X034245Y008096D03*
D100*
X033608Y009271D03*
X027033Y006071D03*
D101*
X033045Y006371D03*
D102*
X032958Y006396D03*
D103*
X029058Y008721D03*
D104*
X033595Y009046D03*
D105*
X033858Y009071D03*
D106*
X033920Y009096D03*
D107*
X033708Y009296D03*
D108*
X034070Y009321D03*
X029045Y010171D03*
D109*
X033583Y009421D03*
D110*
X033633Y009446D03*
D111*
X029045Y010146D03*
D112*
X034130Y011431D02*
X020130Y011431D01*
X020130Y018431D01*
X034130Y018431D01*
X034130Y015431D01*
X033630Y015431D01*
X033630Y014431D01*
X034130Y014431D01*
X034130Y011431D01*
M02*
