G75*
%MOIN*%
%OFA0B0*%
%FSLAX24Y24*%
%IPPOS*%
%LPD*%
%AMOC8*
5,1,8,0,0,1.08239X$1,22.5*
%
%ADD10C,0.0570*%
%ADD11C,0.0270*%
%ADD12C,0.0280*%
%ADD13C,0.0600*%
%ADD14C,0.0130*%
%ADD15C,0.0160*%
D10*
X022030Y011931D03*
X023030Y011931D03*
X024030Y011931D03*
X025030Y011931D03*
X026030Y011931D03*
X027030Y011931D03*
X028030Y011931D03*
X029030Y011931D03*
X030030Y011931D03*
X031030Y011931D03*
X032030Y011931D03*
X033030Y011931D03*
X034030Y011931D03*
X035030Y011931D03*
X034030Y012931D03*
X032030Y012931D03*
X031030Y012931D03*
X030030Y012931D03*
X022030Y012931D03*
X022030Y013931D03*
X022030Y014931D03*
X022030Y015931D03*
X022030Y016931D03*
X022030Y017931D03*
X023030Y017931D03*
X024030Y017931D03*
X025030Y017931D03*
X026030Y017931D03*
X027030Y017931D03*
X028030Y017931D03*
X029030Y017931D03*
X030030Y017931D03*
X031030Y017931D03*
X032030Y017931D03*
X033030Y017931D03*
X034030Y017931D03*
X035030Y017931D03*
D11*
X014230Y012181D03*
X007480Y014131D03*
X005230Y007681D03*
X011980Y006031D03*
D12*
X024450Y008631D03*
X033910Y008731D03*
D13*
X020330Y017521D02*
X020330Y018121D01*
X019330Y018221D02*
X019330Y017621D01*
X018330Y017521D02*
X018330Y018121D01*
X017330Y018221D02*
X017330Y017621D01*
X016330Y017521D02*
X016330Y018121D01*
X015330Y018221D02*
X015330Y017621D01*
X014330Y017521D02*
X014330Y018121D01*
D14*
X003360Y000537D02*
X003217Y000487D01*
X039390Y000391D01*
X039573Y000403D01*
X039752Y000439D01*
X039926Y000497D01*
X040090Y000578D01*
X040242Y000680D01*
X040380Y000801D01*
X040501Y000939D01*
X040602Y001091D01*
X040683Y001255D01*
X040742Y001428D01*
X040778Y001608D01*
X040790Y001791D01*
X040790Y017551D01*
X040773Y017810D01*
X040725Y018065D01*
X040647Y018313D01*
X040642Y018323D01*
X040715Y017791D01*
X040638Y017234D01*
X040414Y016718D01*
X040414Y016718D01*
X040059Y016282D01*
X040059Y016282D01*
X039600Y015957D01*
X039600Y015957D01*
X039070Y015769D01*
X039070Y015769D01*
X038509Y015731D01*
X038509Y015731D01*
X037958Y015845D01*
X037958Y015845D01*
X037459Y016104D01*
X037459Y016104D01*
X037048Y016488D01*
X037048Y016488D01*
X036756Y016968D01*
X036756Y016968D01*
X036604Y017510D01*
X036604Y018072D01*
X036756Y018614D01*
X036756Y018614D01*
X037048Y019094D01*
X037459Y019478D01*
X037459Y019478D01*
X037870Y019691D01*
X001630Y019691D01*
X001459Y019679D01*
X001292Y019642D01*
X001132Y019582D01*
X000981Y019500D01*
X000844Y019398D01*
X000723Y019277D01*
X000620Y019140D01*
X000538Y018989D01*
X000479Y018829D01*
X000442Y018662D01*
X000430Y018491D01*
X000430Y002887D01*
X000516Y003194D01*
X000516Y003194D01*
X000808Y003674D01*
X000808Y003674D01*
X001219Y004058D01*
X001219Y004058D01*
X001718Y004317D01*
X001718Y004317D01*
X002269Y004431D01*
X002269Y004431D01*
X002830Y004393D01*
X002830Y004393D01*
X003360Y004204D01*
X003360Y004204D01*
X003819Y003880D01*
X003819Y003880D01*
X003819Y003880D01*
X004174Y003444D01*
X004174Y003444D01*
X004398Y002928D01*
X004398Y002928D01*
X004475Y002371D01*
X004398Y001814D01*
X004398Y001814D01*
X004174Y001298D01*
X004174Y001298D01*
X003819Y000862D01*
X003819Y000862D01*
X003360Y000537D01*
X003360Y000537D01*
X003301Y000516D02*
X039964Y000516D01*
X040189Y000645D02*
X003512Y000645D01*
X003694Y000773D02*
X040349Y000773D01*
X040468Y000902D02*
X003852Y000902D01*
X003819Y000862D02*
X003819Y000862D01*
X003957Y001030D02*
X040562Y001030D01*
X040636Y001159D02*
X004061Y001159D01*
X004166Y001287D02*
X040694Y001287D01*
X040738Y001416D02*
X004226Y001416D01*
X004281Y001544D02*
X040765Y001544D01*
X040782Y001673D02*
X004337Y001673D01*
X004393Y001801D02*
X040790Y001801D01*
X040790Y001930D02*
X004414Y001930D01*
X004432Y002058D02*
X040790Y002058D01*
X040790Y002187D02*
X004450Y002187D01*
X004467Y002315D02*
X040790Y002315D01*
X040790Y002444D02*
X004465Y002444D01*
X004447Y002572D02*
X040790Y002572D01*
X040790Y002701D02*
X004430Y002701D01*
X004412Y002829D02*
X040790Y002829D01*
X040790Y002958D02*
X004385Y002958D01*
X004330Y003086D02*
X040790Y003086D01*
X040790Y003215D02*
X004274Y003215D01*
X004218Y003343D02*
X040790Y003343D01*
X040790Y003472D02*
X004152Y003472D01*
X004047Y003600D02*
X040790Y003600D01*
X040790Y003729D02*
X003942Y003729D01*
X003838Y003857D02*
X040790Y003857D01*
X040790Y003986D02*
X003670Y003986D01*
X003487Y004114D02*
X040790Y004114D01*
X040790Y004243D02*
X003252Y004243D01*
X002890Y004371D02*
X040790Y004371D01*
X040790Y004500D02*
X000430Y004500D01*
X000430Y004628D02*
X040790Y004628D01*
X040790Y004757D02*
X000430Y004757D01*
X000430Y004885D02*
X040790Y004885D01*
X040790Y005014D02*
X000430Y005014D01*
X000430Y005142D02*
X040790Y005142D01*
X040790Y005271D02*
X000430Y005271D01*
X000430Y005399D02*
X040790Y005399D01*
X040790Y005528D02*
X000430Y005528D01*
X000430Y005656D02*
X040790Y005656D01*
X040790Y005785D02*
X012066Y005785D01*
X012032Y005771D02*
X012127Y005810D01*
X012143Y005826D01*
X017315Y005826D01*
X017384Y005816D01*
X017398Y005826D01*
X017415Y005826D01*
X017464Y005875D01*
X022798Y009826D01*
X025215Y009826D01*
X026921Y011532D01*
X026948Y011521D01*
X027112Y011521D01*
X027262Y011583D01*
X027378Y011699D01*
X027440Y011849D01*
X027440Y012012D01*
X027378Y012163D01*
X027262Y012278D01*
X027112Y012341D01*
X026948Y012341D01*
X026798Y012278D01*
X026682Y012163D01*
X026620Y012012D01*
X026620Y011849D01*
X026631Y011822D01*
X025045Y010236D01*
X024625Y010236D01*
X025921Y011532D01*
X025948Y011521D01*
X026112Y011521D01*
X026262Y011583D01*
X026378Y011699D01*
X026440Y011849D01*
X026440Y012012D01*
X026378Y012163D01*
X026262Y012278D01*
X026112Y012341D01*
X025948Y012341D01*
X025798Y012278D01*
X025682Y012163D01*
X025620Y012012D01*
X025620Y011849D01*
X025631Y011822D01*
X024445Y010636D01*
X024004Y010636D01*
X024020Y010652D01*
X024906Y011538D01*
X024948Y011521D01*
X025112Y011521D01*
X025262Y011583D01*
X025378Y011699D01*
X025440Y011849D01*
X025440Y012012D01*
X025378Y012163D01*
X025262Y012278D01*
X025112Y012341D01*
X024948Y012341D01*
X024798Y012278D01*
X024682Y012163D01*
X024620Y012012D01*
X024620Y011849D01*
X024638Y011807D01*
X023751Y010921D01*
X015759Y010921D01*
X014490Y012190D01*
X014490Y012233D01*
X014450Y012328D01*
X014377Y012401D01*
X014282Y012441D01*
X014178Y012441D01*
X014083Y012401D01*
X014010Y012328D01*
X013970Y012233D01*
X013970Y012129D01*
X014010Y012034D01*
X014083Y011960D01*
X014178Y011921D01*
X014221Y011921D01*
X015601Y010541D01*
X022033Y010541D01*
X017063Y006936D01*
X013515Y006936D01*
X012565Y007886D01*
X005393Y007886D01*
X005377Y007901D01*
X005282Y007941D01*
X005178Y007941D01*
X005083Y007901D01*
X005010Y007828D01*
X004970Y007733D01*
X004970Y007629D01*
X005010Y007534D01*
X005083Y007460D01*
X005178Y007421D01*
X005282Y007421D01*
X005377Y007460D01*
X005393Y007476D01*
X012395Y007476D01*
X013225Y006646D01*
X013345Y006526D01*
X017114Y006526D01*
X017182Y006515D01*
X017197Y006526D01*
X017215Y006526D01*
X017264Y006574D01*
X022297Y010226D01*
X022635Y010226D01*
X022596Y010186D01*
X017262Y006236D01*
X012143Y006236D01*
X012127Y006251D01*
X012032Y006291D01*
X011928Y006291D01*
X011833Y006251D01*
X011760Y006178D01*
X011720Y006083D01*
X011720Y005979D01*
X011760Y005884D01*
X011833Y005810D01*
X011928Y005771D01*
X012032Y005771D01*
X011894Y005785D02*
X000430Y005785D01*
X000430Y005913D02*
X011747Y005913D01*
X011720Y006042D02*
X000430Y006042D01*
X000430Y006170D02*
X011756Y006170D01*
X013058Y006813D02*
X000430Y006813D01*
X000430Y006941D02*
X012930Y006941D01*
X012801Y007070D02*
X000430Y007070D01*
X000430Y007198D02*
X012673Y007198D01*
X012544Y007327D02*
X000430Y007327D01*
X000430Y007455D02*
X005095Y007455D01*
X004989Y007584D02*
X000430Y007584D01*
X000430Y007712D02*
X004970Y007712D01*
X005022Y007841D02*
X000430Y007841D01*
X000430Y007969D02*
X018488Y007969D01*
X018311Y007841D02*
X012610Y007841D01*
X012738Y007712D02*
X018134Y007712D01*
X017957Y007584D02*
X012867Y007584D01*
X012995Y007455D02*
X017780Y007455D01*
X017602Y007327D02*
X013124Y007327D01*
X013252Y007198D02*
X017425Y007198D01*
X017248Y007070D02*
X013381Y007070D01*
X013509Y006941D02*
X017071Y006941D01*
X017592Y006813D02*
X018041Y006813D01*
X017868Y006684D02*
X017415Y006684D01*
X017245Y006556D02*
X017694Y006556D01*
X017521Y006427D02*
X000430Y006427D01*
X000430Y006299D02*
X017347Y006299D01*
X017863Y006170D02*
X040790Y006170D01*
X040790Y006042D02*
X017689Y006042D01*
X017516Y005913D02*
X040790Y005913D01*
X040790Y006299D02*
X018036Y006299D01*
X018210Y006427D02*
X040790Y006427D01*
X040790Y006556D02*
X018383Y006556D01*
X018557Y006684D02*
X040790Y006684D01*
X040790Y006813D02*
X018730Y006813D01*
X018904Y006941D02*
X040790Y006941D01*
X040790Y007070D02*
X019077Y007070D01*
X019251Y007198D02*
X040790Y007198D01*
X040790Y007327D02*
X019424Y007327D01*
X019597Y007455D02*
X040790Y007455D01*
X040790Y007584D02*
X019771Y007584D01*
X019944Y007712D02*
X040790Y007712D01*
X040790Y007841D02*
X020118Y007841D01*
X020291Y007969D02*
X040790Y007969D01*
X040790Y008098D02*
X020465Y008098D01*
X020638Y008226D02*
X040790Y008226D01*
X040790Y008355D02*
X020812Y008355D01*
X020985Y008483D02*
X024224Y008483D01*
X024225Y008481D02*
X024300Y008406D01*
X024397Y008366D01*
X024503Y008366D01*
X024600Y008406D01*
X024635Y008441D01*
X025409Y008441D01*
X025520Y008552D01*
X026091Y009123D01*
X026093Y009123D01*
X026146Y009178D01*
X026200Y009232D01*
X026200Y009235D01*
X028166Y011298D01*
X028220Y011352D01*
X028220Y011355D01*
X028222Y011357D01*
X028220Y011433D01*
X028220Y011566D01*
X028262Y011583D01*
X028378Y011699D01*
X028440Y011849D01*
X028440Y012012D01*
X028378Y012163D01*
X028262Y012278D01*
X028112Y012341D01*
X027948Y012341D01*
X027798Y012278D01*
X027682Y012163D01*
X027620Y012012D01*
X027620Y011849D01*
X027682Y011699D01*
X027798Y011583D01*
X027840Y011566D01*
X027840Y011507D01*
X025874Y009444D01*
X025251Y008821D01*
X024635Y008821D01*
X024600Y008855D01*
X024503Y008896D01*
X024397Y008896D01*
X024300Y008855D01*
X024225Y008781D01*
X024185Y008684D01*
X024185Y008578D01*
X024225Y008481D01*
X024185Y008612D02*
X021159Y008612D01*
X021332Y008740D02*
X024209Y008740D01*
X024332Y008869D02*
X021506Y008869D01*
X021679Y008997D02*
X025428Y008997D01*
X025299Y008869D02*
X024568Y008869D01*
X024450Y008631D02*
X025330Y008631D01*
X026010Y009311D01*
X028030Y011431D01*
X028030Y011931D01*
X027649Y012081D02*
X027411Y012081D01*
X027440Y011953D02*
X027620Y011953D01*
X027630Y011824D02*
X027430Y011824D01*
X027375Y011696D02*
X027685Y011696D01*
X027836Y011567D02*
X027224Y011567D01*
X026828Y011439D02*
X027775Y011439D01*
X027653Y011310D02*
X026699Y011310D01*
X026571Y011182D02*
X027530Y011182D01*
X027408Y011053D02*
X026442Y011053D01*
X026314Y010925D02*
X027285Y010925D01*
X027163Y010796D02*
X026185Y010796D01*
X026057Y010668D02*
X027041Y010668D01*
X026918Y010539D02*
X025928Y010539D01*
X025800Y010411D02*
X026796Y010411D01*
X026673Y010282D02*
X025671Y010282D01*
X025543Y010154D02*
X026551Y010154D01*
X026428Y010025D02*
X025414Y010025D01*
X025286Y009897D02*
X026306Y009897D01*
X026183Y009768D02*
X022720Y009768D01*
X022547Y009640D02*
X026061Y009640D01*
X025939Y009511D02*
X022373Y009511D01*
X022200Y009383D02*
X025813Y009383D01*
X025685Y009254D02*
X022026Y009254D01*
X021853Y009126D02*
X025556Y009126D01*
X025965Y008997D02*
X033354Y008997D01*
X033482Y008869D02*
X025837Y008869D01*
X025708Y008740D02*
X033611Y008740D01*
X033645Y008706D02*
X033645Y008678D01*
X033685Y008581D01*
X033760Y008506D01*
X033857Y008466D01*
X033963Y008466D01*
X034060Y008506D01*
X034135Y008581D01*
X034175Y008678D01*
X034175Y008784D01*
X034135Y008881D01*
X034060Y008955D01*
X033963Y008996D01*
X033935Y008996D01*
X031305Y011626D01*
X031378Y011699D01*
X031440Y011849D01*
X031440Y012012D01*
X031378Y012163D01*
X031262Y012278D01*
X031112Y012341D01*
X030948Y012341D01*
X030798Y012278D01*
X030682Y012163D01*
X030620Y012012D01*
X030620Y011849D01*
X030682Y011699D01*
X030798Y011583D01*
X030825Y011572D01*
X030825Y011526D01*
X033645Y008706D01*
X033672Y008612D02*
X025580Y008612D01*
X025451Y008483D02*
X033815Y008483D01*
X034005Y008483D02*
X040790Y008483D01*
X040790Y008612D02*
X034148Y008612D01*
X034175Y008740D02*
X040790Y008740D01*
X040790Y008869D02*
X034140Y008869D01*
X033933Y008997D02*
X040790Y008997D01*
X040790Y009126D02*
X033805Y009126D01*
X033676Y009254D02*
X040790Y009254D01*
X040790Y009383D02*
X033548Y009383D01*
X033419Y009511D02*
X040790Y009511D01*
X040790Y009640D02*
X033291Y009640D01*
X033162Y009768D02*
X040790Y009768D01*
X040790Y009897D02*
X033034Y009897D01*
X032905Y010025D02*
X040790Y010025D01*
X040790Y010154D02*
X032777Y010154D01*
X032648Y010282D02*
X040790Y010282D01*
X040790Y010411D02*
X032520Y010411D01*
X032391Y010539D02*
X040790Y010539D01*
X040790Y010668D02*
X032263Y010668D01*
X032134Y010796D02*
X040790Y010796D01*
X040790Y010925D02*
X032006Y010925D01*
X031877Y011053D02*
X040790Y011053D01*
X040790Y011182D02*
X031749Y011182D01*
X031620Y011310D02*
X040790Y011310D01*
X040790Y011439D02*
X031492Y011439D01*
X031363Y011567D02*
X031836Y011567D01*
X031798Y011583D02*
X031948Y011521D01*
X032112Y011521D01*
X032262Y011583D01*
X032378Y011699D01*
X032440Y011849D01*
X032440Y012012D01*
X032378Y012163D01*
X032262Y012278D01*
X032112Y012341D01*
X031948Y012341D01*
X031798Y012278D01*
X031682Y012163D01*
X031620Y012012D01*
X031620Y011849D01*
X031682Y011699D01*
X031798Y011583D01*
X031685Y011696D02*
X031375Y011696D01*
X031430Y011824D02*
X031630Y011824D01*
X031620Y011953D02*
X031440Y011953D01*
X031411Y012081D02*
X031649Y012081D01*
X031729Y012210D02*
X031331Y012210D01*
X031118Y012338D02*
X031942Y012338D01*
X032118Y012338D02*
X032942Y012338D01*
X032948Y012341D02*
X032798Y012278D01*
X032682Y012163D01*
X032620Y012012D01*
X032620Y011849D01*
X032682Y011699D01*
X032798Y011583D01*
X032948Y011521D01*
X033112Y011521D01*
X033262Y011583D01*
X033378Y011699D01*
X033440Y011849D01*
X033440Y012012D01*
X033378Y012163D01*
X033262Y012278D01*
X033112Y012341D01*
X032948Y012341D01*
X033118Y012338D02*
X033839Y012338D01*
X033857Y012348D02*
X033794Y012316D01*
X033737Y012274D01*
X033687Y012224D01*
X033645Y012167D01*
X033613Y012104D01*
X033591Y012036D01*
X033580Y011966D01*
X033580Y011961D01*
X034000Y011961D01*
X034000Y012381D01*
X033995Y012381D01*
X033925Y012370D01*
X033857Y012348D01*
X034000Y012338D02*
X034060Y012338D01*
X034060Y012381D02*
X034060Y011961D01*
X034000Y011961D01*
X034000Y011901D01*
X033580Y011901D01*
X033580Y011895D01*
X033591Y011825D01*
X033613Y011758D01*
X033645Y011695D01*
X033687Y011638D01*
X033737Y011588D01*
X033794Y011546D01*
X033857Y011514D01*
X033925Y011492D01*
X033995Y011481D01*
X034000Y011481D01*
X034000Y011901D01*
X034060Y011901D01*
X034060Y011961D01*
X034480Y011961D01*
X034480Y011966D01*
X034469Y012036D01*
X034447Y012104D01*
X034415Y012167D01*
X034373Y012224D01*
X034323Y012274D01*
X034266Y012316D01*
X034203Y012348D01*
X034135Y012370D01*
X034065Y012381D01*
X034060Y012381D01*
X034112Y012521D02*
X034262Y012583D01*
X034378Y012699D01*
X034440Y012849D01*
X034440Y013012D01*
X034378Y013163D01*
X034262Y013278D01*
X034112Y013341D01*
X033948Y013341D01*
X033798Y013278D01*
X033682Y013163D01*
X033620Y013012D01*
X033620Y012849D01*
X033682Y012699D01*
X033798Y012583D01*
X033948Y012521D01*
X034112Y012521D01*
X034274Y012595D02*
X040790Y012595D01*
X040790Y012467D02*
X020704Y012467D01*
X020575Y012595D02*
X021786Y012595D01*
X021798Y012583D02*
X021948Y012521D01*
X022112Y012521D01*
X022262Y012583D01*
X022378Y012699D01*
X022440Y012849D01*
X022440Y013012D01*
X022378Y013163D01*
X022262Y013278D01*
X022112Y013341D01*
X021948Y013341D01*
X021798Y013278D01*
X021682Y013163D01*
X021620Y013012D01*
X021620Y012849D01*
X021682Y012699D01*
X021798Y012583D01*
X021672Y012724D02*
X020535Y012724D01*
X020535Y012636D02*
X020535Y017146D01*
X020571Y017161D01*
X020690Y017280D01*
X020755Y017436D01*
X020755Y018205D01*
X020690Y018362D01*
X020571Y018481D01*
X020463Y018526D01*
X021705Y018526D01*
X021825Y018406D01*
X021825Y018290D01*
X021798Y018278D01*
X021682Y018163D01*
X021620Y018012D01*
X021620Y017849D01*
X021682Y017699D01*
X021798Y017583D01*
X021948Y017521D01*
X022112Y017521D01*
X022262Y017583D01*
X022378Y017699D01*
X022440Y017849D01*
X022440Y018012D01*
X022378Y018163D01*
X022262Y018278D01*
X022235Y018290D01*
X022235Y018576D01*
X021995Y018816D01*
X021945Y018866D01*
X022665Y018866D01*
X022825Y018706D01*
X022825Y018290D01*
X022798Y018278D01*
X022682Y018163D01*
X022620Y018012D01*
X022620Y017849D01*
X022682Y017699D01*
X022798Y017583D01*
X022948Y017521D01*
X023112Y017521D01*
X023262Y017583D01*
X023378Y017699D01*
X023440Y017849D01*
X023440Y018012D01*
X023378Y018163D01*
X023262Y018278D01*
X023235Y018290D01*
X023235Y018876D01*
X022955Y019156D01*
X022905Y019206D01*
X023345Y019206D01*
X023825Y018726D01*
X023825Y018290D01*
X023798Y018278D01*
X023682Y018163D01*
X023620Y018012D01*
X023620Y017849D01*
X023682Y017699D01*
X023798Y017583D01*
X023948Y017521D01*
X024112Y017521D01*
X024262Y017583D01*
X024378Y017699D01*
X024440Y017849D01*
X024440Y018012D01*
X024378Y018163D01*
X024262Y018278D01*
X024235Y018290D01*
X024235Y018896D01*
X024115Y019016D01*
X023515Y019616D01*
X017725Y019616D01*
X017245Y019136D01*
X017125Y019016D01*
X017125Y018596D01*
X017089Y018581D01*
X016970Y018462D01*
X016905Y018305D01*
X016905Y017536D01*
X016970Y017380D01*
X017089Y017261D01*
X017245Y017196D01*
X017415Y017196D01*
X017571Y017261D01*
X017690Y017380D01*
X017755Y017536D01*
X017755Y018305D01*
X017690Y018462D01*
X017571Y018581D01*
X017535Y018596D01*
X017535Y018846D01*
X017895Y019206D01*
X018755Y019206D01*
X018245Y018696D01*
X018125Y018576D01*
X018125Y018496D01*
X018089Y018481D01*
X017970Y018362D01*
X017905Y018205D01*
X017905Y017436D01*
X017970Y017280D01*
X018089Y017161D01*
X018245Y017096D01*
X018415Y017096D01*
X018571Y017161D01*
X018690Y017280D01*
X018755Y017436D01*
X018755Y018205D01*
X018690Y018362D01*
X018590Y018461D01*
X018995Y018866D01*
X019435Y018866D01*
X019245Y018676D01*
X019194Y018624D01*
X019089Y018581D01*
X018970Y018462D01*
X018905Y018305D01*
X018905Y017536D01*
X018970Y017380D01*
X019089Y017261D01*
X019245Y017196D01*
X019415Y017196D01*
X019571Y017261D01*
X019690Y017380D01*
X019755Y017536D01*
X019755Y018305D01*
X019690Y018462D01*
X019650Y018501D01*
X019675Y018526D01*
X020197Y018526D01*
X020089Y018481D01*
X019970Y018362D01*
X019905Y018205D01*
X019905Y017436D01*
X019970Y017280D01*
X020089Y017161D01*
X020125Y017146D01*
X020125Y012466D01*
X020865Y011726D01*
X021671Y011726D01*
X021682Y011699D01*
X021798Y011583D01*
X021948Y011521D01*
X022112Y011521D01*
X022262Y011583D01*
X022378Y011699D01*
X022440Y011849D01*
X022440Y012012D01*
X022378Y012163D01*
X022262Y012278D01*
X022112Y012341D01*
X021948Y012341D01*
X021798Y012278D01*
X021682Y012163D01*
X021671Y012136D01*
X021035Y012136D01*
X020535Y012636D01*
X020535Y012852D02*
X021620Y012852D01*
X021620Y012981D02*
X020535Y012981D01*
X020535Y013109D02*
X021660Y013109D01*
X021757Y013238D02*
X020535Y013238D01*
X020535Y013366D02*
X040790Y013366D01*
X040790Y013238D02*
X034303Y013238D01*
X034400Y013109D02*
X040790Y013109D01*
X040790Y012981D02*
X034440Y012981D01*
X034440Y012852D02*
X040790Y012852D01*
X040790Y012724D02*
X034388Y012724D01*
X034221Y012338D02*
X034942Y012338D01*
X034948Y012341D02*
X034798Y012278D01*
X034682Y012163D01*
X034620Y012012D01*
X034620Y011849D01*
X034682Y011699D01*
X034798Y011583D01*
X034948Y011521D01*
X035112Y011521D01*
X035262Y011583D01*
X035378Y011699D01*
X035440Y011849D01*
X035440Y012012D01*
X035378Y012163D01*
X035262Y012278D01*
X035112Y012341D01*
X034948Y012341D01*
X035118Y012338D02*
X040790Y012338D01*
X040790Y012210D02*
X035331Y012210D01*
X035411Y012081D02*
X040790Y012081D01*
X040790Y011953D02*
X035440Y011953D01*
X035430Y011824D02*
X040790Y011824D01*
X040790Y011696D02*
X035375Y011696D01*
X035224Y011567D02*
X040790Y011567D01*
X040790Y013495D02*
X020535Y013495D01*
X020535Y013623D02*
X021758Y013623D01*
X021798Y013583D02*
X021948Y013521D01*
X022112Y013521D01*
X022262Y013583D01*
X022378Y013699D01*
X022440Y013849D01*
X022440Y014012D01*
X022378Y014163D01*
X022262Y014278D01*
X022112Y014341D01*
X021948Y014341D01*
X021798Y014278D01*
X021682Y014163D01*
X021620Y014012D01*
X021620Y013849D01*
X021682Y013699D01*
X021798Y013583D01*
X021660Y013752D02*
X020535Y013752D01*
X020535Y013880D02*
X021620Y013880D01*
X021620Y014009D02*
X020535Y014009D01*
X020535Y014137D02*
X021672Y014137D01*
X021785Y014266D02*
X020535Y014266D01*
X020535Y014394D02*
X040790Y014394D01*
X040790Y014266D02*
X022275Y014266D01*
X022388Y014137D02*
X040790Y014137D01*
X040790Y014009D02*
X022440Y014009D01*
X022440Y013880D02*
X040790Y013880D01*
X040790Y013752D02*
X022400Y013752D01*
X022302Y013623D02*
X040790Y013623D01*
X040790Y014523D02*
X022221Y014523D01*
X022203Y014514D02*
X022266Y014546D01*
X022323Y014588D01*
X022373Y014638D01*
X022415Y014695D01*
X022447Y014758D01*
X022469Y014825D01*
X022480Y014895D01*
X022480Y014901D01*
X022060Y014901D01*
X022060Y014961D01*
X022000Y014961D01*
X022000Y015381D01*
X021995Y015381D01*
X021925Y015370D01*
X021857Y015348D01*
X021794Y015316D01*
X021737Y015274D01*
X021687Y015224D01*
X021645Y015167D01*
X021613Y015104D01*
X021591Y015036D01*
X021580Y014966D01*
X021580Y014961D01*
X022000Y014961D01*
X022000Y014901D01*
X021580Y014901D01*
X021580Y014895D01*
X021591Y014825D01*
X021613Y014758D01*
X021645Y014695D01*
X021687Y014638D01*
X021737Y014588D01*
X021794Y014546D01*
X021857Y014514D01*
X021925Y014492D01*
X021995Y014481D01*
X022000Y014481D01*
X022000Y014901D01*
X022060Y014901D01*
X022060Y014481D01*
X022065Y014481D01*
X022135Y014492D01*
X022203Y014514D01*
X022060Y014523D02*
X022000Y014523D01*
X022000Y014651D02*
X022060Y014651D01*
X022060Y014780D02*
X022000Y014780D01*
X022000Y014908D02*
X020535Y014908D01*
X020535Y014780D02*
X021606Y014780D01*
X021677Y014651D02*
X020535Y014651D01*
X020535Y014523D02*
X021839Y014523D01*
X022060Y014908D02*
X040790Y014908D01*
X040790Y014780D02*
X022454Y014780D01*
X022383Y014651D02*
X040790Y014651D01*
X040790Y015037D02*
X022469Y015037D01*
X022469Y015036D02*
X022447Y015104D01*
X022415Y015167D01*
X022373Y015224D01*
X022323Y015274D01*
X022266Y015316D01*
X022203Y015348D01*
X022135Y015370D01*
X022065Y015381D01*
X022060Y015381D01*
X022060Y014961D01*
X022480Y014961D01*
X022480Y014966D01*
X022469Y015036D01*
X022416Y015165D02*
X040790Y015165D01*
X040790Y015294D02*
X022296Y015294D01*
X022060Y015294D02*
X022000Y015294D01*
X022000Y015165D02*
X022060Y015165D01*
X022060Y015037D02*
X022000Y015037D01*
X022030Y014931D02*
X031030Y014931D01*
X032230Y013731D01*
X035030Y016531D01*
X035030Y017931D01*
X035060Y017961D02*
X035000Y017961D01*
X035000Y018381D01*
X034995Y018381D01*
X034925Y018370D01*
X034857Y018348D01*
X034794Y018316D01*
X034737Y018274D01*
X034687Y018224D01*
X034645Y018167D01*
X034613Y018104D01*
X034591Y018036D01*
X034580Y017966D01*
X034580Y017961D01*
X035000Y017961D01*
X035000Y017901D01*
X034580Y017901D01*
X034580Y017895D01*
X034591Y017825D01*
X034613Y017758D01*
X034645Y017695D01*
X034687Y017638D01*
X034737Y017588D01*
X034794Y017546D01*
X034857Y017514D01*
X034925Y017492D01*
X034995Y017481D01*
X035000Y017481D01*
X035000Y017901D01*
X035060Y017901D01*
X035060Y017961D01*
X035060Y018381D01*
X035065Y018381D01*
X035135Y018370D01*
X035203Y018348D01*
X035266Y018316D01*
X035323Y018274D01*
X035373Y018224D01*
X035415Y018167D01*
X035447Y018104D01*
X035469Y018036D01*
X035480Y017966D01*
X035480Y017961D01*
X035060Y017961D01*
X035060Y017992D02*
X035000Y017992D01*
X035060Y017901D02*
X035480Y017901D01*
X035480Y017895D01*
X035469Y017825D01*
X035447Y017758D01*
X035415Y017695D01*
X035373Y017638D01*
X035323Y017588D01*
X035266Y017546D01*
X035203Y017514D01*
X035135Y017492D01*
X035065Y017481D01*
X035060Y017481D01*
X035060Y017901D01*
X035060Y017864D02*
X035000Y017864D01*
X035000Y017735D02*
X035060Y017735D01*
X035060Y017607D02*
X035000Y017607D01*
X034718Y017607D02*
X034286Y017607D01*
X034262Y017583D02*
X034378Y017699D01*
X034440Y017849D01*
X034440Y018012D01*
X034378Y018163D01*
X034262Y018278D01*
X034112Y018341D01*
X033948Y018341D01*
X033798Y018278D01*
X033682Y018163D01*
X033620Y018012D01*
X033620Y017849D01*
X033682Y017699D01*
X033798Y017583D01*
X033948Y017521D01*
X034112Y017521D01*
X034262Y017583D01*
X034393Y017735D02*
X034625Y017735D01*
X034585Y017864D02*
X034440Y017864D01*
X034440Y017992D02*
X034584Y017992D01*
X034622Y018121D02*
X034395Y018121D01*
X034291Y018249D02*
X034712Y018249D01*
X035000Y018249D02*
X035060Y018249D01*
X035060Y018121D02*
X035000Y018121D01*
X035000Y018378D02*
X035060Y018378D01*
X035084Y018378D02*
X036690Y018378D01*
X036726Y018506D02*
X024235Y018506D01*
X024235Y018378D02*
X034976Y018378D01*
X035348Y018249D02*
X036654Y018249D01*
X036618Y018121D02*
X035438Y018121D01*
X035476Y017992D02*
X036604Y017992D01*
X036604Y017864D02*
X035475Y017864D01*
X035435Y017735D02*
X036604Y017735D01*
X036604Y017607D02*
X035342Y017607D01*
X036613Y017478D02*
X020755Y017478D01*
X020755Y017607D02*
X021774Y017607D01*
X021667Y017735D02*
X020755Y017735D01*
X020755Y017864D02*
X021620Y017864D01*
X021620Y017992D02*
X020755Y017992D01*
X020755Y018121D02*
X021665Y018121D01*
X021769Y018249D02*
X020737Y018249D01*
X020674Y018378D02*
X021825Y018378D01*
X021725Y018506D02*
X020510Y018506D01*
X020150Y018506D02*
X019655Y018506D01*
X019725Y018378D02*
X019986Y018378D01*
X019923Y018249D02*
X019755Y018249D01*
X019755Y018121D02*
X019905Y018121D01*
X019905Y017992D02*
X019755Y017992D01*
X019755Y017864D02*
X019905Y017864D01*
X019905Y017735D02*
X019755Y017735D01*
X019755Y017607D02*
X019905Y017607D01*
X019905Y017478D02*
X019731Y017478D01*
X019660Y017350D02*
X019941Y017350D01*
X020028Y017221D02*
X019476Y017221D01*
X019184Y017221D02*
X018632Y017221D01*
X018719Y017350D02*
X019000Y017350D01*
X018929Y017478D02*
X018755Y017478D01*
X018755Y017607D02*
X018905Y017607D01*
X018905Y017735D02*
X018755Y017735D01*
X018755Y017864D02*
X018905Y017864D01*
X018905Y017992D02*
X018755Y017992D01*
X018755Y018121D02*
X018905Y018121D01*
X018905Y018249D02*
X018737Y018249D01*
X018674Y018378D02*
X018935Y018378D01*
X019014Y018506D02*
X018635Y018506D01*
X018764Y018635D02*
X019204Y018635D01*
X019333Y018763D02*
X018892Y018763D01*
X018570Y019020D02*
X017709Y019020D01*
X017581Y018892D02*
X018441Y018892D01*
X018313Y018763D02*
X017535Y018763D01*
X017535Y018635D02*
X018184Y018635D01*
X018125Y018506D02*
X017646Y018506D01*
X017725Y018378D02*
X017986Y018378D01*
X017923Y018249D02*
X017755Y018249D01*
X017755Y018121D02*
X017905Y018121D01*
X017905Y017992D02*
X017755Y017992D01*
X017755Y017864D02*
X017905Y017864D01*
X017905Y017735D02*
X017755Y017735D01*
X017755Y017607D02*
X017905Y017607D01*
X017905Y017478D02*
X017731Y017478D01*
X017660Y017350D02*
X017941Y017350D01*
X018028Y017221D02*
X017476Y017221D01*
X017184Y017221D02*
X016632Y017221D01*
X016690Y017280D02*
X016571Y017161D01*
X016415Y017096D01*
X016245Y017096D01*
X016089Y017161D01*
X015970Y017280D01*
X015905Y017436D01*
X015905Y018205D01*
X015970Y018362D01*
X016089Y018481D01*
X016245Y018546D01*
X016415Y018546D01*
X016571Y018481D01*
X016690Y018362D01*
X016755Y018205D01*
X016755Y017436D01*
X016690Y017280D01*
X016719Y017350D02*
X017000Y017350D01*
X016929Y017478D02*
X016755Y017478D01*
X016755Y017607D02*
X016905Y017607D01*
X016905Y017735D02*
X016755Y017735D01*
X016755Y017864D02*
X016905Y017864D01*
X016905Y017992D02*
X016755Y017992D01*
X016755Y018121D02*
X016905Y018121D01*
X016905Y018249D02*
X016737Y018249D01*
X016674Y018378D02*
X016935Y018378D01*
X017014Y018506D02*
X016510Y018506D01*
X016150Y018506D02*
X015697Y018506D01*
X015685Y018524D02*
X015633Y018575D01*
X015574Y018619D01*
X015508Y018652D01*
X015439Y018674D01*
X015367Y018686D01*
X015365Y018686D01*
X015365Y017956D01*
X015295Y017956D01*
X015295Y018686D01*
X015293Y018686D01*
X015221Y018674D01*
X015152Y018652D01*
X015086Y018619D01*
X015027Y018575D01*
X014975Y018524D01*
X014932Y018465D01*
X014899Y018399D01*
X014876Y018330D01*
X014865Y018257D01*
X014865Y017956D01*
X015295Y017956D01*
X015295Y017886D01*
X014865Y017886D01*
X014865Y017584D01*
X014876Y017512D01*
X014899Y017442D01*
X014932Y017377D01*
X014975Y017318D01*
X015027Y017266D01*
X015086Y017223D01*
X015152Y017190D01*
X015221Y017167D01*
X015293Y017156D01*
X015295Y017156D01*
X015295Y017886D01*
X015365Y017886D01*
X015365Y017956D01*
X015795Y017956D01*
X015795Y018257D01*
X015784Y018330D01*
X015761Y018399D01*
X015728Y018465D01*
X015685Y018524D01*
X015768Y018378D02*
X015986Y018378D01*
X015923Y018249D02*
X015795Y018249D01*
X015795Y018121D02*
X015905Y018121D01*
X015905Y017992D02*
X015795Y017992D01*
X015795Y017886D02*
X015365Y017886D01*
X015365Y017156D01*
X015367Y017156D01*
X015439Y017167D01*
X015508Y017190D01*
X015574Y017223D01*
X015633Y017266D01*
X015685Y017318D01*
X015728Y017377D01*
X015761Y017442D01*
X015784Y017512D01*
X015795Y017584D01*
X015795Y017886D01*
X015795Y017864D02*
X015905Y017864D01*
X015905Y017735D02*
X015795Y017735D01*
X015795Y017607D02*
X015905Y017607D01*
X015905Y017478D02*
X015773Y017478D01*
X015708Y017350D02*
X015941Y017350D01*
X016028Y017221D02*
X015570Y017221D01*
X015365Y017221D02*
X015295Y017221D01*
X015295Y017350D02*
X015365Y017350D01*
X015365Y017478D02*
X015295Y017478D01*
X015295Y017607D02*
X015365Y017607D01*
X015365Y017735D02*
X015295Y017735D01*
X015295Y017864D02*
X015365Y017864D01*
X015365Y017992D02*
X015295Y017992D01*
X015295Y018121D02*
X015365Y018121D01*
X015365Y018249D02*
X015295Y018249D01*
X015295Y018378D02*
X015365Y018378D01*
X015365Y018506D02*
X015295Y018506D01*
X015295Y018635D02*
X015365Y018635D01*
X015542Y018635D02*
X017125Y018635D01*
X017125Y018763D02*
X000464Y018763D01*
X000440Y018635D02*
X015118Y018635D01*
X014963Y018506D02*
X014510Y018506D01*
X014571Y018481D02*
X014415Y018546D01*
X014245Y018546D01*
X014089Y018481D01*
X013970Y018362D01*
X013905Y018205D01*
X013905Y017436D01*
X013970Y017280D01*
X014089Y017161D01*
X014245Y017096D01*
X014415Y017096D01*
X014571Y017161D01*
X014690Y017280D01*
X014755Y017436D01*
X014755Y018205D01*
X014690Y018362D01*
X014571Y018481D01*
X014674Y018378D02*
X014892Y018378D01*
X014865Y018249D02*
X014737Y018249D01*
X014755Y018121D02*
X014865Y018121D01*
X014865Y017992D02*
X014755Y017992D01*
X014755Y017864D02*
X014865Y017864D01*
X014865Y017735D02*
X014755Y017735D01*
X014755Y017607D02*
X014865Y017607D01*
X014887Y017478D02*
X014755Y017478D01*
X014719Y017350D02*
X014952Y017350D01*
X015090Y017221D02*
X014632Y017221D01*
X014028Y017221D02*
X000430Y017221D01*
X000430Y017093D02*
X020125Y017093D01*
X020125Y016964D02*
X000430Y016964D01*
X000430Y016836D02*
X020125Y016836D01*
X020125Y016707D02*
X000430Y016707D01*
X000430Y016579D02*
X020125Y016579D01*
X020125Y016450D02*
X000430Y016450D01*
X000430Y016322D02*
X020125Y016322D01*
X020125Y016193D02*
X000430Y016193D01*
X000430Y016065D02*
X020125Y016065D01*
X020125Y015936D02*
X000430Y015936D01*
X000430Y015808D02*
X020125Y015808D01*
X020125Y015679D02*
X000430Y015679D01*
X000430Y015551D02*
X020125Y015551D01*
X020125Y015422D02*
X000430Y015422D01*
X000430Y015294D02*
X020125Y015294D01*
X020125Y015165D02*
X000430Y015165D01*
X000430Y015037D02*
X020125Y015037D01*
X020125Y014908D02*
X000430Y014908D01*
X000430Y014780D02*
X020125Y014780D01*
X020125Y014651D02*
X000430Y014651D01*
X000430Y014523D02*
X020125Y014523D01*
X020125Y014394D02*
X000430Y014394D01*
X000430Y014266D02*
X007255Y014266D01*
X007260Y014278D02*
X007220Y014183D01*
X007220Y014079D01*
X007260Y013984D01*
X007333Y013910D01*
X007428Y013871D01*
X007471Y013871D01*
X008601Y012741D01*
X017951Y012741D01*
X019751Y010941D01*
X023309Y010941D01*
X023420Y011052D01*
X023906Y011538D01*
X023948Y011521D01*
X024112Y011521D01*
X024262Y011583D01*
X024378Y011699D01*
X024440Y011849D01*
X024440Y012012D01*
X024378Y012163D01*
X024262Y012278D01*
X024112Y012341D01*
X023948Y012341D01*
X023798Y012278D01*
X023682Y012163D01*
X023620Y012012D01*
X023620Y011849D01*
X023638Y011807D01*
X023151Y011321D01*
X019909Y011321D01*
X018220Y013010D01*
X018109Y013121D01*
X008759Y013121D01*
X007740Y014140D01*
X007740Y014183D01*
X007700Y014278D01*
X007627Y014351D01*
X007532Y014391D01*
X007428Y014391D01*
X007333Y014351D01*
X007260Y014278D01*
X007220Y014137D02*
X000430Y014137D01*
X000430Y014009D02*
X007249Y014009D01*
X007405Y013880D02*
X000430Y013880D01*
X000430Y013752D02*
X007590Y013752D01*
X007719Y013623D02*
X000430Y013623D01*
X000430Y013495D02*
X007847Y013495D01*
X007976Y013366D02*
X000430Y013366D01*
X000430Y013238D02*
X008104Y013238D01*
X008233Y013109D02*
X000430Y013109D01*
X000430Y012981D02*
X008361Y012981D01*
X008490Y012852D02*
X000430Y012852D01*
X000430Y012724D02*
X017968Y012724D01*
X018097Y012595D02*
X000430Y012595D01*
X000430Y012467D02*
X018225Y012467D01*
X018354Y012338D02*
X014440Y012338D01*
X014490Y012210D02*
X018482Y012210D01*
X018611Y012081D02*
X014598Y012081D01*
X014727Y011953D02*
X018739Y011953D01*
X018868Y011824D02*
X014855Y011824D01*
X014984Y011696D02*
X018996Y011696D01*
X019125Y011567D02*
X015112Y011567D01*
X015241Y011439D02*
X019253Y011439D01*
X019382Y011310D02*
X015369Y011310D01*
X015498Y011182D02*
X019510Y011182D01*
X019639Y011053D02*
X015626Y011053D01*
X015755Y010925D02*
X023755Y010925D01*
X023884Y011053D02*
X023421Y011053D01*
X023550Y011182D02*
X024012Y011182D01*
X024141Y011310D02*
X023678Y011310D01*
X023807Y011439D02*
X024269Y011439D01*
X024224Y011567D02*
X024398Y011567D01*
X024375Y011696D02*
X024526Y011696D01*
X024430Y011824D02*
X024630Y011824D01*
X024620Y011953D02*
X024440Y011953D01*
X024411Y012081D02*
X024649Y012081D01*
X024729Y012210D02*
X024331Y012210D01*
X024118Y012338D02*
X024942Y012338D01*
X025118Y012338D02*
X025942Y012338D01*
X026118Y012338D02*
X026942Y012338D01*
X027118Y012338D02*
X027942Y012338D01*
X028118Y012338D02*
X028942Y012338D01*
X028948Y012341D02*
X028798Y012278D01*
X028682Y012163D01*
X028620Y012012D01*
X028620Y011849D01*
X028682Y011699D01*
X028798Y011583D01*
X028948Y011521D01*
X029112Y011521D01*
X029262Y011583D01*
X029378Y011699D01*
X029440Y011849D01*
X029440Y012012D01*
X029378Y012163D01*
X029262Y012278D01*
X029112Y012341D01*
X028948Y012341D01*
X029118Y012338D02*
X029942Y012338D01*
X029948Y012341D02*
X029798Y012278D01*
X029682Y012163D01*
X029620Y012012D01*
X029620Y011849D01*
X029682Y011699D01*
X029798Y011583D01*
X029948Y011521D01*
X030112Y011521D01*
X030262Y011583D01*
X030378Y011699D01*
X030440Y011849D01*
X030440Y012012D01*
X030378Y012163D01*
X030262Y012278D01*
X030112Y012341D01*
X029948Y012341D01*
X030118Y012338D02*
X030942Y012338D01*
X030948Y012521D02*
X031112Y012521D01*
X031262Y012583D01*
X031378Y012699D01*
X031440Y012849D01*
X031440Y013012D01*
X031378Y013163D01*
X031262Y013278D01*
X031112Y013341D01*
X030948Y013341D01*
X030798Y013278D01*
X030682Y013163D01*
X030620Y013012D01*
X030620Y012849D01*
X030682Y012699D01*
X030798Y012583D01*
X030948Y012521D01*
X030786Y012595D02*
X030274Y012595D01*
X030262Y012583D02*
X030378Y012699D01*
X030440Y012849D01*
X030440Y013012D01*
X030378Y013163D01*
X030262Y013278D01*
X030112Y013341D01*
X029948Y013341D01*
X029798Y013278D01*
X029682Y013163D01*
X029620Y013012D01*
X029620Y012849D01*
X029682Y012699D01*
X029798Y012583D01*
X029948Y012521D01*
X030112Y012521D01*
X030262Y012583D01*
X030388Y012724D02*
X030672Y012724D01*
X030620Y012852D02*
X030440Y012852D01*
X030440Y012981D02*
X030620Y012981D01*
X030660Y013109D02*
X030400Y013109D01*
X030303Y013238D02*
X030757Y013238D01*
X031303Y013238D02*
X031757Y013238D01*
X031798Y013278D02*
X031682Y013163D01*
X031620Y013012D01*
X031620Y012849D01*
X031682Y012699D01*
X031798Y012583D01*
X031948Y012521D01*
X032112Y012521D01*
X032262Y012583D01*
X032378Y012699D01*
X032440Y012849D01*
X032440Y013012D01*
X032378Y013163D01*
X032262Y013278D01*
X032112Y013341D01*
X031948Y013341D01*
X031798Y013278D01*
X031660Y013109D02*
X031400Y013109D01*
X031440Y012981D02*
X031620Y012981D01*
X031620Y012852D02*
X031440Y012852D01*
X031388Y012724D02*
X031672Y012724D01*
X031786Y012595D02*
X031274Y012595D01*
X030729Y012210D02*
X030331Y012210D01*
X030411Y012081D02*
X030649Y012081D01*
X030620Y011953D02*
X030440Y011953D01*
X030430Y011824D02*
X030630Y011824D01*
X030685Y011696D02*
X030375Y011696D01*
X030224Y011567D02*
X030825Y011567D01*
X030912Y011439D02*
X028220Y011439D01*
X028224Y011567D02*
X028836Y011567D01*
X028685Y011696D02*
X028375Y011696D01*
X028430Y011824D02*
X028630Y011824D01*
X028620Y011953D02*
X028440Y011953D01*
X028411Y012081D02*
X028649Y012081D01*
X028729Y012210D02*
X028331Y012210D01*
X027729Y012210D02*
X027331Y012210D01*
X026729Y012210D02*
X026331Y012210D01*
X026411Y012081D02*
X026649Y012081D01*
X026620Y011953D02*
X026440Y011953D01*
X026430Y011824D02*
X026630Y011824D01*
X026505Y011696D02*
X026375Y011696D01*
X026377Y011567D02*
X026224Y011567D01*
X026248Y011439D02*
X025828Y011439D01*
X025699Y011310D02*
X026120Y011310D01*
X025991Y011182D02*
X025571Y011182D01*
X025442Y011053D02*
X025863Y011053D01*
X025734Y010925D02*
X025314Y010925D01*
X025185Y010796D02*
X025606Y010796D01*
X025477Y010668D02*
X025057Y010668D01*
X024928Y010539D02*
X025349Y010539D01*
X025220Y010411D02*
X024800Y010411D01*
X024671Y010282D02*
X025092Y010282D01*
X024477Y010668D02*
X024036Y010668D01*
X024164Y010796D02*
X024606Y010796D01*
X024734Y010925D02*
X024293Y010925D01*
X024421Y011053D02*
X024863Y011053D01*
X024991Y011182D02*
X024550Y011182D01*
X024678Y011310D02*
X025120Y011310D01*
X025248Y011439D02*
X024807Y011439D01*
X025224Y011567D02*
X025377Y011567D01*
X025375Y011696D02*
X025505Y011696D01*
X025430Y011824D02*
X025630Y011824D01*
X025620Y011953D02*
X025440Y011953D01*
X025411Y012081D02*
X025649Y012081D01*
X025729Y012210D02*
X025331Y012210D01*
X025030Y011931D02*
X023830Y010731D01*
X015680Y010731D01*
X014230Y012181D01*
X013990Y012081D02*
X000430Y012081D01*
X000430Y011953D02*
X014101Y011953D01*
X014318Y011824D02*
X000430Y011824D01*
X000430Y011696D02*
X014446Y011696D01*
X014575Y011567D02*
X000430Y011567D01*
X000430Y011439D02*
X014703Y011439D01*
X014832Y011310D02*
X000430Y011310D01*
X000430Y011182D02*
X014960Y011182D01*
X015089Y011053D02*
X000430Y011053D01*
X000430Y010925D02*
X015217Y010925D01*
X015346Y010796D02*
X000430Y010796D01*
X000430Y010668D02*
X015474Y010668D01*
X013970Y012210D02*
X000430Y012210D01*
X000430Y012338D02*
X014020Y012338D01*
X018030Y012931D02*
X008680Y012931D01*
X007480Y014131D01*
X007742Y014137D02*
X020125Y014137D01*
X020125Y014009D02*
X007871Y014009D01*
X007999Y013880D02*
X020125Y013880D01*
X020125Y013752D02*
X008128Y013752D01*
X008256Y013623D02*
X020125Y013623D01*
X020125Y013495D02*
X008385Y013495D01*
X008513Y013366D02*
X020125Y013366D01*
X020125Y013238D02*
X008642Y013238D01*
X007705Y014266D02*
X020125Y014266D01*
X020535Y015037D02*
X021591Y015037D01*
X021644Y015165D02*
X020535Y015165D01*
X020535Y015294D02*
X021764Y015294D01*
X021876Y015551D02*
X020535Y015551D01*
X020535Y015679D02*
X021702Y015679D01*
X021682Y015699D02*
X021798Y015583D01*
X021948Y015521D01*
X022112Y015521D01*
X022262Y015583D01*
X022378Y015699D01*
X022440Y015849D01*
X022440Y016012D01*
X022378Y016163D01*
X022262Y016278D01*
X022112Y016341D01*
X021948Y016341D01*
X021798Y016278D01*
X021682Y016163D01*
X021620Y016012D01*
X021620Y015849D01*
X021682Y015699D01*
X021637Y015808D02*
X020535Y015808D01*
X020535Y015936D02*
X021620Y015936D01*
X021642Y016065D02*
X020535Y016065D01*
X020535Y016193D02*
X021713Y016193D01*
X021903Y016322D02*
X020535Y016322D01*
X020535Y016450D02*
X037088Y016450D01*
X036993Y016579D02*
X022252Y016579D01*
X022262Y016583D02*
X022112Y016521D01*
X021948Y016521D01*
X021798Y016583D01*
X021682Y016699D01*
X021620Y016849D01*
X021620Y017012D01*
X021682Y017163D01*
X021798Y017278D01*
X021948Y017341D01*
X022112Y017341D01*
X022262Y017278D01*
X022378Y017163D01*
X022440Y017012D01*
X022440Y016849D01*
X022378Y016699D01*
X022262Y016583D01*
X022381Y016707D02*
X036915Y016707D01*
X036836Y016836D02*
X022434Y016836D01*
X022440Y016964D02*
X036758Y016964D01*
X036721Y017093D02*
X022407Y017093D01*
X022319Y017221D02*
X036685Y017221D01*
X036649Y017350D02*
X020719Y017350D01*
X020632Y017221D02*
X021741Y017221D01*
X021653Y017093D02*
X020535Y017093D01*
X020535Y016964D02*
X021620Y016964D01*
X021626Y016836D02*
X020535Y016836D01*
X020535Y016707D02*
X021679Y016707D01*
X021808Y016579D02*
X020535Y016579D01*
X022157Y016322D02*
X037226Y016322D01*
X037363Y016193D02*
X022347Y016193D01*
X022418Y016065D02*
X037534Y016065D01*
X037782Y015936D02*
X022440Y015936D01*
X022423Y015808D02*
X038137Y015808D01*
X039179Y015808D02*
X040790Y015808D01*
X040790Y015936D02*
X039541Y015936D01*
X039752Y016065D02*
X040790Y016065D01*
X040790Y016193D02*
X039934Y016193D01*
X040059Y016282D02*
X040059Y016282D01*
X040092Y016322D02*
X040790Y016322D01*
X040790Y016450D02*
X040197Y016450D01*
X040301Y016579D02*
X040790Y016579D01*
X040790Y016707D02*
X040406Y016707D01*
X040466Y016836D02*
X040790Y016836D01*
X040790Y016964D02*
X040521Y016964D01*
X040577Y017093D02*
X040790Y017093D01*
X040790Y017221D02*
X040633Y017221D01*
X040638Y017234D02*
X040638Y017234D01*
X040654Y017350D02*
X040790Y017350D01*
X040790Y017478D02*
X040672Y017478D01*
X040690Y017607D02*
X040786Y017607D01*
X040778Y017735D02*
X040707Y017735D01*
X040705Y017864D02*
X040763Y017864D01*
X040739Y017992D02*
X040687Y017992D01*
X040670Y018121D02*
X040707Y018121D01*
X040667Y018249D02*
X040652Y018249D01*
X037816Y019663D02*
X001387Y019663D01*
X001044Y019534D02*
X017644Y019534D01*
X017515Y019406D02*
X000855Y019406D01*
X000724Y019277D02*
X017387Y019277D01*
X017258Y019149D02*
X000627Y019149D01*
X000555Y019020D02*
X017130Y019020D01*
X017125Y018892D02*
X000502Y018892D01*
X000431Y018506D02*
X014150Y018506D01*
X013986Y018378D02*
X000430Y018378D01*
X000430Y018249D02*
X013923Y018249D01*
X013905Y018121D02*
X000430Y018121D01*
X000430Y017992D02*
X013905Y017992D01*
X013905Y017864D02*
X000430Y017864D01*
X000430Y017735D02*
X013905Y017735D01*
X013905Y017607D02*
X000430Y017607D01*
X000430Y017478D02*
X013905Y017478D01*
X013941Y017350D02*
X000430Y017350D01*
X000430Y010539D02*
X022030Y010539D01*
X021853Y010411D02*
X000430Y010411D01*
X000430Y010282D02*
X021676Y010282D01*
X021499Y010154D02*
X000430Y010154D01*
X000430Y010025D02*
X021322Y010025D01*
X021145Y009897D02*
X000430Y009897D01*
X000430Y009768D02*
X020968Y009768D01*
X020791Y009640D02*
X000430Y009640D01*
X000430Y009511D02*
X020614Y009511D01*
X020436Y009383D02*
X000430Y009383D01*
X000430Y009254D02*
X020259Y009254D01*
X020082Y009126D02*
X000430Y009126D01*
X000430Y008997D02*
X019905Y008997D01*
X019728Y008869D02*
X000430Y008869D01*
X000430Y008740D02*
X019551Y008740D01*
X019374Y008612D02*
X000430Y008612D01*
X000430Y008483D02*
X019197Y008483D01*
X019019Y008355D02*
X000430Y008355D01*
X000430Y008226D02*
X018842Y008226D01*
X018665Y008098D02*
X000430Y008098D01*
X000430Y006684D02*
X013187Y006684D01*
X013315Y006556D02*
X000430Y006556D01*
X000430Y004371D02*
X001982Y004371D01*
X001576Y004243D02*
X000430Y004243D01*
X000430Y004114D02*
X001328Y004114D01*
X001142Y003986D02*
X000430Y003986D01*
X000430Y003857D02*
X001004Y003857D01*
X000867Y003729D02*
X000430Y003729D01*
X000430Y003600D02*
X000763Y003600D01*
X000685Y003472D02*
X000430Y003472D01*
X000430Y003343D02*
X000607Y003343D01*
X000529Y003215D02*
X000430Y003215D01*
X000430Y003086D02*
X000486Y003086D01*
X000450Y002958D02*
X000430Y002958D01*
X005365Y007455D02*
X012416Y007455D01*
X017769Y006941D02*
X018215Y006941D01*
X018388Y007070D02*
X017946Y007070D01*
X018124Y007198D02*
X018562Y007198D01*
X018735Y007327D02*
X018301Y007327D01*
X018478Y007455D02*
X018909Y007455D01*
X019082Y007584D02*
X018655Y007584D01*
X018832Y007712D02*
X019256Y007712D01*
X019429Y007841D02*
X019009Y007841D01*
X019186Y007969D02*
X019603Y007969D01*
X019776Y008098D02*
X019363Y008098D01*
X019540Y008226D02*
X019950Y008226D01*
X020123Y008355D02*
X019718Y008355D01*
X019895Y008483D02*
X020296Y008483D01*
X020470Y008612D02*
X020072Y008612D01*
X020249Y008740D02*
X020643Y008740D01*
X020817Y008869D02*
X020426Y008869D01*
X020603Y008997D02*
X020990Y008997D01*
X021164Y009126D02*
X020780Y009126D01*
X020957Y009254D02*
X021337Y009254D01*
X021511Y009383D02*
X021135Y009383D01*
X021312Y009511D02*
X021684Y009511D01*
X021858Y009640D02*
X021489Y009640D01*
X021666Y009768D02*
X022031Y009768D01*
X022205Y009897D02*
X021843Y009897D01*
X022020Y010025D02*
X022378Y010025D01*
X022552Y010154D02*
X022197Y010154D01*
X023230Y011131D02*
X019830Y011131D01*
X018030Y012931D01*
X018120Y013109D02*
X020125Y013109D01*
X020125Y012981D02*
X018249Y012981D01*
X018377Y012852D02*
X020125Y012852D01*
X020125Y012724D02*
X018506Y012724D01*
X018634Y012595D02*
X020125Y012595D01*
X020125Y012467D02*
X018763Y012467D01*
X018891Y012338D02*
X020253Y012338D01*
X020381Y012210D02*
X019020Y012210D01*
X019148Y012081D02*
X020510Y012081D01*
X020638Y011953D02*
X019277Y011953D01*
X019405Y011824D02*
X020767Y011824D01*
X020961Y012210D02*
X021729Y012210D01*
X021942Y012338D02*
X020832Y012338D01*
X021685Y011696D02*
X019534Y011696D01*
X019662Y011567D02*
X021836Y011567D01*
X022224Y011567D02*
X022836Y011567D01*
X022798Y011583D02*
X022948Y011521D01*
X023112Y011521D01*
X023262Y011583D01*
X023378Y011699D01*
X023440Y011849D01*
X023440Y012012D01*
X023378Y012163D01*
X023262Y012278D01*
X023112Y012341D01*
X022948Y012341D01*
X022798Y012278D01*
X022682Y012163D01*
X022620Y012012D01*
X022620Y011849D01*
X022682Y011699D01*
X022798Y011583D01*
X022685Y011696D02*
X022375Y011696D01*
X022430Y011824D02*
X022630Y011824D01*
X022620Y011953D02*
X022440Y011953D01*
X022411Y012081D02*
X022649Y012081D01*
X022729Y012210D02*
X022331Y012210D01*
X022118Y012338D02*
X022942Y012338D01*
X023118Y012338D02*
X023942Y012338D01*
X023729Y012210D02*
X023331Y012210D01*
X023411Y012081D02*
X023649Y012081D01*
X023620Y011953D02*
X023440Y011953D01*
X023430Y011824D02*
X023630Y011824D01*
X023526Y011696D02*
X023375Y011696D01*
X023398Y011567D02*
X023224Y011567D01*
X023269Y011439D02*
X019791Y011439D01*
X022274Y012595D02*
X029786Y012595D01*
X029672Y012724D02*
X022388Y012724D01*
X022440Y012852D02*
X029620Y012852D01*
X029620Y012981D02*
X022440Y012981D01*
X022400Y013109D02*
X029660Y013109D01*
X029757Y013238D02*
X022303Y013238D01*
X024030Y011931D02*
X023230Y011131D01*
X026341Y009383D02*
X032968Y009383D01*
X032840Y009511D02*
X026463Y009511D01*
X026586Y009640D02*
X032711Y009640D01*
X032583Y009768D02*
X026708Y009768D01*
X026831Y009897D02*
X032454Y009897D01*
X032326Y010025D02*
X026953Y010025D01*
X027076Y010154D02*
X032197Y010154D01*
X032069Y010282D02*
X027198Y010282D01*
X027321Y010411D02*
X031940Y010411D01*
X031812Y010539D02*
X027443Y010539D01*
X027565Y010668D02*
X031683Y010668D01*
X031555Y010796D02*
X027688Y010796D01*
X027810Y010925D02*
X031426Y010925D01*
X031298Y011053D02*
X027933Y011053D01*
X028055Y011182D02*
X031169Y011182D01*
X031041Y011310D02*
X028178Y011310D01*
X029224Y011567D02*
X029836Y011567D01*
X029685Y011696D02*
X029375Y011696D01*
X029430Y011824D02*
X029630Y011824D01*
X029620Y011953D02*
X029440Y011953D01*
X029411Y012081D02*
X029649Y012081D01*
X029729Y012210D02*
X029331Y012210D01*
X032224Y011567D02*
X032836Y011567D01*
X032685Y011696D02*
X032375Y011696D01*
X032430Y011824D02*
X032630Y011824D01*
X032620Y011953D02*
X032440Y011953D01*
X032411Y012081D02*
X032649Y012081D01*
X032729Y012210D02*
X032331Y012210D01*
X032274Y012595D02*
X033786Y012595D01*
X033672Y012724D02*
X032388Y012724D01*
X032440Y012852D02*
X033620Y012852D01*
X033620Y012981D02*
X032440Y012981D01*
X032400Y013109D02*
X033660Y013109D01*
X033757Y013238D02*
X032303Y013238D01*
X032230Y013731D02*
X034030Y011931D01*
X034060Y011953D02*
X034620Y011953D01*
X034630Y011824D02*
X034469Y011824D01*
X034469Y011825D02*
X034480Y011895D01*
X034480Y011901D01*
X034060Y011901D01*
X034060Y011481D01*
X034065Y011481D01*
X034135Y011492D01*
X034203Y011514D01*
X034266Y011546D01*
X034323Y011588D01*
X034373Y011638D01*
X034415Y011695D01*
X034447Y011758D01*
X034469Y011825D01*
X034415Y011696D02*
X034685Y011696D01*
X034836Y011567D02*
X034295Y011567D01*
X034060Y011567D02*
X034000Y011567D01*
X034000Y011696D02*
X034060Y011696D01*
X034060Y011824D02*
X034000Y011824D01*
X034000Y011953D02*
X033440Y011953D01*
X033430Y011824D02*
X033591Y011824D01*
X033645Y011696D02*
X033375Y011696D01*
X033224Y011567D02*
X033765Y011567D01*
X033606Y012081D02*
X033411Y012081D01*
X033331Y012210D02*
X033676Y012210D01*
X034000Y012210D02*
X034060Y012210D01*
X034060Y012081D02*
X034000Y012081D01*
X034384Y012210D02*
X034729Y012210D01*
X034649Y012081D02*
X034454Y012081D01*
X033097Y009254D02*
X026219Y009254D01*
X026096Y009126D02*
X033225Y009126D01*
X040790Y015422D02*
X020535Y015422D01*
X022184Y015551D02*
X040790Y015551D01*
X040790Y015679D02*
X022358Y015679D01*
X022286Y017607D02*
X022774Y017607D01*
X022667Y017735D02*
X022393Y017735D01*
X022440Y017864D02*
X022620Y017864D01*
X022620Y017992D02*
X022440Y017992D01*
X022395Y018121D02*
X022665Y018121D01*
X022769Y018249D02*
X022291Y018249D01*
X022235Y018378D02*
X022825Y018378D01*
X022825Y018506D02*
X022235Y018506D01*
X022176Y018635D02*
X022825Y018635D01*
X022768Y018763D02*
X022047Y018763D01*
X022962Y019149D02*
X023402Y019149D01*
X023531Y019020D02*
X023090Y019020D01*
X023219Y018892D02*
X023659Y018892D01*
X023788Y018763D02*
X023235Y018763D01*
X023235Y018635D02*
X023825Y018635D01*
X023825Y018506D02*
X023235Y018506D01*
X023235Y018378D02*
X023825Y018378D01*
X023769Y018249D02*
X023291Y018249D01*
X023395Y018121D02*
X023665Y018121D01*
X023620Y017992D02*
X023440Y017992D01*
X023440Y017864D02*
X023620Y017864D01*
X023667Y017735D02*
X023393Y017735D01*
X023286Y017607D02*
X023774Y017607D01*
X024286Y017607D02*
X024774Y017607D01*
X024798Y017583D02*
X024948Y017521D01*
X025112Y017521D01*
X025262Y017583D01*
X025378Y017699D01*
X025440Y017849D01*
X025440Y018012D01*
X025378Y018163D01*
X025262Y018278D01*
X025112Y018341D01*
X024948Y018341D01*
X024798Y018278D01*
X024682Y018163D01*
X024620Y018012D01*
X024620Y017849D01*
X024682Y017699D01*
X024798Y017583D01*
X024667Y017735D02*
X024393Y017735D01*
X024440Y017864D02*
X024620Y017864D01*
X024620Y017992D02*
X024440Y017992D01*
X024395Y018121D02*
X024665Y018121D01*
X024769Y018249D02*
X024291Y018249D01*
X024235Y018635D02*
X036769Y018635D01*
X036847Y018763D02*
X024235Y018763D01*
X024235Y018892D02*
X036925Y018892D01*
X037003Y019020D02*
X024110Y019020D01*
X023982Y019149D02*
X037107Y019149D01*
X037244Y019277D02*
X023853Y019277D01*
X023725Y019406D02*
X037382Y019406D01*
X037568Y019534D02*
X023596Y019534D01*
X025291Y018249D02*
X025769Y018249D01*
X025798Y018278D02*
X025682Y018163D01*
X025620Y018012D01*
X025620Y017849D01*
X025682Y017699D01*
X025798Y017583D01*
X025948Y017521D01*
X026112Y017521D01*
X026262Y017583D01*
X026378Y017699D01*
X026440Y017849D01*
X026440Y018012D01*
X026378Y018163D01*
X026262Y018278D01*
X026112Y018341D01*
X025948Y018341D01*
X025798Y018278D01*
X025665Y018121D02*
X025395Y018121D01*
X025440Y017992D02*
X025620Y017992D01*
X025620Y017864D02*
X025440Y017864D01*
X025393Y017735D02*
X025667Y017735D01*
X025774Y017607D02*
X025286Y017607D01*
X026286Y017607D02*
X026774Y017607D01*
X026798Y017583D02*
X026682Y017699D01*
X026620Y017849D01*
X026620Y018012D01*
X026682Y018163D01*
X026798Y018278D01*
X026948Y018341D01*
X027112Y018341D01*
X027262Y018278D01*
X027378Y018163D01*
X027440Y018012D01*
X027440Y017849D01*
X027378Y017699D01*
X027262Y017583D01*
X027112Y017521D01*
X026948Y017521D01*
X026798Y017583D01*
X026667Y017735D02*
X026393Y017735D01*
X026440Y017864D02*
X026620Y017864D01*
X026620Y017992D02*
X026440Y017992D01*
X026395Y018121D02*
X026665Y018121D01*
X026769Y018249D02*
X026291Y018249D01*
X027291Y018249D02*
X027769Y018249D01*
X027798Y018278D02*
X027682Y018163D01*
X027620Y018012D01*
X027620Y017849D01*
X027682Y017699D01*
X027798Y017583D01*
X027948Y017521D01*
X028112Y017521D01*
X028262Y017583D01*
X028378Y017699D01*
X028440Y017849D01*
X028440Y018012D01*
X028378Y018163D01*
X028262Y018278D01*
X028112Y018341D01*
X027948Y018341D01*
X027798Y018278D01*
X027665Y018121D02*
X027395Y018121D01*
X027440Y017992D02*
X027620Y017992D01*
X027620Y017864D02*
X027440Y017864D01*
X027393Y017735D02*
X027667Y017735D01*
X027774Y017607D02*
X027286Y017607D01*
X028286Y017607D02*
X028774Y017607D01*
X028798Y017583D02*
X028948Y017521D01*
X029112Y017521D01*
X029262Y017583D01*
X029378Y017699D01*
X029440Y017849D01*
X029440Y018012D01*
X029378Y018163D01*
X029262Y018278D01*
X029112Y018341D01*
X028948Y018341D01*
X028798Y018278D01*
X028682Y018163D01*
X028620Y018012D01*
X028620Y017849D01*
X028682Y017699D01*
X028798Y017583D01*
X028667Y017735D02*
X028393Y017735D01*
X028440Y017864D02*
X028620Y017864D01*
X028620Y017992D02*
X028440Y017992D01*
X028395Y018121D02*
X028665Y018121D01*
X028769Y018249D02*
X028291Y018249D01*
X029291Y018249D02*
X029769Y018249D01*
X029798Y018278D02*
X029682Y018163D01*
X029620Y018012D01*
X029620Y017849D01*
X029682Y017699D01*
X029798Y017583D01*
X029948Y017521D01*
X030112Y017521D01*
X030262Y017583D01*
X030378Y017699D01*
X030440Y017849D01*
X030440Y018012D01*
X030378Y018163D01*
X030262Y018278D01*
X030112Y018341D01*
X029948Y018341D01*
X029798Y018278D01*
X029665Y018121D02*
X029395Y018121D01*
X029440Y017992D02*
X029620Y017992D01*
X029620Y017864D02*
X029440Y017864D01*
X029393Y017735D02*
X029667Y017735D01*
X029774Y017607D02*
X029286Y017607D01*
X030286Y017607D02*
X030774Y017607D01*
X030798Y017583D02*
X030948Y017521D01*
X031112Y017521D01*
X031262Y017583D01*
X031378Y017699D01*
X031440Y017849D01*
X031440Y018012D01*
X031378Y018163D01*
X031262Y018278D01*
X031112Y018341D01*
X030948Y018341D01*
X030798Y018278D01*
X030682Y018163D01*
X030620Y018012D01*
X030620Y017849D01*
X030682Y017699D01*
X030798Y017583D01*
X030667Y017735D02*
X030393Y017735D01*
X030440Y017864D02*
X030620Y017864D01*
X030620Y017992D02*
X030440Y017992D01*
X030395Y018121D02*
X030665Y018121D01*
X030769Y018249D02*
X030291Y018249D01*
X031291Y018249D02*
X031769Y018249D01*
X031798Y018278D02*
X031682Y018163D01*
X031620Y018012D01*
X031620Y017849D01*
X031682Y017699D01*
X031798Y017583D01*
X031948Y017521D01*
X032112Y017521D01*
X032262Y017583D01*
X032378Y017699D01*
X032440Y017849D01*
X032440Y018012D01*
X032378Y018163D01*
X032262Y018278D01*
X032112Y018341D01*
X031948Y018341D01*
X031798Y018278D01*
X031665Y018121D02*
X031395Y018121D01*
X031440Y017992D02*
X031620Y017992D01*
X031620Y017864D02*
X031440Y017864D01*
X031393Y017735D02*
X031667Y017735D01*
X031774Y017607D02*
X031286Y017607D01*
X032286Y017607D02*
X032774Y017607D01*
X032798Y017583D02*
X032948Y017521D01*
X033112Y017521D01*
X033262Y017583D01*
X033378Y017699D01*
X033440Y017849D01*
X033440Y018012D01*
X033378Y018163D01*
X033262Y018278D01*
X033112Y018341D01*
X032948Y018341D01*
X032798Y018278D01*
X032682Y018163D01*
X032620Y018012D01*
X032620Y017849D01*
X032682Y017699D01*
X032798Y017583D01*
X032667Y017735D02*
X032393Y017735D01*
X032440Y017864D02*
X032620Y017864D01*
X032620Y017992D02*
X032440Y017992D01*
X032395Y018121D02*
X032665Y018121D01*
X032769Y018249D02*
X032291Y018249D01*
X033291Y018249D02*
X033769Y018249D01*
X033665Y018121D02*
X033395Y018121D01*
X033440Y017992D02*
X033620Y017992D01*
X033620Y017864D02*
X033440Y017864D01*
X033393Y017735D02*
X033667Y017735D01*
X033774Y017607D02*
X033286Y017607D01*
X018698Y019149D02*
X017838Y019149D01*
D15*
X017810Y019411D02*
X017330Y018931D01*
X017330Y017921D01*
X018330Y017821D02*
X018330Y018491D01*
X018910Y019071D01*
X022750Y019071D01*
X023030Y018791D01*
X023030Y017931D01*
X022030Y017931D02*
X022030Y018491D01*
X021790Y018731D01*
X019590Y018731D01*
X019330Y018471D01*
X019330Y017921D01*
X020330Y017821D02*
X020330Y012551D01*
X020950Y011931D01*
X022030Y011931D01*
X022230Y010431D02*
X024530Y010431D01*
X026030Y011931D01*
X027030Y011931D02*
X025130Y010031D01*
X022730Y010031D01*
X017330Y006031D01*
X011980Y006031D01*
X013430Y006731D02*
X017130Y006731D01*
X022230Y010431D01*
X013430Y006731D02*
X012480Y007681D01*
X005230Y007681D01*
X024030Y017931D02*
X024030Y018811D01*
X023430Y019411D01*
X017810Y019411D01*
X031030Y011931D02*
X031030Y011611D01*
X033910Y008731D01*
M02*
