G75*
%MOIN*%
%OFA0B0*%
%FSLAX24Y24*%
%IPPOS*%
%LPD*%
%AMOC8*
5,1,8,0,0,1.08239X$1,22.5*
%
%ADD10C,0.0570*%
%ADD11C,0.0240*%
%ADD12C,0.0270*%
%ADD13C,0.0280*%
%ADD14C,0.0600*%
%ADD15C,0.0130*%
%ADD16C,0.0160*%
D10*
X022030Y011931D03*
X023030Y011931D03*
X024030Y011931D03*
X025030Y011931D03*
X026030Y011931D03*
X027030Y011931D03*
X028030Y011931D03*
X029030Y011931D03*
X030030Y011931D03*
X031030Y011931D03*
X032030Y011931D03*
X033030Y011931D03*
X034030Y011931D03*
X035030Y011931D03*
X034030Y012931D03*
X032030Y012931D03*
X031030Y012931D03*
X030030Y012931D03*
X022030Y012931D03*
X022030Y013931D03*
X022030Y014931D03*
X022030Y015931D03*
X022030Y016931D03*
X022030Y017931D03*
X023030Y017931D03*
X024030Y017931D03*
X025030Y017931D03*
X026030Y017931D03*
X027030Y017931D03*
X028030Y017931D03*
X029030Y017931D03*
X030030Y017931D03*
X031030Y017931D03*
X032030Y017931D03*
X033030Y017931D03*
X034030Y017931D03*
X035030Y017931D03*
D11*
X034175Y009015D02*
X034436Y008967D01*
X034690Y008888D01*
X034932Y008779D01*
X035160Y008641D01*
X035369Y008478D01*
X035557Y008290D01*
X035721Y008081D01*
X035858Y007853D01*
X035967Y007611D01*
X036046Y007357D01*
X036094Y007096D01*
X036110Y006831D01*
X036110Y006731D01*
X036095Y006478D01*
X036049Y006228D01*
X035974Y005986D01*
X035869Y005755D01*
X035738Y005538D01*
X035582Y005338D01*
X035403Y005159D01*
X035203Y005003D01*
X034986Y004871D01*
X034755Y004767D01*
X034513Y004692D01*
X034263Y004646D01*
X034010Y004631D01*
X033910Y004631D01*
X033645Y004647D01*
X033384Y004695D01*
X033130Y004774D01*
X032888Y004883D01*
X032660Y005020D01*
X032451Y005184D01*
X032263Y005372D01*
X032099Y005581D01*
X031962Y005808D01*
X031853Y006051D01*
X031774Y006304D01*
X031726Y006566D01*
X031710Y006831D01*
X031726Y007096D01*
X031774Y007357D01*
X031853Y007611D01*
X031962Y007853D01*
X032099Y008081D01*
X032263Y008290D01*
X032451Y008478D01*
X032660Y008641D01*
X032888Y008779D01*
X033130Y008888D01*
X033384Y008967D01*
X033645Y009015D01*
X033910Y009031D01*
X034175Y009015D01*
X034474Y008955D02*
X033346Y008955D01*
X032785Y008717D02*
X035035Y008717D01*
X035368Y008478D02*
X032452Y008478D01*
X032224Y008240D02*
X035596Y008240D01*
X035768Y008001D02*
X032052Y008001D01*
X031921Y007763D02*
X035899Y007763D01*
X035994Y007524D02*
X031826Y007524D01*
X031761Y007286D02*
X036059Y007286D01*
X036097Y007047D02*
X031723Y007047D01*
X031711Y006809D02*
X036110Y006809D01*
X036100Y006570D02*
X031726Y006570D01*
X031769Y006332D02*
X036068Y006332D01*
X036007Y006093D02*
X031840Y006093D01*
X031941Y005855D02*
X035914Y005855D01*
X035786Y005616D02*
X032078Y005616D01*
X032259Y005378D02*
X035613Y005378D01*
X035378Y005139D02*
X032508Y005139D01*
X032858Y004901D02*
X035035Y004901D01*
X034351Y004662D02*
X033560Y004662D01*
X026589Y006128D02*
X026514Y005886D01*
X026409Y005655D01*
X026278Y005438D01*
X026122Y005238D01*
X025943Y005059D01*
X025743Y004903D01*
X025526Y004771D01*
X025295Y004667D01*
X025053Y004592D01*
X024803Y004546D01*
X024550Y004531D01*
X024450Y004531D01*
X024185Y004547D01*
X023924Y004595D01*
X023670Y004674D01*
X023428Y004783D01*
X023200Y004920D01*
X022991Y005084D01*
X022803Y005272D01*
X022639Y005481D01*
X022502Y005708D01*
X022393Y005951D01*
X022314Y006204D01*
X022266Y006466D01*
X022250Y006731D01*
X022266Y006996D01*
X022314Y007257D01*
X022393Y007511D01*
X022502Y007753D01*
X022639Y007981D01*
X022803Y008190D01*
X022991Y008378D01*
X023200Y008541D01*
X023428Y008679D01*
X023670Y008788D01*
X023924Y008867D01*
X024185Y008915D01*
X024450Y008931D01*
X024715Y008915D01*
X024976Y008867D01*
X025230Y008788D01*
X025472Y008679D01*
X025700Y008541D01*
X025909Y008378D01*
X026097Y008190D01*
X026261Y007981D01*
X026398Y007753D01*
X026507Y007511D01*
X026586Y007257D01*
X026634Y006996D01*
X026650Y006731D01*
X026650Y006631D01*
X026635Y006378D01*
X026589Y006128D01*
X026578Y006093D02*
X022349Y006093D01*
X022291Y006332D02*
X026626Y006332D01*
X026646Y006570D02*
X022260Y006570D01*
X022255Y006809D02*
X026645Y006809D01*
X026625Y007047D02*
X022275Y007047D01*
X022323Y007286D02*
X026577Y007286D01*
X026501Y007524D02*
X022399Y007524D01*
X022508Y007763D02*
X026392Y007763D01*
X026244Y008001D02*
X022656Y008001D01*
X022853Y008240D02*
X026047Y008240D01*
X025780Y008478D02*
X023120Y008478D01*
X023512Y008717D02*
X025388Y008717D01*
X026499Y005855D02*
X022436Y005855D01*
X022558Y005616D02*
X026386Y005616D01*
X026231Y005378D02*
X022720Y005378D01*
X022936Y005139D02*
X026023Y005139D01*
X025740Y004901D02*
X023232Y004901D01*
X023707Y004662D02*
X025279Y004662D01*
X016214Y008750D02*
X015230Y007569D01*
X013852Y007569D01*
X014935Y008750D01*
X013852Y009931D01*
X014935Y011112D01*
X013852Y012293D01*
X015230Y012293D01*
X016214Y011112D01*
X015132Y009931D01*
X016214Y008750D01*
X016187Y008717D02*
X014905Y008717D01*
X014746Y008955D02*
X016026Y008955D01*
X015807Y009194D02*
X014528Y009194D01*
X014309Y009432D02*
X015589Y009432D01*
X015370Y009671D02*
X014090Y009671D01*
X013872Y009909D02*
X015151Y009909D01*
X015331Y010148D02*
X014051Y010148D01*
X014270Y010386D02*
X015549Y010386D01*
X015768Y010625D02*
X014488Y010625D01*
X014707Y010863D02*
X015986Y010863D01*
X016205Y011102D02*
X014925Y011102D01*
X014725Y011340D02*
X016024Y011340D01*
X015825Y011579D02*
X014507Y011579D01*
X014288Y011817D02*
X015626Y011817D01*
X015428Y012056D02*
X014069Y012056D01*
X012092Y013753D02*
X010911Y014836D01*
X009730Y013753D01*
X008549Y014836D01*
X007368Y013753D01*
X007368Y015131D01*
X008549Y016115D01*
X009730Y015032D01*
X010911Y016115D01*
X012092Y015131D01*
X012092Y013753D01*
X012092Y013964D02*
X011862Y013964D01*
X012092Y014202D02*
X011602Y014202D01*
X011342Y014441D02*
X012092Y014441D01*
X012092Y014679D02*
X011082Y014679D01*
X010741Y014679D02*
X008719Y014679D01*
X008378Y014679D02*
X007368Y014679D01*
X007368Y014441D02*
X008118Y014441D01*
X007858Y014202D02*
X007368Y014202D01*
X007368Y013964D02*
X007598Y013964D01*
X008979Y014441D02*
X010481Y014441D01*
X010220Y014202D02*
X009240Y014202D01*
X009500Y013964D02*
X009960Y013964D01*
X012092Y014918D02*
X007368Y014918D01*
X007398Y015156D02*
X009595Y015156D01*
X009865Y015156D02*
X012062Y015156D01*
X011775Y015395D02*
X010125Y015395D01*
X010386Y015633D02*
X011489Y015633D01*
X011203Y015872D02*
X010646Y015872D01*
X010906Y016110D02*
X010917Y016110D01*
X009335Y015395D02*
X007685Y015395D01*
X007971Y015633D02*
X009074Y015633D01*
X008814Y015872D02*
X008257Y015872D01*
X008543Y016110D02*
X008554Y016110D01*
X005608Y012293D02*
X004230Y012293D01*
X003246Y011112D01*
X004328Y009931D01*
X003246Y008750D01*
X004230Y007569D01*
X005608Y007569D01*
X004525Y008750D01*
X005608Y009931D01*
X004525Y011112D01*
X005608Y012293D01*
X005391Y012056D02*
X004032Y012056D01*
X003834Y011817D02*
X005172Y011817D01*
X004953Y011579D02*
X003635Y011579D01*
X003436Y011340D02*
X004735Y011340D01*
X004535Y011102D02*
X003255Y011102D01*
X003474Y010863D02*
X004753Y010863D01*
X004972Y010625D02*
X003692Y010625D01*
X003911Y010386D02*
X005190Y010386D01*
X005409Y010148D02*
X004129Y010148D01*
X004309Y009909D02*
X005588Y009909D01*
X005370Y009671D02*
X004090Y009671D01*
X003871Y009432D02*
X005151Y009432D01*
X004932Y009194D02*
X003653Y009194D01*
X003434Y008955D02*
X004714Y008955D01*
X004555Y008717D02*
X003273Y008717D01*
X003472Y008478D02*
X004774Y008478D01*
X004993Y008240D02*
X003671Y008240D01*
X003869Y008001D02*
X005211Y008001D01*
X005430Y007763D02*
X004068Y007763D01*
X007368Y006409D02*
X008549Y005326D01*
X009730Y006409D01*
X010911Y005326D01*
X012092Y006409D01*
X012092Y005031D01*
X010911Y004047D01*
X009730Y005129D01*
X008549Y004047D01*
X007368Y005031D01*
X007368Y006409D01*
X007368Y006332D02*
X007452Y006332D01*
X007368Y006093D02*
X007712Y006093D01*
X007972Y005855D02*
X007368Y005855D01*
X007368Y005616D02*
X008232Y005616D01*
X008492Y005378D02*
X007368Y005378D01*
X007368Y005139D02*
X012092Y005139D01*
X012092Y005378D02*
X010968Y005378D01*
X010855Y005378D02*
X008605Y005378D01*
X008866Y005616D02*
X010594Y005616D01*
X010334Y005855D02*
X009126Y005855D01*
X009386Y006093D02*
X010074Y006093D01*
X009814Y006332D02*
X009646Y006332D01*
X011228Y005616D02*
X012092Y005616D01*
X012092Y005855D02*
X011488Y005855D01*
X011748Y006093D02*
X012092Y006093D01*
X012092Y006332D02*
X012008Y006332D01*
X011936Y004901D02*
X009979Y004901D01*
X010239Y004662D02*
X011650Y004662D01*
X011364Y004424D02*
X010500Y004424D01*
X010760Y004185D02*
X011078Y004185D01*
X009481Y004901D02*
X007524Y004901D01*
X007810Y004662D02*
X009221Y004662D01*
X008960Y004424D02*
X008096Y004424D01*
X008382Y004185D02*
X008700Y004185D01*
X014030Y007763D02*
X015392Y007763D01*
X015591Y008001D02*
X014249Y008001D01*
X014467Y008240D02*
X015789Y008240D01*
X015988Y008478D02*
X014686Y008478D01*
D12*
X011980Y006031D03*
X005230Y007681D03*
X014230Y012181D03*
X007480Y014131D03*
D13*
X024450Y008631D03*
X033910Y008731D03*
D14*
X020330Y017521D02*
X020330Y018121D01*
X019330Y018221D02*
X019330Y017621D01*
X018330Y017521D02*
X018330Y018121D01*
X017330Y018221D02*
X017330Y017621D01*
X016330Y017521D02*
X016330Y018121D01*
X015330Y018221D02*
X015330Y017621D01*
X014330Y017521D02*
X014330Y018121D01*
D15*
X004207Y000683D02*
X004137Y000626D01*
X039590Y000626D01*
X039721Y000634D01*
X039975Y000702D01*
X040202Y000833D01*
X040387Y001019D01*
X040518Y001246D01*
X040586Y001500D01*
X040595Y001631D01*
X040595Y016307D01*
X040447Y016103D01*
X040447Y016103D01*
X039971Y015710D01*
X039971Y015710D01*
X039412Y015446D01*
X039412Y015446D01*
X038805Y015331D01*
X038805Y015331D01*
X038188Y015369D01*
X038188Y015369D01*
X037600Y015560D01*
X037600Y015560D01*
X037079Y015891D01*
X037079Y015891D01*
X036656Y016342D01*
X036656Y016342D01*
X036655Y016343D01*
X036655Y012902D01*
X036572Y012702D01*
X035780Y011910D01*
X035780Y011782D01*
X035666Y011506D01*
X035455Y011295D01*
X035179Y011181D01*
X034881Y011181D01*
X034605Y011295D01*
X034394Y011506D01*
X034349Y011614D01*
X034323Y011588D01*
X034266Y011546D01*
X034203Y011514D01*
X034135Y011492D01*
X034065Y011481D01*
X034060Y011481D01*
X034060Y011901D01*
X034000Y011901D01*
X034000Y011481D01*
X033995Y011481D01*
X033925Y011492D01*
X033857Y011514D01*
X033794Y011546D01*
X033737Y011588D01*
X033711Y011614D01*
X033666Y011506D01*
X033455Y011295D01*
X033179Y011181D01*
X032881Y011181D01*
X032605Y011295D01*
X032530Y011370D01*
X032455Y011295D01*
X032179Y011181D01*
X031881Y011181D01*
X031605Y011295D01*
X031530Y011370D01*
X031455Y011295D01*
X031179Y011181D01*
X030881Y011181D01*
X030605Y011295D01*
X030530Y011370D01*
X030455Y011295D01*
X030179Y011181D01*
X029881Y011181D01*
X029605Y011295D01*
X029530Y011370D01*
X029455Y011295D01*
X029179Y011181D01*
X028881Y011181D01*
X028605Y011295D01*
X028530Y011370D01*
X028455Y011295D01*
X028179Y011181D01*
X027881Y011181D01*
X027605Y011295D01*
X027530Y011370D01*
X027455Y011295D01*
X027179Y011181D01*
X026881Y011181D01*
X026605Y011295D01*
X026530Y011370D01*
X026455Y011295D01*
X026179Y011181D01*
X025881Y011181D01*
X025605Y011295D01*
X025530Y011370D01*
X025455Y011295D01*
X025179Y011181D01*
X024881Y011181D01*
X024605Y011295D01*
X024530Y011370D01*
X024455Y011295D01*
X024179Y011181D01*
X023881Y011181D01*
X023605Y011295D01*
X023530Y011370D01*
X023455Y011295D01*
X023179Y011181D01*
X022881Y011181D01*
X022605Y011295D01*
X022530Y011370D01*
X022455Y011295D01*
X022179Y011181D01*
X021881Y011181D01*
X021605Y011295D01*
X021394Y011506D01*
X021280Y011782D01*
X021280Y012080D01*
X021394Y012356D01*
X021469Y012431D01*
X021394Y012506D01*
X021280Y012782D01*
X021280Y013080D01*
X021394Y013356D01*
X021469Y013431D01*
X021394Y013506D01*
X021280Y013782D01*
X021280Y014080D01*
X021394Y014356D01*
X021605Y014567D01*
X021713Y014611D01*
X021687Y014638D01*
X021645Y014695D01*
X021613Y014758D01*
X021591Y014825D01*
X021580Y014895D01*
X021580Y014901D01*
X022000Y014901D01*
X022000Y014961D01*
X021580Y014961D01*
X021580Y014966D01*
X021591Y015036D01*
X021613Y015104D01*
X021645Y015167D01*
X021687Y015224D01*
X021713Y015250D01*
X021605Y015295D01*
X021394Y015506D01*
X021280Y015782D01*
X021280Y016080D01*
X021394Y016356D01*
X021469Y016431D01*
X021394Y016506D01*
X021280Y016782D01*
X021280Y016953D01*
X021241Y016969D01*
X021021Y017189D01*
X020979Y017087D01*
X020763Y016872D01*
X020482Y016756D01*
X020178Y016756D01*
X019897Y016872D01*
X019780Y016989D01*
X019763Y016972D01*
X019482Y016856D01*
X019178Y016856D01*
X018897Y016972D01*
X018880Y016989D01*
X018763Y016872D01*
X018482Y016756D01*
X018178Y016756D01*
X017897Y016872D01*
X017780Y016989D01*
X017763Y016972D01*
X017482Y016856D01*
X017178Y016856D01*
X016897Y016972D01*
X016880Y016989D01*
X016763Y016872D01*
X016482Y016756D01*
X016178Y016756D01*
X015897Y016872D01*
X015681Y017087D01*
X015613Y017252D01*
X015574Y017223D01*
X015508Y017190D01*
X015439Y017167D01*
X015367Y017156D01*
X015365Y017156D01*
X015365Y017886D01*
X015295Y017886D01*
X015295Y017156D01*
X015293Y017156D01*
X015221Y017167D01*
X015152Y017190D01*
X015086Y017223D01*
X015047Y017252D01*
X014979Y017087D01*
X014763Y016872D01*
X014482Y016756D01*
X014178Y016756D01*
X013897Y016872D01*
X013681Y017087D01*
X013565Y017369D01*
X013565Y018273D01*
X013681Y018554D01*
X013897Y018769D01*
X014172Y018883D01*
X014924Y019636D01*
X001630Y019636D01*
X001499Y019627D01*
X001245Y019559D01*
X001018Y019428D01*
X000833Y019243D01*
X000833Y019243D01*
X000701Y019015D01*
X000634Y018762D01*
X000625Y018631D01*
X000625Y004042D01*
X000839Y004270D01*
X000839Y004270D01*
X000839Y004270D01*
X001360Y004601D01*
X001360Y004601D01*
X001948Y004792D01*
X001948Y004792D01*
X002565Y004831D01*
X002565Y004831D01*
X003172Y004715D01*
X003172Y004715D01*
X003731Y004452D01*
X003731Y004452D01*
X004207Y004058D01*
X004207Y004058D01*
X004570Y003558D01*
X004570Y003558D01*
X004798Y002984D01*
X004798Y002984D01*
X004875Y002371D01*
X004875Y002371D01*
X004798Y001758D01*
X004570Y001183D01*
X004207Y000683D01*
X004207Y000683D01*
X004160Y000645D02*
X039760Y000645D01*
X040098Y000773D02*
X004272Y000773D01*
X004366Y000902D02*
X040270Y000902D01*
X040394Y001030D02*
X004459Y001030D01*
X004552Y001159D02*
X040468Y001159D01*
X040530Y001287D02*
X004611Y001287D01*
X004662Y001416D02*
X040564Y001416D01*
X040589Y001544D02*
X004713Y001544D01*
X004764Y001673D02*
X040595Y001673D01*
X040595Y001801D02*
X004803Y001801D01*
X004819Y001930D02*
X040595Y001930D01*
X040595Y002058D02*
X004836Y002058D01*
X004852Y002187D02*
X040595Y002187D01*
X040595Y002315D02*
X004868Y002315D01*
X004866Y002444D02*
X040595Y002444D01*
X040595Y002572D02*
X004850Y002572D01*
X004833Y002701D02*
X040595Y002701D01*
X040595Y002829D02*
X004817Y002829D01*
X004801Y002958D02*
X040595Y002958D01*
X040595Y003086D02*
X004757Y003086D01*
X004706Y003215D02*
X008214Y003215D01*
X008200Y003222D02*
X008238Y003203D01*
X008270Y003175D01*
X008328Y003155D01*
X008381Y003127D01*
X008424Y003123D01*
X008465Y003110D01*
X008525Y003114D01*
X008585Y003109D01*
X008626Y003121D01*
X008669Y003124D01*
X008723Y003152D01*
X008781Y003170D01*
X008814Y003197D01*
X008852Y003216D01*
X008892Y003262D01*
X009730Y003960D01*
X010568Y003262D01*
X010608Y003216D01*
X010646Y003197D01*
X010679Y003170D01*
X010737Y003152D01*
X010791Y003124D01*
X010834Y003121D01*
X010875Y003109D01*
X010935Y003114D01*
X010995Y003110D01*
X011036Y003123D01*
X011079Y003127D01*
X011132Y003155D01*
X011190Y003175D01*
X011222Y003203D01*
X011260Y003222D01*
X011299Y003269D01*
X012704Y004487D01*
X012722Y004494D01*
X012781Y004554D01*
X012845Y004609D01*
X012853Y004626D01*
X012867Y004639D01*
X012899Y004717D01*
X012936Y004792D01*
X012938Y004811D01*
X012945Y004828D01*
X012945Y004912D01*
X012951Y004996D01*
X012945Y005014D01*
X021693Y005014D01*
X021733Y004948D02*
X021742Y004917D01*
X021786Y004861D01*
X021823Y004800D01*
X021848Y004781D01*
X021955Y004645D01*
X021967Y004615D01*
X022018Y004565D01*
X022062Y004508D01*
X022090Y004493D01*
X022212Y004370D01*
X022228Y004342D01*
X022284Y004298D01*
X022334Y004248D01*
X022364Y004236D01*
X022500Y004129D01*
X022519Y004103D01*
X022580Y004066D01*
X022636Y004022D01*
X022667Y004014D01*
X022815Y003924D01*
X022837Y003901D01*
X022902Y003872D01*
X022963Y003835D01*
X022995Y003830D01*
X023152Y003759D01*
X023177Y003739D01*
X023245Y003717D01*
X023310Y003688D01*
X023342Y003687D01*
X023507Y003636D01*
X023534Y003618D01*
X023604Y003605D01*
X023672Y003584D01*
X023704Y003587D01*
X023874Y003556D01*
X023903Y003542D01*
X023974Y003538D01*
X024045Y003525D01*
X024076Y003531D01*
X024233Y003522D01*
X024248Y003516D01*
X024334Y003516D01*
X024421Y003511D01*
X024436Y003516D01*
X024564Y003516D01*
X024579Y003511D01*
X024666Y003516D01*
X024752Y003516D01*
X024767Y003522D01*
X024912Y003531D01*
X024943Y003524D01*
X025014Y003537D01*
X025085Y003541D01*
X025113Y003555D01*
X025272Y003584D01*
X025304Y003581D01*
X025372Y003603D01*
X025442Y003615D01*
X025469Y003633D01*
X025622Y003681D01*
X025654Y003682D01*
X025719Y003711D01*
X025788Y003732D01*
X025812Y003753D01*
X025959Y003819D01*
X025991Y003823D01*
X026052Y003860D01*
X026117Y003890D01*
X026139Y003913D01*
X026276Y003996D01*
X026307Y004005D01*
X026363Y004049D01*
X026424Y004086D01*
X026443Y004111D01*
X026570Y004211D01*
X026600Y004223D01*
X026650Y004273D01*
X026706Y004317D01*
X026722Y004345D01*
X026836Y004459D01*
X026863Y004475D01*
X026907Y004531D01*
X026958Y004581D01*
X026970Y004611D01*
X027069Y004738D01*
X027095Y004757D01*
X031405Y004757D01*
X031415Y004745D02*
X031427Y004715D01*
X031478Y004665D01*
X031522Y004608D01*
X031550Y004593D01*
X031672Y004470D01*
X031688Y004442D01*
X031744Y004398D01*
X031794Y004348D01*
X031824Y004336D01*
X031960Y004229D01*
X031979Y004203D01*
X032040Y004166D01*
X032096Y004122D01*
X032127Y004114D01*
X032275Y004024D01*
X032297Y004001D01*
X032362Y003972D01*
X032423Y003935D01*
X032455Y003930D01*
X032612Y003859D01*
X032637Y003839D01*
X032705Y003817D01*
X032770Y003788D01*
X032802Y003787D01*
X032967Y003736D01*
X032994Y003718D01*
X033064Y003705D01*
X033132Y003684D01*
X033164Y003687D01*
X033334Y003656D01*
X033363Y003642D01*
X033434Y003638D01*
X033505Y003625D01*
X033536Y003631D01*
X033693Y003622D01*
X033708Y003616D01*
X033794Y003616D01*
X033881Y003611D01*
X033896Y003616D01*
X034024Y003616D01*
X034039Y003611D01*
X034126Y003616D01*
X034212Y003616D01*
X034227Y003622D01*
X034372Y003631D01*
X034403Y003624D01*
X034474Y003637D01*
X034545Y003641D01*
X034573Y003655D01*
X034732Y003684D01*
X034764Y003681D01*
X034832Y003703D01*
X034902Y003715D01*
X034929Y003733D01*
X035082Y003781D01*
X035114Y003782D01*
X035179Y003811D01*
X035248Y003832D01*
X035272Y003853D01*
X035419Y003919D01*
X035451Y003923D01*
X035512Y003960D01*
X035577Y003990D01*
X035599Y004013D01*
X035736Y004096D01*
X035767Y004105D01*
X035823Y004149D01*
X035884Y004186D01*
X035903Y004211D01*
X036030Y004311D01*
X036060Y004323D01*
X036110Y004373D01*
X036166Y004417D01*
X036182Y004445D01*
X036296Y004559D01*
X036323Y004575D01*
X036367Y004631D01*
X036418Y004681D01*
X036430Y004711D01*
X036529Y004838D01*
X036555Y004857D01*
X036592Y004918D01*
X036636Y004974D01*
X036645Y005004D01*
X036728Y005142D01*
X036751Y005164D01*
X036780Y005229D01*
X036817Y005290D01*
X036822Y005322D01*
X036888Y005469D01*
X036909Y005493D01*
X036930Y005561D01*
X036959Y005626D01*
X036960Y005658D01*
X037008Y005812D01*
X037025Y005839D01*
X037038Y005909D01*
X037060Y005977D01*
X037057Y006009D01*
X037086Y006167D01*
X037100Y006196D01*
X037104Y006267D01*
X037117Y006337D01*
X037110Y006369D01*
X037119Y006514D01*
X037125Y006528D01*
X037125Y006615D01*
X037130Y006702D01*
X037125Y006717D01*
X037125Y006844D01*
X037130Y006860D01*
X037125Y006946D01*
X037125Y007033D01*
X037119Y007048D01*
X037109Y007205D01*
X037116Y007236D01*
X037103Y007306D01*
X037099Y007378D01*
X037085Y007406D01*
X037054Y007577D01*
X037057Y007608D01*
X037035Y007676D01*
X037023Y007747D01*
X037005Y007773D01*
X036954Y007939D01*
X036953Y007971D01*
X036923Y008036D01*
X036902Y008104D01*
X036882Y008128D01*
X036811Y008286D01*
X036806Y008318D01*
X036769Y008379D01*
X036740Y008444D01*
X036716Y008466D01*
X036627Y008614D01*
X036618Y008645D01*
X036574Y008701D01*
X036537Y008762D01*
X036512Y008781D01*
X036405Y008917D01*
X036393Y008947D01*
X036342Y008997D01*
X036298Y009053D01*
X036270Y009069D01*
X036148Y009191D01*
X036132Y009219D01*
X036076Y009263D01*
X036026Y009314D01*
X035996Y009326D01*
X035860Y009433D01*
X035841Y009458D01*
X035780Y009495D01*
X035724Y009539D01*
X035693Y009548D01*
X035545Y009637D01*
X035523Y009661D01*
X035458Y009690D01*
X035397Y009727D01*
X035365Y009732D01*
X035208Y009803D01*
X035183Y009823D01*
X035115Y009844D01*
X035050Y009874D01*
X035018Y009874D01*
X034853Y009926D01*
X034826Y009943D01*
X034756Y009956D01*
X034688Y009977D01*
X034656Y009975D01*
X034486Y010006D01*
X034457Y010020D01*
X034386Y010024D01*
X034315Y010037D01*
X034284Y010030D01*
X034127Y010040D01*
X034112Y010046D01*
X034026Y010046D01*
X033939Y010051D01*
X033924Y010046D01*
X033896Y010046D01*
X033881Y010051D01*
X033794Y010046D01*
X033708Y010046D01*
X033693Y010040D01*
X033536Y010030D01*
X033505Y010037D01*
X033434Y010024D01*
X033363Y010020D01*
X033334Y010006D01*
X033164Y009975D01*
X033132Y009977D01*
X033064Y009956D01*
X032994Y009943D01*
X032967Y009926D01*
X032802Y009874D01*
X032770Y009874D01*
X032705Y009844D01*
X032637Y009823D01*
X032612Y009803D01*
X032455Y009732D01*
X032423Y009727D01*
X032362Y009690D01*
X032297Y009661D01*
X032275Y009637D01*
X032127Y009548D01*
X032096Y009539D01*
X032040Y009495D01*
X031979Y009458D01*
X031960Y009433D01*
X031824Y009326D01*
X031794Y009314D01*
X031744Y009263D01*
X031688Y009219D01*
X031672Y009191D01*
X031550Y009069D01*
X031522Y009053D01*
X031478Y008997D01*
X031427Y008947D01*
X031415Y008917D01*
X031308Y008781D01*
X031283Y008762D01*
X031246Y008701D01*
X031202Y008645D01*
X031193Y008614D01*
X031104Y008466D01*
X031080Y008444D01*
X031051Y008379D01*
X031014Y008318D01*
X031009Y008286D01*
X030938Y008128D01*
X030918Y008104D01*
X030897Y008036D01*
X030867Y007971D01*
X030866Y007939D01*
X030815Y007773D01*
X030797Y007747D01*
X030785Y007676D01*
X030763Y007608D01*
X030766Y007577D01*
X030735Y007406D01*
X030721Y007378D01*
X030717Y007306D01*
X030704Y007236D01*
X030711Y007205D01*
X030701Y007048D01*
X030695Y007033D01*
X030695Y006946D01*
X030690Y006860D01*
X030695Y006844D01*
X030695Y006828D01*
X030695Y006817D01*
X030690Y006802D01*
X030695Y006715D01*
X030695Y006628D01*
X030701Y006614D01*
X030711Y006457D01*
X030704Y006425D01*
X030717Y006355D01*
X030721Y006284D01*
X030735Y006255D01*
X030766Y006085D01*
X030763Y006053D01*
X030785Y005985D01*
X030797Y005915D01*
X030815Y005888D01*
X030866Y005723D01*
X030867Y005691D01*
X030897Y005626D01*
X030918Y005558D01*
X030938Y005533D01*
X031009Y005375D01*
X031014Y005344D01*
X031051Y005283D01*
X031080Y005218D01*
X031104Y005196D01*
X031193Y005048D01*
X031202Y005017D01*
X031246Y004961D01*
X031283Y004900D01*
X031308Y004881D01*
X031415Y004745D01*
X031506Y004628D02*
X026984Y004628D01*
X026883Y004500D02*
X031642Y004500D01*
X031771Y004371D02*
X026748Y004371D01*
X026619Y004243D02*
X031942Y004243D01*
X032125Y004114D02*
X026447Y004114D01*
X026259Y003986D02*
X032331Y003986D01*
X032615Y003857D02*
X026047Y003857D01*
X025777Y003729D02*
X032978Y003729D01*
X034923Y003729D02*
X040595Y003729D01*
X040595Y003857D02*
X035283Y003857D01*
X035568Y003986D02*
X040595Y003986D01*
X040595Y004114D02*
X035779Y004114D01*
X035943Y004243D02*
X040595Y004243D01*
X040595Y004371D02*
X036108Y004371D01*
X036236Y004500D02*
X040595Y004500D01*
X040595Y004628D02*
X036365Y004628D01*
X036466Y004757D02*
X040595Y004757D01*
X040595Y004885D02*
X036573Y004885D01*
X036650Y005014D02*
X040595Y005014D01*
X040595Y005142D02*
X036728Y005142D01*
X036806Y005271D02*
X040595Y005271D01*
X040595Y005399D02*
X036857Y005399D01*
X036920Y005528D02*
X040595Y005528D01*
X040595Y005656D02*
X036960Y005656D01*
X037000Y005785D02*
X040595Y005785D01*
X040595Y005913D02*
X037040Y005913D01*
X037063Y006042D02*
X040595Y006042D01*
X040595Y006170D02*
X037087Y006170D01*
X037110Y006299D02*
X040595Y006299D01*
X040595Y006427D02*
X037114Y006427D01*
X037125Y006556D02*
X040595Y006556D01*
X040595Y006684D02*
X037129Y006684D01*
X037125Y006813D02*
X040595Y006813D01*
X040595Y006941D02*
X037125Y006941D01*
X037118Y007070D02*
X040595Y007070D01*
X040595Y007198D02*
X037110Y007198D01*
X037102Y007327D02*
X040595Y007327D01*
X040595Y007455D02*
X037076Y007455D01*
X037054Y007584D02*
X040595Y007584D01*
X040595Y007712D02*
X037029Y007712D01*
X036984Y007841D02*
X040595Y007841D01*
X040595Y007969D02*
X036953Y007969D01*
X036904Y008098D02*
X040595Y008098D01*
X040595Y008226D02*
X036838Y008226D01*
X036784Y008355D02*
X040595Y008355D01*
X040595Y008483D02*
X036706Y008483D01*
X036628Y008612D02*
X040595Y008612D01*
X040595Y008740D02*
X036551Y008740D01*
X036443Y008869D02*
X040595Y008869D01*
X040595Y008997D02*
X036342Y008997D01*
X036214Y009126D02*
X040595Y009126D01*
X040595Y009254D02*
X036087Y009254D01*
X035923Y009383D02*
X040595Y009383D01*
X040595Y009511D02*
X035759Y009511D01*
X035543Y009640D02*
X040595Y009640D01*
X040595Y009768D02*
X035284Y009768D01*
X034946Y009897D02*
X040595Y009897D01*
X040595Y010025D02*
X034379Y010025D01*
X033441Y010025D02*
X016379Y010025D01*
X016300Y009931D02*
X016999Y010769D01*
X017045Y010809D01*
X017064Y010847D01*
X017091Y010880D01*
X017109Y010938D01*
X017136Y010992D01*
X017139Y011035D01*
X017152Y011075D01*
X017147Y011136D01*
X017151Y011196D01*
X017137Y011237D01*
X017134Y011279D01*
X017105Y011333D01*
X017086Y011391D01*
X017058Y011423D01*
X017038Y011461D01*
X016992Y011500D01*
X015774Y012905D01*
X015767Y012923D01*
X015707Y012982D01*
X015652Y013046D01*
X015635Y013054D01*
X015622Y013067D01*
X015544Y013100D01*
X015469Y013137D01*
X015450Y013139D01*
X015432Y013146D01*
X015348Y013146D01*
X015265Y013152D01*
X015247Y013146D01*
X013428Y013146D01*
X013238Y013067D01*
X013093Y012923D01*
X013015Y012733D01*
X013015Y012144D01*
X013010Y012056D01*
X013015Y012042D01*
X013015Y012028D01*
X013049Y011946D01*
X013079Y011862D01*
X013088Y011852D01*
X013093Y011839D01*
X013156Y011776D01*
X013734Y011134D01*
X012965Y010295D01*
X012906Y010241D01*
X012897Y010220D01*
X012881Y010203D01*
X012854Y010128D01*
X012820Y010056D01*
X012819Y010032D01*
X012811Y010011D01*
X012815Y009931D01*
X012811Y009851D01*
X012819Y009829D01*
X012820Y009806D01*
X012854Y009734D01*
X012881Y009658D01*
X012897Y009641D01*
X012906Y009620D01*
X012965Y009566D01*
X013734Y008728D01*
X013156Y008085D01*
X013093Y008023D01*
X013088Y008010D01*
X013079Y007999D01*
X013049Y007915D01*
X013015Y007833D01*
X013015Y007819D01*
X013010Y007806D01*
X013015Y007717D01*
X013015Y007128D01*
X013093Y006939D01*
X013238Y006794D01*
X013428Y006716D01*
X015247Y006716D01*
X015265Y006710D01*
X015348Y006716D01*
X015432Y006716D01*
X015450Y006723D01*
X015469Y006724D01*
X015544Y006762D01*
X015622Y006794D01*
X015635Y006808D01*
X015652Y006816D01*
X015707Y006880D01*
X015767Y006939D01*
X015774Y006957D01*
X016992Y008362D01*
X017038Y008401D01*
X017058Y008439D01*
X017086Y008471D01*
X017105Y008528D01*
X017134Y008582D01*
X017137Y008625D01*
X017151Y008665D01*
X017147Y008726D01*
X017152Y008786D01*
X017139Y008827D01*
X017136Y008870D01*
X017109Y008924D01*
X017091Y008982D01*
X017064Y009015D01*
X017045Y009053D01*
X016999Y009093D01*
X016300Y009931D01*
X016329Y009897D02*
X023826Y009897D01*
X023874Y009906D02*
X023704Y009875D01*
X023672Y009877D01*
X023604Y009856D01*
X023534Y009843D01*
X023507Y009826D01*
X023342Y009774D01*
X023310Y009774D01*
X023245Y009744D01*
X023177Y009723D01*
X023152Y009703D01*
X022995Y009632D01*
X022963Y009627D01*
X022902Y009590D01*
X022837Y009561D01*
X022815Y009537D01*
X022667Y009448D01*
X022636Y009439D01*
X022580Y009395D01*
X022519Y009358D01*
X022500Y009333D01*
X022364Y009226D01*
X022334Y009214D01*
X022284Y009163D01*
X022228Y009119D01*
X022212Y009091D01*
X022090Y008969D01*
X022062Y008953D01*
X022018Y008897D01*
X021967Y008847D01*
X021955Y008817D01*
X021848Y008681D01*
X021823Y008662D01*
X021786Y008601D01*
X021742Y008545D01*
X021733Y008514D01*
X021644Y008366D01*
X021620Y008344D01*
X021591Y008279D01*
X021554Y008218D01*
X021549Y008186D01*
X021478Y008028D01*
X021458Y008004D01*
X021437Y007936D01*
X021407Y007871D01*
X021406Y007839D01*
X021355Y007673D01*
X021337Y007647D01*
X021325Y007576D01*
X021303Y007508D01*
X021306Y007477D01*
X021275Y007306D01*
X021261Y007278D01*
X021257Y007206D01*
X021244Y007136D01*
X021251Y007105D01*
X021241Y006948D01*
X021235Y006933D01*
X021235Y006846D01*
X021230Y006760D01*
X021235Y006744D01*
X021235Y006733D01*
X021235Y006717D01*
X021230Y006702D01*
X021235Y006615D01*
X021235Y006528D01*
X021241Y006514D01*
X021251Y006357D01*
X021244Y006325D01*
X021257Y006255D01*
X021261Y006184D01*
X021275Y006155D01*
X021306Y005985D01*
X021303Y005953D01*
X021325Y005885D01*
X021337Y005815D01*
X021355Y005788D01*
X021406Y005623D01*
X021407Y005591D01*
X021437Y005526D01*
X021458Y005458D01*
X021478Y005433D01*
X021549Y005275D01*
X021554Y005244D01*
X021591Y005183D01*
X021620Y005118D01*
X021644Y005096D01*
X021733Y004948D01*
X021766Y004885D02*
X012945Y004885D01*
X012945Y005014D02*
X012945Y006833D01*
X012867Y007023D01*
X012722Y007167D01*
X012532Y007246D01*
X011944Y007246D01*
X011855Y007250D01*
X011842Y007246D01*
X011828Y007246D01*
X011745Y007212D01*
X011662Y007182D01*
X011651Y007173D01*
X011638Y007167D01*
X011575Y007105D01*
X010933Y006527D01*
X010095Y007295D01*
X010040Y007354D01*
X010019Y007364D01*
X010002Y007380D01*
X009927Y007407D01*
X009855Y007441D01*
X009832Y007442D01*
X009810Y007450D01*
X009730Y007446D01*
X009650Y007450D01*
X009628Y007442D01*
X009605Y007441D01*
X009533Y007407D01*
X009458Y007380D01*
X009441Y007364D01*
X009420Y007354D01*
X009365Y007295D01*
X008527Y006527D01*
X007885Y007105D01*
X007822Y007167D01*
X007809Y007173D01*
X007798Y007182D01*
X007715Y007212D01*
X007632Y007246D01*
X007618Y007246D01*
X007605Y007250D01*
X007516Y007246D01*
X006928Y007246D01*
X006738Y007167D01*
X006593Y007023D01*
X006515Y006833D01*
X006515Y005014D01*
X000625Y005014D01*
X000625Y005142D02*
X006515Y005142D01*
X006515Y005014D02*
X006509Y004996D01*
X006515Y004912D01*
X006515Y004828D01*
X006522Y004811D01*
X006524Y004792D01*
X006561Y004717D01*
X006593Y004639D01*
X006607Y004626D01*
X006615Y004609D01*
X006679Y004554D01*
X006738Y004494D01*
X006756Y004487D01*
X008161Y003269D01*
X008200Y003222D01*
X008075Y003343D02*
X004655Y003343D01*
X004604Y003472D02*
X007927Y003472D01*
X007779Y003600D02*
X004540Y003600D01*
X004446Y003729D02*
X007631Y003729D01*
X007482Y003857D02*
X004353Y003857D01*
X004260Y003986D02*
X007334Y003986D01*
X007186Y004114D02*
X004139Y004114D01*
X004207Y004058D02*
X004207Y004058D01*
X003984Y004243D02*
X007037Y004243D01*
X006889Y004371D02*
X003828Y004371D01*
X003629Y004500D02*
X006733Y004500D01*
X006604Y004628D02*
X003356Y004628D01*
X002953Y004757D02*
X006541Y004757D01*
X006515Y004885D02*
X000625Y004885D01*
X000625Y004757D02*
X001839Y004757D01*
X001444Y004628D02*
X000625Y004628D01*
X000625Y004500D02*
X001201Y004500D01*
X000998Y004371D02*
X000625Y004371D01*
X000625Y004243D02*
X000813Y004243D01*
X000692Y004114D02*
X000625Y004114D01*
X000625Y005271D02*
X006515Y005271D01*
X006515Y005399D02*
X000625Y005399D01*
X000625Y005528D02*
X006515Y005528D01*
X006515Y005656D02*
X000625Y005656D01*
X000625Y005785D02*
X006515Y005785D01*
X006515Y005913D02*
X000625Y005913D01*
X000625Y006042D02*
X006515Y006042D01*
X006515Y006170D02*
X000625Y006170D01*
X000625Y006299D02*
X006515Y006299D01*
X006515Y006427D02*
X000625Y006427D01*
X000625Y006556D02*
X006515Y006556D01*
X006515Y006684D02*
X000625Y006684D01*
X000625Y006813D02*
X003814Y006813D01*
X003808Y006816D02*
X003825Y006808D01*
X003838Y006794D01*
X003916Y006762D01*
X003991Y006724D01*
X004010Y006723D01*
X004028Y006716D01*
X004112Y006716D01*
X004195Y006710D01*
X004213Y006716D01*
X006032Y006716D01*
X006222Y006794D01*
X006367Y006939D01*
X006445Y007128D01*
X006445Y007717D01*
X006450Y007806D01*
X006445Y007819D01*
X006445Y007833D01*
X006411Y007915D01*
X006381Y007999D01*
X006372Y008010D01*
X006367Y008023D01*
X006304Y008085D01*
X005726Y008728D01*
X006495Y009566D01*
X006554Y009620D01*
X006563Y009641D01*
X006579Y009658D01*
X006606Y009734D01*
X006640Y009806D01*
X006641Y009829D01*
X006649Y009851D01*
X006645Y009931D01*
X006649Y010011D01*
X006641Y010032D01*
X006640Y010056D01*
X006606Y010128D01*
X006579Y010203D01*
X006563Y010220D01*
X006554Y010241D01*
X006495Y010295D01*
X005726Y011134D01*
X006304Y011776D01*
X006367Y011839D01*
X006372Y011852D01*
X006381Y011862D01*
X006411Y011946D01*
X006445Y012028D01*
X006445Y012042D01*
X006450Y012056D01*
X006445Y012144D01*
X006445Y012733D01*
X006367Y012923D01*
X006222Y013067D01*
X006032Y013146D01*
X004213Y013146D01*
X004195Y013152D01*
X004112Y013146D01*
X004028Y013146D01*
X004010Y013139D01*
X003991Y013137D01*
X003916Y013100D01*
X003838Y013067D01*
X003825Y013054D01*
X003808Y013046D01*
X003753Y012982D01*
X003693Y012923D01*
X003686Y012905D01*
X002468Y011500D01*
X002422Y011461D01*
X002402Y011423D01*
X002374Y011391D01*
X002355Y011333D01*
X002326Y011279D01*
X002323Y011237D01*
X002309Y011196D01*
X002313Y011136D01*
X002308Y011075D01*
X002321Y011035D01*
X002324Y010992D01*
X002351Y010938D01*
X002369Y010880D01*
X002396Y010847D01*
X002415Y010809D01*
X002461Y010769D01*
X003160Y009931D01*
X002461Y009093D01*
X002415Y009053D01*
X002396Y009015D01*
X002369Y008982D01*
X002351Y008924D01*
X002324Y008870D01*
X002321Y008827D01*
X002308Y008786D01*
X002313Y008726D01*
X002309Y008665D01*
X002323Y008625D01*
X002326Y008582D01*
X002355Y008528D01*
X002374Y008471D01*
X002402Y008439D01*
X002422Y008401D01*
X002468Y008362D01*
X003686Y006957D01*
X003693Y006939D01*
X003753Y006880D01*
X003808Y006816D01*
X003692Y006941D02*
X000625Y006941D01*
X000625Y007070D02*
X003588Y007070D01*
X003477Y007198D02*
X000625Y007198D01*
X000625Y007327D02*
X003365Y007327D01*
X003254Y007455D02*
X000625Y007455D01*
X000625Y007584D02*
X003143Y007584D01*
X003031Y007712D02*
X000625Y007712D01*
X000625Y007841D02*
X002920Y007841D01*
X002808Y007969D02*
X000625Y007969D01*
X000625Y008098D02*
X002697Y008098D01*
X002586Y008226D02*
X000625Y008226D01*
X000625Y008355D02*
X002474Y008355D01*
X002370Y008483D02*
X000625Y008483D01*
X000625Y008612D02*
X002324Y008612D01*
X002312Y008740D02*
X000625Y008740D01*
X000625Y008869D02*
X002324Y008869D01*
X002382Y008997D02*
X000625Y008997D01*
X000625Y009126D02*
X002489Y009126D01*
X002596Y009254D02*
X000625Y009254D01*
X000625Y009383D02*
X002703Y009383D01*
X002810Y009511D02*
X000625Y009511D01*
X000625Y009640D02*
X002917Y009640D01*
X003024Y009768D02*
X000625Y009768D01*
X000625Y009897D02*
X003131Y009897D01*
X003081Y010025D02*
X000625Y010025D01*
X000625Y010154D02*
X002974Y010154D01*
X002867Y010282D02*
X000625Y010282D01*
X000625Y010411D02*
X002760Y010411D01*
X002653Y010539D02*
X000625Y010539D01*
X000625Y010668D02*
X002545Y010668D01*
X002430Y010796D02*
X000625Y010796D01*
X000625Y010925D02*
X002355Y010925D01*
X002315Y011053D02*
X000625Y011053D01*
X000625Y011182D02*
X002310Y011182D01*
X002343Y011310D02*
X000625Y011310D01*
X000625Y011439D02*
X002410Y011439D01*
X002527Y011567D02*
X000625Y011567D01*
X000625Y011696D02*
X002638Y011696D01*
X002750Y011824D02*
X000625Y011824D01*
X000625Y011953D02*
X002861Y011953D01*
X002972Y012081D02*
X000625Y012081D01*
X000625Y012210D02*
X003084Y012210D01*
X003195Y012338D02*
X000625Y012338D01*
X000625Y012467D02*
X003306Y012467D01*
X003418Y012595D02*
X000625Y012595D01*
X000625Y012724D02*
X003529Y012724D01*
X003640Y012852D02*
X000625Y012852D01*
X000625Y012981D02*
X003752Y012981D01*
X003935Y013109D02*
X000625Y013109D01*
X000625Y013238D02*
X006553Y013238D01*
X006515Y013328D02*
X006593Y013139D01*
X006738Y012994D01*
X006928Y012916D01*
X007516Y012916D01*
X007605Y012911D01*
X007618Y012916D01*
X007632Y012916D01*
X007715Y012950D01*
X007798Y012979D01*
X007809Y012989D01*
X007822Y012994D01*
X007885Y013057D01*
X008527Y013635D01*
X009365Y012866D01*
X009420Y012807D01*
X009441Y012798D01*
X009458Y012782D01*
X009533Y012755D01*
X009605Y012721D01*
X009628Y012720D01*
X009650Y012712D01*
X009730Y012715D01*
X009810Y012712D01*
X009832Y012720D01*
X009855Y012721D01*
X009927Y012755D01*
X010002Y012782D01*
X010019Y012798D01*
X010040Y012807D01*
X010095Y012866D01*
X010933Y013635D01*
X011575Y013057D01*
X011638Y012994D01*
X011651Y012989D01*
X011662Y012979D01*
X011745Y012950D01*
X011828Y012916D01*
X011842Y012916D01*
X011855Y012911D01*
X011944Y012916D01*
X012532Y012916D01*
X012722Y012994D01*
X012867Y013139D01*
X012945Y013328D01*
X012945Y015147D01*
X012951Y015165D01*
X012945Y015249D01*
X012945Y015333D01*
X012938Y015351D01*
X012936Y015370D01*
X012899Y015445D01*
X012867Y015523D01*
X012853Y015536D01*
X012845Y015553D01*
X012781Y015608D01*
X012722Y015667D01*
X012704Y015675D01*
X011299Y016893D01*
X011260Y016939D01*
X011222Y016959D01*
X011190Y016987D01*
X011132Y017006D01*
X011079Y017034D01*
X011036Y017038D01*
X010995Y017052D01*
X010935Y017047D01*
X010875Y017053D01*
X010834Y017040D01*
X010791Y017037D01*
X010737Y017010D01*
X010679Y016992D01*
X010646Y016965D01*
X010608Y016946D01*
X010568Y016900D01*
X009730Y016201D01*
X008892Y016900D01*
X008852Y016946D01*
X008814Y016965D01*
X008781Y016992D01*
X008723Y017010D01*
X008669Y017037D01*
X008626Y017040D01*
X008585Y017053D01*
X008525Y017047D01*
X008465Y017052D01*
X008424Y017038D01*
X008381Y017034D01*
X008328Y017006D01*
X008270Y016987D01*
X008238Y016959D01*
X008200Y016939D01*
X008161Y016893D01*
X006756Y015675D01*
X006738Y015667D01*
X006679Y015608D01*
X006615Y015553D01*
X006607Y015536D01*
X006593Y015523D01*
X006561Y015445D01*
X006524Y015370D01*
X006522Y015351D01*
X006515Y015333D01*
X006515Y015249D01*
X006509Y015165D01*
X006515Y015147D01*
X006515Y013328D01*
X006515Y013366D02*
X000625Y013366D01*
X000625Y013495D02*
X006515Y013495D01*
X006515Y013623D02*
X000625Y013623D01*
X000625Y013752D02*
X006515Y013752D01*
X006515Y013880D02*
X000625Y013880D01*
X000625Y014009D02*
X006515Y014009D01*
X006515Y014137D02*
X000625Y014137D01*
X000625Y014266D02*
X006515Y014266D01*
X006515Y014394D02*
X000625Y014394D01*
X000625Y014523D02*
X006515Y014523D01*
X006515Y014651D02*
X000625Y014651D01*
X000625Y014780D02*
X006515Y014780D01*
X006515Y014908D02*
X000625Y014908D01*
X000625Y015037D02*
X006515Y015037D01*
X006509Y015165D02*
X000625Y015165D01*
X000625Y015294D02*
X006515Y015294D01*
X006550Y015422D02*
X000625Y015422D01*
X000625Y015551D02*
X006614Y015551D01*
X006761Y015679D02*
X000625Y015679D01*
X000625Y015808D02*
X006909Y015808D01*
X007058Y015936D02*
X000625Y015936D01*
X000625Y016065D02*
X007206Y016065D01*
X007354Y016193D02*
X000625Y016193D01*
X000625Y016322D02*
X007503Y016322D01*
X007651Y016450D02*
X000625Y016450D01*
X000625Y016579D02*
X007799Y016579D01*
X007947Y016707D02*
X000625Y016707D01*
X000625Y016836D02*
X008096Y016836D01*
X008244Y016964D02*
X000625Y016964D01*
X000625Y017093D02*
X013679Y017093D01*
X013626Y017221D02*
X000625Y017221D01*
X000625Y017350D02*
X013573Y017350D01*
X013565Y017478D02*
X000625Y017478D01*
X000625Y017607D02*
X013565Y017607D01*
X013565Y017735D02*
X000625Y017735D01*
X000625Y017864D02*
X013565Y017864D01*
X013565Y017992D02*
X000625Y017992D01*
X000625Y018121D02*
X013565Y018121D01*
X013565Y018249D02*
X000625Y018249D01*
X000625Y018378D02*
X013608Y018378D01*
X013662Y018506D02*
X000625Y018506D01*
X000625Y018635D02*
X013762Y018635D01*
X013891Y018763D02*
X000634Y018763D01*
X000668Y018892D02*
X014180Y018892D01*
X014309Y019020D02*
X000704Y019020D01*
X000779Y019149D02*
X014437Y019149D01*
X014566Y019277D02*
X000867Y019277D01*
X000996Y019406D02*
X014694Y019406D01*
X014823Y019534D02*
X001202Y019534D01*
X008814Y016964D02*
X010646Y016964D01*
X010492Y016836D02*
X008968Y016836D01*
X009123Y016707D02*
X010337Y016707D01*
X010183Y016579D02*
X009277Y016579D01*
X009431Y016450D02*
X010029Y016450D01*
X009875Y016322D02*
X009585Y016322D01*
X011216Y016964D02*
X013805Y016964D01*
X013985Y016836D02*
X011364Y016836D01*
X011513Y016707D02*
X021311Y016707D01*
X021280Y016836D02*
X020675Y016836D01*
X020855Y016964D02*
X021252Y016964D01*
X021117Y017093D02*
X020981Y017093D01*
X019985Y016836D02*
X018675Y016836D01*
X018855Y016964D02*
X018916Y016964D01*
X019744Y016964D02*
X019805Y016964D01*
X021364Y016579D02*
X011661Y016579D01*
X011809Y016450D02*
X021450Y016450D01*
X021380Y016322D02*
X011957Y016322D01*
X012106Y016193D02*
X021327Y016193D01*
X021280Y016065D02*
X012254Y016065D01*
X012402Y015936D02*
X021280Y015936D01*
X021280Y015808D02*
X012551Y015808D01*
X012699Y015679D02*
X021322Y015679D01*
X021376Y015551D02*
X012846Y015551D01*
X012910Y015422D02*
X021478Y015422D01*
X021608Y015294D02*
X012945Y015294D01*
X012951Y015165D02*
X021644Y015165D01*
X021591Y015037D02*
X012945Y015037D01*
X012945Y014908D02*
X022000Y014908D01*
X022060Y014908D02*
X029303Y014908D01*
X029431Y014780D02*
X022454Y014780D01*
X022447Y014758D02*
X022469Y014825D01*
X022480Y014895D01*
X022480Y014901D01*
X022060Y014901D01*
X022060Y014961D01*
X022480Y014961D01*
X022480Y014966D01*
X022469Y015036D01*
X022447Y015104D01*
X022415Y015167D01*
X022373Y015224D01*
X022347Y015250D01*
X022455Y015295D01*
X022561Y015401D01*
X028810Y015401D01*
X030633Y013578D01*
X030605Y013567D01*
X030530Y013491D01*
X030455Y013567D01*
X030179Y013681D01*
X029881Y013681D01*
X029605Y013567D01*
X029394Y013356D01*
X029280Y013080D01*
X029280Y012782D01*
X029351Y012610D01*
X029179Y012681D01*
X028881Y012681D01*
X028605Y012567D01*
X028530Y012491D01*
X028455Y012567D01*
X028179Y012681D01*
X027881Y012681D01*
X027605Y012567D01*
X027530Y012491D01*
X027455Y012567D01*
X027179Y012681D01*
X026881Y012681D01*
X026605Y012567D01*
X026530Y012491D01*
X026455Y012567D01*
X026179Y012681D01*
X025881Y012681D01*
X025605Y012567D01*
X025530Y012491D01*
X025455Y012567D01*
X025179Y012681D01*
X024881Y012681D01*
X024605Y012567D01*
X024530Y012491D01*
X024455Y012567D01*
X024179Y012681D01*
X023881Y012681D01*
X023605Y012567D01*
X023530Y012491D01*
X023455Y012567D01*
X023179Y012681D01*
X022881Y012681D01*
X022709Y012610D01*
X022780Y012782D01*
X022780Y013080D01*
X022666Y013356D01*
X022591Y013431D01*
X022666Y013506D01*
X022780Y013782D01*
X022780Y014080D01*
X022666Y014356D01*
X022455Y014567D01*
X022347Y014611D01*
X022373Y014638D01*
X022415Y014695D01*
X022447Y014758D01*
X022383Y014651D02*
X029560Y014651D01*
X029688Y014523D02*
X022499Y014523D01*
X022627Y014394D02*
X029817Y014394D01*
X029945Y014266D02*
X022703Y014266D01*
X022756Y014137D02*
X030074Y014137D01*
X030202Y014009D02*
X022780Y014009D01*
X022780Y013880D02*
X030331Y013880D01*
X030459Y013752D02*
X022768Y013752D01*
X022714Y013623D02*
X029742Y013623D01*
X029533Y013495D02*
X022655Y013495D01*
X022655Y013366D02*
X029405Y013366D01*
X029345Y013238D02*
X022715Y013238D01*
X022768Y013109D02*
X029292Y013109D01*
X029280Y012981D02*
X022780Y012981D01*
X022780Y012852D02*
X029280Y012852D01*
X029304Y012724D02*
X022756Y012724D01*
X023386Y012595D02*
X023674Y012595D01*
X024386Y012595D02*
X024674Y012595D01*
X025386Y012595D02*
X025674Y012595D01*
X026386Y012595D02*
X026674Y012595D01*
X027386Y012595D02*
X027674Y012595D01*
X028386Y012595D02*
X028674Y012595D01*
X030318Y013623D02*
X030588Y013623D01*
X030533Y013495D02*
X030527Y013495D01*
X031573Y014137D02*
X035565Y014137D01*
X035565Y014009D02*
X031702Y014009D01*
X031830Y013880D02*
X035565Y013880D01*
X035565Y013752D02*
X031959Y013752D01*
X032030Y013681D02*
X029330Y016380D01*
X029135Y016461D01*
X028925Y016461D01*
X022621Y016461D01*
X022666Y016506D01*
X022780Y016782D01*
X022780Y016886D01*
X027958Y016886D01*
X028159Y016969D01*
X028312Y017122D01*
X028492Y017302D01*
X028513Y017353D01*
X028530Y017370D01*
X028605Y017295D01*
X028881Y017181D01*
X029179Y017181D01*
X029455Y017295D01*
X029530Y017370D01*
X029605Y017295D01*
X029881Y017181D01*
X030179Y017181D01*
X030455Y017295D01*
X030530Y017370D01*
X030605Y017295D01*
X030881Y017181D01*
X031179Y017181D01*
X031455Y017295D01*
X031530Y017370D01*
X031605Y017295D01*
X031881Y017181D01*
X032179Y017181D01*
X032455Y017295D01*
X032530Y017370D01*
X032605Y017295D01*
X032881Y017181D01*
X033179Y017181D01*
X033455Y017295D01*
X033530Y017370D01*
X033605Y017295D01*
X033881Y017181D01*
X034179Y017181D01*
X034455Y017295D01*
X034666Y017506D01*
X034711Y017614D01*
X034737Y017588D01*
X034794Y017546D01*
X034857Y017514D01*
X034925Y017492D01*
X034995Y017481D01*
X035000Y017481D01*
X035000Y017901D01*
X035060Y017901D01*
X035060Y017961D01*
X035000Y017961D01*
X035000Y018381D01*
X034995Y018381D01*
X034925Y018370D01*
X034857Y018348D01*
X034794Y018316D01*
X034737Y018274D01*
X034711Y018248D01*
X034666Y018356D01*
X034455Y018567D01*
X034179Y018681D01*
X033881Y018681D01*
X033605Y018567D01*
X033530Y018491D01*
X033455Y018567D01*
X033179Y018681D01*
X032881Y018681D01*
X032605Y018567D01*
X032530Y018491D01*
X032455Y018567D01*
X032179Y018681D01*
X031881Y018681D01*
X031605Y018567D01*
X031530Y018491D01*
X031455Y018567D01*
X031179Y018681D01*
X030881Y018681D01*
X030605Y018567D01*
X030530Y018491D01*
X030455Y018567D01*
X030179Y018681D01*
X029881Y018681D01*
X029605Y018567D01*
X029530Y018491D01*
X029455Y018567D01*
X029179Y018681D01*
X028881Y018681D01*
X028605Y018567D01*
X028530Y018491D01*
X028455Y018567D01*
X028179Y018681D01*
X027881Y018681D01*
X027605Y018567D01*
X027530Y018491D01*
X027455Y018567D01*
X027179Y018681D01*
X026881Y018681D01*
X026605Y018567D01*
X026530Y018491D01*
X026455Y018567D01*
X026179Y018681D01*
X025881Y018681D01*
X025605Y018567D01*
X025530Y018491D01*
X025455Y018567D01*
X025179Y018681D01*
X024881Y018681D01*
X024605Y018567D01*
X024530Y018491D01*
X024455Y018567D01*
X024179Y018681D01*
X023881Y018681D01*
X023605Y018567D01*
X023530Y018491D01*
X023455Y018567D01*
X023179Y018681D01*
X022881Y018681D01*
X022605Y018567D01*
X022530Y018491D01*
X022455Y018567D01*
X022179Y018681D01*
X021881Y018681D01*
X021752Y018627D01*
X021672Y018820D01*
X021586Y018906D01*
X035364Y018906D01*
X035565Y018705D01*
X035565Y013237D01*
X035009Y012681D01*
X034881Y012681D01*
X034709Y012610D01*
X034780Y012782D01*
X034780Y013080D01*
X034666Y013356D01*
X034455Y013567D01*
X034179Y013681D01*
X033881Y013681D01*
X033605Y013567D01*
X033394Y013356D01*
X033280Y013080D01*
X033280Y012782D01*
X033351Y012610D01*
X033179Y012681D01*
X033030Y012681D01*
X032780Y012930D01*
X032780Y013080D01*
X032666Y013356D01*
X032455Y013567D01*
X032179Y013681D01*
X032030Y013681D01*
X032318Y013623D02*
X033742Y013623D01*
X033533Y013495D02*
X032527Y013495D01*
X032655Y013366D02*
X033405Y013366D01*
X033345Y013238D02*
X032715Y013238D01*
X032768Y013109D02*
X033292Y013109D01*
X033280Y012981D02*
X032780Y012981D01*
X032858Y012852D02*
X033280Y012852D01*
X033304Y012724D02*
X032987Y012724D01*
X033030Y011931D02*
X032030Y012931D01*
X029030Y015931D01*
X022030Y015931D01*
X022452Y015294D02*
X028917Y015294D01*
X029046Y015165D02*
X022416Y015165D01*
X022469Y015037D02*
X029174Y015037D01*
X030031Y015679D02*
X035565Y015679D01*
X035565Y015551D02*
X030160Y015551D01*
X030288Y015422D02*
X035565Y015422D01*
X035565Y015294D02*
X030417Y015294D01*
X030545Y015165D02*
X035565Y015165D01*
X035565Y015037D02*
X030674Y015037D01*
X030802Y014908D02*
X035565Y014908D01*
X035565Y014780D02*
X030931Y014780D01*
X031059Y014651D02*
X035565Y014651D01*
X035565Y014523D02*
X031188Y014523D01*
X031316Y014394D02*
X035565Y014394D01*
X035565Y014266D02*
X031445Y014266D01*
X034318Y013623D02*
X035565Y013623D01*
X035565Y013495D02*
X034527Y013495D01*
X034655Y013366D02*
X035565Y013366D01*
X035565Y013238D02*
X034715Y013238D01*
X034768Y013109D02*
X035438Y013109D01*
X035309Y012981D02*
X034780Y012981D01*
X034780Y012852D02*
X035181Y012852D01*
X035052Y012724D02*
X034756Y012724D01*
X035951Y012081D02*
X040595Y012081D01*
X040595Y011953D02*
X035823Y011953D01*
X035780Y011824D02*
X040595Y011824D01*
X040595Y011696D02*
X035744Y011696D01*
X035691Y011567D02*
X040595Y011567D01*
X040595Y011439D02*
X035599Y011439D01*
X035470Y011310D02*
X040595Y011310D01*
X040595Y011182D02*
X035182Y011182D01*
X034878Y011182D02*
X033182Y011182D01*
X032878Y011182D02*
X032182Y011182D01*
X031878Y011182D02*
X031182Y011182D01*
X030878Y011182D02*
X030182Y011182D01*
X029878Y011182D02*
X029182Y011182D01*
X028878Y011182D02*
X028182Y011182D01*
X027878Y011182D02*
X027182Y011182D01*
X026878Y011182D02*
X026182Y011182D01*
X025878Y011182D02*
X025182Y011182D01*
X024878Y011182D02*
X024182Y011182D01*
X023878Y011182D02*
X023182Y011182D01*
X022878Y011182D02*
X022182Y011182D01*
X021878Y011182D02*
X017150Y011182D01*
X017145Y011053D02*
X040595Y011053D01*
X040595Y010925D02*
X017105Y010925D01*
X017030Y010796D02*
X040595Y010796D01*
X040595Y010668D02*
X016915Y010668D01*
X016807Y010539D02*
X040595Y010539D01*
X040595Y010411D02*
X016700Y010411D01*
X016593Y010282D02*
X040595Y010282D01*
X040595Y010154D02*
X016486Y010154D01*
X016436Y009768D02*
X023299Y009768D01*
X023013Y009640D02*
X016543Y009640D01*
X016650Y009511D02*
X022772Y009511D01*
X022560Y009383D02*
X016757Y009383D01*
X016864Y009254D02*
X022400Y009254D01*
X022236Y009126D02*
X016971Y009126D01*
X017078Y008997D02*
X022118Y008997D01*
X021989Y008869D02*
X017136Y008869D01*
X017148Y008740D02*
X021895Y008740D01*
X021792Y008612D02*
X017136Y008612D01*
X017090Y008483D02*
X021715Y008483D01*
X021632Y008355D02*
X016986Y008355D01*
X016874Y008226D02*
X021559Y008226D01*
X021509Y008098D02*
X016763Y008098D01*
X016652Y007969D02*
X021447Y007969D01*
X021406Y007841D02*
X016540Y007841D01*
X016429Y007712D02*
X021367Y007712D01*
X021326Y007584D02*
X016317Y007584D01*
X016206Y007455D02*
X021302Y007455D01*
X021279Y007327D02*
X016095Y007327D01*
X015983Y007198D02*
X021255Y007198D01*
X021249Y007070D02*
X015872Y007070D01*
X015768Y006941D02*
X021238Y006941D01*
X021233Y006813D02*
X015646Y006813D01*
X013220Y006813D02*
X012945Y006813D01*
X012945Y006684D02*
X021231Y006684D01*
X021235Y006556D02*
X012945Y006556D01*
X012945Y006427D02*
X021246Y006427D01*
X021249Y006299D02*
X012945Y006299D01*
X012945Y006170D02*
X021268Y006170D01*
X021296Y006042D02*
X012945Y006042D01*
X012945Y005913D02*
X021316Y005913D01*
X021356Y005785D02*
X012945Y005785D01*
X012945Y005656D02*
X021396Y005656D01*
X021436Y005528D02*
X012945Y005528D01*
X012945Y005399D02*
X021494Y005399D01*
X021550Y005271D02*
X012945Y005271D01*
X012945Y005142D02*
X021609Y005142D01*
X021867Y004757D02*
X012919Y004757D01*
X012856Y004628D02*
X021962Y004628D01*
X022077Y004500D02*
X012727Y004500D01*
X012571Y004371D02*
X022211Y004371D01*
X022347Y004243D02*
X012423Y004243D01*
X012274Y004114D02*
X022511Y004114D01*
X022713Y003986D02*
X012126Y003986D01*
X011978Y003857D02*
X022926Y003857D01*
X023208Y003729D02*
X011829Y003729D01*
X011681Y003600D02*
X023621Y003600D01*
X025365Y003600D02*
X040595Y003600D01*
X040595Y003472D02*
X011533Y003472D01*
X011385Y003343D02*
X040595Y003343D01*
X040595Y003215D02*
X011246Y003215D01*
X010610Y003215D02*
X008850Y003215D01*
X008989Y003343D02*
X010471Y003343D01*
X010316Y003472D02*
X009144Y003472D01*
X009298Y003600D02*
X010162Y003600D01*
X010008Y003729D02*
X009452Y003729D01*
X009606Y003857D02*
X009854Y003857D01*
X010901Y006556D02*
X010966Y006556D01*
X011109Y006684D02*
X010761Y006684D01*
X010621Y006813D02*
X011251Y006813D01*
X011394Y006941D02*
X010481Y006941D01*
X010340Y007070D02*
X011537Y007070D01*
X011707Y007198D02*
X010200Y007198D01*
X010066Y007327D02*
X013015Y007327D01*
X013015Y007455D02*
X006445Y007455D01*
X006445Y007327D02*
X009394Y007327D01*
X009260Y007198D02*
X007753Y007198D01*
X007923Y007070D02*
X009120Y007070D01*
X008979Y006941D02*
X008066Y006941D01*
X008209Y006813D02*
X008839Y006813D01*
X008699Y006684D02*
X008351Y006684D01*
X008494Y006556D02*
X008559Y006556D01*
X006813Y007198D02*
X006445Y007198D01*
X006421Y007070D02*
X006641Y007070D01*
X006560Y006941D02*
X006368Y006941D01*
X006240Y006813D02*
X006515Y006813D01*
X006445Y007584D02*
X013015Y007584D01*
X013015Y007712D02*
X006445Y007712D01*
X006442Y007841D02*
X013018Y007841D01*
X013068Y007969D02*
X006392Y007969D01*
X006293Y008098D02*
X013167Y008098D01*
X013283Y008226D02*
X006177Y008226D01*
X006061Y008355D02*
X013399Y008355D01*
X013514Y008483D02*
X005946Y008483D01*
X005830Y008612D02*
X013630Y008612D01*
X013723Y008740D02*
X005737Y008740D01*
X005855Y008869D02*
X013605Y008869D01*
X013487Y008997D02*
X005973Y008997D01*
X006091Y009126D02*
X013369Y009126D01*
X013251Y009254D02*
X006209Y009254D01*
X006326Y009383D02*
X013134Y009383D01*
X013016Y009511D02*
X006444Y009511D01*
X006563Y009640D02*
X012897Y009640D01*
X012838Y009768D02*
X006622Y009768D01*
X006647Y009897D02*
X012813Y009897D01*
X012816Y010025D02*
X006644Y010025D01*
X006597Y010154D02*
X012863Y010154D01*
X012951Y010282D02*
X006509Y010282D01*
X006389Y010411D02*
X013071Y010411D01*
X013189Y010539D02*
X006271Y010539D01*
X006153Y010668D02*
X013307Y010668D01*
X013425Y010796D02*
X006035Y010796D01*
X005917Y010925D02*
X013543Y010925D01*
X013660Y011053D02*
X005800Y011053D01*
X005769Y011182D02*
X013691Y011182D01*
X013576Y011310D02*
X005884Y011310D01*
X006000Y011439D02*
X013460Y011439D01*
X013344Y011567D02*
X006116Y011567D01*
X006231Y011696D02*
X013229Y011696D01*
X013108Y011824D02*
X006352Y011824D01*
X006414Y011953D02*
X013046Y011953D01*
X013012Y012081D02*
X006448Y012081D01*
X006445Y012210D02*
X013015Y012210D01*
X013015Y012338D02*
X006445Y012338D01*
X006445Y012467D02*
X013015Y012467D01*
X013015Y012595D02*
X006445Y012595D01*
X006445Y012724D02*
X009599Y012724D01*
X009378Y012852D02*
X006396Y012852D01*
X006308Y012981D02*
X006771Y012981D01*
X006623Y013109D02*
X006120Y013109D01*
X007800Y012981D02*
X009241Y012981D01*
X009100Y013109D02*
X007943Y013109D01*
X008085Y013238D02*
X008960Y013238D01*
X008820Y013366D02*
X008228Y013366D01*
X008371Y013495D02*
X008680Y013495D01*
X008540Y013623D02*
X008514Y013623D01*
X010082Y012852D02*
X013064Y012852D01*
X013015Y012724D02*
X009861Y012724D01*
X010219Y012981D02*
X011660Y012981D01*
X011517Y013109D02*
X010360Y013109D01*
X010500Y013238D02*
X011375Y013238D01*
X011232Y013366D02*
X010640Y013366D01*
X010780Y013495D02*
X011089Y013495D01*
X010946Y013623D02*
X010920Y013623D01*
X012689Y012981D02*
X013152Y012981D01*
X013340Y013109D02*
X012837Y013109D01*
X012907Y013238D02*
X021345Y013238D01*
X021292Y013109D02*
X015525Y013109D01*
X015708Y012981D02*
X021280Y012981D01*
X021280Y012852D02*
X015820Y012852D01*
X015931Y012724D02*
X021304Y012724D01*
X021357Y012595D02*
X016042Y012595D01*
X016154Y012467D02*
X021433Y012467D01*
X021387Y012338D02*
X016265Y012338D01*
X016376Y012210D02*
X021334Y012210D01*
X021281Y012081D02*
X016488Y012081D01*
X016599Y011953D02*
X021280Y011953D01*
X021280Y011824D02*
X016710Y011824D01*
X016822Y011696D02*
X021316Y011696D01*
X021369Y011567D02*
X016933Y011567D01*
X017050Y011439D02*
X021461Y011439D01*
X021590Y011310D02*
X017117Y011310D01*
X012945Y013366D02*
X021405Y013366D01*
X021405Y013495D02*
X012945Y013495D01*
X012945Y013623D02*
X021346Y013623D01*
X021292Y013752D02*
X012945Y013752D01*
X012945Y013880D02*
X021280Y013880D01*
X021280Y014009D02*
X012945Y014009D01*
X012945Y014137D02*
X021304Y014137D01*
X021357Y014266D02*
X012945Y014266D01*
X012945Y014394D02*
X021433Y014394D01*
X021561Y014523D02*
X012945Y014523D01*
X012945Y014651D02*
X021677Y014651D01*
X021606Y014780D02*
X012945Y014780D01*
X014675Y016836D02*
X015985Y016836D01*
X015805Y016964D02*
X014855Y016964D01*
X014981Y017093D02*
X015679Y017093D01*
X015626Y017221D02*
X015570Y017221D01*
X015365Y017221D02*
X015295Y017221D01*
X015295Y017350D02*
X015365Y017350D01*
X015365Y017478D02*
X015295Y017478D01*
X015295Y017607D02*
X015365Y017607D01*
X015365Y017735D02*
X015295Y017735D01*
X015295Y017864D02*
X015365Y017864D01*
X015090Y017221D02*
X015034Y017221D01*
X016675Y016836D02*
X017985Y016836D01*
X017805Y016964D02*
X017744Y016964D01*
X016916Y016964D02*
X016855Y016964D01*
X021600Y018892D02*
X035378Y018892D01*
X035507Y018763D02*
X021695Y018763D01*
X021749Y018635D02*
X021770Y018635D01*
X022290Y018635D02*
X022770Y018635D01*
X022545Y018506D02*
X022515Y018506D01*
X023290Y018635D02*
X023770Y018635D01*
X023545Y018506D02*
X023515Y018506D01*
X024290Y018635D02*
X024770Y018635D01*
X024545Y018506D02*
X024515Y018506D01*
X025290Y018635D02*
X025770Y018635D01*
X025545Y018506D02*
X025515Y018506D01*
X026290Y018635D02*
X026770Y018635D01*
X026545Y018506D02*
X026515Y018506D01*
X027290Y018635D02*
X027770Y018635D01*
X027545Y018506D02*
X027515Y018506D01*
X028290Y018635D02*
X028770Y018635D01*
X028545Y018506D02*
X028515Y018506D01*
X029290Y018635D02*
X029770Y018635D01*
X029545Y018506D02*
X029515Y018506D01*
X030290Y018635D02*
X030770Y018635D01*
X030545Y018506D02*
X030515Y018506D01*
X031290Y018635D02*
X031770Y018635D01*
X031545Y018506D02*
X031515Y018506D01*
X032290Y018635D02*
X032770Y018635D01*
X032545Y018506D02*
X032515Y018506D01*
X033290Y018635D02*
X033770Y018635D01*
X033545Y018506D02*
X033515Y018506D01*
X034290Y018635D02*
X035565Y018635D01*
X035565Y018506D02*
X034515Y018506D01*
X034644Y018378D02*
X034976Y018378D01*
X035000Y018378D02*
X035060Y018378D01*
X035060Y018381D02*
X035060Y017961D01*
X035480Y017961D01*
X035480Y017966D01*
X035469Y018036D01*
X035447Y018104D01*
X035415Y018167D01*
X035373Y018224D01*
X035323Y018274D01*
X035266Y018316D01*
X035203Y018348D01*
X035135Y018370D01*
X035065Y018381D01*
X035060Y018381D01*
X035084Y018378D02*
X035565Y018378D01*
X035565Y018249D02*
X035348Y018249D01*
X035438Y018121D02*
X035565Y018121D01*
X035565Y017992D02*
X035476Y017992D01*
X035480Y017901D02*
X035060Y017901D01*
X035060Y017481D01*
X035065Y017481D01*
X035135Y017492D01*
X035203Y017514D01*
X035266Y017546D01*
X035323Y017588D01*
X035373Y017638D01*
X035415Y017695D01*
X035447Y017758D01*
X035469Y017825D01*
X035480Y017895D01*
X035480Y017901D01*
X035475Y017864D02*
X035565Y017864D01*
X035565Y017735D02*
X035435Y017735D01*
X035342Y017607D02*
X035565Y017607D01*
X035565Y017478D02*
X034638Y017478D01*
X034708Y017607D02*
X034718Y017607D01*
X035000Y017607D02*
X035060Y017607D01*
X035060Y017735D02*
X035000Y017735D01*
X035000Y017864D02*
X035060Y017864D01*
X035060Y017992D02*
X035000Y017992D01*
X035000Y018121D02*
X035060Y018121D01*
X035060Y018249D02*
X035000Y018249D01*
X034712Y018249D02*
X034710Y018249D01*
X034510Y017350D02*
X035565Y017350D01*
X035565Y017221D02*
X034277Y017221D01*
X033783Y017221D02*
X033277Y017221D01*
X033510Y017350D02*
X033550Y017350D01*
X032783Y017221D02*
X032277Y017221D01*
X032510Y017350D02*
X032550Y017350D01*
X031783Y017221D02*
X031277Y017221D01*
X031510Y017350D02*
X031550Y017350D01*
X030783Y017221D02*
X030277Y017221D01*
X030510Y017350D02*
X030550Y017350D01*
X029783Y017221D02*
X029277Y017221D01*
X029510Y017350D02*
X029550Y017350D01*
X028783Y017221D02*
X028411Y017221D01*
X028512Y017350D02*
X028550Y017350D01*
X028283Y017093D02*
X035565Y017093D01*
X035565Y016964D02*
X028148Y016964D01*
X029161Y016450D02*
X035565Y016450D01*
X035565Y016322D02*
X029389Y016322D01*
X029517Y016193D02*
X035565Y016193D01*
X035565Y016065D02*
X029646Y016065D01*
X029774Y015936D02*
X035565Y015936D01*
X035565Y015808D02*
X029903Y015808D01*
X035565Y016579D02*
X022696Y016579D01*
X022749Y016707D02*
X035565Y016707D01*
X035565Y016836D02*
X022780Y016836D01*
X033691Y011567D02*
X033765Y011567D01*
X033599Y011439D02*
X034461Y011439D01*
X034369Y011567D02*
X034295Y011567D01*
X034060Y011567D02*
X034000Y011567D01*
X034000Y011696D02*
X034060Y011696D01*
X034060Y011824D02*
X034000Y011824D01*
X033470Y011310D02*
X034590Y011310D01*
X032590Y011310D02*
X032470Y011310D01*
X031590Y011310D02*
X031470Y011310D01*
X030590Y011310D02*
X030470Y011310D01*
X029590Y011310D02*
X029470Y011310D01*
X028590Y011310D02*
X028470Y011310D01*
X027590Y011310D02*
X027470Y011310D01*
X026590Y011310D02*
X026470Y011310D01*
X025590Y011310D02*
X025470Y011310D01*
X024590Y011310D02*
X024470Y011310D01*
X023590Y011310D02*
X023470Y011310D01*
X022590Y011310D02*
X022470Y011310D01*
X023974Y009924D02*
X024045Y009937D01*
X024076Y009930D01*
X024233Y009940D01*
X024248Y009946D01*
X024334Y009946D01*
X024421Y009951D01*
X024436Y009946D01*
X024464Y009946D01*
X024479Y009951D01*
X024566Y009946D01*
X024652Y009946D01*
X024667Y009940D01*
X024824Y009930D01*
X024855Y009937D01*
X024926Y009924D01*
X024997Y009920D01*
X025026Y009906D01*
X025196Y009875D01*
X025228Y009877D01*
X025296Y009856D01*
X025366Y009843D01*
X025393Y009826D01*
X025558Y009774D01*
X025590Y009774D01*
X025655Y009744D01*
X025723Y009723D01*
X025748Y009703D01*
X025905Y009632D01*
X025937Y009627D01*
X025998Y009590D01*
X026063Y009561D01*
X026085Y009537D01*
X026233Y009448D01*
X026264Y009439D01*
X026320Y009395D01*
X026381Y009358D01*
X026400Y009333D01*
X026536Y009226D01*
X026566Y009214D01*
X026616Y009163D01*
X026672Y009119D01*
X026688Y009091D01*
X026810Y008969D01*
X026838Y008953D01*
X026882Y008897D01*
X026933Y008847D01*
X026945Y008817D01*
X027052Y008681D01*
X027077Y008662D01*
X027114Y008601D01*
X027158Y008545D01*
X027167Y008514D01*
X027256Y008366D01*
X027280Y008344D01*
X027309Y008279D01*
X027346Y008218D01*
X027351Y008186D01*
X027422Y008028D01*
X027442Y008004D01*
X027463Y007936D01*
X027493Y007871D01*
X027494Y007839D01*
X027545Y007673D01*
X027563Y007647D01*
X027575Y007576D01*
X027597Y007508D01*
X027594Y007477D01*
X027625Y007306D01*
X027639Y007278D01*
X027643Y007206D01*
X027656Y007136D01*
X027649Y007105D01*
X027659Y006948D01*
X027665Y006933D01*
X027665Y006846D01*
X027670Y006760D01*
X027665Y006744D01*
X027665Y006617D01*
X027670Y006602D01*
X027665Y006515D01*
X027665Y006428D01*
X027659Y006414D01*
X027650Y006269D01*
X027657Y006237D01*
X027644Y006167D01*
X027640Y006096D01*
X027626Y006067D01*
X027597Y005909D01*
X027600Y005877D01*
X027578Y005809D01*
X027565Y005739D01*
X027548Y005712D01*
X027500Y005558D01*
X027499Y005526D01*
X027470Y005461D01*
X027449Y005393D01*
X027428Y005369D01*
X027362Y005222D01*
X027357Y005190D01*
X027320Y005129D01*
X027291Y005064D01*
X027268Y005042D01*
X027185Y004904D01*
X027176Y004874D01*
X027132Y004818D01*
X027095Y004757D01*
X027179Y004885D02*
X031302Y004885D01*
X031204Y005014D02*
X027251Y005014D01*
X027328Y005142D02*
X031136Y005142D01*
X031056Y005271D02*
X027384Y005271D01*
X027451Y005399D02*
X030999Y005399D01*
X030941Y005528D02*
X027499Y005528D01*
X027531Y005656D02*
X030883Y005656D01*
X030847Y005785D02*
X027574Y005785D01*
X027597Y005913D02*
X030799Y005913D01*
X030767Y006042D02*
X027621Y006042D01*
X027645Y006170D02*
X030751Y006170D01*
X030720Y006299D02*
X027652Y006299D01*
X027665Y006427D02*
X030704Y006427D01*
X030705Y006556D02*
X027667Y006556D01*
X027665Y006684D02*
X030695Y006684D01*
X030694Y006813D02*
X027667Y006813D01*
X027662Y006941D02*
X030695Y006941D01*
X030702Y007070D02*
X027651Y007070D01*
X027645Y007198D02*
X030710Y007198D01*
X030718Y007327D02*
X027621Y007327D01*
X027598Y007455D02*
X030744Y007455D01*
X030766Y007584D02*
X027574Y007584D01*
X027533Y007712D02*
X030791Y007712D01*
X030836Y007841D02*
X027494Y007841D01*
X027453Y007969D02*
X030867Y007969D01*
X030916Y008098D02*
X027391Y008098D01*
X027341Y008226D02*
X030982Y008226D01*
X031036Y008355D02*
X027268Y008355D01*
X027185Y008483D02*
X031114Y008483D01*
X031192Y008612D02*
X027108Y008612D01*
X027005Y008740D02*
X031269Y008740D01*
X031377Y008869D02*
X026911Y008869D01*
X026782Y008997D02*
X031478Y008997D01*
X031606Y009126D02*
X026664Y009126D01*
X026500Y009254D02*
X031733Y009254D01*
X031897Y009383D02*
X026340Y009383D01*
X026128Y009511D02*
X032061Y009511D01*
X032277Y009640D02*
X025887Y009640D01*
X025601Y009768D02*
X032536Y009768D01*
X032874Y009897D02*
X025074Y009897D01*
X023974Y009924D02*
X023903Y009920D01*
X023874Y009906D01*
X013092Y006941D02*
X012900Y006941D01*
X012819Y007070D02*
X013039Y007070D01*
X013015Y007198D02*
X012647Y007198D01*
X036080Y012210D02*
X040595Y012210D01*
X040595Y012338D02*
X036208Y012338D01*
X036337Y012467D02*
X040595Y012467D01*
X040595Y012595D02*
X036465Y012595D01*
X036581Y012724D02*
X040595Y012724D01*
X040595Y012852D02*
X036634Y012852D01*
X036655Y012981D02*
X040595Y012981D01*
X040595Y013109D02*
X036655Y013109D01*
X036655Y013238D02*
X040595Y013238D01*
X040595Y013366D02*
X036655Y013366D01*
X036655Y013495D02*
X040595Y013495D01*
X040595Y013623D02*
X036655Y013623D01*
X036655Y013752D02*
X040595Y013752D01*
X040595Y013880D02*
X036655Y013880D01*
X036655Y014009D02*
X040595Y014009D01*
X040595Y014137D02*
X036655Y014137D01*
X036655Y014266D02*
X040595Y014266D01*
X040595Y014394D02*
X036655Y014394D01*
X036655Y014523D02*
X040595Y014523D01*
X040595Y014651D02*
X036655Y014651D01*
X036655Y014780D02*
X040595Y014780D01*
X040595Y014908D02*
X036655Y014908D01*
X036655Y015037D02*
X040595Y015037D01*
X040595Y015165D02*
X036655Y015165D01*
X036655Y015294D02*
X040595Y015294D01*
X040595Y015422D02*
X039285Y015422D01*
X039634Y015551D02*
X040595Y015551D01*
X040595Y015679D02*
X039907Y015679D01*
X040090Y015808D02*
X040595Y015808D01*
X040595Y015936D02*
X040245Y015936D01*
X040400Y016065D02*
X040595Y016065D01*
X040595Y016193D02*
X040512Y016193D01*
X038025Y015422D02*
X036655Y015422D01*
X036655Y015551D02*
X037630Y015551D01*
X037413Y015679D02*
X036655Y015679D01*
X036655Y015808D02*
X037211Y015808D01*
X037037Y015936D02*
X036655Y015936D01*
X036655Y016065D02*
X036916Y016065D01*
X036795Y016193D02*
X036655Y016193D01*
X036655Y016322D02*
X036675Y016322D01*
D16*
X036110Y018931D02*
X036110Y013011D01*
X035030Y011931D01*
X028030Y017611D02*
X027850Y017431D01*
X021550Y017431D01*
X021210Y017771D01*
X021210Y018511D01*
X020990Y018731D01*
X016570Y018731D01*
X016330Y018511D01*
X016330Y017821D01*
X015510Y019451D02*
X014330Y018271D01*
X014330Y017821D01*
X015510Y019451D02*
X035590Y019451D01*
X036110Y018931D01*
X028030Y017931D02*
X028030Y017611D01*
M02*
