G04 This is an RS-274x file exported by *
G04 gerbv version 2.6.0 *
G04 More information is available about gerbv at *
G04 http://gerbv.gpleda.org/ *
G04 --End of header info--*
%MOIN*%
%FSLAX34Y34*%
%IPPOS*%
G04 --Define apertures--*
%ADD10C,0.0200*%
%ADD11C,0.0160*%
%ADD12C,0.0140*%
%ADD13R,0.0075X0.0025*%
%ADD14R,0.0124X0.0025*%
%ADD15R,0.0051X0.0025*%
%ADD16R,0.0050X0.0025*%
%ADD17R,0.0100X0.0025*%
%ADD18R,0.0026X0.0025*%
%ADD19R,0.0025X0.0025*%
%ADD20R,0.0049X0.0025*%
%ADD21R,0.0076X0.0025*%
%ADD22R,0.0174X0.0025*%
%ADD23R,0.0149X0.0025*%
%ADD24R,0.0101X0.0025*%
%ADD25R,0.0024X0.0025*%
%ADD26R,0.0151X0.0025*%
%ADD27R,0.0199X0.0025*%
%ADD28R,0.0125X0.0025*%
%ADD29R,0.0200X0.0025*%
%ADD30R,0.0250X0.0025*%
%ADD31R,0.0099X0.0025*%
%ADD32R,0.0176X0.0025*%
%ADD33R,0.0225X0.0025*%
%ADD34R,0.0126X0.0025*%
%ADD35R,0.0074X0.0025*%
%ADD36R,0.0300X0.0025*%
%ADD37R,0.0374X0.0025*%
%ADD38R,0.0525X0.0025*%
%ADD39R,0.0326X0.0025*%
%ADD40R,0.0275X0.0025*%
%ADD41R,0.0201X0.0025*%
%ADD42R,0.0150X0.0025*%
%ADD43R,0.0175X0.0025*%
%ADD44R,0.0224X0.0025*%
%ADD45R,0.0249X0.0025*%
%ADD46R,0.0625X0.0025*%
%ADD47R,0.0226X0.0025*%
%ADD48R,0.0950X0.0025*%
%ADD49R,0.1250X0.0025*%
%ADD50R,0.1276X0.0025*%
%ADD51R,0.1500X0.0025*%
%ADD52R,0.1524X0.0025*%
%ADD53R,0.1699X0.0025*%
%ADD54R,0.1724X0.0025*%
%ADD55R,0.1926X0.0025*%
%ADD56R,0.2101X0.0025*%
%ADD57R,0.2125X0.0025*%
%ADD58R,0.2275X0.0025*%
%ADD59R,0.2425X0.0025*%
%ADD60R,0.2400X0.0025*%
%ADD61R,0.2600X0.0025*%
%ADD62R,0.2551X0.0025*%
%ADD63R,0.2650X0.0025*%
%ADD64R,0.2625X0.0025*%
%ADD65R,0.2500X0.0025*%
%ADD66R,0.2599X0.0025*%
%ADD67R,0.2450X0.0025*%
%ADD68R,0.2300X0.0025*%
%ADD69R,0.2150X0.0025*%
%ADD70R,0.2175X0.0025*%
%ADD71R,0.2001X0.0025*%
%ADD72R,0.1976X0.0025*%
%ADD73R,0.1951X0.0025*%
%ADD74R,0.1824X0.0025*%
%ADD75R,0.1799X0.0025*%
%ADD76R,0.1774X0.0025*%
%ADD77R,0.1351X0.0025*%
%ADD78R,0.1150X0.0025*%
%ADD79R,0.1175X0.0025*%
%ADD80R,0.0701X0.0025*%
%ADD81R,0.0726X0.0025*%
%ADD82R,0.0251X0.0025*%
%ADD83R,0.0274X0.0025*%
%ADD84R,0.0449X0.0025*%
%ADD85R,0.0524X0.0025*%
%ADD86R,0.0399X0.0025*%
%ADD87R,0.0376X0.0025*%
%ADD88R,0.0575X0.0025*%
%ADD89R,0.0800X0.0025*%
%ADD90R,0.0401X0.0025*%
%ADD91R,0.0351X0.0025*%
%ADD92R,0.0276X0.0025*%
%ADD93R,0.0476X0.0025*%
%ADD94R,0.0325X0.0025*%
%ADD95R,0.0350X0.0025*%
%ADD96R,0.0301X0.0025*%
%ADD97R,0.0425X0.0025*%
%ADD98R,0.0375X0.0025*%
%ADD99R,0.0324X0.0025*%
%ADD100R,0.0400X0.0025*%
%ADD101R,0.1074X0.0025*%
%ADD102R,0.0951X0.0025*%
%ADD103R,0.0451X0.0025*%
%ADD104R,0.0676X0.0025*%
%ADD105R,0.0599X0.0025*%
%ADD106R,0.0725X0.0025*%
%ADD107R,0.0600X0.0025*%
%ADD108R,0.0475X0.0025*%
%ADD109R,0.0551X0.0025*%
%ADD110R,0.0499X0.0025*%
%ADD111R,0.0574X0.0025*%
%ADD112C,0.0080*%
%ADD113C,0.0060*%
G04 --Start main section--*
G54D10*
G01X0006730Y0004531D02*
G01X0006730Y0007031D01*
G01X0006730Y0007031D02*
G01X0007730Y0007031D01*
G01X0007730Y0007031D02*
G01X0008530Y0006231D01*
G01X0008530Y0006231D02*
G01X0009730Y0007331D01*
G01X0009730Y0007331D02*
G01X0010930Y0006231D01*
G01X0010930Y0006231D02*
G01X0011730Y0007031D01*
G01X0011730Y0007031D02*
G01X0012730Y0007031D01*
G01X0012730Y0007031D02*
G01X0012730Y0004531D01*
G01X0012730Y0004531D02*
G01X0009730Y0001931D01*
G01X0009730Y0001931D02*
G01X0006730Y0004531D01*
G01X0006230Y0006931D02*
G01X0003730Y0006931D01*
G01X0003730Y0006931D02*
G01X0001130Y0009931D01*
G01X0001130Y0009931D02*
G01X0003730Y0012931D01*
G01X0003730Y0012931D02*
G01X0006230Y0012931D01*
G01X0006230Y0012931D02*
G01X0006130Y0011831D01*
G01X0006130Y0011831D02*
G01X0005430Y0011131D01*
G01X0005430Y0011131D02*
G01X0006530Y0009931D01*
G01X0006530Y0009931D02*
G01X0005430Y0008731D01*
G01X0005430Y0008731D02*
G01X0006230Y0007931D01*
G01X0006230Y0007931D02*
G01X0006230Y0006931D01*
G01X0012930Y0009931D02*
G01X0014030Y0011131D01*
G01X0014030Y0011131D02*
G01X0014030Y0011231D01*
G01X0014030Y0011231D02*
G01X0013330Y0011931D01*
G01X0013330Y0011931D02*
G01X0013330Y0012931D01*
G01X0013330Y0012931D02*
G01X0015730Y0012931D01*
G01X0015730Y0012931D02*
G01X0018330Y0009931D01*
G01X0014030Y0008731D02*
G01X0012930Y0009931D01*
G01X0014030Y0008731D02*
G01X0013230Y0007931D01*
G01X0013230Y0007931D02*
G01X0013230Y0007031D01*
G01X0013230Y0007031D02*
G01X0013330Y0006931D01*
G01X0013330Y0006931D02*
G01X0015730Y0006931D01*
G01X0009730Y0012731D02*
G01X0008530Y0013831D01*
G01X0008530Y0013831D02*
G01X0007630Y0012931D01*
G01X0007630Y0012931D02*
G01X0006730Y0012931D01*
G01X0006730Y0012931D02*
G01X0006730Y0015531D01*
G01X0006730Y0015531D02*
G01X0009730Y0018131D01*
G01X0009730Y0018131D02*
G01X0012730Y0015531D01*
G01X0012730Y0015531D02*
G01X0012730Y0013131D01*
G01X0012730Y0013131D02*
G01X0012630Y0013031D01*
G01X0012630Y0013031D02*
G01X0011730Y0013031D01*
G01X0011730Y0013031D02*
G01X0010930Y0013831D01*
G01X0010930Y0013831D02*
G01X0009730Y0012731D01*
G54D11*
G01X0015830Y0007031D02*
G01X0018330Y0009931D01*
G54D12*
G01X0032440Y0003368D02*
G01X0032820Y0003368D01*
G01X0032820Y0003368D02*
G01X0032947Y0003241D01*
G01X0032947Y0003241D02*
G01X0032947Y0002734D01*
G01X0032947Y0002734D02*
G01X0032820Y0002607D01*
G01X0032820Y0002607D02*
G01X0032440Y0002607D01*
G01X0032440Y0002607D02*
G01X0032440Y0003368D01*
G01X0033269Y0003114D02*
G01X0033522Y0003368D01*
G01X0033522Y0003368D02*
G01X0033776Y0003114D01*
G01X0033776Y0003114D02*
G01X0033776Y0002607D01*
G01X0034097Y0002607D02*
G01X0034097Y0003368D01*
G01X0034097Y0003368D02*
G01X0034605Y0002607D01*
G01X0034605Y0002607D02*
G01X0034605Y0003368D01*
G01X0034926Y0003241D02*
G01X0034926Y0002734D01*
G01X0034926Y0002734D02*
G01X0035053Y0002607D01*
G01X0035053Y0002607D02*
G01X0035306Y0002607D01*
G01X0035306Y0002607D02*
G01X0035433Y0002734D01*
G01X0035755Y0002607D02*
G01X0036262Y0002607D01*
G01X0035755Y0002607D02*
G01X0035755Y0003368D01*
G01X0035755Y0003368D02*
G01X0036262Y0003368D01*
G01X0036008Y0002987D02*
G01X0035755Y0002987D01*
G01X0035433Y0003241D02*
G01X0035306Y0003368D01*
G01X0035306Y0003368D02*
G01X0035053Y0003368D01*
G01X0035053Y0003368D02*
G01X0034926Y0003241D01*
G01X0033776Y0002987D02*
G01X0033269Y0002987D01*
G01X0033269Y0003114D02*
G01X0033269Y0002607D01*
G01X0033522Y0002141D02*
G01X0033776Y0001888D01*
G01X0033776Y0001888D02*
G01X0033776Y0001381D01*
G01X0034097Y0001381D02*
G01X0034097Y0002141D01*
G01X0034097Y0002141D02*
G01X0034478Y0002141D01*
G01X0034478Y0002141D02*
G01X0034605Y0002015D01*
G01X0034605Y0002015D02*
G01X0034605Y0001761D01*
G01X0034605Y0001761D02*
G01X0034478Y0001634D01*
G01X0034478Y0001634D02*
G01X0034097Y0001634D01*
G01X0034351Y0001634D02*
G01X0034605Y0001381D01*
G01X0035180Y0001381D02*
G01X0035180Y0002141D01*
G01X0035433Y0002141D02*
G01X0034926Y0002141D01*
G01X0035755Y0002141D02*
G01X0035755Y0002015D01*
G01X0035755Y0002015D02*
G01X0036008Y0001761D01*
G01X0036008Y0001761D02*
G01X0036008Y0001381D01*
G01X0036008Y0001761D02*
G01X0036262Y0002015D01*
G01X0036262Y0002015D02*
G01X0036262Y0002141D01*
G01X0033776Y0001761D02*
G01X0033269Y0001761D01*
G01X0033269Y0001888D02*
G01X0033522Y0002141D01*
G01X0033269Y0001888D02*
G01X0033269Y0001381D01*
G01X0032947Y0001761D02*
G01X0032820Y0001634D01*
G01X0032820Y0001634D02*
G01X0032440Y0001634D01*
G01X0032947Y0001761D02*
G01X0032947Y0002015D01*
G01X0032947Y0002015D02*
G01X0032820Y0002141D01*
G01X0032820Y0002141D02*
G01X0032440Y0002141D01*
G01X0032440Y0002141D02*
G01X0032440Y0001381D01*
G01X0025937Y0002027D02*
G01X0025430Y0002027D01*
G01X0025430Y0002027D02*
G01X0025430Y0002788D01*
G01X0025430Y0002788D02*
G01X0025937Y0002788D01*
G01X0025683Y0002407D02*
G01X0025430Y0002407D01*
G01X0024855Y0002027D02*
G01X0024855Y0002788D01*
G01X0025108Y0002788D02*
G01X0024601Y0002788D01*
G01X0024302Y0002788D02*
G01X0024049Y0002788D01*
G01X0024175Y0002788D02*
G01X0024175Y0002027D01*
G01X0024049Y0002027D02*
G01X0024302Y0002027D01*
G01X0023727Y0002154D02*
G01X0023727Y0002281D01*
G01X0023727Y0002281D02*
G01X0023600Y0002407D01*
G01X0023600Y0002407D02*
G01X0023220Y0002407D01*
G01X0023220Y0002027D02*
G01X0023600Y0002027D01*
G01X0023600Y0002027D02*
G01X0023727Y0002154D01*
G01X0023600Y0002407D02*
G01X0023727Y0002534D01*
G01X0023727Y0002534D02*
G01X0023727Y0002661D01*
G01X0023727Y0002661D02*
G01X0023600Y0002788D01*
G01X0023600Y0002788D02*
G01X0023220Y0002788D01*
G01X0023220Y0002788D02*
G01X0023220Y0002027D01*
G54D13*
G01X0024835Y0004606D03*
G01X0024860Y0004831D03*
G01X0024985Y0004881D03*
G01X0025060Y0004781D03*
G01X0025085Y0004706D03*
G01X0024660Y0004906D03*
G01X0024610Y0004856D03*
G01X0024910Y0005256D03*
G01X0024885Y0005381D03*
G01X0024885Y0005406D03*
G01X0025035Y0005481D03*
G01X0025060Y0005306D03*
G01X0025235Y0005431D03*
G01X0025335Y0005481D03*
G01X0025460Y0005431D03*
G01X0025435Y0005581D03*
G01X0025510Y0005656D03*
G01X0025585Y0005756D03*
G01X0025635Y0005781D03*
G01X0025635Y0005831D03*
G01X0025585Y0005956D03*
G01X0025485Y0005856D03*
G01X0025285Y0005681D03*
G01X0025760Y0005781D03*
G01X0025910Y0005556D03*
G01X0025910Y0005531D03*
G01X0025910Y0005506D03*
G01X0025710Y0005306D03*
G01X0025285Y0005256D03*
G01X0025510Y0005056D03*
G01X0024685Y0005306D03*
G01X0024685Y0005331D03*
G01X0024685Y0005356D03*
G01X0023885Y0005481D03*
G01X0023760Y0005556D03*
G01X0023760Y0005581D03*
G01X0023760Y0005606D03*
G01X0023585Y0005531D03*
G01X0023460Y0005381D03*
G01X0023485Y0005356D03*
G01X0023360Y0005506D03*
G01X0023285Y0005581D03*
G01X0023360Y0005756D03*
G01X0022860Y0005681D03*
G01X0022785Y0005906D03*
G01X0022510Y0006031D03*
G01X0022460Y0005981D03*
G01X0022460Y0006106D03*
G01X0022335Y0006081D03*
G01X0022185Y0006381D03*
G01X0022410Y0006481D03*
G01X0022935Y0006531D03*
G01X0022960Y0006581D03*
G01X0022960Y0006606D03*
G01X0023260Y0006506D03*
G01X0023585Y0007081D03*
G01X0023610Y0007131D03*
G01X0023785Y0007106D03*
G01X0023785Y0007081D03*
G01X0023960Y0007256D03*
G01X0023960Y0007281D03*
G01X0023960Y0007406D03*
G01X0023760Y0007481D03*
G01X0024410Y0007306D03*
G01X0024685Y0007256D03*
G01X0024735Y0007356D03*
G01X0024735Y0007381D03*
G01X0024835Y0007456D03*
G01X0024985Y0007406D03*
G01X0025010Y0007381D03*
G01X0025010Y0007356D03*
G01X0025110Y0007306D03*
G01X0025235Y0007406D03*
G01X0025210Y0007431D03*
G01X0025085Y0007531D03*
G01X0025010Y0007581D03*
G01X0025485Y0007781D03*
G01X0025510Y0007756D03*
G01X0025510Y0007731D03*
G01X0025535Y0007706D03*
G01X0025310Y0008031D03*
G01X0025310Y0008056D03*
G01X0025310Y0008281D03*
G01X0024960Y0008256D03*
G01X0023960Y0008256D03*
G01X0023960Y0008281D03*
G01X0023635Y0008181D03*
G01X0023635Y0008131D03*
G01X0023610Y0008056D03*
G01X0023610Y0008031D03*
G01X0023910Y0008581D03*
G01X0023910Y0008606D03*
G01X0023935Y0008631D03*
G01X0024185Y0008956D03*
G01X0024210Y0008981D03*
G01X0024585Y0009106D03*
G01X0024635Y0009081D03*
G01X0024660Y0009056D03*
G01X0024685Y0009031D03*
G01X0025435Y0007206D03*
G01X0025435Y0007181D03*
G01X0025310Y0007006D03*
G01X0025310Y0006981D03*
G01X0025310Y0006956D03*
G01X0025460Y0006906D03*
G01X0025535Y0006781D03*
G01X0025910Y0006756D03*
G01X0025910Y0006731D03*
G01X0025910Y0006706D03*
G01X0025935Y0006681D03*
G01X0025935Y0006656D03*
G01X0026285Y0006381D03*
G01X0026385Y0006656D03*
G01X0026785Y0006331D03*
G01X0026860Y0006431D03*
G01X0026785Y0006056D03*
G01X0026760Y0006031D03*
G01X0026735Y0006006D03*
G01X0026710Y0005981D03*
G01X0026685Y0005956D03*
G01X0026335Y0005906D03*
G01X0026260Y0005806D03*
G01X0026110Y0005831D03*
G01X0026110Y0005856D03*
G01X0026110Y0005881D03*
G01X0026110Y0005906D03*
G01X0026110Y0006131D03*
G01X0025860Y0006131D03*
G01X0025860Y0006106D03*
G01X0026310Y0005556D03*
G01X0026335Y0005531D03*
G01X0026585Y0005456D03*
G01X0026585Y0005431D03*
G01X0026685Y0005456D03*
G01X0026710Y0005631D03*
G01X0026910Y0005681D03*
G01X0026735Y0005106D03*
G01X0023760Y0005106D03*
G01X0023260Y0004881D03*
G01X0023585Y0004756D03*
G01X0022935Y0005156D03*
G01X0022710Y0005356D03*
G01X0022635Y0005506D03*
G01X0022435Y0005781D03*
G01X0022085Y0005156D03*
G01X0022010Y0005106D03*
G01X0022335Y0006756D03*
G01X0025860Y0007006D03*
G01X0029800Y0006146D03*
G01X0030925Y0005671D03*
G01X0031375Y0005471D03*
G01X0031400Y0005446D03*
G01X0031425Y0005421D03*
G01X0031750Y0005121D03*
G01X0031775Y0005096D03*
G01X0032475Y0005371D03*
G01X0032500Y0005396D03*
G01X0032525Y0005421D03*
G01X0032550Y0005446D03*
G01X0032575Y0005471D03*
G01X0032475Y0005471D03*
G01X0032725Y0005446D03*
G01X0032750Y0005471D03*
G01X0032900Y0005921D03*
G01X0032975Y0006021D03*
G01X0033000Y0006046D03*
G01X0033025Y0006096D03*
G01X0033125Y0006246D03*
G01X0033175Y0006321D03*
G01X0033200Y0006371D03*
G01X0033225Y0006396D03*
G01X0033325Y0006571D03*
G01X0033350Y0006596D03*
G01X0033350Y0006621D03*
G01X0033375Y0006646D03*
G01X0033375Y0006671D03*
G01X0033400Y0006696D03*
G01X0033425Y0006721D03*
G01X0033450Y0006771D03*
G01X0033550Y0006921D03*
G01X0033600Y0006996D03*
G01X0033625Y0007021D03*
G01X0033650Y0007046D03*
G01X0033675Y0007096D03*
G01X0033700Y0007121D03*
G01X0033725Y0007146D03*
G01X0033750Y0007171D03*
G01X0033775Y0007196D03*
G01X0033825Y0007271D03*
G01X0032300Y0007921D03*
G01X0032300Y0007946D03*
G01X0032300Y0007971D03*
G01X0031675Y0008446D03*
G01X0031650Y0008471D03*
G01X0031125Y0009046D03*
G01X0031100Y0009096D03*
G01X0031075Y0009121D03*
G01X0031075Y0009146D03*
G01X0031050Y0009196D03*
G01X0031050Y0009221D03*
G01X0031050Y0009671D03*
G01X0031050Y0009696D03*
G01X0031075Y0009746D03*
G01X0031075Y0009771D03*
G01X0031100Y0009796D03*
G01X0031125Y0009846D03*
G01X0032125Y0009771D03*
G01X0032150Y0009721D03*
G01X0032150Y0009696D03*
G01X0032175Y0009671D03*
G01X0032175Y0009646D03*
G01X0032200Y0009596D03*
G01X0032200Y0009571D03*
G01X0032200Y0009546D03*
G01X0032200Y0009521D03*
G01X0032200Y0009421D03*
G01X0032200Y0009396D03*
G01X0032200Y0009371D03*
G01X0032200Y0009346D03*
G01X0032175Y0009321D03*
G01X0032175Y0009296D03*
G01X0032175Y0009271D03*
G01X0032150Y0009221D03*
G01X0032125Y0009171D03*
G01X0032100Y0009146D03*
G01X0032300Y0009046D03*
G01X0032300Y0009021D03*
G01X0032325Y0009071D03*
G01X0032350Y0009096D03*
G01X0032350Y0009121D03*
G01X0032375Y0009146D03*
G01X0032375Y0009171D03*
G01X0032375Y0009196D03*
G01X0032400Y0009221D03*
G01X0032400Y0009246D03*
G01X0032400Y0009271D03*
G01X0032425Y0009346D03*
G01X0032425Y0009371D03*
G01X0032425Y0009571D03*
G01X0032425Y0009596D03*
G01X0032425Y0009621D03*
G01X0032425Y0009646D03*
G01X0032400Y0009671D03*
G01X0032400Y0009696D03*
G01X0032400Y0009721D03*
G01X0032375Y0009746D03*
G01X0032375Y0009771D03*
G01X0032350Y0009796D03*
G01X0032325Y0009821D03*
G01X0032325Y0009846D03*
G01X0032300Y0009871D03*
G01X0033325Y0009471D03*
G01X0033375Y0009371D03*
G01X0033425Y0009221D03*
G01X0033425Y0009196D03*
G01X0033425Y0009171D03*
G01X0033450Y0009096D03*
G01X0033550Y0008921D03*
G01X0033550Y0008896D03*
G01X0033625Y0008746D03*
G01X0033650Y0008721D03*
G01X0033650Y0008696D03*
G01X0033675Y0008646D03*
G01X0033700Y0008596D03*
G01X0033725Y0008571D03*
G01X0033750Y0008521D03*
G01X0033775Y0008496D03*
G01X0033775Y0008471D03*
G01X0033800Y0008421D03*
G01X0033825Y0008346D03*
G01X0033850Y0008321D03*
G01X0033850Y0008296D03*
G01X0034425Y0008646D03*
G01X0034375Y0008721D03*
G01X0034175Y0008921D03*
G01X0036650Y0009271D03*
G01X0036625Y0009671D03*
G01X0036625Y0009696D03*
G01X0036775Y0008871D03*
G01X0037250Y0008846D03*
G01X0037300Y0008596D03*
G01X0037300Y0008571D03*
G01X0037375Y0008421D03*
G01X0037325Y0008346D03*
G01X0037300Y0008321D03*
G01X0036650Y0008421D03*
G01X0036150Y0007546D03*
G01X0036000Y0007321D03*
G01X0036050Y0007021D03*
G01X0036675Y0006446D03*
G01X0036775Y0006246D03*
G01X0034750Y0005871D03*
G01X0034350Y0005471D03*
G01X0033350Y0004996D03*
G01X0033325Y0004946D03*
G01X0033225Y0004846D03*
G01X0033225Y0004821D03*
G01X0033200Y0004796D03*
G01X0033175Y0004771D03*
G01X0033150Y0004746D03*
G01X0033125Y0004721D03*
G01X0033150Y0004871D03*
G01X0031950Y0004471D03*
G01X0031375Y0004321D03*
G01X0031350Y0004446D03*
G01X0031375Y0004096D03*
G01X0031375Y0004071D03*
G01X0031375Y0004046D03*
G01X0031375Y0004021D03*
G01X0031375Y0003971D03*
G01X0031750Y0004046D03*
G01X0031775Y0004071D03*
G01X0031425Y0003596D03*
G01X0031400Y0003571D03*
G01X0030950Y0004871D03*
G01X0030825Y0005021D03*
G01X0030800Y0005046D03*
G01X0030725Y0005146D03*
G01X0033150Y0005921D03*
G01X0033200Y0005996D03*
G01X0031675Y0006696D03*
G01X0032025Y0007046D03*
G01X0031775Y0007346D03*
G01X0031750Y0007371D03*
G01X0031725Y0007421D03*
G01X0031725Y0007446D03*
G54D14*
G01X0030875Y0005796D03*
G01X0030825Y0005821D03*
G01X0030925Y0005771D03*
G01X0031125Y0005646D03*
G01X0031225Y0005571D03*
G01X0033225Y0004971D03*
G01X0034425Y0005621D03*
G01X0036450Y0006271D03*
G01X0036200Y0006896D03*
G01X0036100Y0006971D03*
G01X0035825Y0007371D03*
G01X0035525Y0008746D03*
G01X0035725Y0008871D03*
G01X0036100Y0008996D03*
G01X0036350Y0009221D03*
G01X0036200Y0009521D03*
G01X0036250Y0009871D03*
G01X0025810Y0006231D03*
G01X0025810Y0006206D03*
G01X0025760Y0006356D03*
G01X0025810Y0005656D03*
G01X0024535Y0004906D03*
G01X0024335Y0004631D03*
G01X0023735Y0005181D03*
G01X0023710Y0005206D03*
G01X0023660Y0005231D03*
G01X0023685Y0005456D03*
G01X0024060Y0005481D03*
G01X0024060Y0005506D03*
G01X0022810Y0005756D03*
G01X0022810Y0005856D03*
G01X0023360Y0004831D03*
G01X0023385Y0006881D03*
G01X0024035Y0007131D03*
G01X0024310Y0007556D03*
G01X0023460Y0007831D03*
G01X0031225Y0003471D03*
G01X0031825Y0004196D03*
G01X0031850Y0004296D03*
G54D15*
G01X0030988Y0005646D03*
G01X0032863Y0005596D03*
G01X0036013Y0007046D03*
G01X0036013Y0007346D03*
G01X0036013Y0007596D03*
G01X0036013Y0007621D03*
G01X0036013Y0007971D03*
G01X0037263Y0008496D03*
G01X0037263Y0008821D03*
G01X0033513Y0008971D03*
G01X0033513Y0009246D03*
G01X0033513Y0009271D03*
G01X0031013Y0009346D03*
G01X0031013Y0009371D03*
G01X0031013Y0009421D03*
G01X0031013Y0009446D03*
G01X0031013Y0009496D03*
G01X0031013Y0009521D03*
G01X0031013Y0009546D03*
G01X0025398Y0008156D03*
G01X0025373Y0008181D03*
G01X0025373Y0008206D03*
G01X0024773Y0007506D03*
G01X0024473Y0007506D03*
G01X0024473Y0007531D03*
G01X0024473Y0007556D03*
G01X0024148Y0007281D03*
G01X0024148Y0007256D03*
G01X0024148Y0007231D03*
G01X0023823Y0007306D03*
G01X0023848Y0007531D03*
G01X0023223Y0007631D03*
G01X0023548Y0007256D03*
G01X0023523Y0007231D03*
G01X0023548Y0007031D03*
G01X0023523Y0007006D03*
G01X0023823Y0007056D03*
G01X0023223Y0007106D03*
G01X0023198Y0007056D03*
G01X0023073Y0006831D03*
G01X0022898Y0006431D03*
G01X0022898Y0006406D03*
G01X0022873Y0006356D03*
G01X0022873Y0006331D03*
G01X0023073Y0006106D03*
G01X0023073Y0006081D03*
G01X0023073Y0006056D03*
G01X0023073Y0006006D03*
G01X0023073Y0005981D03*
G01X0023073Y0005956D03*
G01X0023198Y0005981D03*
G01X0023223Y0005906D03*
G01X0023198Y0006081D03*
G01X0023198Y0006106D03*
G01X0023198Y0005706D03*
G01X0022898Y0005656D03*
G01X0022723Y0005556D03*
G01X0022723Y0005531D03*
G01X0022748Y0005481D03*
G01X0022748Y0005456D03*
G01X0022748Y0005431D03*
G01X0022723Y0005331D03*
G01X0022723Y0005306D03*
G01X0022723Y0005281D03*
G01X0022748Y0005231D03*
G01X0022898Y0005306D03*
G01X0022898Y0005331D03*
G01X0023048Y0005456D03*
G01X0023198Y0005006D03*
G01X0023198Y0004981D03*
G01X0023198Y0004956D03*
G01X0023223Y0004931D03*
G01X0023523Y0004931D03*
G01X0023548Y0005006D03*
G01X0023548Y0005031D03*
G01X0023848Y0005056D03*
G01X0024448Y0004856D03*
G01X0024798Y0004856D03*
G01X0024798Y0004631D03*
G01X0025373Y0004981D03*
G01X0026048Y0005406D03*
G01X0026623Y0005206D03*
G01X0026648Y0005181D03*
G01X0026648Y0005756D03*
G01X0026048Y0005781D03*
G01X0026023Y0005706D03*
G01X0025398Y0005731D03*
G01X0025398Y0005756D03*
G01X0024448Y0005281D03*
G01X0024473Y0005231D03*
G01X0023523Y0005706D03*
G01X0023523Y0005731D03*
G01X0022523Y0005831D03*
G01X0022523Y0005931D03*
G01X0022373Y0005881D03*
G01X0022373Y0005856D03*
G01X0022173Y0005831D03*
G01X0022173Y0005956D03*
G01X0022098Y0006031D03*
G01X0022173Y0006131D03*
G01X0022373Y0006356D03*
G01X0022348Y0006381D03*
G01X0022523Y0006131D03*
G01X0022098Y0005181D03*
G01X0025373Y0007056D03*
G01X0025398Y0007031D03*
G01X0025398Y0007231D03*
G01X0024798Y0007256D03*
G01X0023823Y0008281D03*
G01X0023823Y0008306D03*
G01X0023823Y0008356D03*
G01X0023848Y0008381D03*
G01X0023548Y0008206D03*
G01X0023523Y0008181D03*
G01X0024148Y0008931D03*
G01X0024773Y0008956D03*
G01X0036588Y0006571D03*
G54D16*
G01X0036563Y0006596D03*
G01X0036513Y0006646D03*
G01X0036463Y0006696D03*
G01X0036313Y0006821D03*
G01X0036613Y0006546D03*
G01X0036613Y0006521D03*
G01X0036638Y0006496D03*
G01X0036663Y0006471D03*
G01X0036688Y0006421D03*
G01X0036713Y0006396D03*
G01X0036713Y0006371D03*
G01X0036738Y0006346D03*
G01X0036738Y0006321D03*
G01X0036788Y0006221D03*
G01X0036788Y0006196D03*
G01X0036788Y0006171D03*
G01X0035187Y0006421D03*
G01X0035187Y0006546D03*
G01X0035187Y0006571D03*
G01X0035213Y0006646D03*
G01X0035213Y0006671D03*
G01X0035237Y0006721D03*
G01X0035287Y0006821D03*
G01X0035688Y0007196D03*
G01X0035762Y0007246D03*
G01X0035762Y0007271D03*
G01X0035788Y0007221D03*
G01X0035812Y0007196D03*
G01X0035912Y0007221D03*
G01X0035938Y0007246D03*
G01X0035962Y0007296D03*
G01X0036038Y0007396D03*
G01X0036063Y0007421D03*
G01X0036088Y0007446D03*
G01X0036088Y0007471D03*
G01X0036113Y0007496D03*
G01X0036163Y0007571D03*
G01X0036187Y0007596D03*
G01X0036213Y0007621D03*
G01X0036213Y0007646D03*
G01X0036237Y0007671D03*
G01X0036263Y0007721D03*
G01X0036287Y0007746D03*
G01X0036313Y0007771D03*
G01X0036313Y0007796D03*
G01X0036337Y0007821D03*
G01X0036363Y0007846D03*
G01X0036363Y0007871D03*
G01X0036387Y0007896D03*
G01X0036413Y0007946D03*
G01X0036437Y0007971D03*
G01X0036437Y0007996D03*
G01X0036463Y0008021D03*
G01X0036487Y0008071D03*
G01X0036513Y0008121D03*
G01X0036563Y0008221D03*
G01X0036563Y0008246D03*
G01X0036463Y0008296D03*
G01X0036537Y0008446D03*
G01X0036663Y0008446D03*
G01X0036688Y0008296D03*
G01X0036688Y0008271D03*
G01X0036713Y0008246D03*
G01X0036713Y0008221D03*
G01X0036738Y0008196D03*
G01X0036812Y0008196D03*
G01X0037038Y0008296D03*
G01X0037062Y0008346D03*
G01X0037062Y0008371D03*
G01X0037088Y0008396D03*
G01X0037088Y0008421D03*
G01X0037088Y0008446D03*
G01X0037088Y0008471D03*
G01X0037112Y0008496D03*
G01X0037112Y0008521D03*
G01X0037112Y0008546D03*
G01X0037138Y0008571D03*
G01X0037138Y0008596D03*
G01X0037162Y0008621D03*
G01X0037313Y0008621D03*
G01X0037413Y0008696D03*
G01X0037288Y0008771D03*
G01X0037238Y0008871D03*
G01X0037212Y0008921D03*
G01X0037212Y0008946D03*
G01X0037188Y0008971D03*
G01X0037162Y0008996D03*
G01X0037038Y0009146D03*
G01X0037012Y0009171D03*
G01X0036962Y0009071D03*
G01X0036888Y0008971D03*
G01X0036862Y0008946D03*
G01X0036738Y0008821D03*
G01X0036713Y0008796D03*
G01X0036713Y0008771D03*
G01X0036688Y0008746D03*
G01X0036688Y0008721D03*
G01X0036613Y0008621D03*
G01X0037288Y0008296D03*
G01X0037338Y0008371D03*
G01X0037363Y0008396D03*
G01X0037388Y0008446D03*
G01X0037388Y0008471D03*
G01X0037413Y0008496D03*
G01X0037413Y0008521D03*
G01X0036187Y0009146D03*
G01X0036113Y0009321D03*
G01X0036113Y0009346D03*
G01X0035812Y0009271D03*
G01X0035788Y0009246D03*
G01X0035738Y0009171D03*
G01X0035712Y0009146D03*
G01X0035712Y0009121D03*
G01X0035688Y0009096D03*
G01X0035662Y0009046D03*
G01X0035662Y0009021D03*
G01X0035638Y0008996D03*
G01X0035638Y0008971D03*
G01X0035638Y0008946D03*
G01X0036187Y0009721D03*
G01X0036187Y0009746D03*
G01X0036213Y0009796D03*
G01X0036263Y0010096D03*
G01X0036263Y0010121D03*
G01X0036263Y0010146D03*
G01X0036263Y0010171D03*
G01X0036337Y0010196D03*
G01X0036363Y0010146D03*
G01X0036387Y0010121D03*
G01X0036287Y0010271D03*
G01X0036487Y0009946D03*
G01X0036613Y0009721D03*
G01X0036738Y0009496D03*
G01X0034712Y0008196D03*
G01X0034688Y0008221D03*
G01X0034662Y0008246D03*
G01X0034662Y0008271D03*
G01X0034638Y0008296D03*
G01X0034612Y0008346D03*
G01X0034588Y0008371D03*
G01X0034562Y0008421D03*
G01X0034538Y0008471D03*
G01X0033863Y0008271D03*
G01X0033813Y0008371D03*
G01X0033813Y0008396D03*
G01X0033788Y0008446D03*
G01X0033738Y0008546D03*
G01X0033688Y0008621D03*
G01X0033663Y0008671D03*
G01X0033588Y0008821D03*
G01X0033588Y0008846D03*
G01X0033563Y0008871D03*
G01X0033462Y0009046D03*
G01X0033462Y0009071D03*
G01X0033437Y0009121D03*
G01X0033437Y0009146D03*
G01X0033412Y0009246D03*
G01X0033788Y0009146D03*
G01X0032438Y0009396D03*
G01X0032438Y0009421D03*
G01X0032438Y0009446D03*
G01X0032438Y0009471D03*
G01X0032438Y0009496D03*
G01X0032438Y0009521D03*
G01X0032438Y0009546D03*
G01X0032413Y0009321D03*
G01X0032413Y0009296D03*
G01X0032212Y0009446D03*
G01X0032212Y0009496D03*
G01X0032187Y0009621D03*
G01X0032137Y0009746D03*
G01X0032112Y0009796D03*
G01X0031063Y0009721D03*
G01X0031038Y0009646D03*
G01X0031063Y0009171D03*
G01X0031638Y0008821D03*
G01X0031638Y0008796D03*
G01X0032137Y0009196D03*
G01X0032162Y0009246D03*
G01X0033937Y0008096D03*
G01X0033937Y0008071D03*
G01X0033937Y0007821D03*
G01X0033937Y0007796D03*
G01X0033937Y0007771D03*
G01X0033937Y0007746D03*
G01X0033937Y0007721D03*
G01X0033937Y0007696D03*
G01X0033937Y0007671D03*
G01X0033937Y0007646D03*
G01X0033937Y0007621D03*
G01X0033937Y0007596D03*
G01X0033937Y0007571D03*
G01X0033937Y0007546D03*
G01X0033937Y0007521D03*
G01X0033937Y0007496D03*
G01X0033937Y0007471D03*
G01X0033937Y0007446D03*
G01X0033937Y0007421D03*
G01X0033863Y0006996D03*
G01X0033788Y0006871D03*
G01X0033763Y0006846D03*
G01X0033312Y0006546D03*
G01X0033238Y0006421D03*
G01X0033188Y0006346D03*
G01X0033163Y0006296D03*
G01X0033138Y0006271D03*
G01X0033113Y0006221D03*
G01X0033088Y0006196D03*
G01X0033088Y0006171D03*
G01X0033063Y0006146D03*
G01X0033038Y0006121D03*
G01X0033013Y0006071D03*
G01X0032963Y0005996D03*
G01X0032938Y0005971D03*
G01X0032913Y0005946D03*
G01X0032787Y0005821D03*
G01X0032662Y0005821D03*
G01X0032662Y0005771D03*
G01X0032787Y0005521D03*
G01X0032787Y0005496D03*
G01X0033013Y0005796D03*
G01X0033163Y0005946D03*
G01X0033188Y0005971D03*
G01X0034462Y0005371D03*
G01X0034488Y0005421D03*
G01X0034512Y0005471D03*
G01X0034538Y0005521D03*
G01X0034538Y0005546D03*
G01X0034562Y0005571D03*
G01X0034562Y0005596D03*
G01X0034562Y0005621D03*
G01X0034588Y0005646D03*
G01X0034588Y0005671D03*
G01X0033337Y0004971D03*
G01X0033063Y0004646D03*
G01X0031763Y0004571D03*
G01X0031688Y0004571D03*
G01X0031363Y0004421D03*
G01X0031363Y0004396D03*
G01X0031363Y0004371D03*
G01X0031363Y0004346D03*
G01X0031388Y0004296D03*
G01X0031388Y0004271D03*
G01X0031388Y0004246D03*
G01X0031388Y0004221D03*
G01X0031388Y0004196D03*
G01X0031388Y0004171D03*
G01X0031388Y0004146D03*
G01X0031388Y0004121D03*
G01X0031363Y0003996D03*
G01X0031562Y0003996D03*
G01X0031638Y0004071D03*
G01X0031388Y0003721D03*
G01X0031338Y0004471D03*
G01X0030813Y0005696D03*
G01X0032012Y0006971D03*
G01X0032012Y0006996D03*
G01X0032012Y0007021D03*
G01X0032012Y0007071D03*
G01X0032288Y0007896D03*
G01X0034937Y0007946D03*
G01X0035812Y0007621D03*
G01X0035838Y0007546D03*
G01X0035838Y0007521D03*
G01X0035838Y0007496D03*
G01X0035938Y0007596D03*
G01X0035912Y0007621D03*
G01X0035912Y0007646D03*
G01X0035912Y0007671D03*
G01X0035888Y0007696D03*
G01X0035888Y0007721D03*
G01X0035988Y0007746D03*
G01X0035988Y0007771D03*
G01X0035962Y0007846D03*
G01X0036063Y0007871D03*
G01X0036113Y0007996D03*
G01X0035888Y0007921D03*
G01X0036088Y0007696D03*
G01X0035838Y0007346D03*
G01X0035762Y0007346D03*
G01X0026898Y0006456D03*
G01X0026848Y0006281D03*
G01X0026723Y0006281D03*
G01X0026698Y0006256D03*
G01X0026597Y0006181D03*
G01X0026572Y0006106D03*
G01X0026547Y0006031D03*
G01X0026547Y0006006D03*
G01X0026497Y0005956D03*
G01X0026398Y0005981D03*
G01X0026323Y0005981D03*
G01X0026323Y0006006D03*
G01X0026323Y0005956D03*
G01X0026323Y0005881D03*
G01X0026348Y0005706D03*
G01X0026348Y0005681D03*
G01X0026348Y0005656D03*
G01X0026323Y0005631D03*
G01X0026323Y0005606D03*
G01X0026323Y0005581D03*
G01X0026398Y0005556D03*
G01X0026597Y0005531D03*
G01X0026597Y0005481D03*
G01X0026572Y0005406D03*
G01X0026572Y0005381D03*
G01X0026572Y0005356D03*
G01X0026673Y0005156D03*
G01X0026698Y0005131D03*
G01X0026798Y0005081D03*
G01X0026823Y0005556D03*
G01X0026748Y0005656D03*
G01X0026773Y0005681D03*
G01X0026798Y0005731D03*
G01X0026923Y0005706D03*
G01X0026673Y0005781D03*
G01X0026698Y0005856D03*
G01X0026698Y0005881D03*
G01X0026698Y0005906D03*
G01X0026798Y0006081D03*
G01X0026823Y0006106D03*
G01X0026848Y0006156D03*
G01X0026472Y0006406D03*
G01X0026373Y0006481D03*
G01X0026472Y0006556D03*
G01X0026298Y0006656D03*
G01X0026348Y0006331D03*
G01X0026373Y0006281D03*
G01X0026373Y0006256D03*
G01X0026373Y0006231D03*
G01X0026373Y0006206D03*
G01X0026348Y0006081D03*
G01X0026198Y0006131D03*
G01X0026223Y0006231D03*
G01X0026223Y0006256D03*
G01X0026223Y0006281D03*
G01X0026098Y0006206D03*
G01X0026098Y0006181D03*
G01X0026098Y0006156D03*
G01X0026123Y0006006D03*
G01X0026123Y0005981D03*
G01X0026123Y0005956D03*
G01X0025997Y0006006D03*
G01X0025972Y0006031D03*
G01X0025872Y0006056D03*
G01X0025872Y0006081D03*
G01X0025847Y0005981D03*
G01X0025847Y0005956D03*
G01X0025773Y0006006D03*
G01X0025748Y0005981D03*
G01X0025698Y0005931D03*
G01X0025598Y0005931D03*
G01X0025648Y0005806D03*
G01X0025748Y0005756D03*
G01X0025748Y0005731D03*
G01X0025723Y0005706D03*
G01X0025698Y0005681D03*
G01X0025748Y0005631D03*
G01X0025723Y0005606D03*
G01X0025698Y0005581D03*
G01X0025673Y0005556D03*
G01X0025673Y0005531D03*
G01X0025623Y0005581D03*
G01X0025648Y0005606D03*
G01X0025598Y0005556D03*
G01X0025573Y0005531D03*
G01X0025548Y0005506D03*
G01X0025448Y0005606D03*
G01X0025347Y0005531D03*
G01X0025347Y0005506D03*
G01X0025297Y0005606D03*
G01X0025297Y0005631D03*
G01X0025297Y0005656D03*
G01X0025498Y0005806D03*
G01X0025498Y0005831D03*
G01X0025548Y0005706D03*
G01X0025773Y0005806D03*
G01X0025872Y0005631D03*
G01X0025972Y0005631D03*
G01X0026123Y0005631D03*
G01X0026123Y0005656D03*
G01X0026148Y0005681D03*
G01X0026123Y0005781D03*
G01X0025897Y0005481D03*
G01X0025897Y0005456D03*
G01X0025897Y0005431D03*
G01X0025897Y0005406D03*
G01X0025897Y0005381D03*
G01X0025897Y0005356D03*
G01X0025897Y0005331D03*
G01X0025922Y0005306D03*
G01X0025997Y0005331D03*
G01X0026073Y0005431D03*
G01X0026073Y0005456D03*
G01X0025748Y0005356D03*
G01X0025748Y0005331D03*
G01X0025623Y0005356D03*
G01X0025598Y0005331D03*
G01X0025598Y0005306D03*
G01X0025598Y0005281D03*
G01X0025598Y0005256D03*
G01X0025598Y0005231D03*
G01X0025598Y0005206D03*
G01X0025598Y0005181D03*
G01X0025598Y0005156D03*
G01X0025598Y0005106D03*
G01X0025448Y0005006D03*
G01X0025448Y0004981D03*
G01X0025448Y0004906D03*
G01X0025448Y0004881D03*
G01X0025448Y0004856D03*
G01X0025347Y0004856D03*
G01X0025347Y0004881D03*
G01X0025347Y0004906D03*
G01X0025123Y0004731D03*
G01X0024898Y0004706D03*
G01X0024873Y0004756D03*
G01X0024848Y0004781D03*
G01X0024848Y0004806D03*
G01X0024747Y0004781D03*
G01X0024747Y0004731D03*
G01X0024622Y0004831D03*
G01X0024422Y0004831D03*
G01X0024422Y0004806D03*
G01X0024422Y0004781D03*
G01X0024422Y0004756D03*
G01X0024422Y0004656D03*
G01X0024273Y0004656D03*
G01X0023797Y0004731D03*
G01X0023797Y0004756D03*
G01X0023772Y0004781D03*
G01X0023747Y0004806D03*
G01X0023623Y0004731D03*
G01X0023598Y0004781D03*
G01X0023598Y0004806D03*
G01X0023598Y0004931D03*
G01X0023573Y0004956D03*
G01X0023497Y0004956D03*
G01X0023472Y0004981D03*
G01X0023472Y0005131D03*
G01X0023573Y0005106D03*
G01X0023447Y0005406D03*
G01X0023373Y0005481D03*
G01X0023323Y0005531D03*
G01X0023298Y0005556D03*
G01X0023248Y0005631D03*
G01X0023323Y0005781D03*
G01X0023298Y0005831D03*
G01X0023248Y0005881D03*
G01X0023348Y0005906D03*
G01X0023348Y0005931D03*
G01X0023348Y0005956D03*
G01X0023273Y0006006D03*
G01X0023273Y0006031D03*
G01X0023098Y0006131D03*
G01X0023098Y0006156D03*
G01X0022948Y0006006D03*
G01X0022973Y0005956D03*
G01X0022973Y0005931D03*
G01X0022973Y0005906D03*
G01X0022973Y0005881D03*
G01X0023098Y0005881D03*
G01X0023098Y0005906D03*
G01X0023098Y0005931D03*
G01X0023123Y0005856D03*
G01X0023123Y0005831D03*
G01X0022923Y0005631D03*
G01X0022948Y0005606D03*
G01X0022948Y0005581D03*
G01X0022973Y0005556D03*
G01X0022923Y0005281D03*
G01X0023098Y0005281D03*
G01X0023472Y0005606D03*
G01X0023598Y0005506D03*
G01X0023623Y0005481D03*
G01X0023747Y0005506D03*
G01X0023747Y0005531D03*
G01X0023648Y0005631D03*
G01X0023648Y0005656D03*
G01X0023648Y0005681D03*
G01X0023447Y0005831D03*
G01X0023447Y0005856D03*
G01X0022773Y0005956D03*
G01X0022773Y0005981D03*
G01X0022773Y0006006D03*
G01X0022573Y0006006D03*
G01X0022498Y0006056D03*
G01X0022498Y0005956D03*
G01X0022423Y0005956D03*
G01X0022273Y0005831D03*
G01X0022297Y0005806D03*
G01X0022223Y0005906D03*
G01X0022148Y0005981D03*
G01X0022073Y0006081D03*
G01X0022297Y0006156D03*
G01X0022297Y0006181D03*
G01X0022297Y0006206D03*
G01X0022297Y0006231D03*
G01X0022273Y0006281D03*
G01X0022247Y0006331D03*
G01X0022297Y0006456D03*
G01X0022273Y0006506D03*
G01X0022498Y0006331D03*
G01X0022648Y0006506D03*
G01X0022648Y0006556D03*
G01X0022923Y0006506D03*
G01X0022923Y0006481D03*
G01X0022948Y0006556D03*
G01X0023273Y0006531D03*
G01X0023348Y0006606D03*
G01X0023323Y0006631D03*
G01X0023323Y0006656D03*
G01X0023323Y0006706D03*
G01X0023447Y0006906D03*
G01X0023472Y0006931D03*
G01X0023447Y0007081D03*
G01X0023447Y0007106D03*
G01X0023472Y0007131D03*
G01X0023497Y0007181D03*
G01X0023598Y0007106D03*
G01X0023623Y0007031D03*
G01X0023623Y0007006D03*
G01X0023623Y0006981D03*
G01X0023747Y0007006D03*
G01X0023747Y0007056D03*
G01X0023772Y0007131D03*
G01X0023772Y0007156D03*
G01X0023772Y0007181D03*
G01X0023747Y0007231D03*
G01X0023772Y0007281D03*
G01X0023673Y0007156D03*
G01X0023923Y0007156D03*
G01X0023923Y0007181D03*
G01X0023923Y0007131D03*
G01X0023998Y0007206D03*
G01X0023948Y0007306D03*
G01X0023948Y0007331D03*
G01X0023923Y0007381D03*
G01X0023923Y0007581D03*
G01X0023973Y0007606D03*
G01X0024173Y0007506D03*
G01X0024198Y0007431D03*
G01X0024198Y0007406D03*
G01X0024198Y0007381D03*
G01X0024223Y0007356D03*
G01X0024248Y0007281D03*
G01X0024248Y0007256D03*
G01X0024422Y0007331D03*
G01X0024422Y0007356D03*
G01X0024422Y0007381D03*
G01X0024697Y0007306D03*
G01X0024697Y0007281D03*
G01X0024747Y0007406D03*
G01X0024747Y0007431D03*
G01X0024747Y0007456D03*
G01X0024973Y0007306D03*
G01X0024973Y0007281D03*
G01X0024973Y0007256D03*
G01X0024923Y0007181D03*
G01X0024923Y0007156D03*
G01X0025023Y0007156D03*
G01X0025023Y0007131D03*
G01X0025123Y0007056D03*
G01X0025197Y0007006D03*
G01X0025297Y0007131D03*
G01X0025272Y0007156D03*
G01X0025247Y0007181D03*
G01X0025347Y0007081D03*
G01X0025423Y0007006D03*
G01X0025448Y0006981D03*
G01X0025473Y0006931D03*
G01X0025548Y0006931D03*
G01X0025548Y0006956D03*
G01X0025523Y0007006D03*
G01X0025498Y0007056D03*
G01X0025498Y0007081D03*
G01X0025473Y0007106D03*
G01X0025473Y0007131D03*
G01X0025448Y0007156D03*
G01X0025347Y0007306D03*
G01X0025322Y0007331D03*
G01X0025297Y0007356D03*
G01X0025272Y0007381D03*
G01X0025073Y0007331D03*
G01X0025048Y0007556D03*
G01X0024622Y0007781D03*
G01X0024223Y0008006D03*
G01X0023948Y0008206D03*
G01X0023948Y0008231D03*
G01X0023973Y0008306D03*
G01X0023973Y0008331D03*
G01X0023998Y0008381D03*
G01X0023873Y0008481D03*
G01X0023873Y0008506D03*
G01X0023898Y0008531D03*
G01X0023898Y0008556D03*
G01X0023948Y0008656D03*
G01X0023973Y0008681D03*
G01X0023747Y0008456D03*
G01X0023648Y0008331D03*
G01X0023623Y0008306D03*
G01X0023598Y0008281D03*
G01X0023573Y0008256D03*
G01X0023573Y0008231D03*
G01X0023648Y0008206D03*
G01X0023648Y0008156D03*
G01X0023772Y0008131D03*
G01X0023772Y0008106D03*
G01X0023747Y0008056D03*
G01X0023747Y0008031D03*
G01X0023598Y0008006D03*
G01X0023447Y0008056D03*
G01X0023472Y0008106D03*
G01X0023497Y0008131D03*
G01X0023373Y0007931D03*
G01X0023348Y0007881D03*
G01X0023323Y0007831D03*
G01X0023298Y0007781D03*
G01X0023273Y0007731D03*
G01X0023248Y0007681D03*
G01X0023348Y0007631D03*
G01X0023373Y0007681D03*
G01X0023497Y0007606D03*
G01X0023472Y0007556D03*
G01X0023373Y0007381D03*
G01X0023348Y0007331D03*
G01X0023323Y0007281D03*
G01X0023298Y0007231D03*
G01X0023248Y0007156D03*
G01X0023123Y0006931D03*
G01X0023123Y0006906D03*
G01X0023098Y0006881D03*
G01X0023098Y0006856D03*
G01X0025423Y0006831D03*
G01X0025548Y0006806D03*
G01X0025573Y0006881D03*
G01X0025573Y0006906D03*
G01X0025523Y0006731D03*
G01X0025623Y0006731D03*
G01X0025598Y0006656D03*
G01X0025673Y0006531D03*
G01X0025673Y0006506D03*
G01X0025773Y0006381D03*
G01X0025972Y0006556D03*
G01X0025972Y0006581D03*
G01X0025947Y0006606D03*
G01X0025947Y0006631D03*
G01X0025847Y0006831D03*
G01X0025897Y0006881D03*
G01X0025872Y0006981D03*
G01X0025847Y0007056D03*
G01X0025847Y0007081D03*
G01X0025847Y0007106D03*
G01X0025723Y0007056D03*
G01X0025748Y0007006D03*
G01X0025773Y0006956D03*
G01X0025573Y0007631D03*
G01X0025548Y0007681D03*
G01X0025673Y0007681D03*
G01X0025598Y0007831D03*
G01X0025573Y0007881D03*
G01X0025548Y0007931D03*
G01X0025523Y0007981D03*
G01X0025498Y0008006D03*
G01X0025473Y0008056D03*
G01X0025448Y0008081D03*
G01X0025423Y0008131D03*
G01X0025347Y0008231D03*
G01X0025322Y0008256D03*
G01X0025297Y0008306D03*
G01X0025272Y0008331D03*
G01X0025247Y0008356D03*
G01X0025222Y0008381D03*
G01X0025197Y0008406D03*
G01X0025247Y0008206D03*
G01X0025272Y0008181D03*
G01X0025272Y0008131D03*
G01X0025322Y0008006D03*
G01X0025197Y0007956D03*
G01X0025123Y0008181D03*
G01X0024973Y0008231D03*
G01X0024948Y0008281D03*
G01X0024948Y0008306D03*
G01X0024923Y0008356D03*
G01X0024898Y0008406D03*
G01X0025023Y0008581D03*
G01X0024998Y0008631D03*
G01X0024597Y0008756D03*
G01X0024747Y0008981D03*
G01X0024722Y0009006D03*
G01X0024323Y0009106D03*
G01X0024298Y0009081D03*
G01X0024273Y0009056D03*
G01X0024248Y0009031D03*
G01X0024223Y0009006D03*
G01X0023797Y0008206D03*
G01X0025723Y0006106D03*
G01X0025748Y0006081D03*
G01X0025748Y0006056D03*
G01X0026597Y0005706D03*
G01X0025347Y0005306D03*
G01X0025247Y0005231D03*
G01X0025222Y0005206D03*
G01X0025098Y0005106D03*
G01X0025073Y0005081D03*
G01X0025023Y0004981D03*
G01X0024923Y0005131D03*
G01X0024873Y0005331D03*
G01X0024873Y0005356D03*
G01X0024722Y0005381D03*
G01X0024722Y0005406D03*
G01X0024722Y0005431D03*
G01X0024722Y0005456D03*
G01X0024647Y0005456D03*
G01X0024647Y0005431D03*
G01X0024647Y0005406D03*
G01X0024647Y0005381D03*
G01X0024697Y0005256D03*
G01X0024422Y0005431D03*
G01X0024422Y0005456D03*
G01X0024298Y0005456D03*
G01X0024298Y0005431D03*
G01X0024298Y0005406D03*
G01X0024223Y0005381D03*
G01X0024248Y0005306D03*
G01X0024248Y0005281D03*
G01X0023898Y0005431D03*
G01X0023898Y0005456D03*
G01X0023923Y0004956D03*
G01X0023948Y0004931D03*
G01X0023998Y0004881D03*
G01X0024898Y0004631D03*
G01X0025773Y0004981D03*
G01X0025847Y0004981D03*
G01X0025222Y0005381D03*
G01X0025222Y0005406D03*
G01X0025048Y0005406D03*
G01X0025048Y0005431D03*
G01X0025048Y0005456D03*
G01X0025048Y0005381D03*
G01X0022648Y0005456D03*
G01X0022648Y0005481D03*
G01X0022648Y0005531D03*
G01X0022648Y0005556D03*
G01X0022273Y0005431D03*
G01X0022247Y0005456D03*
G01X0022223Y0005481D03*
G01X0022148Y0005381D03*
G01X0022148Y0005331D03*
G01X0022148Y0005306D03*
G54D17*
G01X0022272Y0005381D03*
G01X0022873Y0005356D03*
G01X0023273Y0005606D03*
G01X0023472Y0005631D03*
G01X0023298Y0005856D03*
G01X0023898Y0005531D03*
G01X0023898Y0005506D03*
G01X0024248Y0005356D03*
G01X0024248Y0005331D03*
G01X0024472Y0005306D03*
G01X0024273Y0005106D03*
G01X0024273Y0005006D03*
G01X0023623Y0004881D03*
G01X0023772Y0004656D03*
G01X0025073Y0004906D03*
G01X0025098Y0005331D03*
G01X0025048Y0005506D03*
G01X0024873Y0005481D03*
G01X0024873Y0005456D03*
G01X0024873Y0005431D03*
G01X0025297Y0005281D03*
G01X0025448Y0005381D03*
G01X0025448Y0005406D03*
G01X0025523Y0005456D03*
G01X0025523Y0005481D03*
G01X0025448Y0005631D03*
G01X0025548Y0005731D03*
G01X0025648Y0005856D03*
G01X0025698Y0005956D03*
G01X0026098Y0005931D03*
G01X0026098Y0005806D03*
G01X0026148Y0005706D03*
G01X0025922Y0005581D03*
G01X0025723Y0005381D03*
G01X0025698Y0005406D03*
G01X0025922Y0005256D03*
G01X0025922Y0005231D03*
G01X0025947Y0005281D03*
G01X0025872Y0005156D03*
G01X0026773Y0005531D03*
G01X0026898Y0005656D03*
G01X0026698Y0005831D03*
G01X0026497Y0005831D03*
G01X0026497Y0005981D03*
G01X0026348Y0005931D03*
G01X0026148Y0006081D03*
G01X0026873Y0006506D03*
G01X0025897Y0006781D03*
G01X0024923Y0007431D03*
G01X0024722Y0007531D03*
G01X0024472Y0007431D03*
G01X0024248Y0007231D03*
G01X0023923Y0007356D03*
G01X0023598Y0007056D03*
G01X0023023Y0006781D03*
G01X0023023Y0006756D03*
G01X0022698Y0006581D03*
G01X0022698Y0006481D03*
G01X0022423Y0006131D03*
G01X0022348Y0006106D03*
G01X0022148Y0005731D03*
G01X0025448Y0007831D03*
G01X0025473Y0007806D03*
G01X0025297Y0008106D03*
G01X0023623Y0008106D03*
G01X0023598Y0008081D03*
G01X0024472Y0009181D03*
G01X0031113Y0009071D03*
G01X0031237Y0008921D03*
G01X0031962Y0008996D03*
G01X0032037Y0009071D03*
G01X0032062Y0009096D03*
G01X0032087Y0009121D03*
G01X0031113Y0009821D03*
G01X0031237Y0009971D03*
G01X0033362Y0009446D03*
G01X0033412Y0009271D03*
G01X0034313Y0008771D03*
G01X0034338Y0008746D03*
G01X0034413Y0008671D03*
G01X0034487Y0008571D03*
G01X0034513Y0008521D03*
G01X0034763Y0008146D03*
G01X0034763Y0008121D03*
G01X0034838Y0008196D03*
G01X0034888Y0008246D03*
G01X0034938Y0008296D03*
G01X0035038Y0008371D03*
G01X0035088Y0008421D03*
G01X0035188Y0008496D03*
G01X0035212Y0008521D03*
G01X0035238Y0008546D03*
G01X0035288Y0008571D03*
G01X0035388Y0008646D03*
G01X0035413Y0008671D03*
G01X0035563Y0008771D03*
G01X0035587Y0008796D03*
G01X0035637Y0008821D03*
G01X0035687Y0008846D03*
G01X0036063Y0009146D03*
G01X0036887Y0008996D03*
G01X0036913Y0009021D03*
G01X0037113Y0009071D03*
G01X0037137Y0009046D03*
G01X0036638Y0008371D03*
G01X0036538Y0008421D03*
G01X0036937Y0008146D03*
G01X0036987Y0008221D03*
G01X0037087Y0008121D03*
G01X0037113Y0008146D03*
G01X0037163Y0008171D03*
G01X0037187Y0008196D03*
G01X0037263Y0008271D03*
G01X0035937Y0007096D03*
G01X0035863Y0007171D03*
G01X0036088Y0006996D03*
G01X0036338Y0006796D03*
G01X0036488Y0006246D03*
G01X0035262Y0006346D03*
G01X0035212Y0006296D03*
G01X0035162Y0006246D03*
G01X0034988Y0006096D03*
G01X0034962Y0006071D03*
G01X0034938Y0006046D03*
G01X0034888Y0005996D03*
G01X0034838Y0005946D03*
G01X0034813Y0005921D03*
G01X0034713Y0005846D03*
G01X0034687Y0005821D03*
G01X0034637Y0005771D03*
G01X0034587Y0005746D03*
G01X0034563Y0005721D03*
G01X0034288Y0005446D03*
G01X0034288Y0005396D03*
G01X0033838Y0005271D03*
G01X0033738Y0005221D03*
G01X0033088Y0004846D03*
G01X0032438Y0005346D03*
G01X0032413Y0005321D03*
G01X0032363Y0005296D03*
G01X0032338Y0005271D03*
G01X0032137Y0005146D03*
G01X0031713Y0005171D03*
G01X0031688Y0005196D03*
G01X0030937Y0004896D03*
G01X0030788Y0005071D03*
G01X0030763Y0005096D03*
G01X0030738Y0005121D03*
G01X0030663Y0005221D03*
G01X0030638Y0005246D03*
G01X0030513Y0005371D03*
G01X0030488Y0005396D03*
G01X0030413Y0005471D03*
G01X0030338Y0005546D03*
G01X0030313Y0005571D03*
G01X0030788Y0005746D03*
G01X0031088Y0005671D03*
G01X0031088Y0004721D03*
G01X0031113Y0004696D03*
G01X0031937Y0004496D03*
G01X0031937Y0004446D03*
G01X0031738Y0004021D03*
G01X0031388Y0003946D03*
G01X0031363Y0003921D03*
G01X0031363Y0003871D03*
G01X0033113Y0005896D03*
G01X0033437Y0006746D03*
G01X0033563Y0006946D03*
G01X0033588Y0006971D03*
G01X0033663Y0007071D03*
G01X0033788Y0007221D03*
G01X0033813Y0007246D03*
G01X0034938Y0007996D03*
G01X0032187Y0008146D03*
G01X0032162Y0008171D03*
G01X0032187Y0007696D03*
G01X0031763Y0007471D03*
G01X0031738Y0007396D03*
G01X0031937Y0007196D03*
G01X0031962Y0007171D03*
G01X0036238Y0009846D03*
G01X0036488Y0009871D03*
G01X0036362Y0010096D03*
G54D18*
G01X0036275Y0010196D03*
G01X0036175Y0009696D03*
G01X0036800Y0008946D03*
G01X0036325Y0008171D03*
G01X0036275Y0008096D03*
G01X0036275Y0008071D03*
G01X0036225Y0007971D03*
G01X0036000Y0008071D03*
G01X0035950Y0008021D03*
G01X0035950Y0007871D03*
G01X0035850Y0007771D03*
G01X0035800Y0007821D03*
G01X0035750Y0007721D03*
G01X0035800Y0007671D03*
G01X0035800Y0007646D03*
G01X0036000Y0007696D03*
G01X0036000Y0007721D03*
G01X0035850Y0007321D03*
G01X0035750Y0007321D03*
G01X0035750Y0007296D03*
G01X0035700Y0007246D03*
G01X0035650Y0007246D03*
G01X0035325Y0006896D03*
G01X0035325Y0006871D03*
G01X0035275Y0006796D03*
G01X0035225Y0006696D03*
G01X0035175Y0006521D03*
G01X0035175Y0006496D03*
G01X0035175Y0006471D03*
G01X0035175Y0006446D03*
G01X0036225Y0006821D03*
G01X0033500Y0006471D03*
G01X0030050Y0005871D03*
G01X0031600Y0004046D03*
G01X0026035Y0005381D03*
G01X0026035Y0005731D03*
G01X0026035Y0005956D03*
G01X0026035Y0006356D03*
G01X0026035Y0006381D03*
G01X0026035Y0006406D03*
G01X0024785Y0007281D03*
G01X0024785Y0007306D03*
G01X0024785Y0007331D03*
G01X0025385Y0007631D03*
G01X0025385Y0008056D03*
G01X0024135Y0008906D03*
G01X0023835Y0008331D03*
G01X0023535Y0008056D03*
G01X0023535Y0007681D03*
G01X0023535Y0007656D03*
G01X0023210Y0007606D03*
G01X0023210Y0007581D03*
G01X0023060Y0007106D03*
G01X0023060Y0007081D03*
G01X0023060Y0007056D03*
G01X0023060Y0007031D03*
G01X0023210Y0007081D03*
G01X0022735Y0006556D03*
G01X0022735Y0006531D03*
G01X0022735Y0006506D03*
G01X0022885Y0006381D03*
G01X0022585Y0006331D03*
G01X0022510Y0006156D03*
G01X0022585Y0006031D03*
G01X0022585Y0005981D03*
G01X0022360Y0005706D03*
G01X0022360Y0005681D03*
G01X0022360Y0005656D03*
G01X0022360Y0005606D03*
G01X0022285Y0005406D03*
G01X0022735Y0005506D03*
G01X0023060Y0005431D03*
G01X0023060Y0005306D03*
G01X0023210Y0005306D03*
G01X0023210Y0005331D03*
G01X0023210Y0005356D03*
G01X0023210Y0005381D03*
G01X0023210Y0005406D03*
G01X0023210Y0005281D03*
G01X0022735Y0005256D03*
G01X0023535Y0005056D03*
G01X0024460Y0005256D03*
G01X0024785Y0004831D03*
G01X0024785Y0004656D03*
G01X0025385Y0005006D03*
G01X0025385Y0005031D03*
G01X0023535Y0005656D03*
G01X0023535Y0005681D03*
G01X0023210Y0006431D03*
G01X0022435Y0006506D03*
G01X0022435Y0006531D03*
G01X0022360Y0006556D03*
G01X0022360Y0006581D03*
G01X0022285Y0006481D03*
G01X0022285Y0006256D03*
G01X0022160Y0006181D03*
G01X0022160Y0006156D03*
G01X0022085Y0006056D03*
G01X0022235Y0005881D03*
G01X0022085Y0005756D03*
G01X0022285Y0006731D03*
G01X0024785Y0008931D03*
G01X0033500Y0009221D03*
G54D19*
G01X0033575Y0009221D03*
G01X0033625Y0009246D03*
G01X0033750Y0009096D03*
G01X0031950Y0008971D03*
G01X0034775Y0008046D03*
G01X0036025Y0007946D03*
G01X0036050Y0007921D03*
G01X0036050Y0007896D03*
G01X0036075Y0007846D03*
G01X0036075Y0007821D03*
G01X0036075Y0007796D03*
G01X0036075Y0007771D03*
G01X0036075Y0007746D03*
G01X0036075Y0007721D03*
G01X0036125Y0007721D03*
G01X0036075Y0007621D03*
G01X0036125Y0007971D03*
G01X0036075Y0008021D03*
G01X0036050Y0008046D03*
G01X0036675Y0008471D03*
G01X0036675Y0008496D03*
G01X0036600Y0008596D03*
G01X0036625Y0008646D03*
G01X0036650Y0008671D03*
G01X0036675Y0008696D03*
G01X0037300Y0008546D03*
G01X0037300Y0008521D03*
G01X0036725Y0009521D03*
G01X0036600Y0009746D03*
G01X0036125Y0009396D03*
G01X0036125Y0009371D03*
G01X0034000Y0007171D03*
G01X0033850Y0006971D03*
G01X0033800Y0006896D03*
G01X0033650Y0006696D03*
G01X0033625Y0006671D03*
G01X0033600Y0006621D03*
G01X0033575Y0006596D03*
G01X0033550Y0006521D03*
G01X0033525Y0006496D03*
G01X0033475Y0006446D03*
G01X0033475Y0006421D03*
G01X0033425Y0006371D03*
G01X0033375Y0006271D03*
G01X0033375Y0006246D03*
G01X0033250Y0006071D03*
G01X0033250Y0006046D03*
G01X0033075Y0005796D03*
G01X0032800Y0005721D03*
G01X0032700Y0005421D03*
G01X0032675Y0005396D03*
G01X0032525Y0005296D03*
G01X0032500Y0005271D03*
G01X0032425Y0005221D03*
G01X0032450Y0005446D03*
G01X0031850Y0004996D03*
G01X0031550Y0004596D03*
G01X0031650Y0004496D03*
G01X0031750Y0004221D03*
G01X0031700Y0004196D03*
G01X0031700Y0004171D03*
G01X0031675Y0004096D03*
G01X0031625Y0004021D03*
G01X0031575Y0004021D03*
G01X0031525Y0004021D03*
G01X0031525Y0003971D03*
G01X0031475Y0003946D03*
G01X0031450Y0003971D03*
G01X0031475Y0003771D03*
G01X0030825Y0005771D03*
G01X0030650Y0005721D03*
G01X0030425Y0005771D03*
G01X0026935Y0005631D03*
G01X0026935Y0005606D03*
G01X0026935Y0005581D03*
G01X0026910Y0005556D03*
G01X0026910Y0005531D03*
G01X0026835Y0005581D03*
G01X0026860Y0005606D03*
G01X0026860Y0005631D03*
G01X0026785Y0005706D03*
G01X0026810Y0005756D03*
G01X0026810Y0005781D03*
G01X0026685Y0005931D03*
G01X0026560Y0006056D03*
G01X0026560Y0006081D03*
G01X0026585Y0006131D03*
G01X0026585Y0006156D03*
G01X0026610Y0006206D03*
G01X0026685Y0006206D03*
G01X0026835Y0006131D03*
G01X0026860Y0006181D03*
G01X0026860Y0006206D03*
G01X0026860Y0006231D03*
G01X0026860Y0006256D03*
G01X0026835Y0006456D03*
G01X0026835Y0006481D03*
G01X0026910Y0006481D03*
G01X0026485Y0006581D03*
G01X0026460Y0006606D03*
G01X0026460Y0006531D03*
G01X0026460Y0006506D03*
G01X0026335Y0006506D03*
G01X0026310Y0006531D03*
G01X0026285Y0006556D03*
G01X0026285Y0006581D03*
G01X0026285Y0006606D03*
G01X0026285Y0006631D03*
G01X0026235Y0006331D03*
G01X0026235Y0006306D03*
G01X0026210Y0006206D03*
G01X0026210Y0006181D03*
G01X0026210Y0006156D03*
G01X0026185Y0006056D03*
G01X0026110Y0006056D03*
G01X0026110Y0006031D03*
G01X0026010Y0005981D03*
G01X0025935Y0005981D03*
G01X0025935Y0006006D03*
G01X0025935Y0005956D03*
G01X0025935Y0005931D03*
G01X0025935Y0005906D03*
G01X0025935Y0005881D03*
G01X0025935Y0005856D03*
G01X0025960Y0005831D03*
G01X0025960Y0005806D03*
G01X0025985Y0005781D03*
G01X0026010Y0005681D03*
G01X0025985Y0005656D03*
G01X0025960Y0005606D03*
G01X0025885Y0005606D03*
G01X0025685Y0005656D03*
G01X0025660Y0005631D03*
G01X0025660Y0005756D03*
G01X0025685Y0005881D03*
G01X0025710Y0005906D03*
G01X0025660Y0005981D03*
G01X0025660Y0006006D03*
G01X0025660Y0006031D03*
G01X0025760Y0006031D03*
G01X0025785Y0006106D03*
G01X0025785Y0006131D03*
G01X0025860Y0006031D03*
G01X0025860Y0006006D03*
G01X0025835Y0005931D03*
G01X0025835Y0005906D03*
G01X0025835Y0005881D03*
G01X0025585Y0005881D03*
G01X0025585Y0005906D03*
G01X0025510Y0005781D03*
G01X0025510Y0005756D03*
G01X0025535Y0005681D03*
G01X0025410Y0005681D03*
G01X0025410Y0005706D03*
G01X0025410Y0005656D03*
G01X0025310Y0005581D03*
G01X0025185Y0005506D03*
G01X0025185Y0005481D03*
G01X0024885Y0005306D03*
G01X0024685Y0005281D03*
G01X0024435Y0005331D03*
G01X0024435Y0005356D03*
G01X0024410Y0005381D03*
G01X0024410Y0005406D03*
G01X0024285Y0005381D03*
G01X0024210Y0005406D03*
G01X0024210Y0005431D03*
G01X0024210Y0005456D03*
G01X0024235Y0005256D03*
G01X0024335Y0005081D03*
G01X0024310Y0004881D03*
G01X0024335Y0004856D03*
G01X0024335Y0004831D03*
G01X0024335Y0004806D03*
G01X0024335Y0004781D03*
G01X0024310Y0004756D03*
G01X0024310Y0004731D03*
G01X0024285Y0004681D03*
G01X0024435Y0004681D03*
G01X0024435Y0004731D03*
G01X0024735Y0004756D03*
G01X0024760Y0004806D03*
G01X0024810Y0004881D03*
G01X0024810Y0004906D03*
G01X0024885Y0004731D03*
G01X0024910Y0004681D03*
G01X0024910Y0004656D03*
G01X0025060Y0004681D03*
G01X0025060Y0004731D03*
G01X0025060Y0004756D03*
G01X0025135Y0004756D03*
G01X0025035Y0004831D03*
G01X0025035Y0004931D03*
G01X0025010Y0004956D03*
G01X0025035Y0005006D03*
G01X0025035Y0005031D03*
G01X0025060Y0005056D03*
G01X0025460Y0005031D03*
G01X0025610Y0005131D03*
G01X0025785Y0005056D03*
G01X0025785Y0005031D03*
G01X0025785Y0005006D03*
G01X0025860Y0005006D03*
G01X0025860Y0005031D03*
G01X0025885Y0005056D03*
G01X0025885Y0005081D03*
G01X0025885Y0005106D03*
G01X0025985Y0005306D03*
G01X0026010Y0005356D03*
G01X0026085Y0005481D03*
G01X0026085Y0005506D03*
G01X0026085Y0005531D03*
G01X0026110Y0005556D03*
G01X0026110Y0005581D03*
G01X0026110Y0005606D03*
G01X0026335Y0005731D03*
G01X0026335Y0005756D03*
G01X0026410Y0005731D03*
G01X0026560Y0005781D03*
G01X0026585Y0005756D03*
G01X0026585Y0005506D03*
G01X0026560Y0005331D03*
G01X0026560Y0005306D03*
G01X0026585Y0005281D03*
G01X0026585Y0005256D03*
G01X0026610Y0005231D03*
G01X0025660Y0005331D03*
G01X0025660Y0005431D03*
G01X0025660Y0005456D03*
G01X0025660Y0005481D03*
G01X0025660Y0005506D03*
G01X0026385Y0005956D03*
G01X0026410Y0006006D03*
G01X0026460Y0006006D03*
G01X0026460Y0006056D03*
G01X0026360Y0006106D03*
G01X0026360Y0006131D03*
G01X0026360Y0006156D03*
G01X0026360Y0006181D03*
G01X0026360Y0006306D03*
G01X0026085Y0006256D03*
G01X0026085Y0006231D03*
G01X0026060Y0006281D03*
G01X0026060Y0006306D03*
G01X0026060Y0006331D03*
G01X0026010Y0006431D03*
G01X0026010Y0006456D03*
G01X0026010Y0006481D03*
G01X0025985Y0006506D03*
G01X0025985Y0006531D03*
G01X0025785Y0006406D03*
G01X0025760Y0006456D03*
G01X0025710Y0006456D03*
G01X0025710Y0006481D03*
G01X0025710Y0006431D03*
G01X0025710Y0006406D03*
G01X0025710Y0006381D03*
G01X0025660Y0006556D03*
G01X0025660Y0006581D03*
G01X0025635Y0006606D03*
G01X0025635Y0006631D03*
G01X0025585Y0006631D03*
G01X0025585Y0006606D03*
G01X0025610Y0006681D03*
G01X0025610Y0006706D03*
G01X0025660Y0006706D03*
G01X0025635Y0006756D03*
G01X0025635Y0006781D03*
G01X0025610Y0006806D03*
G01X0025610Y0006831D03*
G01X0025585Y0006856D03*
G01X0025535Y0006856D03*
G01X0025535Y0006831D03*
G01X0025510Y0006881D03*
G01X0025435Y0006881D03*
G01X0025435Y0006856D03*
G01X0025460Y0006956D03*
G01X0025535Y0006981D03*
G01X0025510Y0007031D03*
G01X0025335Y0007106D03*
G01X0025310Y0007056D03*
G01X0025310Y0007031D03*
G01X0025185Y0007031D03*
G01X0025185Y0007056D03*
G01X0025185Y0007231D03*
G01X0025185Y0007256D03*
G01X0025010Y0007231D03*
G01X0025010Y0007206D03*
G01X0025010Y0007181D03*
G01X0024935Y0007206D03*
G01X0024935Y0007231D03*
G01X0024985Y0007331D03*
G01X0024710Y0007331D03*
G01X0024435Y0007406D03*
G01X0024235Y0007331D03*
G01X0024235Y0007306D03*
G01X0024160Y0007306D03*
G01X0024160Y0007331D03*
G01X0024160Y0007356D03*
G01X0024185Y0007456D03*
G01X0023985Y0007231D03*
G01X0023935Y0007231D03*
G01X0023935Y0007206D03*
G01X0023735Y0007256D03*
G01X0023635Y0007356D03*
G01X0023610Y0007331D03*
G01X0023585Y0007306D03*
G01X0023560Y0007281D03*
G01X0023510Y0007206D03*
G01X0023485Y0007156D03*
G01X0023385Y0007006D03*
G01X0023385Y0006981D03*
G01X0023360Y0006956D03*
G01X0023360Y0006931D03*
G01X0023335Y0006906D03*
G01X0023310Y0006856D03*
G01X0023310Y0006831D03*
G01X0023360Y0006756D03*
G01X0023335Y0006731D03*
G01X0023335Y0006681D03*
G01X0023285Y0006606D03*
G01X0023260Y0006581D03*
G01X0023260Y0006556D03*
G01X0023235Y0006606D03*
G01X0023235Y0006631D03*
G01X0023235Y0006656D03*
G01X0023235Y0006481D03*
G01X0023235Y0006456D03*
G01X0023235Y0006406D03*
G01X0023235Y0006381D03*
G01X0023135Y0006106D03*
G01X0023185Y0006056D03*
G01X0023185Y0006031D03*
G01X0023185Y0006006D03*
G01X0023335Y0005881D03*
G01X0023310Y0005806D03*
G01X0023435Y0005806D03*
G01X0023435Y0005781D03*
G01X0023435Y0005756D03*
G01X0023510Y0005581D03*
G01X0023635Y0005581D03*
G01X0023635Y0005606D03*
G01X0023760Y0005481D03*
G01X0023685Y0005356D03*
G01X0023885Y0005381D03*
G01X0023885Y0005406D03*
G01X0023460Y0005156D03*
G01X0023485Y0005106D03*
G01X0023485Y0005081D03*
G01X0023560Y0004981D03*
G01X0023485Y0004881D03*
G01X0023660Y0004706D03*
G01X0023735Y0004981D03*
G01X0023860Y0005031D03*
G01X0023885Y0005006D03*
G01X0023910Y0004981D03*
G01X0023335Y0005081D03*
G01X0023235Y0005081D03*
G01X0023235Y0005256D03*
G01X0023110Y0005306D03*
G01X0023110Y0005331D03*
G01X0023110Y0005356D03*
G01X0023085Y0005381D03*
G01X0023085Y0005406D03*
G01X0023035Y0005331D03*
G01X0022935Y0005256D03*
G01X0022935Y0005231D03*
G01X0022935Y0005206D03*
G01X0022960Y0005181D03*
G01X0022785Y0005181D03*
G01X0022760Y0005206D03*
G01X0022860Y0005406D03*
G01X0022985Y0005456D03*
G01X0023185Y0005456D03*
G01X0023185Y0005481D03*
G01X0023185Y0005431D03*
G01X0023360Y0005431D03*
G01X0022660Y0005431D03*
G01X0022185Y0005531D03*
G01X0022185Y0005556D03*
G01X0022185Y0005581D03*
G01X0022185Y0005756D03*
G01X0022185Y0005806D03*
G01X0022335Y0005756D03*
G01X0022335Y0005731D03*
G01X0022385Y0005906D03*
G01X0022535Y0005906D03*
G01X0022535Y0005881D03*
G01X0022535Y0005856D03*
G01X0022335Y0006056D03*
G01X0022185Y0006081D03*
G01X0022460Y0006231D03*
G01X0022460Y0006256D03*
G01X0022460Y0006281D03*
G01X0022610Y0006281D03*
G01X0022610Y0006306D03*
G01X0022610Y0006256D03*
G01X0022610Y0006231D03*
G01X0022635Y0006181D03*
G01X0022635Y0006156D03*
G01X0022710Y0006156D03*
G01X0022710Y0006181D03*
G01X0022710Y0006131D03*
G01X0022535Y0006106D03*
G01X0022860Y0006006D03*
G01X0022960Y0005981D03*
G01X0022635Y0006531D03*
G01X0022385Y0006531D03*
G01X0022385Y0006606D03*
G01X0022385Y0006631D03*
G01X0022385Y0006656D03*
G01X0022385Y0006681D03*
G01X0023035Y0006931D03*
G01X0023035Y0006956D03*
G01X0023035Y0006981D03*
G01X0023035Y0007006D03*
G01X0023185Y0007031D03*
G01X0023235Y0007131D03*
G01X0023260Y0007181D03*
G01X0023285Y0007206D03*
G01X0023310Y0007256D03*
G01X0023335Y0007306D03*
G01X0023360Y0007356D03*
G01X0023385Y0007406D03*
G01X0023435Y0007481D03*
G01X0023435Y0007506D03*
G01X0023460Y0007531D03*
G01X0023485Y0007581D03*
G01X0023510Y0007631D03*
G01X0023560Y0007706D03*
G01X0023560Y0007731D03*
G01X0023585Y0007756D03*
G01X0023610Y0007781D03*
G01X0023610Y0007806D03*
G01X0023635Y0007831D03*
G01X0023635Y0007856D03*
G01X0023660Y0007881D03*
G01X0023660Y0007906D03*
G01X0023685Y0007931D03*
G01X0023685Y0007956D03*
G01X0023760Y0007981D03*
G01X0023760Y0008081D03*
G01X0023785Y0008156D03*
G01X0023785Y0008181D03*
G01X0023810Y0008231D03*
G01X0023810Y0008256D03*
G01X0023860Y0008406D03*
G01X0023860Y0008431D03*
G01X0023785Y0008506D03*
G01X0023760Y0008481D03*
G01X0023685Y0008381D03*
G01X0023660Y0008356D03*
G01X0023510Y0008156D03*
G01X0023460Y0008081D03*
G01X0023510Y0008031D03*
G01X0023510Y0008006D03*
G01X0023385Y0007956D03*
G01X0023360Y0007906D03*
G01X0023335Y0007856D03*
G01X0023310Y0007806D03*
G01X0023285Y0007756D03*
G01X0023260Y0007706D03*
G01X0023235Y0007656D03*
G01X0023185Y0007556D03*
G01X0023185Y0007531D03*
G01X0023185Y0007506D03*
G01X0023135Y0007406D03*
G01X0023135Y0007381D03*
G01X0023135Y0007356D03*
G01X0023110Y0007306D03*
G01X0023110Y0007281D03*
G01X0023110Y0007256D03*
G01X0023085Y0007206D03*
G01X0023085Y0007181D03*
G01X0023085Y0007156D03*
G01X0023485Y0006956D03*
G01X0023510Y0006881D03*
G01X0023510Y0006856D03*
G01X0023510Y0006831D03*
G01X0023585Y0006931D03*
G01X0023660Y0006956D03*
G01X0023735Y0007031D03*
G01X0023660Y0007381D03*
G01X0023685Y0007406D03*
G01X0023735Y0007456D03*
G01X0023810Y0007506D03*
G01X0023885Y0007556D03*
G01X0023360Y0007656D03*
G01X0023335Y0007606D03*
G01X0023335Y0007581D03*
G01X0024485Y0007706D03*
G01X0024610Y0007806D03*
G01X0025010Y0007656D03*
G01X0025010Y0007631D03*
G01X0025310Y0007756D03*
G01X0025310Y0007781D03*
G01X0025285Y0007806D03*
G01X0025285Y0007831D03*
G01X0025260Y0007856D03*
G01X0025260Y0007881D03*
G01X0025235Y0007906D03*
G01X0025235Y0007931D03*
G01X0025410Y0008006D03*
G01X0025410Y0008031D03*
G01X0025485Y0008031D03*
G01X0025435Y0008106D03*
G01X0025535Y0007956D03*
G01X0025560Y0007906D03*
G01X0025585Y0007856D03*
G01X0025610Y0007806D03*
G01X0025635Y0007781D03*
G01X0025635Y0007756D03*
G01X0025660Y0007731D03*
G01X0025660Y0007706D03*
G01X0025685Y0007656D03*
G01X0025685Y0007631D03*
G01X0025710Y0007606D03*
G01X0025710Y0007581D03*
G01X0025735Y0007556D03*
G01X0025735Y0007531D03*
G01X0025735Y0007506D03*
G01X0025760Y0007481D03*
G01X0025760Y0007456D03*
G01X0025760Y0007431D03*
G01X0025785Y0007406D03*
G01X0025785Y0007381D03*
G01X0025785Y0007356D03*
G01X0025785Y0007331D03*
G01X0025835Y0007181D03*
G01X0025835Y0007156D03*
G01X0025835Y0007131D03*
G01X0025710Y0007081D03*
G01X0025685Y0007106D03*
G01X0025685Y0007131D03*
G01X0025660Y0007156D03*
G01X0025660Y0007181D03*
G01X0025635Y0007206D03*
G01X0025610Y0007256D03*
G01X0025585Y0007281D03*
G01X0025585Y0007306D03*
G01X0025560Y0007331D03*
G01X0025535Y0007381D03*
G01X0025510Y0007431D03*
G01X0025485Y0007456D03*
G01X0025460Y0007506D03*
G01X0025435Y0007556D03*
G01X0025410Y0007581D03*
G01X0025410Y0007606D03*
G01X0025360Y0007681D03*
G01X0025335Y0007731D03*
G01X0025560Y0007656D03*
G01X0025585Y0007606D03*
G01X0025585Y0007581D03*
G01X0025735Y0007031D03*
G01X0025760Y0006981D03*
G01X0025785Y0006931D03*
G01X0025835Y0006856D03*
G01X0025860Y0006806D03*
G01X0025910Y0006806D03*
G01X0025910Y0006831D03*
G01X0025910Y0006856D03*
G01X0025885Y0006906D03*
G01X0025885Y0006931D03*
G01X0025885Y0006956D03*
G01X0025585Y0006756D03*
G01X0025510Y0006756D03*
G01X0025685Y0006656D03*
G01X0026335Y0006056D03*
G01X0026335Y0006031D03*
G01X0024760Y0004706D03*
G01X0024760Y0004681D03*
G01X0025135Y0008131D03*
G01X0025135Y0008156D03*
G01X0025110Y0008206D03*
G01X0025110Y0008231D03*
G01X0025110Y0008256D03*
G01X0025085Y0008281D03*
G01X0025085Y0008306D03*
G01X0025085Y0008331D03*
G01X0025060Y0008381D03*
G01X0025060Y0008406D03*
G01X0025035Y0008481D03*
G01X0025035Y0008506D03*
G01X0025010Y0008556D03*
G01X0025010Y0008606D03*
G01X0024985Y0008656D03*
G01X0024960Y0008681D03*
G01X0024960Y0008706D03*
G01X0024935Y0008731D03*
G01X0024910Y0008756D03*
G01X0024910Y0008781D03*
G01X0024885Y0008806D03*
G01X0024860Y0008831D03*
G01X0024860Y0008856D03*
G01X0024835Y0008881D03*
G01X0024810Y0008906D03*
G01X0024610Y0008731D03*
G01X0024610Y0008706D03*
G01X0024585Y0008681D03*
G01X0024585Y0008656D03*
G01X0024560Y0008781D03*
G01X0024210Y0008931D03*
G01X0024110Y0008881D03*
G01X0024085Y0008856D03*
G01X0024060Y0008831D03*
G01X0024060Y0008806D03*
G01X0024010Y0008756D03*
G01X0024010Y0008731D03*
G01X0023985Y0008706D03*
G01X0023985Y0008356D03*
G01X0024910Y0008381D03*
G01X0024935Y0008331D03*
G01X0024960Y0008206D03*
G01X0025260Y0008156D03*
G01X0025135Y0008481D03*
G01X0025110Y0008506D03*
G01X0025085Y0008531D03*
G01X0025060Y0008556D03*
G01X0035350Y0006921D03*
G01X0035375Y0006971D03*
G54D20*
G01X0036138Y0007521D03*
G01X0036138Y0007746D03*
G01X0036138Y0007946D03*
G01X0037438Y0008546D03*
G01X0037438Y0008571D03*
G01X0037438Y0008596D03*
G01X0037438Y0008621D03*
G01X0037438Y0008646D03*
G01X0037438Y0008671D03*
G01X0036763Y0008846D03*
G01X0033913Y0008146D03*
G01X0033913Y0008121D03*
G01X0033888Y0008196D03*
G01X0033888Y0008221D03*
G01X0033913Y0008021D03*
G01X0033913Y0007871D03*
G01X0033913Y0007846D03*
G01X0033913Y0007171D03*
G01X0033913Y0007146D03*
G01X0033263Y0006471D03*
G01X0032638Y0005846D03*
G01X0032613Y0005346D03*
G01X0031488Y0004596D03*
G01X0031513Y0003896D03*
G01X0034413Y0005271D03*
G01X0036763Y0006271D03*
G01X0036763Y0006296D03*
G01X0030313Y0005871D03*
G01X0026423Y0005756D03*
G01X0026423Y0005706D03*
G01X0026423Y0005606D03*
G01X0026423Y0005581D03*
G01X0025823Y0005681D03*
G01X0025173Y0005531D03*
G01X0024523Y0005456D03*
G01X0024523Y0005431D03*
G01X0024048Y0005331D03*
G01X0024048Y0005306D03*
G01X0023723Y0005406D03*
G01X0023423Y0005431D03*
G01X0023423Y0005656D03*
G01X0023398Y0005706D03*
G01X0023173Y0005731D03*
G01X0023173Y0005756D03*
G01X0023148Y0005781D03*
G01X0023148Y0005806D03*
G01X0023148Y0005531D03*
G01X0023173Y0005506D03*
G01X0022998Y0005431D03*
G01X0022823Y0005156D03*
G01X0022673Y0005406D03*
G01X0023423Y0005181D03*
G01X0023698Y0005031D03*
G01X0023723Y0005006D03*
G01X0023698Y0004681D03*
G01X0025148Y0004781D03*
G01X0025148Y0004931D03*
G01X0025798Y0004931D03*
G01X0025798Y0005081D03*
G01X0025823Y0005106D03*
G01X0023148Y0006331D03*
G01X0023148Y0006356D03*
G01X0022848Y0006306D03*
G01X0022848Y0006281D03*
G01X0022848Y0006256D03*
G01X0022823Y0006231D03*
G01X0022823Y0006206D03*
G01X0022823Y0006181D03*
G01X0022673Y0006206D03*
G01X0022548Y0006081D03*
G01X0022473Y0006081D03*
G01X0022473Y0006006D03*
G01X0022398Y0005931D03*
G01X0022398Y0005831D03*
G01X0022473Y0005756D03*
G01X0022198Y0005606D03*
G01X0022198Y0005931D03*
G01X0022123Y0006006D03*
G01X0022123Y0006256D03*
G01X0022123Y0006281D03*
G01X0022123Y0006306D03*
G01X0022123Y0006331D03*
G01X0022323Y0006406D03*
G01X0022398Y0006456D03*
G01X0022548Y0006381D03*
G01X0022473Y0006306D03*
G01X0022398Y0006706D03*
G01X0022398Y0006731D03*
G01X0023023Y0006881D03*
G01X0023023Y0006906D03*
G01X0023148Y0006956D03*
G01X0023148Y0006981D03*
G01X0023173Y0007006D03*
G01X0023423Y0007031D03*
G01X0023423Y0007056D03*
G01X0023398Y0006856D03*
G01X0023398Y0006831D03*
G01X0023398Y0006806D03*
G01X0023398Y0006781D03*
G01X0023423Y0006756D03*
G01X0023423Y0006731D03*
G01X0023698Y0007181D03*
G01X0024523Y0007306D03*
G01X0024523Y0007331D03*
G01X0024523Y0007356D03*
G01X0025173Y0008006D03*
G01X0025173Y0008031D03*
G01X0025173Y0008056D03*
G01X0025148Y0008081D03*
G01X0025148Y0008106D03*
G01X0025173Y0008431D03*
G01X0025148Y0008456D03*
G01X0024023Y0008406D03*
G01X0023723Y0008431D03*
G01X0023698Y0008406D03*
G01X0023423Y0008031D03*
G01X0023423Y0008006D03*
G01X0023398Y0007981D03*
G01X0023398Y0007731D03*
G01X0025823Y0007206D03*
G01X0025798Y0006906D03*
G01X0025823Y0006881D03*
G01X0022848Y0005981D03*
G01X0022123Y0005231D03*
G01X0022123Y0005206D03*
G01X0024373Y0009131D03*
G54D21*
G01X0023860Y0008456D03*
G01X0023860Y0007331D03*
G01X0024460Y0007456D03*
G01X0024460Y0007481D03*
G01X0024785Y0007481D03*
G01X0025360Y0007281D03*
G01X0025385Y0007256D03*
G01X0023235Y0005956D03*
G01X0023235Y0005931D03*
G01X0023060Y0006031D03*
G01X0022760Y0006031D03*
G01X0022760Y0006056D03*
G01X0023210Y0005681D03*
G01X0023235Y0005656D03*
G01X0023085Y0005581D03*
G01X0022760Y0005406D03*
G01X0023235Y0005056D03*
G01X0023235Y0004906D03*
G01X0023810Y0004706D03*
G01X0023810Y0004681D03*
G01X0024160Y0005206D03*
G01X0023535Y0005306D03*
G01X0023510Y0005331D03*
G01X0023535Y0005756D03*
G01X0022910Y0006456D03*
G01X0025385Y0005331D03*
G01X0026035Y0005756D03*
G01X0026610Y0005731D03*
G01X0030550Y0005346D03*
G01X0030700Y0005171D03*
G01X0030975Y0004846D03*
G01X0031025Y0004796D03*
G01X0031900Y0004346D03*
G01X0031925Y0004371D03*
G01X0031925Y0004396D03*
G01X0031325Y0003846D03*
G01X0031300Y0003721D03*
G01X0031275Y0003696D03*
G01X0031575Y0005296D03*
G01X0030675Y0005746D03*
G01X0033475Y0006821D03*
G01X0033500Y0006846D03*
G01X0033525Y0006871D03*
G01X0034775Y0005896D03*
G01X0035050Y0006146D03*
G01X0035100Y0006196D03*
G01X0034475Y0005671D03*
G01X0034525Y0005496D03*
G01X0034475Y0005396D03*
G01X0036400Y0006746D03*
G01X0035975Y0007071D03*
G01X0035875Y0007146D03*
G01X0035675Y0007221D03*
G01X0035875Y0007421D03*
G01X0035925Y0007496D03*
G01X0035975Y0007546D03*
G01X0036025Y0007371D03*
G01X0036250Y0007696D03*
G01X0036400Y0007921D03*
G01X0036500Y0008096D03*
G01X0036550Y0008171D03*
G01X0036550Y0008196D03*
G01X0036975Y0008196D03*
G01X0037025Y0008271D03*
G01X0037225Y0008221D03*
G01X0037175Y0008646D03*
G01X0037225Y0008696D03*
G01X0037275Y0008796D03*
G01X0036925Y0009046D03*
G01X0036825Y0008921D03*
G01X0036025Y0009196D03*
G01X0035875Y0009321D03*
G01X0035825Y0009296D03*
G01X0035775Y0009221D03*
G01X0035675Y0009071D03*
G01X0035150Y0008471D03*
G01X0035050Y0008396D03*
G01X0035000Y0008346D03*
G01X0034625Y0008321D03*
G01X0034575Y0008396D03*
G01X0034525Y0008496D03*
G01X0034475Y0008596D03*
G01X0033525Y0008946D03*
G01X0033500Y0008996D03*
G01X0033500Y0009021D03*
G01X0032275Y0008996D03*
G01X0032250Y0008971D03*
G01X0032225Y0009471D03*
G01X0032275Y0009896D03*
G01X0031900Y0009921D03*
G01X0031900Y0009946D03*
G01X0031900Y0009971D03*
G01X0031025Y0009621D03*
G01X0031025Y0009596D03*
G01X0031025Y0009571D03*
G01X0031000Y0009471D03*
G01X0031000Y0009396D03*
G01X0031025Y0009321D03*
G01X0031025Y0009296D03*
G01X0031025Y0009271D03*
G01X0031025Y0009246D03*
G01X0031625Y0008671D03*
G01X0031625Y0008646D03*
G01X0031625Y0008621D03*
G01X0031625Y0008596D03*
G01X0031625Y0008571D03*
G01X0031625Y0008546D03*
G01X0031625Y0008521D03*
G01X0032225Y0008096D03*
G01X0032250Y0008071D03*
G01X0032275Y0008021D03*
G01X0032275Y0007996D03*
G01X0032275Y0007871D03*
G01X0032275Y0007846D03*
G01X0032275Y0007821D03*
G01X0032250Y0007771D03*
G01X0032225Y0007746D03*
G01X0034950Y0007971D03*
G01X0035050Y0008071D03*
G01X0036500Y0009896D03*
G01X0036300Y0010221D03*
G01X0036300Y0010246D03*
G54D22*
G01X0036225Y0009571D03*
G01X0036900Y0009271D03*
G01X0036900Y0009246D03*
G01X0035800Y0008946D03*
G01X0036900Y0008046D03*
G01X0036125Y0006946D03*
G01X0036375Y0006296D03*
G01X0034350Y0005546D03*
G01X0033325Y0005021D03*
G01X0031475Y0003671D03*
G01X0030100Y0005771D03*
G01X0031825Y0007521D03*
G01X0032025Y0008796D03*
G01X0032025Y0010096D03*
G01X0031475Y0010121D03*
G01X0025135Y0005356D03*
G01X0023960Y0005106D03*
G01X0023660Y0004831D03*
G01X0023410Y0005056D03*
G01X0024360Y0004706D03*
G54D23*
G01X0025098Y0004806D03*
G01X0023973Y0005281D03*
G01X0023348Y0005206D03*
G01X0030813Y0005721D03*
G01X0032038Y0005096D03*
G01X0031163Y0004671D03*
G01X0031838Y0004271D03*
G01X0031813Y0004246D03*
G01X0031513Y0003721D03*
G01X0034413Y0005596D03*
G01X0036713Y0006121D03*
G01X0033888Y0007296D03*
G01X0033888Y0007321D03*
G01X0032013Y0008271D03*
G01X0031788Y0008371D03*
G01X0031788Y0007496D03*
G01X0031838Y0006796D03*
G01X0031788Y0006771D03*
G01X0033913Y0009096D03*
G54D24*
G01X0034063Y0009021D03*
G01X0034113Y0008971D03*
G01X0035313Y0008596D03*
G01X0035363Y0008621D03*
G01X0034788Y0008096D03*
G01X0036038Y0007671D03*
G01X0036038Y0007646D03*
G01X0036563Y0008271D03*
G01X0037238Y0008246D03*
G01X0036038Y0009171D03*
G01X0036038Y0009221D03*
G01X0032238Y0008946D03*
G01X0031638Y0008496D03*
G01X0031288Y0008871D03*
G01X0031263Y0008896D03*
G01X0032213Y0008121D03*
G01X0032263Y0008046D03*
G01X0032263Y0007796D03*
G01X0032213Y0007721D03*
G01X0031888Y0007246D03*
G01X0031913Y0007221D03*
G01X0033463Y0006796D03*
G01X0033538Y0006896D03*
G01X0032813Y0005546D03*
G01X0032263Y0005221D03*
G01X0031638Y0005221D03*
G01X0031638Y0005246D03*
G01X0031338Y0005496D03*
G01X0031263Y0005546D03*
G01X0030563Y0005321D03*
G01X0030688Y0005196D03*
G01X0030388Y0005496D03*
G01X0030988Y0004821D03*
G01X0031913Y0004421D03*
G01X0031288Y0003671D03*
G01X0031263Y0003646D03*
G01X0034063Y0005396D03*
G01X0034088Y0005421D03*
G01X0026673Y0005606D03*
G01X0026648Y0005581D03*
G01X0026623Y0005556D03*
G01X0025398Y0004806D03*
G01X0024748Y0004956D03*
G01X0023848Y0005131D03*
G01X0023798Y0005156D03*
G01X0023873Y0005306D03*
G01X0023823Y0005331D03*
G01X0023573Y0005556D03*
G01X0022923Y0006031D03*
G01X0022548Y0005706D03*
G01X0022048Y0005131D03*
G01X0024148Y0007481D03*
G01X0023498Y0007856D03*
G01X0023498Y0007881D03*
G01X0025398Y0007906D03*
G01X0025423Y0007881D03*
G01X0031263Y0009996D03*
G01X0032213Y0009971D03*
G01X0032238Y0009946D03*
G01X0032263Y0009921D03*
G54D25*
G01X0034900Y0007921D03*
G01X0035100Y0008096D03*
G01X0035825Y0007796D03*
G01X0035875Y0007746D03*
G01X0035975Y0007796D03*
G01X0035975Y0007821D03*
G01X0035925Y0007896D03*
G01X0035975Y0007996D03*
G01X0036150Y0007921D03*
G01X0036150Y0007896D03*
G01X0036150Y0007871D03*
G01X0036150Y0007846D03*
G01X0036150Y0007821D03*
G01X0036150Y0007771D03*
G01X0036250Y0008021D03*
G01X0036300Y0008121D03*
G01X0036300Y0008146D03*
G01X0036550Y0008371D03*
G01X0036825Y0008171D03*
G01X0037225Y0008896D03*
G01X0036825Y0008971D03*
G01X0036500Y0009921D03*
G01X0036250Y0010071D03*
G01X0036350Y0010171D03*
G01X0036300Y0010296D03*
G01X0036200Y0009771D03*
G01X0035775Y0007696D03*
G01X0035825Y0007596D03*
G01X0035825Y0007571D03*
G01X0035675Y0007271D03*
G01X0035300Y0006846D03*
G01X0035250Y0006771D03*
G01X0035250Y0006746D03*
G01X0035200Y0006621D03*
G01X0035200Y0006596D03*
G01X0036200Y0006846D03*
G01X0036300Y0006771D03*
G01X0032625Y0005371D03*
G01X0029950Y0005971D03*
G01X0026435Y0006481D03*
G01X0026435Y0006631D03*
G01X0025810Y0007231D03*
G01X0025810Y0007256D03*
G01X0025810Y0007281D03*
G01X0025810Y0007306D03*
G01X0025160Y0007181D03*
G01X0025160Y0007156D03*
G01X0024510Y0007381D03*
G01X0024510Y0007406D03*
G01X0023710Y0007431D03*
G01X0023410Y0007431D03*
G01X0023410Y0007456D03*
G01X0023160Y0007456D03*
G01X0023160Y0007481D03*
G01X0023160Y0007431D03*
G01X0023010Y0006856D03*
G01X0023010Y0006831D03*
G01X0022260Y0006706D03*
G01X0022260Y0006681D03*
G01X0022260Y0006556D03*
G01X0022260Y0006531D03*
G01X0022310Y0006431D03*
G01X0022410Y0006431D03*
G01X0022410Y0006406D03*
G01X0022410Y0006381D03*
G01X0022260Y0006306D03*
G01X0022135Y0006231D03*
G01X0022135Y0006206D03*
G01X0022310Y0006131D03*
G01X0022485Y0006181D03*
G01X0022485Y0006206D03*
G01X0022560Y0006056D03*
G01X0022835Y0005956D03*
G01X0023160Y0006156D03*
G01X0023160Y0006381D03*
G01X0023410Y0005681D03*
G01X0023010Y0005406D03*
G01X0023010Y0005381D03*
G01X0022685Y0005381D03*
G01X0022210Y0005506D03*
G01X0022135Y0005356D03*
G01X0022135Y0005281D03*
G01X0022135Y0005256D03*
G01X0022060Y0005781D03*
G01X0022260Y0005856D03*
G01X0022310Y0005781D03*
G01X0024510Y0005406D03*
G01X0024510Y0005381D03*
G01X0024510Y0005356D03*
G01X0024510Y0005331D03*
G01X0024510Y0005006D03*
G01X0024510Y0004981D03*
G01X0025160Y0004906D03*
G01X0025160Y0004881D03*
G01X0025160Y0004856D03*
G01X0025160Y0004831D03*
G01X0025810Y0005856D03*
G01X0023710Y0007981D03*
G01X0024035Y0008781D03*
G01X0031500Y0003796D03*
G54D26*
G01X0031638Y0003896D03*
G01X0031288Y0003596D03*
G01X0031263Y0003571D03*
G01X0033463Y0005096D03*
G01X0034038Y0005371D03*
G01X0036588Y0006196D03*
G01X0036638Y0006171D03*
G01X0034813Y0008071D03*
G01X0034763Y0008171D03*
G01X0034113Y0008946D03*
G01X0034063Y0008996D03*
G01X0033513Y0009371D03*
G01X0031363Y0010071D03*
G01X0025373Y0007981D03*
G01X0024848Y0007656D03*
G01X0024198Y0007531D03*
G01X0024173Y0007681D03*
G01X0023548Y0007981D03*
G01X0023523Y0007931D03*
G01X0023573Y0004906D03*
G01X0024748Y0004931D03*
G01X0025398Y0004831D03*
G01X0029763Y0005996D03*
G01X0029863Y0005946D03*
G01X0030713Y0005771D03*
G01X0030963Y0005746D03*
G54D27*
G01X0030238Y0006046D03*
G01X0030088Y0005796D03*
G01X0032563Y0004746D03*
G01X0032588Y0005521D03*
G01X0032613Y0005546D03*
G01X0034388Y0005571D03*
G01X0031888Y0007546D03*
G01X0031913Y0008321D03*
G01X0033938Y0009071D03*
G01X0036113Y0009071D03*
G01X0026523Y0005806D03*
G01X0023348Y0004856D03*
G01X0031438Y0003646D03*
G54D28*
G01X0031875Y0004321D03*
G01X0031950Y0004521D03*
G01X0031075Y0004746D03*
G01X0031725Y0005146D03*
G01X0031975Y0005071D03*
G01X0032100Y0005121D03*
G01X0032175Y0005171D03*
G01X0033050Y0004671D03*
G01X0033425Y0005071D03*
G01X0033575Y0005146D03*
G01X0033625Y0005171D03*
G01X0033675Y0005196D03*
G01X0033775Y0005246D03*
G01X0034300Y0005421D03*
G01X0032700Y0005721D03*
G01X0031925Y0006846D03*
G01X0031950Y0006871D03*
G01X0031875Y0006821D03*
G01X0031700Y0006721D03*
G01X0032100Y0007646D03*
G01X0032150Y0007671D03*
G01X0032125Y0008196D03*
G01X0032100Y0008221D03*
G01X0032050Y0008246D03*
G01X0031750Y0008396D03*
G01X0031700Y0008421D03*
G01X0032100Y0008846D03*
G01X0032150Y0008871D03*
G01X0032175Y0008896D03*
G01X0033625Y0008796D03*
G01X0033625Y0008771D03*
G01X0034000Y0009046D03*
G01X0034175Y0008896D03*
G01X0034200Y0008871D03*
G01X0034275Y0008821D03*
G01X0033725Y0009246D03*
G01X0032175Y0009996D03*
G01X0032150Y0010021D03*
G01X0032125Y0010046D03*
G01X0032075Y0010071D03*
G01X0035450Y0008696D03*
G01X0036650Y0009246D03*
G01X0036175Y0009496D03*
G01X0036800Y0008146D03*
G01X0035975Y0007571D03*
G01X0030775Y0005846D03*
G01X0030675Y0005896D03*
G01X0030625Y0005921D03*
G01X0030175Y0005696D03*
G01X0030200Y0005671D03*
G01X0030250Y0005621D03*
G01X0030350Y0005521D03*
G01X0026785Y0006306D03*
G01X0026285Y0006356D03*
G01X0026160Y0006106D03*
G01X0026160Y0005731D03*
G01X0025910Y0005206D03*
G01X0025560Y0005081D03*
G01X0025260Y0005106D03*
G01X0025035Y0005531D03*
G01X0025035Y0005556D03*
G01X0023910Y0005556D03*
G01X0023635Y0005256D03*
G01X0023285Y0005231D03*
G01X0022885Y0005131D03*
G01X0023635Y0004856D03*
G01X0023010Y0005831D03*
G01X0022785Y0006081D03*
G01X0022535Y0006356D03*
G01X0022185Y0006356D03*
G01X0023035Y0006806D03*
G01X0024085Y0007656D03*
G01X0024710Y0007706D03*
G01X0024960Y0007606D03*
G01X0024910Y0007131D03*
G01X0025310Y0008081D03*
G54D29*
G01X0024472Y0007256D03*
G01X0024472Y0007231D03*
G01X0024472Y0007206D03*
G01X0024472Y0007181D03*
G01X0024973Y0005281D03*
G01X0024123Y0005056D03*
G01X0024948Y0004856D03*
G01X0029738Y0006021D03*
G01X0030412Y0005896D03*
G01X0030488Y0005871D03*
G01X0032413Y0004696D03*
G01X0033013Y0004821D03*
G01X0033113Y0004921D03*
G01X0034313Y0005521D03*
G01X0032737Y0005746D03*
G01X0031213Y0004646D03*
G01X0031513Y0003746D03*
G01X0031962Y0008771D03*
G01X0033663Y0009271D03*
G01X0033738Y0009221D03*
G01X0031962Y0010121D03*
G01X0036238Y0009596D03*
G01X0036288Y0009921D03*
G01X0036338Y0010046D03*
G01X0036488Y0009821D03*
G01X0036713Y0009396D03*
G01X0036913Y0009221D03*
G54D30*
G01X0036513Y0009521D03*
G01X0036463Y0009471D03*
G01X0036363Y0009396D03*
G01X0036313Y0009346D03*
G01X0036287Y0009321D03*
G01X0036337Y0009171D03*
G01X0036263Y0009621D03*
G01X0036287Y0009646D03*
G01X0036363Y0009696D03*
G01X0036387Y0009721D03*
G01X0036413Y0009746D03*
G01X0036463Y0009796D03*
G01X0036337Y0010021D03*
G01X0033738Y0009196D03*
G01X0036563Y0008346D03*
G01X0036912Y0008071D03*
G01X0031588Y0003871D03*
G01X0024547Y0004881D03*
G01X0022773Y0005706D03*
G54D31*
G01X0022798Y0005781D03*
G01X0022798Y0005806D03*
G01X0022798Y0005881D03*
G01X0022798Y0005931D03*
G01X0022823Y0006131D03*
G01X0022823Y0006156D03*
G01X0023123Y0006181D03*
G01X0023148Y0006281D03*
G01X0022998Y0006681D03*
G01X0022998Y0006706D03*
G01X0024023Y0007431D03*
G01X0024073Y0007456D03*
G01X0023448Y0007806D03*
G01X0025173Y0007281D03*
G01X0025198Y0007206D03*
G01X0026423Y0006456D03*
G01X0025798Y0006281D03*
G01X0025798Y0006256D03*
G01X0025823Y0006181D03*
G01X0025823Y0006156D03*
G01X0026448Y0005656D03*
G01X0025848Y0005131D03*
G01X0025798Y0004956D03*
G01X0025173Y0005606D03*
G01X0024073Y0005456D03*
G01X0024023Y0005256D03*
G01X0023998Y0004906D03*
G01X0022998Y0005506D03*
G01X0022998Y0005531D03*
G01X0022998Y0005856D03*
G01X0022098Y0005806D03*
G01X0024548Y0009131D03*
G01X0031163Y0008996D03*
G01X0031188Y0008971D03*
G01X0031213Y0008946D03*
G01X0031988Y0009021D03*
G01X0032013Y0009046D03*
G01X0031163Y0009896D03*
G01X0031188Y0009921D03*
G01X0031213Y0009946D03*
G01X0033888Y0009146D03*
G01X0035488Y0008721D03*
G01X0034913Y0008271D03*
G01X0034863Y0008221D03*
G01X0033913Y0007346D03*
G01X0033938Y0007121D03*
G01X0033938Y0007096D03*
G01X0033913Y0007071D03*
G01X0034863Y0005971D03*
G01X0034438Y0005646D03*
G01X0033938Y0005321D03*
G01X0033888Y0005296D03*
G01X0033238Y0004996D03*
G01X0031838Y0004221D03*
G01X0031813Y0004171D03*
G01X0031813Y0004146D03*
G01X0031788Y0004121D03*
G01X0031788Y0004096D03*
G01X0030913Y0004921D03*
G01X0030888Y0004946D03*
G01X0031463Y0005396D03*
G01X0031488Y0005371D03*
G01X0031513Y0005346D03*
G01X0031538Y0005321D03*
G01X0031188Y0005596D03*
G01X0031163Y0005621D03*
G01X0030288Y0005596D03*
G01X0030138Y0005721D03*
G01X0031988Y0006921D03*
G01X0031988Y0007121D03*
G01X0031863Y0007271D03*
G01X0031838Y0007296D03*
G01X0031788Y0007321D03*
G01X0036163Y0009471D03*
G01X0036738Y0009446D03*
G54D32*
G01X0036600Y0009621D03*
G01X0036300Y0009946D03*
G01X0036350Y0009196D03*
G01X0036925Y0009196D03*
G01X0035725Y0008896D03*
G01X0033450Y0009296D03*
G01X0032925Y0005721D03*
G01X0032800Y0004821D03*
G01X0031675Y0003971D03*
G01X0031375Y0003796D03*
G01X0030600Y0005821D03*
G01X0024860Y0005531D03*
G01X0024210Y0004906D03*
G01X0023810Y0005356D03*
G01X0022810Y0005381D03*
G01X0022810Y0006106D03*
G01X0024735Y0007231D03*
G54D33*
G01X0024660Y0007556D03*
G01X0026785Y0005506D03*
G01X0024135Y0005231D03*
G01X0024135Y0004931D03*
G01X0029925Y0005921D03*
G01X0030075Y0005821D03*
G01X0030125Y0006071D03*
G01X0032500Y0004721D03*
G01X0033025Y0004696D03*
G01X0034300Y0005496D03*
G01X0036700Y0006146D03*
G01X0034925Y0008021D03*
G01X0033775Y0009171D03*
G01X0036600Y0009596D03*
G01X0036675Y0009171D03*
G01X0037325Y0008721D03*
G01X0031250Y0004621D03*
G01X0031275Y0003521D03*
G54D34*
G01X0031325Y0003746D03*
G01X0031350Y0003771D03*
G01X0031575Y0003771D03*
G01X0031600Y0003796D03*
G01X0031050Y0004771D03*
G01X0031600Y0005271D03*
G01X0031300Y0005521D03*
G01X0031050Y0005696D03*
G01X0031000Y0005721D03*
G01X0030725Y0005871D03*
G01X0030550Y0005946D03*
G01X0030375Y0005821D03*
G01X0030225Y0005646D03*
G01X0029950Y0005871D03*
G01X0032225Y0005196D03*
G01X0032300Y0005246D03*
G01X0033525Y0005121D03*
G01X0034150Y0005446D03*
G01X0036525Y0006221D03*
G01X0036225Y0006871D03*
G01X0036575Y0008296D03*
G01X0036950Y0008171D03*
G01X0037300Y0008746D03*
G01X0036900Y0009171D03*
G01X0036625Y0009646D03*
G01X0036000Y0009396D03*
G01X0035950Y0009021D03*
G01X0036375Y0010071D03*
G01X0032200Y0008921D03*
G01X0031350Y0008821D03*
G01X0031325Y0008846D03*
G01X0031300Y0010021D03*
G01X0031325Y0010046D03*
G01X0025435Y0007856D03*
G01X0025385Y0007931D03*
G01X0025385Y0007956D03*
G01X0024785Y0007681D03*
G01X0023535Y0007956D03*
G01X0023510Y0007906D03*
G01X0026660Y0006231D03*
G01X0025360Y0005556D03*
G01X0025435Y0005356D03*
G01X0025335Y0005056D03*
G01X0025410Y0004956D03*
G01X0025410Y0004931D03*
G01X0024185Y0005031D03*
G01X0024110Y0004956D03*
G01X0023585Y0005281D03*
G01X0023085Y0005556D03*
G54D35*
G01X0023010Y0005481D03*
G01X0022685Y0005581D03*
G01X0022685Y0005606D03*
G01X0022685Y0005631D03*
G01X0022685Y0005656D03*
G01X0022285Y0005356D03*
G01X0023385Y0005456D03*
G01X0023710Y0005431D03*
G01X0023710Y0005381D03*
G01X0024060Y0005381D03*
G01X0024060Y0005406D03*
G01X0024060Y0005431D03*
G01X0024060Y0005356D03*
G01X0023685Y0005056D03*
G01X0023435Y0005006D03*
G01X0023385Y0005731D03*
G01X0023160Y0006306D03*
G01X0022985Y0006631D03*
G01X0022985Y0006656D03*
G01X0023010Y0006731D03*
G01X0023735Y0007206D03*
G01X0024010Y0007181D03*
G01X0024010Y0007156D03*
G01X0024035Y0007631D03*
G01X0023735Y0008006D03*
G01X0023435Y0007781D03*
G01X0023410Y0007756D03*
G01X0023385Y0007706D03*
G01X0025135Y0007506D03*
G01X0025160Y0007481D03*
G01X0025185Y0007456D03*
G01X0025160Y0007131D03*
G01X0025160Y0007106D03*
G01X0025160Y0007081D03*
G01X0025835Y0007031D03*
G01X0025785Y0006306D03*
G01X0026435Y0006431D03*
G01X0026435Y0006031D03*
G01X0026435Y0005781D03*
G01X0026435Y0005681D03*
G01X0026435Y0005631D03*
G01X0025785Y0005831D03*
G01X0025185Y0005581D03*
G01X0025185Y0005556D03*
G01X0025185Y0005181D03*
G01X0025135Y0005156D03*
G01X0030450Y0005446D03*
G01X0030475Y0005421D03*
G01X0030600Y0005296D03*
G01X0030625Y0005271D03*
G01X0030850Y0004996D03*
G01X0030875Y0004971D03*
G01X0031800Y0005071D03*
G01X0030900Y0005696D03*
G01X0031975Y0006896D03*
G01X0032000Y0006946D03*
G01X0032000Y0007096D03*
G01X0031975Y0007146D03*
G01X0033275Y0006496D03*
G01X0033300Y0006521D03*
G01X0033250Y0006446D03*
G01X0033900Y0007021D03*
G01X0033900Y0007046D03*
G01X0033925Y0007196D03*
G01X0033925Y0007221D03*
G01X0033925Y0007246D03*
G01X0033925Y0007271D03*
G01X0033925Y0007371D03*
G01X0033925Y0007396D03*
G01X0033925Y0007896D03*
G01X0033925Y0007921D03*
G01X0033925Y0007946D03*
G01X0033925Y0007971D03*
G01X0033925Y0007996D03*
G01X0033925Y0008046D03*
G01X0033900Y0008171D03*
G01X0033875Y0008246D03*
G01X0034550Y0008446D03*
G01X0034500Y0008546D03*
G01X0034450Y0008621D03*
G01X0034400Y0008696D03*
G01X0034975Y0008321D03*
G01X0035125Y0008446D03*
G01X0036475Y0008371D03*
G01X0036525Y0008146D03*
G01X0036475Y0008046D03*
G01X0036750Y0008171D03*
G01X0036900Y0008021D03*
G01X0037000Y0008246D03*
G01X0037050Y0008321D03*
G01X0037200Y0008671D03*
G01X0036800Y0008896D03*
G01X0037150Y0009021D03*
G01X0037050Y0009121D03*
G01X0036950Y0009296D03*
G01X0036800Y0009296D03*
G01X0036750Y0009471D03*
G01X0036225Y0009821D03*
G01X0035950Y0009371D03*
G01X0035900Y0009346D03*
G01X0035750Y0009196D03*
G01X0035950Y0007521D03*
G01X0035850Y0007396D03*
G01X0035950Y0007271D03*
G01X0035900Y0007196D03*
G01X0035900Y0007121D03*
G01X0036275Y0006846D03*
G01X0036375Y0006771D03*
G01X0036425Y0006721D03*
G01X0036475Y0006671D03*
G01X0036525Y0006621D03*
G01X0035225Y0006321D03*
G01X0035175Y0006271D03*
G01X0035125Y0006221D03*
G01X0035075Y0006171D03*
G01X0035025Y0006121D03*
G01X0034925Y0006021D03*
G01X0034650Y0005796D03*
G01X0034500Y0005446D03*
G01X0034450Y0005346D03*
G01X0034450Y0005321D03*
G01X0033300Y0004921D03*
G01X0033275Y0004896D03*
G01X0033250Y0004871D03*
G01X0025185Y0007981D03*
G01X0031150Y0009021D03*
G01X0031150Y0009871D03*
G54D36*
G01X0031712Y0010196D03*
G01X0031538Y0008771D03*
G01X0031712Y0008696D03*
G01X0036188Y0006346D03*
G01X0031437Y0004496D03*
G01X0031588Y0003921D03*
G01X0031538Y0003846D03*
G01X0031362Y0003621D03*
G01X0030088Y0005846D03*
G01X0023322Y0005031D03*
G54D37*
G01X0024510Y0005031D03*
G01X0030450Y0005846D03*
G01X0036225Y0009021D03*
G54D38*
G01X0036725Y0009346D03*
G01X0024585Y0005056D03*
G54D39*
G01X0023685Y0005081D03*
G01X0032850Y0004746D03*
G01X0036575Y0009546D03*
G54D40*
G01X0031575Y0008746D03*
G01X0030075Y0005996D03*
G01X0030000Y0006021D03*
G01X0032050Y0004596D03*
G01X0033075Y0004896D03*
G01X0024535Y0007756D03*
G01X0024085Y0005081D03*
G54D41*
G01X0024848Y0005081D03*
G01X0024723Y0007206D03*
G01X0024223Y0007206D03*
G01X0031288Y0004596D03*
G01X0032888Y0004846D03*
G01X0036663Y0009196D03*
G54D42*
G01X0036663Y0009221D03*
G01X0036738Y0009421D03*
G01X0036888Y0009146D03*
G01X0037062Y0009096D03*
G01X0035888Y0008996D03*
G01X0035862Y0008971D03*
G01X0036213Y0009546D03*
G01X0036263Y0009896D03*
G01X0036487Y0009846D03*
G01X0034288Y0008796D03*
G01X0034213Y0008846D03*
G01X0033638Y0009296D03*
G01X0032062Y0008821D03*
G01X0031962Y0008296D03*
G01X0032062Y0007621D03*
G01X0030488Y0005971D03*
G01X0030412Y0005996D03*
G01X0030538Y0005771D03*
G01X0030163Y0005871D03*
G01X0030138Y0005746D03*
G01X0029812Y0005971D03*
G01X0031863Y0005021D03*
G01X0033387Y0005046D03*
G01X0034213Y0005471D03*
G01X0034263Y0005371D03*
G01X0034538Y0005696D03*
G01X0033088Y0005871D03*
G01X0036163Y0006921D03*
G01X0035888Y0007446D03*
G01X0035888Y0007471D03*
G01X0031413Y0010096D03*
G01X0026748Y0005806D03*
G01X0026273Y0005781D03*
G01X0026173Y0005756D03*
G01X0025247Y0005456D03*
G01X0024873Y0005506D03*
G01X0024672Y0005506D03*
G01X0024672Y0005481D03*
G01X0024248Y0005481D03*
G01X0024073Y0005531D03*
G01X0022797Y0005731D03*
G01X0022723Y0005681D03*
G01X0022448Y0005806D03*
G01X0022123Y0006106D03*
G01X0025297Y0005081D03*
G01X0025897Y0005181D03*
G01X0031388Y0003896D03*
G01X0031713Y0003996D03*
G54D43*
G01X0031250Y0003496D03*
G01X0032725Y0004796D03*
G01X0032950Y0004871D03*
G01X0033150Y0004946D03*
G01X0034375Y0005296D03*
G01X0032950Y0005746D03*
G01X0031725Y0006746D03*
G01X0031950Y0007571D03*
G01X0032000Y0007596D03*
G01X0031850Y0008346D03*
G01X0031400Y0008796D03*
G01X0033400Y0009421D03*
G01X0036100Y0009121D03*
G01X0036100Y0009096D03*
G01X0030325Y0006021D03*
G01X0026735Y0005481D03*
G01X0024935Y0005106D03*
G01X0024660Y0005531D03*
G01X0024460Y0005531D03*
G01X0024460Y0005506D03*
G01X0024460Y0005481D03*
G01X0024260Y0005506D03*
G01X0024260Y0005531D03*
G01X0022985Y0005806D03*
G01X0022835Y0005831D03*
G01X0022285Y0005631D03*
G01X0024460Y0007281D03*
G01X0024885Y0007631D03*
G01X0024460Y0009156D03*
G54D44*
G01X0024435Y0008081D03*
G01X0024260Y0007706D03*
G01X0022585Y0005731D03*
G01X0025110Y0005131D03*
G01X0032550Y0005496D03*
G01X0032675Y0004771D03*
G01X0036300Y0006321D03*
G01X0036875Y0008121D03*
G54D45*
G01X0036663Y0009146D03*
G01X0034938Y0008046D03*
G01X0033838Y0009121D03*
G01X0032688Y0005596D03*
G01X0031888Y0005046D03*
G01X0031463Y0003696D03*
G01X0024448Y0005181D03*
G54D46*
G01X0024535Y0005206D03*
G01X0029825Y0006096D03*
G01X0036525Y0009371D03*
G54D47*
G01X0036375Y0009146D03*
G01X0036375Y0009121D03*
G01X0035750Y0008921D03*
G01X0036575Y0008321D03*
G01X0033425Y0009396D03*
G01X0024810Y0005231D03*
G01X0024710Y0007181D03*
G01X0031650Y0003946D03*
G01X0031300Y0003546D03*
G01X0032250Y0004646D03*
G54D48*
G01X0024473Y0005556D03*
G54D49*
G01X0024473Y0005581D03*
G54D50*
G01X0024460Y0005606D03*
G54D51*
G01X0024472Y0005631D03*
G01X0024472Y0005656D03*
G01X0024472Y0006981D03*
G54D52*
G01X0024460Y0006956D03*
G01X0024460Y0005681D03*
G54D53*
G01X0024473Y0005706D03*
G01X0024498Y0006931D03*
G54D54*
G01X0024460Y0005756D03*
G01X0024460Y0005731D03*
G54D55*
G01X0024460Y0005781D03*
G01X0024460Y0005806D03*
G01X0024460Y0005831D03*
G01X0024460Y0005856D03*
G54D56*
G01X0024473Y0005881D03*
G01X0024473Y0005906D03*
G01X0024473Y0005931D03*
G54D57*
G01X0024460Y0005956D03*
G54D58*
G01X0024460Y0005981D03*
G01X0024460Y0006006D03*
G01X0024460Y0006031D03*
G01X0024460Y0006556D03*
G01X0024460Y0006581D03*
G54D59*
G01X0024460Y0006081D03*
G01X0024460Y0006056D03*
G54D60*
G01X0024473Y0006106D03*
G01X0024473Y0006386D03*
G01X0024473Y0006406D03*
G01X0024473Y0006431D03*
G01X0024473Y0006456D03*
G01X0024473Y0006481D03*
G54D61*
G01X0024448Y0006131D03*
G54D62*
G01X0024473Y0006156D03*
G01X0024473Y0006181D03*
G54D63*
G01X0024398Y0006206D03*
G54D64*
G01X0024410Y0006231D03*
G01X0024410Y0006256D03*
G54D65*
G01X0024473Y0006281D03*
G01X0024473Y0006306D03*
G54D66*
G01X0024523Y0006331D03*
G54D67*
G01X0024448Y0006356D03*
G01X0024448Y0006376D03*
G54D68*
G01X0024473Y0006506D03*
G01X0024473Y0006531D03*
G54D69*
G01X0024473Y0006606D03*
G01X0024473Y0006656D03*
G01X0024473Y0006681D03*
G01X0024473Y0006706D03*
G54D70*
G01X0024460Y0006631D03*
G54D71*
G01X0024473Y0006731D03*
G54D72*
G01X0024460Y0006756D03*
G01X0024460Y0006781D03*
G54D73*
G01X0024473Y0006806D03*
G54D74*
G01X0024460Y0006831D03*
G54D75*
G01X0024473Y0006856D03*
G01X0024473Y0006881D03*
G54D76*
G01X0024460Y0006906D03*
G54D77*
G01X0024473Y0007006D03*
G01X0024473Y0007031D03*
G54D78*
G01X0024473Y0007056D03*
G54D79*
G01X0024460Y0007081D03*
G01X0024460Y0007106D03*
G54D80*
G01X0024473Y0007131D03*
G54D81*
G01X0024460Y0007156D03*
G54D82*
G01X0024223Y0007181D03*
G01X0032163Y0004621D03*
G01X0032338Y0004671D03*
G01X0032938Y0004771D03*
G01X0036588Y0008396D03*
G01X0036488Y0009496D03*
G01X0036588Y0009571D03*
G54D83*
G01X0031875Y0008746D03*
G01X0024485Y0007581D03*
G01X0031950Y0004571D03*
G54D84*
G01X0029813Y0006046D03*
G01X0024473Y0007731D03*
G54D85*
G01X0024510Y0008031D03*
G54D86*
G01X0024498Y0008056D03*
G54D87*
G01X0031475Y0003821D03*
G01X0034200Y0005321D03*
G54D88*
G01X0031575Y0004521D03*
G54D89*
G01X0031637Y0004546D03*
G54D90*
G01X0031413Y0004571D03*
G01X0030513Y0005796D03*
G54D91*
G01X0030213Y0005946D03*
G01X0032813Y0005696D03*
G01X0032888Y0005771D03*
G01X0032963Y0005846D03*
G01X0032863Y0004721D03*
G54D92*
G01X0032975Y0004796D03*
G01X0032975Y0005821D03*
G01X0032775Y0005896D03*
G01X0033475Y0009346D03*
G01X0036300Y0009671D03*
G01X0036450Y0009771D03*
G01X0036350Y0009971D03*
G01X0036350Y0009996D03*
G54D93*
G01X0034150Y0005346D03*
G54D94*
G01X0032750Y0005621D03*
G01X0032700Y0005571D03*
G01X0032775Y0005871D03*
G54D95*
G01X0032788Y0005671D03*
G01X0032763Y0005646D03*
G54D96*
G01X0032788Y0005796D03*
G01X0033513Y0009321D03*
G54D97*
G01X0036200Y0009246D03*
G01X0036750Y0009121D03*
G01X0030075Y0005896D03*
G01X0029775Y0006121D03*
G54D98*
G01X0030250Y0005921D03*
G54D99*
G01X0030150Y0005971D03*
G01X0036925Y0008096D03*
G54D100*
G01X0036288Y0009271D03*
G01X0029713Y0006071D03*
G54D101*
G01X0035725Y0006371D03*
G54D102*
G01X0035638Y0006396D03*
G54D103*
G01X0031738Y0008721D03*
G54D104*
G01X0036275Y0009046D03*
G54D105*
G01X0036538Y0009071D03*
G54D106*
G01X0036600Y0009096D03*
G54D107*
G01X0036388Y0009296D03*
G54D108*
G01X0036750Y0009321D03*
G01X0031725Y0010171D03*
G54D109*
G01X0036263Y0009421D03*
G54D110*
G01X0036313Y0009446D03*
G54D111*
G01X0031725Y0010146D03*
G54D112*
G01X0035530Y0011431D02*
G01X0021530Y0011431D01*
G01X0021530Y0011431D02*
G01X0021530Y0018431D01*
G01X0021530Y0018431D02*
G01X0035530Y0018431D01*
G01X0035530Y0018431D02*
G01X0035530Y0015431D01*
G01X0035530Y0015431D02*
G01X0035030Y0015431D01*
G01X0035030Y0015431D02*
G01X0035030Y0014431D01*
G01X0035030Y0014431D02*
G01X0035530Y0014431D01*
G01X0035530Y0014431D02*
G01X0035530Y0011431D01*
M02*
