%
M48
M72
T01C0.0130
T02C0.0140
T03C0.0380
T04C0.0400
T05C0.1614
%
T01
X11980Y6031
X5230Y7681
X14230Y12181
X7480Y14131
T02
X24450Y8631
X33910Y8731
T03
X34030Y11931
X33030Y11931
X32030Y11931
X31030Y11931
X30030Y11931
X29030Y11931
X28030Y11931
X27030Y11931
X26030Y11931
X25030Y11931
X24030Y11931
X23030Y11931
X22030Y11931
X22030Y12931
X22030Y13931
X22030Y14931
X22030Y15931
X22030Y16931
X22030Y17931
X23030Y17931
X24030Y17931
X25030Y17931
X26030Y17931
X27030Y17931
X28030Y17931
X29030Y17931
X30030Y17931
X31030Y17931
X32030Y17931
X33030Y17931
X34030Y17931
X35030Y17931
X34030Y12931
X35030Y11931
X32030Y12931
X31030Y12931
X30030Y12931
T04
X20330Y17821
X19330Y17921
X18330Y17821
X17330Y17921
X16330Y17821
X15330Y17921
X14330Y17821
T05
X2410Y2371
X38650Y17791
M30
