G75*
%MOIN*%
%OFA0B0*%
%FSLAX24Y24*%
%IPPOS*%
%LPD*%
%AMOC8*
5,1,8,0,0,1.08239X$1,22.5*
%
%ADD10C,0.0060*%
%ADD11C,0.0000*%
D10*
X001730Y000131D02*
X039590Y000131D01*
X039666Y000133D01*
X039742Y000139D01*
X039817Y000148D01*
X039892Y000162D01*
X039966Y000179D01*
X040039Y000200D01*
X040111Y000224D01*
X040182Y000253D01*
X040251Y000284D01*
X040318Y000319D01*
X040383Y000358D01*
X040447Y000400D01*
X040508Y000445D01*
X040567Y000493D01*
X040623Y000544D01*
X040677Y000598D01*
X040728Y000654D01*
X040776Y000713D01*
X040821Y000774D01*
X040863Y000838D01*
X040902Y000903D01*
X040937Y000970D01*
X040968Y001039D01*
X040997Y001110D01*
X041021Y001182D01*
X041042Y001255D01*
X041059Y001329D01*
X041073Y001404D01*
X041082Y001479D01*
X041088Y001555D01*
X041090Y001631D01*
X041090Y018131D01*
X041088Y018218D01*
X041082Y018305D01*
X041073Y018392D01*
X041060Y018478D01*
X041043Y018564D01*
X041022Y018649D01*
X040997Y018732D01*
X040969Y018815D01*
X040938Y018896D01*
X040903Y018976D01*
X040864Y019054D01*
X040822Y019131D01*
X040777Y019206D01*
X040728Y019278D01*
X040677Y019349D01*
X040622Y019417D01*
X040565Y019482D01*
X040504Y019545D01*
X040441Y019606D01*
X040376Y019663D01*
X040308Y019718D01*
X040237Y019769D01*
X040165Y019818D01*
X040090Y019863D01*
X040013Y019905D01*
X039935Y019944D01*
X039855Y019979D01*
X039774Y020010D01*
X039691Y020038D01*
X039608Y020063D01*
X039523Y020084D01*
X039437Y020101D01*
X039351Y020114D01*
X039264Y020123D01*
X039177Y020129D01*
X039090Y020131D01*
X001630Y020131D01*
X001554Y020129D01*
X001478Y020123D01*
X001403Y020114D01*
X001328Y020100D01*
X001254Y020083D01*
X001181Y020062D01*
X001109Y020038D01*
X001038Y020009D01*
X000969Y019978D01*
X000902Y019943D01*
X000837Y019904D01*
X000773Y019862D01*
X000712Y019817D01*
X000653Y019769D01*
X000597Y019718D01*
X000543Y019664D01*
X000492Y019608D01*
X000444Y019549D01*
X000399Y019488D01*
X000357Y019424D01*
X000318Y019359D01*
X000283Y019292D01*
X000252Y019223D01*
X000223Y019152D01*
X000199Y019080D01*
X000178Y019007D01*
X000161Y018933D01*
X000147Y018858D01*
X000138Y018783D01*
X000132Y018707D01*
X000130Y018631D01*
X000130Y001631D01*
X000134Y001553D01*
X000143Y001474D01*
X000155Y001397D01*
X000172Y001320D01*
X000192Y001244D01*
X000216Y001169D01*
X000244Y001096D01*
X000275Y001024D01*
X000310Y000953D01*
X000349Y000885D01*
X000391Y000819D01*
X000436Y000754D01*
X000485Y000693D01*
X000536Y000633D01*
X000591Y000577D01*
X000648Y000523D01*
X000708Y000472D01*
X000771Y000425D01*
X000835Y000380D01*
X000902Y000339D01*
X000971Y000301D01*
X001042Y000267D01*
X001115Y000237D01*
X001189Y000210D01*
X001264Y000187D01*
X001340Y000168D01*
X001417Y000152D01*
X001495Y000141D01*
X001573Y000134D01*
X001651Y000130D01*
X001730Y000131D01*
D11*
X001603Y002371D02*
X001605Y002427D01*
X001611Y002483D01*
X001621Y002539D01*
X001634Y002593D01*
X001652Y002647D01*
X001673Y002699D01*
X001697Y002750D01*
X001726Y002799D01*
X001757Y002845D01*
X001792Y002890D01*
X001829Y002932D01*
X001870Y002971D01*
X001913Y003007D01*
X001959Y003040D01*
X002006Y003070D01*
X002056Y003096D01*
X002108Y003119D01*
X002161Y003139D01*
X002215Y003154D01*
X002270Y003166D01*
X002326Y003174D01*
X002382Y003178D01*
X002438Y003178D01*
X002494Y003174D01*
X002550Y003166D01*
X002605Y003154D01*
X002659Y003139D01*
X002712Y003119D01*
X002764Y003096D01*
X002813Y003070D01*
X002861Y003040D01*
X002907Y003007D01*
X002950Y002971D01*
X002991Y002932D01*
X003028Y002890D01*
X003063Y002845D01*
X003094Y002799D01*
X003123Y002750D01*
X003147Y002699D01*
X003168Y002647D01*
X003186Y002593D01*
X003199Y002539D01*
X003209Y002483D01*
X003215Y002427D01*
X003217Y002371D01*
X003215Y002315D01*
X003209Y002259D01*
X003199Y002203D01*
X003186Y002149D01*
X003168Y002095D01*
X003147Y002043D01*
X003123Y001992D01*
X003094Y001943D01*
X003063Y001897D01*
X003028Y001852D01*
X002991Y001810D01*
X002950Y001771D01*
X002907Y001735D01*
X002861Y001702D01*
X002814Y001672D01*
X002764Y001646D01*
X002712Y001623D01*
X002659Y001603D01*
X002605Y001588D01*
X002550Y001576D01*
X002494Y001568D01*
X002438Y001564D01*
X002382Y001564D01*
X002326Y001568D01*
X002270Y001576D01*
X002215Y001588D01*
X002161Y001603D01*
X002108Y001623D01*
X002056Y001646D01*
X002006Y001672D01*
X001959Y001702D01*
X001913Y001735D01*
X001870Y001771D01*
X001829Y001810D01*
X001792Y001852D01*
X001757Y001897D01*
X001726Y001943D01*
X001697Y001992D01*
X001673Y002043D01*
X001652Y002095D01*
X001634Y002149D01*
X001621Y002203D01*
X001611Y002259D01*
X001605Y002315D01*
X001603Y002371D01*
X037843Y017791D02*
X037845Y017847D01*
X037851Y017903D01*
X037861Y017959D01*
X037874Y018013D01*
X037892Y018067D01*
X037913Y018119D01*
X037937Y018170D01*
X037966Y018219D01*
X037997Y018265D01*
X038032Y018310D01*
X038069Y018352D01*
X038110Y018391D01*
X038153Y018427D01*
X038199Y018460D01*
X038246Y018490D01*
X038296Y018516D01*
X038348Y018539D01*
X038401Y018559D01*
X038455Y018574D01*
X038510Y018586D01*
X038566Y018594D01*
X038622Y018598D01*
X038678Y018598D01*
X038734Y018594D01*
X038790Y018586D01*
X038845Y018574D01*
X038899Y018559D01*
X038952Y018539D01*
X039004Y018516D01*
X039053Y018490D01*
X039101Y018460D01*
X039147Y018427D01*
X039190Y018391D01*
X039231Y018352D01*
X039268Y018310D01*
X039303Y018265D01*
X039334Y018219D01*
X039363Y018170D01*
X039387Y018119D01*
X039408Y018067D01*
X039426Y018013D01*
X039439Y017959D01*
X039449Y017903D01*
X039455Y017847D01*
X039457Y017791D01*
X039455Y017735D01*
X039449Y017679D01*
X039439Y017623D01*
X039426Y017569D01*
X039408Y017515D01*
X039387Y017463D01*
X039363Y017412D01*
X039334Y017363D01*
X039303Y017317D01*
X039268Y017272D01*
X039231Y017230D01*
X039190Y017191D01*
X039147Y017155D01*
X039101Y017122D01*
X039054Y017092D01*
X039004Y017066D01*
X038952Y017043D01*
X038899Y017023D01*
X038845Y017008D01*
X038790Y016996D01*
X038734Y016988D01*
X038678Y016984D01*
X038622Y016984D01*
X038566Y016988D01*
X038510Y016996D01*
X038455Y017008D01*
X038401Y017023D01*
X038348Y017043D01*
X038296Y017066D01*
X038246Y017092D01*
X038199Y017122D01*
X038153Y017155D01*
X038110Y017191D01*
X038069Y017230D01*
X038032Y017272D01*
X037997Y017317D01*
X037966Y017363D01*
X037937Y017412D01*
X037913Y017463D01*
X037892Y017515D01*
X037874Y017569D01*
X037861Y017623D01*
X037851Y017679D01*
X037845Y017735D01*
X037843Y017791D01*
M02*
