G75*
%MOIN*%
%OFA0B0*%
%FSLAX24Y24*%
%IPPOS*%
%LPD*%
%AMOC8*
5,1,8,0,0,1.08239X$1,22.5*
%
%ADD10C,0.0200*%
%ADD11C,0.0160*%
%ADD12C,0.0080*%
%ADD13C,0.0300*%
%ADD14C,0.0140*%
D10*
X006730Y006767D02*
X006730Y009267D01*
X007730Y009267D01*
X008530Y008467D01*
X009730Y009567D01*
X010930Y008467D01*
X011730Y009267D01*
X012730Y009267D01*
X012730Y006767D01*
X009730Y004167D01*
X006730Y006767D01*
X006230Y009167D02*
X003730Y009167D01*
X001130Y012167D01*
X003730Y015167D01*
X006230Y015167D01*
X006130Y014067D01*
X005430Y013367D01*
X006530Y012167D01*
X005430Y010967D01*
X006230Y010167D01*
X006230Y009167D01*
X012930Y012167D02*
X014030Y013367D01*
X014030Y013467D01*
X013330Y014167D01*
X013330Y015167D01*
X015730Y015167D01*
X018330Y012167D01*
X015730Y009167D02*
X013330Y009167D01*
X013230Y009267D01*
X013230Y010167D01*
X014030Y010967D01*
X012930Y012167D01*
X009730Y014967D02*
X008530Y016067D01*
X007630Y015167D01*
X006730Y015167D01*
X006730Y017767D01*
X009730Y020367D01*
X012730Y017767D01*
X012730Y015367D01*
X012630Y015267D01*
X011730Y015267D01*
X010930Y016067D01*
X009730Y014967D01*
D11*
X015830Y009267D02*
X018330Y012167D01*
X020730Y011367D02*
X022630Y013467D01*
X023230Y013567D01*
X023130Y013367D02*
X024130Y013567D01*
X025230Y013167D01*
X025330Y013067D02*
X026930Y010867D01*
X026630Y006367D01*
X024530Y005567D01*
X024430Y005567D02*
X023530Y005567D01*
X021530Y006267D01*
X021530Y006367D02*
X021430Y006367D01*
X020730Y011367D01*
X022030Y009967D02*
X022230Y009667D01*
X022730Y010467D01*
X023030Y009967D01*
X023530Y010667D01*
X023930Y010067D01*
X024430Y010567D01*
X025030Y009867D01*
X025330Y010067D01*
X025930Y008867D01*
X026030Y008567D01*
X025630Y008367D01*
X025430Y008867D01*
X025030Y009167D01*
X024530Y008867D01*
X024030Y009167D01*
X023730Y008767D01*
X023230Y009167D01*
X022930Y008667D01*
X022430Y009167D01*
X021830Y008667D01*
X021930Y008767D02*
X021730Y008467D01*
X021530Y008567D02*
X022030Y009967D01*
X023830Y013667D02*
X023930Y013667D01*
D12*
X020130Y013667D02*
X020130Y020667D01*
X034130Y020667D01*
X034130Y017667D01*
X033630Y017667D01*
X033630Y016667D01*
X034130Y016667D01*
X034130Y013667D01*
X020130Y013667D01*
D13*
X021230Y008967D02*
X021232Y009068D01*
X021238Y009170D01*
X021248Y009271D01*
X021262Y009371D01*
X021279Y009471D01*
X021301Y009570D01*
X021326Y009668D01*
X021356Y009766D01*
X021389Y009862D01*
X021425Y009956D01*
X021466Y010049D01*
X021510Y010141D01*
X021557Y010230D01*
X021609Y010318D01*
X021663Y010404D01*
X021721Y010487D01*
X021782Y010568D01*
X021846Y010647D01*
X021913Y010723D01*
X021983Y010796D01*
X022055Y010867D01*
X022131Y010935D01*
X022209Y011000D01*
X022289Y011061D01*
X022372Y011120D01*
X022457Y011175D01*
X022545Y011227D01*
X022634Y011276D01*
X022725Y011320D01*
X022817Y011362D01*
X022912Y011399D01*
X023007Y011433D01*
X023104Y011464D01*
X023202Y011490D01*
X023301Y011513D01*
X023401Y011531D01*
X023501Y011546D01*
X023602Y011557D01*
X023703Y011564D01*
X023805Y011567D01*
X023906Y011566D01*
X024007Y011561D01*
X024109Y011552D01*
X024209Y011539D01*
X024309Y011522D01*
X024409Y011502D01*
X024507Y011477D01*
X024604Y011449D01*
X024701Y011417D01*
X024796Y011381D01*
X024889Y011342D01*
X024981Y011298D01*
X025071Y011252D01*
X025159Y011202D01*
X025245Y011148D01*
X025329Y011091D01*
X025411Y011031D01*
X025490Y010968D01*
X025567Y010901D01*
X025641Y010832D01*
X025713Y010760D01*
X025781Y010685D01*
X025847Y010608D01*
X025909Y010528D01*
X025969Y010446D01*
X026025Y010361D01*
X026077Y010274D01*
X026127Y010186D01*
X026173Y010095D01*
X026215Y010003D01*
X026253Y009909D01*
X026288Y009814D01*
X026319Y009717D01*
X026347Y009619D01*
X026370Y009521D01*
X026390Y009421D01*
X026406Y009321D01*
X026418Y009220D01*
X026426Y009119D01*
X026430Y009018D01*
X026430Y008916D01*
X026426Y008815D01*
X026418Y008714D01*
X026406Y008613D01*
X026390Y008513D01*
X026370Y008413D01*
X026347Y008315D01*
X026319Y008217D01*
X026288Y008120D01*
X026253Y008025D01*
X026215Y007931D01*
X026173Y007839D01*
X026127Y007748D01*
X026077Y007660D01*
X026025Y007573D01*
X025969Y007488D01*
X025909Y007406D01*
X025847Y007326D01*
X025781Y007249D01*
X025713Y007174D01*
X025641Y007102D01*
X025567Y007033D01*
X025490Y006966D01*
X025411Y006903D01*
X025329Y006843D01*
X025245Y006786D01*
X025159Y006732D01*
X025071Y006682D01*
X024981Y006636D01*
X024889Y006592D01*
X024796Y006553D01*
X024701Y006517D01*
X024604Y006485D01*
X024507Y006457D01*
X024409Y006432D01*
X024309Y006412D01*
X024209Y006395D01*
X024109Y006382D01*
X024007Y006373D01*
X023906Y006368D01*
X023805Y006367D01*
X023703Y006370D01*
X023602Y006377D01*
X023501Y006388D01*
X023401Y006403D01*
X023301Y006421D01*
X023202Y006444D01*
X023104Y006470D01*
X023007Y006501D01*
X022912Y006535D01*
X022817Y006572D01*
X022725Y006614D01*
X022634Y006658D01*
X022545Y006707D01*
X022457Y006759D01*
X022372Y006814D01*
X022289Y006873D01*
X022209Y006934D01*
X022131Y006999D01*
X022055Y007067D01*
X021983Y007138D01*
X021913Y007211D01*
X021846Y007287D01*
X021782Y007366D01*
X021721Y007447D01*
X021663Y007530D01*
X021609Y007616D01*
X021557Y007704D01*
X021510Y007793D01*
X021466Y007885D01*
X021425Y007978D01*
X021389Y008072D01*
X021356Y008168D01*
X021326Y008266D01*
X021301Y008364D01*
X021279Y008463D01*
X021262Y008563D01*
X021248Y008663D01*
X021238Y008764D01*
X021232Y008866D01*
X021230Y008967D01*
X028630Y009067D02*
X028632Y009168D01*
X028638Y009270D01*
X028648Y009371D01*
X028662Y009471D01*
X028679Y009571D01*
X028701Y009670D01*
X028726Y009768D01*
X028756Y009866D01*
X028789Y009962D01*
X028825Y010056D01*
X028866Y010149D01*
X028910Y010241D01*
X028957Y010330D01*
X029009Y010418D01*
X029063Y010504D01*
X029121Y010587D01*
X029182Y010668D01*
X029246Y010747D01*
X029313Y010823D01*
X029383Y010896D01*
X029455Y010967D01*
X029531Y011035D01*
X029609Y011100D01*
X029689Y011161D01*
X029772Y011220D01*
X029857Y011275D01*
X029945Y011327D01*
X030034Y011376D01*
X030125Y011420D01*
X030217Y011462D01*
X030312Y011499D01*
X030407Y011533D01*
X030504Y011564D01*
X030602Y011590D01*
X030701Y011613D01*
X030801Y011631D01*
X030901Y011646D01*
X031002Y011657D01*
X031103Y011664D01*
X031205Y011667D01*
X031306Y011666D01*
X031407Y011661D01*
X031509Y011652D01*
X031609Y011639D01*
X031709Y011622D01*
X031809Y011602D01*
X031907Y011577D01*
X032004Y011549D01*
X032101Y011517D01*
X032196Y011481D01*
X032289Y011442D01*
X032381Y011398D01*
X032471Y011352D01*
X032559Y011302D01*
X032645Y011248D01*
X032729Y011191D01*
X032811Y011131D01*
X032890Y011068D01*
X032967Y011001D01*
X033041Y010932D01*
X033113Y010860D01*
X033181Y010785D01*
X033247Y010708D01*
X033309Y010628D01*
X033369Y010546D01*
X033425Y010461D01*
X033477Y010374D01*
X033527Y010286D01*
X033573Y010195D01*
X033615Y010103D01*
X033653Y010009D01*
X033688Y009914D01*
X033719Y009817D01*
X033747Y009719D01*
X033770Y009621D01*
X033790Y009521D01*
X033806Y009421D01*
X033818Y009320D01*
X033826Y009219D01*
X033830Y009118D01*
X033830Y009016D01*
X033826Y008915D01*
X033818Y008814D01*
X033806Y008713D01*
X033790Y008613D01*
X033770Y008513D01*
X033747Y008415D01*
X033719Y008317D01*
X033688Y008220D01*
X033653Y008125D01*
X033615Y008031D01*
X033573Y007939D01*
X033527Y007848D01*
X033477Y007760D01*
X033425Y007673D01*
X033369Y007588D01*
X033309Y007506D01*
X033247Y007426D01*
X033181Y007349D01*
X033113Y007274D01*
X033041Y007202D01*
X032967Y007133D01*
X032890Y007066D01*
X032811Y007003D01*
X032729Y006943D01*
X032645Y006886D01*
X032559Y006832D01*
X032471Y006782D01*
X032381Y006736D01*
X032289Y006692D01*
X032196Y006653D01*
X032101Y006617D01*
X032004Y006585D01*
X031907Y006557D01*
X031809Y006532D01*
X031709Y006512D01*
X031609Y006495D01*
X031509Y006482D01*
X031407Y006473D01*
X031306Y006468D01*
X031205Y006467D01*
X031103Y006470D01*
X031002Y006477D01*
X030901Y006488D01*
X030801Y006503D01*
X030701Y006521D01*
X030602Y006544D01*
X030504Y006570D01*
X030407Y006601D01*
X030312Y006635D01*
X030217Y006672D01*
X030125Y006714D01*
X030034Y006758D01*
X029945Y006807D01*
X029857Y006859D01*
X029772Y006914D01*
X029689Y006973D01*
X029609Y007034D01*
X029531Y007099D01*
X029455Y007167D01*
X029383Y007238D01*
X029313Y007311D01*
X029246Y007387D01*
X029182Y007466D01*
X029121Y007547D01*
X029063Y007630D01*
X029009Y007716D01*
X028957Y007804D01*
X028910Y007893D01*
X028866Y007985D01*
X028825Y008078D01*
X028789Y008172D01*
X028756Y008268D01*
X028726Y008366D01*
X028701Y008464D01*
X028679Y008563D01*
X028662Y008663D01*
X028648Y008763D01*
X028638Y008864D01*
X028632Y008966D01*
X028630Y009067D01*
D14*
X030300Y005104D02*
X030300Y004343D01*
X030300Y004723D02*
X030807Y004723D01*
X031129Y004723D02*
X031636Y004723D01*
X031636Y004850D02*
X031636Y004343D01*
X031957Y004343D02*
X032465Y004343D01*
X031957Y004343D02*
X031957Y005104D01*
X031636Y004850D02*
X031382Y005104D01*
X031129Y004850D01*
X031129Y004343D01*
X030807Y004343D02*
X030807Y005104D01*
X032786Y005104D02*
X033293Y005104D01*
X033040Y005104D02*
X033040Y004343D01*
X025017Y024043D02*
X024510Y024043D01*
X024510Y024804D01*
X025017Y024804D01*
X024763Y024423D02*
X024510Y024423D01*
X024188Y024804D02*
X023681Y024804D01*
X023935Y024804D02*
X023935Y024043D01*
X023382Y024043D02*
X023129Y024043D01*
X023255Y024043D02*
X023255Y024804D01*
X023129Y024804D02*
X023382Y024804D01*
X022807Y024677D02*
X022807Y024550D01*
X022680Y024423D01*
X022300Y024423D01*
X022300Y024043D02*
X022680Y024043D01*
X022807Y024170D01*
X022807Y024297D01*
X022680Y024423D01*
X022807Y024677D02*
X022680Y024804D01*
X022300Y024804D01*
X022300Y024043D01*
M02*
