G75*
%MOIN*%
%OFA0B0*%
%FSLAX24Y24*%
%IPPOS*%
%LPD*%
%AMOC8*
5,1,8,0,0,1.08239X$1,22.5*
%
%ADD10C,0.0060*%
D10*
X001730Y000131D02*
X035330Y000131D01*
X035406Y000133D01*
X035482Y000139D01*
X035557Y000148D01*
X035632Y000162D01*
X035706Y000179D01*
X035779Y000200D01*
X035851Y000224D01*
X035922Y000253D01*
X035991Y000284D01*
X036058Y000319D01*
X036123Y000358D01*
X036187Y000400D01*
X036248Y000445D01*
X036307Y000493D01*
X036363Y000544D01*
X036417Y000598D01*
X036468Y000654D01*
X036516Y000713D01*
X036561Y000774D01*
X036603Y000838D01*
X036642Y000903D01*
X036677Y000970D01*
X036708Y001039D01*
X036737Y001110D01*
X036761Y001182D01*
X036782Y001255D01*
X036799Y001329D01*
X036813Y001404D01*
X036822Y001479D01*
X036828Y001555D01*
X036830Y001631D01*
X036830Y018131D01*
X036828Y018218D01*
X036822Y018305D01*
X036813Y018392D01*
X036800Y018478D01*
X036783Y018564D01*
X036762Y018649D01*
X036737Y018732D01*
X036709Y018815D01*
X036678Y018896D01*
X036643Y018976D01*
X036604Y019054D01*
X036562Y019131D01*
X036517Y019206D01*
X036468Y019278D01*
X036417Y019349D01*
X036362Y019417D01*
X036305Y019482D01*
X036244Y019545D01*
X036181Y019606D01*
X036116Y019663D01*
X036048Y019718D01*
X035977Y019769D01*
X035905Y019818D01*
X035830Y019863D01*
X035753Y019905D01*
X035675Y019944D01*
X035595Y019979D01*
X035514Y020010D01*
X035431Y020038D01*
X035348Y020063D01*
X035263Y020084D01*
X035177Y020101D01*
X035091Y020114D01*
X035004Y020123D01*
X034917Y020129D01*
X034830Y020131D01*
X001630Y020131D01*
X001554Y020129D01*
X001478Y020123D01*
X001403Y020114D01*
X001328Y020100D01*
X001254Y020083D01*
X001181Y020062D01*
X001109Y020038D01*
X001038Y020009D01*
X000969Y019978D01*
X000902Y019943D01*
X000837Y019904D01*
X000773Y019862D01*
X000712Y019817D01*
X000653Y019769D01*
X000597Y019718D01*
X000543Y019664D01*
X000492Y019608D01*
X000444Y019549D01*
X000399Y019488D01*
X000357Y019424D01*
X000318Y019359D01*
X000283Y019292D01*
X000252Y019223D01*
X000223Y019152D01*
X000199Y019080D01*
X000178Y019007D01*
X000161Y018933D01*
X000147Y018858D01*
X000138Y018783D01*
X000132Y018707D01*
X000130Y018631D01*
X000130Y001631D01*
X000134Y001553D01*
X000143Y001474D01*
X000155Y001397D01*
X000172Y001320D01*
X000192Y001244D01*
X000216Y001169D01*
X000244Y001096D01*
X000275Y001024D01*
X000310Y000953D01*
X000349Y000885D01*
X000391Y000819D01*
X000436Y000754D01*
X000485Y000693D01*
X000536Y000633D01*
X000591Y000577D01*
X000648Y000523D01*
X000708Y000472D01*
X000771Y000425D01*
X000835Y000380D01*
X000902Y000339D01*
X000971Y000301D01*
X001042Y000267D01*
X001115Y000237D01*
X001189Y000210D01*
X001264Y000187D01*
X001340Y000168D01*
X001417Y000152D01*
X001495Y000141D01*
X001573Y000134D01*
X001651Y000130D01*
X001730Y000131D01*
M02*
