G75*
%MOIN*%
%OFA0B0*%
%FSLAX24Y24*%
%IPPOS*%
%LPD*%
%AMOC8*
5,1,8,0,0,1.08239X$1,22.5*
%
%ADD10C,0.0570*%
%ADD11C,0.0240*%
%ADD12C,0.0270*%
%ADD13C,0.0280*%
%ADD14C,0.0130*%
D10*
X020630Y011931D03*
X021630Y011931D03*
X022630Y011931D03*
X023630Y011931D03*
X024630Y011931D03*
X025630Y011931D03*
X026630Y011931D03*
X027630Y011931D03*
X028630Y011931D03*
X029630Y011931D03*
X030630Y011931D03*
X031630Y011931D03*
X032630Y011931D03*
X033630Y011931D03*
X032630Y012931D03*
X030630Y012931D03*
X029630Y012931D03*
X028630Y012931D03*
X020630Y012931D03*
X020630Y013931D03*
X020630Y014931D03*
X020630Y015931D03*
X020630Y016931D03*
X020630Y017931D03*
X021630Y017931D03*
X022630Y017931D03*
X023630Y017931D03*
X024630Y017931D03*
X025630Y017931D03*
X026630Y017931D03*
X027630Y017931D03*
X028630Y017931D03*
X029630Y017931D03*
X030630Y017931D03*
X031630Y017931D03*
X032630Y017931D03*
X033630Y017931D03*
D11*
X031756Y008967D02*
X032010Y008888D01*
X032252Y008779D01*
X032480Y008641D01*
X032689Y008478D01*
X032877Y008290D01*
X033041Y008081D01*
X033178Y007853D01*
X033287Y007611D01*
X033366Y007357D01*
X033414Y007096D01*
X033430Y006831D01*
X033430Y006731D01*
X033415Y006478D01*
X033369Y006228D01*
X033294Y005986D01*
X033189Y005755D01*
X033058Y005538D01*
X032902Y005338D01*
X032723Y005159D01*
X032523Y005003D01*
X032306Y004871D01*
X032075Y004767D01*
X031833Y004692D01*
X031583Y004646D01*
X031330Y004631D01*
X031230Y004631D01*
X030965Y004647D01*
X030704Y004695D01*
X030450Y004774D01*
X030208Y004883D01*
X029980Y005020D01*
X029771Y005184D01*
X029583Y005372D01*
X029419Y005581D01*
X029282Y005808D01*
X029173Y006051D01*
X029094Y006304D01*
X029046Y006566D01*
X029030Y006831D01*
X029046Y007096D01*
X029094Y007357D01*
X029173Y007611D01*
X029282Y007853D01*
X029419Y008081D01*
X029583Y008290D01*
X029771Y008478D01*
X029980Y008641D01*
X030208Y008779D01*
X030450Y008888D01*
X030704Y008967D01*
X030965Y009015D01*
X031230Y009031D01*
X031495Y009015D01*
X031756Y008967D01*
X031794Y008955D02*
X030666Y008955D01*
X030105Y008717D02*
X032355Y008717D01*
X032688Y008478D02*
X029772Y008478D01*
X029544Y008240D02*
X032916Y008240D01*
X033088Y008001D02*
X029372Y008001D01*
X029241Y007763D02*
X033219Y007763D01*
X033314Y007524D02*
X029146Y007524D01*
X029081Y007286D02*
X033379Y007286D01*
X033417Y007047D02*
X029043Y007047D01*
X029031Y006809D02*
X033430Y006809D01*
X033420Y006570D02*
X029046Y006570D01*
X029089Y006332D02*
X033388Y006332D01*
X033327Y006093D02*
X029160Y006093D01*
X029261Y005855D02*
X033234Y005855D01*
X033106Y005616D02*
X029398Y005616D01*
X029579Y005378D02*
X032933Y005378D01*
X032698Y005139D02*
X029828Y005139D01*
X030178Y004901D02*
X032355Y004901D01*
X031671Y004662D02*
X030880Y004662D01*
X025189Y006128D02*
X025114Y005886D01*
X025009Y005655D01*
X024878Y005438D01*
X024722Y005238D01*
X024543Y005059D01*
X024343Y004903D01*
X024126Y004771D01*
X023895Y004667D01*
X023653Y004592D01*
X023403Y004546D01*
X023150Y004531D01*
X023050Y004531D01*
X022785Y004547D01*
X022524Y004595D01*
X022270Y004674D01*
X022028Y004783D01*
X021800Y004920D01*
X021591Y005084D01*
X021403Y005272D01*
X021239Y005481D01*
X021102Y005708D01*
X020993Y005951D01*
X020914Y006204D01*
X020866Y006466D01*
X020850Y006731D01*
X020866Y006996D01*
X020914Y007257D01*
X020993Y007511D01*
X021102Y007753D01*
X021239Y007981D01*
X021403Y008190D01*
X021591Y008378D01*
X021800Y008541D01*
X022028Y008679D01*
X022270Y008788D01*
X022524Y008867D01*
X022785Y008915D01*
X023050Y008931D01*
X023315Y008915D01*
X023576Y008867D01*
X023830Y008788D01*
X024072Y008679D01*
X024300Y008541D01*
X024509Y008378D01*
X024697Y008190D01*
X024861Y007981D01*
X024998Y007753D01*
X025107Y007511D01*
X025186Y007257D01*
X025234Y006996D01*
X025250Y006731D01*
X025250Y006631D01*
X025235Y006378D01*
X025189Y006128D01*
X025178Y006093D02*
X020949Y006093D01*
X020891Y006332D02*
X025226Y006332D01*
X025246Y006570D02*
X020860Y006570D01*
X020855Y006809D02*
X025245Y006809D01*
X025225Y007047D02*
X020875Y007047D01*
X020923Y007286D02*
X025177Y007286D01*
X025101Y007524D02*
X020999Y007524D01*
X021108Y007763D02*
X024992Y007763D01*
X024844Y008001D02*
X021256Y008001D01*
X021453Y008240D02*
X024647Y008240D01*
X024380Y008478D02*
X021720Y008478D01*
X022112Y008717D02*
X023988Y008717D01*
X025099Y005855D02*
X021036Y005855D01*
X021158Y005616D02*
X024986Y005616D01*
X024831Y005378D02*
X021320Y005378D01*
X021536Y005139D02*
X024623Y005139D01*
X024340Y004901D02*
X021832Y004901D01*
X022307Y004662D02*
X023879Y004662D01*
X016214Y008750D02*
X015230Y007569D01*
X013852Y007569D01*
X014935Y008750D01*
X013852Y009931D01*
X014935Y011112D01*
X013852Y012293D01*
X015230Y012293D01*
X016214Y011112D01*
X015132Y009931D01*
X016214Y008750D01*
X016187Y008717D02*
X014905Y008717D01*
X014746Y008955D02*
X016026Y008955D01*
X015807Y009194D02*
X014528Y009194D01*
X014309Y009432D02*
X015589Y009432D01*
X015370Y009671D02*
X014090Y009671D01*
X013872Y009909D02*
X015151Y009909D01*
X015331Y010148D02*
X014051Y010148D01*
X014270Y010386D02*
X015549Y010386D01*
X015768Y010625D02*
X014488Y010625D01*
X014707Y010863D02*
X015986Y010863D01*
X016205Y011102D02*
X014925Y011102D01*
X014725Y011340D02*
X016024Y011340D01*
X015825Y011579D02*
X014507Y011579D01*
X014288Y011817D02*
X015626Y011817D01*
X015428Y012056D02*
X014069Y012056D01*
X012092Y013753D02*
X010911Y014836D01*
X009730Y013753D01*
X008549Y014836D01*
X007368Y013753D01*
X007368Y015131D01*
X008549Y016115D01*
X009730Y015032D01*
X010911Y016115D01*
X012092Y015131D01*
X012092Y013753D01*
X012092Y013964D02*
X011862Y013964D01*
X012092Y014202D02*
X011602Y014202D01*
X011342Y014441D02*
X012092Y014441D01*
X012092Y014679D02*
X011082Y014679D01*
X010741Y014679D02*
X008719Y014679D01*
X008378Y014679D02*
X007368Y014679D01*
X007368Y014441D02*
X008118Y014441D01*
X007858Y014202D02*
X007368Y014202D01*
X007368Y013964D02*
X007598Y013964D01*
X008979Y014441D02*
X010481Y014441D01*
X010220Y014202D02*
X009240Y014202D01*
X009500Y013964D02*
X009960Y013964D01*
X009865Y015156D02*
X012062Y015156D01*
X012092Y014918D02*
X007368Y014918D01*
X007398Y015156D02*
X009595Y015156D01*
X009335Y015395D02*
X007685Y015395D01*
X007971Y015633D02*
X009074Y015633D01*
X008814Y015872D02*
X008257Y015872D01*
X008543Y016110D02*
X008554Y016110D01*
X010125Y015395D02*
X011775Y015395D01*
X011489Y015633D02*
X010386Y015633D01*
X010646Y015872D02*
X011203Y015872D01*
X010917Y016110D02*
X010906Y016110D01*
X005608Y012293D02*
X004230Y012293D01*
X003246Y011112D01*
X004328Y009931D01*
X003246Y008750D01*
X004230Y007569D01*
X005608Y007569D01*
X004525Y008750D01*
X005608Y009931D01*
X004525Y011112D01*
X005608Y012293D01*
X005391Y012056D02*
X004032Y012056D01*
X003834Y011817D02*
X005172Y011817D01*
X004953Y011579D02*
X003635Y011579D01*
X003436Y011340D02*
X004735Y011340D01*
X004535Y011102D02*
X003255Y011102D01*
X003474Y010863D02*
X004753Y010863D01*
X004972Y010625D02*
X003692Y010625D01*
X003911Y010386D02*
X005190Y010386D01*
X005409Y010148D02*
X004129Y010148D01*
X004309Y009909D02*
X005588Y009909D01*
X005370Y009671D02*
X004090Y009671D01*
X003871Y009432D02*
X005151Y009432D01*
X004932Y009194D02*
X003653Y009194D01*
X003434Y008955D02*
X004714Y008955D01*
X004555Y008717D02*
X003273Y008717D01*
X003472Y008478D02*
X004774Y008478D01*
X004993Y008240D02*
X003671Y008240D01*
X003869Y008001D02*
X005211Y008001D01*
X005430Y007763D02*
X004068Y007763D01*
X007368Y006409D02*
X008549Y005326D01*
X009730Y006409D01*
X010911Y005326D01*
X012092Y006409D01*
X012092Y005031D01*
X010911Y004047D01*
X009730Y005129D01*
X008549Y004047D01*
X007368Y005031D01*
X007368Y006409D01*
X007368Y006332D02*
X007452Y006332D01*
X007368Y006093D02*
X007712Y006093D01*
X007972Y005855D02*
X007368Y005855D01*
X007368Y005616D02*
X008232Y005616D01*
X008492Y005378D02*
X007368Y005378D01*
X007368Y005139D02*
X012092Y005139D01*
X012092Y005378D02*
X010968Y005378D01*
X010855Y005378D02*
X008605Y005378D01*
X008866Y005616D02*
X010594Y005616D01*
X010334Y005855D02*
X009126Y005855D01*
X009386Y006093D02*
X010074Y006093D01*
X009814Y006332D02*
X009646Y006332D01*
X011228Y005616D02*
X012092Y005616D01*
X012092Y005855D02*
X011488Y005855D01*
X011748Y006093D02*
X012092Y006093D01*
X012092Y006332D02*
X012008Y006332D01*
X011936Y004901D02*
X009979Y004901D01*
X010239Y004662D02*
X011650Y004662D01*
X011364Y004424D02*
X010500Y004424D01*
X010760Y004185D02*
X011078Y004185D01*
X009481Y004901D02*
X007524Y004901D01*
X007810Y004662D02*
X009221Y004662D01*
X008960Y004424D02*
X008096Y004424D01*
X008382Y004185D02*
X008700Y004185D01*
X014030Y007763D02*
X015392Y007763D01*
X015591Y008001D02*
X014249Y008001D01*
X014467Y008240D02*
X015789Y008240D01*
X015988Y008478D02*
X014686Y008478D01*
D12*
X011980Y006031D03*
X005230Y007681D03*
X014230Y012181D03*
X007480Y014131D03*
D13*
X023050Y008631D03*
X031230Y008731D03*
D14*
X001308Y000693D02*
X001065Y000823D01*
X000864Y001011D01*
X000718Y001246D01*
X000638Y001509D01*
X000625Y001644D01*
X000625Y018631D01*
X000634Y018762D01*
X000701Y019015D01*
X000833Y019243D01*
X001018Y019428D01*
X001245Y019559D01*
X001499Y019627D01*
X001630Y019636D01*
X034830Y019636D01*
X034999Y019626D01*
X035327Y019551D01*
X035631Y019405D01*
X035894Y019195D01*
X036104Y018932D01*
X036251Y018628D01*
X036326Y018299D01*
X036335Y018131D01*
X036335Y001631D01*
X036326Y001500D01*
X036258Y001246D01*
X036127Y001019D01*
X035942Y000833D01*
X035715Y000702D01*
X035461Y000634D01*
X035330Y000626D01*
X001820Y000626D01*
X001812Y000629D01*
X001722Y000626D01*
X001706Y000626D01*
X001576Y000630D01*
X001308Y000693D01*
X001157Y000773D02*
X035838Y000773D01*
X036010Y000902D02*
X000980Y000902D01*
X000852Y001030D02*
X036134Y001030D01*
X036208Y001159D02*
X000772Y001159D01*
X000705Y001287D02*
X036270Y001287D01*
X036304Y001416D02*
X000667Y001416D01*
X000635Y001544D02*
X036329Y001544D01*
X036335Y001673D02*
X000625Y001673D01*
X000625Y001801D02*
X036335Y001801D01*
X036335Y001930D02*
X000625Y001930D01*
X000625Y002058D02*
X036335Y002058D01*
X036335Y002187D02*
X000625Y002187D01*
X000625Y002315D02*
X036335Y002315D01*
X036335Y002444D02*
X000625Y002444D01*
X000625Y002572D02*
X036335Y002572D01*
X036335Y002701D02*
X000625Y002701D01*
X000625Y002829D02*
X036335Y002829D01*
X036335Y002958D02*
X000625Y002958D01*
X000625Y003086D02*
X036335Y003086D01*
X036335Y003215D02*
X011246Y003215D01*
X011260Y003222D02*
X011299Y003269D01*
X012704Y004487D01*
X012722Y004494D01*
X012781Y004554D01*
X012845Y004609D01*
X012853Y004626D01*
X012867Y004639D01*
X012899Y004717D01*
X012936Y004792D01*
X012938Y004811D01*
X012945Y004828D01*
X012945Y004912D01*
X012951Y004996D01*
X012945Y005014D01*
X020293Y005014D01*
X020333Y004948D02*
X020244Y005096D01*
X020220Y005118D01*
X020191Y005183D01*
X020154Y005244D01*
X020149Y005275D01*
X020078Y005433D01*
X020058Y005458D01*
X020037Y005526D01*
X020007Y005591D01*
X020006Y005623D01*
X019955Y005788D01*
X019937Y005815D01*
X019925Y005885D01*
X019903Y005953D01*
X019906Y005985D01*
X019875Y006155D01*
X019861Y006184D01*
X019857Y006255D01*
X019844Y006325D01*
X019851Y006357D01*
X019841Y006514D01*
X019835Y006528D01*
X019835Y006615D01*
X019830Y006702D01*
X019835Y006717D01*
X019835Y006733D01*
X019835Y006744D01*
X019830Y006760D01*
X019835Y006846D01*
X019835Y006933D01*
X019841Y006948D01*
X019851Y007105D01*
X019844Y007136D01*
X019857Y007206D01*
X019861Y007278D01*
X019875Y007306D01*
X019906Y007477D01*
X019903Y007508D01*
X019925Y007576D01*
X019937Y007647D01*
X019955Y007673D01*
X020006Y007839D01*
X020007Y007871D01*
X020037Y007936D01*
X020058Y008004D01*
X020078Y008028D01*
X020149Y008186D01*
X020154Y008218D01*
X020191Y008279D01*
X020220Y008344D01*
X020244Y008366D01*
X020333Y008514D01*
X020342Y008545D01*
X020386Y008601D01*
X020423Y008662D01*
X020448Y008681D01*
X020555Y008817D01*
X020567Y008847D01*
X020618Y008897D01*
X020662Y008953D01*
X020690Y008969D01*
X020812Y009091D01*
X020828Y009119D01*
X020884Y009163D01*
X020934Y009214D01*
X020964Y009226D01*
X021100Y009333D01*
X021119Y009358D01*
X021180Y009395D01*
X021236Y009439D01*
X021267Y009448D01*
X021415Y009537D01*
X021437Y009561D01*
X021502Y009590D01*
X021563Y009627D01*
X021595Y009632D01*
X021752Y009703D01*
X021777Y009723D01*
X021845Y009744D01*
X021910Y009774D01*
X021942Y009774D01*
X022107Y009826D01*
X022134Y009843D01*
X022204Y009856D01*
X022272Y009877D01*
X022304Y009875D01*
X022474Y009906D01*
X022503Y009920D01*
X022574Y009924D01*
X022645Y009937D01*
X022676Y009930D01*
X022833Y009940D01*
X022848Y009946D01*
X022934Y009946D01*
X023021Y009951D01*
X023036Y009946D01*
X023064Y009946D01*
X023079Y009951D01*
X023166Y009946D01*
X023252Y009946D01*
X023267Y009940D01*
X023424Y009930D01*
X023455Y009937D01*
X023526Y009924D01*
X023597Y009920D01*
X023626Y009906D01*
X023796Y009875D01*
X023828Y009877D01*
X023896Y009856D01*
X023966Y009843D01*
X023993Y009826D01*
X024158Y009774D01*
X024190Y009774D01*
X024255Y009744D01*
X024323Y009723D01*
X024348Y009703D01*
X024505Y009632D01*
X024537Y009627D01*
X024598Y009590D01*
X024663Y009561D01*
X024685Y009537D01*
X024833Y009448D01*
X024864Y009439D01*
X024920Y009395D01*
X024981Y009358D01*
X025000Y009333D01*
X025136Y009226D01*
X025166Y009214D01*
X025216Y009163D01*
X025272Y009119D01*
X025288Y009091D01*
X025410Y008969D01*
X025438Y008953D01*
X025482Y008897D01*
X025533Y008847D01*
X025545Y008817D01*
X025652Y008681D01*
X025677Y008662D01*
X025714Y008601D01*
X025758Y008545D01*
X025767Y008514D01*
X025856Y008366D01*
X025880Y008344D01*
X025909Y008279D01*
X025946Y008218D01*
X025951Y008186D01*
X026022Y008028D01*
X026042Y008004D01*
X026063Y007936D01*
X026093Y007871D01*
X026094Y007839D01*
X026145Y007673D01*
X026163Y007647D01*
X026175Y007576D01*
X026197Y007508D01*
X026194Y007477D01*
X026225Y007306D01*
X026239Y007278D01*
X026243Y007206D01*
X026256Y007136D01*
X026249Y007105D01*
X026259Y006948D01*
X026265Y006933D01*
X026265Y006846D01*
X026270Y006760D01*
X026265Y006744D01*
X026265Y006617D01*
X026270Y006602D01*
X026265Y006515D01*
X026265Y006428D01*
X026259Y006414D01*
X026250Y006269D01*
X026257Y006237D01*
X026244Y006167D01*
X026240Y006096D01*
X026226Y006067D01*
X026197Y005909D01*
X026200Y005877D01*
X026178Y005809D01*
X026165Y005739D01*
X026148Y005712D01*
X026100Y005558D01*
X026099Y005526D01*
X026070Y005461D01*
X026049Y005393D01*
X026028Y005369D01*
X025962Y005222D01*
X025957Y005190D01*
X025920Y005129D01*
X025891Y005064D01*
X025868Y005042D01*
X025785Y004904D01*
X025776Y004874D01*
X025732Y004818D01*
X025695Y004757D01*
X028725Y004757D01*
X028735Y004745D02*
X028747Y004715D01*
X028798Y004665D01*
X028842Y004608D01*
X028870Y004593D01*
X028992Y004470D01*
X029008Y004442D01*
X029064Y004398D01*
X029114Y004348D01*
X029144Y004336D01*
X029280Y004229D01*
X029299Y004203D01*
X029360Y004166D01*
X029416Y004122D01*
X029447Y004114D01*
X029595Y004024D01*
X029617Y004001D01*
X029682Y003972D01*
X029743Y003935D01*
X029775Y003930D01*
X029932Y003859D01*
X029957Y003839D01*
X030025Y003817D01*
X030090Y003788D01*
X030122Y003787D01*
X030287Y003736D01*
X030314Y003718D01*
X030384Y003705D01*
X030452Y003684D01*
X030484Y003687D01*
X030654Y003656D01*
X030683Y003642D01*
X030754Y003638D01*
X030825Y003625D01*
X030856Y003631D01*
X031013Y003622D01*
X031028Y003616D01*
X031114Y003616D01*
X031201Y003611D01*
X031216Y003616D01*
X031344Y003616D01*
X031359Y003611D01*
X031446Y003616D01*
X031532Y003616D01*
X031547Y003622D01*
X031692Y003631D01*
X031723Y003624D01*
X031794Y003637D01*
X031865Y003641D01*
X031893Y003655D01*
X032052Y003684D01*
X032084Y003681D01*
X032152Y003703D01*
X032222Y003715D01*
X032249Y003733D01*
X032402Y003781D01*
X032434Y003782D01*
X032499Y003811D01*
X032568Y003832D01*
X032592Y003853D01*
X032739Y003919D01*
X032771Y003923D01*
X032832Y003960D01*
X032897Y003990D01*
X032919Y004013D01*
X033056Y004096D01*
X033087Y004105D01*
X033143Y004149D01*
X033204Y004186D01*
X033223Y004211D01*
X033350Y004311D01*
X033380Y004323D01*
X033430Y004373D01*
X033486Y004417D01*
X033502Y004445D01*
X033616Y004559D01*
X033643Y004575D01*
X033687Y004631D01*
X033738Y004681D01*
X033750Y004711D01*
X033849Y004838D01*
X033875Y004857D01*
X033912Y004918D01*
X033956Y004974D01*
X033965Y005004D01*
X034048Y005142D01*
X034071Y005164D01*
X034100Y005229D01*
X034137Y005290D01*
X034142Y005322D01*
X034208Y005469D01*
X034229Y005493D01*
X034250Y005561D01*
X034279Y005626D01*
X034280Y005658D01*
X034328Y005812D01*
X034345Y005839D01*
X034358Y005909D01*
X034380Y005977D01*
X034377Y006009D01*
X034406Y006167D01*
X034420Y006196D01*
X034424Y006267D01*
X034437Y006337D01*
X034430Y006369D01*
X034439Y006514D01*
X034445Y006528D01*
X034445Y006615D01*
X034450Y006702D01*
X034445Y006717D01*
X034445Y006844D01*
X034450Y006860D01*
X034445Y006946D01*
X034445Y007033D01*
X034439Y007048D01*
X034429Y007205D01*
X034436Y007236D01*
X034423Y007306D01*
X034419Y007378D01*
X034405Y007406D01*
X034374Y007577D01*
X034377Y007608D01*
X034355Y007676D01*
X034343Y007747D01*
X034325Y007773D01*
X034274Y007939D01*
X034273Y007971D01*
X034243Y008036D01*
X034222Y008104D01*
X034202Y008128D01*
X034131Y008286D01*
X034126Y008318D01*
X034089Y008379D01*
X034060Y008444D01*
X034036Y008466D01*
X033947Y008614D01*
X033938Y008645D01*
X033894Y008701D01*
X033857Y008762D01*
X033832Y008781D01*
X033725Y008917D01*
X033713Y008947D01*
X033662Y008997D01*
X033618Y009053D01*
X033590Y009069D01*
X033468Y009191D01*
X033452Y009219D01*
X033396Y009263D01*
X033346Y009314D01*
X033316Y009326D01*
X033180Y009433D01*
X033161Y009458D01*
X033100Y009495D01*
X033044Y009539D01*
X033013Y009548D01*
X032865Y009637D01*
X032843Y009661D01*
X032778Y009690D01*
X032717Y009727D01*
X032685Y009732D01*
X032528Y009803D01*
X032503Y009823D01*
X032435Y009844D01*
X032370Y009874D01*
X032338Y009874D01*
X032173Y009926D01*
X032146Y009943D01*
X032076Y009956D01*
X032008Y009977D01*
X031976Y009975D01*
X031806Y010006D01*
X031777Y010020D01*
X031706Y010024D01*
X031635Y010037D01*
X031604Y010030D01*
X031447Y010040D01*
X031432Y010046D01*
X031346Y010046D01*
X031259Y010051D01*
X031244Y010046D01*
X031216Y010046D01*
X031201Y010051D01*
X031114Y010046D01*
X031028Y010046D01*
X031013Y010040D01*
X030856Y010030D01*
X030825Y010037D01*
X030754Y010024D01*
X030683Y010020D01*
X030654Y010006D01*
X030484Y009975D01*
X030452Y009977D01*
X030384Y009956D01*
X030314Y009943D01*
X030287Y009926D01*
X030122Y009874D01*
X030090Y009874D01*
X030025Y009844D01*
X029957Y009823D01*
X029932Y009803D01*
X029775Y009732D01*
X029743Y009727D01*
X029682Y009690D01*
X029617Y009661D01*
X029595Y009637D01*
X029447Y009548D01*
X029416Y009539D01*
X029360Y009495D01*
X029299Y009458D01*
X029280Y009433D01*
X029144Y009326D01*
X029114Y009314D01*
X029064Y009263D01*
X029008Y009219D01*
X028992Y009191D01*
X028870Y009069D01*
X028842Y009053D01*
X028798Y008997D01*
X028747Y008947D01*
X028735Y008917D01*
X028628Y008781D01*
X028603Y008762D01*
X028566Y008701D01*
X028522Y008645D01*
X028513Y008614D01*
X028424Y008466D01*
X028400Y008444D01*
X028371Y008379D01*
X028334Y008318D01*
X028329Y008286D01*
X028258Y008128D01*
X028238Y008104D01*
X028217Y008036D01*
X028187Y007971D01*
X028186Y007939D01*
X028135Y007773D01*
X028117Y007747D01*
X028105Y007676D01*
X028083Y007608D01*
X028086Y007577D01*
X028055Y007406D01*
X028041Y007378D01*
X028037Y007306D01*
X028024Y007236D01*
X028031Y007205D01*
X028021Y007048D01*
X028015Y007033D01*
X028015Y006946D01*
X028010Y006860D01*
X028015Y006844D01*
X028015Y006828D01*
X028015Y006817D01*
X028010Y006802D01*
X028015Y006715D01*
X028015Y006628D01*
X028021Y006614D01*
X028031Y006457D01*
X028024Y006425D01*
X028037Y006355D01*
X028041Y006284D01*
X028055Y006255D01*
X028086Y006085D01*
X028083Y006053D01*
X028105Y005985D01*
X028117Y005915D01*
X028135Y005888D01*
X028186Y005723D01*
X028187Y005691D01*
X028217Y005626D01*
X028238Y005558D01*
X028258Y005533D01*
X028329Y005375D01*
X028334Y005344D01*
X028371Y005283D01*
X028400Y005218D01*
X028424Y005196D01*
X028513Y005048D01*
X028522Y005017D01*
X028566Y004961D01*
X028603Y004900D01*
X028628Y004881D01*
X028735Y004745D01*
X028826Y004628D02*
X025584Y004628D01*
X025570Y004611D02*
X025669Y004738D01*
X025695Y004757D01*
X025779Y004885D02*
X028622Y004885D01*
X028524Y005014D02*
X025851Y005014D01*
X025928Y005142D02*
X028456Y005142D01*
X028376Y005271D02*
X025984Y005271D01*
X026051Y005399D02*
X028319Y005399D01*
X028261Y005528D02*
X026099Y005528D01*
X026131Y005656D02*
X028203Y005656D01*
X028167Y005785D02*
X026174Y005785D01*
X026197Y005913D02*
X028119Y005913D01*
X028087Y006042D02*
X026221Y006042D01*
X026245Y006170D02*
X028071Y006170D01*
X028040Y006299D02*
X026252Y006299D01*
X026265Y006427D02*
X028024Y006427D01*
X028025Y006556D02*
X026267Y006556D01*
X026265Y006684D02*
X028015Y006684D01*
X028014Y006813D02*
X026267Y006813D01*
X026262Y006941D02*
X028015Y006941D01*
X028022Y007070D02*
X026251Y007070D01*
X026245Y007198D02*
X028030Y007198D01*
X028038Y007327D02*
X026221Y007327D01*
X026198Y007455D02*
X028064Y007455D01*
X028086Y007584D02*
X026174Y007584D01*
X026133Y007712D02*
X028111Y007712D01*
X028156Y007841D02*
X026094Y007841D01*
X026053Y007969D02*
X028187Y007969D01*
X028236Y008098D02*
X025991Y008098D01*
X025941Y008226D02*
X028302Y008226D01*
X028356Y008355D02*
X025868Y008355D01*
X025785Y008483D02*
X028434Y008483D01*
X028512Y008612D02*
X025708Y008612D01*
X025605Y008740D02*
X028589Y008740D01*
X028697Y008869D02*
X025511Y008869D01*
X025382Y008997D02*
X028798Y008997D01*
X028926Y009126D02*
X025264Y009126D01*
X025100Y009254D02*
X029053Y009254D01*
X029217Y009383D02*
X024940Y009383D01*
X024728Y009511D02*
X029381Y009511D01*
X029597Y009640D02*
X024487Y009640D01*
X024201Y009768D02*
X029856Y009768D01*
X030194Y009897D02*
X023674Y009897D01*
X022426Y009897D02*
X016329Y009897D01*
X016300Y009931D02*
X016999Y010769D01*
X017045Y010809D01*
X017064Y010847D01*
X017091Y010880D01*
X017109Y010938D01*
X017136Y010992D01*
X017139Y011035D01*
X017152Y011075D01*
X017147Y011136D01*
X017151Y011196D01*
X017137Y011237D01*
X017134Y011279D01*
X017105Y011333D01*
X017086Y011391D01*
X017058Y011423D01*
X017038Y011461D01*
X016992Y011500D01*
X015774Y012905D01*
X015767Y012923D01*
X015707Y012982D01*
X015652Y013046D01*
X015635Y013054D01*
X015622Y013067D01*
X015544Y013100D01*
X015469Y013137D01*
X015450Y013139D01*
X015432Y013146D01*
X015348Y013146D01*
X015265Y013152D01*
X015247Y013146D01*
X013428Y013146D01*
X013238Y013067D01*
X013093Y012923D01*
X013015Y012733D01*
X013015Y012144D01*
X013010Y012056D01*
X013015Y012042D01*
X013015Y012028D01*
X013049Y011946D01*
X013079Y011862D01*
X013088Y011852D01*
X013093Y011839D01*
X013156Y011776D01*
X013734Y011134D01*
X012965Y010295D01*
X012906Y010241D01*
X012897Y010220D01*
X012881Y010203D01*
X012854Y010128D01*
X012820Y010056D01*
X012819Y010032D01*
X012811Y010011D01*
X012815Y009931D01*
X012811Y009851D01*
X012819Y009829D01*
X012820Y009806D01*
X012854Y009734D01*
X012881Y009658D01*
X012897Y009641D01*
X012906Y009620D01*
X012965Y009566D01*
X013734Y008728D01*
X013156Y008085D01*
X013093Y008023D01*
X013088Y008010D01*
X013079Y007999D01*
X013049Y007915D01*
X013015Y007833D01*
X013015Y007819D01*
X013010Y007806D01*
X013015Y007717D01*
X013015Y007128D01*
X013093Y006939D01*
X013238Y006794D01*
X013428Y006716D01*
X015247Y006716D01*
X015265Y006710D01*
X015348Y006716D01*
X015432Y006716D01*
X015450Y006723D01*
X015469Y006724D01*
X015544Y006762D01*
X015622Y006794D01*
X015635Y006808D01*
X015652Y006816D01*
X015707Y006880D01*
X015767Y006939D01*
X015774Y006957D01*
X016992Y008362D01*
X017038Y008401D01*
X017058Y008439D01*
X017086Y008471D01*
X017105Y008528D01*
X017134Y008582D01*
X017137Y008625D01*
X017151Y008665D01*
X017147Y008726D01*
X017152Y008786D01*
X017139Y008827D01*
X017136Y008870D01*
X017109Y008924D01*
X017091Y008982D01*
X017064Y009015D01*
X017045Y009053D01*
X016999Y009093D01*
X016300Y009931D01*
X016379Y010025D02*
X030761Y010025D01*
X031699Y010025D02*
X036335Y010025D01*
X036335Y009897D02*
X032266Y009897D01*
X032604Y009768D02*
X036335Y009768D01*
X036335Y009640D02*
X032863Y009640D01*
X033079Y009511D02*
X036335Y009511D01*
X036335Y009383D02*
X033243Y009383D01*
X033407Y009254D02*
X036335Y009254D01*
X036335Y009126D02*
X033534Y009126D01*
X033662Y008997D02*
X036335Y008997D01*
X036335Y008869D02*
X033763Y008869D01*
X033871Y008740D02*
X036335Y008740D01*
X036335Y008612D02*
X033948Y008612D01*
X034026Y008483D02*
X036335Y008483D01*
X036335Y008355D02*
X034104Y008355D01*
X034158Y008226D02*
X036335Y008226D01*
X036335Y008098D02*
X034224Y008098D01*
X034273Y007969D02*
X036335Y007969D01*
X036335Y007841D02*
X034304Y007841D01*
X034349Y007712D02*
X036335Y007712D01*
X036335Y007584D02*
X034374Y007584D01*
X034396Y007455D02*
X036335Y007455D01*
X036335Y007327D02*
X034422Y007327D01*
X034430Y007198D02*
X036335Y007198D01*
X036335Y007070D02*
X034438Y007070D01*
X034445Y006941D02*
X036335Y006941D01*
X036335Y006813D02*
X034445Y006813D01*
X034449Y006684D02*
X036335Y006684D01*
X036335Y006556D02*
X034445Y006556D01*
X034434Y006427D02*
X036335Y006427D01*
X036335Y006299D02*
X034430Y006299D01*
X034407Y006170D02*
X036335Y006170D01*
X036335Y006042D02*
X034383Y006042D01*
X034360Y005913D02*
X036335Y005913D01*
X036335Y005785D02*
X034320Y005785D01*
X034280Y005656D02*
X036335Y005656D01*
X036335Y005528D02*
X034240Y005528D01*
X034177Y005399D02*
X036335Y005399D01*
X036335Y005271D02*
X034126Y005271D01*
X034048Y005142D02*
X036335Y005142D01*
X036335Y005014D02*
X033970Y005014D01*
X033893Y004885D02*
X036335Y004885D01*
X036335Y004757D02*
X033786Y004757D01*
X033685Y004628D02*
X036335Y004628D01*
X036335Y004500D02*
X033556Y004500D01*
X033428Y004371D02*
X036335Y004371D01*
X036335Y004243D02*
X033263Y004243D01*
X033099Y004114D02*
X036335Y004114D01*
X036335Y003986D02*
X032888Y003986D01*
X032603Y003857D02*
X036335Y003857D01*
X036335Y003729D02*
X032243Y003729D01*
X030298Y003729D02*
X024377Y003729D01*
X024388Y003732D02*
X024412Y003753D01*
X024559Y003819D01*
X024591Y003823D01*
X024652Y003860D01*
X024717Y003890D01*
X024739Y003913D01*
X024876Y003996D01*
X024907Y004005D01*
X024963Y004049D01*
X025024Y004086D01*
X025043Y004111D01*
X025170Y004211D01*
X025200Y004223D01*
X025250Y004273D01*
X025306Y004317D01*
X025322Y004345D01*
X025436Y004459D01*
X025463Y004475D01*
X025507Y004531D01*
X025558Y004581D01*
X025570Y004611D01*
X025483Y004500D02*
X028962Y004500D01*
X029091Y004371D02*
X025348Y004371D01*
X025219Y004243D02*
X029262Y004243D01*
X029445Y004114D02*
X025047Y004114D01*
X024859Y003986D02*
X029651Y003986D01*
X029935Y003857D02*
X024647Y003857D01*
X024388Y003732D02*
X024319Y003711D01*
X024254Y003682D01*
X024222Y003681D01*
X024069Y003633D01*
X024042Y003615D01*
X023972Y003603D01*
X023904Y003581D01*
X023872Y003584D01*
X023713Y003555D01*
X023685Y003541D01*
X023614Y003537D01*
X023543Y003524D01*
X023512Y003531D01*
X023367Y003522D01*
X023352Y003516D01*
X023266Y003516D01*
X023179Y003511D01*
X023164Y003516D01*
X023036Y003516D01*
X023021Y003511D01*
X022934Y003516D01*
X022848Y003516D01*
X022833Y003522D01*
X022676Y003531D01*
X022645Y003525D01*
X022574Y003538D01*
X022503Y003542D01*
X022474Y003556D01*
X022304Y003587D01*
X022272Y003584D01*
X022204Y003605D01*
X022134Y003618D01*
X022107Y003636D01*
X021942Y003687D01*
X021910Y003688D01*
X021845Y003717D01*
X021777Y003739D01*
X021752Y003759D01*
X021595Y003830D01*
X021563Y003835D01*
X021502Y003872D01*
X021437Y003901D01*
X021415Y003924D01*
X021267Y004014D01*
X021236Y004022D01*
X021180Y004066D01*
X021119Y004103D01*
X021100Y004129D01*
X020964Y004236D01*
X020934Y004248D01*
X020884Y004298D01*
X020828Y004342D01*
X020812Y004370D01*
X020690Y004493D01*
X020662Y004508D01*
X020618Y004565D01*
X020567Y004615D01*
X020555Y004645D01*
X020448Y004781D01*
X020423Y004800D01*
X020386Y004861D01*
X020342Y004917D01*
X020333Y004948D01*
X020366Y004885D02*
X012945Y004885D01*
X012945Y005014D02*
X012945Y006833D01*
X012867Y007023D01*
X012722Y007167D01*
X012532Y007246D01*
X011944Y007246D01*
X011855Y007250D01*
X011842Y007246D01*
X011828Y007246D01*
X011745Y007212D01*
X011662Y007182D01*
X011651Y007173D01*
X011638Y007167D01*
X011575Y007105D01*
X010933Y006527D01*
X010095Y007295D01*
X010040Y007354D01*
X010019Y007364D01*
X010002Y007380D01*
X009927Y007407D01*
X009855Y007441D01*
X009832Y007442D01*
X009810Y007450D01*
X009730Y007446D01*
X009650Y007450D01*
X009628Y007442D01*
X009605Y007441D01*
X009533Y007407D01*
X009458Y007380D01*
X009441Y007364D01*
X009420Y007354D01*
X009365Y007295D01*
X008527Y006527D01*
X007885Y007105D01*
X007822Y007167D01*
X007809Y007173D01*
X007798Y007182D01*
X007715Y007212D01*
X007632Y007246D01*
X007618Y007246D01*
X007605Y007250D01*
X007516Y007246D01*
X006928Y007246D01*
X006738Y007167D01*
X006593Y007023D01*
X006515Y006833D01*
X006515Y005014D01*
X000625Y005014D01*
X000625Y005142D02*
X006515Y005142D01*
X006515Y005014D02*
X006509Y004996D01*
X006515Y004912D01*
X006515Y004828D01*
X006522Y004811D01*
X006524Y004792D01*
X006561Y004717D01*
X006593Y004639D01*
X006607Y004626D01*
X006615Y004609D01*
X006679Y004554D01*
X006738Y004494D01*
X006756Y004487D01*
X008161Y003269D01*
X008200Y003222D01*
X008238Y003203D01*
X008270Y003175D01*
X008328Y003155D01*
X008381Y003127D01*
X008424Y003123D01*
X008465Y003110D01*
X008525Y003114D01*
X008585Y003109D01*
X008626Y003121D01*
X008669Y003124D01*
X008723Y003152D01*
X008781Y003170D01*
X008814Y003197D01*
X008852Y003216D01*
X008892Y003262D01*
X009730Y003960D01*
X010568Y003262D01*
X010608Y003216D01*
X010646Y003197D01*
X010679Y003170D01*
X010737Y003152D01*
X010791Y003124D01*
X010834Y003121D01*
X010875Y003109D01*
X010935Y003114D01*
X010995Y003110D01*
X011036Y003123D01*
X011079Y003127D01*
X011132Y003155D01*
X011190Y003175D01*
X011222Y003203D01*
X011260Y003222D01*
X011385Y003343D02*
X036335Y003343D01*
X036335Y003472D02*
X011533Y003472D01*
X011681Y003600D02*
X022221Y003600D01*
X021808Y003729D02*
X011829Y003729D01*
X011978Y003857D02*
X021526Y003857D01*
X021313Y003986D02*
X012126Y003986D01*
X012274Y004114D02*
X021111Y004114D01*
X020947Y004243D02*
X012423Y004243D01*
X012571Y004371D02*
X020811Y004371D01*
X020677Y004500D02*
X012727Y004500D01*
X012856Y004628D02*
X020562Y004628D01*
X020467Y004757D02*
X012919Y004757D01*
X012945Y005142D02*
X020209Y005142D01*
X020150Y005271D02*
X012945Y005271D01*
X012945Y005399D02*
X020094Y005399D01*
X020036Y005528D02*
X012945Y005528D01*
X012945Y005656D02*
X019996Y005656D01*
X019956Y005785D02*
X012945Y005785D01*
X012945Y005913D02*
X019916Y005913D01*
X019896Y006042D02*
X012945Y006042D01*
X012945Y006170D02*
X019868Y006170D01*
X019849Y006299D02*
X012945Y006299D01*
X012945Y006427D02*
X019846Y006427D01*
X019835Y006556D02*
X012945Y006556D01*
X012945Y006684D02*
X019831Y006684D01*
X019833Y006813D02*
X015646Y006813D01*
X015768Y006941D02*
X019838Y006941D01*
X019849Y007070D02*
X015872Y007070D01*
X015983Y007198D02*
X019855Y007198D01*
X019879Y007327D02*
X016095Y007327D01*
X016206Y007455D02*
X019902Y007455D01*
X019926Y007584D02*
X016317Y007584D01*
X016429Y007712D02*
X019967Y007712D01*
X020006Y007841D02*
X016540Y007841D01*
X016652Y007969D02*
X020047Y007969D01*
X020109Y008098D02*
X016763Y008098D01*
X016874Y008226D02*
X020159Y008226D01*
X020232Y008355D02*
X016986Y008355D01*
X017090Y008483D02*
X020315Y008483D01*
X020392Y008612D02*
X017136Y008612D01*
X017148Y008740D02*
X020495Y008740D01*
X020589Y008869D02*
X017136Y008869D01*
X017078Y008997D02*
X020718Y008997D01*
X020836Y009126D02*
X016971Y009126D01*
X016864Y009254D02*
X021000Y009254D01*
X021160Y009383D02*
X016757Y009383D01*
X016650Y009511D02*
X021372Y009511D01*
X021613Y009640D02*
X016543Y009640D01*
X016436Y009768D02*
X021899Y009768D01*
X021779Y011181D02*
X022055Y011295D01*
X022130Y011370D01*
X022205Y011295D01*
X022481Y011181D01*
X022779Y011181D01*
X023055Y011295D01*
X023130Y011370D01*
X023205Y011295D01*
X023481Y011181D01*
X023779Y011181D01*
X024055Y011295D01*
X024130Y011370D01*
X024205Y011295D01*
X024481Y011181D01*
X024779Y011181D01*
X025055Y011295D01*
X025130Y011370D01*
X025205Y011295D01*
X025481Y011181D01*
X025779Y011181D01*
X026055Y011295D01*
X026130Y011370D01*
X026205Y011295D01*
X026481Y011181D01*
X026779Y011181D01*
X027055Y011295D01*
X027130Y011370D01*
X027205Y011295D01*
X027481Y011181D01*
X027779Y011181D01*
X028055Y011295D01*
X028130Y011370D01*
X028205Y011295D01*
X028481Y011181D01*
X028779Y011181D01*
X029055Y011295D01*
X029130Y011370D01*
X029205Y011295D01*
X029481Y011181D01*
X029779Y011181D01*
X030055Y011295D01*
X030130Y011370D01*
X030205Y011295D01*
X030481Y011181D01*
X030779Y011181D01*
X031055Y011295D01*
X031130Y011370D01*
X031205Y011295D01*
X031481Y011181D01*
X031779Y011181D01*
X032055Y011295D01*
X032266Y011506D01*
X032311Y011614D01*
X032337Y011588D01*
X032394Y011546D01*
X032457Y011514D01*
X032525Y011492D01*
X032595Y011481D01*
X032600Y011481D01*
X032600Y011901D01*
X032660Y011901D01*
X032660Y011481D01*
X032665Y011481D01*
X032735Y011492D01*
X032803Y011514D01*
X032866Y011546D01*
X032923Y011588D01*
X032949Y011614D01*
X032994Y011506D01*
X033205Y011295D01*
X033481Y011181D01*
X033779Y011181D01*
X034055Y011295D01*
X034266Y011506D01*
X034380Y011782D01*
X034380Y012080D01*
X034266Y012356D01*
X034055Y012567D01*
X033779Y012681D01*
X033481Y012681D01*
X033309Y012610D01*
X033380Y012782D01*
X033380Y013080D01*
X033266Y013356D01*
X033055Y013567D01*
X032779Y013681D01*
X032481Y013681D01*
X032205Y013567D01*
X031994Y013356D01*
X031880Y013080D01*
X031880Y012782D01*
X031951Y012610D01*
X031779Y012681D01*
X031630Y012681D01*
X031380Y012930D01*
X031380Y013080D01*
X031266Y013356D01*
X031055Y013567D01*
X030779Y013681D01*
X030630Y013681D01*
X027930Y016380D01*
X027735Y016461D01*
X027525Y016461D01*
X021221Y016461D01*
X021266Y016506D01*
X021380Y016782D01*
X021380Y017080D01*
X021309Y017252D01*
X021481Y017181D01*
X021779Y017181D01*
X022055Y017295D01*
X022130Y017370D01*
X022205Y017295D01*
X022481Y017181D01*
X022779Y017181D01*
X023055Y017295D01*
X023130Y017370D01*
X023205Y017295D01*
X023481Y017181D01*
X023779Y017181D01*
X024055Y017295D01*
X024130Y017370D01*
X024205Y017295D01*
X024481Y017181D01*
X024779Y017181D01*
X025055Y017295D01*
X025130Y017370D01*
X025205Y017295D01*
X025481Y017181D01*
X025779Y017181D01*
X026055Y017295D01*
X026130Y017370D01*
X026205Y017295D01*
X026481Y017181D01*
X026779Y017181D01*
X027055Y017295D01*
X027130Y017370D01*
X027205Y017295D01*
X027481Y017181D01*
X027779Y017181D01*
X028055Y017295D01*
X028130Y017370D01*
X028205Y017295D01*
X028481Y017181D01*
X028779Y017181D01*
X029055Y017295D01*
X029130Y017370D01*
X029205Y017295D01*
X029481Y017181D01*
X029779Y017181D01*
X030055Y017295D01*
X030130Y017370D01*
X030205Y017295D01*
X030481Y017181D01*
X030779Y017181D01*
X031055Y017295D01*
X031130Y017370D01*
X031205Y017295D01*
X031481Y017181D01*
X031779Y017181D01*
X032055Y017295D01*
X032130Y017370D01*
X032205Y017295D01*
X032481Y017181D01*
X032779Y017181D01*
X033055Y017295D01*
X033266Y017506D01*
X033311Y017614D01*
X033337Y017588D01*
X033394Y017546D01*
X033457Y017514D01*
X033525Y017492D01*
X033595Y017481D01*
X033600Y017481D01*
X033600Y017901D01*
X033660Y017901D01*
X033660Y017961D01*
X033600Y017961D01*
X033600Y018381D01*
X033595Y018381D01*
X033525Y018370D01*
X033457Y018348D01*
X033394Y018316D01*
X033337Y018274D01*
X033311Y018248D01*
X033266Y018356D01*
X033055Y018567D01*
X032779Y018681D01*
X032481Y018681D01*
X032205Y018567D01*
X032130Y018491D01*
X032055Y018567D01*
X031779Y018681D01*
X031481Y018681D01*
X031205Y018567D01*
X031130Y018491D01*
X031055Y018567D01*
X030779Y018681D01*
X030481Y018681D01*
X030205Y018567D01*
X030130Y018491D01*
X030055Y018567D01*
X029779Y018681D01*
X029481Y018681D01*
X029205Y018567D01*
X029130Y018491D01*
X029055Y018567D01*
X028779Y018681D01*
X028481Y018681D01*
X028205Y018567D01*
X028130Y018491D01*
X028055Y018567D01*
X027779Y018681D01*
X027481Y018681D01*
X027205Y018567D01*
X027130Y018491D01*
X027055Y018567D01*
X026779Y018681D01*
X026481Y018681D01*
X026205Y018567D01*
X026130Y018491D01*
X026055Y018567D01*
X025779Y018681D01*
X025481Y018681D01*
X025205Y018567D01*
X025130Y018491D01*
X025055Y018567D01*
X024779Y018681D01*
X024481Y018681D01*
X024205Y018567D01*
X024130Y018491D01*
X024055Y018567D01*
X023779Y018681D01*
X023481Y018681D01*
X023205Y018567D01*
X023130Y018491D01*
X023055Y018567D01*
X022779Y018681D01*
X022481Y018681D01*
X022205Y018567D01*
X022130Y018491D01*
X022055Y018567D01*
X021779Y018681D01*
X021481Y018681D01*
X021205Y018567D01*
X021130Y018491D01*
X021055Y018567D01*
X020779Y018681D01*
X020481Y018681D01*
X020205Y018567D01*
X019994Y018356D01*
X019880Y018080D01*
X019880Y017782D01*
X019994Y017506D01*
X020069Y017431D01*
X019994Y017356D01*
X019880Y017080D01*
X019880Y016782D01*
X019994Y016506D01*
X020069Y016431D01*
X019994Y016356D01*
X019880Y016080D01*
X019880Y015782D01*
X019994Y015506D01*
X020205Y015295D01*
X020313Y015250D01*
X020287Y015224D01*
X020245Y015167D01*
X020213Y015104D01*
X020191Y015036D01*
X020180Y014966D01*
X020180Y014961D01*
X020600Y014961D01*
X020600Y014901D01*
X020180Y014901D01*
X020180Y014895D01*
X020191Y014825D01*
X020213Y014758D01*
X020245Y014695D01*
X020287Y014638D01*
X020313Y014611D01*
X020205Y014567D01*
X019994Y014356D01*
X019880Y014080D01*
X019880Y013782D01*
X019994Y013506D01*
X020069Y013431D01*
X019994Y013356D01*
X019880Y013080D01*
X019880Y012782D01*
X019994Y012506D01*
X020069Y012431D01*
X019994Y012356D01*
X019880Y012080D01*
X019880Y011782D01*
X019994Y011506D01*
X020205Y011295D01*
X020481Y011181D01*
X020779Y011181D01*
X021055Y011295D01*
X021130Y011370D01*
X021205Y011295D01*
X021481Y011181D01*
X021779Y011181D01*
X021782Y011182D02*
X022478Y011182D01*
X022782Y011182D02*
X023478Y011182D01*
X023782Y011182D02*
X024478Y011182D01*
X024782Y011182D02*
X025478Y011182D01*
X025782Y011182D02*
X026478Y011182D01*
X026782Y011182D02*
X027478Y011182D01*
X027782Y011182D02*
X028478Y011182D01*
X028782Y011182D02*
X029478Y011182D01*
X029782Y011182D02*
X030478Y011182D01*
X030782Y011182D02*
X031478Y011182D01*
X031782Y011182D02*
X033478Y011182D01*
X033782Y011182D02*
X036335Y011182D01*
X036335Y011310D02*
X034070Y011310D01*
X034199Y011439D02*
X036335Y011439D01*
X036335Y011567D02*
X034291Y011567D01*
X034344Y011696D02*
X036335Y011696D01*
X036335Y011824D02*
X034380Y011824D01*
X034380Y011953D02*
X036335Y011953D01*
X036335Y012081D02*
X034379Y012081D01*
X034326Y012210D02*
X036335Y012210D01*
X036335Y012338D02*
X034273Y012338D01*
X034155Y012467D02*
X036335Y012467D01*
X036335Y012595D02*
X033986Y012595D01*
X033356Y012724D02*
X036335Y012724D01*
X036335Y012852D02*
X033380Y012852D01*
X033380Y012981D02*
X036335Y012981D01*
X036335Y013109D02*
X033368Y013109D01*
X033315Y013238D02*
X036335Y013238D01*
X036335Y013366D02*
X033255Y013366D01*
X033127Y013495D02*
X036335Y013495D01*
X036335Y013623D02*
X032918Y013623D01*
X032342Y013623D02*
X030918Y013623D01*
X031127Y013495D02*
X032133Y013495D01*
X032005Y013366D02*
X031255Y013366D01*
X031315Y013238D02*
X031945Y013238D01*
X031892Y013109D02*
X031368Y013109D01*
X031380Y012981D02*
X031880Y012981D01*
X031880Y012852D02*
X031458Y012852D01*
X031587Y012724D02*
X031904Y012724D01*
X031630Y011931D02*
X030630Y012931D01*
X027630Y015931D01*
X020630Y015931D01*
X019880Y015936D02*
X012402Y015936D01*
X012551Y015808D02*
X019880Y015808D01*
X019922Y015679D02*
X012699Y015679D01*
X012704Y015675D02*
X011299Y016893D01*
X011260Y016939D01*
X011222Y016959D01*
X011190Y016987D01*
X011132Y017006D01*
X011079Y017034D01*
X011036Y017038D01*
X010995Y017052D01*
X010935Y017047D01*
X010875Y017053D01*
X010834Y017040D01*
X010791Y017037D01*
X010737Y017010D01*
X010679Y016992D01*
X010646Y016965D01*
X010608Y016946D01*
X010568Y016900D01*
X009730Y016201D01*
X008892Y016900D01*
X008852Y016946D01*
X008814Y016965D01*
X008781Y016992D01*
X008723Y017010D01*
X008669Y017037D01*
X008626Y017040D01*
X008585Y017053D01*
X008525Y017047D01*
X008465Y017052D01*
X008424Y017038D01*
X008381Y017034D01*
X008328Y017006D01*
X008270Y016987D01*
X008238Y016959D01*
X008200Y016939D01*
X008161Y016893D01*
X006756Y015675D01*
X006738Y015667D01*
X006679Y015608D01*
X006615Y015553D01*
X006607Y015536D01*
X006593Y015523D01*
X006561Y015445D01*
X006524Y015370D01*
X006522Y015351D01*
X006515Y015333D01*
X006515Y015249D01*
X006509Y015165D01*
X006515Y015147D01*
X006515Y013328D01*
X006593Y013139D01*
X006738Y012994D01*
X006928Y012916D01*
X007516Y012916D01*
X007605Y012911D01*
X007618Y012916D01*
X007632Y012916D01*
X007715Y012950D01*
X007798Y012979D01*
X007809Y012989D01*
X007822Y012994D01*
X007885Y013057D01*
X008527Y013635D01*
X009365Y012866D01*
X009420Y012807D01*
X009441Y012798D01*
X009458Y012782D01*
X009533Y012755D01*
X009605Y012721D01*
X009628Y012720D01*
X009650Y012712D01*
X009730Y012715D01*
X009810Y012712D01*
X009832Y012720D01*
X009855Y012721D01*
X009927Y012755D01*
X010002Y012782D01*
X010019Y012798D01*
X010040Y012807D01*
X010095Y012866D01*
X010933Y013635D01*
X011575Y013057D01*
X011638Y012994D01*
X011651Y012989D01*
X011662Y012979D01*
X011745Y012950D01*
X011828Y012916D01*
X011842Y012916D01*
X011855Y012911D01*
X011944Y012916D01*
X012532Y012916D01*
X012722Y012994D01*
X012867Y013139D01*
X012945Y013328D01*
X012945Y015147D01*
X012951Y015165D01*
X012945Y015249D01*
X012945Y015333D01*
X012938Y015351D01*
X012936Y015370D01*
X012899Y015445D01*
X012867Y015523D01*
X012853Y015536D01*
X012845Y015553D01*
X012781Y015608D01*
X012722Y015667D01*
X012704Y015675D01*
X012846Y015551D02*
X019976Y015551D01*
X020078Y015422D02*
X012910Y015422D01*
X012945Y015294D02*
X020208Y015294D01*
X020244Y015165D02*
X012951Y015165D01*
X012945Y015037D02*
X020191Y015037D01*
X020600Y014908D02*
X012945Y014908D01*
X012945Y014780D02*
X020206Y014780D01*
X020277Y014651D02*
X012945Y014651D01*
X012945Y014523D02*
X020161Y014523D01*
X020033Y014394D02*
X012945Y014394D01*
X012945Y014266D02*
X019957Y014266D01*
X019904Y014137D02*
X012945Y014137D01*
X012945Y014009D02*
X019880Y014009D01*
X019880Y013880D02*
X012945Y013880D01*
X012945Y013752D02*
X019892Y013752D01*
X019946Y013623D02*
X012945Y013623D01*
X012945Y013495D02*
X020005Y013495D01*
X020005Y013366D02*
X012945Y013366D01*
X012907Y013238D02*
X019945Y013238D01*
X019892Y013109D02*
X015525Y013109D01*
X015708Y012981D02*
X019880Y012981D01*
X019880Y012852D02*
X015820Y012852D01*
X015931Y012724D02*
X019904Y012724D01*
X019957Y012595D02*
X016042Y012595D01*
X016154Y012467D02*
X020033Y012467D01*
X019987Y012338D02*
X016265Y012338D01*
X016376Y012210D02*
X019934Y012210D01*
X019881Y012081D02*
X016488Y012081D01*
X016599Y011953D02*
X019880Y011953D01*
X019880Y011824D02*
X016710Y011824D01*
X016822Y011696D02*
X019916Y011696D01*
X019969Y011567D02*
X016933Y011567D01*
X017050Y011439D02*
X020061Y011439D01*
X020190Y011310D02*
X017117Y011310D01*
X017150Y011182D02*
X020478Y011182D01*
X020782Y011182D02*
X021478Y011182D01*
X021190Y011310D02*
X021070Y011310D01*
X022070Y011310D02*
X022190Y011310D01*
X023070Y011310D02*
X023190Y011310D01*
X024070Y011310D02*
X024190Y011310D01*
X025070Y011310D02*
X025190Y011310D01*
X026070Y011310D02*
X026190Y011310D01*
X027070Y011310D02*
X027190Y011310D01*
X028070Y011310D02*
X028190Y011310D01*
X029070Y011310D02*
X029190Y011310D01*
X030070Y011310D02*
X030190Y011310D01*
X031070Y011310D02*
X031190Y011310D01*
X032070Y011310D02*
X033190Y011310D01*
X033061Y011439D02*
X032199Y011439D01*
X032291Y011567D02*
X032365Y011567D01*
X032600Y011567D02*
X032660Y011567D01*
X032660Y011696D02*
X032600Y011696D01*
X032600Y011824D02*
X032660Y011824D01*
X032895Y011567D02*
X032969Y011567D01*
X036335Y011053D02*
X017145Y011053D01*
X017105Y010925D02*
X036335Y010925D01*
X036335Y010796D02*
X017030Y010796D01*
X016915Y010668D02*
X036335Y010668D01*
X036335Y010539D02*
X016807Y010539D01*
X016700Y010411D02*
X036335Y010411D01*
X036335Y010282D02*
X016593Y010282D01*
X016486Y010154D02*
X036335Y010154D01*
X036335Y013752D02*
X030559Y013752D01*
X030430Y013880D02*
X036335Y013880D01*
X036335Y014009D02*
X030302Y014009D01*
X030173Y014137D02*
X036335Y014137D01*
X036335Y014266D02*
X030045Y014266D01*
X029916Y014394D02*
X036335Y014394D01*
X036335Y014523D02*
X029788Y014523D01*
X029659Y014651D02*
X036335Y014651D01*
X036335Y014780D02*
X029531Y014780D01*
X029402Y014908D02*
X036335Y014908D01*
X036335Y015037D02*
X029274Y015037D01*
X029145Y015165D02*
X036335Y015165D01*
X036335Y015294D02*
X029017Y015294D01*
X028888Y015422D02*
X036335Y015422D01*
X036335Y015551D02*
X028760Y015551D01*
X028631Y015679D02*
X036335Y015679D01*
X036335Y015808D02*
X028503Y015808D01*
X028374Y015936D02*
X036335Y015936D01*
X036335Y016065D02*
X028246Y016065D01*
X028117Y016193D02*
X036335Y016193D01*
X036335Y016322D02*
X027989Y016322D01*
X027761Y016450D02*
X036335Y016450D01*
X036335Y016579D02*
X021296Y016579D01*
X021349Y016707D02*
X036335Y016707D01*
X036335Y016836D02*
X021380Y016836D01*
X021380Y016964D02*
X036335Y016964D01*
X036335Y017093D02*
X021375Y017093D01*
X021383Y017221D02*
X021321Y017221D01*
X021877Y017221D02*
X022383Y017221D01*
X022150Y017350D02*
X022110Y017350D01*
X022877Y017221D02*
X023383Y017221D01*
X023150Y017350D02*
X023110Y017350D01*
X023877Y017221D02*
X024383Y017221D01*
X024150Y017350D02*
X024110Y017350D01*
X024877Y017221D02*
X025383Y017221D01*
X025150Y017350D02*
X025110Y017350D01*
X025877Y017221D02*
X026383Y017221D01*
X026150Y017350D02*
X026110Y017350D01*
X026877Y017221D02*
X027383Y017221D01*
X027150Y017350D02*
X027110Y017350D01*
X027877Y017221D02*
X028383Y017221D01*
X028150Y017350D02*
X028110Y017350D01*
X028877Y017221D02*
X029383Y017221D01*
X029150Y017350D02*
X029110Y017350D01*
X029877Y017221D02*
X030383Y017221D01*
X030150Y017350D02*
X030110Y017350D01*
X030877Y017221D02*
X031383Y017221D01*
X031150Y017350D02*
X031110Y017350D01*
X031877Y017221D02*
X032383Y017221D01*
X032150Y017350D02*
X032110Y017350D01*
X032877Y017221D02*
X036335Y017221D01*
X036335Y017350D02*
X033110Y017350D01*
X033238Y017478D02*
X036335Y017478D01*
X036335Y017607D02*
X033942Y017607D01*
X033923Y017588D02*
X033973Y017638D01*
X034015Y017695D01*
X034047Y017758D01*
X034069Y017825D01*
X034080Y017895D01*
X034080Y017901D01*
X033660Y017901D01*
X033660Y017481D01*
X033665Y017481D01*
X033735Y017492D01*
X033803Y017514D01*
X033866Y017546D01*
X033923Y017588D01*
X034035Y017735D02*
X036335Y017735D01*
X036335Y017864D02*
X034075Y017864D01*
X034080Y017961D02*
X034080Y017966D01*
X034069Y018036D01*
X034047Y018104D01*
X034015Y018167D01*
X033973Y018224D01*
X033923Y018274D01*
X033866Y018316D01*
X033803Y018348D01*
X033735Y018370D01*
X033665Y018381D01*
X033660Y018381D01*
X033660Y017961D01*
X034080Y017961D01*
X034076Y017992D02*
X036335Y017992D01*
X036335Y018121D02*
X034038Y018121D01*
X033948Y018249D02*
X036328Y018249D01*
X036308Y018378D02*
X033684Y018378D01*
X033660Y018378D02*
X033600Y018378D01*
X033576Y018378D02*
X033244Y018378D01*
X033310Y018249D02*
X033312Y018249D01*
X033600Y018249D02*
X033660Y018249D01*
X033660Y018121D02*
X033600Y018121D01*
X033600Y017992D02*
X033660Y017992D01*
X033660Y017864D02*
X033600Y017864D01*
X033600Y017735D02*
X033660Y017735D01*
X033660Y017607D02*
X033600Y017607D01*
X033318Y017607D02*
X033308Y017607D01*
X033115Y018506D02*
X036278Y018506D01*
X036247Y018635D02*
X032890Y018635D01*
X032370Y018635D02*
X031890Y018635D01*
X032115Y018506D02*
X032145Y018506D01*
X031370Y018635D02*
X030890Y018635D01*
X031115Y018506D02*
X031145Y018506D01*
X030370Y018635D02*
X029890Y018635D01*
X030115Y018506D02*
X030145Y018506D01*
X029370Y018635D02*
X028890Y018635D01*
X029115Y018506D02*
X029145Y018506D01*
X028370Y018635D02*
X027890Y018635D01*
X028115Y018506D02*
X028145Y018506D01*
X027370Y018635D02*
X026890Y018635D01*
X027115Y018506D02*
X027145Y018506D01*
X026370Y018635D02*
X025890Y018635D01*
X026115Y018506D02*
X026145Y018506D01*
X025370Y018635D02*
X024890Y018635D01*
X025115Y018506D02*
X025145Y018506D01*
X024370Y018635D02*
X023890Y018635D01*
X024115Y018506D02*
X024145Y018506D01*
X023370Y018635D02*
X022890Y018635D01*
X023115Y018506D02*
X023145Y018506D01*
X022370Y018635D02*
X021890Y018635D01*
X022115Y018506D02*
X022145Y018506D01*
X021370Y018635D02*
X020890Y018635D01*
X021115Y018506D02*
X021145Y018506D01*
X020370Y018635D02*
X000625Y018635D01*
X000634Y018763D02*
X036185Y018763D01*
X036123Y018892D02*
X000668Y018892D01*
X000704Y019020D02*
X036033Y019020D01*
X035931Y019149D02*
X000779Y019149D01*
X000833Y019243D02*
X000833Y019243D01*
X000867Y019277D02*
X035791Y019277D01*
X035629Y019406D02*
X000996Y019406D01*
X001202Y019534D02*
X035362Y019534D01*
X029233Y013578D02*
X027410Y015401D01*
X021161Y015401D01*
X021055Y015295D01*
X020947Y015250D01*
X020973Y015224D01*
X021015Y015167D01*
X021047Y015104D01*
X021069Y015036D01*
X021080Y014966D01*
X021080Y014961D01*
X020660Y014961D01*
X020660Y014901D01*
X021080Y014901D01*
X021080Y014895D01*
X021069Y014825D01*
X021047Y014758D01*
X021015Y014695D01*
X020973Y014638D01*
X020947Y014611D01*
X021055Y014567D01*
X021266Y014356D01*
X021380Y014080D01*
X021380Y013782D01*
X021266Y013506D01*
X021191Y013431D01*
X021266Y013356D01*
X021380Y013080D01*
X021380Y012782D01*
X021309Y012610D01*
X021481Y012681D01*
X021779Y012681D01*
X022055Y012567D01*
X022130Y012491D01*
X022205Y012567D01*
X022481Y012681D01*
X022779Y012681D01*
X023055Y012567D01*
X023130Y012491D01*
X023205Y012567D01*
X023481Y012681D01*
X023779Y012681D01*
X024055Y012567D01*
X024130Y012491D01*
X024205Y012567D01*
X024481Y012681D01*
X024779Y012681D01*
X025055Y012567D01*
X025130Y012491D01*
X025205Y012567D01*
X025481Y012681D01*
X025779Y012681D01*
X026055Y012567D01*
X026130Y012491D01*
X026205Y012567D01*
X026481Y012681D01*
X026779Y012681D01*
X027055Y012567D01*
X027130Y012491D01*
X027205Y012567D01*
X027481Y012681D01*
X027779Y012681D01*
X027951Y012610D01*
X027880Y012782D01*
X027880Y013080D01*
X027994Y013356D01*
X028205Y013567D01*
X028481Y013681D01*
X028779Y013681D01*
X029055Y013567D01*
X029130Y013491D01*
X029205Y013567D01*
X029233Y013578D01*
X029188Y013623D02*
X028918Y013623D01*
X029059Y013752D02*
X021368Y013752D01*
X021380Y013880D02*
X028931Y013880D01*
X028802Y014009D02*
X021380Y014009D01*
X021356Y014137D02*
X028674Y014137D01*
X028545Y014266D02*
X021303Y014266D01*
X021227Y014394D02*
X028417Y014394D01*
X028288Y014523D02*
X021099Y014523D01*
X020983Y014651D02*
X028160Y014651D01*
X028031Y014780D02*
X021054Y014780D01*
X020660Y014908D02*
X027903Y014908D01*
X027774Y015037D02*
X021069Y015037D01*
X021016Y015165D02*
X027646Y015165D01*
X027517Y015294D02*
X021052Y015294D01*
X019880Y016065D02*
X012254Y016065D01*
X012106Y016193D02*
X019927Y016193D01*
X019980Y016322D02*
X011957Y016322D01*
X011809Y016450D02*
X020050Y016450D01*
X019964Y016579D02*
X011661Y016579D01*
X011513Y016707D02*
X019911Y016707D01*
X019880Y016836D02*
X011364Y016836D01*
X011216Y016964D02*
X019880Y016964D01*
X019885Y017093D02*
X000625Y017093D01*
X000625Y017221D02*
X019939Y017221D01*
X019992Y017350D02*
X000625Y017350D01*
X000625Y017478D02*
X020022Y017478D01*
X019952Y017607D02*
X000625Y017607D01*
X000625Y017735D02*
X019899Y017735D01*
X019880Y017864D02*
X000625Y017864D01*
X000625Y017992D02*
X019880Y017992D01*
X019897Y018121D02*
X000625Y018121D01*
X000625Y018249D02*
X019950Y018249D01*
X020016Y018378D02*
X000625Y018378D01*
X000625Y018506D02*
X020145Y018506D01*
X021314Y013623D02*
X028342Y013623D01*
X028133Y013495D02*
X021255Y013495D01*
X021255Y013366D02*
X028005Y013366D01*
X027945Y013238D02*
X021315Y013238D01*
X021368Y013109D02*
X027892Y013109D01*
X027880Y012981D02*
X021380Y012981D01*
X021380Y012852D02*
X027880Y012852D01*
X027904Y012724D02*
X021356Y012724D01*
X021986Y012595D02*
X022274Y012595D01*
X022986Y012595D02*
X023274Y012595D01*
X023986Y012595D02*
X024274Y012595D01*
X024986Y012595D02*
X025274Y012595D01*
X025986Y012595D02*
X026274Y012595D01*
X026986Y012595D02*
X027274Y012595D01*
X029127Y013495D02*
X029133Y013495D01*
X013691Y011182D02*
X005769Y011182D01*
X005726Y011134D02*
X006304Y011776D01*
X006367Y011839D01*
X006372Y011852D01*
X006381Y011862D01*
X006411Y011946D01*
X006445Y012028D01*
X006445Y012042D01*
X006450Y012056D01*
X006445Y012144D01*
X006445Y012733D01*
X006367Y012923D01*
X006222Y013067D01*
X006032Y013146D01*
X004213Y013146D01*
X004195Y013152D01*
X004112Y013146D01*
X004028Y013146D01*
X004010Y013139D01*
X003991Y013137D01*
X003916Y013100D01*
X003838Y013067D01*
X003825Y013054D01*
X003808Y013046D01*
X003753Y012982D01*
X003693Y012923D01*
X003686Y012905D01*
X002468Y011500D01*
X002422Y011461D01*
X002402Y011423D01*
X002374Y011391D01*
X002355Y011333D01*
X002326Y011279D01*
X002323Y011237D01*
X002309Y011196D01*
X002313Y011136D01*
X002308Y011075D01*
X002321Y011035D01*
X002324Y010992D01*
X002351Y010938D01*
X002369Y010880D01*
X002396Y010847D01*
X002415Y010809D01*
X002461Y010769D01*
X003160Y009931D01*
X002461Y009093D01*
X002415Y009053D01*
X002396Y009015D01*
X002369Y008982D01*
X002351Y008924D01*
X002324Y008870D01*
X002321Y008827D01*
X002308Y008786D01*
X002313Y008726D01*
X002309Y008665D01*
X002323Y008625D01*
X002326Y008582D01*
X002355Y008528D01*
X002374Y008471D01*
X002402Y008439D01*
X002422Y008401D01*
X002468Y008362D01*
X003686Y006957D01*
X003693Y006939D01*
X003753Y006880D01*
X003808Y006816D01*
X003825Y006808D01*
X003838Y006794D01*
X003916Y006762D01*
X003991Y006724D01*
X004010Y006723D01*
X004028Y006716D01*
X004112Y006716D01*
X004195Y006710D01*
X004213Y006716D01*
X006032Y006716D01*
X006222Y006794D01*
X006367Y006939D01*
X006445Y007128D01*
X006445Y007717D01*
X006450Y007806D01*
X006445Y007819D01*
X006445Y007833D01*
X006411Y007915D01*
X006381Y007999D01*
X006372Y008010D01*
X006367Y008023D01*
X006304Y008085D01*
X005726Y008728D01*
X006495Y009566D01*
X006554Y009620D01*
X006563Y009641D01*
X006579Y009658D01*
X006606Y009734D01*
X006640Y009806D01*
X006641Y009829D01*
X006649Y009851D01*
X006645Y009931D01*
X006649Y010011D01*
X006641Y010032D01*
X006640Y010056D01*
X006606Y010128D01*
X006579Y010203D01*
X006563Y010220D01*
X006554Y010241D01*
X006495Y010295D01*
X005726Y011134D01*
X005800Y011053D02*
X013660Y011053D01*
X013543Y010925D02*
X005917Y010925D01*
X006035Y010796D02*
X013425Y010796D01*
X013307Y010668D02*
X006153Y010668D01*
X006271Y010539D02*
X013189Y010539D01*
X013071Y010411D02*
X006389Y010411D01*
X006509Y010282D02*
X012951Y010282D01*
X012863Y010154D02*
X006597Y010154D01*
X006644Y010025D02*
X012816Y010025D01*
X012813Y009897D02*
X006647Y009897D01*
X006622Y009768D02*
X012838Y009768D01*
X012897Y009640D02*
X006563Y009640D01*
X006444Y009511D02*
X013016Y009511D01*
X013134Y009383D02*
X006326Y009383D01*
X006209Y009254D02*
X013251Y009254D01*
X013369Y009126D02*
X006091Y009126D01*
X005973Y008997D02*
X013487Y008997D01*
X013605Y008869D02*
X005855Y008869D01*
X005737Y008740D02*
X013723Y008740D01*
X013630Y008612D02*
X005830Y008612D01*
X005946Y008483D02*
X013514Y008483D01*
X013399Y008355D02*
X006061Y008355D01*
X006177Y008226D02*
X013283Y008226D01*
X013167Y008098D02*
X006293Y008098D01*
X006392Y007969D02*
X013068Y007969D01*
X013018Y007841D02*
X006442Y007841D01*
X006445Y007712D02*
X013015Y007712D01*
X013015Y007584D02*
X006445Y007584D01*
X006445Y007455D02*
X013015Y007455D01*
X013015Y007327D02*
X010066Y007327D01*
X010200Y007198D02*
X011707Y007198D01*
X011537Y007070D02*
X010340Y007070D01*
X010481Y006941D02*
X011394Y006941D01*
X011251Y006813D02*
X010621Y006813D01*
X010761Y006684D02*
X011109Y006684D01*
X010966Y006556D02*
X010901Y006556D01*
X009394Y007327D02*
X006445Y007327D01*
X006445Y007198D02*
X006813Y007198D01*
X006641Y007070D02*
X006421Y007070D01*
X006368Y006941D02*
X006560Y006941D01*
X006515Y006813D02*
X006240Y006813D01*
X006515Y006684D02*
X000625Y006684D01*
X000625Y006556D02*
X006515Y006556D01*
X006515Y006427D02*
X000625Y006427D01*
X000625Y006299D02*
X006515Y006299D01*
X006515Y006170D02*
X000625Y006170D01*
X000625Y006042D02*
X006515Y006042D01*
X006515Y005913D02*
X000625Y005913D01*
X000625Y005785D02*
X006515Y005785D01*
X006515Y005656D02*
X000625Y005656D01*
X000625Y005528D02*
X006515Y005528D01*
X006515Y005399D02*
X000625Y005399D01*
X000625Y005271D02*
X006515Y005271D01*
X006515Y004885D02*
X000625Y004885D01*
X000625Y004757D02*
X006541Y004757D01*
X006604Y004628D02*
X000625Y004628D01*
X000625Y004500D02*
X006733Y004500D01*
X006889Y004371D02*
X000625Y004371D01*
X000625Y004243D02*
X007037Y004243D01*
X007186Y004114D02*
X000625Y004114D01*
X000625Y003986D02*
X007334Y003986D01*
X007482Y003857D02*
X000625Y003857D01*
X000625Y003729D02*
X007631Y003729D01*
X007779Y003600D02*
X000625Y003600D01*
X000625Y003472D02*
X007927Y003472D01*
X008075Y003343D02*
X000625Y003343D01*
X000625Y003215D02*
X008214Y003215D01*
X008850Y003215D02*
X010610Y003215D01*
X010471Y003343D02*
X008989Y003343D01*
X009144Y003472D02*
X010316Y003472D01*
X010162Y003600D02*
X009298Y003600D01*
X009452Y003729D02*
X010008Y003729D01*
X009854Y003857D02*
X009606Y003857D01*
X008559Y006556D02*
X008494Y006556D01*
X008351Y006684D02*
X008699Y006684D01*
X008839Y006813D02*
X008209Y006813D01*
X008066Y006941D02*
X008979Y006941D01*
X009120Y007070D02*
X007923Y007070D01*
X007753Y007198D02*
X009260Y007198D01*
X012647Y007198D02*
X013015Y007198D01*
X013039Y007070D02*
X012819Y007070D01*
X012900Y006941D02*
X013092Y006941D01*
X013220Y006813D02*
X012945Y006813D01*
X013576Y011310D02*
X005884Y011310D01*
X006000Y011439D02*
X013460Y011439D01*
X013344Y011567D02*
X006116Y011567D01*
X006231Y011696D02*
X013229Y011696D01*
X013108Y011824D02*
X006352Y011824D01*
X006414Y011953D02*
X013046Y011953D01*
X013012Y012081D02*
X006448Y012081D01*
X006445Y012210D02*
X013015Y012210D01*
X013015Y012338D02*
X006445Y012338D01*
X006445Y012467D02*
X013015Y012467D01*
X013015Y012595D02*
X006445Y012595D01*
X006445Y012724D02*
X009599Y012724D01*
X009378Y012852D02*
X006396Y012852D01*
X006308Y012981D02*
X006771Y012981D01*
X006623Y013109D02*
X006120Y013109D01*
X006553Y013238D02*
X000625Y013238D01*
X000625Y013366D02*
X006515Y013366D01*
X006515Y013495D02*
X000625Y013495D01*
X000625Y013623D02*
X006515Y013623D01*
X006515Y013752D02*
X000625Y013752D01*
X000625Y013880D02*
X006515Y013880D01*
X006515Y014009D02*
X000625Y014009D01*
X000625Y014137D02*
X006515Y014137D01*
X006515Y014266D02*
X000625Y014266D01*
X000625Y014394D02*
X006515Y014394D01*
X006515Y014523D02*
X000625Y014523D01*
X000625Y014651D02*
X006515Y014651D01*
X006515Y014780D02*
X000625Y014780D01*
X000625Y014908D02*
X006515Y014908D01*
X006515Y015037D02*
X000625Y015037D01*
X000625Y015165D02*
X006509Y015165D01*
X006515Y015294D02*
X000625Y015294D01*
X000625Y015422D02*
X006550Y015422D01*
X006614Y015551D02*
X000625Y015551D01*
X000625Y015679D02*
X006761Y015679D01*
X006909Y015808D02*
X000625Y015808D01*
X000625Y015936D02*
X007058Y015936D01*
X007206Y016065D02*
X000625Y016065D01*
X000625Y016193D02*
X007354Y016193D01*
X007503Y016322D02*
X000625Y016322D01*
X000625Y016450D02*
X007651Y016450D01*
X007799Y016579D02*
X000625Y016579D01*
X000625Y016707D02*
X007947Y016707D01*
X008096Y016836D02*
X000625Y016836D01*
X000625Y016964D02*
X008244Y016964D01*
X008814Y016964D02*
X010646Y016964D01*
X010492Y016836D02*
X008968Y016836D01*
X009123Y016707D02*
X010337Y016707D01*
X010183Y016579D02*
X009277Y016579D01*
X009431Y016450D02*
X010029Y016450D01*
X009875Y016322D02*
X009585Y016322D01*
X008540Y013623D02*
X008514Y013623D01*
X008371Y013495D02*
X008680Y013495D01*
X008820Y013366D02*
X008228Y013366D01*
X008085Y013238D02*
X008960Y013238D01*
X009100Y013109D02*
X007943Y013109D01*
X007800Y012981D02*
X009241Y012981D01*
X009861Y012724D02*
X013015Y012724D01*
X013064Y012852D02*
X010082Y012852D01*
X010219Y012981D02*
X011660Y012981D01*
X011517Y013109D02*
X010360Y013109D01*
X010500Y013238D02*
X011375Y013238D01*
X011232Y013366D02*
X010640Y013366D01*
X010780Y013495D02*
X011089Y013495D01*
X010946Y013623D02*
X010920Y013623D01*
X012689Y012981D02*
X013152Y012981D01*
X013340Y013109D02*
X012837Y013109D01*
X003935Y013109D02*
X000625Y013109D01*
X000625Y012981D02*
X003752Y012981D01*
X003640Y012852D02*
X000625Y012852D01*
X000625Y012724D02*
X003529Y012724D01*
X003418Y012595D02*
X000625Y012595D01*
X000625Y012467D02*
X003306Y012467D01*
X003195Y012338D02*
X000625Y012338D01*
X000625Y012210D02*
X003084Y012210D01*
X002972Y012081D02*
X000625Y012081D01*
X000625Y011953D02*
X002861Y011953D01*
X002750Y011824D02*
X000625Y011824D01*
X000625Y011696D02*
X002638Y011696D01*
X002527Y011567D02*
X000625Y011567D01*
X000625Y011439D02*
X002410Y011439D01*
X002343Y011310D02*
X000625Y011310D01*
X000625Y011182D02*
X002310Y011182D01*
X002315Y011053D02*
X000625Y011053D01*
X000625Y010925D02*
X002355Y010925D01*
X002430Y010796D02*
X000625Y010796D01*
X000625Y010668D02*
X002545Y010668D01*
X002653Y010539D02*
X000625Y010539D01*
X000625Y010411D02*
X002760Y010411D01*
X002867Y010282D02*
X000625Y010282D01*
X000625Y010154D02*
X002974Y010154D01*
X003081Y010025D02*
X000625Y010025D01*
X000625Y009897D02*
X003131Y009897D01*
X003024Y009768D02*
X000625Y009768D01*
X000625Y009640D02*
X002917Y009640D01*
X002810Y009511D02*
X000625Y009511D01*
X000625Y009383D02*
X002703Y009383D01*
X002596Y009254D02*
X000625Y009254D01*
X000625Y009126D02*
X002489Y009126D01*
X002382Y008997D02*
X000625Y008997D01*
X000625Y008869D02*
X002324Y008869D01*
X002312Y008740D02*
X000625Y008740D01*
X000625Y008612D02*
X002324Y008612D01*
X002370Y008483D02*
X000625Y008483D01*
X000625Y008355D02*
X002474Y008355D01*
X002586Y008226D02*
X000625Y008226D01*
X000625Y008098D02*
X002697Y008098D01*
X002808Y007969D02*
X000625Y007969D01*
X000625Y007841D02*
X002920Y007841D01*
X003031Y007712D02*
X000625Y007712D01*
X000625Y007584D02*
X003143Y007584D01*
X003254Y007455D02*
X000625Y007455D01*
X000625Y007327D02*
X003365Y007327D01*
X003477Y007198D02*
X000625Y007198D01*
X000625Y007070D02*
X003588Y007070D01*
X003692Y006941D02*
X000625Y006941D01*
X000625Y006813D02*
X003814Y006813D01*
X001513Y000645D02*
X035500Y000645D01*
X036335Y003600D02*
X023965Y003600D01*
M02*
