G75*
%MOIN*%
%OFA0B0*%
%FSLAX24Y24*%
%IPPOS*%
%LPD*%
%AMOC8*
5,1,8,0,0,1.08239X$1,22.5*
%
%ADD10C,0.0570*%
%ADD11C,0.0270*%
%ADD12C,0.0280*%
%ADD13C,0.0130*%
%ADD14C,0.0160*%
D10*
X020630Y011931D03*
X021630Y011931D03*
X022630Y011931D03*
X023630Y011931D03*
X024630Y011931D03*
X025630Y011931D03*
X026630Y011931D03*
X027630Y011931D03*
X028630Y011931D03*
X029630Y011931D03*
X030630Y011931D03*
X031630Y011931D03*
X032630Y011931D03*
X033630Y011931D03*
X032630Y012931D03*
X030630Y012931D03*
X029630Y012931D03*
X028630Y012931D03*
X020630Y012931D03*
X020630Y013931D03*
X020630Y014931D03*
X020630Y015931D03*
X020630Y016931D03*
X020630Y017931D03*
X021630Y017931D03*
X022630Y017931D03*
X023630Y017931D03*
X024630Y017931D03*
X025630Y017931D03*
X026630Y017931D03*
X027630Y017931D03*
X028630Y017931D03*
X029630Y017931D03*
X030630Y017931D03*
X031630Y017931D03*
X032630Y017931D03*
X033630Y017931D03*
D11*
X014230Y012181D03*
X007480Y014131D03*
X005230Y007681D03*
X011980Y006031D03*
D12*
X023050Y008631D03*
X031230Y008731D03*
D13*
X000844Y000784D02*
X000723Y000905D01*
X000620Y001042D01*
X000538Y001192D01*
X000479Y001353D01*
X000442Y001520D01*
X000430Y001691D01*
X000430Y018491D01*
X000442Y018662D01*
X000479Y018829D01*
X000538Y018989D01*
X000620Y019140D01*
X000723Y019277D01*
X000844Y019398D01*
X000981Y019500D01*
X001132Y019582D01*
X001292Y019642D01*
X001459Y019679D01*
X001630Y019691D01*
X033513Y019886D01*
X034413Y019886D01*
X034595Y019875D01*
X034856Y019827D01*
X035110Y019748D01*
X035352Y019639D01*
X035580Y019501D01*
X035789Y019338D01*
X035977Y019150D01*
X036141Y018941D01*
X036278Y018713D01*
X036387Y018471D01*
X036466Y018217D01*
X036514Y017956D01*
X036530Y017691D01*
X036530Y001791D01*
X036518Y001608D01*
X036482Y001428D01*
X036423Y001255D01*
X036342Y001091D01*
X036241Y000939D01*
X036120Y000801D01*
X035982Y000680D01*
X035830Y000578D01*
X035666Y000497D01*
X035492Y000439D01*
X035313Y000403D01*
X035130Y000391D01*
X001630Y000491D01*
X001459Y000503D01*
X001292Y000539D01*
X001132Y000599D01*
X000981Y000681D01*
X000844Y000784D01*
X000858Y000773D02*
X036089Y000773D01*
X036208Y000902D02*
X000726Y000902D01*
X000629Y001030D02*
X036302Y001030D01*
X036376Y001159D02*
X000557Y001159D01*
X000503Y001287D02*
X036434Y001287D01*
X036478Y001416D02*
X000465Y001416D01*
X000440Y001544D02*
X036505Y001544D01*
X036522Y001673D02*
X000431Y001673D01*
X000430Y001801D02*
X036530Y001801D01*
X036530Y001930D02*
X000430Y001930D01*
X000430Y002058D02*
X036530Y002058D01*
X036530Y002187D02*
X000430Y002187D01*
X000430Y002315D02*
X036530Y002315D01*
X036530Y002444D02*
X000430Y002444D01*
X000430Y002572D02*
X036530Y002572D01*
X036530Y002701D02*
X000430Y002701D01*
X000430Y002829D02*
X036530Y002829D01*
X036530Y002958D02*
X000430Y002958D01*
X000430Y003086D02*
X036530Y003086D01*
X036530Y003215D02*
X000430Y003215D01*
X000430Y003343D02*
X036530Y003343D01*
X036530Y003472D02*
X000430Y003472D01*
X000430Y003600D02*
X036530Y003600D01*
X036530Y003729D02*
X000430Y003729D01*
X000430Y003857D02*
X036530Y003857D01*
X036530Y003986D02*
X000430Y003986D01*
X000430Y004114D02*
X036530Y004114D01*
X036530Y004243D02*
X000430Y004243D01*
X000430Y004371D02*
X036530Y004371D01*
X036530Y004500D02*
X000430Y004500D01*
X000430Y004628D02*
X036530Y004628D01*
X036530Y004757D02*
X000430Y004757D01*
X000430Y004885D02*
X036530Y004885D01*
X036530Y005014D02*
X000430Y005014D01*
X000430Y005142D02*
X036530Y005142D01*
X036530Y005271D02*
X000430Y005271D01*
X000430Y005399D02*
X036530Y005399D01*
X036530Y005528D02*
X000430Y005528D01*
X000430Y005656D02*
X036530Y005656D01*
X036530Y005785D02*
X012066Y005785D01*
X012032Y005771D02*
X012127Y005810D01*
X012143Y005826D01*
X017415Y005826D01*
X021415Y009826D01*
X023815Y009826D01*
X025521Y011532D01*
X025548Y011521D01*
X025712Y011521D01*
X025862Y011583D01*
X025978Y011699D01*
X026040Y011849D01*
X026040Y012012D01*
X025978Y012163D01*
X025862Y012278D01*
X025712Y012341D01*
X025548Y012341D01*
X025398Y012278D01*
X025282Y012163D01*
X025220Y012012D01*
X025220Y011849D01*
X025231Y011822D01*
X023645Y010236D01*
X023225Y010236D01*
X024521Y011532D01*
X024548Y011521D01*
X024712Y011521D01*
X024862Y011583D01*
X024978Y011699D01*
X025040Y011849D01*
X025040Y012012D01*
X024978Y012163D01*
X024862Y012278D01*
X024712Y012341D01*
X024548Y012341D01*
X024398Y012278D01*
X024282Y012163D01*
X024220Y012012D01*
X024220Y011849D01*
X024231Y011822D01*
X023045Y010636D01*
X022604Y010636D01*
X022620Y010652D01*
X023506Y011538D01*
X023548Y011521D01*
X023712Y011521D01*
X023862Y011583D01*
X023978Y011699D01*
X024040Y011849D01*
X024040Y012012D01*
X023978Y012163D01*
X023862Y012278D01*
X023712Y012341D01*
X023548Y012341D01*
X023398Y012278D01*
X023282Y012163D01*
X023220Y012012D01*
X023220Y011849D01*
X023238Y011807D01*
X022351Y010921D01*
X015759Y010921D01*
X014490Y012190D01*
X014490Y012233D01*
X014450Y012328D01*
X014377Y012401D01*
X014282Y012441D01*
X014178Y012441D01*
X014083Y012401D01*
X014010Y012328D01*
X013970Y012233D01*
X013970Y012129D01*
X014010Y012034D01*
X014083Y011960D01*
X014178Y011921D01*
X014221Y011921D01*
X015601Y010541D01*
X020650Y010541D01*
X020625Y010516D01*
X017045Y006936D01*
X013515Y006936D01*
X012565Y007886D01*
X005393Y007886D01*
X005377Y007901D01*
X005282Y007941D01*
X005178Y007941D01*
X005083Y007901D01*
X005010Y007828D01*
X004970Y007733D01*
X004970Y007629D01*
X005010Y007534D01*
X005083Y007460D01*
X005178Y007421D01*
X005282Y007421D01*
X005377Y007460D01*
X005393Y007476D01*
X012395Y007476D01*
X013225Y006646D01*
X013225Y006646D01*
X013345Y006526D01*
X017215Y006526D01*
X020915Y010226D01*
X021235Y010226D01*
X021125Y010116D01*
X017245Y006236D01*
X012143Y006236D01*
X012127Y006251D01*
X012032Y006291D01*
X011928Y006291D01*
X011833Y006251D01*
X011760Y006178D01*
X011720Y006083D01*
X011720Y005979D01*
X011760Y005884D01*
X011833Y005810D01*
X011928Y005771D01*
X012032Y005771D01*
X011894Y005785D02*
X000430Y005785D01*
X000430Y005913D02*
X011747Y005913D01*
X011720Y006042D02*
X000430Y006042D01*
X000430Y006170D02*
X011756Y006170D01*
X012801Y007070D02*
X000430Y007070D01*
X000430Y007198D02*
X012673Y007198D01*
X012544Y007327D02*
X000430Y007327D01*
X000430Y007455D02*
X005095Y007455D01*
X004989Y007584D02*
X000430Y007584D01*
X000430Y007712D02*
X004970Y007712D01*
X005022Y007841D02*
X000430Y007841D01*
X000430Y007969D02*
X018079Y007969D01*
X018207Y008098D02*
X000430Y008098D01*
X000430Y008226D02*
X018336Y008226D01*
X018464Y008355D02*
X000430Y008355D01*
X000430Y008483D02*
X018593Y008483D01*
X018721Y008612D02*
X000430Y008612D01*
X000430Y008740D02*
X018850Y008740D01*
X018978Y008869D02*
X000430Y008869D01*
X000430Y008997D02*
X019107Y008997D01*
X019235Y009126D02*
X000430Y009126D01*
X000430Y009254D02*
X019364Y009254D01*
X019492Y009383D02*
X000430Y009383D01*
X000430Y009511D02*
X019621Y009511D01*
X019749Y009640D02*
X000430Y009640D01*
X000430Y009768D02*
X019878Y009768D01*
X020006Y009897D02*
X000430Y009897D01*
X000430Y010025D02*
X020135Y010025D01*
X020263Y010154D02*
X000430Y010154D01*
X000430Y010282D02*
X020392Y010282D01*
X020520Y010411D02*
X000430Y010411D01*
X000430Y010539D02*
X020649Y010539D01*
X020843Y010154D02*
X021163Y010154D01*
X021035Y010025D02*
X020714Y010025D01*
X020586Y009897D02*
X020906Y009897D01*
X020778Y009768D02*
X020457Y009768D01*
X020329Y009640D02*
X020649Y009640D01*
X020521Y009511D02*
X020200Y009511D01*
X020072Y009383D02*
X020392Y009383D01*
X020264Y009254D02*
X019943Y009254D01*
X019815Y009126D02*
X020135Y009126D01*
X020007Y008997D02*
X019686Y008997D01*
X019558Y008869D02*
X019878Y008869D01*
X019750Y008740D02*
X019429Y008740D01*
X019301Y008612D02*
X019621Y008612D01*
X019493Y008483D02*
X019172Y008483D01*
X019044Y008355D02*
X019364Y008355D01*
X019236Y008226D02*
X018915Y008226D01*
X018787Y008098D02*
X019107Y008098D01*
X018979Y007969D02*
X018658Y007969D01*
X018530Y007841D02*
X018850Y007841D01*
X018722Y007712D02*
X018401Y007712D01*
X018273Y007584D02*
X018593Y007584D01*
X018465Y007455D02*
X018144Y007455D01*
X018016Y007327D02*
X018336Y007327D01*
X018208Y007198D02*
X017887Y007198D01*
X017759Y007070D02*
X018079Y007070D01*
X017951Y006941D02*
X017630Y006941D01*
X017502Y006813D02*
X017822Y006813D01*
X017694Y006684D02*
X017373Y006684D01*
X017245Y006556D02*
X017565Y006556D01*
X017437Y006427D02*
X000430Y006427D01*
X000430Y006299D02*
X017308Y006299D01*
X017631Y006042D02*
X036530Y006042D01*
X036530Y006170D02*
X017759Y006170D01*
X017888Y006299D02*
X036530Y006299D01*
X036530Y006427D02*
X018016Y006427D01*
X018145Y006556D02*
X036530Y006556D01*
X036530Y006684D02*
X018273Y006684D01*
X018402Y006813D02*
X036530Y006813D01*
X036530Y006941D02*
X018530Y006941D01*
X018659Y007070D02*
X036530Y007070D01*
X036530Y007198D02*
X018787Y007198D01*
X018916Y007327D02*
X036530Y007327D01*
X036530Y007455D02*
X019044Y007455D01*
X019173Y007584D02*
X036530Y007584D01*
X036530Y007712D02*
X019301Y007712D01*
X019430Y007841D02*
X036530Y007841D01*
X036530Y007969D02*
X019558Y007969D01*
X019687Y008098D02*
X036530Y008098D01*
X036530Y008226D02*
X019815Y008226D01*
X019944Y008355D02*
X036530Y008355D01*
X036530Y008483D02*
X031325Y008483D01*
X031283Y008466D02*
X031380Y008506D01*
X031455Y008581D01*
X031495Y008678D01*
X031495Y008784D01*
X031455Y008881D01*
X031380Y008955D01*
X031283Y008996D01*
X031234Y008996D01*
X029820Y010410D01*
X029820Y011566D01*
X029862Y011583D01*
X029978Y011699D01*
X030040Y011849D01*
X030040Y012012D01*
X029978Y012163D01*
X029862Y012278D01*
X029712Y012341D01*
X029548Y012341D01*
X029398Y012278D01*
X029282Y012163D01*
X029220Y012012D01*
X029220Y011849D01*
X029282Y011699D01*
X029398Y011583D01*
X029440Y011566D01*
X029440Y010252D01*
X030965Y008727D01*
X030965Y008678D01*
X031005Y008581D01*
X031080Y008506D01*
X031177Y008466D01*
X031283Y008466D01*
X031135Y008483D02*
X024051Y008483D01*
X024009Y008441D02*
X024120Y008552D01*
X024691Y009123D01*
X024693Y009123D01*
X024746Y009178D01*
X024800Y009232D01*
X024800Y009235D01*
X026766Y011298D01*
X026820Y011352D01*
X026820Y011355D01*
X026822Y011357D01*
X026820Y011433D01*
X026820Y011566D01*
X026862Y011583D01*
X026978Y011699D01*
X027040Y011849D01*
X027040Y012012D01*
X026978Y012163D01*
X026862Y012278D01*
X026712Y012341D01*
X026548Y012341D01*
X026398Y012278D01*
X026282Y012163D01*
X026220Y012012D01*
X026220Y011849D01*
X026282Y011699D01*
X026398Y011583D01*
X026440Y011566D01*
X026440Y011507D01*
X024474Y009444D01*
X023851Y008821D01*
X023235Y008821D01*
X023200Y008855D01*
X023103Y008896D01*
X022997Y008896D01*
X022900Y008855D01*
X022825Y008781D01*
X022785Y008684D01*
X022785Y008578D01*
X022825Y008481D01*
X022900Y008406D01*
X022997Y008366D01*
X023103Y008366D01*
X023200Y008406D01*
X023235Y008441D01*
X024009Y008441D01*
X023930Y008631D02*
X023050Y008631D01*
X022809Y008740D02*
X020329Y008740D01*
X020201Y008612D02*
X022785Y008612D01*
X022824Y008483D02*
X020072Y008483D01*
X020458Y008869D02*
X022932Y008869D01*
X023168Y008869D02*
X023899Y008869D01*
X024028Y008997D02*
X020586Y008997D01*
X020715Y009126D02*
X024156Y009126D01*
X024285Y009254D02*
X020843Y009254D01*
X020972Y009383D02*
X024413Y009383D01*
X024539Y009511D02*
X021100Y009511D01*
X021229Y009640D02*
X024661Y009640D01*
X024783Y009768D02*
X021357Y009768D01*
X022430Y010731D02*
X015680Y010731D01*
X014230Y012181D01*
X013990Y012081D02*
X000430Y012081D01*
X000430Y011953D02*
X014101Y011953D01*
X014318Y011824D02*
X000430Y011824D01*
X000430Y011696D02*
X014446Y011696D01*
X014575Y011567D02*
X000430Y011567D01*
X000430Y011439D02*
X014703Y011439D01*
X014832Y011310D02*
X000430Y011310D01*
X000430Y011182D02*
X014960Y011182D01*
X015089Y011053D02*
X000430Y011053D01*
X000430Y010925D02*
X015217Y010925D01*
X015346Y010796D02*
X000430Y010796D01*
X000430Y010668D02*
X015474Y010668D01*
X015755Y010925D02*
X022355Y010925D01*
X022484Y011053D02*
X022021Y011053D01*
X022020Y011052D02*
X022506Y011538D01*
X022548Y011521D01*
X022712Y011521D01*
X022862Y011583D01*
X022978Y011699D01*
X023040Y011849D01*
X023040Y012012D01*
X022978Y012163D01*
X022862Y012278D01*
X022712Y012341D01*
X022548Y012341D01*
X022398Y012278D01*
X022282Y012163D01*
X022220Y012012D01*
X022220Y011849D01*
X022238Y011807D01*
X021751Y011321D01*
X019909Y011321D01*
X018220Y013010D01*
X018109Y013121D01*
X008759Y013121D01*
X007740Y014140D01*
X007740Y014183D01*
X007700Y014278D01*
X007627Y014351D01*
X007532Y014391D01*
X007428Y014391D01*
X007333Y014351D01*
X007260Y014278D01*
X007220Y014183D01*
X007220Y014079D01*
X007260Y013984D01*
X007333Y013910D01*
X007428Y013871D01*
X007471Y013871D01*
X008601Y012741D01*
X017951Y012741D01*
X019751Y010941D01*
X021909Y010941D01*
X022020Y011052D01*
X022150Y011182D02*
X022612Y011182D01*
X022741Y011310D02*
X022278Y011310D01*
X022407Y011439D02*
X022869Y011439D01*
X022824Y011567D02*
X022998Y011567D01*
X022975Y011696D02*
X023126Y011696D01*
X023030Y011824D02*
X023230Y011824D01*
X023220Y011953D02*
X023040Y011953D01*
X023011Y012081D02*
X023249Y012081D01*
X023329Y012210D02*
X022931Y012210D01*
X022718Y012338D02*
X023542Y012338D01*
X023718Y012338D02*
X024542Y012338D01*
X024718Y012338D02*
X025542Y012338D01*
X025718Y012338D02*
X026542Y012338D01*
X026718Y012338D02*
X027542Y012338D01*
X027548Y012341D02*
X027398Y012278D01*
X027282Y012163D01*
X027220Y012012D01*
X027220Y011849D01*
X027282Y011699D01*
X027398Y011583D01*
X027548Y011521D01*
X027712Y011521D01*
X027862Y011583D01*
X027978Y011699D01*
X028040Y011849D01*
X028040Y012012D01*
X027978Y012163D01*
X027862Y012278D01*
X027712Y012341D01*
X027548Y012341D01*
X027718Y012338D02*
X028542Y012338D01*
X028548Y012341D02*
X028398Y012278D01*
X028282Y012163D01*
X028220Y012012D01*
X028220Y011849D01*
X028282Y011699D01*
X028398Y011583D01*
X028548Y011521D01*
X028712Y011521D01*
X028862Y011583D01*
X028978Y011699D01*
X029040Y011849D01*
X029040Y012012D01*
X028978Y012163D01*
X028862Y012278D01*
X028712Y012341D01*
X028548Y012341D01*
X028718Y012338D02*
X029542Y012338D01*
X029718Y012338D02*
X030542Y012338D01*
X030548Y012341D02*
X030398Y012278D01*
X030282Y012163D01*
X030220Y012012D01*
X030220Y011849D01*
X030282Y011699D01*
X030398Y011583D01*
X030548Y011521D01*
X030712Y011521D01*
X030862Y011583D01*
X030978Y011699D01*
X031040Y011849D01*
X031040Y012012D01*
X030978Y012163D01*
X030862Y012278D01*
X030712Y012341D01*
X030548Y012341D01*
X030718Y012338D02*
X031542Y012338D01*
X031548Y012341D02*
X031398Y012278D01*
X031282Y012163D01*
X031220Y012012D01*
X031220Y011849D01*
X031282Y011699D01*
X031398Y011583D01*
X031548Y011521D01*
X031712Y011521D01*
X031862Y011583D01*
X031978Y011699D01*
X032040Y011849D01*
X032040Y012012D01*
X031978Y012163D01*
X031862Y012278D01*
X031712Y012341D01*
X031548Y012341D01*
X031718Y012338D02*
X032439Y012338D01*
X032457Y012348D02*
X032394Y012316D01*
X032337Y012274D01*
X032287Y012224D01*
X032245Y012167D01*
X032213Y012104D01*
X032191Y012036D01*
X032180Y011966D01*
X032180Y011961D01*
X032600Y011961D01*
X032600Y012381D01*
X032595Y012381D01*
X032525Y012370D01*
X032457Y012348D01*
X032600Y012338D02*
X032660Y012338D01*
X032660Y012381D02*
X032660Y011961D01*
X032600Y011961D01*
X032600Y011901D01*
X032180Y011901D01*
X032180Y011895D01*
X032191Y011825D01*
X032213Y011758D01*
X032245Y011695D01*
X032287Y011638D01*
X032337Y011588D01*
X032394Y011546D01*
X032457Y011514D01*
X032525Y011492D01*
X032595Y011481D01*
X032600Y011481D01*
X032600Y011901D01*
X032660Y011901D01*
X032660Y011961D01*
X033080Y011961D01*
X033080Y011966D01*
X033069Y012036D01*
X033047Y012104D01*
X033015Y012167D01*
X032973Y012224D01*
X032923Y012274D01*
X032866Y012316D01*
X032803Y012348D01*
X032735Y012370D01*
X032665Y012381D01*
X032660Y012381D01*
X032712Y012521D02*
X032862Y012583D01*
X032978Y012699D01*
X033040Y012849D01*
X033040Y013012D01*
X032978Y013163D01*
X032862Y013278D01*
X032712Y013341D01*
X032548Y013341D01*
X032398Y013278D01*
X032282Y013163D01*
X032220Y013012D01*
X032220Y012849D01*
X032282Y012699D01*
X032398Y012583D01*
X032548Y012521D01*
X032712Y012521D01*
X032874Y012595D02*
X036530Y012595D01*
X036530Y012467D02*
X018763Y012467D01*
X018891Y012338D02*
X020542Y012338D01*
X020548Y012341D02*
X020398Y012278D01*
X020282Y012163D01*
X020220Y012012D01*
X020220Y011849D01*
X020282Y011699D01*
X020398Y011583D01*
X020548Y011521D01*
X020712Y011521D01*
X020862Y011583D01*
X020978Y011699D01*
X021040Y011849D01*
X021040Y012012D01*
X020978Y012163D01*
X020862Y012278D01*
X020712Y012341D01*
X020548Y012341D01*
X020718Y012338D02*
X021542Y012338D01*
X021548Y012341D02*
X021398Y012278D01*
X021282Y012163D01*
X021220Y012012D01*
X021220Y011849D01*
X021282Y011699D01*
X021398Y011583D01*
X021548Y011521D01*
X021712Y011521D01*
X021862Y011583D01*
X021978Y011699D01*
X022040Y011849D01*
X022040Y012012D01*
X021978Y012163D01*
X021862Y012278D01*
X021712Y012341D01*
X021548Y012341D01*
X021718Y012338D02*
X022542Y012338D01*
X022329Y012210D02*
X021931Y012210D01*
X022011Y012081D02*
X022249Y012081D01*
X022220Y011953D02*
X022040Y011953D01*
X022030Y011824D02*
X022230Y011824D01*
X022126Y011696D02*
X021975Y011696D01*
X021998Y011567D02*
X021824Y011567D01*
X021869Y011439D02*
X019791Y011439D01*
X019662Y011567D02*
X020436Y011567D01*
X020285Y011696D02*
X019534Y011696D01*
X019405Y011824D02*
X020230Y011824D01*
X020220Y011953D02*
X019277Y011953D01*
X019148Y012081D02*
X020249Y012081D01*
X020329Y012210D02*
X019020Y012210D01*
X018611Y012081D02*
X014598Y012081D01*
X014490Y012210D02*
X018482Y012210D01*
X018354Y012338D02*
X014440Y012338D01*
X014020Y012338D02*
X000430Y012338D01*
X000430Y012210D02*
X013970Y012210D01*
X014727Y011953D02*
X018739Y011953D01*
X018868Y011824D02*
X014855Y011824D01*
X014984Y011696D02*
X018996Y011696D01*
X019125Y011567D02*
X015112Y011567D01*
X015241Y011439D02*
X019253Y011439D01*
X019382Y011310D02*
X015369Y011310D01*
X015498Y011182D02*
X019510Y011182D01*
X019639Y011053D02*
X015626Y011053D01*
X018225Y012467D02*
X000430Y012467D01*
X000430Y012595D02*
X018097Y012595D01*
X017968Y012724D02*
X000430Y012724D01*
X000430Y012852D02*
X008490Y012852D01*
X008361Y012981D02*
X000430Y012981D01*
X000430Y013109D02*
X008233Y013109D01*
X008104Y013238D02*
X000430Y013238D01*
X000430Y013366D02*
X007976Y013366D01*
X007847Y013495D02*
X000430Y013495D01*
X000430Y013623D02*
X007719Y013623D01*
X007590Y013752D02*
X000430Y013752D01*
X000430Y013880D02*
X007405Y013880D01*
X007249Y014009D02*
X000430Y014009D01*
X000430Y014137D02*
X007220Y014137D01*
X007255Y014266D02*
X000430Y014266D01*
X000430Y014394D02*
X036530Y014394D01*
X036530Y014266D02*
X020875Y014266D01*
X020862Y014278D02*
X020712Y014341D01*
X020548Y014341D01*
X020398Y014278D01*
X020282Y014163D01*
X020220Y014012D01*
X020220Y013849D01*
X020282Y013699D01*
X020398Y013583D01*
X020548Y013521D01*
X020712Y013521D01*
X020862Y013583D01*
X020978Y013699D01*
X021040Y013849D01*
X021040Y014012D01*
X020978Y014163D01*
X020862Y014278D01*
X020988Y014137D02*
X036530Y014137D01*
X036530Y014009D02*
X021040Y014009D01*
X021040Y013880D02*
X036530Y013880D01*
X036530Y013752D02*
X021000Y013752D01*
X020902Y013623D02*
X036530Y013623D01*
X036530Y013495D02*
X008385Y013495D01*
X008513Y013366D02*
X036530Y013366D01*
X036530Y013238D02*
X032903Y013238D01*
X033000Y013109D02*
X036530Y013109D01*
X036530Y012981D02*
X033040Y012981D01*
X033040Y012852D02*
X036530Y012852D01*
X036530Y012724D02*
X032988Y012724D01*
X032821Y012338D02*
X033542Y012338D01*
X033548Y012341D02*
X033398Y012278D01*
X033282Y012163D01*
X033220Y012012D01*
X033220Y011849D01*
X033282Y011699D01*
X033398Y011583D01*
X033548Y011521D01*
X033712Y011521D01*
X033862Y011583D01*
X033978Y011699D01*
X034040Y011849D01*
X034040Y012012D01*
X033978Y012163D01*
X033862Y012278D01*
X033712Y012341D01*
X033548Y012341D01*
X033718Y012338D02*
X036530Y012338D01*
X036530Y012210D02*
X033931Y012210D01*
X034011Y012081D02*
X036530Y012081D01*
X036530Y011953D02*
X034040Y011953D01*
X034030Y011824D02*
X036530Y011824D01*
X036530Y011696D02*
X033975Y011696D01*
X033824Y011567D02*
X036530Y011567D01*
X036530Y011439D02*
X029820Y011439D01*
X029824Y011567D02*
X030436Y011567D01*
X030285Y011696D02*
X029975Y011696D01*
X030030Y011824D02*
X030230Y011824D01*
X030220Y011953D02*
X030040Y011953D01*
X030011Y012081D02*
X030249Y012081D01*
X030329Y012210D02*
X029931Y012210D01*
X029862Y012583D02*
X029712Y012521D01*
X029548Y012521D01*
X029398Y012583D01*
X029282Y012699D01*
X029220Y012849D01*
X029220Y013012D01*
X029282Y013163D01*
X029398Y013278D01*
X029548Y013341D01*
X029712Y013341D01*
X029862Y013278D01*
X029978Y013163D01*
X030040Y013012D01*
X030040Y012849D01*
X029978Y012699D01*
X029862Y012583D01*
X029874Y012595D02*
X030386Y012595D01*
X030398Y012583D02*
X030548Y012521D01*
X030712Y012521D01*
X030862Y012583D01*
X030978Y012699D01*
X031040Y012849D01*
X031040Y013012D01*
X030978Y013163D01*
X030862Y013278D01*
X030712Y013341D01*
X030548Y013341D01*
X030398Y013278D01*
X030282Y013163D01*
X030220Y013012D01*
X030220Y012849D01*
X030282Y012699D01*
X030398Y012583D01*
X030272Y012724D02*
X029988Y012724D01*
X030040Y012852D02*
X030220Y012852D01*
X030220Y012981D02*
X030040Y012981D01*
X030000Y013109D02*
X030260Y013109D01*
X030357Y013238D02*
X029903Y013238D01*
X029357Y013238D02*
X028903Y013238D01*
X028862Y013278D02*
X028712Y013341D01*
X028548Y013341D01*
X028398Y013278D01*
X028282Y013163D01*
X028220Y013012D01*
X028220Y012849D01*
X028282Y012699D01*
X028398Y012583D01*
X028548Y012521D01*
X028712Y012521D01*
X028862Y012583D01*
X028978Y012699D01*
X029040Y012849D01*
X029040Y013012D01*
X028978Y013163D01*
X028862Y013278D01*
X029000Y013109D02*
X029260Y013109D01*
X029220Y012981D02*
X029040Y012981D01*
X029040Y012852D02*
X029220Y012852D01*
X029272Y012724D02*
X028988Y012724D01*
X028874Y012595D02*
X029386Y012595D01*
X029329Y012210D02*
X028931Y012210D01*
X029011Y012081D02*
X029249Y012081D01*
X029220Y011953D02*
X029040Y011953D01*
X029030Y011824D02*
X029230Y011824D01*
X029285Y011696D02*
X028975Y011696D01*
X028824Y011567D02*
X029436Y011567D01*
X029440Y011439D02*
X026820Y011439D01*
X026824Y011567D02*
X027436Y011567D01*
X027285Y011696D02*
X026975Y011696D01*
X027030Y011824D02*
X027230Y011824D01*
X027220Y011953D02*
X027040Y011953D01*
X027011Y012081D02*
X027249Y012081D01*
X027329Y012210D02*
X026931Y012210D01*
X026329Y012210D02*
X025931Y012210D01*
X026011Y012081D02*
X026249Y012081D01*
X026220Y011953D02*
X026040Y011953D01*
X026030Y011824D02*
X026230Y011824D01*
X026285Y011696D02*
X025975Y011696D01*
X025824Y011567D02*
X026436Y011567D01*
X026375Y011439D02*
X025428Y011439D01*
X025299Y011310D02*
X026253Y011310D01*
X026130Y011182D02*
X025171Y011182D01*
X025042Y011053D02*
X026008Y011053D01*
X025885Y010925D02*
X024914Y010925D01*
X024785Y010796D02*
X025763Y010796D01*
X025641Y010668D02*
X024657Y010668D01*
X024528Y010539D02*
X025518Y010539D01*
X025396Y010411D02*
X024400Y010411D01*
X024271Y010282D02*
X025273Y010282D01*
X025151Y010154D02*
X024143Y010154D01*
X024014Y010025D02*
X025028Y010025D01*
X024906Y009897D02*
X023886Y009897D01*
X023692Y010282D02*
X023271Y010282D01*
X023400Y010411D02*
X023820Y010411D01*
X023949Y010539D02*
X023528Y010539D01*
X023657Y010668D02*
X024077Y010668D01*
X024206Y010796D02*
X023785Y010796D01*
X023914Y010925D02*
X024334Y010925D01*
X024463Y011053D02*
X024042Y011053D01*
X024171Y011182D02*
X024591Y011182D01*
X024720Y011310D02*
X024299Y011310D01*
X024428Y011439D02*
X024848Y011439D01*
X024824Y011567D02*
X024977Y011567D01*
X024975Y011696D02*
X025105Y011696D01*
X025030Y011824D02*
X025230Y011824D01*
X025220Y011953D02*
X025040Y011953D01*
X025011Y012081D02*
X025249Y012081D01*
X025329Y012210D02*
X024931Y012210D01*
X024329Y012210D02*
X023931Y012210D01*
X024011Y012081D02*
X024249Y012081D01*
X024220Y011953D02*
X024040Y011953D01*
X024030Y011824D02*
X024230Y011824D01*
X024105Y011696D02*
X023975Y011696D01*
X023977Y011567D02*
X023824Y011567D01*
X023848Y011439D02*
X023407Y011439D01*
X023278Y011310D02*
X023720Y011310D01*
X023591Y011182D02*
X023150Y011182D01*
X023021Y011053D02*
X023463Y011053D01*
X023334Y010925D02*
X022893Y010925D01*
X022764Y010796D02*
X023206Y010796D01*
X023077Y010668D02*
X022636Y010668D01*
X022430Y010731D02*
X023630Y011931D01*
X022630Y011931D02*
X021830Y011131D01*
X019830Y011131D01*
X018030Y012931D01*
X008680Y012931D01*
X007480Y014131D01*
X007742Y014137D02*
X020272Y014137D01*
X020220Y014009D02*
X007871Y014009D01*
X007999Y013880D02*
X020220Y013880D01*
X020260Y013752D02*
X008128Y013752D01*
X008256Y013623D02*
X020358Y013623D01*
X020548Y013341D02*
X020398Y013278D01*
X020282Y013163D01*
X020220Y013012D01*
X020220Y012849D01*
X020282Y012699D01*
X020398Y012583D01*
X020548Y012521D01*
X020712Y012521D01*
X020862Y012583D01*
X020978Y012699D01*
X021040Y012849D01*
X021040Y013012D01*
X020978Y013163D01*
X020862Y013278D01*
X020712Y013341D01*
X020548Y013341D01*
X020357Y013238D02*
X008642Y013238D01*
X007705Y014266D02*
X020385Y014266D01*
X020457Y014514D02*
X020525Y014492D01*
X020595Y014481D01*
X020600Y014481D01*
X020600Y014901D01*
X020180Y014901D01*
X020180Y014895D01*
X020191Y014825D01*
X020213Y014758D01*
X020245Y014695D01*
X020287Y014638D01*
X020337Y014588D01*
X020394Y014546D01*
X020457Y014514D01*
X020439Y014523D02*
X000430Y014523D01*
X000430Y014651D02*
X020277Y014651D01*
X020206Y014780D02*
X000430Y014780D01*
X000430Y014908D02*
X020600Y014908D01*
X020600Y014901D02*
X020600Y014961D01*
X020600Y015381D01*
X020595Y015381D01*
X020525Y015370D01*
X020457Y015348D01*
X020394Y015316D01*
X020337Y015274D01*
X020287Y015224D01*
X020245Y015167D01*
X020213Y015104D01*
X020191Y015036D01*
X020180Y014966D01*
X020180Y014961D01*
X020600Y014961D01*
X020660Y014961D01*
X020660Y015381D01*
X020665Y015381D01*
X020735Y015370D01*
X020803Y015348D01*
X020866Y015316D01*
X020923Y015274D01*
X020973Y015224D01*
X021015Y015167D01*
X021047Y015104D01*
X021069Y015036D01*
X021080Y014966D01*
X021080Y014961D01*
X020660Y014961D01*
X020660Y014901D01*
X021080Y014901D01*
X021080Y014895D01*
X021069Y014825D01*
X021047Y014758D01*
X021015Y014695D01*
X020973Y014638D01*
X020923Y014588D01*
X020866Y014546D01*
X020803Y014514D01*
X020735Y014492D01*
X020665Y014481D01*
X020660Y014481D01*
X020660Y014901D01*
X020600Y014901D01*
X020630Y014931D02*
X029630Y014931D01*
X030830Y013731D01*
X033630Y016531D01*
X033630Y017931D01*
X033660Y017961D02*
X033600Y017961D01*
X033600Y018381D01*
X033595Y018381D01*
X033525Y018370D01*
X033457Y018348D01*
X033394Y018316D01*
X033337Y018274D01*
X033287Y018224D01*
X033245Y018167D01*
X033213Y018104D01*
X033191Y018036D01*
X033180Y017966D01*
X033180Y017961D01*
X033600Y017961D01*
X033600Y017901D01*
X033180Y017901D01*
X033180Y017895D01*
X033191Y017825D01*
X033213Y017758D01*
X033245Y017695D01*
X033287Y017638D01*
X033337Y017588D01*
X033394Y017546D01*
X033457Y017514D01*
X033525Y017492D01*
X033595Y017481D01*
X033600Y017481D01*
X033600Y017901D01*
X033660Y017901D01*
X033660Y017961D01*
X033660Y018381D01*
X033665Y018381D01*
X033735Y018370D01*
X033803Y018348D01*
X033866Y018316D01*
X033923Y018274D01*
X033973Y018224D01*
X034015Y018167D01*
X034047Y018104D01*
X034069Y018036D01*
X034080Y017966D01*
X034080Y017961D01*
X033660Y017961D01*
X033660Y017992D02*
X033600Y017992D01*
X033660Y017901D02*
X034080Y017901D01*
X034080Y017895D01*
X034069Y017825D01*
X034047Y017758D01*
X034015Y017695D01*
X033973Y017638D01*
X033923Y017588D01*
X033866Y017546D01*
X033803Y017514D01*
X033735Y017492D01*
X033665Y017481D01*
X033660Y017481D01*
X033660Y017901D01*
X033660Y017864D02*
X033600Y017864D01*
X033600Y017735D02*
X033660Y017735D01*
X033660Y017607D02*
X033600Y017607D01*
X033318Y017607D02*
X032886Y017607D01*
X032862Y017583D02*
X032978Y017699D01*
X033040Y017849D01*
X033040Y018012D01*
X032978Y018163D01*
X032862Y018278D01*
X032712Y018341D01*
X032548Y018341D01*
X032398Y018278D01*
X032282Y018163D01*
X032220Y018012D01*
X032220Y017849D01*
X032282Y017699D01*
X032398Y017583D01*
X032548Y017521D01*
X032712Y017521D01*
X032862Y017583D01*
X032993Y017735D02*
X033225Y017735D01*
X033185Y017864D02*
X033040Y017864D01*
X033040Y017992D02*
X033184Y017992D01*
X033222Y018121D02*
X032995Y018121D01*
X032891Y018249D02*
X033312Y018249D01*
X033600Y018249D02*
X033660Y018249D01*
X033660Y018121D02*
X033600Y018121D01*
X033600Y018378D02*
X033660Y018378D01*
X033684Y018378D02*
X036416Y018378D01*
X036456Y018249D02*
X033948Y018249D01*
X034038Y018121D02*
X036484Y018121D01*
X036507Y017992D02*
X034076Y017992D01*
X034075Y017864D02*
X036520Y017864D01*
X036527Y017735D02*
X034035Y017735D01*
X033942Y017607D02*
X036530Y017607D01*
X036530Y017478D02*
X000430Y017478D01*
X000430Y017350D02*
X036530Y017350D01*
X036530Y017221D02*
X020919Y017221D01*
X020862Y017278D02*
X020978Y017163D01*
X021040Y017012D01*
X021040Y016849D01*
X020978Y016699D01*
X020862Y016583D01*
X020712Y016521D01*
X020548Y016521D01*
X020398Y016583D01*
X020282Y016699D01*
X020220Y016849D01*
X020220Y017012D01*
X020282Y017163D01*
X020398Y017278D01*
X020548Y017341D01*
X020712Y017341D01*
X020862Y017278D01*
X021007Y017093D02*
X036530Y017093D01*
X036530Y016964D02*
X021040Y016964D01*
X021034Y016836D02*
X036530Y016836D01*
X036530Y016707D02*
X020981Y016707D01*
X020852Y016579D02*
X036530Y016579D01*
X036530Y016450D02*
X000430Y016450D01*
X000430Y016322D02*
X020503Y016322D01*
X020548Y016341D02*
X020398Y016278D01*
X020282Y016163D01*
X020220Y016012D01*
X020220Y015849D01*
X020282Y015699D01*
X020398Y015583D01*
X020548Y015521D01*
X020712Y015521D01*
X020862Y015583D01*
X020978Y015699D01*
X021040Y015849D01*
X021040Y016012D01*
X020978Y016163D01*
X020862Y016278D01*
X020712Y016341D01*
X020548Y016341D01*
X020757Y016322D02*
X036530Y016322D01*
X036530Y016193D02*
X020947Y016193D01*
X021018Y016065D02*
X036530Y016065D01*
X036530Y015936D02*
X021040Y015936D01*
X021023Y015808D02*
X036530Y015808D01*
X036530Y015679D02*
X020958Y015679D01*
X020784Y015551D02*
X036530Y015551D01*
X036530Y015422D02*
X000430Y015422D01*
X000430Y015294D02*
X020364Y015294D01*
X020244Y015165D02*
X000430Y015165D01*
X000430Y015037D02*
X020191Y015037D01*
X020600Y015037D02*
X020660Y015037D01*
X020660Y015165D02*
X020600Y015165D01*
X020600Y015294D02*
X020660Y015294D01*
X020896Y015294D02*
X036530Y015294D01*
X036530Y015165D02*
X021016Y015165D01*
X021069Y015037D02*
X036530Y015037D01*
X036530Y014908D02*
X020660Y014908D01*
X020660Y014780D02*
X020600Y014780D01*
X020600Y014651D02*
X020660Y014651D01*
X020660Y014523D02*
X020600Y014523D01*
X020821Y014523D02*
X036530Y014523D01*
X036530Y014651D02*
X020983Y014651D01*
X021054Y014780D02*
X036530Y014780D01*
X032357Y013238D02*
X030903Y013238D01*
X031000Y013109D02*
X032260Y013109D01*
X032220Y012981D02*
X031040Y012981D01*
X031040Y012852D02*
X032220Y012852D01*
X032272Y012724D02*
X030988Y012724D01*
X030874Y012595D02*
X032386Y012595D01*
X032276Y012210D02*
X031931Y012210D01*
X032011Y012081D02*
X032206Y012081D01*
X032040Y011953D02*
X032600Y011953D01*
X032630Y011931D02*
X030830Y013731D01*
X030931Y012210D02*
X031329Y012210D01*
X031249Y012081D02*
X031011Y012081D01*
X031040Y011953D02*
X031220Y011953D01*
X031230Y011824D02*
X031030Y011824D01*
X030975Y011696D02*
X031285Y011696D01*
X031436Y011567D02*
X030824Y011567D01*
X031824Y011567D02*
X032365Y011567D01*
X032245Y011696D02*
X031975Y011696D01*
X032030Y011824D02*
X032191Y011824D01*
X032600Y011824D02*
X032660Y011824D01*
X032660Y011901D02*
X032660Y011481D01*
X032665Y011481D01*
X032735Y011492D01*
X032803Y011514D01*
X032866Y011546D01*
X032923Y011588D01*
X032973Y011638D01*
X033015Y011695D01*
X033047Y011758D01*
X033069Y011825D01*
X033080Y011895D01*
X033080Y011901D01*
X032660Y011901D01*
X032660Y011953D02*
X033220Y011953D01*
X033230Y011824D02*
X033069Y011824D01*
X033015Y011696D02*
X033285Y011696D01*
X033436Y011567D02*
X032895Y011567D01*
X032660Y011567D02*
X032600Y011567D01*
X032600Y011696D02*
X032660Y011696D01*
X032660Y012081D02*
X032600Y012081D01*
X032600Y012210D02*
X032660Y012210D01*
X032984Y012210D02*
X033329Y012210D01*
X033249Y012081D02*
X033054Y012081D01*
X029820Y011310D02*
X036530Y011310D01*
X036530Y011182D02*
X029820Y011182D01*
X029820Y011053D02*
X036530Y011053D01*
X036530Y010925D02*
X029820Y010925D01*
X029820Y010796D02*
X036530Y010796D01*
X036530Y010668D02*
X029820Y010668D01*
X029820Y010539D02*
X036530Y010539D01*
X036530Y010411D02*
X029820Y010411D01*
X029947Y010282D02*
X036530Y010282D01*
X036530Y010154D02*
X030076Y010154D01*
X030204Y010025D02*
X036530Y010025D01*
X036530Y009897D02*
X030333Y009897D01*
X030461Y009768D02*
X036530Y009768D01*
X036530Y009640D02*
X030590Y009640D01*
X030718Y009511D02*
X036530Y009511D01*
X036530Y009383D02*
X030847Y009383D01*
X030975Y009254D02*
X036530Y009254D01*
X036530Y009126D02*
X031104Y009126D01*
X031232Y008997D02*
X036530Y008997D01*
X036530Y008869D02*
X031460Y008869D01*
X031495Y008740D02*
X036530Y008740D01*
X036530Y008612D02*
X031468Y008612D01*
X031230Y008731D02*
X029630Y010331D01*
X029630Y011931D01*
X029440Y011310D02*
X026778Y011310D01*
X026655Y011182D02*
X029440Y011182D01*
X029440Y011053D02*
X026533Y011053D01*
X026410Y010925D02*
X029440Y010925D01*
X029440Y010796D02*
X026288Y010796D01*
X026165Y010668D02*
X029440Y010668D01*
X029440Y010539D02*
X026043Y010539D01*
X025921Y010411D02*
X029440Y010411D01*
X029440Y010282D02*
X025798Y010282D01*
X025676Y010154D02*
X029538Y010154D01*
X029667Y010025D02*
X025553Y010025D01*
X025431Y009897D02*
X029795Y009897D01*
X029924Y009768D02*
X025308Y009768D01*
X025186Y009640D02*
X030052Y009640D01*
X030181Y009511D02*
X025063Y009511D01*
X024941Y009383D02*
X030309Y009383D01*
X030438Y009254D02*
X024819Y009254D01*
X024696Y009126D02*
X030566Y009126D01*
X030695Y008997D02*
X024565Y008997D01*
X024437Y008869D02*
X030823Y008869D01*
X030952Y008740D02*
X024308Y008740D01*
X024180Y008612D02*
X030992Y008612D01*
X026630Y011431D02*
X024610Y009311D01*
X023930Y008631D01*
X026630Y011431D02*
X026630Y011931D01*
X027824Y011567D02*
X028436Y011567D01*
X028285Y011696D02*
X027975Y011696D01*
X028030Y011824D02*
X028230Y011824D01*
X028220Y011953D02*
X028040Y011953D01*
X028011Y012081D02*
X028249Y012081D01*
X028329Y012210D02*
X027931Y012210D01*
X028386Y012595D02*
X020874Y012595D01*
X020988Y012724D02*
X028272Y012724D01*
X028220Y012852D02*
X021040Y012852D01*
X021040Y012981D02*
X028220Y012981D01*
X028260Y013109D02*
X021000Y013109D01*
X020903Y013238D02*
X028357Y013238D01*
X021329Y012210D02*
X020931Y012210D01*
X021011Y012081D02*
X021249Y012081D01*
X021220Y011953D02*
X021040Y011953D01*
X021030Y011824D02*
X021230Y011824D01*
X021285Y011696D02*
X020975Y011696D01*
X020824Y011567D02*
X021436Y011567D01*
X020386Y012595D02*
X018634Y012595D01*
X018506Y012724D02*
X020272Y012724D01*
X020220Y012852D02*
X018377Y012852D01*
X018249Y012981D02*
X020220Y012981D01*
X020260Y013109D02*
X018120Y013109D01*
X020476Y015551D02*
X000430Y015551D01*
X000430Y015679D02*
X020302Y015679D01*
X020237Y015808D02*
X000430Y015808D01*
X000430Y015936D02*
X020220Y015936D01*
X020242Y016065D02*
X000430Y016065D01*
X000430Y016193D02*
X020313Y016193D01*
X020408Y016579D02*
X000430Y016579D01*
X000430Y016707D02*
X020279Y016707D01*
X020226Y016836D02*
X000430Y016836D01*
X000430Y016964D02*
X020220Y016964D01*
X020253Y017093D02*
X000430Y017093D01*
X000430Y017221D02*
X020341Y017221D01*
X020548Y017521D02*
X020712Y017521D01*
X020862Y017583D01*
X020978Y017699D01*
X021040Y017849D01*
X021040Y018012D01*
X020978Y018163D01*
X020862Y018278D01*
X020712Y018341D01*
X020548Y018341D01*
X020398Y018278D01*
X020282Y018163D01*
X020220Y018012D01*
X020220Y017849D01*
X020282Y017699D01*
X020398Y017583D01*
X020548Y017521D01*
X020374Y017607D02*
X000430Y017607D01*
X000430Y017735D02*
X020267Y017735D01*
X020220Y017864D02*
X000430Y017864D01*
X000430Y017992D02*
X020220Y017992D01*
X020265Y018121D02*
X000430Y018121D01*
X000430Y018249D02*
X020369Y018249D01*
X020891Y018249D02*
X021369Y018249D01*
X021398Y018278D02*
X021282Y018163D01*
X021220Y018012D01*
X021220Y017849D01*
X021282Y017699D01*
X021398Y017583D01*
X021548Y017521D01*
X021712Y017521D01*
X021862Y017583D01*
X021978Y017699D01*
X022040Y017849D01*
X022040Y018012D01*
X021978Y018163D01*
X021862Y018278D01*
X021712Y018341D01*
X021548Y018341D01*
X021398Y018278D01*
X021265Y018121D02*
X020995Y018121D01*
X021040Y017992D02*
X021220Y017992D01*
X021220Y017864D02*
X021040Y017864D01*
X020993Y017735D02*
X021267Y017735D01*
X021374Y017607D02*
X020886Y017607D01*
X021886Y017607D02*
X022374Y017607D01*
X022398Y017583D02*
X022548Y017521D01*
X022712Y017521D01*
X022862Y017583D01*
X022978Y017699D01*
X023040Y017849D01*
X023040Y018012D01*
X022978Y018163D01*
X022862Y018278D01*
X022712Y018341D01*
X022548Y018341D01*
X022398Y018278D01*
X022282Y018163D01*
X022220Y018012D01*
X022220Y017849D01*
X022282Y017699D01*
X022398Y017583D01*
X022267Y017735D02*
X021993Y017735D01*
X022040Y017864D02*
X022220Y017864D01*
X022220Y017992D02*
X022040Y017992D01*
X021995Y018121D02*
X022265Y018121D01*
X022369Y018249D02*
X021891Y018249D01*
X022891Y018249D02*
X023369Y018249D01*
X023398Y018278D02*
X023282Y018163D01*
X023220Y018012D01*
X023220Y017849D01*
X023282Y017699D01*
X023398Y017583D01*
X023548Y017521D01*
X023712Y017521D01*
X023862Y017583D01*
X023978Y017699D01*
X024040Y017849D01*
X024040Y018012D01*
X023978Y018163D01*
X023862Y018278D01*
X023712Y018341D01*
X023548Y018341D01*
X023398Y018278D01*
X023265Y018121D02*
X022995Y018121D01*
X023040Y017992D02*
X023220Y017992D01*
X023220Y017864D02*
X023040Y017864D01*
X022993Y017735D02*
X023267Y017735D01*
X023374Y017607D02*
X022886Y017607D01*
X023886Y017607D02*
X024374Y017607D01*
X024398Y017583D02*
X024282Y017699D01*
X024220Y017849D01*
X024220Y018012D01*
X024282Y018163D01*
X024398Y018278D01*
X024548Y018341D01*
X024712Y018341D01*
X024862Y018278D01*
X024978Y018163D01*
X025040Y018012D01*
X025040Y017849D01*
X024978Y017699D01*
X024862Y017583D01*
X024712Y017521D01*
X024548Y017521D01*
X024398Y017583D01*
X024267Y017735D02*
X023993Y017735D01*
X024040Y017864D02*
X024220Y017864D01*
X024220Y017992D02*
X024040Y017992D01*
X023995Y018121D02*
X024265Y018121D01*
X024369Y018249D02*
X023891Y018249D01*
X024891Y018249D02*
X025369Y018249D01*
X025398Y018278D02*
X025282Y018163D01*
X025220Y018012D01*
X025220Y017849D01*
X025282Y017699D01*
X025398Y017583D01*
X025548Y017521D01*
X025712Y017521D01*
X025862Y017583D01*
X025978Y017699D01*
X026040Y017849D01*
X026040Y018012D01*
X025978Y018163D01*
X025862Y018278D01*
X025712Y018341D01*
X025548Y018341D01*
X025398Y018278D01*
X025265Y018121D02*
X024995Y018121D01*
X025040Y017992D02*
X025220Y017992D01*
X025220Y017864D02*
X025040Y017864D01*
X024993Y017735D02*
X025267Y017735D01*
X025374Y017607D02*
X024886Y017607D01*
X025886Y017607D02*
X026374Y017607D01*
X026398Y017583D02*
X026548Y017521D01*
X026712Y017521D01*
X026862Y017583D01*
X026978Y017699D01*
X027040Y017849D01*
X027040Y018012D01*
X026978Y018163D01*
X026862Y018278D01*
X026712Y018341D01*
X026548Y018341D01*
X026398Y018278D01*
X026282Y018163D01*
X026220Y018012D01*
X026220Y017849D01*
X026282Y017699D01*
X026398Y017583D01*
X026267Y017735D02*
X025993Y017735D01*
X026040Y017864D02*
X026220Y017864D01*
X026220Y017992D02*
X026040Y017992D01*
X025995Y018121D02*
X026265Y018121D01*
X026369Y018249D02*
X025891Y018249D01*
X026891Y018249D02*
X027369Y018249D01*
X027398Y018278D02*
X027282Y018163D01*
X027220Y018012D01*
X027220Y017849D01*
X027282Y017699D01*
X027398Y017583D01*
X027548Y017521D01*
X027712Y017521D01*
X027862Y017583D01*
X027978Y017699D01*
X028040Y017849D01*
X028040Y018012D01*
X027978Y018163D01*
X027862Y018278D01*
X027712Y018341D01*
X027548Y018341D01*
X027398Y018278D01*
X027265Y018121D02*
X026995Y018121D01*
X027040Y017992D02*
X027220Y017992D01*
X027220Y017864D02*
X027040Y017864D01*
X026993Y017735D02*
X027267Y017735D01*
X027374Y017607D02*
X026886Y017607D01*
X027886Y017607D02*
X028374Y017607D01*
X028398Y017583D02*
X028548Y017521D01*
X028712Y017521D01*
X028862Y017583D01*
X028978Y017699D01*
X029040Y017849D01*
X029040Y018012D01*
X028978Y018163D01*
X028862Y018278D01*
X028712Y018341D01*
X028548Y018341D01*
X028398Y018278D01*
X028282Y018163D01*
X028220Y018012D01*
X028220Y017849D01*
X028282Y017699D01*
X028398Y017583D01*
X028267Y017735D02*
X027993Y017735D01*
X028040Y017864D02*
X028220Y017864D01*
X028220Y017992D02*
X028040Y017992D01*
X027995Y018121D02*
X028265Y018121D01*
X028369Y018249D02*
X027891Y018249D01*
X028891Y018249D02*
X029369Y018249D01*
X029398Y018278D02*
X029282Y018163D01*
X029220Y018012D01*
X029220Y017849D01*
X029282Y017699D01*
X029398Y017583D01*
X029548Y017521D01*
X029712Y017521D01*
X029862Y017583D01*
X029978Y017699D01*
X030040Y017849D01*
X030040Y018012D01*
X029978Y018163D01*
X029862Y018278D01*
X029712Y018341D01*
X029548Y018341D01*
X029398Y018278D01*
X029265Y018121D02*
X028995Y018121D01*
X029040Y017992D02*
X029220Y017992D01*
X029220Y017864D02*
X029040Y017864D01*
X028993Y017735D02*
X029267Y017735D01*
X029374Y017607D02*
X028886Y017607D01*
X029886Y017607D02*
X030374Y017607D01*
X030398Y017583D02*
X030548Y017521D01*
X030712Y017521D01*
X030862Y017583D01*
X030978Y017699D01*
X031040Y017849D01*
X031040Y018012D01*
X030978Y018163D01*
X030862Y018278D01*
X030712Y018341D01*
X030548Y018341D01*
X030398Y018278D01*
X030282Y018163D01*
X030220Y018012D01*
X030220Y017849D01*
X030282Y017699D01*
X030398Y017583D01*
X030267Y017735D02*
X029993Y017735D01*
X030040Y017864D02*
X030220Y017864D01*
X030220Y017992D02*
X030040Y017992D01*
X029995Y018121D02*
X030265Y018121D01*
X030369Y018249D02*
X029891Y018249D01*
X030891Y018249D02*
X031369Y018249D01*
X031398Y018278D02*
X031282Y018163D01*
X031220Y018012D01*
X031220Y017849D01*
X031282Y017699D01*
X031398Y017583D01*
X031548Y017521D01*
X031712Y017521D01*
X031862Y017583D01*
X031978Y017699D01*
X032040Y017849D01*
X032040Y018012D01*
X031978Y018163D01*
X031862Y018278D01*
X031712Y018341D01*
X031548Y018341D01*
X031398Y018278D01*
X031265Y018121D02*
X030995Y018121D01*
X031040Y017992D02*
X031220Y017992D01*
X031220Y017864D02*
X031040Y017864D01*
X030993Y017735D02*
X031267Y017735D01*
X031374Y017607D02*
X030886Y017607D01*
X031886Y017607D02*
X032374Y017607D01*
X032267Y017735D02*
X031993Y017735D01*
X032040Y017864D02*
X032220Y017864D01*
X032220Y017992D02*
X032040Y017992D01*
X031995Y018121D02*
X032265Y018121D01*
X032369Y018249D02*
X031891Y018249D01*
X033576Y018378D02*
X000430Y018378D01*
X000431Y018506D02*
X036371Y018506D01*
X036313Y018635D02*
X000440Y018635D01*
X000464Y018763D02*
X036248Y018763D01*
X036170Y018892D02*
X000502Y018892D01*
X000555Y019020D02*
X036078Y019020D01*
X035977Y019149D02*
X000627Y019149D01*
X000724Y019277D02*
X035849Y019277D01*
X035702Y019406D02*
X000855Y019406D01*
X001044Y019534D02*
X035525Y019534D01*
X035299Y019663D02*
X001387Y019663D01*
X018068Y019791D02*
X034971Y019791D01*
X017950Y007841D02*
X012610Y007841D01*
X012738Y007712D02*
X017822Y007712D01*
X017693Y007584D02*
X012867Y007584D01*
X012995Y007455D02*
X017565Y007455D01*
X017436Y007327D02*
X013124Y007327D01*
X013252Y007198D02*
X017308Y007198D01*
X017179Y007070D02*
X013381Y007070D01*
X013509Y006941D02*
X017051Y006941D01*
X017502Y005913D02*
X036530Y005913D01*
X035929Y000645D02*
X001048Y000645D01*
X001398Y000516D02*
X035704Y000516D01*
X013315Y006556D02*
X000430Y006556D01*
X000430Y006684D02*
X013187Y006684D01*
X013058Y006813D02*
X000430Y006813D01*
X000430Y006941D02*
X012930Y006941D01*
X012416Y007455D02*
X005365Y007455D01*
D14*
X005230Y007681D02*
X012480Y007681D01*
X013430Y006731D01*
X017130Y006731D01*
X020830Y010431D01*
X023130Y010431D01*
X024630Y011931D01*
X025630Y011931D02*
X023730Y010031D01*
X021330Y010031D01*
X017330Y006031D01*
X011980Y006031D01*
M02*
