G75*
%MOIN*%
%OFA0B0*%
%FSLAX24Y24*%
%IPPOS*%
%LPD*%
%AMOC8*
5,1,8,0,0,1.08239X$1,22.5*
%
%ADD10C,0.0570*%
%ADD11C,0.0270*%
%ADD12C,0.0280*%
%ADD13C,0.0130*%
D10*
X020630Y014167D03*
X021630Y014167D03*
X022630Y014167D03*
X023630Y014167D03*
X024630Y014167D03*
X025630Y014167D03*
X026630Y014167D03*
X027630Y014167D03*
X028630Y014167D03*
X029630Y014167D03*
X030630Y014167D03*
X031630Y014167D03*
X032630Y014167D03*
X033630Y014167D03*
X032630Y015167D03*
X030630Y015167D03*
X029630Y015167D03*
X028630Y015167D03*
X028630Y020167D03*
X027630Y020167D03*
X026630Y020167D03*
X025630Y020167D03*
X024630Y020167D03*
X023630Y020167D03*
X022630Y020167D03*
X021630Y020167D03*
X020630Y020167D03*
X020630Y019167D03*
X020630Y018167D03*
X020630Y017167D03*
X020630Y016167D03*
X020630Y015167D03*
X029630Y020167D03*
X030630Y020167D03*
X031630Y020167D03*
X032630Y020167D03*
X033630Y020167D03*
D11*
X014230Y014417D03*
X007480Y016367D03*
X005230Y009917D03*
X011980Y008267D03*
D12*
X023830Y010867D03*
X031230Y010967D03*
D13*
X001459Y002779D02*
X001292Y002815D01*
X001132Y002875D01*
X000981Y002957D01*
X000844Y003060D01*
X000723Y003181D01*
X000620Y003318D01*
X000538Y003468D01*
X000479Y003629D01*
X000442Y003796D01*
X000430Y003967D01*
X000430Y020767D01*
X000442Y020937D01*
X000479Y021105D01*
X000538Y021265D01*
X000620Y021415D01*
X000723Y021552D01*
X000844Y021674D01*
X000981Y021776D01*
X001132Y021858D01*
X001292Y021918D01*
X001459Y021954D01*
X001630Y021967D01*
X026973Y022122D01*
X034753Y022122D01*
X034856Y022103D01*
X035110Y022024D01*
X035352Y021915D01*
X035580Y021777D01*
X035789Y021613D01*
X035977Y021426D01*
X036141Y021216D01*
X036278Y020989D01*
X036387Y020747D01*
X036466Y020493D01*
X036514Y020232D01*
X036530Y019967D01*
X036530Y004067D01*
X036518Y003884D01*
X036482Y003704D01*
X036423Y003531D01*
X036342Y003367D01*
X036241Y003214D01*
X036120Y003077D01*
X035982Y002956D01*
X035830Y002854D01*
X035666Y002773D01*
X035492Y002714D01*
X035313Y002679D01*
X035130Y002667D01*
X001630Y002767D01*
X001459Y002779D01*
X001121Y002881D02*
X035870Y002881D01*
X036043Y003009D02*
X000912Y003009D01*
X000766Y003138D02*
X036173Y003138D01*
X036275Y003266D02*
X000659Y003266D01*
X000579Y003395D02*
X036356Y003395D01*
X036420Y003523D02*
X000518Y003523D01*
X000474Y003652D02*
X036464Y003652D01*
X036497Y003780D02*
X000446Y003780D01*
X000434Y003909D02*
X036520Y003909D01*
X036528Y004037D02*
X000430Y004037D01*
X000430Y004166D02*
X036530Y004166D01*
X036530Y004294D02*
X000430Y004294D01*
X000430Y004423D02*
X036530Y004423D01*
X036530Y004551D02*
X000430Y004551D01*
X000430Y004680D02*
X036530Y004680D01*
X036530Y004808D02*
X000430Y004808D01*
X000430Y004937D02*
X036530Y004937D01*
X036530Y005065D02*
X000430Y005065D01*
X000430Y005194D02*
X036530Y005194D01*
X036530Y005322D02*
X000430Y005322D01*
X000430Y005451D02*
X036530Y005451D01*
X036530Y005579D02*
X000430Y005579D01*
X000430Y005708D02*
X036530Y005708D01*
X036530Y005836D02*
X000430Y005836D01*
X000430Y005965D02*
X036530Y005965D01*
X036530Y006093D02*
X000430Y006093D01*
X000430Y006222D02*
X036530Y006222D01*
X036530Y006350D02*
X000430Y006350D01*
X000430Y006479D02*
X036530Y006479D01*
X036530Y006607D02*
X000430Y006607D01*
X000430Y006736D02*
X036530Y006736D01*
X036530Y006864D02*
X000430Y006864D01*
X000430Y006993D02*
X036530Y006993D01*
X036530Y007121D02*
X000430Y007121D01*
X000430Y007250D02*
X036530Y007250D01*
X036530Y007378D02*
X000430Y007378D01*
X000430Y007507D02*
X036530Y007507D01*
X036530Y007635D02*
X000430Y007635D01*
X000430Y007764D02*
X036530Y007764D01*
X036530Y007892D02*
X000430Y007892D01*
X000430Y008021D02*
X011894Y008021D01*
X011928Y008007D02*
X012032Y008007D01*
X012127Y008046D01*
X012200Y008119D01*
X012240Y008215D01*
X012240Y008318D01*
X012200Y008414D01*
X012127Y008487D01*
X012032Y008527D01*
X011928Y008527D01*
X011833Y008487D01*
X011760Y008414D01*
X011720Y008318D01*
X011720Y008215D01*
X011760Y008119D01*
X011833Y008046D01*
X011928Y008007D01*
X012066Y008021D02*
X036530Y008021D01*
X036530Y008149D02*
X012213Y008149D01*
X012240Y008278D02*
X036530Y008278D01*
X036530Y008406D02*
X012204Y008406D01*
X011756Y008406D02*
X000430Y008406D01*
X000430Y008278D02*
X011720Y008278D01*
X011747Y008149D02*
X000430Y008149D01*
X000430Y008535D02*
X036530Y008535D01*
X036530Y008663D02*
X000430Y008663D01*
X000430Y008792D02*
X036530Y008792D01*
X036530Y008920D02*
X000430Y008920D01*
X000430Y009049D02*
X036530Y009049D01*
X036530Y009177D02*
X000430Y009177D01*
X000430Y009306D02*
X036530Y009306D01*
X036530Y009434D02*
X000430Y009434D01*
X000430Y009563D02*
X036530Y009563D01*
X036530Y009691D02*
X005365Y009691D01*
X005377Y009696D02*
X005450Y009769D01*
X005490Y009865D01*
X005490Y009968D01*
X005450Y010064D01*
X005377Y010137D01*
X005282Y010177D01*
X005178Y010177D01*
X005083Y010137D01*
X005010Y010064D01*
X004970Y009968D01*
X004970Y009865D01*
X005010Y009769D01*
X005083Y009696D01*
X005178Y009657D01*
X005282Y009657D01*
X005377Y009696D01*
X005471Y009820D02*
X036530Y009820D01*
X036530Y009948D02*
X005490Y009948D01*
X005438Y010077D02*
X036530Y010077D01*
X036530Y010205D02*
X000430Y010205D01*
X000430Y010077D02*
X005022Y010077D01*
X004970Y009948D02*
X000430Y009948D01*
X000430Y009820D02*
X004989Y009820D01*
X005095Y009691D02*
X000430Y009691D01*
X000430Y010334D02*
X036530Y010334D01*
X036530Y010462D02*
X000430Y010462D01*
X000430Y010591D02*
X036530Y010591D01*
X036530Y010719D02*
X031325Y010719D01*
X031283Y010702D02*
X031380Y010742D01*
X031455Y010817D01*
X031495Y010914D01*
X031495Y011019D01*
X031455Y011117D01*
X031380Y011191D01*
X031283Y011232D01*
X031177Y011232D01*
X031080Y011191D01*
X031005Y011117D01*
X030965Y011019D01*
X030965Y010914D01*
X031005Y010817D01*
X031080Y010742D01*
X031177Y010702D01*
X031283Y010702D01*
X031135Y010719D02*
X024056Y010719D01*
X024055Y010717D02*
X024095Y010814D01*
X024095Y010919D01*
X024055Y011017D01*
X023980Y011091D01*
X023883Y011132D01*
X023777Y011132D01*
X023680Y011091D01*
X023605Y011017D01*
X023565Y010919D01*
X023565Y010814D01*
X023605Y010717D01*
X023680Y010642D01*
X023777Y010602D01*
X023883Y010602D01*
X023980Y010642D01*
X024055Y010717D01*
X024095Y010848D02*
X030992Y010848D01*
X030965Y010976D02*
X024071Y010976D01*
X023948Y011105D02*
X031000Y011105D01*
X031460Y011105D02*
X036530Y011105D01*
X036530Y011233D02*
X000430Y011233D01*
X000430Y011105D02*
X023712Y011105D01*
X023589Y010976D02*
X000430Y010976D01*
X000430Y010848D02*
X023565Y010848D01*
X023604Y010719D02*
X000430Y010719D01*
X000430Y011362D02*
X036530Y011362D01*
X036530Y011490D02*
X000430Y011490D01*
X000430Y011619D02*
X036530Y011619D01*
X036530Y011747D02*
X000430Y011747D01*
X000430Y011876D02*
X036530Y011876D01*
X036530Y012004D02*
X000430Y012004D01*
X000430Y012133D02*
X036530Y012133D01*
X036530Y012261D02*
X000430Y012261D01*
X000430Y012390D02*
X036530Y012390D01*
X036530Y012518D02*
X000430Y012518D01*
X000430Y012647D02*
X036530Y012647D01*
X036530Y012775D02*
X000430Y012775D01*
X000430Y012904D02*
X036530Y012904D01*
X036530Y013032D02*
X000430Y013032D01*
X000430Y013161D02*
X036530Y013161D01*
X036530Y013289D02*
X000430Y013289D01*
X000430Y013418D02*
X036530Y013418D01*
X036530Y013546D02*
X000430Y013546D01*
X000430Y013675D02*
X036530Y013675D01*
X036530Y013803D02*
X033824Y013803D01*
X033862Y013819D02*
X033978Y013934D01*
X034040Y014085D01*
X034040Y014248D01*
X033978Y014399D01*
X033862Y014514D01*
X033712Y014577D01*
X033548Y014577D01*
X033398Y014514D01*
X033282Y014399D01*
X033220Y014248D01*
X033220Y014085D01*
X033282Y013934D01*
X033398Y013819D01*
X033548Y013757D01*
X033712Y013757D01*
X033862Y013819D01*
X033975Y013932D02*
X036530Y013932D01*
X036530Y014060D02*
X034030Y014060D01*
X034040Y014189D02*
X036530Y014189D01*
X036530Y014317D02*
X034011Y014317D01*
X033931Y014446D02*
X036530Y014446D01*
X036530Y014574D02*
X033718Y014574D01*
X033542Y014574D02*
X032821Y014574D01*
X032803Y014584D02*
X032735Y014606D01*
X032665Y014617D01*
X032660Y014617D01*
X032660Y014197D01*
X032600Y014197D01*
X032600Y014617D01*
X032595Y014617D01*
X032525Y014606D01*
X032457Y014584D01*
X032394Y014552D01*
X032337Y014510D01*
X032287Y014460D01*
X032245Y014403D01*
X032213Y014339D01*
X032191Y014272D01*
X032180Y014202D01*
X032180Y014197D01*
X032600Y014197D01*
X032600Y014137D01*
X032180Y014137D01*
X032180Y014131D01*
X032191Y014061D01*
X032213Y013994D01*
X032245Y013931D01*
X032287Y013874D01*
X032337Y013823D01*
X032394Y013782D01*
X032457Y013750D01*
X032525Y013728D01*
X032595Y013717D01*
X032600Y013717D01*
X032600Y014137D01*
X032660Y014137D01*
X032660Y014197D01*
X033080Y014197D01*
X033080Y014202D01*
X033069Y014272D01*
X033047Y014339D01*
X033015Y014403D01*
X032973Y014460D01*
X032923Y014510D01*
X032866Y014552D01*
X032803Y014584D01*
X032660Y014574D02*
X032600Y014574D01*
X032600Y014446D02*
X032660Y014446D01*
X032660Y014317D02*
X032600Y014317D01*
X032600Y014189D02*
X032040Y014189D01*
X032040Y014248D02*
X031978Y014399D01*
X031862Y014514D01*
X031712Y014577D01*
X031548Y014577D01*
X031398Y014514D01*
X031282Y014399D01*
X031220Y014248D01*
X031220Y014085D01*
X031282Y013934D01*
X031398Y013819D01*
X031548Y013757D01*
X031712Y013757D01*
X031862Y013819D01*
X031978Y013934D01*
X032040Y014085D01*
X032040Y014248D01*
X032011Y014317D02*
X032206Y014317D01*
X032276Y014446D02*
X031931Y014446D01*
X031718Y014574D02*
X032439Y014574D01*
X032548Y014757D02*
X032398Y014819D01*
X032282Y014934D01*
X032220Y015085D01*
X032220Y015248D01*
X032282Y015399D01*
X032398Y015514D01*
X032548Y015577D01*
X032712Y015577D01*
X032862Y015514D01*
X032978Y015399D01*
X033040Y015248D01*
X033040Y015085D01*
X032978Y014934D01*
X032862Y014819D01*
X032712Y014757D01*
X032548Y014757D01*
X032386Y014831D02*
X030874Y014831D01*
X030862Y014819D02*
X030978Y014934D01*
X031040Y015085D01*
X031040Y015248D01*
X030978Y015399D01*
X030862Y015514D01*
X030712Y015577D01*
X030548Y015577D01*
X030398Y015514D01*
X030282Y015399D01*
X030220Y015248D01*
X030220Y015085D01*
X030282Y014934D01*
X030398Y014819D01*
X030548Y014757D01*
X030712Y014757D01*
X030862Y014819D01*
X030988Y014960D02*
X032272Y014960D01*
X032220Y015088D02*
X031040Y015088D01*
X031040Y015217D02*
X032220Y015217D01*
X032260Y015345D02*
X031000Y015345D01*
X030903Y015474D02*
X032357Y015474D01*
X032903Y015474D02*
X036530Y015474D01*
X036530Y015602D02*
X000430Y015602D01*
X000430Y015474D02*
X020357Y015474D01*
X020398Y015514D02*
X020282Y015399D01*
X020220Y015248D01*
X020220Y015085D01*
X020282Y014934D01*
X020398Y014819D01*
X020548Y014757D01*
X020712Y014757D01*
X020862Y014819D01*
X020978Y014934D01*
X021040Y015085D01*
X021040Y015248D01*
X020978Y015399D01*
X020862Y015514D01*
X020712Y015577D01*
X020548Y015577D01*
X020398Y015514D01*
X020260Y015345D02*
X000430Y015345D01*
X000430Y015217D02*
X020220Y015217D01*
X020220Y015088D02*
X000430Y015088D01*
X000430Y014960D02*
X020272Y014960D01*
X020386Y014831D02*
X000430Y014831D01*
X000430Y014703D02*
X036530Y014703D01*
X036530Y014831D02*
X032874Y014831D01*
X032988Y014960D02*
X036530Y014960D01*
X036530Y015088D02*
X033040Y015088D01*
X033040Y015217D02*
X036530Y015217D01*
X036530Y015345D02*
X033000Y015345D01*
X032984Y014446D02*
X033329Y014446D01*
X033249Y014317D02*
X033054Y014317D01*
X033080Y014137D02*
X032660Y014137D01*
X032660Y013717D01*
X032665Y013717D01*
X032735Y013728D01*
X032803Y013750D01*
X032866Y013782D01*
X032923Y013823D01*
X032973Y013874D01*
X033015Y013931D01*
X033047Y013994D01*
X033069Y014061D01*
X033080Y014131D01*
X033080Y014137D01*
X033069Y014060D02*
X033230Y014060D01*
X033220Y014189D02*
X032660Y014189D01*
X032630Y014167D02*
X030830Y015967D01*
X033630Y018767D01*
X033630Y020167D01*
X033660Y020197D02*
X033600Y020197D01*
X033600Y020617D01*
X033595Y020617D01*
X033525Y020606D01*
X033457Y020584D01*
X033394Y020552D01*
X033337Y020510D01*
X033287Y020460D01*
X033245Y020403D01*
X033213Y020339D01*
X033191Y020272D01*
X033180Y020202D01*
X033180Y020197D01*
X033600Y020197D01*
X033600Y020137D01*
X033180Y020137D01*
X033180Y020131D01*
X033191Y020061D01*
X033213Y019994D01*
X033245Y019931D01*
X033287Y019874D01*
X033337Y019823D01*
X033394Y019782D01*
X033457Y019750D01*
X033525Y019728D01*
X033595Y019717D01*
X033600Y019717D01*
X033600Y020137D01*
X033660Y020137D01*
X033660Y020197D01*
X033660Y020617D01*
X033665Y020617D01*
X033735Y020606D01*
X033803Y020584D01*
X033866Y020552D01*
X033923Y020510D01*
X033973Y020460D01*
X034015Y020403D01*
X034047Y020339D01*
X034069Y020272D01*
X034080Y020202D01*
X034080Y020197D01*
X033660Y020197D01*
X033660Y020228D02*
X033600Y020228D01*
X033660Y020137D02*
X034080Y020137D01*
X034080Y020131D01*
X034069Y020061D01*
X034047Y019994D01*
X034015Y019931D01*
X033973Y019874D01*
X033923Y019823D01*
X033866Y019782D01*
X033803Y019750D01*
X033735Y019728D01*
X033665Y019717D01*
X033660Y019717D01*
X033660Y020137D01*
X033660Y020100D02*
X033600Y020100D01*
X033600Y019971D02*
X033660Y019971D01*
X033660Y019843D02*
X033600Y019843D01*
X033318Y019843D02*
X032886Y019843D01*
X032862Y019819D02*
X032978Y019934D01*
X033040Y020085D01*
X033040Y020248D01*
X032978Y020399D01*
X032862Y020514D01*
X032712Y020577D01*
X032548Y020577D01*
X032398Y020514D01*
X032282Y020399D01*
X032220Y020248D01*
X032220Y020085D01*
X032282Y019934D01*
X032398Y019819D01*
X032548Y019757D01*
X032712Y019757D01*
X032862Y019819D01*
X032993Y019971D02*
X033225Y019971D01*
X033185Y020100D02*
X033040Y020100D01*
X033040Y020228D02*
X033184Y020228D01*
X033222Y020357D02*
X032995Y020357D01*
X032891Y020485D02*
X033312Y020485D01*
X033600Y020485D02*
X033660Y020485D01*
X033660Y020357D02*
X033600Y020357D01*
X033600Y020614D02*
X033660Y020614D01*
X033684Y020614D02*
X036429Y020614D01*
X036468Y020485D02*
X033948Y020485D01*
X034038Y020357D02*
X036491Y020357D01*
X036514Y020228D02*
X034076Y020228D01*
X034075Y020100D02*
X036522Y020100D01*
X036530Y019971D02*
X034035Y019971D01*
X033942Y019843D02*
X036530Y019843D01*
X036530Y019714D02*
X000430Y019714D01*
X000430Y019586D02*
X036530Y019586D01*
X036530Y019457D02*
X020919Y019457D01*
X020862Y019514D02*
X020978Y019399D01*
X021040Y019248D01*
X021040Y019085D01*
X020978Y018934D01*
X020862Y018819D01*
X020712Y018757D01*
X020548Y018757D01*
X020398Y018819D01*
X020282Y018934D01*
X020220Y019085D01*
X020220Y019248D01*
X020282Y019399D01*
X020398Y019514D01*
X020548Y019577D01*
X020712Y019577D01*
X020862Y019514D01*
X021007Y019329D02*
X036530Y019329D01*
X036530Y019200D02*
X021040Y019200D01*
X021034Y019072D02*
X036530Y019072D01*
X036530Y018943D02*
X020981Y018943D01*
X020852Y018815D02*
X036530Y018815D01*
X036530Y018686D02*
X000430Y018686D01*
X000430Y018558D02*
X020503Y018558D01*
X020548Y018577D02*
X020398Y018514D01*
X020282Y018399D01*
X020220Y018248D01*
X020220Y018085D01*
X020282Y017934D01*
X020398Y017819D01*
X020548Y017757D01*
X020712Y017757D01*
X020862Y017819D01*
X020978Y017934D01*
X021040Y018085D01*
X021040Y018248D01*
X020978Y018399D01*
X020862Y018514D01*
X020712Y018577D01*
X020548Y018577D01*
X020757Y018558D02*
X036530Y018558D01*
X036530Y018429D02*
X020947Y018429D01*
X021018Y018301D02*
X036530Y018301D01*
X036530Y018172D02*
X021040Y018172D01*
X021023Y018044D02*
X036530Y018044D01*
X036530Y017915D02*
X020958Y017915D01*
X020784Y017787D02*
X036530Y017787D01*
X036530Y017658D02*
X000430Y017658D01*
X000430Y017530D02*
X020364Y017530D01*
X020337Y017510D02*
X020287Y017460D01*
X020245Y017403D01*
X020213Y017339D01*
X020191Y017272D01*
X020180Y017202D01*
X020180Y017197D01*
X020600Y017197D01*
X020600Y017617D01*
X020595Y017617D01*
X020525Y017606D01*
X020457Y017584D01*
X020394Y017552D01*
X020337Y017510D01*
X020244Y017401D02*
X000430Y017401D01*
X000430Y017273D02*
X020191Y017273D01*
X020180Y017137D02*
X020180Y017131D01*
X020191Y017061D01*
X020213Y016994D01*
X020245Y016931D01*
X020287Y016874D01*
X020337Y016823D01*
X020394Y016782D01*
X020457Y016750D01*
X020525Y016728D01*
X020595Y016717D01*
X020600Y016717D01*
X020600Y017137D01*
X020180Y017137D01*
X020206Y017016D02*
X000430Y017016D01*
X000430Y017144D02*
X020600Y017144D01*
X020600Y017137D02*
X020600Y017197D01*
X020660Y017197D01*
X020660Y017617D01*
X020665Y017617D01*
X020735Y017606D01*
X020803Y017584D01*
X020866Y017552D01*
X020923Y017510D01*
X020973Y017460D01*
X021015Y017403D01*
X021047Y017339D01*
X021069Y017272D01*
X021080Y017202D01*
X021080Y017197D01*
X020660Y017197D01*
X020660Y017137D01*
X021080Y017137D01*
X021080Y017131D01*
X021069Y017061D01*
X021047Y016994D01*
X021015Y016931D01*
X020973Y016874D01*
X020923Y016823D01*
X020866Y016782D01*
X020803Y016750D01*
X020735Y016728D01*
X020665Y016717D01*
X020660Y016717D01*
X020660Y017137D01*
X020600Y017137D01*
X020630Y017167D02*
X029630Y017167D01*
X030830Y015967D01*
X030357Y015474D02*
X029903Y015474D01*
X029862Y015514D02*
X029712Y015577D01*
X029548Y015577D01*
X029398Y015514D01*
X029282Y015399D01*
X029220Y015248D01*
X029220Y015085D01*
X029282Y014934D01*
X029398Y014819D01*
X029548Y014757D01*
X029712Y014757D01*
X029862Y014819D01*
X029978Y014934D01*
X030040Y015085D01*
X030040Y015248D01*
X029978Y015399D01*
X029862Y015514D01*
X030000Y015345D02*
X030260Y015345D01*
X030220Y015217D02*
X030040Y015217D01*
X030040Y015088D02*
X030220Y015088D01*
X030272Y014960D02*
X029988Y014960D01*
X029874Y014831D02*
X030386Y014831D01*
X030542Y014574D02*
X029718Y014574D01*
X029712Y014577D02*
X029548Y014577D01*
X029398Y014514D01*
X029282Y014399D01*
X029220Y014248D01*
X029220Y014085D01*
X029282Y013934D01*
X029398Y013819D01*
X029548Y013757D01*
X029712Y013757D01*
X029862Y013819D01*
X029978Y013934D01*
X030040Y014085D01*
X030040Y014248D01*
X029978Y014399D01*
X029862Y014514D01*
X029712Y014577D01*
X029542Y014574D02*
X028718Y014574D01*
X028712Y014577D02*
X028548Y014577D01*
X028398Y014514D01*
X028282Y014399D01*
X028220Y014248D01*
X028220Y014085D01*
X028282Y013934D01*
X028398Y013819D01*
X028548Y013757D01*
X028712Y013757D01*
X028862Y013819D01*
X028978Y013934D01*
X029040Y014085D01*
X029040Y014248D01*
X028978Y014399D01*
X028862Y014514D01*
X028712Y014577D01*
X028542Y014574D02*
X027718Y014574D01*
X027712Y014577D02*
X027548Y014577D01*
X027398Y014514D01*
X027282Y014399D01*
X027220Y014248D01*
X027220Y014085D01*
X027282Y013934D01*
X027398Y013819D01*
X027548Y013757D01*
X027712Y013757D01*
X027862Y013819D01*
X027978Y013934D01*
X028040Y014085D01*
X028040Y014248D01*
X027978Y014399D01*
X027862Y014514D01*
X027712Y014577D01*
X027542Y014574D02*
X026718Y014574D01*
X026712Y014577D02*
X026548Y014577D01*
X026398Y014514D01*
X026282Y014399D01*
X026220Y014248D01*
X026220Y014085D01*
X026282Y013934D01*
X026398Y013819D01*
X026548Y013757D01*
X026712Y013757D01*
X026862Y013819D01*
X026978Y013934D01*
X027040Y014085D01*
X027040Y014248D01*
X026978Y014399D01*
X026862Y014514D01*
X026712Y014577D01*
X026542Y014574D02*
X025718Y014574D01*
X025712Y014577D02*
X025548Y014577D01*
X025398Y014514D01*
X025282Y014399D01*
X025220Y014248D01*
X025220Y014085D01*
X025282Y013934D01*
X025398Y013819D01*
X025548Y013757D01*
X025712Y013757D01*
X025862Y013819D01*
X025978Y013934D01*
X026040Y014085D01*
X026040Y014248D01*
X025978Y014399D01*
X025862Y014514D01*
X025712Y014577D01*
X025542Y014574D02*
X024718Y014574D01*
X024712Y014577D02*
X024548Y014577D01*
X024398Y014514D01*
X024282Y014399D01*
X024220Y014248D01*
X024220Y014085D01*
X024282Y013934D01*
X024398Y013819D01*
X024548Y013757D01*
X024712Y013757D01*
X024862Y013819D01*
X024978Y013934D01*
X025040Y014085D01*
X025040Y014248D01*
X024978Y014399D01*
X024862Y014514D01*
X024712Y014577D01*
X024542Y014574D02*
X023718Y014574D01*
X023712Y014577D02*
X023548Y014577D01*
X023398Y014514D01*
X023282Y014399D01*
X023220Y014248D01*
X023220Y014085D01*
X023282Y013934D01*
X023398Y013819D01*
X023548Y013757D01*
X023712Y013757D01*
X023862Y013819D01*
X023978Y013934D01*
X024040Y014085D01*
X024040Y014248D01*
X023978Y014399D01*
X023862Y014514D01*
X023712Y014577D01*
X023542Y014574D02*
X022718Y014574D01*
X022712Y014577D02*
X022548Y014577D01*
X022398Y014514D01*
X022282Y014399D01*
X022220Y014248D01*
X022220Y014085D01*
X022282Y013934D01*
X022398Y013819D01*
X022548Y013757D01*
X022712Y013757D01*
X022862Y013819D01*
X022978Y013934D01*
X023040Y014085D01*
X023040Y014248D01*
X022978Y014399D01*
X022862Y014514D01*
X022712Y014577D01*
X022542Y014574D02*
X021718Y014574D01*
X021712Y014577D02*
X021548Y014577D01*
X021398Y014514D01*
X021282Y014399D01*
X021220Y014248D01*
X021220Y014085D01*
X021282Y013934D01*
X021398Y013819D01*
X021548Y013757D01*
X021712Y013757D01*
X021862Y013819D01*
X021978Y013934D01*
X022040Y014085D01*
X022040Y014248D01*
X021978Y014399D01*
X021862Y014514D01*
X021712Y014577D01*
X021542Y014574D02*
X020718Y014574D01*
X020712Y014577D02*
X020548Y014577D01*
X020398Y014514D01*
X020282Y014399D01*
X020220Y014248D01*
X020220Y014085D01*
X020282Y013934D01*
X020398Y013819D01*
X020548Y013757D01*
X020712Y013757D01*
X020862Y013819D01*
X020978Y013934D01*
X021040Y014085D01*
X021040Y014248D01*
X020978Y014399D01*
X020862Y014514D01*
X020712Y014577D01*
X020542Y014574D02*
X014440Y014574D01*
X014450Y014564D02*
X014377Y014637D01*
X014282Y014677D01*
X014178Y014677D01*
X014083Y014637D01*
X014010Y014564D01*
X013970Y014468D01*
X013970Y014365D01*
X014010Y014269D01*
X014083Y014196D01*
X014178Y014157D01*
X014282Y014157D01*
X014377Y014196D01*
X014450Y014269D01*
X014490Y014365D01*
X014490Y014468D01*
X014450Y014564D01*
X014490Y014446D02*
X020329Y014446D01*
X020249Y014317D02*
X014470Y014317D01*
X014359Y014189D02*
X020220Y014189D01*
X020230Y014060D02*
X000430Y014060D01*
X000430Y013932D02*
X020285Y013932D01*
X020436Y013803D02*
X000430Y013803D01*
X000430Y014189D02*
X014101Y014189D01*
X013990Y014317D02*
X000430Y014317D01*
X000430Y014446D02*
X013970Y014446D01*
X014020Y014574D02*
X000430Y014574D01*
X000430Y015731D02*
X036530Y015731D01*
X036530Y015859D02*
X020902Y015859D01*
X020862Y015819D02*
X020978Y015934D01*
X021040Y016085D01*
X021040Y016248D01*
X020978Y016399D01*
X020862Y016514D01*
X020712Y016577D01*
X020548Y016577D01*
X020398Y016514D01*
X020282Y016399D01*
X020220Y016248D01*
X020220Y016085D01*
X020282Y015934D01*
X020398Y015819D01*
X020548Y015757D01*
X020712Y015757D01*
X020862Y015819D01*
X021000Y015988D02*
X036530Y015988D01*
X036530Y016116D02*
X021040Y016116D01*
X021040Y016245D02*
X036530Y016245D01*
X036530Y016373D02*
X020988Y016373D01*
X020875Y016502D02*
X036530Y016502D01*
X036530Y016630D02*
X000430Y016630D01*
X000430Y016502D02*
X007255Y016502D01*
X007260Y016514D02*
X007220Y016418D01*
X007220Y016315D01*
X007260Y016219D01*
X007333Y016146D01*
X007428Y016107D01*
X007532Y016107D01*
X007627Y016146D01*
X007700Y016219D01*
X007740Y016315D01*
X007740Y016418D01*
X007700Y016514D01*
X007627Y016587D01*
X007532Y016627D01*
X007428Y016627D01*
X007333Y016587D01*
X007260Y016514D01*
X007220Y016373D02*
X000430Y016373D01*
X000430Y016245D02*
X007249Y016245D01*
X007405Y016116D02*
X000430Y016116D01*
X000430Y015988D02*
X020260Y015988D01*
X020220Y016116D02*
X007555Y016116D01*
X007711Y016245D02*
X020220Y016245D01*
X020272Y016373D02*
X007740Y016373D01*
X007705Y016502D02*
X020385Y016502D01*
X020439Y016759D02*
X000430Y016759D01*
X000430Y016887D02*
X020277Y016887D01*
X020600Y016887D02*
X020660Y016887D01*
X020660Y016759D02*
X020600Y016759D01*
X020821Y016759D02*
X036530Y016759D01*
X036530Y016887D02*
X020983Y016887D01*
X021054Y017016D02*
X036530Y017016D01*
X036530Y017144D02*
X020660Y017144D01*
X020660Y017016D02*
X020600Y017016D01*
X020600Y017273D02*
X020660Y017273D01*
X020660Y017401D02*
X020600Y017401D01*
X020600Y017530D02*
X020660Y017530D01*
X020896Y017530D02*
X036530Y017530D01*
X036530Y017401D02*
X021016Y017401D01*
X021069Y017273D02*
X036530Y017273D01*
X032374Y019843D02*
X031886Y019843D01*
X031862Y019819D02*
X031978Y019934D01*
X032040Y020085D01*
X032040Y020248D01*
X031978Y020399D01*
X031862Y020514D01*
X031712Y020577D01*
X031548Y020577D01*
X031398Y020514D01*
X031282Y020399D01*
X031220Y020248D01*
X031220Y020085D01*
X031282Y019934D01*
X031398Y019819D01*
X031548Y019757D01*
X031712Y019757D01*
X031862Y019819D01*
X031993Y019971D02*
X032267Y019971D01*
X032220Y020100D02*
X032040Y020100D01*
X032040Y020228D02*
X032220Y020228D01*
X032265Y020357D02*
X031995Y020357D01*
X031891Y020485D02*
X032369Y020485D01*
X031369Y020485D02*
X030891Y020485D01*
X030862Y020514D02*
X030712Y020577D01*
X030548Y020577D01*
X030398Y020514D01*
X030282Y020399D01*
X030220Y020248D01*
X030220Y020085D01*
X030282Y019934D01*
X030398Y019819D01*
X030548Y019757D01*
X030712Y019757D01*
X030862Y019819D01*
X030978Y019934D01*
X031040Y020085D01*
X031040Y020248D01*
X030978Y020399D01*
X030862Y020514D01*
X030995Y020357D02*
X031265Y020357D01*
X031220Y020228D02*
X031040Y020228D01*
X031040Y020100D02*
X031220Y020100D01*
X031267Y019971D02*
X030993Y019971D01*
X030886Y019843D02*
X031374Y019843D01*
X030374Y019843D02*
X029886Y019843D01*
X029862Y019819D02*
X029978Y019934D01*
X030040Y020085D01*
X030040Y020248D01*
X029978Y020399D01*
X029862Y020514D01*
X029712Y020577D01*
X029548Y020577D01*
X029398Y020514D01*
X029282Y020399D01*
X029220Y020248D01*
X029220Y020085D01*
X029282Y019934D01*
X029398Y019819D01*
X029548Y019757D01*
X029712Y019757D01*
X029862Y019819D01*
X029993Y019971D02*
X030267Y019971D01*
X030220Y020100D02*
X030040Y020100D01*
X030040Y020228D02*
X030220Y020228D01*
X030265Y020357D02*
X029995Y020357D01*
X029891Y020485D02*
X030369Y020485D01*
X029369Y020485D02*
X028891Y020485D01*
X028862Y020514D02*
X028712Y020577D01*
X028548Y020577D01*
X028398Y020514D01*
X028282Y020399D01*
X028220Y020248D01*
X028220Y020085D01*
X028282Y019934D01*
X028398Y019819D01*
X028548Y019757D01*
X028712Y019757D01*
X028862Y019819D01*
X028978Y019934D01*
X029040Y020085D01*
X029040Y020248D01*
X028978Y020399D01*
X028862Y020514D01*
X028995Y020357D02*
X029265Y020357D01*
X029220Y020228D02*
X029040Y020228D01*
X029040Y020100D02*
X029220Y020100D01*
X029267Y019971D02*
X028993Y019971D01*
X028886Y019843D02*
X029374Y019843D01*
X028374Y019843D02*
X027886Y019843D01*
X027862Y019819D02*
X027978Y019934D01*
X028040Y020085D01*
X028040Y020248D01*
X027978Y020399D01*
X027862Y020514D01*
X027712Y020577D01*
X027548Y020577D01*
X027398Y020514D01*
X027282Y020399D01*
X027220Y020248D01*
X027220Y020085D01*
X027282Y019934D01*
X027398Y019819D01*
X027548Y019757D01*
X027712Y019757D01*
X027862Y019819D01*
X027993Y019971D02*
X028267Y019971D01*
X028220Y020100D02*
X028040Y020100D01*
X028040Y020228D02*
X028220Y020228D01*
X028265Y020357D02*
X027995Y020357D01*
X027891Y020485D02*
X028369Y020485D01*
X027369Y020485D02*
X026891Y020485D01*
X026862Y020514D02*
X026712Y020577D01*
X026548Y020577D01*
X026398Y020514D01*
X026282Y020399D01*
X026220Y020248D01*
X026220Y020085D01*
X026282Y019934D01*
X026398Y019819D01*
X026548Y019757D01*
X026712Y019757D01*
X026862Y019819D01*
X026978Y019934D01*
X027040Y020085D01*
X027040Y020248D01*
X026978Y020399D01*
X026862Y020514D01*
X026995Y020357D02*
X027265Y020357D01*
X027220Y020228D02*
X027040Y020228D01*
X027040Y020100D02*
X027220Y020100D01*
X027267Y019971D02*
X026993Y019971D01*
X026886Y019843D02*
X027374Y019843D01*
X026374Y019843D02*
X025886Y019843D01*
X025862Y019819D02*
X025978Y019934D01*
X026040Y020085D01*
X026040Y020248D01*
X025978Y020399D01*
X025862Y020514D01*
X025712Y020577D01*
X025548Y020577D01*
X025398Y020514D01*
X025282Y020399D01*
X025220Y020248D01*
X025220Y020085D01*
X025282Y019934D01*
X025398Y019819D01*
X025548Y019757D01*
X025712Y019757D01*
X025862Y019819D01*
X025993Y019971D02*
X026267Y019971D01*
X026220Y020100D02*
X026040Y020100D01*
X026040Y020228D02*
X026220Y020228D01*
X026265Y020357D02*
X025995Y020357D01*
X025891Y020485D02*
X026369Y020485D01*
X025369Y020485D02*
X024891Y020485D01*
X024862Y020514D02*
X024712Y020577D01*
X024548Y020577D01*
X024398Y020514D01*
X024282Y020399D01*
X024220Y020248D01*
X024220Y020085D01*
X024282Y019934D01*
X024398Y019819D01*
X024548Y019757D01*
X024712Y019757D01*
X024862Y019819D01*
X024978Y019934D01*
X025040Y020085D01*
X025040Y020248D01*
X024978Y020399D01*
X024862Y020514D01*
X024995Y020357D02*
X025265Y020357D01*
X025220Y020228D02*
X025040Y020228D01*
X025040Y020100D02*
X025220Y020100D01*
X025267Y019971D02*
X024993Y019971D01*
X024886Y019843D02*
X025374Y019843D01*
X024374Y019843D02*
X023886Y019843D01*
X023862Y019819D02*
X023978Y019934D01*
X024040Y020085D01*
X024040Y020248D01*
X023978Y020399D01*
X023862Y020514D01*
X023712Y020577D01*
X023548Y020577D01*
X023398Y020514D01*
X023282Y020399D01*
X023220Y020248D01*
X023220Y020085D01*
X023282Y019934D01*
X023398Y019819D01*
X023548Y019757D01*
X023712Y019757D01*
X023862Y019819D01*
X023993Y019971D02*
X024267Y019971D01*
X024220Y020100D02*
X024040Y020100D01*
X024040Y020228D02*
X024220Y020228D01*
X024265Y020357D02*
X023995Y020357D01*
X023891Y020485D02*
X024369Y020485D01*
X023369Y020485D02*
X022891Y020485D01*
X022862Y020514D02*
X022712Y020577D01*
X022548Y020577D01*
X022398Y020514D01*
X022282Y020399D01*
X022220Y020248D01*
X022220Y020085D01*
X022282Y019934D01*
X022398Y019819D01*
X022548Y019757D01*
X022712Y019757D01*
X022862Y019819D01*
X022978Y019934D01*
X023040Y020085D01*
X023040Y020248D01*
X022978Y020399D01*
X022862Y020514D01*
X022995Y020357D02*
X023265Y020357D01*
X023220Y020228D02*
X023040Y020228D01*
X023040Y020100D02*
X023220Y020100D01*
X023267Y019971D02*
X022993Y019971D01*
X022886Y019843D02*
X023374Y019843D01*
X022374Y019843D02*
X021886Y019843D01*
X021862Y019819D02*
X021978Y019934D01*
X022040Y020085D01*
X022040Y020248D01*
X021978Y020399D01*
X021862Y020514D01*
X021712Y020577D01*
X021548Y020577D01*
X021398Y020514D01*
X021282Y020399D01*
X021220Y020248D01*
X021220Y020085D01*
X021282Y019934D01*
X021398Y019819D01*
X021548Y019757D01*
X021712Y019757D01*
X021862Y019819D01*
X021993Y019971D02*
X022267Y019971D01*
X022220Y020100D02*
X022040Y020100D01*
X022040Y020228D02*
X022220Y020228D01*
X022265Y020357D02*
X021995Y020357D01*
X021891Y020485D02*
X022369Y020485D01*
X021369Y020485D02*
X020891Y020485D01*
X020862Y020514D02*
X020712Y020577D01*
X020548Y020577D01*
X020398Y020514D01*
X020282Y020399D01*
X020220Y020248D01*
X020220Y020085D01*
X020282Y019934D01*
X020398Y019819D01*
X020548Y019757D01*
X020712Y019757D01*
X020862Y019819D01*
X020978Y019934D01*
X021040Y020085D01*
X021040Y020248D01*
X020978Y020399D01*
X020862Y020514D01*
X020995Y020357D02*
X021265Y020357D01*
X021220Y020228D02*
X021040Y020228D01*
X021040Y020100D02*
X021220Y020100D01*
X021267Y019971D02*
X020993Y019971D01*
X020886Y019843D02*
X021374Y019843D01*
X020374Y019843D02*
X000430Y019843D01*
X000430Y019971D02*
X020267Y019971D01*
X020220Y020100D02*
X000430Y020100D01*
X000430Y020228D02*
X020220Y020228D01*
X020265Y020357D02*
X000430Y020357D01*
X000430Y020485D02*
X020369Y020485D01*
X020341Y019457D02*
X000430Y019457D01*
X000430Y019329D02*
X020253Y019329D01*
X020220Y019200D02*
X000430Y019200D01*
X000430Y019072D02*
X020226Y019072D01*
X020279Y018943D02*
X000430Y018943D01*
X000430Y018815D02*
X020408Y018815D01*
X020313Y018429D02*
X000430Y018429D01*
X000430Y018301D02*
X020242Y018301D01*
X020220Y018172D02*
X000430Y018172D01*
X000430Y018044D02*
X020237Y018044D01*
X020302Y017915D02*
X000430Y017915D01*
X000430Y017787D02*
X020476Y017787D01*
X020358Y015859D02*
X000430Y015859D01*
X000430Y020614D02*
X033576Y020614D01*
X035379Y021899D02*
X001240Y021899D01*
X000973Y021770D02*
X035589Y021770D01*
X035753Y021642D02*
X000812Y021642D01*
X000694Y021513D02*
X035889Y021513D01*
X036009Y021385D02*
X000604Y021385D01*
X000535Y021256D02*
X036109Y021256D01*
X036194Y021128D02*
X000487Y021128D01*
X000456Y020999D02*
X036272Y020999D01*
X036331Y020871D02*
X000437Y020871D01*
X000430Y020742D02*
X036388Y020742D01*
X035099Y022027D02*
X011528Y022027D01*
X020903Y015474D02*
X028357Y015474D01*
X028398Y015514D02*
X028282Y015399D01*
X028220Y015248D01*
X028220Y015085D01*
X028282Y014934D01*
X028398Y014819D01*
X028548Y014757D01*
X028712Y014757D01*
X028862Y014819D01*
X028978Y014934D01*
X029040Y015085D01*
X029040Y015248D01*
X028978Y015399D01*
X028862Y015514D01*
X028712Y015577D01*
X028548Y015577D01*
X028398Y015514D01*
X028260Y015345D02*
X021000Y015345D01*
X021040Y015217D02*
X028220Y015217D01*
X028220Y015088D02*
X021040Y015088D01*
X020988Y014960D02*
X028272Y014960D01*
X028386Y014831D02*
X020874Y014831D01*
X020931Y014446D02*
X021329Y014446D01*
X021249Y014317D02*
X021011Y014317D01*
X021040Y014189D02*
X021220Y014189D01*
X021230Y014060D02*
X021030Y014060D01*
X020975Y013932D02*
X021285Y013932D01*
X021436Y013803D02*
X020824Y013803D01*
X021824Y013803D02*
X022436Y013803D01*
X022285Y013932D02*
X021975Y013932D01*
X022030Y014060D02*
X022230Y014060D01*
X022220Y014189D02*
X022040Y014189D01*
X022011Y014317D02*
X022249Y014317D01*
X022329Y014446D02*
X021931Y014446D01*
X022931Y014446D02*
X023329Y014446D01*
X023249Y014317D02*
X023011Y014317D01*
X023040Y014189D02*
X023220Y014189D01*
X023230Y014060D02*
X023030Y014060D01*
X022975Y013932D02*
X023285Y013932D01*
X023436Y013803D02*
X022824Y013803D01*
X023824Y013803D02*
X024436Y013803D01*
X024285Y013932D02*
X023975Y013932D01*
X024030Y014060D02*
X024230Y014060D01*
X024220Y014189D02*
X024040Y014189D01*
X024011Y014317D02*
X024249Y014317D01*
X024329Y014446D02*
X023931Y014446D01*
X024931Y014446D02*
X025329Y014446D01*
X025249Y014317D02*
X025011Y014317D01*
X025040Y014189D02*
X025220Y014189D01*
X025230Y014060D02*
X025030Y014060D01*
X024975Y013932D02*
X025285Y013932D01*
X025436Y013803D02*
X024824Y013803D01*
X025824Y013803D02*
X026436Y013803D01*
X026285Y013932D02*
X025975Y013932D01*
X026030Y014060D02*
X026230Y014060D01*
X026220Y014189D02*
X026040Y014189D01*
X026011Y014317D02*
X026249Y014317D01*
X026329Y014446D02*
X025931Y014446D01*
X026931Y014446D02*
X027329Y014446D01*
X027249Y014317D02*
X027011Y014317D01*
X027040Y014189D02*
X027220Y014189D01*
X027230Y014060D02*
X027030Y014060D01*
X026975Y013932D02*
X027285Y013932D01*
X027436Y013803D02*
X026824Y013803D01*
X027824Y013803D02*
X028436Y013803D01*
X028285Y013932D02*
X027975Y013932D01*
X028030Y014060D02*
X028230Y014060D01*
X028220Y014189D02*
X028040Y014189D01*
X028011Y014317D02*
X028249Y014317D01*
X028329Y014446D02*
X027931Y014446D01*
X028931Y014446D02*
X029329Y014446D01*
X029249Y014317D02*
X029011Y014317D01*
X029040Y014189D02*
X029220Y014189D01*
X029230Y014060D02*
X029030Y014060D01*
X028975Y013932D02*
X029285Y013932D01*
X029436Y013803D02*
X028824Y013803D01*
X029824Y013803D02*
X030436Y013803D01*
X030398Y013819D02*
X030548Y013757D01*
X030712Y013757D01*
X030862Y013819D01*
X030978Y013934D01*
X031040Y014085D01*
X031040Y014248D01*
X030978Y014399D01*
X030862Y014514D01*
X030712Y014577D01*
X030548Y014577D01*
X030398Y014514D01*
X030282Y014399D01*
X030220Y014248D01*
X030220Y014085D01*
X030282Y013934D01*
X030398Y013819D01*
X030285Y013932D02*
X029975Y013932D01*
X030030Y014060D02*
X030230Y014060D01*
X030220Y014189D02*
X030040Y014189D01*
X030011Y014317D02*
X030249Y014317D01*
X030329Y014446D02*
X029931Y014446D01*
X029386Y014831D02*
X028874Y014831D01*
X028988Y014960D02*
X029272Y014960D01*
X029220Y015088D02*
X029040Y015088D01*
X029040Y015217D02*
X029220Y015217D01*
X029260Y015345D02*
X029000Y015345D01*
X028903Y015474D02*
X029357Y015474D01*
X030718Y014574D02*
X031542Y014574D01*
X031329Y014446D02*
X030931Y014446D01*
X031011Y014317D02*
X031249Y014317D01*
X031220Y014189D02*
X031040Y014189D01*
X031030Y014060D02*
X031230Y014060D01*
X031285Y013932D02*
X030975Y013932D01*
X030824Y013803D02*
X031436Y013803D01*
X031824Y013803D02*
X032365Y013803D01*
X032245Y013932D02*
X031975Y013932D01*
X032030Y014060D02*
X032191Y014060D01*
X032600Y014060D02*
X032660Y014060D01*
X032660Y013932D02*
X032600Y013932D01*
X032600Y013803D02*
X032660Y013803D01*
X032895Y013803D02*
X033436Y013803D01*
X033285Y013932D02*
X033015Y013932D01*
X031495Y010976D02*
X036530Y010976D01*
X036530Y010848D02*
X031468Y010848D01*
X035604Y002752D02*
X006487Y002752D01*
M02*
