%
M48
M72
T01C0.0130
T02C0.0140
T03C0.0380
%
T01
X11980Y8267
X5230Y9917
X14230Y14417
X7480Y16367
T02
X23830Y10867
X31230Y10967
T03
X31630Y14167
X30630Y14167
X29630Y14167
X28630Y14167
X27630Y14167
X26630Y14167
X25630Y14167
X24630Y14167
X23630Y14167
X22630Y14167
X21630Y14167
X20630Y14167
X20630Y15167
X20630Y16167
X20630Y17167
X20630Y18167
X20630Y19167
X20630Y20167
X21630Y20167
X22630Y20167
X23630Y20167
X24630Y20167
X25630Y20167
X26630Y20167
X27630Y20167
X28630Y20167
X29630Y20167
X30630Y20167
X31630Y20167
X32630Y20167
X33630Y20167
X32630Y15167
X32630Y14167
X33630Y14167
X30630Y15167
X29630Y15167
X28630Y15167
M30
