G75*
%MOIN*%
%OFA0B0*%
%FSLAX24Y24*%
%IPPOS*%
%LPD*%
%AMOC8*
5,1,8,0,0,1.08239X$1,22.5*
%
%ADD10C,0.0570*%
%ADD11C,0.0240*%
%ADD12C,0.0270*%
%ADD13C,0.0280*%
%ADD14C,0.0130*%
%ADD15C,0.0160*%
D10*
X020630Y011931D03*
X021630Y011931D03*
X022630Y011931D03*
X023630Y011931D03*
X024630Y011931D03*
X025630Y011931D03*
X026630Y011931D03*
X027630Y011931D03*
X028630Y011931D03*
X029630Y011931D03*
X030630Y011931D03*
X031630Y011931D03*
X032630Y011931D03*
X033630Y011931D03*
X032630Y012931D03*
X030630Y012931D03*
X029630Y012931D03*
X028630Y012931D03*
X020630Y012931D03*
X020630Y013931D03*
X020630Y014931D03*
X020630Y015931D03*
X020630Y016931D03*
X020630Y017931D03*
X021630Y017931D03*
X022630Y017931D03*
X023630Y017931D03*
X024630Y017931D03*
X025630Y017931D03*
X026630Y017931D03*
X027630Y017931D03*
X028630Y017931D03*
X029630Y017931D03*
X030630Y017931D03*
X031630Y017931D03*
X032630Y017931D03*
X033630Y017931D03*
D11*
X008960Y004424D02*
X008096Y004424D01*
X008382Y004185D02*
X008700Y004185D01*
X008549Y004047D02*
X007368Y005031D01*
X007368Y006409D01*
X008549Y005326D01*
X009730Y006409D01*
X010911Y005326D01*
X012092Y006409D01*
X012092Y005031D01*
X010911Y004047D01*
X009730Y005129D01*
X008549Y004047D01*
X009221Y004662D02*
X007810Y004662D01*
X007524Y004901D02*
X009481Y004901D01*
X009979Y004901D02*
X011936Y004901D01*
X012092Y005139D02*
X007368Y005139D01*
X007368Y005378D02*
X008492Y005378D01*
X008605Y005378D02*
X010855Y005378D01*
X010968Y005378D02*
X012092Y005378D01*
X012092Y005616D02*
X011228Y005616D01*
X011488Y005855D02*
X012092Y005855D01*
X012092Y006093D02*
X011748Y006093D01*
X012008Y006332D02*
X012092Y006332D01*
X010594Y005616D02*
X008866Y005616D01*
X009126Y005855D02*
X010334Y005855D01*
X010074Y006093D02*
X009386Y006093D01*
X009646Y006332D02*
X009814Y006332D01*
X008232Y005616D02*
X007368Y005616D01*
X007368Y005855D02*
X007972Y005855D01*
X007712Y006093D02*
X007368Y006093D01*
X007368Y006332D02*
X007452Y006332D01*
X005608Y007569D02*
X004230Y007569D01*
X003246Y008750D01*
X004328Y009931D01*
X003246Y011112D01*
X004230Y012293D01*
X005608Y012293D01*
X004525Y011112D01*
X005608Y009931D01*
X004525Y008750D01*
X005608Y007569D01*
X005430Y007763D02*
X004068Y007763D01*
X003869Y008001D02*
X005211Y008001D01*
X004993Y008240D02*
X003671Y008240D01*
X003472Y008478D02*
X004774Y008478D01*
X004555Y008717D02*
X003273Y008717D01*
X003434Y008955D02*
X004714Y008955D01*
X004932Y009194D02*
X003653Y009194D01*
X003871Y009432D02*
X005151Y009432D01*
X005370Y009671D02*
X004090Y009671D01*
X004309Y009909D02*
X005588Y009909D01*
X005409Y010148D02*
X004129Y010148D01*
X003911Y010386D02*
X005190Y010386D01*
X004972Y010625D02*
X003692Y010625D01*
X003474Y010863D02*
X004753Y010863D01*
X004535Y011102D02*
X003255Y011102D01*
X003436Y011340D02*
X004735Y011340D01*
X004953Y011579D02*
X003635Y011579D01*
X003834Y011817D02*
X005172Y011817D01*
X005391Y012056D02*
X004032Y012056D01*
X007368Y013753D02*
X007368Y015131D01*
X008549Y016115D01*
X009730Y015032D01*
X010911Y016115D01*
X012092Y015131D01*
X012092Y013753D01*
X010911Y014836D01*
X009730Y013753D01*
X008549Y014836D01*
X007368Y013753D01*
X007368Y013964D02*
X007598Y013964D01*
X007368Y014202D02*
X007858Y014202D01*
X008118Y014441D02*
X007368Y014441D01*
X007368Y014679D02*
X008378Y014679D01*
X008719Y014679D02*
X010741Y014679D01*
X011082Y014679D02*
X012092Y014679D01*
X012092Y014441D02*
X011342Y014441D01*
X011602Y014202D02*
X012092Y014202D01*
X012092Y013964D02*
X011862Y013964D01*
X010481Y014441D02*
X008979Y014441D01*
X009240Y014202D02*
X010220Y014202D01*
X009960Y013964D02*
X009500Y013964D01*
X009595Y015156D02*
X007398Y015156D01*
X007368Y014918D02*
X012092Y014918D01*
X012062Y015156D02*
X009865Y015156D01*
X010125Y015395D02*
X011775Y015395D01*
X011489Y015633D02*
X010386Y015633D01*
X010646Y015872D02*
X011203Y015872D01*
X010917Y016110D02*
X010906Y016110D01*
X009335Y015395D02*
X007685Y015395D01*
X007971Y015633D02*
X009074Y015633D01*
X008814Y015872D02*
X008257Y015872D01*
X008543Y016110D02*
X008554Y016110D01*
X013852Y012293D02*
X015230Y012293D01*
X016214Y011112D01*
X015132Y009931D01*
X016214Y008750D01*
X015230Y007569D01*
X013852Y007569D01*
X014935Y008750D01*
X013852Y009931D01*
X014935Y011112D01*
X013852Y012293D01*
X014069Y012056D02*
X015428Y012056D01*
X015626Y011817D02*
X014288Y011817D01*
X014507Y011579D02*
X015825Y011579D01*
X016024Y011340D02*
X014725Y011340D01*
X014925Y011102D02*
X016205Y011102D01*
X015986Y010863D02*
X014707Y010863D01*
X014488Y010625D02*
X015768Y010625D01*
X015549Y010386D02*
X014270Y010386D01*
X014051Y010148D02*
X015331Y010148D01*
X015151Y009909D02*
X013872Y009909D01*
X014090Y009671D02*
X015370Y009671D01*
X015589Y009432D02*
X014309Y009432D01*
X014528Y009194D02*
X015807Y009194D01*
X016026Y008955D02*
X014746Y008955D01*
X014905Y008717D02*
X016187Y008717D01*
X015988Y008478D02*
X014686Y008478D01*
X014467Y008240D02*
X015789Y008240D01*
X015591Y008001D02*
X014249Y008001D01*
X014030Y007763D02*
X015392Y007763D01*
X011650Y004662D02*
X010239Y004662D01*
X010500Y004424D02*
X011364Y004424D01*
X011078Y004185D02*
X010760Y004185D01*
X021694Y006204D02*
X021773Y005951D01*
X021882Y005708D01*
X022019Y005481D01*
X022183Y005272D01*
X022371Y005084D01*
X022580Y004920D01*
X022808Y004783D01*
X023050Y004674D01*
X023304Y004595D01*
X023565Y004547D01*
X023830Y004531D01*
X023930Y004531D01*
X024183Y004546D01*
X024433Y004592D01*
X024675Y004667D01*
X024906Y004771D01*
X025123Y004903D01*
X025323Y005059D01*
X025502Y005238D01*
X025658Y005438D01*
X025789Y005655D01*
X025894Y005886D01*
X025969Y006128D01*
X026015Y006378D01*
X026030Y006631D01*
X026030Y006731D01*
X026014Y006996D01*
X025966Y007257D01*
X025887Y007511D01*
X025778Y007753D01*
X025641Y007981D01*
X025477Y008190D01*
X025289Y008378D01*
X025080Y008541D01*
X024852Y008679D01*
X024610Y008788D01*
X024356Y008867D01*
X024095Y008915D01*
X023830Y008931D01*
X023565Y008915D01*
X023304Y008867D01*
X023050Y008788D01*
X022808Y008679D01*
X022580Y008541D01*
X022371Y008378D01*
X022183Y008190D01*
X022019Y007981D01*
X021882Y007753D01*
X021773Y007511D01*
X021694Y007257D01*
X021646Y006996D01*
X021630Y006731D01*
X021646Y006466D01*
X021694Y006204D01*
X021729Y006093D02*
X025958Y006093D01*
X026006Y006332D02*
X021671Y006332D01*
X021640Y006570D02*
X026026Y006570D01*
X026025Y006809D02*
X021635Y006809D01*
X021655Y007047D02*
X026005Y007047D01*
X025957Y007286D02*
X021703Y007286D01*
X021779Y007524D02*
X025881Y007524D01*
X025772Y007763D02*
X021888Y007763D01*
X022036Y008001D02*
X025624Y008001D01*
X025427Y008240D02*
X022233Y008240D01*
X022500Y008478D02*
X025160Y008478D01*
X024768Y008717D02*
X022892Y008717D01*
X021816Y005855D02*
X025879Y005855D01*
X025766Y005616D02*
X021938Y005616D01*
X022100Y005378D02*
X025611Y005378D01*
X025403Y005139D02*
X022316Y005139D01*
X022612Y004901D02*
X025120Y004901D01*
X024659Y004662D02*
X023087Y004662D01*
X029094Y006304D02*
X029173Y006051D01*
X029282Y005808D01*
X029419Y005581D01*
X029583Y005372D01*
X029771Y005184D01*
X029980Y005020D01*
X030208Y004883D01*
X030450Y004774D01*
X030704Y004695D01*
X030965Y004647D01*
X031230Y004631D01*
X031330Y004631D01*
X031583Y004646D01*
X031833Y004692D01*
X032075Y004767D01*
X032306Y004871D01*
X032523Y005003D01*
X032723Y005159D01*
X032902Y005338D01*
X033058Y005538D01*
X033189Y005755D01*
X033294Y005986D01*
X033369Y006228D01*
X033415Y006478D01*
X033430Y006731D01*
X033430Y006831D01*
X033414Y007096D01*
X033366Y007357D01*
X033287Y007611D01*
X033178Y007853D01*
X033041Y008081D01*
X032877Y008290D01*
X032689Y008478D01*
X032480Y008641D01*
X032252Y008779D01*
X032010Y008888D01*
X031756Y008967D01*
X031495Y009015D01*
X031230Y009031D01*
X030965Y009015D01*
X030704Y008967D01*
X030450Y008888D01*
X030208Y008779D01*
X029980Y008641D01*
X029771Y008478D01*
X029583Y008290D01*
X029419Y008081D01*
X029282Y007853D01*
X029173Y007611D01*
X029094Y007357D01*
X029046Y007096D01*
X029030Y006831D01*
X029046Y006566D01*
X029094Y006304D01*
X029089Y006332D02*
X033388Y006332D01*
X033420Y006570D02*
X029046Y006570D01*
X029031Y006809D02*
X033430Y006809D01*
X033417Y007047D02*
X029043Y007047D01*
X029081Y007286D02*
X033379Y007286D01*
X033314Y007524D02*
X029146Y007524D01*
X029241Y007763D02*
X033219Y007763D01*
X033088Y008001D02*
X029372Y008001D01*
X029544Y008240D02*
X032916Y008240D01*
X032688Y008478D02*
X029772Y008478D01*
X030105Y008717D02*
X032355Y008717D01*
X031794Y008955D02*
X030666Y008955D01*
X029160Y006093D02*
X033327Y006093D01*
X033234Y005855D02*
X029261Y005855D01*
X029398Y005616D02*
X033106Y005616D01*
X032933Y005378D02*
X029579Y005378D01*
X029828Y005139D02*
X032698Y005139D01*
X032355Y004901D02*
X030178Y004901D01*
X030880Y004662D02*
X031671Y004662D01*
D12*
X014230Y012181D03*
X007480Y014131D03*
X005230Y007681D03*
X011980Y006031D03*
D13*
X023830Y008631D03*
X031230Y008731D03*
D14*
X029630Y010331D01*
X029630Y011931D01*
X030630Y012931D02*
X031630Y011931D01*
X030630Y012931D02*
X027630Y015931D01*
X020630Y015931D01*
X018030Y012931D02*
X008680Y012931D01*
X007480Y014131D01*
X014230Y012181D02*
X018280Y012181D01*
X019730Y010731D01*
X022430Y010731D01*
X023630Y011931D01*
X022630Y011931D02*
X021830Y011131D01*
X019830Y011131D01*
X018030Y012931D01*
X023830Y008631D02*
X026630Y011431D01*
X026630Y011931D01*
D15*
X025630Y011931D02*
X023730Y010031D01*
X021330Y010031D01*
X017330Y006031D01*
X011980Y006031D01*
X013430Y006731D02*
X017130Y006731D01*
X020830Y010431D01*
X023130Y010431D01*
X024630Y011931D01*
X013430Y006731D02*
X012480Y007681D01*
X005230Y007681D01*
M02*
