G75*
%MOIN*%
%OFA0B0*%
%FSLAX24Y24*%
%IPPOS*%
%LPD*%
%AMOC8*
5,1,8,0,0,1.08239X$1,22.5*
%
%ADD10C,0.0200*%
%ADD11C,0.0160*%
%ADD12C,0.0140*%
%ADD13R,0.0075X0.0025*%
%ADD14R,0.0124X0.0025*%
%ADD15R,0.0051X0.0025*%
%ADD16R,0.0050X0.0025*%
%ADD17R,0.0100X0.0025*%
%ADD18R,0.0026X0.0025*%
%ADD19R,0.0025X0.0025*%
%ADD20R,0.0049X0.0025*%
%ADD21R,0.0076X0.0025*%
%ADD22R,0.0174X0.0025*%
%ADD23R,0.0149X0.0025*%
%ADD24R,0.0101X0.0025*%
%ADD25R,0.0024X0.0025*%
%ADD26R,0.0151X0.0025*%
%ADD27R,0.0199X0.0025*%
%ADD28R,0.0125X0.0025*%
%ADD29R,0.0200X0.0025*%
%ADD30R,0.0250X0.0025*%
%ADD31R,0.0099X0.0025*%
%ADD32R,0.0176X0.0025*%
%ADD33R,0.0225X0.0025*%
%ADD34R,0.0126X0.0025*%
%ADD35R,0.0074X0.0025*%
%ADD36R,0.0300X0.0025*%
%ADD37R,0.0374X0.0025*%
%ADD38R,0.0525X0.0025*%
%ADD39R,0.0326X0.0025*%
%ADD40R,0.0275X0.0025*%
%ADD41R,0.0201X0.0025*%
%ADD42R,0.0150X0.0025*%
%ADD43R,0.0175X0.0025*%
%ADD44R,0.0224X0.0025*%
%ADD45R,0.0249X0.0025*%
%ADD46R,0.0625X0.0025*%
%ADD47R,0.0226X0.0025*%
%ADD48R,0.0950X0.0025*%
%ADD49R,0.1250X0.0025*%
%ADD50R,0.1276X0.0025*%
%ADD51R,0.1500X0.0025*%
%ADD52R,0.1524X0.0025*%
%ADD53R,0.1699X0.0025*%
%ADD54R,0.1724X0.0025*%
%ADD55R,0.1926X0.0025*%
%ADD56R,0.2101X0.0025*%
%ADD57R,0.2125X0.0025*%
%ADD58R,0.2275X0.0025*%
%ADD59R,0.2425X0.0025*%
%ADD60R,0.2400X0.0025*%
%ADD61R,0.2600X0.0025*%
%ADD62R,0.2551X0.0025*%
%ADD63R,0.2650X0.0025*%
%ADD64R,0.2625X0.0025*%
%ADD65R,0.2500X0.0025*%
%ADD66R,0.2599X0.0025*%
%ADD67R,0.2450X0.0025*%
%ADD68R,0.2300X0.0025*%
%ADD69R,0.2150X0.0025*%
%ADD70R,0.2175X0.0025*%
%ADD71R,0.2001X0.0025*%
%ADD72R,0.1976X0.0025*%
%ADD73R,0.1951X0.0025*%
%ADD74R,0.1824X0.0025*%
%ADD75R,0.1799X0.0025*%
%ADD76R,0.1774X0.0025*%
%ADD77R,0.1351X0.0025*%
%ADD78R,0.1150X0.0025*%
%ADD79R,0.1175X0.0025*%
%ADD80R,0.0701X0.0025*%
%ADD81R,0.0726X0.0025*%
%ADD82R,0.0251X0.0025*%
%ADD83R,0.0274X0.0025*%
%ADD84R,0.0449X0.0025*%
%ADD85R,0.0524X0.0025*%
%ADD86R,0.0399X0.0025*%
%ADD87R,0.0376X0.0025*%
%ADD88R,0.0575X0.0025*%
%ADD89R,0.0800X0.0025*%
%ADD90R,0.0401X0.0025*%
%ADD91R,0.0351X0.0025*%
%ADD92R,0.0276X0.0025*%
%ADD93R,0.0476X0.0025*%
%ADD94R,0.0325X0.0025*%
%ADD95R,0.0350X0.0025*%
%ADD96R,0.0301X0.0025*%
%ADD97R,0.0425X0.0025*%
%ADD98R,0.0375X0.0025*%
%ADD99R,0.0324X0.0025*%
%ADD100R,0.0400X0.0025*%
%ADD101R,0.1074X0.0025*%
%ADD102R,0.0951X0.0025*%
%ADD103R,0.0451X0.0025*%
%ADD104R,0.0676X0.0025*%
%ADD105R,0.0599X0.0025*%
%ADD106R,0.0725X0.0025*%
%ADD107R,0.0600X0.0025*%
%ADD108R,0.0475X0.0025*%
%ADD109R,0.0551X0.0025*%
%ADD110R,0.0499X0.0025*%
%ADD111R,0.0574X0.0025*%
%ADD112C,0.0080*%
D10*
X006730Y004531D02*
X006730Y007031D01*
X007730Y007031D01*
X008530Y006231D01*
X009730Y007331D01*
X010930Y006231D01*
X011730Y007031D01*
X012730Y007031D01*
X012730Y004531D01*
X009730Y001931D01*
X006730Y004531D01*
X006230Y006931D02*
X003730Y006931D01*
X001130Y009931D01*
X003730Y012931D01*
X006230Y012931D01*
X006130Y011831D01*
X005430Y011131D01*
X006530Y009931D01*
X005430Y008731D01*
X006230Y007931D01*
X006230Y006931D01*
X012930Y009931D02*
X014030Y011131D01*
X014030Y011231D01*
X013330Y011931D01*
X013330Y012931D01*
X015730Y012931D01*
X018330Y009931D01*
X014030Y008731D02*
X012930Y009931D01*
X014030Y008731D02*
X013230Y007931D01*
X013230Y007031D01*
X013330Y006931D01*
X015730Y006931D01*
X009730Y012731D02*
X008530Y013831D01*
X007630Y012931D01*
X006730Y012931D01*
X006730Y015531D01*
X009730Y018131D01*
X012730Y015531D01*
X012730Y013131D01*
X012630Y013031D01*
X011730Y013031D01*
X010930Y013831D01*
X009730Y012731D01*
D11*
X015830Y007031D02*
X018330Y009931D01*
D12*
X029300Y002868D02*
X029680Y002868D01*
X029807Y002741D01*
X029807Y002234D01*
X029680Y002107D01*
X029300Y002107D01*
X029300Y002868D01*
X030129Y002614D02*
X030382Y002868D01*
X030636Y002614D01*
X030636Y002107D01*
X030957Y002107D02*
X030957Y002868D01*
X031465Y002107D01*
X031465Y002868D01*
X031786Y002741D02*
X031786Y002234D01*
X031913Y002107D01*
X032166Y002107D01*
X032293Y002234D01*
X032615Y002107D02*
X033122Y002107D01*
X032615Y002107D02*
X032615Y002868D01*
X033122Y002868D01*
X032868Y002487D02*
X032615Y002487D01*
X032293Y002741D02*
X032166Y002868D01*
X031913Y002868D01*
X031786Y002741D01*
X030636Y002487D02*
X030129Y002487D01*
X030129Y002614D02*
X030129Y002107D01*
X030382Y001761D02*
X030636Y001508D01*
X030636Y001001D01*
X030957Y001001D02*
X030957Y001761D01*
X031338Y001761D01*
X031465Y001635D01*
X031465Y001381D01*
X031338Y001254D01*
X030957Y001254D01*
X031211Y001254D02*
X031465Y001001D01*
X032040Y001001D02*
X032040Y001761D01*
X032293Y001761D02*
X031786Y001761D01*
X032615Y001761D02*
X032615Y001635D01*
X032868Y001381D01*
X032868Y001001D01*
X032868Y001381D02*
X033122Y001635D01*
X033122Y001761D01*
X030636Y001381D02*
X030129Y001381D01*
X030129Y001508D02*
X030382Y001761D01*
X030129Y001508D02*
X030129Y001001D01*
X029807Y001381D02*
X029680Y001254D01*
X029300Y001254D01*
X029807Y001381D02*
X029807Y001635D01*
X029680Y001761D01*
X029300Y001761D01*
X029300Y001001D01*
X025317Y002007D02*
X024810Y002007D01*
X024810Y002768D01*
X025317Y002768D01*
X025063Y002387D02*
X024810Y002387D01*
X024488Y002768D02*
X023981Y002768D01*
X024235Y002768D02*
X024235Y002007D01*
X023682Y002007D02*
X023429Y002007D01*
X023555Y002007D02*
X023555Y002768D01*
X023429Y002768D02*
X023682Y002768D01*
X023107Y002641D02*
X023107Y002514D01*
X022980Y002387D01*
X022600Y002387D01*
X022980Y002387D02*
X023107Y002261D01*
X023107Y002134D01*
X022980Y002007D01*
X022600Y002007D01*
X022600Y002768D01*
X022980Y002768D01*
X023107Y002641D01*
D13*
X024215Y004606D03*
X024240Y004831D03*
X024365Y004881D03*
X024440Y004781D03*
X024465Y004706D03*
X024040Y004906D03*
X023990Y004856D03*
X024290Y005256D03*
X024265Y005381D03*
X024265Y005406D03*
X024415Y005481D03*
X024440Y005306D03*
X024615Y005431D03*
X024715Y005481D03*
X024840Y005431D03*
X024815Y005581D03*
X024890Y005656D03*
X024965Y005756D03*
X025015Y005781D03*
X025015Y005831D03*
X024965Y005956D03*
X024865Y005856D03*
X024665Y005681D03*
X025140Y005781D03*
X025290Y005556D03*
X025290Y005531D03*
X025290Y005506D03*
X025090Y005306D03*
X024665Y005256D03*
X024890Y005056D03*
X024065Y005306D03*
X024065Y005331D03*
X024065Y005356D03*
X023265Y005481D03*
X023140Y005556D03*
X023140Y005581D03*
X023140Y005606D03*
X022965Y005531D03*
X022840Y005381D03*
X022865Y005356D03*
X022740Y005506D03*
X022665Y005581D03*
X022740Y005756D03*
X022240Y005681D03*
X022165Y005906D03*
X021890Y006031D03*
X021840Y005981D03*
X021840Y006106D03*
X021715Y006081D03*
X021565Y006381D03*
X021790Y006481D03*
X021715Y006756D03*
X022315Y006531D03*
X022340Y006581D03*
X022340Y006606D03*
X022640Y006506D03*
X022965Y007081D03*
X022990Y007131D03*
X023165Y007106D03*
X023165Y007081D03*
X023340Y007256D03*
X023340Y007281D03*
X023340Y007406D03*
X023140Y007481D03*
X023790Y007306D03*
X024065Y007256D03*
X024115Y007356D03*
X024115Y007381D03*
X024215Y007456D03*
X024365Y007406D03*
X024390Y007381D03*
X024390Y007356D03*
X024490Y007306D03*
X024615Y007406D03*
X024590Y007431D03*
X024465Y007531D03*
X024390Y007581D03*
X024865Y007781D03*
X024890Y007756D03*
X024890Y007731D03*
X024915Y007706D03*
X024690Y008031D03*
X024690Y008056D03*
X024690Y008281D03*
X024340Y008256D03*
X023340Y008256D03*
X023340Y008281D03*
X023015Y008181D03*
X023015Y008131D03*
X022990Y008056D03*
X022990Y008031D03*
X023290Y008581D03*
X023290Y008606D03*
X023315Y008631D03*
X023565Y008956D03*
X023590Y008981D03*
X023965Y009106D03*
X024015Y009081D03*
X024040Y009056D03*
X024065Y009031D03*
X024815Y007206D03*
X024815Y007181D03*
X024690Y007006D03*
X024690Y006981D03*
X024690Y006956D03*
X024840Y006906D03*
X024915Y006781D03*
X025290Y006756D03*
X025290Y006731D03*
X025290Y006706D03*
X025315Y006681D03*
X025315Y006656D03*
X025665Y006381D03*
X025765Y006656D03*
X026165Y006331D03*
X026240Y006431D03*
X026165Y006056D03*
X026140Y006031D03*
X026115Y006006D03*
X026090Y005981D03*
X026065Y005956D03*
X025715Y005906D03*
X025640Y005806D03*
X025490Y005831D03*
X025490Y005856D03*
X025490Y005881D03*
X025490Y005906D03*
X025490Y006131D03*
X025240Y006131D03*
X025240Y006106D03*
X025690Y005556D03*
X025715Y005531D03*
X025965Y005456D03*
X025965Y005431D03*
X026065Y005456D03*
X026090Y005631D03*
X026290Y005681D03*
X027120Y006146D03*
X028245Y005671D03*
X028695Y005471D03*
X028720Y005446D03*
X028745Y005421D03*
X029070Y005121D03*
X029095Y005096D03*
X029795Y005371D03*
X029820Y005396D03*
X029845Y005421D03*
X029870Y005446D03*
X029895Y005471D03*
X029795Y005471D03*
X030045Y005446D03*
X030070Y005471D03*
X030220Y005921D03*
X030295Y006021D03*
X030320Y006046D03*
X030345Y006096D03*
X030445Y006246D03*
X030495Y006321D03*
X030520Y006371D03*
X030545Y006396D03*
X030645Y006571D03*
X030670Y006596D03*
X030670Y006621D03*
X030695Y006646D03*
X030695Y006671D03*
X030720Y006696D03*
X030745Y006721D03*
X030770Y006771D03*
X030870Y006921D03*
X030920Y006996D03*
X030945Y007021D03*
X030970Y007046D03*
X030995Y007096D03*
X031020Y007121D03*
X031045Y007146D03*
X031070Y007171D03*
X031095Y007196D03*
X031145Y007271D03*
X029620Y007921D03*
X029620Y007946D03*
X029620Y007971D03*
X028995Y008446D03*
X028970Y008471D03*
X028445Y009046D03*
X028420Y009096D03*
X028395Y009121D03*
X028395Y009146D03*
X028370Y009196D03*
X028370Y009221D03*
X028370Y009671D03*
X028370Y009696D03*
X028395Y009746D03*
X028395Y009771D03*
X028420Y009796D03*
X028445Y009846D03*
X029445Y009771D03*
X029470Y009721D03*
X029470Y009696D03*
X029495Y009671D03*
X029495Y009646D03*
X029520Y009596D03*
X029520Y009571D03*
X029520Y009546D03*
X029520Y009521D03*
X029520Y009421D03*
X029520Y009396D03*
X029520Y009371D03*
X029520Y009346D03*
X029495Y009321D03*
X029495Y009296D03*
X029495Y009271D03*
X029470Y009221D03*
X029445Y009171D03*
X029420Y009146D03*
X029620Y009046D03*
X029620Y009021D03*
X029645Y009071D03*
X029670Y009096D03*
X029670Y009121D03*
X029695Y009146D03*
X029695Y009171D03*
X029695Y009196D03*
X029720Y009221D03*
X029720Y009246D03*
X029720Y009271D03*
X029745Y009346D03*
X029745Y009371D03*
X029745Y009571D03*
X029745Y009596D03*
X029745Y009621D03*
X029745Y009646D03*
X029720Y009671D03*
X029720Y009696D03*
X029720Y009721D03*
X029695Y009746D03*
X029695Y009771D03*
X029670Y009796D03*
X029645Y009821D03*
X029645Y009846D03*
X029620Y009871D03*
X030645Y009471D03*
X030695Y009371D03*
X030745Y009221D03*
X030745Y009196D03*
X030745Y009171D03*
X030770Y009096D03*
X030870Y008921D03*
X030870Y008896D03*
X030945Y008746D03*
X030970Y008721D03*
X030970Y008696D03*
X030995Y008646D03*
X031020Y008596D03*
X031045Y008571D03*
X031070Y008521D03*
X031095Y008496D03*
X031095Y008471D03*
X031120Y008421D03*
X031145Y008346D03*
X031170Y008321D03*
X031170Y008296D03*
X031745Y008646D03*
X031695Y008721D03*
X031495Y008921D03*
X033970Y009271D03*
X033945Y009671D03*
X033945Y009696D03*
X034095Y008871D03*
X034570Y008846D03*
X034620Y008596D03*
X034620Y008571D03*
X034695Y008421D03*
X034645Y008346D03*
X034620Y008321D03*
X033970Y008421D03*
X033470Y007546D03*
X033320Y007321D03*
X033370Y007021D03*
X033995Y006446D03*
X034095Y006246D03*
X032070Y005871D03*
X031670Y005471D03*
X030670Y004996D03*
X030645Y004946D03*
X030545Y004846D03*
X030545Y004821D03*
X030520Y004796D03*
X030495Y004771D03*
X030470Y004746D03*
X030445Y004721D03*
X030470Y004871D03*
X029270Y004471D03*
X029095Y004071D03*
X029070Y004046D03*
X028695Y004046D03*
X028695Y004071D03*
X028695Y004096D03*
X028695Y004021D03*
X028695Y003971D03*
X028695Y004321D03*
X028670Y004446D03*
X028270Y004871D03*
X028145Y005021D03*
X028120Y005046D03*
X028045Y005146D03*
X026115Y005106D03*
X023140Y005106D03*
X022640Y004881D03*
X022965Y004756D03*
X022315Y005156D03*
X022090Y005356D03*
X022015Y005506D03*
X021815Y005781D03*
X021465Y005156D03*
X021390Y005106D03*
X025240Y007006D03*
X028995Y006696D03*
X029345Y007046D03*
X029095Y007346D03*
X029070Y007371D03*
X029045Y007421D03*
X029045Y007446D03*
X030520Y005996D03*
X030470Y005921D03*
X028745Y003596D03*
X028720Y003571D03*
D14*
X028545Y003471D03*
X029145Y004196D03*
X029170Y004296D03*
X030545Y004971D03*
X031745Y005621D03*
X033770Y006271D03*
X033520Y006896D03*
X033420Y006971D03*
X033145Y007371D03*
X032845Y008746D03*
X033045Y008871D03*
X033420Y008996D03*
X033670Y009221D03*
X033520Y009521D03*
X033570Y009871D03*
X028245Y005771D03*
X028195Y005796D03*
X028145Y005821D03*
X028445Y005646D03*
X028545Y005571D03*
X025190Y005656D03*
X025190Y006206D03*
X025190Y006231D03*
X025140Y006356D03*
X023415Y007131D03*
X023690Y007556D03*
X022840Y007831D03*
X022765Y006881D03*
X022190Y005856D03*
X022190Y005756D03*
X023065Y005456D03*
X023040Y005231D03*
X023090Y005206D03*
X023115Y005181D03*
X023440Y005481D03*
X023440Y005506D03*
X023915Y004906D03*
X023715Y004631D03*
X022740Y004831D03*
D15*
X022603Y004931D03*
X022578Y004956D03*
X022578Y004981D03*
X022578Y005006D03*
X022903Y004931D03*
X022928Y005006D03*
X022928Y005031D03*
X023228Y005056D03*
X023828Y004856D03*
X024178Y004856D03*
X024178Y004631D03*
X024753Y004981D03*
X025428Y005406D03*
X025403Y005706D03*
X025428Y005781D03*
X024778Y005756D03*
X024778Y005731D03*
X023828Y005281D03*
X023853Y005231D03*
X022903Y005706D03*
X022903Y005731D03*
X022578Y005706D03*
X022603Y005906D03*
X022578Y005981D03*
X022578Y006081D03*
X022578Y006106D03*
X022453Y006106D03*
X022453Y006081D03*
X022453Y006056D03*
X022453Y006006D03*
X022453Y005981D03*
X022453Y005956D03*
X021903Y005931D03*
X021903Y005831D03*
X021753Y005856D03*
X021753Y005881D03*
X021553Y005831D03*
X021553Y005956D03*
X021478Y006031D03*
X021553Y006131D03*
X021753Y006356D03*
X021728Y006381D03*
X021903Y006131D03*
X022253Y006331D03*
X022253Y006356D03*
X022278Y006406D03*
X022278Y006431D03*
X022453Y006831D03*
X022578Y007056D03*
X022603Y007106D03*
X022903Y007006D03*
X022928Y007031D03*
X022903Y007231D03*
X022928Y007256D03*
X023203Y007306D03*
X023228Y007531D03*
X022603Y007631D03*
X023528Y007281D03*
X023528Y007256D03*
X023528Y007231D03*
X023203Y007056D03*
X023853Y007506D03*
X023853Y007531D03*
X023853Y007556D03*
X024153Y007506D03*
X024178Y007256D03*
X024753Y007056D03*
X024778Y007031D03*
X024778Y007231D03*
X024778Y008156D03*
X024753Y008181D03*
X024753Y008206D03*
X024153Y008956D03*
X023528Y008931D03*
X023228Y008381D03*
X023203Y008356D03*
X023203Y008306D03*
X023203Y008281D03*
X022928Y008206D03*
X022903Y008181D03*
X026028Y005756D03*
X026003Y005206D03*
X026028Y005181D03*
X028308Y005646D03*
X030183Y005596D03*
X033333Y007046D03*
X033333Y007346D03*
X033333Y007596D03*
X033333Y007621D03*
X033333Y007971D03*
X034583Y008496D03*
X034583Y008821D03*
X030833Y008971D03*
X030833Y009246D03*
X030833Y009271D03*
X028333Y009346D03*
X028333Y009371D03*
X028333Y009421D03*
X028333Y009446D03*
X028333Y009496D03*
X028333Y009521D03*
X028333Y009546D03*
X033908Y006571D03*
X022428Y005456D03*
X022278Y005331D03*
X022278Y005306D03*
X022128Y005231D03*
X022103Y005281D03*
X022103Y005306D03*
X022103Y005331D03*
X022128Y005431D03*
X022128Y005456D03*
X022128Y005481D03*
X022103Y005531D03*
X022103Y005556D03*
X022278Y005656D03*
X021478Y005181D03*
D16*
X021528Y005306D03*
X021528Y005331D03*
X021528Y005381D03*
X021627Y005456D03*
X021603Y005481D03*
X021653Y005431D03*
X022028Y005456D03*
X022028Y005481D03*
X022028Y005531D03*
X022028Y005556D03*
X022303Y005631D03*
X022328Y005606D03*
X022328Y005581D03*
X022353Y005556D03*
X022303Y005281D03*
X022478Y005281D03*
X022703Y005531D03*
X022678Y005556D03*
X022628Y005631D03*
X022703Y005781D03*
X022678Y005831D03*
X022628Y005881D03*
X022728Y005906D03*
X022728Y005931D03*
X022728Y005956D03*
X022653Y006006D03*
X022653Y006031D03*
X022478Y006131D03*
X022478Y006156D03*
X022328Y006006D03*
X022353Y005956D03*
X022353Y005931D03*
X022353Y005906D03*
X022353Y005881D03*
X022478Y005881D03*
X022478Y005906D03*
X022478Y005931D03*
X022503Y005856D03*
X022503Y005831D03*
X022827Y005831D03*
X022827Y005856D03*
X022852Y005606D03*
X022753Y005481D03*
X022827Y005406D03*
X022978Y005506D03*
X023003Y005481D03*
X023127Y005506D03*
X023127Y005531D03*
X023028Y005631D03*
X023028Y005656D03*
X023028Y005681D03*
X023278Y005456D03*
X023278Y005431D03*
X023603Y005381D03*
X023678Y005406D03*
X023678Y005431D03*
X023678Y005456D03*
X023802Y005456D03*
X023802Y005431D03*
X023628Y005306D03*
X023628Y005281D03*
X022953Y005106D03*
X022852Y005131D03*
X022852Y004981D03*
X022877Y004956D03*
X022953Y004956D03*
X022978Y004931D03*
X022978Y004806D03*
X022978Y004781D03*
X023003Y004731D03*
X023127Y004806D03*
X023152Y004781D03*
X023177Y004756D03*
X023177Y004731D03*
X023328Y004931D03*
X023303Y004956D03*
X023378Y004881D03*
X023802Y004831D03*
X023802Y004806D03*
X023802Y004781D03*
X023802Y004756D03*
X023802Y004656D03*
X023653Y004656D03*
X024002Y004831D03*
X024127Y004781D03*
X024127Y004731D03*
X024228Y004781D03*
X024228Y004806D03*
X024253Y004756D03*
X024278Y004706D03*
X024278Y004631D03*
X024503Y004731D03*
X024727Y004856D03*
X024727Y004881D03*
X024727Y004906D03*
X024828Y004906D03*
X024828Y004881D03*
X024828Y004856D03*
X024828Y004981D03*
X024828Y005006D03*
X024978Y005106D03*
X024978Y005156D03*
X024978Y005181D03*
X024978Y005206D03*
X024978Y005231D03*
X024978Y005256D03*
X024978Y005281D03*
X024978Y005306D03*
X024978Y005331D03*
X025003Y005356D03*
X025128Y005356D03*
X025128Y005331D03*
X025277Y005331D03*
X025277Y005356D03*
X025277Y005381D03*
X025277Y005406D03*
X025277Y005431D03*
X025277Y005456D03*
X025277Y005481D03*
X025252Y005631D03*
X025352Y005631D03*
X025503Y005631D03*
X025503Y005656D03*
X025528Y005681D03*
X025503Y005781D03*
X025503Y005956D03*
X025503Y005981D03*
X025503Y006006D03*
X025377Y006006D03*
X025352Y006031D03*
X025252Y006056D03*
X025252Y006081D03*
X025227Y005981D03*
X025227Y005956D03*
X025153Y006006D03*
X025128Y005981D03*
X025078Y005931D03*
X024978Y005931D03*
X025028Y005806D03*
X025128Y005756D03*
X025128Y005731D03*
X025103Y005706D03*
X025078Y005681D03*
X025128Y005631D03*
X025103Y005606D03*
X025078Y005581D03*
X025053Y005556D03*
X025053Y005531D03*
X025003Y005581D03*
X025028Y005606D03*
X024978Y005556D03*
X024953Y005531D03*
X024928Y005506D03*
X024828Y005606D03*
X024727Y005531D03*
X024727Y005506D03*
X024677Y005606D03*
X024677Y005631D03*
X024677Y005656D03*
X024878Y005806D03*
X024878Y005831D03*
X024928Y005706D03*
X025153Y005806D03*
X025128Y006056D03*
X025128Y006081D03*
X025103Y006106D03*
X025153Y006381D03*
X025053Y006506D03*
X025053Y006531D03*
X024978Y006656D03*
X025003Y006731D03*
X024903Y006731D03*
X024928Y006806D03*
X024953Y006881D03*
X024953Y006906D03*
X024928Y006931D03*
X024928Y006956D03*
X024903Y007006D03*
X024878Y007056D03*
X024878Y007081D03*
X024853Y007106D03*
X024853Y007131D03*
X024828Y007156D03*
X024727Y007081D03*
X024677Y007131D03*
X024652Y007156D03*
X024627Y007181D03*
X024727Y007306D03*
X024702Y007331D03*
X024677Y007356D03*
X024652Y007381D03*
X024453Y007331D03*
X024353Y007306D03*
X024353Y007281D03*
X024353Y007256D03*
X024303Y007181D03*
X024303Y007156D03*
X024403Y007156D03*
X024403Y007131D03*
X024503Y007056D03*
X024577Y007006D03*
X024803Y007006D03*
X024828Y006981D03*
X024853Y006931D03*
X024803Y006831D03*
X025128Y007006D03*
X025103Y007056D03*
X025153Y006956D03*
X025252Y006981D03*
X025227Y007056D03*
X025227Y007081D03*
X025227Y007106D03*
X025277Y006881D03*
X025227Y006831D03*
X025327Y006631D03*
X025327Y006606D03*
X025352Y006581D03*
X025352Y006556D03*
X025678Y006656D03*
X025753Y006481D03*
X025852Y006556D03*
X025852Y006406D03*
X025728Y006331D03*
X025753Y006281D03*
X025753Y006256D03*
X025753Y006231D03*
X025753Y006206D03*
X025728Y006081D03*
X025703Y006006D03*
X025703Y005981D03*
X025703Y005956D03*
X025703Y005881D03*
X025778Y005981D03*
X025877Y005956D03*
X025927Y006006D03*
X025927Y006031D03*
X025952Y006106D03*
X025977Y006181D03*
X026078Y006256D03*
X026103Y006281D03*
X026228Y006281D03*
X026228Y006156D03*
X026203Y006106D03*
X026178Y006081D03*
X026078Y005906D03*
X026078Y005881D03*
X026078Y005856D03*
X026053Y005781D03*
X025977Y005706D03*
X026128Y005656D03*
X026153Y005681D03*
X026178Y005731D03*
X026303Y005706D03*
X026203Y005556D03*
X025977Y005531D03*
X025977Y005481D03*
X025952Y005406D03*
X025952Y005381D03*
X025952Y005356D03*
X026053Y005156D03*
X026078Y005131D03*
X026178Y005081D03*
X025778Y005556D03*
X025703Y005581D03*
X025703Y005606D03*
X025703Y005631D03*
X025728Y005656D03*
X025728Y005681D03*
X025728Y005706D03*
X025453Y005456D03*
X025453Y005431D03*
X025377Y005331D03*
X025302Y005306D03*
X025227Y004981D03*
X025153Y004981D03*
X024727Y005306D03*
X024627Y005231D03*
X024602Y005206D03*
X024478Y005106D03*
X024453Y005081D03*
X024403Y004981D03*
X024303Y005131D03*
X024253Y005331D03*
X024253Y005356D03*
X024102Y005381D03*
X024102Y005406D03*
X024102Y005431D03*
X024102Y005456D03*
X024027Y005456D03*
X024027Y005431D03*
X024027Y005406D03*
X024027Y005381D03*
X024077Y005256D03*
X024428Y005381D03*
X024428Y005406D03*
X024428Y005431D03*
X024428Y005456D03*
X024602Y005406D03*
X024602Y005381D03*
X025478Y006156D03*
X025478Y006181D03*
X025478Y006206D03*
X025578Y006131D03*
X025603Y006231D03*
X025603Y006256D03*
X025603Y006281D03*
X026278Y006456D03*
X028133Y005696D03*
X029982Y005771D03*
X029982Y005821D03*
X030107Y005821D03*
X030233Y005946D03*
X030258Y005971D03*
X030283Y005996D03*
X030333Y006071D03*
X030358Y006121D03*
X030383Y006146D03*
X030408Y006171D03*
X030408Y006196D03*
X030433Y006221D03*
X030458Y006271D03*
X030483Y006296D03*
X030508Y006346D03*
X030558Y006421D03*
X030632Y006546D03*
X031083Y006846D03*
X031108Y006871D03*
X031183Y006996D03*
X031257Y007421D03*
X031257Y007446D03*
X031257Y007471D03*
X031257Y007496D03*
X031257Y007521D03*
X031257Y007546D03*
X031257Y007571D03*
X031257Y007596D03*
X031257Y007621D03*
X031257Y007646D03*
X031257Y007671D03*
X031257Y007696D03*
X031257Y007721D03*
X031257Y007746D03*
X031257Y007771D03*
X031257Y007796D03*
X031257Y007821D03*
X031257Y008071D03*
X031257Y008096D03*
X031183Y008271D03*
X031133Y008371D03*
X031133Y008396D03*
X031108Y008446D03*
X031058Y008546D03*
X031008Y008621D03*
X030983Y008671D03*
X030908Y008821D03*
X030908Y008846D03*
X030883Y008871D03*
X030782Y009046D03*
X030782Y009071D03*
X030757Y009121D03*
X030757Y009146D03*
X030732Y009246D03*
X031108Y009146D03*
X031858Y008471D03*
X031882Y008421D03*
X031908Y008371D03*
X031932Y008346D03*
X031958Y008296D03*
X031982Y008271D03*
X031982Y008246D03*
X032008Y008221D03*
X032032Y008196D03*
X032257Y007946D03*
X033132Y007621D03*
X033158Y007546D03*
X033158Y007521D03*
X033158Y007496D03*
X033258Y007596D03*
X033232Y007621D03*
X033232Y007646D03*
X033232Y007671D03*
X033208Y007696D03*
X033208Y007721D03*
X033308Y007746D03*
X033308Y007771D03*
X033282Y007846D03*
X033383Y007871D03*
X033433Y007996D03*
X033208Y007921D03*
X033583Y007721D03*
X033607Y007746D03*
X033633Y007771D03*
X033633Y007796D03*
X033657Y007821D03*
X033683Y007846D03*
X033683Y007871D03*
X033707Y007896D03*
X033733Y007946D03*
X033757Y007971D03*
X033757Y007996D03*
X033783Y008021D03*
X033807Y008071D03*
X033833Y008121D03*
X033883Y008221D03*
X033883Y008246D03*
X033783Y008296D03*
X033857Y008446D03*
X033983Y008446D03*
X034008Y008296D03*
X034008Y008271D03*
X034033Y008246D03*
X034033Y008221D03*
X034058Y008196D03*
X034132Y008196D03*
X034358Y008296D03*
X034382Y008346D03*
X034382Y008371D03*
X034408Y008396D03*
X034408Y008421D03*
X034408Y008446D03*
X034408Y008471D03*
X034432Y008496D03*
X034432Y008521D03*
X034432Y008546D03*
X034458Y008571D03*
X034458Y008596D03*
X034482Y008621D03*
X034633Y008621D03*
X034733Y008696D03*
X034608Y008771D03*
X034558Y008871D03*
X034532Y008921D03*
X034532Y008946D03*
X034508Y008971D03*
X034482Y008996D03*
X034358Y009146D03*
X034332Y009171D03*
X034282Y009071D03*
X034208Y008971D03*
X034182Y008946D03*
X034058Y008821D03*
X034033Y008796D03*
X034033Y008771D03*
X034008Y008746D03*
X034008Y008721D03*
X033933Y008621D03*
X034608Y008296D03*
X034658Y008371D03*
X034683Y008396D03*
X034708Y008446D03*
X034708Y008471D03*
X034733Y008496D03*
X034733Y008521D03*
X033507Y009146D03*
X033433Y009321D03*
X033433Y009346D03*
X033132Y009271D03*
X033108Y009246D03*
X033058Y009171D03*
X033032Y009146D03*
X033032Y009121D03*
X033008Y009096D03*
X032982Y009046D03*
X032982Y009021D03*
X032958Y008996D03*
X032958Y008971D03*
X032958Y008946D03*
X033507Y009721D03*
X033507Y009746D03*
X033533Y009796D03*
X033583Y010096D03*
X033583Y010121D03*
X033583Y010146D03*
X033583Y010171D03*
X033657Y010196D03*
X033683Y010146D03*
X033707Y010121D03*
X033607Y010271D03*
X033807Y009946D03*
X033933Y009721D03*
X034058Y009496D03*
X033557Y007671D03*
X033533Y007646D03*
X033533Y007621D03*
X033507Y007596D03*
X033483Y007571D03*
X033433Y007496D03*
X033408Y007471D03*
X033408Y007446D03*
X033383Y007421D03*
X033358Y007396D03*
X033282Y007296D03*
X033258Y007246D03*
X033232Y007221D03*
X033132Y007196D03*
X033108Y007221D03*
X033082Y007246D03*
X033082Y007271D03*
X033082Y007346D03*
X033158Y007346D03*
X033008Y007196D03*
X032607Y006821D03*
X032557Y006721D03*
X032533Y006671D03*
X032533Y006646D03*
X032507Y006571D03*
X032507Y006546D03*
X032507Y006421D03*
X033633Y006821D03*
X033783Y006696D03*
X033833Y006646D03*
X033883Y006596D03*
X033933Y006546D03*
X033933Y006521D03*
X033958Y006496D03*
X033983Y006471D03*
X034008Y006421D03*
X034033Y006396D03*
X034033Y006371D03*
X034058Y006346D03*
X034058Y006321D03*
X034108Y006221D03*
X034108Y006196D03*
X034108Y006171D03*
X031908Y005671D03*
X031908Y005646D03*
X031882Y005621D03*
X031882Y005596D03*
X031882Y005571D03*
X031858Y005546D03*
X031858Y005521D03*
X031832Y005471D03*
X031808Y005421D03*
X031782Y005371D03*
X030657Y004971D03*
X030383Y004646D03*
X029083Y004571D03*
X029008Y004571D03*
X028683Y004421D03*
X028683Y004396D03*
X028683Y004371D03*
X028683Y004346D03*
X028708Y004296D03*
X028708Y004271D03*
X028708Y004246D03*
X028708Y004221D03*
X028708Y004196D03*
X028708Y004171D03*
X028708Y004146D03*
X028708Y004121D03*
X028683Y003996D03*
X028882Y003996D03*
X028958Y004071D03*
X028708Y003721D03*
X028658Y004471D03*
X030107Y005496D03*
X030107Y005521D03*
X030333Y005796D03*
X030483Y005946D03*
X030508Y005971D03*
X029332Y006971D03*
X029332Y006996D03*
X029332Y007021D03*
X029332Y007071D03*
X029608Y007896D03*
X028958Y008796D03*
X028958Y008821D03*
X029457Y009196D03*
X029482Y009246D03*
X029532Y009446D03*
X029532Y009496D03*
X029507Y009621D03*
X029457Y009746D03*
X029432Y009796D03*
X029758Y009546D03*
X029758Y009521D03*
X029758Y009496D03*
X029758Y009471D03*
X029758Y009446D03*
X029758Y009421D03*
X029758Y009396D03*
X029733Y009321D03*
X029733Y009296D03*
X028383Y009171D03*
X028358Y009646D03*
X028383Y009721D03*
X024903Y007981D03*
X024878Y008006D03*
X024853Y008056D03*
X024828Y008081D03*
X024803Y008131D03*
X024727Y008231D03*
X024702Y008256D03*
X024677Y008306D03*
X024652Y008331D03*
X024627Y008356D03*
X024602Y008381D03*
X024577Y008406D03*
X024627Y008206D03*
X024652Y008181D03*
X024652Y008131D03*
X024702Y008006D03*
X024577Y007956D03*
X024503Y008181D03*
X024353Y008231D03*
X024328Y008281D03*
X024328Y008306D03*
X024303Y008356D03*
X024278Y008406D03*
X024403Y008581D03*
X024378Y008631D03*
X023977Y008756D03*
X024127Y008981D03*
X024102Y009006D03*
X023703Y009106D03*
X023678Y009081D03*
X023653Y009056D03*
X023628Y009031D03*
X023603Y009006D03*
X023353Y008681D03*
X023328Y008656D03*
X023278Y008556D03*
X023278Y008531D03*
X023253Y008506D03*
X023253Y008481D03*
X023127Y008456D03*
X023028Y008331D03*
X023003Y008306D03*
X022978Y008281D03*
X022953Y008256D03*
X022953Y008231D03*
X023028Y008206D03*
X023028Y008156D03*
X023152Y008131D03*
X023152Y008106D03*
X023127Y008056D03*
X023127Y008031D03*
X022978Y008006D03*
X022827Y008056D03*
X022852Y008106D03*
X022877Y008131D03*
X022753Y007931D03*
X022728Y007881D03*
X022703Y007831D03*
X022678Y007781D03*
X022653Y007731D03*
X022628Y007681D03*
X022728Y007631D03*
X022753Y007681D03*
X022877Y007606D03*
X022852Y007556D03*
X022753Y007381D03*
X022728Y007331D03*
X022703Y007281D03*
X022678Y007231D03*
X022628Y007156D03*
X022827Y007106D03*
X022827Y007081D03*
X022852Y007131D03*
X022877Y007181D03*
X022978Y007106D03*
X023003Y007031D03*
X023003Y007006D03*
X023003Y006981D03*
X023127Y007006D03*
X023127Y007056D03*
X023152Y007131D03*
X023152Y007156D03*
X023152Y007181D03*
X023127Y007231D03*
X023152Y007281D03*
X023053Y007156D03*
X023303Y007156D03*
X023303Y007181D03*
X023303Y007131D03*
X023378Y007206D03*
X023328Y007306D03*
X023328Y007331D03*
X023303Y007381D03*
X023303Y007581D03*
X023353Y007606D03*
X023553Y007506D03*
X023578Y007431D03*
X023578Y007406D03*
X023578Y007381D03*
X023603Y007356D03*
X023628Y007281D03*
X023628Y007256D03*
X023802Y007331D03*
X023802Y007356D03*
X023802Y007381D03*
X024077Y007306D03*
X024077Y007281D03*
X024127Y007406D03*
X024127Y007431D03*
X024127Y007456D03*
X024428Y007556D03*
X024928Y007681D03*
X024953Y007631D03*
X025053Y007681D03*
X024978Y007831D03*
X024953Y007881D03*
X024928Y007931D03*
X024002Y007781D03*
X023603Y008006D03*
X023328Y008206D03*
X023328Y008231D03*
X023353Y008306D03*
X023353Y008331D03*
X023378Y008381D03*
X023177Y008206D03*
X022852Y006931D03*
X022827Y006906D03*
X022703Y006706D03*
X022703Y006656D03*
X022703Y006631D03*
X022728Y006606D03*
X022653Y006531D03*
X022328Y006556D03*
X022303Y006506D03*
X022303Y006481D03*
X022028Y006506D03*
X022028Y006556D03*
X021878Y006331D03*
X021677Y006231D03*
X021677Y006206D03*
X021677Y006181D03*
X021677Y006156D03*
X021653Y006281D03*
X021627Y006331D03*
X021677Y006456D03*
X021653Y006506D03*
X021453Y006081D03*
X021528Y005981D03*
X021603Y005906D03*
X021653Y005831D03*
X021677Y005806D03*
X021803Y005956D03*
X021878Y005956D03*
X021953Y006006D03*
X021878Y006056D03*
X022153Y006006D03*
X022153Y005981D03*
X022153Y005956D03*
X022478Y006856D03*
X022478Y006881D03*
X022503Y006906D03*
X022503Y006931D03*
X033408Y007696D03*
D17*
X033183Y007171D03*
X033257Y007096D03*
X033408Y006996D03*
X033658Y006796D03*
X033808Y006246D03*
X032582Y006346D03*
X032532Y006296D03*
X032482Y006246D03*
X032308Y006096D03*
X032282Y006071D03*
X032258Y006046D03*
X032208Y005996D03*
X032158Y005946D03*
X032133Y005921D03*
X032033Y005846D03*
X032007Y005821D03*
X031957Y005771D03*
X031907Y005746D03*
X031883Y005721D03*
X031608Y005446D03*
X031608Y005396D03*
X031158Y005271D03*
X031058Y005221D03*
X030408Y004846D03*
X029758Y005346D03*
X029733Y005321D03*
X029683Y005296D03*
X029658Y005271D03*
X029457Y005146D03*
X029033Y005171D03*
X029008Y005196D03*
X028433Y004696D03*
X028408Y004721D03*
X028257Y004896D03*
X028108Y005071D03*
X028083Y005096D03*
X028058Y005121D03*
X027983Y005221D03*
X027958Y005246D03*
X027833Y005371D03*
X027808Y005396D03*
X027733Y005471D03*
X027658Y005546D03*
X027633Y005571D03*
X028108Y005746D03*
X028408Y005671D03*
X029257Y004496D03*
X029257Y004446D03*
X029058Y004021D03*
X028708Y003946D03*
X028683Y003921D03*
X028683Y003871D03*
X026278Y005656D03*
X026153Y005531D03*
X026078Y005831D03*
X025877Y005831D03*
X025877Y005981D03*
X025728Y005931D03*
X025528Y006081D03*
X025478Y005931D03*
X025478Y005806D03*
X025528Y005706D03*
X025302Y005581D03*
X025103Y005381D03*
X025078Y005406D03*
X024903Y005456D03*
X024903Y005481D03*
X024828Y005406D03*
X024828Y005381D03*
X024677Y005281D03*
X024478Y005331D03*
X024428Y005506D03*
X024253Y005481D03*
X024253Y005456D03*
X024253Y005431D03*
X023852Y005306D03*
X023628Y005331D03*
X023628Y005356D03*
X023653Y005106D03*
X023653Y005006D03*
X023003Y004881D03*
X023152Y004656D03*
X022253Y005356D03*
X022653Y005606D03*
X022852Y005631D03*
X022678Y005856D03*
X023278Y005531D03*
X023278Y005506D03*
X024453Y004906D03*
X025252Y005156D03*
X025302Y005231D03*
X025302Y005256D03*
X025327Y005281D03*
X024828Y005631D03*
X024928Y005731D03*
X025028Y005856D03*
X025078Y005956D03*
X025277Y006781D03*
X026253Y006506D03*
X024853Y007806D03*
X024828Y007831D03*
X024677Y008106D03*
X024102Y007531D03*
X024303Y007431D03*
X023852Y007431D03*
X023628Y007231D03*
X023303Y007356D03*
X022978Y007056D03*
X022403Y006781D03*
X022403Y006756D03*
X022078Y006581D03*
X022078Y006481D03*
X021803Y006131D03*
X021728Y006106D03*
X021528Y005731D03*
X021652Y005381D03*
X022978Y008081D03*
X023003Y008106D03*
X023852Y009181D03*
X028433Y009071D03*
X028557Y008921D03*
X029282Y008996D03*
X029357Y009071D03*
X029382Y009096D03*
X029407Y009121D03*
X028433Y009821D03*
X028557Y009971D03*
X030682Y009446D03*
X030732Y009271D03*
X031633Y008771D03*
X031658Y008746D03*
X031733Y008671D03*
X031807Y008571D03*
X031833Y008521D03*
X032358Y008371D03*
X032408Y008421D03*
X032508Y008496D03*
X032532Y008521D03*
X032558Y008546D03*
X032608Y008571D03*
X032708Y008646D03*
X032733Y008671D03*
X032883Y008771D03*
X032907Y008796D03*
X032957Y008821D03*
X033007Y008846D03*
X033383Y009146D03*
X034207Y008996D03*
X034233Y009021D03*
X034433Y009071D03*
X034457Y009046D03*
X033958Y008371D03*
X033858Y008421D03*
X034257Y008146D03*
X034307Y008221D03*
X034407Y008121D03*
X034433Y008146D03*
X034483Y008171D03*
X034507Y008196D03*
X034583Y008271D03*
X032258Y008296D03*
X032208Y008246D03*
X032158Y008196D03*
X032083Y008146D03*
X032083Y008121D03*
X032258Y007996D03*
X031133Y007246D03*
X031108Y007221D03*
X030983Y007071D03*
X030908Y006971D03*
X030883Y006946D03*
X030757Y006746D03*
X030433Y005896D03*
X029282Y007171D03*
X029257Y007196D03*
X029058Y007396D03*
X029083Y007471D03*
X029507Y007696D03*
X029507Y008146D03*
X029482Y008171D03*
X033558Y009846D03*
X033808Y009871D03*
X033682Y010096D03*
D18*
X033595Y010196D03*
X033495Y009696D03*
X034120Y008946D03*
X033645Y008171D03*
X033595Y008096D03*
X033595Y008071D03*
X033545Y007971D03*
X033320Y008071D03*
X033270Y008021D03*
X033270Y007871D03*
X033170Y007771D03*
X033120Y007821D03*
X033070Y007721D03*
X033120Y007671D03*
X033120Y007646D03*
X033320Y007696D03*
X033320Y007721D03*
X033170Y007321D03*
X033070Y007321D03*
X033070Y007296D03*
X033020Y007246D03*
X032970Y007246D03*
X032645Y006896D03*
X032645Y006871D03*
X032595Y006796D03*
X032545Y006696D03*
X032495Y006521D03*
X032495Y006496D03*
X032495Y006471D03*
X032495Y006446D03*
X033545Y006821D03*
X030820Y006471D03*
X027370Y005871D03*
X025415Y005956D03*
X025415Y005731D03*
X025415Y005381D03*
X024765Y005031D03*
X024765Y005006D03*
X024165Y004831D03*
X024165Y004656D03*
X023840Y005256D03*
X022915Y005056D03*
X022590Y005281D03*
X022590Y005306D03*
X022590Y005331D03*
X022590Y005356D03*
X022590Y005381D03*
X022590Y005406D03*
X022440Y005431D03*
X022440Y005306D03*
X022115Y005256D03*
X021665Y005406D03*
X021740Y005606D03*
X021740Y005656D03*
X021740Y005681D03*
X021740Y005706D03*
X021615Y005881D03*
X021465Y005756D03*
X021465Y006056D03*
X021540Y006156D03*
X021540Y006181D03*
X021665Y006256D03*
X021665Y006481D03*
X021740Y006556D03*
X021740Y006581D03*
X021815Y006531D03*
X021815Y006506D03*
X021965Y006331D03*
X021890Y006156D03*
X021965Y006031D03*
X021965Y005981D03*
X022115Y005506D03*
X022915Y005656D03*
X022915Y005681D03*
X022590Y006431D03*
X022265Y006381D03*
X022115Y006506D03*
X022115Y006531D03*
X022115Y006556D03*
X021665Y006731D03*
X022440Y007031D03*
X022440Y007056D03*
X022440Y007081D03*
X022440Y007106D03*
X022590Y007081D03*
X022590Y007581D03*
X022590Y007606D03*
X022915Y007656D03*
X022915Y007681D03*
X022915Y008056D03*
X023215Y008331D03*
X023515Y008906D03*
X024165Y008931D03*
X024765Y008056D03*
X024765Y007631D03*
X024165Y007331D03*
X024165Y007306D03*
X024165Y007281D03*
X025415Y006406D03*
X025415Y006381D03*
X025415Y006356D03*
X028920Y004046D03*
X030820Y009221D03*
D19*
X030895Y009221D03*
X030945Y009246D03*
X031070Y009096D03*
X032095Y008046D03*
X031320Y007171D03*
X031170Y006971D03*
X031120Y006896D03*
X030970Y006696D03*
X030945Y006671D03*
X030920Y006621D03*
X030895Y006596D03*
X030870Y006521D03*
X030845Y006496D03*
X030795Y006446D03*
X030795Y006421D03*
X030745Y006371D03*
X030695Y006271D03*
X030695Y006246D03*
X030570Y006071D03*
X030570Y006046D03*
X030395Y005796D03*
X030120Y005721D03*
X030020Y005421D03*
X029995Y005396D03*
X029845Y005296D03*
X029820Y005271D03*
X029745Y005221D03*
X029770Y005446D03*
X029170Y004996D03*
X028870Y004596D03*
X028970Y004496D03*
X029070Y004221D03*
X029020Y004196D03*
X029020Y004171D03*
X028995Y004096D03*
X028945Y004021D03*
X028895Y004021D03*
X028845Y004021D03*
X028845Y003971D03*
X028795Y003946D03*
X028770Y003971D03*
X028795Y003771D03*
X025990Y005231D03*
X025965Y005256D03*
X025965Y005281D03*
X025940Y005306D03*
X025940Y005331D03*
X025965Y005506D03*
X025965Y005756D03*
X025940Y005781D03*
X025790Y005731D03*
X025715Y005731D03*
X025715Y005756D03*
X025765Y005956D03*
X025790Y006006D03*
X025840Y006006D03*
X025840Y006056D03*
X025940Y006056D03*
X025940Y006081D03*
X025965Y006131D03*
X025965Y006156D03*
X025990Y006206D03*
X026065Y006206D03*
X026215Y006131D03*
X026240Y006181D03*
X026240Y006206D03*
X026240Y006231D03*
X026240Y006256D03*
X026215Y006456D03*
X026215Y006481D03*
X026290Y006481D03*
X025865Y006581D03*
X025840Y006606D03*
X025840Y006531D03*
X025840Y006506D03*
X025715Y006506D03*
X025690Y006531D03*
X025665Y006556D03*
X025665Y006581D03*
X025665Y006606D03*
X025665Y006631D03*
X025615Y006331D03*
X025615Y006306D03*
X025590Y006206D03*
X025590Y006181D03*
X025590Y006156D03*
X025565Y006056D03*
X025490Y006056D03*
X025490Y006031D03*
X025390Y005981D03*
X025315Y005981D03*
X025315Y006006D03*
X025315Y005956D03*
X025315Y005931D03*
X025315Y005906D03*
X025315Y005881D03*
X025315Y005856D03*
X025340Y005831D03*
X025340Y005806D03*
X025365Y005781D03*
X025390Y005681D03*
X025365Y005656D03*
X025340Y005606D03*
X025265Y005606D03*
X025065Y005656D03*
X025040Y005631D03*
X025040Y005756D03*
X025065Y005881D03*
X025090Y005906D03*
X025040Y005981D03*
X025040Y006006D03*
X025040Y006031D03*
X025140Y006031D03*
X025165Y006106D03*
X025165Y006131D03*
X025240Y006031D03*
X025240Y006006D03*
X025215Y005931D03*
X025215Y005906D03*
X025215Y005881D03*
X024965Y005881D03*
X024965Y005906D03*
X024890Y005781D03*
X024890Y005756D03*
X024915Y005681D03*
X024790Y005681D03*
X024790Y005706D03*
X024790Y005656D03*
X024690Y005581D03*
X024565Y005506D03*
X024565Y005481D03*
X024265Y005306D03*
X024065Y005281D03*
X023815Y005331D03*
X023815Y005356D03*
X023790Y005381D03*
X023790Y005406D03*
X023665Y005381D03*
X023590Y005406D03*
X023590Y005431D03*
X023590Y005456D03*
X023615Y005256D03*
X023715Y005081D03*
X023690Y004881D03*
X023715Y004856D03*
X023715Y004831D03*
X023715Y004806D03*
X023715Y004781D03*
X023690Y004756D03*
X023690Y004731D03*
X023665Y004681D03*
X023815Y004681D03*
X023815Y004731D03*
X024115Y004756D03*
X024140Y004806D03*
X024190Y004881D03*
X024190Y004906D03*
X024265Y004731D03*
X024290Y004681D03*
X024290Y004656D03*
X024140Y004681D03*
X024140Y004706D03*
X024440Y004731D03*
X024440Y004756D03*
X024440Y004681D03*
X024515Y004756D03*
X024415Y004831D03*
X024415Y004931D03*
X024390Y004956D03*
X024415Y005006D03*
X024415Y005031D03*
X024440Y005056D03*
X024840Y005031D03*
X024990Y005131D03*
X025165Y005056D03*
X025165Y005031D03*
X025165Y005006D03*
X025240Y005006D03*
X025240Y005031D03*
X025265Y005056D03*
X025265Y005081D03*
X025265Y005106D03*
X025365Y005306D03*
X025390Y005356D03*
X025465Y005481D03*
X025465Y005506D03*
X025465Y005531D03*
X025490Y005556D03*
X025490Y005581D03*
X025490Y005606D03*
X025040Y005506D03*
X025040Y005481D03*
X025040Y005456D03*
X025040Y005431D03*
X025040Y005331D03*
X025715Y006031D03*
X025715Y006056D03*
X025740Y006106D03*
X025740Y006131D03*
X025740Y006156D03*
X025740Y006181D03*
X025740Y006306D03*
X025465Y006256D03*
X025465Y006231D03*
X025440Y006281D03*
X025440Y006306D03*
X025440Y006331D03*
X025390Y006431D03*
X025390Y006456D03*
X025390Y006481D03*
X025365Y006506D03*
X025365Y006531D03*
X025165Y006406D03*
X025140Y006456D03*
X025090Y006456D03*
X025090Y006481D03*
X025090Y006431D03*
X025090Y006406D03*
X025090Y006381D03*
X025040Y006556D03*
X025040Y006581D03*
X025015Y006606D03*
X025015Y006631D03*
X024965Y006631D03*
X024965Y006606D03*
X024990Y006681D03*
X024990Y006706D03*
X025040Y006706D03*
X025015Y006756D03*
X025015Y006781D03*
X024990Y006806D03*
X024990Y006831D03*
X024965Y006856D03*
X024915Y006856D03*
X024915Y006831D03*
X024890Y006881D03*
X024815Y006881D03*
X024815Y006856D03*
X024840Y006956D03*
X024915Y006981D03*
X024890Y007031D03*
X024715Y007106D03*
X024690Y007056D03*
X024690Y007031D03*
X024565Y007031D03*
X024565Y007056D03*
X024565Y007231D03*
X024565Y007256D03*
X024390Y007231D03*
X024390Y007206D03*
X024390Y007181D03*
X024315Y007206D03*
X024315Y007231D03*
X024365Y007331D03*
X024090Y007331D03*
X023815Y007406D03*
X023615Y007331D03*
X023615Y007306D03*
X023540Y007306D03*
X023540Y007331D03*
X023540Y007356D03*
X023565Y007456D03*
X023365Y007231D03*
X023315Y007231D03*
X023315Y007206D03*
X023115Y007256D03*
X023015Y007356D03*
X022990Y007331D03*
X022965Y007306D03*
X022940Y007281D03*
X022890Y007206D03*
X022865Y007156D03*
X022765Y007006D03*
X022765Y006981D03*
X022740Y006956D03*
X022740Y006931D03*
X022715Y006906D03*
X022690Y006856D03*
X022690Y006831D03*
X022740Y006756D03*
X022715Y006731D03*
X022715Y006681D03*
X022665Y006606D03*
X022640Y006581D03*
X022640Y006556D03*
X022615Y006606D03*
X022615Y006631D03*
X022615Y006656D03*
X022615Y006481D03*
X022615Y006456D03*
X022615Y006406D03*
X022615Y006381D03*
X022515Y006106D03*
X022565Y006056D03*
X022565Y006031D03*
X022565Y006006D03*
X022715Y005881D03*
X022690Y005806D03*
X022815Y005806D03*
X022815Y005781D03*
X022815Y005756D03*
X022890Y005581D03*
X023015Y005581D03*
X023015Y005606D03*
X023140Y005481D03*
X023065Y005356D03*
X023265Y005381D03*
X023265Y005406D03*
X022840Y005156D03*
X022865Y005106D03*
X022865Y005081D03*
X022940Y004981D03*
X022865Y004881D03*
X023040Y004706D03*
X023115Y004981D03*
X023240Y005031D03*
X023265Y005006D03*
X023290Y004981D03*
X022715Y005081D03*
X022615Y005081D03*
X022615Y005256D03*
X022490Y005306D03*
X022490Y005331D03*
X022490Y005356D03*
X022465Y005381D03*
X022465Y005406D03*
X022415Y005331D03*
X022315Y005256D03*
X022315Y005231D03*
X022315Y005206D03*
X022340Y005181D03*
X022165Y005181D03*
X022140Y005206D03*
X022240Y005406D03*
X022365Y005456D03*
X022565Y005456D03*
X022565Y005481D03*
X022565Y005431D03*
X022740Y005431D03*
X022040Y005431D03*
X021565Y005531D03*
X021565Y005556D03*
X021565Y005581D03*
X021565Y005756D03*
X021565Y005806D03*
X021715Y005756D03*
X021715Y005731D03*
X021765Y005906D03*
X021915Y005906D03*
X021915Y005881D03*
X021915Y005856D03*
X021715Y006056D03*
X021565Y006081D03*
X021840Y006231D03*
X021840Y006256D03*
X021840Y006281D03*
X021990Y006281D03*
X021990Y006306D03*
X021990Y006256D03*
X021990Y006231D03*
X022015Y006181D03*
X022015Y006156D03*
X022090Y006156D03*
X022090Y006181D03*
X022090Y006131D03*
X021915Y006106D03*
X022240Y006006D03*
X022340Y005981D03*
X022015Y006531D03*
X021765Y006531D03*
X021765Y006606D03*
X021765Y006631D03*
X021765Y006656D03*
X021765Y006681D03*
X022415Y006931D03*
X022415Y006956D03*
X022415Y006981D03*
X022415Y007006D03*
X022565Y007031D03*
X022615Y007131D03*
X022640Y007181D03*
X022665Y007206D03*
X022690Y007256D03*
X022715Y007306D03*
X022740Y007356D03*
X022765Y007406D03*
X022815Y007481D03*
X022815Y007506D03*
X022840Y007531D03*
X022865Y007581D03*
X022890Y007631D03*
X022940Y007706D03*
X022940Y007731D03*
X022965Y007756D03*
X022990Y007781D03*
X022990Y007806D03*
X023015Y007831D03*
X023015Y007856D03*
X023040Y007881D03*
X023040Y007906D03*
X023065Y007931D03*
X023065Y007956D03*
X023140Y007981D03*
X023140Y008081D03*
X023165Y008156D03*
X023165Y008181D03*
X023190Y008231D03*
X023190Y008256D03*
X023240Y008406D03*
X023240Y008431D03*
X023165Y008506D03*
X023140Y008481D03*
X023065Y008381D03*
X023040Y008356D03*
X022890Y008156D03*
X022840Y008081D03*
X022890Y008031D03*
X022890Y008006D03*
X022765Y007956D03*
X022740Y007906D03*
X022715Y007856D03*
X022690Y007806D03*
X022665Y007756D03*
X022640Y007706D03*
X022615Y007656D03*
X022565Y007556D03*
X022565Y007531D03*
X022565Y007506D03*
X022515Y007406D03*
X022515Y007381D03*
X022515Y007356D03*
X022490Y007306D03*
X022490Y007281D03*
X022490Y007256D03*
X022465Y007206D03*
X022465Y007181D03*
X022465Y007156D03*
X022865Y006956D03*
X022890Y006881D03*
X022890Y006856D03*
X022890Y006831D03*
X022965Y006931D03*
X023040Y006956D03*
X023115Y007031D03*
X023040Y007381D03*
X023065Y007406D03*
X023115Y007456D03*
X023190Y007506D03*
X023265Y007556D03*
X022740Y007656D03*
X022715Y007606D03*
X022715Y007581D03*
X023865Y007706D03*
X023990Y007806D03*
X024390Y007656D03*
X024390Y007631D03*
X024690Y007756D03*
X024690Y007781D03*
X024665Y007806D03*
X024665Y007831D03*
X024640Y007856D03*
X024640Y007881D03*
X024615Y007906D03*
X024615Y007931D03*
X024790Y008006D03*
X024790Y008031D03*
X024865Y008031D03*
X024815Y008106D03*
X024915Y007956D03*
X024940Y007906D03*
X024965Y007856D03*
X024990Y007806D03*
X025015Y007781D03*
X025015Y007756D03*
X025040Y007731D03*
X025040Y007706D03*
X025065Y007656D03*
X025065Y007631D03*
X025090Y007606D03*
X025090Y007581D03*
X025115Y007556D03*
X025115Y007531D03*
X025115Y007506D03*
X025140Y007481D03*
X025140Y007456D03*
X025140Y007431D03*
X025165Y007406D03*
X025165Y007381D03*
X025165Y007356D03*
X025165Y007331D03*
X025215Y007181D03*
X025215Y007156D03*
X025215Y007131D03*
X025090Y007081D03*
X025065Y007106D03*
X025065Y007131D03*
X025040Y007156D03*
X025040Y007181D03*
X025015Y007206D03*
X024990Y007256D03*
X024965Y007281D03*
X024965Y007306D03*
X024940Y007331D03*
X024915Y007381D03*
X024890Y007431D03*
X024865Y007456D03*
X024840Y007506D03*
X024815Y007556D03*
X024790Y007581D03*
X024790Y007606D03*
X024740Y007681D03*
X024715Y007731D03*
X024940Y007656D03*
X024965Y007606D03*
X024965Y007581D03*
X025115Y007031D03*
X025140Y006981D03*
X025165Y006931D03*
X025215Y006856D03*
X025240Y006806D03*
X025290Y006806D03*
X025290Y006831D03*
X025290Y006856D03*
X025265Y006906D03*
X025265Y006931D03*
X025265Y006956D03*
X024965Y006756D03*
X024890Y006756D03*
X025065Y006656D03*
X026065Y005931D03*
X026190Y005781D03*
X026190Y005756D03*
X026165Y005706D03*
X026240Y005631D03*
X026240Y005606D03*
X026215Y005581D03*
X026290Y005556D03*
X026290Y005531D03*
X026315Y005581D03*
X026315Y005606D03*
X026315Y005631D03*
X027745Y005771D03*
X027970Y005721D03*
X028145Y005771D03*
X024640Y008156D03*
X024515Y008156D03*
X024515Y008131D03*
X024490Y008206D03*
X024490Y008231D03*
X024490Y008256D03*
X024465Y008281D03*
X024465Y008306D03*
X024465Y008331D03*
X024440Y008381D03*
X024440Y008406D03*
X024415Y008481D03*
X024415Y008506D03*
X024390Y008556D03*
X024390Y008606D03*
X024365Y008656D03*
X024340Y008681D03*
X024340Y008706D03*
X024315Y008731D03*
X024290Y008756D03*
X024290Y008781D03*
X024265Y008806D03*
X024240Y008831D03*
X024240Y008856D03*
X024215Y008881D03*
X024190Y008906D03*
X023990Y008731D03*
X023990Y008706D03*
X023965Y008681D03*
X023965Y008656D03*
X023940Y008781D03*
X023590Y008931D03*
X023490Y008881D03*
X023465Y008856D03*
X023440Y008831D03*
X023440Y008806D03*
X023390Y008756D03*
X023390Y008731D03*
X023365Y008706D03*
X023365Y008356D03*
X024290Y008381D03*
X024315Y008331D03*
X024340Y008206D03*
X024515Y008481D03*
X024490Y008506D03*
X024465Y008531D03*
X024440Y008556D03*
X029270Y008971D03*
X032695Y006971D03*
X032670Y006921D03*
X033395Y007621D03*
X033395Y007721D03*
X033395Y007746D03*
X033395Y007771D03*
X033395Y007796D03*
X033395Y007821D03*
X033395Y007846D03*
X033370Y007896D03*
X033370Y007921D03*
X033345Y007946D03*
X033395Y008021D03*
X033370Y008046D03*
X033445Y007971D03*
X033445Y007721D03*
X033995Y008471D03*
X033995Y008496D03*
X033920Y008596D03*
X033945Y008646D03*
X033970Y008671D03*
X033995Y008696D03*
X034620Y008546D03*
X034620Y008521D03*
X034045Y009521D03*
X033920Y009746D03*
X033445Y009396D03*
X033445Y009371D03*
D20*
X034083Y008846D03*
X034758Y008671D03*
X034758Y008646D03*
X034758Y008621D03*
X034758Y008596D03*
X034758Y008571D03*
X034758Y008546D03*
X033458Y007946D03*
X033458Y007746D03*
X033458Y007521D03*
X034083Y006296D03*
X034083Y006271D03*
X031733Y005271D03*
X029958Y005846D03*
X029933Y005346D03*
X028808Y004596D03*
X028833Y003896D03*
X027633Y005871D03*
X025803Y005756D03*
X025803Y005706D03*
X025803Y005606D03*
X025803Y005581D03*
X025203Y005681D03*
X024553Y005531D03*
X023903Y005456D03*
X023903Y005431D03*
X023428Y005331D03*
X023428Y005306D03*
X023103Y005406D03*
X022803Y005431D03*
X022803Y005656D03*
X022778Y005706D03*
X022553Y005731D03*
X022553Y005756D03*
X022528Y005781D03*
X022528Y005806D03*
X022528Y005531D03*
X022553Y005506D03*
X022378Y005431D03*
X022203Y005156D03*
X022053Y005406D03*
X021578Y005606D03*
X021778Y005831D03*
X021778Y005931D03*
X021853Y006006D03*
X021853Y006081D03*
X021928Y006081D03*
X022053Y006206D03*
X022203Y006206D03*
X022203Y006231D03*
X022228Y006256D03*
X022228Y006281D03*
X022228Y006306D03*
X022203Y006181D03*
X022228Y005981D03*
X021853Y005756D03*
X021578Y005931D03*
X021503Y006006D03*
X021503Y006256D03*
X021503Y006281D03*
X021503Y006306D03*
X021503Y006331D03*
X021703Y006406D03*
X021778Y006456D03*
X021928Y006381D03*
X021853Y006306D03*
X022528Y006331D03*
X022528Y006356D03*
X022803Y006731D03*
X022803Y006756D03*
X022778Y006781D03*
X022778Y006806D03*
X022778Y006831D03*
X022778Y006856D03*
X022803Y007031D03*
X022803Y007056D03*
X022553Y007006D03*
X022528Y006981D03*
X022528Y006956D03*
X022403Y006906D03*
X022403Y006881D03*
X021778Y006731D03*
X021778Y006706D03*
X023078Y007181D03*
X023903Y007306D03*
X023903Y007331D03*
X023903Y007356D03*
X024553Y008006D03*
X024553Y008031D03*
X024553Y008056D03*
X024528Y008081D03*
X024528Y008106D03*
X024553Y008431D03*
X024528Y008456D03*
X023403Y008406D03*
X023103Y008431D03*
X023078Y008406D03*
X022803Y008031D03*
X022803Y008006D03*
X022778Y007981D03*
X022778Y007731D03*
X023753Y009131D03*
X025203Y007206D03*
X025178Y006906D03*
X025203Y006881D03*
X025203Y005106D03*
X025178Y005081D03*
X025178Y004931D03*
X024528Y004931D03*
X024528Y004781D03*
X023103Y005006D03*
X023078Y005031D03*
X022803Y005181D03*
X023078Y004681D03*
X021503Y005206D03*
X021503Y005231D03*
X030583Y006471D03*
X031233Y007146D03*
X031233Y007171D03*
X031233Y007846D03*
X031233Y007871D03*
X031233Y008021D03*
X031233Y008121D03*
X031233Y008146D03*
X031208Y008196D03*
X031208Y008221D03*
D21*
X031845Y008496D03*
X031795Y008596D03*
X031895Y008396D03*
X031945Y008321D03*
X032320Y008346D03*
X032370Y008396D03*
X032470Y008471D03*
X032370Y008071D03*
X032270Y007971D03*
X033195Y007421D03*
X033245Y007496D03*
X033295Y007546D03*
X033345Y007371D03*
X033195Y007146D03*
X033295Y007071D03*
X032995Y007221D03*
X033570Y007696D03*
X033720Y007921D03*
X033820Y008096D03*
X033870Y008171D03*
X033870Y008196D03*
X034295Y008196D03*
X034345Y008271D03*
X034545Y008221D03*
X034495Y008646D03*
X034545Y008696D03*
X034595Y008796D03*
X034245Y009046D03*
X034145Y008921D03*
X033345Y009196D03*
X033195Y009321D03*
X033145Y009296D03*
X033095Y009221D03*
X032995Y009071D03*
X033820Y009896D03*
X033620Y010221D03*
X033620Y010246D03*
X030820Y009021D03*
X030820Y008996D03*
X030845Y008946D03*
X029595Y008996D03*
X029570Y008971D03*
X029545Y009471D03*
X029595Y009896D03*
X029220Y009921D03*
X029220Y009946D03*
X029220Y009971D03*
X028345Y009621D03*
X028345Y009596D03*
X028345Y009571D03*
X028320Y009471D03*
X028320Y009396D03*
X028345Y009321D03*
X028345Y009296D03*
X028345Y009271D03*
X028345Y009246D03*
X028945Y008671D03*
X028945Y008646D03*
X028945Y008621D03*
X028945Y008596D03*
X028945Y008571D03*
X028945Y008546D03*
X028945Y008521D03*
X029545Y008096D03*
X029570Y008071D03*
X029595Y008021D03*
X029595Y007996D03*
X029595Y007871D03*
X029595Y007846D03*
X029595Y007821D03*
X029570Y007771D03*
X029545Y007746D03*
X030795Y006821D03*
X030820Y006846D03*
X030845Y006871D03*
X032095Y005896D03*
X032370Y006146D03*
X032420Y006196D03*
X031795Y005671D03*
X031845Y005496D03*
X031795Y005396D03*
X033720Y006746D03*
X029245Y004396D03*
X029245Y004371D03*
X029220Y004346D03*
X028645Y003846D03*
X028620Y003721D03*
X028595Y003696D03*
X028345Y004796D03*
X028295Y004846D03*
X028020Y005171D03*
X027870Y005346D03*
X027995Y005746D03*
X028895Y005296D03*
X025990Y005731D03*
X025415Y005756D03*
X024765Y005331D03*
X023540Y005206D03*
X023190Y004706D03*
X023190Y004681D03*
X022615Y004906D03*
X022615Y005056D03*
X022890Y005331D03*
X022915Y005306D03*
X022615Y005656D03*
X022590Y005681D03*
X022465Y005581D03*
X022140Y005406D03*
X022915Y005756D03*
X022615Y005931D03*
X022615Y005956D03*
X022440Y006031D03*
X022140Y006031D03*
X022140Y006056D03*
X022290Y006456D03*
X023240Y007331D03*
X023840Y007456D03*
X023840Y007481D03*
X024165Y007481D03*
X024740Y007281D03*
X024765Y007256D03*
X023240Y008456D03*
D22*
X027420Y005771D03*
X024515Y005356D03*
X023740Y004706D03*
X023340Y005106D03*
X023040Y004831D03*
X022790Y005056D03*
X028795Y003671D03*
X030645Y005021D03*
X031670Y005546D03*
X033695Y006296D03*
X033445Y006946D03*
X034220Y008046D03*
X033120Y008946D03*
X033545Y009571D03*
X034220Y009271D03*
X034220Y009246D03*
X029345Y008796D03*
X029145Y007521D03*
X029345Y010096D03*
X028795Y010121D03*
D23*
X031233Y009096D03*
X029333Y008271D03*
X029108Y008371D03*
X029108Y007496D03*
X029158Y006796D03*
X029108Y006771D03*
X028133Y005721D03*
X029358Y005096D03*
X028483Y004671D03*
X029158Y004271D03*
X029133Y004246D03*
X028833Y003721D03*
X031733Y005596D03*
X034033Y006121D03*
X031208Y007296D03*
X031208Y007321D03*
X024478Y004806D03*
X023353Y005281D03*
X022728Y005206D03*
D24*
X023178Y005156D03*
X023228Y005131D03*
X023253Y005306D03*
X023203Y005331D03*
X022953Y005556D03*
X022303Y006031D03*
X021928Y005706D03*
X021428Y005131D03*
X024128Y004956D03*
X024778Y004806D03*
X026003Y005556D03*
X026028Y005581D03*
X026053Y005606D03*
X027708Y005496D03*
X027883Y005321D03*
X028008Y005196D03*
X028308Y004821D03*
X028958Y005221D03*
X028958Y005246D03*
X028658Y005496D03*
X028583Y005546D03*
X029583Y005221D03*
X030133Y005546D03*
X031383Y005396D03*
X031408Y005421D03*
X029233Y004421D03*
X028608Y003671D03*
X028583Y003646D03*
X030783Y006796D03*
X030858Y006896D03*
X029583Y007796D03*
X029533Y007721D03*
X029583Y008046D03*
X029533Y008121D03*
X028958Y008496D03*
X028608Y008871D03*
X028583Y008896D03*
X029558Y008946D03*
X029583Y009921D03*
X029558Y009946D03*
X029533Y009971D03*
X028583Y009996D03*
X031383Y009021D03*
X031433Y008971D03*
X032633Y008596D03*
X032683Y008621D03*
X032108Y008096D03*
X033358Y007671D03*
X033358Y007646D03*
X033883Y008271D03*
X034558Y008246D03*
X033358Y009171D03*
X033358Y009221D03*
X029233Y007221D03*
X029208Y007246D03*
X024803Y007881D03*
X024778Y007906D03*
X023528Y007481D03*
X022878Y007856D03*
X022878Y007881D03*
D25*
X023090Y007981D03*
X023090Y007431D03*
X022790Y007431D03*
X022790Y007456D03*
X022540Y007456D03*
X022540Y007481D03*
X022540Y007431D03*
X022390Y006856D03*
X022390Y006831D03*
X022540Y006381D03*
X022540Y006156D03*
X022215Y005956D03*
X021940Y006056D03*
X021865Y006181D03*
X021865Y006206D03*
X021790Y006381D03*
X021790Y006406D03*
X021790Y006431D03*
X021690Y006431D03*
X021640Y006531D03*
X021640Y006556D03*
X021640Y006681D03*
X021640Y006706D03*
X021640Y006306D03*
X021515Y006231D03*
X021515Y006206D03*
X021690Y006131D03*
X021640Y005856D03*
X021690Y005781D03*
X021440Y005781D03*
X021590Y005506D03*
X021515Y005356D03*
X021515Y005281D03*
X021515Y005256D03*
X022065Y005381D03*
X022390Y005381D03*
X022390Y005406D03*
X022790Y005681D03*
X023890Y005406D03*
X023890Y005381D03*
X023890Y005356D03*
X023890Y005331D03*
X023890Y005006D03*
X023890Y004981D03*
X024540Y004906D03*
X024540Y004881D03*
X024540Y004856D03*
X024540Y004831D03*
X025190Y005856D03*
X025815Y006481D03*
X025815Y006631D03*
X025190Y007231D03*
X025190Y007256D03*
X025190Y007281D03*
X025190Y007306D03*
X024540Y007181D03*
X024540Y007156D03*
X023890Y007381D03*
X023890Y007406D03*
X023415Y008781D03*
X027270Y005971D03*
X029945Y005371D03*
X032520Y006596D03*
X032520Y006621D03*
X032570Y006746D03*
X032570Y006771D03*
X032620Y006846D03*
X032995Y007271D03*
X033145Y007571D03*
X033145Y007596D03*
X033095Y007696D03*
X033145Y007796D03*
X033195Y007746D03*
X033295Y007796D03*
X033295Y007821D03*
X033245Y007896D03*
X033295Y007996D03*
X033470Y007921D03*
X033470Y007896D03*
X033470Y007871D03*
X033470Y007846D03*
X033470Y007821D03*
X033470Y007771D03*
X033570Y008021D03*
X033620Y008121D03*
X033620Y008146D03*
X033870Y008371D03*
X034145Y008171D03*
X034545Y008896D03*
X034145Y008971D03*
X033820Y009921D03*
X033570Y010071D03*
X033670Y010171D03*
X033620Y010296D03*
X033520Y009771D03*
X032420Y008096D03*
X032220Y007921D03*
X033520Y006846D03*
X033620Y006771D03*
X028820Y003796D03*
D26*
X028958Y003896D03*
X028608Y003596D03*
X028583Y003571D03*
X030783Y005096D03*
X031358Y005371D03*
X033908Y006196D03*
X033958Y006171D03*
X032133Y008071D03*
X032083Y008171D03*
X031433Y008946D03*
X031383Y008996D03*
X030833Y009371D03*
X028683Y010071D03*
X024753Y007981D03*
X024228Y007656D03*
X023578Y007531D03*
X023553Y007681D03*
X022928Y007981D03*
X022903Y007931D03*
X027083Y005996D03*
X027183Y005946D03*
X028033Y005771D03*
X028283Y005746D03*
X024778Y004831D03*
X024128Y004931D03*
X022953Y004906D03*
D27*
X022728Y004856D03*
X025903Y005806D03*
X027408Y005796D03*
X027558Y006046D03*
X029908Y005521D03*
X029933Y005546D03*
X029883Y004746D03*
X031708Y005571D03*
X029208Y007546D03*
X029233Y008321D03*
X031258Y009071D03*
X033433Y009071D03*
X028758Y003646D03*
D28*
X029195Y004321D03*
X029270Y004521D03*
X029295Y005071D03*
X029420Y005121D03*
X029495Y005171D03*
X029045Y005146D03*
X028395Y004746D03*
X027670Y005521D03*
X027570Y005621D03*
X027520Y005671D03*
X027495Y005696D03*
X027945Y005921D03*
X027995Y005896D03*
X028095Y005846D03*
X029020Y006721D03*
X029195Y006821D03*
X029245Y006846D03*
X029270Y006871D03*
X029420Y007646D03*
X029470Y007671D03*
X029445Y008196D03*
X029420Y008221D03*
X029370Y008246D03*
X029070Y008396D03*
X029020Y008421D03*
X029420Y008846D03*
X029470Y008871D03*
X029495Y008896D03*
X030945Y008796D03*
X030945Y008771D03*
X031320Y009046D03*
X031495Y008896D03*
X031520Y008871D03*
X031595Y008821D03*
X031045Y009246D03*
X029495Y009996D03*
X029470Y010021D03*
X029445Y010046D03*
X029395Y010071D03*
X032770Y008696D03*
X033970Y009246D03*
X033495Y009496D03*
X034120Y008146D03*
X033295Y007571D03*
X030020Y005721D03*
X030745Y005071D03*
X030895Y005146D03*
X030945Y005171D03*
X030995Y005196D03*
X031095Y005246D03*
X031620Y005421D03*
X030370Y004671D03*
X026165Y006306D03*
X025665Y006356D03*
X025540Y006106D03*
X025540Y005731D03*
X025290Y005206D03*
X024940Y005081D03*
X024640Y005106D03*
X024415Y005531D03*
X024415Y005556D03*
X023290Y005556D03*
X023015Y005256D03*
X022665Y005231D03*
X022265Y005131D03*
X023015Y004856D03*
X022390Y005831D03*
X022165Y006081D03*
X021915Y006356D03*
X021565Y006356D03*
X022415Y006806D03*
X023465Y007656D03*
X024090Y007706D03*
X024340Y007606D03*
X024290Y007131D03*
X024690Y008081D03*
D29*
X023852Y007256D03*
X023852Y007231D03*
X023852Y007206D03*
X023852Y007181D03*
X024353Y005281D03*
X023503Y005056D03*
X024328Y004856D03*
X027058Y006021D03*
X027732Y005896D03*
X027808Y005871D03*
X029733Y004696D03*
X030333Y004821D03*
X030433Y004921D03*
X031633Y005521D03*
X030057Y005746D03*
X028533Y004646D03*
X028833Y003746D03*
X029282Y008771D03*
X030983Y009271D03*
X031058Y009221D03*
X029282Y010121D03*
X033558Y009596D03*
X033608Y009921D03*
X033658Y010046D03*
X033808Y009821D03*
X034033Y009396D03*
X034233Y009221D03*
D30*
X033833Y009521D03*
X033783Y009471D03*
X033683Y009396D03*
X033633Y009346D03*
X033607Y009321D03*
X033657Y009171D03*
X033583Y009621D03*
X033607Y009646D03*
X033683Y009696D03*
X033707Y009721D03*
X033733Y009746D03*
X033783Y009796D03*
X033657Y010021D03*
X031058Y009196D03*
X033883Y008346D03*
X034232Y008071D03*
X028908Y003871D03*
X023927Y004881D03*
X022153Y005706D03*
D31*
X022178Y005781D03*
X022178Y005806D03*
X022178Y005881D03*
X022178Y005931D03*
X022203Y006131D03*
X022203Y006156D03*
X022503Y006181D03*
X022528Y006281D03*
X022378Y006681D03*
X022378Y006706D03*
X023403Y007431D03*
X023453Y007456D03*
X022828Y007806D03*
X024553Y007281D03*
X024578Y007206D03*
X025803Y006456D03*
X025178Y006281D03*
X025178Y006256D03*
X025203Y006181D03*
X025203Y006156D03*
X025828Y005656D03*
X025228Y005131D03*
X025178Y004956D03*
X024553Y005606D03*
X023453Y005456D03*
X023403Y005256D03*
X023378Y004906D03*
X022378Y005506D03*
X022378Y005531D03*
X022378Y005856D03*
X021478Y005806D03*
X027458Y005721D03*
X027608Y005596D03*
X028483Y005621D03*
X028508Y005596D03*
X028783Y005396D03*
X028808Y005371D03*
X028833Y005346D03*
X028858Y005321D03*
X028233Y004921D03*
X028208Y004946D03*
X029158Y004221D03*
X029133Y004171D03*
X029133Y004146D03*
X029108Y004121D03*
X029108Y004096D03*
X030558Y004996D03*
X031208Y005296D03*
X031258Y005321D03*
X031758Y005646D03*
X032183Y005971D03*
X031233Y007071D03*
X031258Y007096D03*
X031258Y007121D03*
X031233Y007346D03*
X032183Y008221D03*
X032233Y008271D03*
X032808Y008721D03*
X033483Y009471D03*
X034058Y009446D03*
X031208Y009146D03*
X029333Y009046D03*
X029308Y009021D03*
X028533Y008946D03*
X028508Y008971D03*
X028483Y008996D03*
X028483Y009896D03*
X028508Y009921D03*
X028533Y009946D03*
X029108Y007321D03*
X029158Y007296D03*
X029183Y007271D03*
X029308Y007121D03*
X029308Y006921D03*
X023928Y009131D03*
D32*
X024115Y007231D03*
X022190Y006106D03*
X022190Y005381D03*
X023190Y005356D03*
X023590Y004906D03*
X024240Y005531D03*
X027920Y005821D03*
X030245Y005721D03*
X030120Y004821D03*
X028995Y003971D03*
X028695Y003796D03*
X033045Y008896D03*
X033670Y009196D03*
X034245Y009196D03*
X033920Y009621D03*
X033620Y009946D03*
X030770Y009296D03*
D33*
X031095Y009171D03*
X032245Y008021D03*
X033995Y009171D03*
X033920Y009596D03*
X034645Y008721D03*
X034020Y006146D03*
X031620Y005496D03*
X030345Y004696D03*
X029820Y004721D03*
X028570Y004621D03*
X028595Y003521D03*
X026165Y005506D03*
X027245Y005921D03*
X027395Y005821D03*
X027445Y006071D03*
X024040Y007556D03*
X023515Y005231D03*
X023515Y004931D03*
D34*
X023490Y004956D03*
X023565Y005031D03*
X022965Y005281D03*
X022465Y005556D03*
X024740Y005556D03*
X024815Y005356D03*
X024715Y005056D03*
X024790Y004956D03*
X024790Y004931D03*
X026040Y006231D03*
X027270Y005871D03*
X027545Y005646D03*
X027695Y005821D03*
X027870Y005946D03*
X028045Y005871D03*
X028320Y005721D03*
X028370Y005696D03*
X028620Y005521D03*
X028920Y005271D03*
X029545Y005196D03*
X029620Y005246D03*
X030845Y005121D03*
X031470Y005446D03*
X033845Y006221D03*
X033545Y006871D03*
X033895Y008296D03*
X034270Y008171D03*
X034620Y008746D03*
X034220Y009171D03*
X033945Y009646D03*
X033320Y009396D03*
X033270Y009021D03*
X033695Y010071D03*
X029520Y008921D03*
X028670Y008821D03*
X028645Y008846D03*
X028620Y010021D03*
X028645Y010046D03*
X024765Y007956D03*
X024765Y007931D03*
X024815Y007856D03*
X024165Y007681D03*
X022915Y007956D03*
X022890Y007906D03*
X028370Y004771D03*
X028670Y003771D03*
X028645Y003746D03*
X028895Y003771D03*
X028920Y003796D03*
D35*
X028195Y004971D03*
X028170Y004996D03*
X027945Y005271D03*
X027920Y005296D03*
X027795Y005421D03*
X027770Y005446D03*
X028220Y005696D03*
X029120Y005071D03*
X030570Y004871D03*
X030595Y004896D03*
X030620Y004921D03*
X031770Y005321D03*
X031770Y005346D03*
X031820Y005446D03*
X031970Y005796D03*
X032245Y006021D03*
X032345Y006121D03*
X032395Y006171D03*
X032445Y006221D03*
X032495Y006271D03*
X032545Y006321D03*
X033595Y006846D03*
X033695Y006771D03*
X033745Y006721D03*
X033795Y006671D03*
X033845Y006621D03*
X033220Y007121D03*
X033220Y007196D03*
X033270Y007271D03*
X033170Y007396D03*
X033270Y007521D03*
X033795Y008046D03*
X033845Y008146D03*
X034070Y008171D03*
X034220Y008021D03*
X034320Y008246D03*
X034370Y008321D03*
X034520Y008671D03*
X034120Y008896D03*
X034470Y009021D03*
X034370Y009121D03*
X034270Y009296D03*
X034120Y009296D03*
X034070Y009471D03*
X033545Y009821D03*
X033270Y009371D03*
X033220Y009346D03*
X033070Y009196D03*
X031820Y008546D03*
X031770Y008621D03*
X031720Y008696D03*
X031870Y008446D03*
X032295Y008321D03*
X032445Y008446D03*
X031220Y008171D03*
X031195Y008246D03*
X031245Y008046D03*
X031245Y007996D03*
X031245Y007971D03*
X031245Y007946D03*
X031245Y007921D03*
X031245Y007896D03*
X031245Y007396D03*
X031245Y007371D03*
X031245Y007271D03*
X031245Y007246D03*
X031245Y007221D03*
X031245Y007196D03*
X031220Y007046D03*
X031220Y007021D03*
X030620Y006521D03*
X030595Y006496D03*
X030570Y006446D03*
X029320Y006946D03*
X029295Y006896D03*
X029320Y007096D03*
X029295Y007146D03*
X028470Y009021D03*
X028470Y009871D03*
X024565Y007981D03*
X024515Y007506D03*
X024540Y007481D03*
X024565Y007456D03*
X024540Y007131D03*
X024540Y007106D03*
X024540Y007081D03*
X025215Y007031D03*
X025165Y006306D03*
X025815Y006431D03*
X025815Y006031D03*
X025815Y005781D03*
X025815Y005681D03*
X025815Y005631D03*
X025165Y005831D03*
X024565Y005581D03*
X024565Y005556D03*
X024565Y005181D03*
X024515Y005156D03*
X023440Y005356D03*
X023440Y005381D03*
X023440Y005406D03*
X023440Y005431D03*
X023090Y005431D03*
X023090Y005381D03*
X022765Y005456D03*
X022390Y005481D03*
X022065Y005581D03*
X022065Y005606D03*
X022065Y005631D03*
X022065Y005656D03*
X021665Y005356D03*
X022765Y005731D03*
X022540Y006306D03*
X022365Y006631D03*
X022365Y006656D03*
X022390Y006731D03*
X023115Y007206D03*
X023390Y007181D03*
X023390Y007156D03*
X023415Y007631D03*
X023115Y008006D03*
X022815Y007781D03*
X022790Y007756D03*
X022765Y007706D03*
X023065Y005056D03*
X022815Y005006D03*
X033795Y008371D03*
D36*
X033508Y006346D03*
X029032Y008696D03*
X028858Y008771D03*
X029032Y010196D03*
X027408Y005846D03*
X028757Y004496D03*
X028908Y003921D03*
X028858Y003846D03*
X028682Y003621D03*
X022702Y005031D03*
D37*
X023890Y005031D03*
X027770Y005846D03*
X033545Y009021D03*
D38*
X034045Y009346D03*
X023965Y005056D03*
D39*
X023065Y005081D03*
X030170Y004746D03*
X033895Y009546D03*
D40*
X028895Y008746D03*
X027395Y005996D03*
X027320Y006021D03*
X029370Y004596D03*
X030395Y004896D03*
X023915Y007756D03*
X023465Y005081D03*
D41*
X024228Y005081D03*
X024103Y007206D03*
X023603Y007206D03*
X028608Y004596D03*
X030208Y004846D03*
X033983Y009196D03*
D42*
X033983Y009221D03*
X034058Y009421D03*
X034208Y009146D03*
X034382Y009096D03*
X033533Y009546D03*
X033583Y009896D03*
X033807Y009846D03*
X033208Y008996D03*
X033182Y008971D03*
X031608Y008796D03*
X031533Y008846D03*
X030958Y009296D03*
X029382Y008821D03*
X029282Y008296D03*
X029382Y007621D03*
X027808Y005971D03*
X027732Y005996D03*
X027858Y005771D03*
X027483Y005871D03*
X027458Y005746D03*
X027132Y005971D03*
X026128Y005806D03*
X025653Y005781D03*
X025553Y005756D03*
X025277Y005181D03*
X024677Y005081D03*
X024627Y005456D03*
X024253Y005506D03*
X024052Y005506D03*
X024052Y005481D03*
X023628Y005481D03*
X023453Y005531D03*
X022177Y005731D03*
X022103Y005681D03*
X021828Y005806D03*
X021503Y006106D03*
X028708Y003896D03*
X029033Y003996D03*
X029183Y005021D03*
X030408Y005871D03*
X031533Y005471D03*
X031583Y005371D03*
X031858Y005696D03*
X030707Y005046D03*
X033483Y006921D03*
X033208Y007446D03*
X033208Y007471D03*
X028733Y010096D03*
D43*
X028720Y008796D03*
X029170Y008346D03*
X029320Y007596D03*
X029270Y007571D03*
X029045Y006746D03*
X027645Y006021D03*
X026115Y005481D03*
X024315Y005106D03*
X024040Y005531D03*
X023840Y005531D03*
X023840Y005506D03*
X023840Y005481D03*
X023640Y005506D03*
X023640Y005531D03*
X022365Y005806D03*
X022215Y005831D03*
X021665Y005631D03*
X023840Y007281D03*
X024265Y007631D03*
X023840Y009156D03*
X030270Y005746D03*
X030470Y004946D03*
X030270Y004871D03*
X030045Y004796D03*
X031695Y005296D03*
X028570Y003496D03*
X033420Y009096D03*
X033420Y009121D03*
X030720Y009421D03*
D44*
X034195Y008121D03*
X033620Y006321D03*
X029995Y004771D03*
X029870Y005496D03*
X024490Y005131D03*
X021965Y005731D03*
X023640Y007706D03*
X023815Y008081D03*
D45*
X023828Y005181D03*
X028783Y003696D03*
X029208Y005046D03*
X030008Y005596D03*
X032258Y008046D03*
X031158Y009121D03*
X033983Y009146D03*
D46*
X033845Y009371D03*
X027145Y006096D03*
X023915Y005206D03*
D47*
X024190Y005231D03*
X024090Y007181D03*
X029570Y004646D03*
X028970Y003946D03*
X028620Y003546D03*
X033895Y008321D03*
X033070Y008921D03*
X033695Y009121D03*
X033695Y009146D03*
X030745Y009396D03*
D48*
X023853Y005556D03*
D49*
X023853Y005581D03*
D50*
X023840Y005606D03*
D51*
X023852Y005631D03*
X023852Y005656D03*
X023852Y006981D03*
D52*
X023840Y006956D03*
X023840Y005681D03*
D53*
X023853Y005706D03*
X023878Y006931D03*
D54*
X023840Y005756D03*
X023840Y005731D03*
D55*
X023840Y005781D03*
X023840Y005806D03*
X023840Y005831D03*
X023840Y005856D03*
D56*
X023853Y005881D03*
X023853Y005906D03*
X023853Y005931D03*
D57*
X023840Y005956D03*
D58*
X023840Y005981D03*
X023840Y006006D03*
X023840Y006031D03*
X023840Y006556D03*
X023840Y006581D03*
D59*
X023840Y006081D03*
X023840Y006056D03*
D60*
X023853Y006106D03*
X023853Y006381D03*
X023853Y006406D03*
X023853Y006431D03*
X023853Y006456D03*
X023853Y006481D03*
D61*
X023828Y006131D03*
D62*
X023853Y006156D03*
X023853Y006181D03*
D63*
X023778Y006206D03*
D64*
X023790Y006231D03*
X023790Y006256D03*
D65*
X023853Y006281D03*
X023853Y006306D03*
D66*
X023903Y006331D03*
D67*
X023828Y006356D03*
D68*
X023853Y006506D03*
X023853Y006531D03*
D69*
X023853Y006606D03*
X023853Y006656D03*
X023853Y006681D03*
X023853Y006706D03*
D70*
X023840Y006631D03*
D71*
X023853Y006731D03*
D72*
X023840Y006756D03*
X023840Y006781D03*
D73*
X023853Y006806D03*
D74*
X023840Y006831D03*
D75*
X023853Y006856D03*
X023853Y006881D03*
D76*
X023840Y006906D03*
D77*
X023853Y007006D03*
X023853Y007031D03*
D78*
X023853Y007056D03*
D79*
X023840Y007081D03*
X023840Y007106D03*
D80*
X023853Y007131D03*
D81*
X023840Y007156D03*
D82*
X023603Y007181D03*
X029483Y004621D03*
X029658Y004671D03*
X030258Y004771D03*
X033908Y008396D03*
X033808Y009496D03*
X033908Y009571D03*
D83*
X029195Y008746D03*
X023865Y007581D03*
X029270Y004571D03*
D84*
X027133Y006046D03*
X023853Y007731D03*
D85*
X023890Y008031D03*
D86*
X023878Y008056D03*
D87*
X028795Y003821D03*
X031520Y005321D03*
D88*
X028895Y004521D03*
D89*
X028957Y004546D03*
D90*
X028733Y004571D03*
X027833Y005796D03*
D91*
X027533Y005946D03*
X030133Y005696D03*
X030208Y005771D03*
X030283Y005846D03*
X030183Y004721D03*
D92*
X030295Y004796D03*
X030295Y005821D03*
X030095Y005896D03*
X030795Y009346D03*
X033620Y009671D03*
X033770Y009771D03*
X033670Y009971D03*
X033670Y009996D03*
D93*
X031470Y005346D03*
D94*
X030070Y005621D03*
X030020Y005571D03*
X030095Y005871D03*
D95*
X030108Y005671D03*
X030083Y005646D03*
D96*
X030108Y005796D03*
X030833Y009321D03*
D97*
X033520Y009246D03*
X034070Y009121D03*
X027395Y005896D03*
X027095Y006121D03*
D98*
X027570Y005921D03*
D99*
X027470Y005971D03*
X034245Y008096D03*
D100*
X033608Y009271D03*
X027033Y006071D03*
D101*
X033045Y006371D03*
D102*
X032958Y006396D03*
D103*
X029058Y008721D03*
D104*
X033595Y009046D03*
D105*
X033858Y009071D03*
D106*
X033920Y009096D03*
D107*
X033708Y009296D03*
D108*
X034070Y009321D03*
X029045Y010171D03*
D109*
X033583Y009421D03*
D110*
X033633Y009446D03*
D111*
X029045Y010146D03*
D112*
X034130Y011431D02*
X020130Y011431D01*
X020130Y018431D01*
X034130Y018431D01*
X034130Y015431D01*
X033630Y015431D01*
X033630Y014431D01*
X034130Y014431D01*
X034130Y011431D01*
M02*
