G75*
%MOIN*%
%OFA0B0*%
%FSLAX24Y24*%
%IPPOS*%
%LPD*%
%AMOC8*
5,1,8,0,0,1.08239X$1,22.5*
%
%ADD10C,0.0300*%
%ADD11C,0.0110*%
%ADD12R,0.0120X0.0010*%
%ADD13R,0.0420X0.0010*%
%ADD14R,0.0560X0.0010*%
%ADD15R,0.0680X0.0010*%
%ADD16R,0.0780X0.0010*%
%ADD17R,0.0880X0.0010*%
%ADD18R,0.0960X0.0010*%
%ADD19R,0.1020X0.0010*%
%ADD20R,0.1100X0.0010*%
%ADD21R,0.1160X0.0010*%
%ADD22R,0.1220X0.0010*%
%ADD23R,0.1290X0.0010*%
%ADD24R,0.1360X0.0010*%
%ADD25R,0.1410X0.0010*%
%ADD26R,0.1450X0.0010*%
%ADD27R,0.1500X0.0010*%
%ADD28R,0.1530X0.0010*%
%ADD29R,0.1570X0.0010*%
%ADD30R,0.1630X0.0010*%
%ADD31R,0.1670X0.0010*%
%ADD32R,0.1710X0.0010*%
%ADD33R,0.1750X0.0010*%
%ADD34R,0.1790X0.0010*%
%ADD35R,0.1820X0.0010*%
%ADD36R,0.1860X0.0010*%
%ADD37R,0.1890X0.0010*%
%ADD38R,0.1930X0.0010*%
%ADD39R,0.1950X0.0010*%
%ADD40R,0.1990X0.0010*%
%ADD41R,0.2030X0.0010*%
%ADD42R,0.2050X0.0010*%
%ADD43R,0.2090X0.0010*%
%ADD44R,0.2120X0.0010*%
%ADD45R,0.0910X0.0010*%
%ADD46R,0.0860X0.0010*%
%ADD47R,0.0790X0.0010*%
%ADD48R,0.0760X0.0010*%
%ADD49R,0.0770X0.0010*%
%ADD50R,0.0740X0.0010*%
%ADD51R,0.0710X0.0010*%
%ADD52R,0.0720X0.0010*%
%ADD53R,0.0690X0.0010*%
%ADD54R,0.0670X0.0010*%
%ADD55R,0.0650X0.0010*%
%ADD56R,0.0630X0.0010*%
%ADD57R,0.0610X0.0010*%
%ADD58R,0.0050X0.0010*%
%ADD59R,0.0620X0.0010*%
%ADD60R,0.0600X0.0010*%
%ADD61R,0.0090X0.0010*%
%ADD62R,0.0080X0.0010*%
%ADD63R,0.0110X0.0010*%
%ADD64R,0.0590X0.0010*%
%ADD65R,0.0580X0.0010*%
%ADD66R,0.0150X0.0010*%
%ADD67R,0.0140X0.0010*%
%ADD68R,0.0570X0.0010*%
%ADD69R,0.0180X0.0010*%
%ADD70R,0.0190X0.0010*%
%ADD71R,0.0200X0.0010*%
%ADD72R,0.0550X0.0010*%
%ADD73R,0.0210X0.0010*%
%ADD74R,0.0220X0.0010*%
%ADD75R,0.0540X0.0010*%
%ADD76R,0.0230X0.0010*%
%ADD77R,0.0240X0.0010*%
%ADD78R,0.0250X0.0010*%
%ADD79R,0.0260X0.0010*%
%ADD80R,0.0530X0.0010*%
%ADD81R,0.0280X0.0010*%
%ADD82R,0.0270X0.0010*%
%ADD83R,0.0520X0.0010*%
%ADD84R,0.0290X0.0010*%
%ADD85R,0.0310X0.0010*%
%ADD86R,0.0300X0.0010*%
%ADD87R,0.0510X0.0010*%
%ADD88R,0.0320X0.0010*%
%ADD89R,0.0500X0.0010*%
%ADD90R,0.0340X0.0010*%
%ADD91R,0.0330X0.0010*%
%ADD92R,0.0350X0.0010*%
%ADD93R,0.0490X0.0010*%
%ADD94R,0.0360X0.0010*%
%ADD95R,0.0370X0.0010*%
%ADD96R,0.0480X0.0010*%
%ADD97R,0.0470X0.0010*%
%ADD98R,0.0460X0.0010*%
%ADD99R,0.0450X0.0010*%
%ADD100R,0.0440X0.0010*%
%ADD101R,0.0430X0.0010*%
%ADD102R,0.0410X0.0010*%
%ADD103R,0.0750X0.0010*%
%ADD104R,0.0640X0.0010*%
%ADD105R,0.0730X0.0010*%
%ADD106R,0.0700X0.0010*%
%ADD107R,0.0400X0.0010*%
%ADD108R,0.0830X0.0010*%
%ADD109R,0.0870X0.0010*%
%ADD110R,0.0390X0.0010*%
%ADD111R,0.0660X0.0010*%
%ADD112R,0.0990X0.0010*%
%ADD113R,0.1010X0.0010*%
%ADD114R,0.1040X0.0010*%
%ADD115R,0.1070X0.0010*%
%ADD116R,0.1130X0.0010*%
%ADD117R,0.0380X0.0010*%
%ADD118R,0.1190X0.0010*%
%ADD119R,0.0170X0.0010*%
%ADD120R,0.1250X0.0010*%
%ADD121R,0.1270X0.0010*%
%ADD122R,0.0160X0.0010*%
%ADD123R,0.1310X0.0010*%
%ADD124R,0.1330X0.0010*%
%ADD125R,0.1350X0.0010*%
%ADD126R,0.1370X0.0010*%
%ADD127R,0.1390X0.0010*%
%ADD128R,0.1430X0.0010*%
%ADD129R,0.1470X0.0010*%
%ADD130R,0.1480X0.0010*%
%ADD131R,0.1510X0.0010*%
%ADD132R,0.0030X0.0010*%
%ADD133R,0.1540X0.0010*%
%ADD134R,0.1550X0.0010*%
%ADD135R,0.1590X0.0010*%
%ADD136R,0.1600X0.0010*%
%ADD137R,0.1610X0.0010*%
%ADD138R,0.1640X0.0010*%
%ADD139R,0.1660X0.0010*%
%ADD140R,0.1680X0.0010*%
%ADD141R,0.1690X0.0010*%
%ADD142R,0.1700X0.0010*%
%ADD143R,0.1720X0.0010*%
%ADD144R,0.1230X0.0010*%
%ADD145R,0.0020X0.0010*%
%ADD146R,0.0130X0.0010*%
%ADD147R,0.0100X0.0010*%
%ADD148R,0.0040X0.0010*%
%ADD149R,0.0010X0.0010*%
%ADD150R,0.0070X0.0010*%
%ADD151R,0.0060X0.0010*%
%ADD152R,0.1340X0.0010*%
%ADD153R,0.1920X0.0010*%
%ADD154R,0.1910X0.0010*%
%ADD155R,0.1900X0.0010*%
%ADD156R,0.1880X0.0010*%
%ADD157R,0.1050X0.0010*%
%ADD158R,0.1210X0.0010*%
%ADD159R,0.1580X0.0010*%
%ADD160R,0.1730X0.0010*%
%ADD161R,0.1810X0.0010*%
%ADD162R,0.1870X0.0010*%
%ADD163R,0.1960X0.0010*%
%ADD164R,0.2130X0.0010*%
%ADD165R,0.2170X0.0010*%
%ADD166R,0.2190X0.0010*%
%ADD167R,0.2210X0.0010*%
%ADD168R,0.1080X0.0010*%
%ADD169R,0.1000X0.0010*%
%ADD170R,0.0940X0.0010*%
%ADD171R,0.0800X0.0010*%
%ADD172R,0.0810X0.0010*%
%ADD173R,0.1170X0.0010*%
%ADD174R,0.1280X0.0010*%
%ADD175R,0.1560X0.0010*%
%ADD176R,0.1520X0.0010*%
%ADD177R,0.1460X0.0010*%
%ADD178R,0.1440X0.0010*%
%ADD179R,0.0820X0.0010*%
%ADD180R,0.0930X0.0010*%
%ADD181R,0.2110X0.0010*%
%ADD182R,0.2080X0.0010*%
%ADD183R,0.2020X0.0010*%
%ADD184R,0.1850X0.0010*%
%ADD185R,0.1780X0.0010*%
%ADD186R,0.1740X0.0010*%
%ADD187R,0.1650X0.0010*%
%ADD188R,0.1490X0.0010*%
%ADD189R,0.1380X0.0010*%
%ADD190C,0.0500*%
D10*
X001418Y001581D02*
X002552Y001581D01*
X002552Y003282D01*
X003260Y002999D02*
X003543Y003282D01*
X004110Y003282D01*
X004394Y002999D01*
X004394Y001864D01*
X004110Y001581D01*
X003543Y001581D01*
X003260Y001864D01*
X003260Y002999D01*
X005101Y002999D02*
X005101Y002432D01*
X005385Y002148D01*
X006236Y002148D01*
X005668Y002148D02*
X005101Y001581D01*
X006236Y001581D02*
X006236Y003282D01*
X005385Y003282D01*
X005101Y002999D01*
X006943Y003282D02*
X008077Y003282D01*
X007510Y003282D02*
X007510Y001581D01*
X008784Y001581D02*
X008784Y003282D01*
X009919Y003282D02*
X008784Y001581D01*
X009919Y001581D02*
X009919Y003282D01*
X010626Y002999D02*
X010910Y003282D01*
X011477Y003282D01*
X011760Y002999D01*
X011760Y001864D01*
X011477Y001581D01*
X010910Y001581D01*
X010626Y001864D01*
X010626Y002999D01*
X012468Y002999D02*
X012751Y003282D01*
X013318Y003282D01*
X013602Y002999D01*
X013602Y001864D01*
X013318Y001581D01*
X012751Y001581D01*
X012468Y001864D01*
X016151Y001581D02*
X017001Y002432D01*
X017285Y002148D02*
X016151Y003282D01*
X017285Y003282D02*
X017285Y001581D01*
X017992Y001581D02*
X018559Y002148D01*
X018276Y002148D02*
X019127Y002148D01*
X019834Y002432D02*
X020968Y002432D01*
X020968Y002715D02*
X020401Y003282D01*
X019834Y002715D01*
X019834Y001581D01*
X019127Y001581D02*
X019127Y003282D01*
X018276Y003282D01*
X017992Y002999D01*
X017992Y002432D01*
X018276Y002148D01*
X020968Y001581D02*
X020968Y002715D01*
X021675Y002432D02*
X022810Y002432D01*
X023517Y002148D02*
X023517Y001864D01*
X023801Y001581D01*
X024368Y001581D01*
X024651Y001864D01*
X024368Y002432D02*
X023801Y002432D01*
X023517Y002148D01*
X024368Y002432D02*
X024651Y002715D01*
X024651Y002999D01*
X024368Y003282D01*
X023801Y003282D01*
X023517Y002999D01*
X022810Y003282D02*
X022810Y001581D01*
X021675Y001581D02*
X021675Y003282D01*
X027200Y002999D02*
X027200Y001864D01*
X027484Y001581D01*
X028334Y001581D01*
X028334Y003282D01*
X027484Y003282D01*
X027200Y002999D01*
X028972Y002999D02*
X029255Y002715D01*
X028972Y002999D02*
X028972Y003566D01*
X029963Y003282D02*
X029963Y001581D01*
X031097Y003282D01*
X031097Y001581D01*
X031804Y001581D02*
X031804Y002715D01*
X032371Y003282D01*
X032938Y002715D01*
X032938Y001581D01*
X033646Y001581D02*
X034780Y001581D01*
X034780Y003282D01*
X032938Y002432D02*
X031804Y002432D01*
D11*
X016562Y015189D02*
X016464Y015189D01*
X016365Y015287D01*
X016365Y015779D01*
X016759Y015779D02*
X016759Y015484D01*
X016661Y015386D01*
X016365Y015386D01*
X017010Y015386D02*
X017010Y015681D01*
X017108Y015779D01*
X017404Y015779D01*
X017404Y015386D01*
X017655Y015386D02*
X017950Y015386D01*
X018048Y015484D01*
X017950Y015583D01*
X017655Y015583D01*
X017655Y015681D02*
X017655Y015386D01*
X017655Y015681D02*
X017753Y015779D01*
X017950Y015779D01*
X018299Y015976D02*
X018299Y015386D01*
X018693Y015386D02*
X018693Y015976D01*
X018496Y015779D01*
X018299Y015976D01*
X015470Y015779D02*
X015273Y015779D01*
X015372Y015878D02*
X015372Y015484D01*
X015273Y015386D01*
X015040Y015386D02*
X015040Y015976D01*
X014942Y015779D02*
X014745Y015779D01*
X014647Y015681D01*
X014647Y015386D01*
X014396Y015484D02*
X014297Y015583D01*
X014002Y015583D01*
X014002Y015681D02*
X014002Y015386D01*
X014297Y015386D01*
X014396Y015484D01*
X014297Y015779D02*
X014100Y015779D01*
X014002Y015681D01*
X013751Y015779D02*
X013456Y015779D01*
X013358Y015681D01*
X013358Y015386D01*
X013107Y015386D02*
X013107Y015976D01*
X012811Y015779D02*
X013107Y015583D01*
X012811Y015386D01*
X012570Y015386D02*
X012274Y015386D01*
X012176Y015484D01*
X012274Y015583D01*
X012471Y015583D01*
X012570Y015681D01*
X012471Y015779D01*
X012176Y015779D01*
X011280Y015779D02*
X011084Y015779D01*
X011182Y015878D02*
X011182Y015484D01*
X011084Y015386D01*
X010851Y015484D02*
X010752Y015386D01*
X010555Y015386D01*
X010457Y015484D01*
X010457Y015681D01*
X010555Y015779D01*
X010752Y015779D01*
X010851Y015681D01*
X010851Y015484D01*
X009562Y015386D02*
X009562Y015976D01*
X009266Y015976D01*
X009168Y015878D01*
X009168Y015681D01*
X009266Y015583D01*
X009562Y015583D01*
X008917Y015484D02*
X008819Y015583D01*
X008523Y015583D01*
X008523Y015681D02*
X008523Y015386D01*
X008819Y015386D01*
X008917Y015484D01*
X008819Y015779D02*
X008622Y015779D01*
X008523Y015681D01*
X008273Y015779D02*
X008076Y015779D01*
X008174Y015878D02*
X008174Y015484D01*
X008076Y015386D01*
X007744Y015484D02*
X007646Y015386D01*
X007744Y015484D02*
X007744Y015878D01*
X007646Y015779D02*
X007843Y015779D01*
X007413Y015681D02*
X007413Y015484D01*
X007315Y015386D01*
X007118Y015386D01*
X007019Y015583D02*
X007413Y015583D01*
X007413Y015681D02*
X007315Y015779D01*
X007118Y015779D01*
X007019Y015681D01*
X007019Y015583D01*
X006769Y015583D02*
X006572Y015779D01*
X006473Y015779D01*
X006231Y015779D02*
X005936Y015779D01*
X005838Y015681D01*
X005838Y015386D01*
X006231Y015386D02*
X006231Y015779D01*
X006769Y015779D02*
X006769Y015386D01*
X004942Y015386D02*
X004942Y015779D01*
X004745Y015976D01*
X004549Y015779D01*
X004549Y015386D01*
X004298Y015484D02*
X004199Y015386D01*
X003904Y015386D01*
X003904Y015287D02*
X003904Y015779D01*
X004199Y015779D01*
X004298Y015681D01*
X004298Y015484D01*
X004549Y015681D02*
X004942Y015681D01*
X004101Y015189D02*
X004003Y015189D01*
X003904Y015287D01*
X003653Y015484D02*
X003653Y015681D01*
X003555Y015779D01*
X003358Y015779D01*
X003260Y015681D01*
X003260Y015583D01*
X003653Y015583D01*
X003653Y015484D02*
X003555Y015386D01*
X003358Y015386D01*
X003009Y015386D02*
X003009Y015779D01*
X002713Y015779D01*
X002615Y015681D01*
X002615Y015386D01*
X002266Y015484D02*
X002167Y015386D01*
X002266Y015484D02*
X002266Y015878D01*
X002364Y015779D02*
X002167Y015779D01*
X001934Y015681D02*
X001836Y015779D01*
X001541Y015779D01*
X001639Y015583D02*
X001836Y015583D01*
X001934Y015681D01*
X001639Y015583D02*
X001541Y015484D01*
X001639Y015386D01*
X001934Y015386D01*
X001290Y015386D02*
X001290Y015484D01*
X001290Y015681D02*
X001290Y016075D01*
X001326Y016436D02*
X001621Y016731D01*
X001720Y016633D02*
X001326Y017026D01*
X001720Y017026D02*
X001720Y016436D01*
X001970Y016436D02*
X002167Y016633D01*
X002069Y016633D02*
X002364Y016633D01*
X002364Y016436D02*
X002364Y017026D01*
X002069Y017026D01*
X001970Y016928D01*
X001970Y016731D01*
X002069Y016633D01*
X002615Y016731D02*
X003009Y016731D01*
X003009Y016829D02*
X003009Y016436D01*
X003260Y016731D02*
X003358Y016633D01*
X003653Y016633D01*
X003653Y016436D02*
X003653Y017026D01*
X003358Y017026D01*
X003260Y016928D01*
X003260Y016731D01*
X003009Y016829D02*
X002812Y017026D01*
X002615Y016829D01*
X002615Y016436D01*
X002713Y017486D02*
X002910Y017486D01*
X003009Y017584D01*
X002615Y017978D01*
X002615Y017584D01*
X002713Y017486D01*
X003009Y017584D02*
X003009Y017978D01*
X002910Y018076D01*
X002713Y018076D01*
X002615Y017978D01*
X002364Y017879D02*
X002167Y018076D01*
X002167Y017486D01*
X002364Y017486D02*
X001970Y017486D01*
X001720Y017584D02*
X001621Y017486D01*
X001424Y017486D01*
X001326Y017584D01*
X001326Y017781D01*
X001424Y017879D01*
X001523Y017879D01*
X001720Y017781D01*
X001720Y018076D01*
X001326Y018076D01*
X001424Y018536D02*
X001326Y018634D01*
X001326Y018831D01*
X001424Y018929D01*
X001621Y018929D01*
X001720Y018831D01*
X001720Y018634D01*
X001621Y018536D01*
X001424Y018536D01*
X001952Y018536D02*
X002051Y018634D01*
X002051Y019028D01*
X002149Y018929D02*
X001952Y018929D01*
X002400Y018831D02*
X002499Y018929D01*
X002695Y018929D01*
X002794Y018831D01*
X002794Y018634D01*
X002695Y018536D01*
X002499Y018536D01*
X002400Y018634D01*
X002400Y018831D01*
X003036Y018929D02*
X003134Y018929D01*
X003331Y018733D01*
X003331Y018929D02*
X003331Y018536D01*
X003582Y018831D02*
X003680Y018733D01*
X003975Y018733D01*
X003975Y018536D02*
X003975Y019126D01*
X003680Y019126D01*
X003582Y019028D01*
X003582Y018831D01*
X003555Y018076D02*
X003653Y017978D01*
X003555Y018076D02*
X003358Y018076D01*
X003260Y017978D01*
X003260Y017879D01*
X003653Y017486D01*
X003260Y017486D01*
X003904Y017781D02*
X004298Y017781D01*
X004549Y017879D02*
X004844Y017879D01*
X004942Y017781D01*
X004942Y017584D01*
X004844Y017486D01*
X004549Y017486D01*
X004549Y017387D02*
X004549Y017879D01*
X005193Y017879D02*
X005193Y017486D01*
X005488Y017486D01*
X005587Y017584D01*
X005587Y017879D01*
X005838Y017879D02*
X005838Y017486D01*
X005838Y017781D02*
X006231Y017781D01*
X006231Y017879D02*
X006231Y017486D01*
X006482Y017781D02*
X006876Y017781D01*
X007127Y017781D02*
X007127Y017584D01*
X007225Y017486D01*
X007422Y017486D01*
X007521Y017584D01*
X007521Y017781D02*
X007324Y017879D01*
X007225Y017879D01*
X007127Y017781D01*
X007521Y017781D02*
X007521Y018076D01*
X007127Y018076D01*
X007771Y017978D02*
X007870Y018076D01*
X008067Y018076D01*
X008165Y017978D01*
X007771Y017978D02*
X007771Y017879D01*
X008165Y017486D01*
X007771Y017486D01*
X006231Y017879D02*
X006035Y018076D01*
X005838Y017879D01*
X005712Y018536D02*
X005515Y018929D01*
X005265Y019028D02*
X005166Y019126D01*
X004969Y019126D01*
X004871Y019028D01*
X004871Y018929D01*
X005265Y018536D01*
X004871Y018536D01*
X005712Y018536D02*
X005909Y018929D01*
X004745Y017289D02*
X004647Y017289D01*
X004549Y017387D01*
X004549Y017026D02*
X004549Y016436D01*
X004549Y016731D02*
X004942Y016731D01*
X005193Y016633D02*
X005193Y016534D01*
X005292Y016436D01*
X005488Y016436D01*
X005587Y016534D01*
X005488Y016731D02*
X005292Y016731D01*
X005193Y016633D01*
X005193Y016928D02*
X005292Y017026D01*
X005488Y017026D01*
X005587Y016928D01*
X005587Y016829D01*
X005488Y016731D01*
X005838Y016534D02*
X005838Y016928D01*
X005936Y017026D01*
X006133Y017026D01*
X006231Y016928D01*
X006231Y016534D01*
X006133Y016436D01*
X005936Y016436D01*
X005838Y016534D01*
X004942Y016436D02*
X004942Y017026D01*
X013751Y015779D02*
X013751Y015386D01*
X014942Y015779D02*
X015040Y015681D01*
X029014Y016384D02*
X029112Y016286D01*
X029309Y016286D01*
X029408Y016384D01*
X029211Y016581D02*
X029112Y016581D01*
X029014Y016483D01*
X029014Y016384D01*
X029112Y016581D02*
X029014Y016679D01*
X029014Y016778D01*
X029112Y016876D01*
X029309Y016876D01*
X029408Y016778D01*
X029659Y016778D02*
X029855Y016581D01*
X029855Y016286D01*
X029855Y016581D02*
X030052Y016778D01*
X030052Y016876D01*
X030303Y016778D02*
X030402Y016876D01*
X030598Y016876D01*
X030697Y016778D01*
X030697Y016679D01*
X030598Y016581D01*
X030402Y016581D01*
X030303Y016483D01*
X030303Y016384D01*
X030402Y016286D01*
X030598Y016286D01*
X030697Y016384D01*
X030948Y016286D02*
X030948Y016876D01*
X031341Y016876D02*
X030948Y016286D01*
X031341Y016286D02*
X031341Y016876D01*
X031592Y016876D02*
X031986Y016876D01*
X031986Y016286D01*
X031592Y016286D01*
X031789Y016581D02*
X031986Y016581D01*
X032237Y016286D02*
X032630Y016286D01*
X032630Y016876D01*
X032237Y016876D01*
X032881Y016876D02*
X033275Y016876D01*
X033078Y016876D02*
X033078Y016286D01*
X032630Y016581D02*
X032434Y016581D01*
X029659Y016778D02*
X029659Y016876D01*
D12*
X032117Y007421D03*
X031767Y006651D03*
X031637Y006561D03*
X031637Y006551D03*
X031637Y006501D03*
X031527Y006411D03*
X031517Y006421D03*
X031527Y006661D03*
X031767Y006421D03*
X031137Y006481D03*
X030907Y006421D03*
X030787Y006341D03*
X030787Y006521D03*
X030787Y006531D03*
X030787Y006541D03*
X030787Y006551D03*
X030907Y006651D03*
X029847Y006571D03*
X031317Y005421D03*
X031207Y004961D03*
X032587Y006551D03*
X032577Y006581D03*
X032567Y006611D03*
X025187Y006451D03*
X025177Y006481D03*
X025167Y006511D03*
X024367Y006551D03*
X024237Y006461D03*
X024237Y006451D03*
X024237Y006401D03*
X024127Y006311D03*
X024117Y006321D03*
X024127Y006561D03*
X024367Y006321D03*
X023737Y006381D03*
X023507Y006321D03*
X023387Y006241D03*
X023387Y006421D03*
X023387Y006431D03*
X023387Y006441D03*
X023387Y006451D03*
X023507Y006551D03*
X022447Y006471D03*
X023917Y005321D03*
X023807Y004861D03*
X024717Y007321D03*
D13*
X024757Y007201D03*
X025177Y007821D03*
X025167Y007831D03*
X025157Y007841D03*
X024267Y007871D03*
X024187Y008051D03*
X023817Y007891D03*
X023447Y008011D03*
X023817Y008641D03*
X022487Y007861D03*
X022477Y007851D03*
X022467Y007841D03*
X022457Y007831D03*
X022447Y007811D03*
X022437Y007801D03*
X023827Y006611D03*
X024817Y005951D03*
X024827Y005961D03*
X025497Y006191D03*
X025497Y006201D03*
X025497Y006211D03*
X025137Y005641D03*
X025127Y005631D03*
X023807Y004871D03*
X022507Y005621D03*
X022497Y005631D03*
X022487Y005641D03*
X022477Y005651D03*
X022457Y005681D03*
X022787Y005971D03*
X022797Y005961D03*
X022807Y005951D03*
X029857Y005781D03*
X029877Y005751D03*
X029887Y005741D03*
X029897Y005731D03*
X029907Y005721D03*
X030207Y006051D03*
X030197Y006061D03*
X030187Y006071D03*
X031227Y006711D03*
X032157Y007301D03*
X032577Y007921D03*
X032567Y007931D03*
X032557Y007941D03*
X031667Y007971D03*
X031587Y008151D03*
X031217Y007991D03*
X030847Y008111D03*
X031217Y008741D03*
X029887Y007961D03*
X029877Y007951D03*
X029867Y007941D03*
X029857Y007931D03*
X029847Y007911D03*
X029837Y007901D03*
X032217Y006051D03*
X032227Y006061D03*
X032537Y005741D03*
X032527Y005731D03*
X032897Y006291D03*
X032897Y006301D03*
X032897Y006311D03*
X031207Y004971D03*
D14*
X031217Y004981D03*
X032207Y005451D03*
X032827Y006021D03*
X031217Y005781D03*
X031217Y006301D03*
X030207Y005461D03*
X025427Y005921D03*
X024807Y005351D03*
X023817Y005681D03*
X023817Y006201D03*
X022807Y005361D03*
X023817Y004881D03*
X022797Y008141D03*
X024817Y008151D03*
X030197Y008241D03*
X032217Y008251D03*
D15*
X032037Y008351D03*
X030387Y008351D03*
X030397Y007221D03*
X030617Y006931D03*
X032767Y005851D03*
X031207Y004991D03*
X025367Y005751D03*
X023807Y004891D03*
X023217Y006831D03*
X022997Y007121D03*
X022987Y008251D03*
X024637Y008251D03*
D16*
X024537Y008291D03*
X023817Y005721D03*
X023807Y004901D03*
X031207Y005001D03*
X031217Y005821D03*
X031937Y008391D03*
D17*
X031917Y007201D03*
X031207Y005011D03*
X024517Y007101D03*
X023807Y004911D03*
D18*
X023817Y004921D03*
X023817Y005761D03*
X031217Y005861D03*
X031217Y005021D03*
D19*
X031217Y005031D03*
X023817Y004931D03*
D20*
X023807Y004941D03*
X023817Y005811D03*
X031217Y005911D03*
X031207Y005041D03*
D21*
X031207Y005051D03*
X031217Y005931D03*
X031217Y008661D03*
X023817Y008561D03*
X023817Y005831D03*
X023807Y004951D03*
D22*
X023807Y004961D03*
X023817Y005851D03*
X023807Y007401D03*
X023817Y008551D03*
X031217Y008651D03*
X031207Y007501D03*
X031217Y005951D03*
X031207Y005061D03*
D23*
X031212Y005071D03*
X031212Y005981D03*
X023812Y005881D03*
X023812Y004971D03*
D24*
X023817Y004981D03*
X031217Y005081D03*
D25*
X031212Y005091D03*
X031212Y006041D03*
X031222Y007531D03*
X023822Y007431D03*
X023812Y005941D03*
X023812Y004991D03*
D26*
X023812Y005001D03*
X023812Y005961D03*
X023812Y007721D03*
X031212Y007821D03*
X031212Y006061D03*
X031212Y005101D03*
D27*
X031207Y005111D03*
X031217Y006091D03*
X031207Y007741D03*
X031207Y007751D03*
X023807Y007651D03*
X023807Y007641D03*
X023817Y005991D03*
X023807Y005011D03*
D28*
X023812Y005021D03*
X023812Y006011D03*
X023832Y007451D03*
X023802Y007591D03*
X023802Y007601D03*
X023812Y008491D03*
X031212Y008591D03*
X031202Y007701D03*
X031202Y007691D03*
X031232Y007551D03*
X031212Y006111D03*
X031212Y005121D03*
D29*
X031212Y005131D03*
X031212Y006141D03*
X031202Y007611D03*
X031202Y007621D03*
X031202Y007631D03*
X031212Y008581D03*
X023812Y008481D03*
X023802Y007531D03*
X023802Y007521D03*
X023802Y007511D03*
X023812Y006041D03*
X023812Y005031D03*
D30*
X023812Y005041D03*
X023812Y006081D03*
X031212Y006181D03*
X031212Y005141D03*
D31*
X031212Y005151D03*
X031212Y006211D03*
X031212Y007061D03*
X023812Y006961D03*
X023812Y006111D03*
X023812Y005051D03*
D32*
X023812Y005061D03*
X023812Y006151D03*
X031212Y006251D03*
X031212Y005161D03*
D33*
X031212Y005171D03*
X023812Y005071D03*
D34*
X023812Y005081D03*
X031212Y005181D03*
D35*
X031217Y005191D03*
X023817Y005091D03*
D36*
X023807Y005101D03*
X031207Y005201D03*
D37*
X031212Y005211D03*
X031212Y006901D03*
X031212Y006911D03*
X031212Y008501D03*
X023812Y008401D03*
X023812Y006811D03*
X023812Y006801D03*
X023812Y005111D03*
D38*
X023812Y005121D03*
X031212Y005221D03*
D39*
X031212Y005231D03*
X031212Y008481D03*
X023812Y008381D03*
X023812Y005131D03*
D40*
X023812Y005141D03*
X023812Y007011D03*
X023812Y008371D03*
X031212Y008471D03*
X031212Y007111D03*
X031212Y005241D03*
D41*
X031212Y005251D03*
X031212Y007121D03*
X023812Y007021D03*
X023812Y005151D03*
D42*
X023812Y005161D03*
X023812Y008351D03*
X031212Y008451D03*
X031212Y005261D03*
D43*
X031212Y005271D03*
X031212Y007131D03*
X023812Y007031D03*
X023812Y005171D03*
D44*
X023817Y005181D03*
X031217Y005281D03*
D45*
X031212Y005851D03*
X030592Y005291D03*
X031832Y005291D03*
X031202Y007461D03*
X024432Y005191D03*
X023812Y005751D03*
X023192Y005191D03*
X023802Y007361D03*
D46*
X024467Y008311D03*
X023817Y008601D03*
X023157Y005201D03*
X024477Y005201D03*
X030557Y005301D03*
X031877Y005301D03*
X031867Y008411D03*
X031217Y008701D03*
D47*
X031212Y008711D03*
X030492Y008391D03*
X030502Y005311D03*
X031922Y005311D03*
X024522Y005211D03*
X023102Y005211D03*
X023092Y008291D03*
X023812Y008611D03*
D48*
X023067Y008281D03*
X025327Y005671D03*
X025327Y005661D03*
X024547Y005221D03*
X030467Y008381D03*
X032727Y005771D03*
X032727Y005761D03*
X031947Y005321D03*
D49*
X032722Y005751D03*
X030482Y005321D03*
X025322Y005651D03*
X023082Y005221D03*
D50*
X023057Y005231D03*
X023817Y005711D03*
X024577Y005231D03*
X025337Y005691D03*
X024597Y007121D03*
X030457Y005331D03*
X031217Y005811D03*
X031977Y005331D03*
X032737Y005791D03*
X031997Y007221D03*
D51*
X032752Y005821D03*
X032002Y005341D03*
X025352Y005721D03*
X024602Y005241D03*
D52*
X025347Y005711D03*
X023807Y006701D03*
X023797Y007341D03*
X024587Y008271D03*
X023027Y005241D03*
X030427Y005341D03*
X032747Y005811D03*
X031207Y006801D03*
X031197Y007441D03*
X031987Y008371D03*
D53*
X031812Y006931D03*
X032762Y005841D03*
X032022Y005351D03*
X030402Y005351D03*
X025362Y005741D03*
X024622Y005251D03*
X023002Y005251D03*
X024412Y006831D03*
D54*
X024642Y007141D03*
X023432Y007751D03*
X022972Y008241D03*
X024662Y008241D03*
X025372Y005761D03*
X024642Y005261D03*
X022982Y005261D03*
X022962Y005271D03*
X030362Y005371D03*
X030382Y005361D03*
X032042Y005361D03*
X032772Y005861D03*
X032042Y007241D03*
X030832Y007851D03*
X030372Y008341D03*
X032062Y008341D03*
D55*
X030342Y008331D03*
X032782Y005891D03*
X032082Y005381D03*
X032062Y005371D03*
X030342Y005381D03*
X025382Y005791D03*
X024682Y005281D03*
X024662Y005271D03*
X022942Y005281D03*
X022942Y008231D03*
D56*
X022922Y008221D03*
X023412Y007761D03*
X024142Y007931D03*
X024702Y008221D03*
X024722Y008211D03*
X023812Y006691D03*
X025392Y005821D03*
X025392Y005811D03*
X024702Y005291D03*
X022922Y005291D03*
X030322Y005391D03*
X032102Y005391D03*
X032792Y005911D03*
X032792Y005921D03*
X031212Y006791D03*
X030812Y007861D03*
X031542Y008031D03*
X032102Y008321D03*
X032122Y008311D03*
X030322Y008321D03*
D57*
X030292Y008301D03*
X030812Y007871D03*
X031612Y007861D03*
X032152Y008291D03*
X031212Y006991D03*
X032802Y005941D03*
X032122Y005401D03*
X025402Y005841D03*
X024722Y005301D03*
X023812Y006891D03*
X024212Y007761D03*
X024752Y008191D03*
X023412Y007771D03*
X022892Y008201D03*
D58*
X024682Y007341D03*
X024242Y006381D03*
X023872Y005301D03*
X023762Y005301D03*
X031162Y005401D03*
X031272Y005401D03*
X031642Y006481D03*
X032082Y007441D03*
D59*
X032067Y007251D03*
X032137Y008301D03*
X030307Y008311D03*
X032797Y005931D03*
X030307Y005401D03*
X025397Y005831D03*
X024667Y007151D03*
X024737Y008201D03*
X022907Y008211D03*
X022907Y005301D03*
D60*
X022887Y005311D03*
X024737Y005311D03*
X024757Y005321D03*
X025407Y005851D03*
X025407Y005861D03*
X022947Y007141D03*
X024147Y007941D03*
X024767Y008181D03*
X022877Y008191D03*
X030277Y008291D03*
X031547Y008041D03*
X032167Y008281D03*
X030347Y007241D03*
X032807Y005961D03*
X032807Y005951D03*
X032157Y005421D03*
X032137Y005411D03*
X030287Y005411D03*
D61*
X031292Y005411D03*
X031472Y006481D03*
X031472Y006491D03*
X031472Y006501D03*
X031462Y006521D03*
X031462Y006531D03*
X031462Y006541D03*
X031462Y006551D03*
X031472Y006581D03*
X031472Y006591D03*
X031482Y006611D03*
X031802Y006601D03*
X031812Y006581D03*
X031812Y006571D03*
X031812Y006501D03*
X031812Y006491D03*
X031802Y006481D03*
X031802Y006471D03*
X030962Y006491D03*
X030962Y006501D03*
X030962Y006511D03*
X030962Y006521D03*
X030962Y006531D03*
X030962Y006541D03*
X030962Y006551D03*
X030962Y006561D03*
X030962Y006571D03*
X030952Y006591D03*
X030952Y006601D03*
X030952Y006481D03*
X030952Y006471D03*
X030782Y006581D03*
X030622Y006591D03*
X030622Y006601D03*
X030612Y006561D03*
X030612Y006551D03*
X030612Y006541D03*
X030612Y006531D03*
X030612Y006521D03*
X030622Y006491D03*
X030622Y006481D03*
X030632Y006461D03*
X030792Y006801D03*
X030182Y007051D03*
X032102Y007431D03*
X030842Y008241D03*
X024702Y007331D03*
X023392Y006701D03*
X023552Y006501D03*
X023552Y006491D03*
X023562Y006471D03*
X023562Y006461D03*
X023562Y006451D03*
X023562Y006441D03*
X023562Y006431D03*
X023562Y006421D03*
X023562Y006411D03*
X023562Y006401D03*
X023562Y006391D03*
X023552Y006381D03*
X023552Y006371D03*
X023382Y006481D03*
X023222Y006491D03*
X023222Y006501D03*
X023212Y006461D03*
X023212Y006451D03*
X023212Y006441D03*
X023212Y006431D03*
X023212Y006421D03*
X023222Y006391D03*
X023222Y006381D03*
X023232Y006361D03*
X022782Y006951D03*
X024072Y006491D03*
X024072Y006481D03*
X024082Y006511D03*
X024062Y006451D03*
X024062Y006441D03*
X024062Y006431D03*
X024062Y006421D03*
X024072Y006401D03*
X024072Y006391D03*
X024072Y006381D03*
X024402Y006381D03*
X024402Y006371D03*
X024412Y006391D03*
X024412Y006401D03*
X024412Y006471D03*
X024412Y006481D03*
X024402Y006501D03*
X023892Y005311D03*
X023442Y008141D03*
D62*
X023807Y007831D03*
X022917Y007331D03*
X024407Y006491D03*
X024417Y006461D03*
X024417Y006451D03*
X024417Y006441D03*
X024417Y006431D03*
X024417Y006421D03*
X024417Y006411D03*
X024237Y006391D03*
X024067Y006411D03*
X024067Y006461D03*
X024067Y006471D03*
X023387Y006391D03*
X023217Y006401D03*
X023217Y006411D03*
X023217Y006471D03*
X023217Y006481D03*
X023737Y005311D03*
X030317Y007431D03*
X031207Y007931D03*
X031467Y006571D03*
X031467Y006561D03*
X031467Y006511D03*
X031637Y006491D03*
X031817Y006511D03*
X031817Y006521D03*
X031817Y006531D03*
X031817Y006541D03*
X031817Y006551D03*
X031817Y006561D03*
X031807Y006591D03*
X030787Y006491D03*
X030617Y006501D03*
X030617Y006511D03*
X030617Y006571D03*
X030617Y006581D03*
X031137Y005411D03*
D63*
X031112Y005421D03*
X030922Y006431D03*
X030932Y006441D03*
X030792Y006511D03*
X030782Y006561D03*
X030662Y006651D03*
X030652Y006641D03*
X030642Y006631D03*
X030652Y006431D03*
X030662Y006421D03*
X030922Y006641D03*
X030932Y006631D03*
X031212Y006981D03*
X031512Y006651D03*
X031502Y006641D03*
X031502Y006431D03*
X031772Y006431D03*
X031782Y006441D03*
X031792Y006451D03*
X031612Y008271D03*
X031212Y008751D03*
X024212Y008171D03*
X023812Y008651D03*
X023812Y006881D03*
X024112Y006551D03*
X024102Y006541D03*
X024102Y006331D03*
X024372Y006331D03*
X024382Y006341D03*
X024392Y006351D03*
X023532Y006341D03*
X023522Y006331D03*
X023392Y006411D03*
X023382Y006461D03*
X023262Y006551D03*
X023252Y006541D03*
X023242Y006531D03*
X023252Y006331D03*
X023262Y006321D03*
X023522Y006541D03*
X023532Y006531D03*
X023712Y005321D03*
D64*
X022872Y005321D03*
X022852Y005331D03*
X023822Y006191D03*
X025412Y005871D03*
X024222Y007771D03*
X024152Y007951D03*
X024782Y008171D03*
X023402Y007781D03*
X022862Y008181D03*
X030262Y008281D03*
X030802Y007881D03*
X031552Y008051D03*
X031622Y007871D03*
X032182Y008271D03*
X031222Y006291D03*
X032812Y005971D03*
X030272Y005421D03*
X030252Y005431D03*
D65*
X030237Y005441D03*
X032177Y005431D03*
X032817Y005981D03*
X032817Y005991D03*
X031217Y006781D03*
X032087Y007261D03*
X031557Y008061D03*
X030247Y008271D03*
X025417Y005891D03*
X025417Y005881D03*
X024777Y005331D03*
X023817Y006681D03*
X024687Y007161D03*
X024157Y007961D03*
X022847Y008171D03*
X022837Y005341D03*
D66*
X023942Y005331D03*
X024632Y005891D03*
X024332Y006301D03*
X025032Y006751D03*
X025042Y006741D03*
X025052Y006731D03*
X025062Y006711D03*
X025072Y006701D03*
X025082Y006681D03*
X025092Y006671D03*
X025102Y006651D03*
X025182Y006421D03*
X024832Y006941D03*
X022612Y006771D03*
X022602Y006761D03*
X022592Y006751D03*
X022582Y006731D03*
X022572Y006721D03*
X022562Y006711D03*
X022552Y006691D03*
X022542Y006681D03*
X022532Y006661D03*
X029932Y006761D03*
X029942Y006781D03*
X029952Y006791D03*
X029962Y006811D03*
X029972Y006821D03*
X029982Y006831D03*
X029992Y006851D03*
X030002Y006861D03*
X030012Y006871D03*
X031732Y006401D03*
X032032Y005991D03*
X032582Y006521D03*
X032502Y006751D03*
X032492Y006771D03*
X032482Y006781D03*
X032472Y006801D03*
X032462Y006811D03*
X032452Y006831D03*
X032442Y006841D03*
X032432Y006851D03*
X032232Y007041D03*
X031342Y005431D03*
D67*
X031087Y005431D03*
X031217Y005741D03*
X030397Y005991D03*
X030897Y006411D03*
X029957Y006801D03*
X029937Y006771D03*
X029927Y006751D03*
X029917Y006741D03*
X029917Y006731D03*
X029907Y006721D03*
X029897Y006701D03*
X029887Y006681D03*
X029877Y006651D03*
X029847Y006521D03*
X030187Y007041D03*
X030267Y007401D03*
X030837Y008231D03*
X032137Y007411D03*
X032457Y006821D03*
X032477Y006791D03*
X032497Y006761D03*
X032507Y006741D03*
X032517Y006731D03*
X032517Y006721D03*
X032547Y006661D03*
X032587Y006531D03*
X025187Y006431D03*
X025147Y006561D03*
X025117Y006621D03*
X025117Y006631D03*
X025107Y006641D03*
X025097Y006661D03*
X025077Y006691D03*
X025057Y006721D03*
X024737Y007311D03*
X023437Y008131D03*
X022867Y007301D03*
X022787Y006941D03*
X022557Y006701D03*
X022537Y006671D03*
X022527Y006651D03*
X022517Y006641D03*
X022517Y006631D03*
X022507Y006621D03*
X022497Y006601D03*
X022487Y006581D03*
X022477Y006551D03*
X022447Y006421D03*
X022997Y005891D03*
X023497Y006311D03*
X023817Y005641D03*
X023687Y005331D03*
D68*
X022822Y005351D03*
X024792Y005341D03*
X025422Y005901D03*
X025422Y005911D03*
X024492Y006711D03*
X024232Y007781D03*
X024802Y008161D03*
X023402Y007791D03*
X022822Y008161D03*
X022812Y008151D03*
X030212Y008251D03*
X030222Y008261D03*
X030802Y007891D03*
X031632Y007881D03*
X032202Y008261D03*
X031892Y006811D03*
X032822Y006011D03*
X032822Y006001D03*
X032192Y005441D03*
X030222Y005451D03*
D69*
X030187Y005931D03*
X030177Y005941D03*
X030167Y005951D03*
X030187Y006181D03*
X030177Y006191D03*
X030167Y006201D03*
X030157Y006211D03*
X030117Y006241D03*
X030107Y006251D03*
X030097Y006261D03*
X030087Y006271D03*
X030077Y006281D03*
X030067Y006291D03*
X030057Y006301D03*
X030047Y006311D03*
X029857Y006491D03*
X030057Y006911D03*
X030067Y006921D03*
X030077Y006931D03*
X030087Y006941D03*
X030247Y007381D03*
X030417Y006491D03*
X032277Y006211D03*
X032287Y006221D03*
X032297Y006231D03*
X032307Y006241D03*
X032317Y006251D03*
X032327Y006261D03*
X032337Y006271D03*
X032247Y005941D03*
X032237Y005931D03*
X032227Y005921D03*
X031367Y005441D03*
X031057Y005441D03*
X032377Y006911D03*
X032367Y006921D03*
X032357Y006931D03*
X032157Y007391D03*
X030837Y008221D03*
X024977Y006811D03*
X024967Y006821D03*
X024957Y006831D03*
X024757Y007291D03*
X023017Y006391D03*
X022757Y006111D03*
X022767Y006101D03*
X022777Y006091D03*
X022787Y006081D03*
X022717Y006141D03*
X022707Y006151D03*
X022697Y006161D03*
X022687Y006171D03*
X022677Y006181D03*
X022667Y006191D03*
X022657Y006201D03*
X022647Y006211D03*
X022457Y006391D03*
X022657Y006811D03*
X022667Y006821D03*
X022677Y006831D03*
X022687Y006841D03*
X022847Y007281D03*
X023437Y008121D03*
X024937Y006171D03*
X024927Y006161D03*
X024917Y006151D03*
X024907Y006141D03*
X024897Y006131D03*
X024887Y006121D03*
X024877Y006111D03*
X024847Y005841D03*
X024837Y005831D03*
X024827Y005821D03*
X023967Y005341D03*
X023657Y005341D03*
X022787Y005831D03*
X022777Y005841D03*
X022767Y005851D03*
D70*
X022802Y005821D03*
X022812Y005811D03*
X022822Y005801D03*
X022832Y005791D03*
X022632Y006221D03*
X022622Y006231D03*
X022612Y006241D03*
X022602Y006251D03*
X022592Y006261D03*
X022582Y006271D03*
X022702Y006851D03*
X024942Y006841D03*
X025172Y006391D03*
X025032Y006261D03*
X025022Y006251D03*
X025012Y006241D03*
X025002Y006231D03*
X024992Y006221D03*
X024982Y006211D03*
X024972Y006201D03*
X024962Y006191D03*
X024952Y006181D03*
X024812Y005811D03*
X024802Y005801D03*
X024792Y005791D03*
X024782Y005781D03*
X023992Y005351D03*
X029982Y006371D03*
X029992Y006361D03*
X030002Y006351D03*
X030012Y006341D03*
X030022Y006331D03*
X030032Y006321D03*
X030202Y005921D03*
X030212Y005911D03*
X030222Y005901D03*
X030232Y005891D03*
X031392Y005451D03*
X032182Y005881D03*
X032192Y005891D03*
X032202Y005901D03*
X032212Y005911D03*
X032352Y006281D03*
X032362Y006291D03*
X032372Y006301D03*
X032382Y006311D03*
X032392Y006321D03*
X032402Y006331D03*
X032412Y006341D03*
X032422Y006351D03*
X032432Y006361D03*
X032572Y006491D03*
X032342Y006941D03*
X030102Y006951D03*
D71*
X030117Y006961D03*
X030197Y007031D03*
X030787Y006721D03*
X030787Y006351D03*
X030247Y005881D03*
X030257Y005871D03*
X030267Y005861D03*
X030297Y005841D03*
X031037Y005451D03*
X032147Y005851D03*
X032157Y005861D03*
X032167Y005871D03*
X032447Y006371D03*
X032457Y006381D03*
X032467Y006391D03*
X032567Y006481D03*
X032327Y006951D03*
X032227Y007031D03*
X032167Y007381D03*
X031217Y007941D03*
X031057Y008031D03*
X031607Y008251D03*
X031637Y006351D03*
X029967Y006381D03*
X029957Y006391D03*
X029947Y006401D03*
X025167Y006381D03*
X025067Y006291D03*
X025057Y006281D03*
X025047Y006271D03*
X024767Y005771D03*
X024757Y005761D03*
X024747Y005751D03*
X024237Y006251D03*
X023387Y006251D03*
X023387Y006621D03*
X022797Y006931D03*
X022717Y006861D03*
X022547Y006301D03*
X022557Y006291D03*
X022567Y006281D03*
X022847Y005781D03*
X022857Y005771D03*
X022867Y005761D03*
X022897Y005741D03*
X023637Y005351D03*
X024927Y006851D03*
X024827Y006931D03*
X024767Y007281D03*
X023817Y007841D03*
X023657Y007931D03*
X024207Y008151D03*
D72*
X024162Y007971D03*
X024832Y008141D03*
X023812Y008631D03*
X022782Y008131D03*
X023392Y007801D03*
X022922Y007151D03*
X023152Y006841D03*
X023812Y006671D03*
X024472Y006841D03*
X025432Y005941D03*
X025432Y005931D03*
X024822Y005361D03*
X022792Y005371D03*
X030192Y005471D03*
X031212Y006771D03*
X030552Y006941D03*
X030322Y007251D03*
X030792Y007901D03*
X030182Y008231D03*
X031212Y008731D03*
X032232Y008241D03*
X031562Y008071D03*
X031872Y006941D03*
X032832Y006041D03*
X032832Y006031D03*
X032222Y005461D03*
D73*
X032102Y005821D03*
X032132Y005841D03*
X032062Y006001D03*
X032482Y006401D03*
X032492Y006411D03*
X032522Y006431D03*
X032532Y006441D03*
X032542Y006451D03*
X032552Y006461D03*
X032562Y006471D03*
X032312Y006961D03*
X031642Y006721D03*
X030132Y006971D03*
X030222Y007361D03*
X030232Y007371D03*
X030842Y008211D03*
X029862Y006481D03*
X029912Y006431D03*
X029922Y006421D03*
X029932Y006411D03*
X030282Y005851D03*
X030312Y005831D03*
X031412Y005461D03*
X025162Y006371D03*
X025152Y006361D03*
X025142Y006351D03*
X025132Y006341D03*
X025122Y006331D03*
X025092Y006311D03*
X025082Y006301D03*
X024662Y005901D03*
X024732Y005741D03*
X024702Y005721D03*
X024012Y005361D03*
X022912Y005731D03*
X022882Y005751D03*
X022532Y006311D03*
X022522Y006321D03*
X022512Y006331D03*
X022462Y006381D03*
X022732Y006871D03*
X022822Y007261D03*
X022832Y007271D03*
X024242Y006621D03*
X024912Y006861D03*
X023442Y008111D03*
D74*
X022817Y007251D03*
X022747Y006881D03*
X022467Y006371D03*
X022477Y006361D03*
X022487Y006351D03*
X022497Y006341D03*
X022967Y005901D03*
X022927Y005721D03*
X022937Y005711D03*
X022957Y005701D03*
X022967Y005691D03*
X023617Y005361D03*
X024647Y005681D03*
X024677Y005701D03*
X024687Y005711D03*
X024717Y005731D03*
X024627Y006331D03*
X024637Y006371D03*
X024647Y006381D03*
X025107Y006321D03*
X024897Y006871D03*
X024877Y006881D03*
X029867Y006471D03*
X029877Y006461D03*
X029887Y006451D03*
X029897Y006441D03*
X030367Y006001D03*
X030327Y005821D03*
X030337Y005811D03*
X030357Y005801D03*
X030367Y005791D03*
X031017Y005461D03*
X032047Y005781D03*
X032077Y005801D03*
X032087Y005811D03*
X032117Y005831D03*
X032027Y006431D03*
X032037Y006471D03*
X032047Y006481D03*
X032507Y006421D03*
X032297Y006971D03*
X032277Y006981D03*
X030217Y007351D03*
X030147Y006981D03*
D75*
X031637Y007891D03*
X031567Y008081D03*
X032247Y008231D03*
X032257Y008221D03*
X032277Y008211D03*
X030867Y008041D03*
X030167Y008221D03*
X030157Y008211D03*
X032837Y006061D03*
X032837Y006051D03*
X032247Y005481D03*
X032237Y005471D03*
X030177Y005481D03*
X025437Y005951D03*
X025437Y005961D03*
X024847Y005381D03*
X024837Y005371D03*
X022777Y005381D03*
X024237Y007791D03*
X024167Y007981D03*
X024847Y008131D03*
X024857Y008121D03*
X024877Y008111D03*
X023467Y007941D03*
X022767Y008121D03*
X022757Y008111D03*
D76*
X023442Y008101D03*
X024212Y008141D03*
X023782Y007321D03*
X024782Y007271D03*
X024792Y007261D03*
X024242Y006611D03*
X024632Y006361D03*
X024632Y006351D03*
X024632Y006341D03*
X024622Y006321D03*
X024622Y006311D03*
X024612Y006301D03*
X024612Y006291D03*
X024242Y006261D03*
X024662Y005691D03*
X024632Y005671D03*
X024622Y005661D03*
X024602Y005651D03*
X024572Y005631D03*
X024032Y005371D03*
X023022Y005651D03*
X023012Y005661D03*
X022992Y005671D03*
X022982Y005681D03*
X023392Y006261D03*
X023002Y006351D03*
X022992Y006371D03*
X022992Y006381D03*
X030392Y006471D03*
X030392Y006481D03*
X030402Y006451D03*
X030792Y006361D03*
X031642Y006361D03*
X032012Y006391D03*
X032012Y006401D03*
X032022Y006411D03*
X032022Y006421D03*
X032032Y006441D03*
X032032Y006451D03*
X032032Y006461D03*
X031642Y006711D03*
X031182Y007421D03*
X032182Y007371D03*
X032192Y007361D03*
X031612Y008241D03*
X030842Y008201D03*
X030382Y005781D03*
X030392Y005771D03*
X030412Y005761D03*
X030422Y005751D03*
X031432Y005471D03*
X031972Y005731D03*
X032002Y005751D03*
X032022Y005761D03*
X032032Y005771D03*
X032062Y005791D03*
D77*
X031987Y005741D03*
X031957Y005721D03*
X031937Y005711D03*
X031997Y006361D03*
X031997Y006371D03*
X032007Y006381D03*
X032057Y006571D03*
X032057Y006581D03*
X032057Y006591D03*
X030787Y006711D03*
X030407Y006981D03*
X030207Y007341D03*
X030397Y006461D03*
X030407Y006441D03*
X030407Y006431D03*
X030417Y006421D03*
X030417Y006411D03*
X030437Y005741D03*
X030457Y005731D03*
X030477Y005721D03*
X030997Y005471D03*
X032197Y007351D03*
X024797Y007251D03*
X024657Y006491D03*
X024657Y006481D03*
X024657Y006471D03*
X024607Y006281D03*
X024597Y006271D03*
X024597Y006261D03*
X024587Y005641D03*
X024557Y005621D03*
X024537Y005611D03*
X023597Y005371D03*
X023077Y005621D03*
X023057Y005631D03*
X023037Y005641D03*
X023017Y006311D03*
X023017Y006321D03*
X023007Y006331D03*
X023007Y006341D03*
X022997Y006361D03*
X023387Y006611D03*
X023007Y006881D03*
X022807Y007241D03*
D78*
X022812Y006921D03*
X022982Y006481D03*
X023092Y005611D03*
X023112Y005601D03*
X023122Y005591D03*
X024052Y005381D03*
X024482Y005581D03*
X024502Y005591D03*
X024522Y005601D03*
X024582Y006241D03*
X024592Y006251D03*
X024652Y006501D03*
X024652Y006511D03*
X024622Y006881D03*
X024812Y006921D03*
X030212Y007021D03*
X030382Y006581D03*
X030492Y005711D03*
X030512Y005701D03*
X030522Y005691D03*
X031452Y005481D03*
X031882Y005681D03*
X031902Y005691D03*
X031922Y005701D03*
X031982Y006341D03*
X031992Y006351D03*
X032052Y006601D03*
X032052Y006611D03*
X032022Y006981D03*
X032212Y007021D03*
D79*
X032197Y007341D03*
X031217Y007951D03*
X030847Y008191D03*
X031607Y008231D03*
X030207Y007331D03*
X030787Y006701D03*
X030387Y006601D03*
X030387Y006591D03*
X030427Y006401D03*
X030437Y006381D03*
X030787Y006371D03*
X030547Y005681D03*
X030567Y005671D03*
X030977Y005481D03*
X032087Y006011D03*
X032047Y006621D03*
X032047Y006631D03*
X024797Y007241D03*
X024647Y006531D03*
X024647Y006521D03*
X024687Y005911D03*
X023577Y005381D03*
X023167Y005571D03*
X023147Y005581D03*
X023037Y006281D03*
X023027Y006301D03*
X022987Y006491D03*
X022987Y006501D03*
X023387Y006601D03*
X023387Y006271D03*
X022807Y007231D03*
X023817Y007851D03*
X023447Y008091D03*
X024207Y008131D03*
D80*
X024242Y007801D03*
X024892Y008101D03*
X024712Y007171D03*
X023392Y007811D03*
X022742Y008101D03*
X023812Y006211D03*
X022762Y005391D03*
X022752Y005401D03*
X024862Y005391D03*
X025442Y005971D03*
X030152Y005501D03*
X030162Y005491D03*
X031212Y006311D03*
X032112Y007271D03*
X031642Y007901D03*
X032292Y008201D03*
X030792Y007911D03*
X030142Y008201D03*
X032842Y006071D03*
X032262Y005491D03*
D81*
X031837Y005661D03*
X031817Y005651D03*
X031807Y005641D03*
X031477Y005491D03*
X030607Y005651D03*
X030457Y006351D03*
X030447Y006361D03*
X030387Y006621D03*
X031217Y006581D03*
X031957Y006311D03*
X031967Y006321D03*
X032037Y006651D03*
X032037Y006661D03*
X030847Y008181D03*
X024637Y006561D03*
X024637Y006551D03*
X024567Y006221D03*
X024557Y006211D03*
X023817Y006481D03*
X023057Y006251D03*
X023047Y006261D03*
X022987Y006521D03*
X023207Y005551D03*
X024077Y005391D03*
X024407Y005541D03*
X024417Y005551D03*
X024437Y005561D03*
X023447Y008081D03*
D82*
X022992Y006511D03*
X023032Y006291D03*
X023042Y006271D03*
X023182Y005561D03*
X023552Y005391D03*
X024462Y005571D03*
X024572Y006231D03*
X024242Y006271D03*
X024242Y006601D03*
X024642Y006541D03*
X030392Y006611D03*
X030432Y006391D03*
X030442Y006371D03*
X031642Y006371D03*
X031972Y006331D03*
X032042Y006641D03*
X031642Y006701D03*
X031862Y005671D03*
X030952Y005491D03*
X030582Y005661D03*
D83*
X030137Y005511D03*
X031217Y006761D03*
X030307Y007261D03*
X030867Y008051D03*
X031567Y008091D03*
X032307Y008191D03*
X032317Y008181D03*
X030127Y008191D03*
X032847Y006091D03*
X032847Y006081D03*
X032287Y005511D03*
X032277Y005501D03*
X025447Y005981D03*
X025447Y005991D03*
X024887Y005411D03*
X024877Y005401D03*
X023817Y006661D03*
X022907Y007161D03*
X022727Y008091D03*
X023467Y007951D03*
X024167Y007991D03*
X024907Y008091D03*
X024917Y008081D03*
X022737Y005411D03*
D84*
X023222Y005541D03*
X023532Y005401D03*
X024092Y005401D03*
X024382Y005531D03*
X024242Y006281D03*
X024242Y006591D03*
X024632Y006571D03*
X023812Y006511D03*
X023812Y006501D03*
X023062Y006241D03*
X022992Y006531D03*
X022992Y006541D03*
X022992Y006551D03*
X022992Y006561D03*
X022812Y007221D03*
X024202Y008121D03*
X030212Y007321D03*
X030392Y006661D03*
X030392Y006651D03*
X030392Y006641D03*
X030392Y006631D03*
X030462Y006341D03*
X031212Y006601D03*
X031212Y006611D03*
X031642Y006691D03*
X032032Y006671D03*
X031642Y006381D03*
X031782Y005631D03*
X031492Y005501D03*
X030932Y005501D03*
X030622Y005641D03*
X031602Y008221D03*
D85*
X031602Y008211D03*
X031222Y007961D03*
X031992Y006971D03*
X032202Y007011D03*
X032032Y006691D03*
X031642Y006681D03*
X031212Y006621D03*
X031222Y006461D03*
X031222Y006451D03*
X031932Y006291D03*
X031732Y005611D03*
X031712Y005601D03*
X031512Y005511D03*
X030692Y005611D03*
X030402Y006681D03*
X024802Y006911D03*
X024592Y006871D03*
X024632Y006591D03*
X024242Y006581D03*
X023812Y006521D03*
X023822Y006361D03*
X023822Y006351D03*
X024532Y006191D03*
X024332Y005511D03*
X024312Y005501D03*
X024112Y005411D03*
X023292Y005511D03*
X023002Y006581D03*
X023822Y007861D03*
X024202Y008111D03*
D86*
X023447Y008071D03*
X024797Y007231D03*
X024627Y006581D03*
X024547Y006201D03*
X023817Y006371D03*
X023817Y006491D03*
X023387Y006591D03*
X022997Y006571D03*
X023037Y006871D03*
X022827Y006911D03*
X023067Y006231D03*
X023077Y006221D03*
X023387Y006281D03*
X023247Y005531D03*
X023267Y005521D03*
X023517Y005411D03*
X024357Y005521D03*
X030227Y007011D03*
X030437Y006971D03*
X030787Y006691D03*
X030397Y006671D03*
X030467Y006331D03*
X030477Y006321D03*
X030787Y006381D03*
X031217Y006471D03*
X031217Y006591D03*
X031947Y006301D03*
X032027Y006681D03*
X032197Y007331D03*
X030847Y008171D03*
X030647Y005631D03*
X030667Y005621D03*
X030917Y005511D03*
X031757Y005621D03*
D87*
X032302Y005521D03*
X032852Y006101D03*
X031212Y006321D03*
X031222Y006751D03*
X031652Y007911D03*
X032332Y008171D03*
X030862Y008061D03*
X030782Y007921D03*
X030112Y008181D03*
X030102Y008171D03*
X030112Y005531D03*
X030122Y005521D03*
X025452Y006001D03*
X024902Y005421D03*
X023812Y006221D03*
X023822Y006651D03*
X024252Y007811D03*
X024932Y008071D03*
X023462Y007961D03*
X023382Y007821D03*
X022712Y008081D03*
X022702Y008071D03*
X022712Y005431D03*
X022722Y005421D03*
D88*
X023317Y005501D03*
X023497Y005421D03*
X024127Y005421D03*
X023097Y006201D03*
X023087Y006211D03*
X023387Y006291D03*
X023387Y006581D03*
X023007Y006591D03*
X023007Y006601D03*
X023807Y006531D03*
X023817Y006341D03*
X024237Y006291D03*
X024627Y006601D03*
X024627Y006611D03*
X025547Y006661D03*
X025547Y006671D03*
X025547Y006681D03*
X025547Y006691D03*
X025547Y006701D03*
X025547Y006711D03*
X025547Y006721D03*
X025547Y006731D03*
X025547Y006741D03*
X025547Y006751D03*
X025547Y006761D03*
X025547Y006771D03*
X025547Y006781D03*
X025547Y006791D03*
X025547Y006801D03*
X025547Y006811D03*
X025547Y006821D03*
X025547Y006831D03*
X025547Y006841D03*
X025547Y006851D03*
X025527Y007021D03*
X025517Y007081D03*
X025517Y007091D03*
X023447Y008061D03*
X022827Y007211D03*
X022107Y007071D03*
X022107Y007061D03*
X022097Y007021D03*
X022097Y007011D03*
X022097Y007001D03*
X022097Y006991D03*
X022087Y006931D03*
X022087Y006921D03*
X022087Y006911D03*
X022087Y006901D03*
X022087Y006891D03*
X022087Y006881D03*
X022087Y006631D03*
X022087Y006621D03*
X022087Y006611D03*
X022087Y006601D03*
X022087Y006591D03*
X022087Y006581D03*
X022097Y006521D03*
X022097Y006511D03*
X022097Y006501D03*
X022097Y006491D03*
X022097Y006481D03*
X022107Y006451D03*
X022107Y006441D03*
X022107Y006431D03*
X029487Y006681D03*
X029487Y006691D03*
X029487Y006701D03*
X029487Y006711D03*
X029487Y006721D03*
X029487Y006731D03*
X029497Y006621D03*
X029497Y006611D03*
X029497Y006601D03*
X029497Y006591D03*
X029497Y006581D03*
X029507Y006551D03*
X029507Y006541D03*
X029507Y006531D03*
X029487Y006981D03*
X029487Y006991D03*
X029487Y007001D03*
X029487Y007011D03*
X029487Y007021D03*
X029487Y007031D03*
X029497Y007091D03*
X029497Y007101D03*
X029497Y007111D03*
X029497Y007121D03*
X029507Y007161D03*
X029507Y007171D03*
X030227Y007311D03*
X030407Y006701D03*
X030407Y006691D03*
X030787Y006681D03*
X030787Y006391D03*
X030497Y006301D03*
X030487Y006311D03*
X031217Y006441D03*
X031207Y006631D03*
X031637Y006391D03*
X032027Y006701D03*
X032027Y006711D03*
X032947Y006761D03*
X032947Y006771D03*
X032947Y006781D03*
X032947Y006791D03*
X032947Y006801D03*
X032947Y006811D03*
X032947Y006821D03*
X032947Y006831D03*
X032947Y006841D03*
X032947Y006851D03*
X032947Y006861D03*
X032947Y006871D03*
X032947Y006881D03*
X032947Y006891D03*
X032947Y006901D03*
X032947Y006911D03*
X032947Y006921D03*
X032947Y006931D03*
X032947Y006941D03*
X032947Y006951D03*
X032927Y007121D03*
X032917Y007181D03*
X032917Y007191D03*
X030847Y008161D03*
X030717Y005601D03*
X030897Y005521D03*
X031527Y005521D03*
D89*
X032317Y005531D03*
X032327Y005541D03*
X032857Y006111D03*
X032857Y006121D03*
X032857Y006131D03*
X031217Y006741D03*
X032127Y007281D03*
X031187Y007431D03*
X031227Y008021D03*
X031577Y008101D03*
X032337Y008161D03*
X030087Y008161D03*
X030077Y008151D03*
X030067Y008141D03*
X030087Y005551D03*
X030097Y005541D03*
X025457Y006011D03*
X025457Y006021D03*
X025457Y006031D03*
X024927Y005441D03*
X024917Y005431D03*
X023817Y006641D03*
X024727Y007181D03*
X023787Y007331D03*
X023827Y007921D03*
X024177Y008001D03*
X024937Y008061D03*
X022687Y008061D03*
X022677Y008051D03*
X022667Y008041D03*
X022687Y005451D03*
X022697Y005441D03*
D90*
X023117Y006181D03*
X023017Y006621D03*
X023017Y006631D03*
X023387Y006571D03*
X023817Y006561D03*
X023817Y006321D03*
X024517Y006181D03*
X024607Y006641D03*
X024787Y007221D03*
X025427Y007391D03*
X025437Y007371D03*
X025437Y007361D03*
X025447Y007341D03*
X025457Y007321D03*
X025457Y007311D03*
X025457Y007301D03*
X025467Y007291D03*
X025467Y007281D03*
X025467Y007271D03*
X025477Y007251D03*
X025477Y007241D03*
X025537Y006541D03*
X025537Y006531D03*
X025537Y006521D03*
X025537Y006511D03*
X025537Y006501D03*
X025537Y006491D03*
X024257Y005481D03*
X024147Y005431D03*
X022187Y006151D03*
X022177Y006181D03*
X022167Y006211D03*
X022157Y006231D03*
X022157Y006241D03*
X022157Y006251D03*
X022147Y006271D03*
X022147Y006281D03*
X022127Y006351D03*
X022127Y007161D03*
X022137Y007201D03*
X022147Y007231D03*
X022147Y007241D03*
X022157Y007261D03*
X022157Y007271D03*
X022157Y007281D03*
X022167Y007301D03*
X022177Y007321D03*
X022177Y007331D03*
X022187Y007361D03*
X023447Y008051D03*
X029527Y007261D03*
X029537Y007301D03*
X029547Y007331D03*
X029547Y007341D03*
X029557Y007361D03*
X029557Y007371D03*
X029557Y007381D03*
X029567Y007401D03*
X029577Y007421D03*
X029577Y007431D03*
X029587Y007461D03*
X030417Y006731D03*
X030417Y006721D03*
X030787Y006671D03*
X031217Y006661D03*
X031217Y006421D03*
X030517Y006281D03*
X029587Y006251D03*
X029577Y006281D03*
X029567Y006311D03*
X029557Y006331D03*
X029557Y006341D03*
X029557Y006351D03*
X029547Y006371D03*
X029547Y006381D03*
X029527Y006451D03*
X031547Y005531D03*
X031657Y005581D03*
X031917Y006281D03*
X032007Y006741D03*
X032187Y007321D03*
X032827Y007491D03*
X032837Y007471D03*
X032837Y007461D03*
X032847Y007441D03*
X032857Y007421D03*
X032857Y007411D03*
X032857Y007401D03*
X032867Y007391D03*
X032867Y007381D03*
X032867Y007371D03*
X032877Y007351D03*
X032877Y007341D03*
X032937Y006641D03*
X032937Y006631D03*
X032937Y006621D03*
X032937Y006611D03*
X032937Y006601D03*
X032937Y006591D03*
X030847Y008151D03*
D91*
X031602Y008201D03*
X032872Y007361D03*
X032882Y007331D03*
X032882Y007321D03*
X032892Y007311D03*
X032892Y007301D03*
X032892Y007291D03*
X032892Y007281D03*
X032902Y007271D03*
X032902Y007261D03*
X032902Y007251D03*
X032902Y007241D03*
X032912Y007231D03*
X032912Y007221D03*
X032912Y007211D03*
X032912Y007201D03*
X032922Y007171D03*
X032922Y007161D03*
X032922Y007151D03*
X032922Y007141D03*
X032922Y007131D03*
X032932Y007111D03*
X032932Y007101D03*
X032932Y007091D03*
X032932Y007081D03*
X032932Y007071D03*
X032932Y007061D03*
X032942Y007051D03*
X032942Y007041D03*
X032942Y007031D03*
X032942Y007021D03*
X032942Y007011D03*
X032942Y007001D03*
X032942Y006991D03*
X032942Y006981D03*
X032942Y006971D03*
X032942Y006961D03*
X032942Y006751D03*
X032942Y006741D03*
X032942Y006731D03*
X032942Y006721D03*
X032942Y006711D03*
X032942Y006701D03*
X032942Y006691D03*
X032942Y006681D03*
X032942Y006671D03*
X032942Y006661D03*
X032942Y006651D03*
X032022Y006721D03*
X032012Y006731D03*
X031642Y006671D03*
X031212Y006651D03*
X031212Y006641D03*
X031222Y006431D03*
X030502Y006291D03*
X030412Y006711D03*
X029522Y006491D03*
X029522Y006481D03*
X029522Y006471D03*
X029522Y006461D03*
X029532Y006441D03*
X029532Y006431D03*
X029532Y006421D03*
X029532Y006411D03*
X029542Y006401D03*
X029542Y006391D03*
X029552Y006361D03*
X029512Y006501D03*
X029512Y006511D03*
X029512Y006521D03*
X029502Y006561D03*
X029502Y006571D03*
X029492Y006631D03*
X029492Y006641D03*
X029492Y006651D03*
X029492Y006661D03*
X029492Y006671D03*
X029482Y006741D03*
X029482Y006751D03*
X029482Y006761D03*
X029482Y006771D03*
X029482Y006781D03*
X029482Y006791D03*
X029482Y006801D03*
X029482Y006811D03*
X029482Y006821D03*
X029482Y006831D03*
X029482Y006841D03*
X029482Y006851D03*
X029482Y006861D03*
X029482Y006871D03*
X029482Y006881D03*
X029482Y006891D03*
X029482Y006901D03*
X029482Y006911D03*
X029482Y006921D03*
X029482Y006931D03*
X029482Y006941D03*
X029482Y006951D03*
X029482Y006961D03*
X029482Y006971D03*
X029492Y007041D03*
X029492Y007051D03*
X029492Y007061D03*
X029492Y007071D03*
X029492Y007081D03*
X029502Y007131D03*
X029502Y007141D03*
X029502Y007151D03*
X029512Y007181D03*
X029512Y007191D03*
X029512Y007201D03*
X029512Y007211D03*
X029522Y007221D03*
X029522Y007231D03*
X029522Y007241D03*
X029522Y007251D03*
X029532Y007271D03*
X029532Y007281D03*
X029532Y007291D03*
X029542Y007311D03*
X029542Y007321D03*
X029552Y007351D03*
X030742Y005591D03*
X030882Y005531D03*
X031682Y005591D03*
X025542Y006551D03*
X025542Y006561D03*
X025542Y006571D03*
X025542Y006581D03*
X025542Y006591D03*
X025542Y006601D03*
X025542Y006611D03*
X025542Y006621D03*
X025542Y006631D03*
X025542Y006641D03*
X025542Y006651D03*
X025542Y006861D03*
X025542Y006871D03*
X025542Y006881D03*
X025542Y006891D03*
X025542Y006901D03*
X025542Y006911D03*
X025542Y006921D03*
X025542Y006931D03*
X025542Y006941D03*
X025542Y006951D03*
X025532Y006961D03*
X025532Y006971D03*
X025532Y006981D03*
X025532Y006991D03*
X025532Y007001D03*
X025532Y007011D03*
X025522Y007031D03*
X025522Y007041D03*
X025522Y007051D03*
X025522Y007061D03*
X025522Y007071D03*
X025512Y007101D03*
X025512Y007111D03*
X025512Y007121D03*
X025512Y007131D03*
X025502Y007141D03*
X025502Y007151D03*
X025502Y007161D03*
X025502Y007171D03*
X025492Y007181D03*
X025492Y007191D03*
X025492Y007201D03*
X025492Y007211D03*
X025482Y007221D03*
X025482Y007231D03*
X025472Y007261D03*
X024622Y006621D03*
X024612Y006631D03*
X024242Y006571D03*
X023812Y006551D03*
X023812Y006541D03*
X023822Y006331D03*
X023102Y006191D03*
X023012Y006611D03*
X022122Y006391D03*
X022122Y006381D03*
X022122Y006371D03*
X022122Y006361D03*
X022132Y006341D03*
X022132Y006331D03*
X022132Y006321D03*
X022132Y006311D03*
X022142Y006301D03*
X022142Y006291D03*
X022152Y006261D03*
X022112Y006401D03*
X022112Y006411D03*
X022112Y006421D03*
X022102Y006461D03*
X022102Y006471D03*
X022092Y006531D03*
X022092Y006541D03*
X022092Y006551D03*
X022092Y006561D03*
X022092Y006571D03*
X022082Y006641D03*
X022082Y006651D03*
X022082Y006661D03*
X022082Y006671D03*
X022082Y006681D03*
X022082Y006691D03*
X022082Y006701D03*
X022082Y006711D03*
X022082Y006721D03*
X022082Y006731D03*
X022082Y006741D03*
X022082Y006751D03*
X022082Y006761D03*
X022082Y006771D03*
X022082Y006781D03*
X022082Y006791D03*
X022082Y006801D03*
X022082Y006811D03*
X022082Y006821D03*
X022082Y006831D03*
X022082Y006841D03*
X022082Y006851D03*
X022082Y006861D03*
X022082Y006871D03*
X022092Y006941D03*
X022092Y006951D03*
X022092Y006961D03*
X022092Y006971D03*
X022092Y006981D03*
X022102Y007031D03*
X022102Y007041D03*
X022102Y007051D03*
X022112Y007081D03*
X022112Y007091D03*
X022112Y007101D03*
X022112Y007111D03*
X022122Y007121D03*
X022122Y007131D03*
X022122Y007141D03*
X022122Y007151D03*
X022132Y007171D03*
X022132Y007181D03*
X022132Y007191D03*
X022142Y007211D03*
X022142Y007221D03*
X022152Y007251D03*
X024202Y008101D03*
X024282Y005491D03*
X023482Y005431D03*
X023342Y005491D03*
D92*
X023372Y005481D03*
X023462Y005441D03*
X023812Y005651D03*
X024162Y005441D03*
X024182Y005451D03*
X025532Y006421D03*
X025532Y006431D03*
X025532Y006441D03*
X025532Y006451D03*
X025532Y006461D03*
X025532Y006471D03*
X025532Y006481D03*
X025452Y007331D03*
X025442Y007351D03*
X025432Y007381D03*
X025422Y007401D03*
X025422Y007411D03*
X025412Y007421D03*
X025412Y007431D03*
X025402Y007441D03*
X025402Y007451D03*
X025392Y007471D03*
X024192Y008091D03*
X023822Y007871D03*
X023442Y008041D03*
X022242Y007491D03*
X022222Y007441D03*
X022212Y007421D03*
X022212Y007411D03*
X022202Y007401D03*
X022202Y007391D03*
X022192Y007381D03*
X022192Y007371D03*
X022182Y007351D03*
X022182Y007341D03*
X022172Y007311D03*
X022162Y007291D03*
X023022Y006641D03*
X023812Y006571D03*
X022232Y006041D03*
X022222Y006071D03*
X022212Y006091D03*
X022212Y006101D03*
X022202Y006111D03*
X022202Y006121D03*
X022192Y006131D03*
X022192Y006141D03*
X022182Y006161D03*
X022182Y006171D03*
X022172Y006191D03*
X022172Y006201D03*
X022162Y006221D03*
X029562Y006321D03*
X029572Y006301D03*
X029572Y006291D03*
X029582Y006271D03*
X029582Y006261D03*
X029592Y006241D03*
X029592Y006231D03*
X029602Y006221D03*
X029602Y006211D03*
X029612Y006201D03*
X029612Y006191D03*
X029622Y006171D03*
X029632Y006141D03*
X030422Y006741D03*
X031212Y006671D03*
X031212Y005751D03*
X030862Y005541D03*
X030772Y005581D03*
X031562Y005541D03*
X031582Y005551D03*
X032932Y006521D03*
X032932Y006531D03*
X032932Y006541D03*
X032932Y006551D03*
X032932Y006561D03*
X032932Y006571D03*
X032932Y006581D03*
X032852Y007431D03*
X032842Y007451D03*
X032832Y007481D03*
X032822Y007501D03*
X032822Y007511D03*
X032812Y007521D03*
X032812Y007531D03*
X032802Y007541D03*
X032802Y007551D03*
X032792Y007571D03*
X031592Y008191D03*
X031222Y007971D03*
X030842Y008141D03*
X029642Y007591D03*
X029622Y007541D03*
X029612Y007521D03*
X029612Y007511D03*
X029602Y007501D03*
X029602Y007491D03*
X029592Y007481D03*
X029592Y007471D03*
X029582Y007451D03*
X029582Y007441D03*
X029572Y007411D03*
X029562Y007391D03*
D93*
X030042Y008121D03*
X030052Y008131D03*
X030782Y007931D03*
X030862Y008071D03*
X031652Y007921D03*
X032352Y008151D03*
X032362Y008141D03*
X032372Y008131D03*
X031212Y006331D03*
X031212Y005771D03*
X032342Y005551D03*
X032352Y005561D03*
X032862Y006141D03*
X032862Y006151D03*
X030072Y005561D03*
X030062Y005571D03*
X025462Y006041D03*
X025462Y006051D03*
X024952Y005461D03*
X024942Y005451D03*
X023812Y005671D03*
X023812Y006231D03*
X022662Y005471D03*
X022672Y005461D03*
X023382Y007831D03*
X023462Y007971D03*
X024252Y007821D03*
X024952Y008051D03*
X024962Y008041D03*
X024972Y008031D03*
X022652Y008031D03*
X022642Y008021D03*
D94*
X022267Y007541D03*
X022267Y007531D03*
X022257Y007521D03*
X022257Y007511D03*
X022247Y007501D03*
X022237Y007481D03*
X022237Y007471D03*
X022227Y007461D03*
X022227Y007451D03*
X022217Y007431D03*
X022837Y007201D03*
X023817Y006581D03*
X023817Y006311D03*
X023817Y006301D03*
X024597Y006651D03*
X025527Y006411D03*
X025527Y006401D03*
X025527Y006391D03*
X025527Y006381D03*
X024227Y005471D03*
X023447Y005451D03*
X022267Y005971D03*
X022257Y005991D03*
X022247Y006001D03*
X022247Y006011D03*
X022237Y006021D03*
X022237Y006031D03*
X022227Y006051D03*
X022227Y006061D03*
X022217Y006081D03*
X025347Y007561D03*
X025357Y007541D03*
X025367Y007531D03*
X025367Y007521D03*
X025377Y007511D03*
X025377Y007501D03*
X025387Y007491D03*
X025387Y007481D03*
X025397Y007461D03*
X024277Y007921D03*
X024197Y008081D03*
X023367Y007931D03*
X023367Y007921D03*
X029617Y007531D03*
X029627Y007551D03*
X029627Y007561D03*
X029637Y007571D03*
X029637Y007581D03*
X029647Y007601D03*
X029657Y007611D03*
X029657Y007621D03*
X029667Y007631D03*
X029667Y007641D03*
X030237Y007301D03*
X030767Y008021D03*
X030767Y008031D03*
X031597Y008181D03*
X031677Y008021D03*
X032747Y007661D03*
X032757Y007641D03*
X032767Y007631D03*
X032767Y007621D03*
X032777Y007611D03*
X032777Y007601D03*
X032787Y007591D03*
X032787Y007581D03*
X032797Y007561D03*
X031997Y006751D03*
X031217Y006681D03*
X031217Y006411D03*
X031217Y006401D03*
X031627Y005571D03*
X030847Y005551D03*
X029667Y006071D03*
X029657Y006091D03*
X029647Y006101D03*
X029647Y006111D03*
X029637Y006121D03*
X029637Y006131D03*
X029627Y006151D03*
X029627Y006161D03*
X029617Y006181D03*
X032927Y006481D03*
X032927Y006491D03*
X032927Y006501D03*
X032927Y006511D03*
D95*
X032922Y006471D03*
X032922Y006461D03*
X032922Y006451D03*
X032922Y006441D03*
X032182Y007001D03*
X031992Y006761D03*
X031892Y006271D03*
X031602Y005561D03*
X030832Y005561D03*
X030802Y005571D03*
X029722Y005971D03*
X029712Y005991D03*
X029702Y006011D03*
X029692Y006021D03*
X029692Y006031D03*
X029682Y006041D03*
X029682Y006051D03*
X029672Y006061D03*
X029662Y006081D03*
X030432Y006751D03*
X030472Y006961D03*
X030242Y007001D03*
X029672Y007651D03*
X029682Y007661D03*
X029682Y007671D03*
X029692Y007681D03*
X029702Y007691D03*
X029702Y007701D03*
X029712Y007711D03*
X029712Y007721D03*
X029722Y007731D03*
X030842Y008131D03*
X032712Y007721D03*
X032722Y007711D03*
X032722Y007701D03*
X032732Y007691D03*
X032732Y007681D03*
X032742Y007671D03*
X032752Y007651D03*
X025522Y006371D03*
X025522Y006361D03*
X025522Y006351D03*
X025522Y006341D03*
X024782Y006901D03*
X024592Y006661D03*
X024492Y006171D03*
X023402Y005471D03*
X023432Y005461D03*
X024202Y005461D03*
X022322Y005871D03*
X022312Y005891D03*
X022302Y005911D03*
X022292Y005921D03*
X022292Y005931D03*
X022282Y005941D03*
X022282Y005951D03*
X022272Y005961D03*
X022262Y005981D03*
X023032Y006651D03*
X023072Y006861D03*
X022842Y006901D03*
X022272Y007551D03*
X022282Y007561D03*
X022282Y007571D03*
X022292Y007581D03*
X022302Y007591D03*
X022302Y007601D03*
X022312Y007611D03*
X022312Y007621D03*
X022322Y007631D03*
X023442Y008031D03*
X025312Y007621D03*
X025322Y007611D03*
X025322Y007601D03*
X025332Y007591D03*
X025332Y007581D03*
X025342Y007571D03*
X025352Y007551D03*
D96*
X025007Y008001D03*
X024997Y008011D03*
X024987Y008021D03*
X024257Y007831D03*
X024177Y008011D03*
X023827Y007911D03*
X023377Y007841D03*
X022637Y008011D03*
X025467Y006071D03*
X025467Y006061D03*
X024987Y005491D03*
X024977Y005481D03*
X024967Y005471D03*
X022647Y005481D03*
X022637Y005491D03*
X022627Y005501D03*
X030027Y005601D03*
X030037Y005591D03*
X030047Y005581D03*
X032367Y005571D03*
X032377Y005581D03*
X032387Y005591D03*
X032867Y006161D03*
X032867Y006171D03*
X032407Y008101D03*
X032397Y008111D03*
X032387Y008121D03*
X031657Y007931D03*
X031577Y008111D03*
X031227Y008011D03*
X030777Y007941D03*
X030037Y008111D03*
D97*
X030022Y008101D03*
X030012Y008091D03*
X030852Y008081D03*
X031582Y008121D03*
X031662Y007941D03*
X032422Y008091D03*
X032432Y008081D03*
X032442Y008071D03*
X030282Y007271D03*
X032872Y006191D03*
X032872Y006181D03*
X032422Y005621D03*
X032412Y005611D03*
X032402Y005601D03*
X025472Y006081D03*
X025472Y006091D03*
X025022Y005521D03*
X025012Y005511D03*
X025002Y005501D03*
X022882Y007171D03*
X022612Y007991D03*
X022622Y008001D03*
X023452Y007981D03*
X024182Y008021D03*
X024262Y007841D03*
X025022Y007991D03*
X025032Y007981D03*
X025042Y007971D03*
D98*
X025047Y007961D03*
X024737Y007191D03*
X023817Y006631D03*
X023807Y006241D03*
X023087Y006701D03*
X023377Y007851D03*
X022597Y007981D03*
X022587Y007971D03*
X022577Y007961D03*
X022567Y007951D03*
X025477Y006111D03*
X025477Y006101D03*
X025037Y005531D03*
X022617Y005511D03*
X022607Y005521D03*
X022597Y005531D03*
X029997Y005631D03*
X030007Y005621D03*
X030017Y005611D03*
X031207Y006341D03*
X031217Y006731D03*
X030487Y006801D03*
X032137Y007291D03*
X032447Y008061D03*
X030777Y007951D03*
X029997Y008081D03*
X029987Y008071D03*
X029977Y008061D03*
X029967Y008051D03*
X032877Y006211D03*
X032877Y006201D03*
X032437Y005631D03*
D99*
X032442Y005641D03*
X032452Y005651D03*
X032462Y005661D03*
X032472Y005671D03*
X032482Y005681D03*
X032882Y006221D03*
X032882Y006231D03*
X031922Y006951D03*
X030502Y006951D03*
X030472Y006791D03*
X030772Y007961D03*
X030852Y008091D03*
X031222Y008001D03*
X031582Y008131D03*
X031662Y007951D03*
X032462Y008051D03*
X032472Y008041D03*
X032482Y008031D03*
X029962Y008041D03*
X029952Y008031D03*
X029942Y008021D03*
X029932Y008011D03*
X029952Y005671D03*
X029962Y005661D03*
X029972Y005651D03*
X029982Y005641D03*
X025482Y006121D03*
X025482Y006131D03*
X025082Y005581D03*
X025072Y005571D03*
X025062Y005561D03*
X025052Y005551D03*
X025042Y005541D03*
X024522Y006851D03*
X023102Y006851D03*
X023072Y006691D03*
X023372Y007861D03*
X023452Y007991D03*
X023822Y007901D03*
X024182Y008031D03*
X024262Y007851D03*
X025062Y007951D03*
X025072Y007941D03*
X025082Y007931D03*
X022562Y007941D03*
X022552Y007931D03*
X022542Y007921D03*
X022532Y007911D03*
X022552Y005571D03*
X022562Y005561D03*
X022572Y005551D03*
X022582Y005541D03*
D100*
X022547Y005581D03*
X022537Y005591D03*
X022527Y005601D03*
X022837Y005921D03*
X022827Y005931D03*
X022847Y005911D03*
X023817Y006621D03*
X024557Y006701D03*
X025487Y006161D03*
X025487Y006151D03*
X025487Y006141D03*
X024787Y005921D03*
X025097Y005601D03*
X025087Y005591D03*
X022867Y007181D03*
X023377Y007871D03*
X024267Y007861D03*
X025087Y007921D03*
X025097Y007911D03*
X025107Y007901D03*
X025117Y007891D03*
X029927Y005701D03*
X029937Y005691D03*
X029947Y005681D03*
X030247Y006011D03*
X030237Y006021D03*
X030227Y006031D03*
X031217Y006721D03*
X031957Y006801D03*
X032887Y006261D03*
X032887Y006251D03*
X032887Y006241D03*
X032187Y006021D03*
X032497Y005701D03*
X032487Y005691D03*
X030267Y007281D03*
X030777Y007971D03*
X031667Y007961D03*
X032487Y008021D03*
X032497Y008011D03*
X032507Y008001D03*
X032517Y007991D03*
D101*
X032522Y007981D03*
X032532Y007971D03*
X032542Y007961D03*
X032552Y007951D03*
X031582Y008141D03*
X030852Y008101D03*
X030772Y007981D03*
X029922Y008001D03*
X029912Y007991D03*
X029902Y007981D03*
X029892Y007971D03*
X030262Y006991D03*
X031212Y006351D03*
X030222Y006041D03*
X029912Y005711D03*
X032202Y006031D03*
X032212Y006041D03*
X032522Y005721D03*
X032512Y005711D03*
X032892Y006271D03*
X032892Y006281D03*
X032162Y006991D03*
X025492Y006181D03*
X025492Y006171D03*
X024812Y005941D03*
X024802Y005931D03*
X025122Y005621D03*
X025112Y005611D03*
X023812Y006251D03*
X022822Y005941D03*
X022512Y005611D03*
X022862Y006891D03*
X022492Y007871D03*
X022502Y007881D03*
X022512Y007891D03*
X022522Y007901D03*
X023372Y007881D03*
X023452Y008001D03*
X024182Y008041D03*
X025122Y007881D03*
X025132Y007871D03*
X025142Y007861D03*
X025152Y007851D03*
X024762Y006891D03*
D102*
X024572Y006691D03*
X023812Y006261D03*
X023052Y006681D03*
X022782Y005981D03*
X022452Y005691D03*
X022442Y005701D03*
X022432Y005711D03*
X022462Y005671D03*
X022472Y005661D03*
X023812Y005661D03*
X024842Y005971D03*
X024852Y005981D03*
X024862Y005991D03*
X025502Y006221D03*
X025502Y006231D03*
X025502Y006241D03*
X025222Y007761D03*
X025212Y007771D03*
X025192Y007801D03*
X025182Y007811D03*
X024272Y007881D03*
X023372Y007891D03*
X022452Y007821D03*
X022432Y007791D03*
X022422Y007781D03*
X029822Y007881D03*
X029832Y007891D03*
X029852Y007921D03*
X030772Y007991D03*
X031672Y007981D03*
X032582Y007911D03*
X032592Y007901D03*
X032612Y007871D03*
X032622Y007861D03*
X031972Y006791D03*
X031212Y006361D03*
X030452Y006781D03*
X030182Y006081D03*
X029852Y005791D03*
X029842Y005801D03*
X029832Y005811D03*
X029862Y005771D03*
X029872Y005761D03*
X031212Y005761D03*
X032242Y006071D03*
X032252Y006081D03*
X032262Y006091D03*
X032902Y006321D03*
X032902Y006331D03*
X032902Y006341D03*
D103*
X032732Y005781D03*
X031962Y008381D03*
X025332Y005681D03*
X024562Y008281D03*
D104*
X024207Y007751D03*
X022967Y007131D03*
X023807Y006181D03*
X023817Y005691D03*
X025387Y005801D03*
X030367Y007231D03*
X031607Y007851D03*
X031207Y006281D03*
X031217Y005791D03*
X032787Y005901D03*
D105*
X032742Y005801D03*
X030422Y007211D03*
X030442Y008371D03*
X025342Y005701D03*
X023022Y007111D03*
X023042Y008271D03*
D106*
X023007Y008261D03*
X023447Y007741D03*
X024177Y007741D03*
X024617Y008261D03*
X024617Y007131D03*
X025357Y005731D03*
X023817Y005701D03*
X030407Y008361D03*
X030847Y007841D03*
X031577Y007841D03*
X032017Y008361D03*
X032017Y007231D03*
X032757Y005831D03*
X031217Y005801D03*
D107*
X031217Y006371D03*
X031977Y006781D03*
X032267Y006101D03*
X032907Y006351D03*
X032907Y006361D03*
X032637Y007841D03*
X032627Y007851D03*
X032607Y007881D03*
X032597Y007891D03*
X030447Y006771D03*
X030157Y006101D03*
X030167Y006091D03*
X029767Y005901D03*
X029787Y005871D03*
X029797Y005861D03*
X029807Y005841D03*
X029817Y005831D03*
X029827Y005821D03*
X029797Y007851D03*
X029807Y007861D03*
X029817Y007871D03*
X025507Y006261D03*
X025507Y006251D03*
X024867Y006001D03*
X024577Y006681D03*
X023817Y006271D03*
X023047Y006671D03*
X022757Y006001D03*
X022767Y005991D03*
X022427Y005721D03*
X022417Y005731D03*
X022407Y005741D03*
X022397Y005761D03*
X022387Y005771D03*
X022367Y005801D03*
X022397Y007751D03*
X022407Y007761D03*
X022417Y007771D03*
X025197Y007791D03*
X025207Y007781D03*
X025227Y007751D03*
X025237Y007741D03*
D108*
X023792Y007351D03*
X023812Y005731D03*
X031212Y005831D03*
X031192Y007451D03*
D109*
X031212Y007001D03*
X030502Y007191D03*
X030562Y008411D03*
X031212Y005841D03*
X023812Y005741D03*
X023812Y006901D03*
X023102Y007091D03*
X023162Y008311D03*
D110*
X023442Y008021D03*
X023372Y007901D03*
X023822Y007881D03*
X024192Y008061D03*
X024272Y007901D03*
X024272Y007891D03*
X025242Y007731D03*
X025252Y007721D03*
X025262Y007711D03*
X025262Y007701D03*
X025272Y007691D03*
X025282Y007671D03*
X024582Y006671D03*
X023822Y006601D03*
X023042Y006661D03*
X022852Y007191D03*
X022342Y007671D03*
X022362Y007701D03*
X022372Y007711D03*
X022372Y007721D03*
X022382Y007731D03*
X022392Y007741D03*
X025512Y006291D03*
X025512Y006281D03*
X025512Y006271D03*
X022402Y005751D03*
X022382Y005781D03*
X022372Y005791D03*
X022362Y005811D03*
X022352Y005821D03*
X022342Y005841D03*
X022332Y005851D03*
X029732Y005951D03*
X029742Y005941D03*
X029752Y005921D03*
X029762Y005911D03*
X029772Y005891D03*
X029782Y005881D03*
X029802Y005851D03*
X030442Y006761D03*
X030252Y007291D03*
X029742Y007771D03*
X029762Y007801D03*
X029772Y007811D03*
X029772Y007821D03*
X029782Y007831D03*
X029792Y007841D03*
X030772Y008001D03*
X030842Y008121D03*
X031222Y007981D03*
X031592Y008161D03*
X031672Y008001D03*
X031672Y007991D03*
X032642Y007831D03*
X032652Y007821D03*
X032662Y007811D03*
X032662Y007801D03*
X032672Y007791D03*
X032682Y007771D03*
X031982Y006771D03*
X031222Y006701D03*
X032912Y006391D03*
X032912Y006381D03*
X032912Y006371D03*
D111*
X032777Y005881D03*
X032777Y005871D03*
X032077Y008331D03*
X031217Y008721D03*
X025377Y005781D03*
X025377Y005771D03*
X024677Y008231D03*
X023817Y008621D03*
D112*
X023802Y007371D03*
X023812Y005771D03*
X031212Y005871D03*
X031202Y007471D03*
D113*
X031212Y008681D03*
X031212Y005881D03*
X023812Y005781D03*
X023812Y008581D03*
D114*
X023817Y005791D03*
X031217Y005891D03*
D115*
X031212Y005901D03*
X023812Y005801D03*
D116*
X023812Y005821D03*
X031212Y005921D03*
D117*
X031217Y006381D03*
X031217Y006391D03*
X031217Y006691D03*
X031957Y006961D03*
X032167Y007311D03*
X032697Y007741D03*
X032697Y007751D03*
X032687Y007761D03*
X032677Y007781D03*
X032707Y007731D03*
X031677Y008011D03*
X031597Y008171D03*
X030767Y008011D03*
X029757Y007791D03*
X029747Y007781D03*
X029737Y007761D03*
X029727Y007751D03*
X029727Y007741D03*
X029707Y006001D03*
X029717Y005981D03*
X029727Y005961D03*
X029747Y005931D03*
X032917Y006401D03*
X032917Y006411D03*
X032917Y006421D03*
X032917Y006431D03*
X025517Y006331D03*
X025517Y006321D03*
X025517Y006311D03*
X025517Y006301D03*
X024557Y006861D03*
X024767Y007211D03*
X025297Y007641D03*
X025297Y007651D03*
X025287Y007661D03*
X025277Y007681D03*
X025307Y007631D03*
X024277Y007911D03*
X024197Y008071D03*
X023367Y007911D03*
X022357Y007691D03*
X022347Y007681D03*
X022337Y007661D03*
X022327Y007651D03*
X022327Y007641D03*
X023817Y006591D03*
X023817Y006291D03*
X023817Y006281D03*
X022347Y005831D03*
X022327Y005861D03*
X022317Y005881D03*
X022307Y005901D03*
D118*
X023812Y005841D03*
X031212Y005941D03*
D119*
X030222Y006151D03*
X030212Y006161D03*
X030202Y006171D03*
X030142Y006221D03*
X030132Y006231D03*
X030122Y005991D03*
X030132Y005981D03*
X030142Y005971D03*
X030152Y005961D03*
X029852Y006501D03*
X030032Y006891D03*
X030042Y006901D03*
X031642Y006731D03*
X032382Y006901D03*
X032392Y006891D03*
X032402Y006881D03*
X032412Y006871D03*
X032422Y006861D03*
X032572Y006501D03*
X032262Y006201D03*
X032252Y006191D03*
X032242Y006181D03*
X032232Y006171D03*
X032222Y006161D03*
X032292Y005981D03*
X032282Y005971D03*
X032272Y005961D03*
X032262Y005951D03*
X025172Y006401D03*
X024862Y006101D03*
X024852Y006091D03*
X024842Y006081D03*
X024832Y006071D03*
X024822Y006061D03*
X024892Y005881D03*
X024882Y005871D03*
X024872Y005861D03*
X024862Y005851D03*
X024242Y006631D03*
X024982Y006801D03*
X024992Y006791D03*
X025002Y006781D03*
X025012Y006771D03*
X025022Y006761D03*
X022822Y006051D03*
X022812Y006061D03*
X022802Y006071D03*
X022742Y006121D03*
X022732Y006131D03*
X022722Y005891D03*
X022732Y005881D03*
X022742Y005871D03*
X022752Y005861D03*
X022452Y006401D03*
X022632Y006791D03*
X022642Y006801D03*
D120*
X023812Y005861D03*
X031212Y005961D03*
D121*
X031212Y005971D03*
X031212Y008641D03*
X023812Y008541D03*
X023812Y005871D03*
D122*
X024757Y006011D03*
X024767Y006021D03*
X024777Y006031D03*
X024797Y006041D03*
X024807Y006051D03*
X024917Y005911D03*
X024917Y005901D03*
X024907Y005891D03*
X025177Y006411D03*
X024157Y006301D03*
X023477Y006301D03*
X023297Y006301D03*
X023387Y006631D03*
X022617Y006781D03*
X022587Y006741D03*
X022447Y006411D03*
X022837Y006041D03*
X022847Y006031D03*
X022857Y006021D03*
X022867Y006011D03*
X022717Y005901D03*
X022857Y007291D03*
X024207Y008161D03*
X024747Y007301D03*
X029847Y006511D03*
X029987Y006841D03*
X030017Y006881D03*
X030787Y006731D03*
X030697Y006401D03*
X030877Y006401D03*
X030267Y006111D03*
X030257Y006121D03*
X030247Y006131D03*
X030237Y006141D03*
X030117Y006001D03*
X031557Y006401D03*
X032157Y006111D03*
X032167Y006121D03*
X032177Y006131D03*
X032197Y006141D03*
X032207Y006151D03*
X032317Y006011D03*
X032317Y006001D03*
X032307Y005991D03*
X032577Y006511D03*
X032147Y007401D03*
X031607Y008261D03*
X030257Y007391D03*
D123*
X031212Y005991D03*
X023812Y005891D03*
D124*
X023812Y005901D03*
X023812Y006931D03*
X023812Y008531D03*
X031212Y008631D03*
X031212Y007031D03*
X031212Y006001D03*
D125*
X031212Y006011D03*
X023812Y005911D03*
D126*
X023812Y005921D03*
X031212Y006021D03*
D127*
X031212Y006031D03*
X023812Y005931D03*
D128*
X023812Y005951D03*
X031212Y006051D03*
D129*
X031212Y006071D03*
X031212Y007041D03*
X031222Y007541D03*
X023822Y007441D03*
X023812Y006941D03*
X023812Y005971D03*
D130*
X023817Y005981D03*
X023807Y007661D03*
X023807Y007671D03*
X023807Y007681D03*
X023807Y007691D03*
X031207Y007761D03*
X031207Y007771D03*
X031207Y007781D03*
X031207Y007791D03*
X031217Y006081D03*
D131*
X031212Y006101D03*
X031202Y007731D03*
X023802Y007631D03*
X023812Y006001D03*
D132*
X022572Y006011D03*
X025052Y006011D03*
X029972Y006111D03*
X032452Y006111D03*
D133*
X031217Y006121D03*
X031207Y007681D03*
X023807Y007581D03*
X023817Y006021D03*
D134*
X023812Y006031D03*
X023802Y007561D03*
X023802Y007571D03*
X031202Y007661D03*
X031202Y007671D03*
X031212Y006131D03*
D135*
X031212Y006151D03*
X031212Y007571D03*
X031202Y007581D03*
X031202Y007591D03*
X031202Y007601D03*
X023812Y007471D03*
X023802Y007481D03*
X023802Y007491D03*
X023802Y007501D03*
X023812Y006051D03*
D136*
X023817Y006061D03*
X031217Y006161D03*
D137*
X031212Y006171D03*
X031212Y008571D03*
X023812Y008471D03*
X023812Y006071D03*
D138*
X023817Y006091D03*
X031217Y006191D03*
D139*
X031217Y006201D03*
X023817Y006101D03*
D140*
X023817Y006121D03*
X031217Y006221D03*
D141*
X031212Y006231D03*
X031212Y008551D03*
X023812Y008451D03*
X023812Y006131D03*
D142*
X023817Y006141D03*
X031217Y006241D03*
D143*
X031217Y006261D03*
X023817Y006161D03*
D144*
X023562Y006171D03*
X030962Y006271D03*
D145*
X030787Y006331D03*
X031647Y006331D03*
X031957Y006561D03*
X024557Y006461D03*
X024247Y006231D03*
X023387Y006231D03*
D146*
X023272Y006311D03*
X023282Y006561D03*
X023502Y006561D03*
X024232Y006441D03*
X024242Y006431D03*
X024242Y006421D03*
X024242Y006411D03*
X024352Y006311D03*
X024242Y006241D03*
X024352Y006561D03*
X025122Y006611D03*
X025132Y006601D03*
X025132Y006591D03*
X025142Y006581D03*
X025142Y006571D03*
X025152Y006551D03*
X025152Y006541D03*
X025162Y006531D03*
X025162Y006521D03*
X025172Y006501D03*
X025172Y006491D03*
X025182Y006471D03*
X025182Y006461D03*
X025182Y006441D03*
X022882Y007311D03*
X022502Y006611D03*
X022492Y006591D03*
X022482Y006571D03*
X022482Y006561D03*
X022472Y006541D03*
X022472Y006531D03*
X022462Y006521D03*
X022462Y006511D03*
X022462Y006501D03*
X022452Y006491D03*
X022452Y006481D03*
X022442Y006461D03*
X022442Y006451D03*
X022442Y006441D03*
X022442Y006431D03*
X029842Y006531D03*
X029842Y006541D03*
X029842Y006551D03*
X029842Y006561D03*
X029852Y006581D03*
X029852Y006591D03*
X029862Y006601D03*
X029862Y006611D03*
X029862Y006621D03*
X029872Y006631D03*
X029872Y006641D03*
X029882Y006661D03*
X029882Y006671D03*
X029892Y006691D03*
X029902Y006711D03*
X030672Y006411D03*
X030682Y006661D03*
X030902Y006661D03*
X031632Y006541D03*
X031642Y006531D03*
X031642Y006521D03*
X031642Y006511D03*
X031752Y006411D03*
X031642Y006341D03*
X031752Y006661D03*
X032522Y006711D03*
X032532Y006701D03*
X032532Y006691D03*
X032542Y006681D03*
X032542Y006671D03*
X032552Y006651D03*
X032552Y006641D03*
X032562Y006631D03*
X032562Y006621D03*
X032572Y006601D03*
X032572Y006591D03*
X032582Y006571D03*
X032582Y006561D03*
X032582Y006541D03*
X030282Y007411D03*
D147*
X030297Y007421D03*
X030637Y006621D03*
X030627Y006611D03*
X030627Y006471D03*
X030637Y006451D03*
X030647Y006441D03*
X030787Y006501D03*
X030787Y006571D03*
X030937Y006621D03*
X030947Y006611D03*
X030957Y006581D03*
X030947Y006461D03*
X030937Y006451D03*
X031477Y006471D03*
X031487Y006461D03*
X031487Y006451D03*
X031497Y006441D03*
X031477Y006601D03*
X031487Y006621D03*
X031497Y006631D03*
X031637Y006571D03*
X031777Y006641D03*
X031787Y006631D03*
X031797Y006621D03*
X031797Y006611D03*
X031797Y006461D03*
X032237Y007051D03*
X024837Y006951D03*
X024397Y006521D03*
X024397Y006511D03*
X024387Y006531D03*
X024377Y006541D03*
X024237Y006471D03*
X024097Y006531D03*
X024087Y006521D03*
X024077Y006501D03*
X024077Y006371D03*
X024087Y006361D03*
X024087Y006351D03*
X024097Y006341D03*
X024397Y006361D03*
X023557Y006481D03*
X023547Y006511D03*
X023537Y006521D03*
X023387Y006471D03*
X023387Y006401D03*
X023247Y006341D03*
X023237Y006351D03*
X023227Y006371D03*
X023227Y006511D03*
X023237Y006521D03*
X023537Y006351D03*
X023547Y006361D03*
X022897Y007321D03*
D148*
X022927Y007341D03*
X022777Y006961D03*
X022877Y006471D03*
X023867Y006381D03*
X030177Y007061D03*
X030327Y007441D03*
X030277Y006571D03*
X031267Y006481D03*
D149*
X031212Y006481D03*
X030282Y006491D03*
X032072Y007451D03*
X024672Y007351D03*
X023812Y006381D03*
X022882Y006391D03*
D150*
X024232Y006481D03*
X031632Y006581D03*
D151*
X031647Y006741D03*
X032247Y007061D03*
X030787Y006741D03*
X030787Y006591D03*
X024847Y006961D03*
X024247Y006641D03*
X023387Y006641D03*
X023387Y006491D03*
D152*
X023527Y006711D03*
X023817Y007421D03*
X030927Y006811D03*
X031217Y007521D03*
D153*
X031217Y006841D03*
X031217Y006831D03*
X031217Y006821D03*
X031217Y008491D03*
X023817Y008391D03*
X023817Y006741D03*
X023817Y006731D03*
X023817Y006721D03*
D154*
X023812Y006751D03*
X023812Y006761D03*
X023812Y006771D03*
X023812Y006781D03*
X031212Y006851D03*
X031212Y006861D03*
X031212Y006871D03*
X031212Y006881D03*
D155*
X031217Y006891D03*
X023817Y006791D03*
D156*
X023817Y006821D03*
X031217Y006921D03*
D157*
X031212Y007011D03*
X023812Y006911D03*
D158*
X023812Y006921D03*
X031212Y007021D03*
D159*
X031207Y007051D03*
X023807Y006951D03*
D160*
X023812Y006971D03*
X031212Y007071D03*
D161*
X031212Y007081D03*
X031212Y008521D03*
X023812Y008421D03*
X023812Y006981D03*
D162*
X023812Y006991D03*
X031212Y007091D03*
D163*
X031207Y007101D03*
X023807Y007001D03*
D164*
X023812Y007041D03*
X031212Y007141D03*
D165*
X031212Y007151D03*
X023812Y007051D03*
D166*
X023812Y007061D03*
X031212Y007161D03*
D167*
X031212Y007171D03*
X023812Y007071D03*
D168*
X024387Y007081D03*
X023807Y007381D03*
X023817Y008571D03*
X031217Y008671D03*
X031207Y007481D03*
X031787Y007181D03*
D169*
X030587Y007181D03*
X023187Y007081D03*
D170*
X024477Y007091D03*
X023817Y008591D03*
X031217Y008691D03*
X031877Y007191D03*
D171*
X030467Y007201D03*
X023067Y007101D03*
D172*
X024562Y007111D03*
X031962Y007211D03*
D173*
X031212Y007491D03*
X023812Y007391D03*
D174*
X023817Y007411D03*
X031217Y007511D03*
D175*
X031217Y007561D03*
X031207Y007641D03*
X031207Y007651D03*
X023817Y007461D03*
X023807Y007541D03*
X023807Y007551D03*
D176*
X023807Y007611D03*
X023807Y007621D03*
X031207Y007711D03*
X031207Y007721D03*
D177*
X031207Y007801D03*
X031207Y007811D03*
X023807Y007711D03*
X023807Y007701D03*
D178*
X023807Y007731D03*
X023817Y008511D03*
X031217Y008611D03*
X031207Y007831D03*
D179*
X030527Y008401D03*
X031897Y008401D03*
X024497Y008301D03*
X023127Y008301D03*
D180*
X023212Y008321D03*
X024422Y008321D03*
X030612Y008421D03*
X031822Y008421D03*
D181*
X031212Y008431D03*
X023812Y008331D03*
D182*
X023817Y008341D03*
X031217Y008441D03*
D183*
X031217Y008461D03*
X023817Y008361D03*
D184*
X023812Y008411D03*
X031212Y008511D03*
D185*
X031217Y008531D03*
X023817Y008431D03*
D186*
X023817Y008441D03*
X031217Y008541D03*
D187*
X031212Y008561D03*
X023812Y008461D03*
D188*
X023812Y008501D03*
X031212Y008601D03*
D189*
X031217Y008621D03*
X023817Y008521D03*
D190*
X021904Y006743D02*
X021906Y006831D01*
X021912Y006918D01*
X021922Y007005D01*
X021936Y007092D01*
X021953Y007178D01*
X021975Y007262D01*
X022000Y007346D01*
X022029Y007429D01*
X022062Y007510D01*
X022099Y007590D01*
X022139Y007668D01*
X022182Y007744D01*
X022229Y007818D01*
X022279Y007890D01*
X022333Y007959D01*
X022389Y008026D01*
X022449Y008091D01*
X022511Y008152D01*
X022576Y008211D01*
X022644Y008267D01*
X022714Y008319D01*
X022786Y008369D01*
X022861Y008415D01*
X022937Y008458D01*
X023016Y008497D01*
X023096Y008532D01*
X023178Y008564D01*
X023261Y008592D01*
X023345Y008617D01*
X023430Y008637D01*
X023516Y008654D01*
X023603Y008667D01*
X023690Y008676D01*
X023777Y008681D01*
X023865Y008682D01*
X023953Y008679D01*
X024040Y008672D01*
X024127Y008661D01*
X024213Y008646D01*
X024299Y008628D01*
X024384Y008605D01*
X024467Y008579D01*
X024549Y008549D01*
X024630Y008515D01*
X024710Y008478D01*
X024787Y008437D01*
X024863Y008392D01*
X024936Y008344D01*
X025007Y008293D01*
X025076Y008239D01*
X025143Y008182D01*
X025206Y008122D01*
X025267Y008059D01*
X025325Y007993D01*
X025380Y007925D01*
X025432Y007854D01*
X025481Y007781D01*
X025526Y007706D01*
X025568Y007629D01*
X025606Y007550D01*
X025641Y007470D01*
X025672Y007388D01*
X025699Y007305D01*
X025722Y007220D01*
X025742Y007135D01*
X025758Y007048D01*
X025770Y006962D01*
X025778Y006874D01*
X025782Y006787D01*
X025782Y006699D01*
X025778Y006612D01*
X025770Y006524D01*
X025758Y006438D01*
X025742Y006351D01*
X025722Y006266D01*
X025699Y006181D01*
X025672Y006098D01*
X025641Y006016D01*
X025606Y005936D01*
X025568Y005857D01*
X025526Y005780D01*
X025481Y005705D01*
X025432Y005632D01*
X025380Y005561D01*
X025325Y005493D01*
X025267Y005427D01*
X025206Y005364D01*
X025143Y005304D01*
X025076Y005247D01*
X025007Y005193D01*
X024936Y005142D01*
X024863Y005094D01*
X024787Y005049D01*
X024710Y005008D01*
X024630Y004971D01*
X024549Y004937D01*
X024467Y004907D01*
X024384Y004881D01*
X024299Y004858D01*
X024213Y004840D01*
X024127Y004825D01*
X024040Y004814D01*
X023953Y004807D01*
X023865Y004804D01*
X023777Y004805D01*
X023690Y004810D01*
X023603Y004819D01*
X023516Y004832D01*
X023430Y004849D01*
X023345Y004869D01*
X023261Y004894D01*
X023178Y004922D01*
X023096Y004954D01*
X023016Y004989D01*
X022937Y005028D01*
X022861Y005071D01*
X022786Y005117D01*
X022714Y005167D01*
X022644Y005219D01*
X022576Y005275D01*
X022511Y005334D01*
X022449Y005395D01*
X022389Y005460D01*
X022333Y005527D01*
X022279Y005596D01*
X022229Y005668D01*
X022182Y005742D01*
X022139Y005818D01*
X022099Y005896D01*
X022062Y005976D01*
X022029Y006057D01*
X022000Y006140D01*
X021975Y006224D01*
X021953Y006308D01*
X021936Y006394D01*
X021922Y006481D01*
X021912Y006568D01*
X021906Y006655D01*
X021904Y006743D01*
X029304Y006843D02*
X029306Y006931D01*
X029312Y007018D01*
X029322Y007105D01*
X029336Y007192D01*
X029353Y007278D01*
X029375Y007362D01*
X029400Y007446D01*
X029429Y007529D01*
X029462Y007610D01*
X029499Y007690D01*
X029539Y007768D01*
X029582Y007844D01*
X029629Y007918D01*
X029679Y007990D01*
X029733Y008059D01*
X029789Y008126D01*
X029849Y008191D01*
X029911Y008252D01*
X029976Y008311D01*
X030044Y008367D01*
X030114Y008419D01*
X030186Y008469D01*
X030261Y008515D01*
X030337Y008558D01*
X030416Y008597D01*
X030496Y008632D01*
X030578Y008664D01*
X030661Y008692D01*
X030745Y008717D01*
X030830Y008737D01*
X030916Y008754D01*
X031003Y008767D01*
X031090Y008776D01*
X031177Y008781D01*
X031265Y008782D01*
X031353Y008779D01*
X031440Y008772D01*
X031527Y008761D01*
X031613Y008746D01*
X031699Y008728D01*
X031784Y008705D01*
X031867Y008679D01*
X031949Y008649D01*
X032030Y008615D01*
X032110Y008578D01*
X032187Y008537D01*
X032263Y008492D01*
X032336Y008444D01*
X032407Y008393D01*
X032476Y008339D01*
X032543Y008282D01*
X032606Y008222D01*
X032667Y008159D01*
X032725Y008093D01*
X032780Y008025D01*
X032832Y007954D01*
X032881Y007881D01*
X032926Y007806D01*
X032968Y007729D01*
X033006Y007650D01*
X033041Y007570D01*
X033072Y007488D01*
X033099Y007405D01*
X033122Y007320D01*
X033142Y007235D01*
X033158Y007148D01*
X033170Y007062D01*
X033178Y006974D01*
X033182Y006887D01*
X033182Y006799D01*
X033178Y006712D01*
X033170Y006624D01*
X033158Y006538D01*
X033142Y006451D01*
X033122Y006366D01*
X033099Y006281D01*
X033072Y006198D01*
X033041Y006116D01*
X033006Y006036D01*
X032968Y005957D01*
X032926Y005880D01*
X032881Y005805D01*
X032832Y005732D01*
X032780Y005661D01*
X032725Y005593D01*
X032667Y005527D01*
X032606Y005464D01*
X032543Y005404D01*
X032476Y005347D01*
X032407Y005293D01*
X032336Y005242D01*
X032263Y005194D01*
X032187Y005149D01*
X032110Y005108D01*
X032030Y005071D01*
X031949Y005037D01*
X031867Y005007D01*
X031784Y004981D01*
X031699Y004958D01*
X031613Y004940D01*
X031527Y004925D01*
X031440Y004914D01*
X031353Y004907D01*
X031265Y004904D01*
X031177Y004905D01*
X031090Y004910D01*
X031003Y004919D01*
X030916Y004932D01*
X030830Y004949D01*
X030745Y004969D01*
X030661Y004994D01*
X030578Y005022D01*
X030496Y005054D01*
X030416Y005089D01*
X030337Y005128D01*
X030261Y005171D01*
X030186Y005217D01*
X030114Y005267D01*
X030044Y005319D01*
X029976Y005375D01*
X029911Y005434D01*
X029849Y005495D01*
X029789Y005560D01*
X029733Y005627D01*
X029679Y005696D01*
X029629Y005768D01*
X029582Y005842D01*
X029539Y005918D01*
X029499Y005996D01*
X029462Y006076D01*
X029429Y006157D01*
X029400Y006240D01*
X029375Y006324D01*
X029353Y006408D01*
X029336Y006494D01*
X029322Y006581D01*
X029312Y006668D01*
X029306Y006755D01*
X029304Y006843D01*
M02*
