%
M48
M72
T01C0.0130
T02C0.0140
T03C0.0380
%
T01
X11980Y6031
X5230Y7681
X14230Y12181
X7480Y14131
T02
X23830Y8631
X31230Y8731
T03
X31630Y11931
X30630Y11931
X29630Y11931
X28630Y11931
X27630Y11931
X26630Y11931
X25630Y11931
X24630Y11931
X23630Y11931
X22630Y11931
X21630Y11931
X20630Y11931
X20630Y12931
X20630Y13931
X20630Y14931
X20630Y15931
X20630Y16931
X20630Y17931
X21630Y17931
X22630Y17931
X23630Y17931
X24630Y17931
X25630Y17931
X26630Y17931
X27630Y17931
X28630Y17931
X29630Y17931
X30630Y17931
X31630Y17931
X32630Y17931
X33630Y17931
X32630Y12931
X32630Y11931
X33630Y11931
X30630Y12931
X29630Y12931
X28630Y12931
M30
